<?xml version="1.0" encoding="utf-8"?>
<!-- Generator: Adobe Illustrator 15.0.2, SVG Export Plug-In . SVG Version: 6.00 Build 0)  -->
<!DOCTYPE svg PUBLIC "-//W3C//DTD SVG 1.1//EN" "http://www.w3.org/Graphics/SVG/1.1/DTD/svg11.dtd">
<svg version="1.1" id="Layer_1" xmlns="http://www.w3.org/2000/svg" xmlns:xlink="http://www.w3.org/1999/xlink" x="0px" y="0px"
	 width="26px" height="26px" viewBox="0 0 26 26" enable-background="new 0 0 26 26" xml:space="preserve">
<g>
	<path fill="#28A745" d="M26,22.79c0,1.772-1.437,3.21-3.21,3.21H3.21C1.438,26,0,24.563,0,22.79V3.21C0,1.437,1.438,0,3.21,0h19.58
		C24.563,0,26,1.437,26,3.21V22.79z"/>
	<g>
		<g>
			<path fill="#FFFFFF" d="M11.814,22.25c-1.668,0-3.247-1.011-3.885-2.657L4.108,9.412C3.708,8.38,3.734,7.25,4.183,6.232
				c0.448-1.018,1.266-1.799,2.302-2.2C7.52,3.629,8.653,3.658,9.669,4.104c1.016,0.448,1.797,1.266,2.199,2.303l1.355,3.634
				c0.103,0.274-0.037,0.577-0.309,0.679c-0.279,0.101-0.579-0.037-0.679-0.309l-1.353-3.628c-0.297-0.768-0.88-1.378-1.639-1.712
				C8.484,4.736,7.64,4.716,6.865,5.016c-0.772,0.3-1.382,0.883-1.717,1.642c-0.335,0.76-0.354,1.604-0.055,2.377l3.821,10.181
				c0.619,1.592,2.421,2.388,4.017,1.77c0.775-0.301,1.386-0.885,1.72-1.645c0.334-0.759,0.353-1.602,0.053-2.374
				c-0.106-0.271,0.027-0.577,0.3-0.684c0.269-0.108,0.578,0.028,0.683,0.3c0.402,1.035,0.379,2.166-0.069,3.182
				c-0.448,1.02-1.267,1.801-2.305,2.204C12.82,22.159,12.314,22.25,11.814,22.25z"/>
			<path fill="#FFFFFF" d="M6.307,14.481c-0.211,0-0.411-0.129-0.492-0.338c-0.106-0.271,0.03-0.577,0.301-0.682l6.114-2.371
				c0.271-0.11,0.576,0.029,0.682,0.301c0.105,0.271-0.03,0.577-0.301,0.682l-6.114,2.371C6.434,14.47,6.37,14.481,6.307,14.481z"/>
		</g>
		<g>
			<g>
				<path fill="#FFFFFF" d="M17.308,17.724c-1.998,0-3.869-1.223-4.765-3.112c-1.254-2.649-0.235-5.771,2.271-6.957
					c0.645-0.306,1.336-0.461,2.053-0.461c2,0,3.87,1.222,4.765,3.113c0.632,1.333,0.715,2.811,0.232,4.162
					c-0.446,1.249-1.335,2.24-2.504,2.792C18.716,17.566,18.024,17.724,17.308,17.724z M16.866,8.249
					c-0.559,0-1.098,0.121-1.602,0.359c-1.98,0.937-2.774,3.428-1.769,5.551c0.722,1.523,2.219,2.508,3.812,2.508
					c0.559,0,1.098-0.121,1.601-0.359c0.913-0.433,1.609-1.211,1.96-2.195c0.389-1.084,0.32-2.276-0.191-3.354
					C19.956,9.234,18.46,8.249,16.866,8.249z"/>
			</g>
			<path fill="#FFFFFF" d="M21.108,15.212c-0.094,0-0.188-0.024-0.272-0.076l-7.958-4.788c-0.248-0.149-0.33-0.474-0.179-0.724
				c0.148-0.251,0.475-0.331,0.724-0.179l7.956,4.789c0.25,0.148,0.331,0.475,0.181,0.724
				C21.462,15.122,21.286,15.212,21.108,15.212z"/>
		</g>
	</g>
</g>
</svg>
