<?xml version="1.0" encoding="utf-8"?>
<!-- Generator: Adobe Illustrator 15.0.2, SVG Export Plug-In . SVG Version: 6.00 Build 0)  -->
<!DOCTYPE svg PUBLIC "-//W3C//DTD SVG 1.1//EN" "http://www.w3.org/Graphics/SVG/1.1/DTD/svg11.dtd">
<svg version="1.1" id="Layer_1" xmlns="http://www.w3.org/2000/svg" xmlns:xlink="http://www.w3.org/1999/xlink" x="0px" y="0px"
	 width="69px" height="69px" viewBox="0 0 69 69" enable-background="new 0 0 69 69" xml:space="preserve">
<g>
	<g>
		<path id="SVGID_1_" fill="#FFFFFF" d="M52.246,20.546c1.368,0.763,2.438,2.652,2.438,4.307v33.59c0,2.515-2.108,4.562-4.699,4.562
			H18.69c-2.591,0-4.696-2.047-4.696-4.562v-33.59c0-1.655,1.069-3.544,2.436-4.307l1.341-0.742v-2.536h-2.685
			c-0.602,0-1.092-0.472-1.092-1.058c0-0.588,0.49-1.061,1.092-1.061h0.09v-4.552c0-1.551,1.3-2.813,2.893-2.813h32.537
			c1.6,0,2.896,1.262,2.896,2.813v4.552h0.091c0.604,0,1.093,0.471,1.093,1.061c0,0.584-0.486,1.058-1.093,1.058h-2.686v2.536
			L52.246,20.546L52.246,20.546z M16.179,58.443c0,1.346,1.126,2.443,2.512,2.443h31.298c1.386,0,2.512-1.098,2.512-2.443v-2.44
			H16.179V58.443L16.179,58.443z M16.179,53.885H52.5V33.363H16.179V53.885L16.179,53.885z M51.316,15.152v-4.551
			c0-0.378-0.322-0.691-0.711-0.691h-4.334v2.059c0,0.585-0.485,1.062-1.088,1.062s-1.093-0.476-1.093-1.062V9.909h-5.047v2.059
			c0,0.585-0.485,1.062-1.093,1.062c-0.604,0-1.088-0.476-1.088-1.062V9.909h-5.047v2.059c0,0.585-0.49,1.062-1.093,1.062
			s-1.093-0.476-1.093-1.062V9.909h-5.042v2.059c0,0.585-0.489,1.062-1.093,1.062c-0.602,0-1.093-0.476-1.093-1.062V9.909h-4.334
			c-0.384,0-0.708,0.313-0.708,0.691v4.551H51.316L51.316,15.152z M49.272,21.337c-0.339-0.186-0.551-0.538-0.551-0.918v-3.15
			h-28.77v3.15c0,0.38-0.208,0.732-0.546,0.918l-1.89,1.05c-0.701,0.391-1.337,1.566-1.337,2.466v6.388H52.5v-6.388
			c0-0.9-0.637-2.075-1.336-2.466L49.272,21.337L49.272,21.337z M40.87,50.051H27.809c-3.65,0-6.617-2.884-6.617-6.428
			c0-3.543,2.967-6.428,6.617-6.428H40.87c3.649,0,6.617,2.885,6.617,6.428C47.487,47.167,44.52,50.051,40.87,50.051L40.87,50.051z
			 M33.247,39.313h-5.438c-2.444,0-4.433,1.933-4.433,4.311c0,2.374,1.988,4.306,4.433,4.306h5.438V39.313L33.247,39.313z
			 M40.87,39.313h-5.439v8.616h5.439c2.443,0,4.432-1.932,4.432-4.306C45.302,41.245,43.313,39.313,40.87,39.313L40.87,39.313z
			 M45.449,21.477h-13.49c-0.604,0-1.093-0.472-1.093-1.059c0-0.586,0.489-1.062,1.093-1.062h13.49c0.602,0,1.092,0.476,1.092,1.062
			C46.541,21.004,46.052,21.477,45.449,21.477L45.449,21.477z M27.593,21.477h-4.365c-0.603,0-1.093-0.472-1.093-1.059
			c0-0.586,0.49-1.062,1.093-1.062h4.365c0.603,0,1.093,0.476,1.093,1.062C28.686,21.004,28.196,21.477,27.593,21.477L27.593,21.477
			z"/>
	</g>
</g>
</svg>
