<?xml version="1.0" encoding="utf-8"?>
<!-- Generator: Adobe Illustrator 15.0.2, SVG Export Plug-In . SVG Version: 6.00 Build 0)  -->
<!DOCTYPE svg PUBLIC "-//W3C//DTD SVG 1.1//EN" "http://www.w3.org/Graphics/SVG/1.1/DTD/svg11.dtd">
<svg version="1.1" id="Layer_1" xmlns="http://www.w3.org/2000/svg" xmlns:xlink="http://www.w3.org/1999/xlink" x="0px" y="0px"
	 width="69px" height="69px" viewBox="0 0 69 69" enable-background="new 0 0 69 69" xml:space="preserve">
<g>
	<g>
		<path fill="#234D7D" d="M11.681,33.837c-0.474,0-0.86-0.386-0.86-0.86v-4.344c0-0.475,0.386-0.86,0.86-0.86h0.701v-1.856h-0.701
			c-1.499,0-2.715,1.218-2.715,2.716v4.344c0,1.498,1.218,2.716,2.715,2.716h6.706v-1.856L11.681,33.837L11.681,33.837z"/>
		<path fill="#234D7D" d="M20.557,25.916h-6.387v1.856h6.387c0.475,0,0.86,0.385,0.86,0.86v4.344c0,0.474-0.386,0.862-0.86,0.862
			h-0.382v1.855h0.382c1.498,0,2.717-1.218,2.717-2.716v-4.344C23.274,27.134,22.055,25.916,20.557,25.916z"/>
	</g>
	<g>
		<path fill="none" d="M10.22,49.517h11.799c5.621-12.067,5.263-29.038,5.621-36.984H4.6C4.959,20.481,5.332,36.135,10.22,49.517z"
			/>
	</g>
	<g>
		<rect x="9.522" y="12.533" fill="#234D7D" width="1.857" height="4.297"/>
	</g>
	<g>
		<rect x="13.154" y="12.533" fill="#234D7D" width="1.856" height="4.297"/>
	</g>
	<g>
		<rect x="16.786" y="12.533" fill="#234D7D" width="1.856" height="4.297"/>
	</g>
	<g>
		<rect x="20.417" y="12.533" fill="#234D7D" width="1.856" height="4.297"/>
	</g>
	<g>
		<rect x="24.047" y="12.533" fill="#234D7D" width="1.857" height="4.297"/>
	</g>
	<g>
		<rect x="5.89" y="12.533" fill="#234D7D" width="1.857" height="4.297"/>
	</g>
	<g>
		<path fill="none" stroke="#030203" stroke-width="1.6859" stroke-miterlimit="10" d="M18.504,50.1"/>
		<path fill="none" stroke="#030203" stroke-width="1.6859" stroke-miterlimit="10" d="M23.852,50.1"/>
	</g>
	<path fill="none" d="M42.779,40.488v1.471h1.672c2.229,0,4.041,1.814,4.041,4.042v10.007h9.788c0.171,0,0.419-0.271,0.419-0.696
		c0-0.126-0.024-0.249-0.07-0.363c-0.183-0.443-0.077-0.955,0.269-1.287c3.502-3.399,5.512-8.421,5.512-13.775
		c0-7.003-3.483-13.379-8.878-16.243c-0.382-0.205-0.623-0.603-0.623-1.038v-0.928c0-0.926-0.585-1.707-1.279-1.707h-8.392
		c-0.694,0-1.281,0.782-1.281,1.707v0.928c0,0.434-0.238,0.833-0.622,1.038c-4.494,2.386-7.654,7.213-8.585,12.808h3.99
		C40.964,36.449,42.779,38.262,42.779,40.488z"/>
	<path fill="none" d="M15.425,59.632c0,0.95,0.771,1.723,1.72,1.723H44.45c0.949,0,1.722-0.772,1.722-1.723v-0.305H15.425V59.632
		L15.425,59.632z"/>
	<rect x="47.502" y="14.412" fill="none" width="3.859" height="3.208"/>
	<path fill="none" d="M56.236,11.371c0-0.396-0.234-0.691-0.444-0.691H43.621c-2.021,0.052-4.376,0.204-6.549,0.923
		c-0.264,0.087-0.73,0.382-0.543,0.998c0.203,0.669,0.87,0.41,0.941,0.386c1.817-0.584,3.433-0.924,6.295-0.924h12.028
		C56.002,12.063,56.236,11.767,56.236,11.371z"/>
	<g>
		<path fill="none" d="M17.144,41.96h1.671v-1.472c0-2.228,1.814-4.039,4.042-4.039h3.015c1.608-9.231,1.529-18.596,1.77-23.917
			H4.601c0.359,7.948,0.731,23.603,5.62,36.984h2.883v-3.516C13.103,43.773,14.917,41.96,17.144,41.96z"/>
		<path fill="none" d="M15.425,59.599v0.033c0,0.95,0.771,1.723,1.72,1.723H44.45c0.949,0,1.722-0.772,1.722-1.723v-0.305H21.557
			c-0.37,0.149-0.767,0.247-1.182,0.27C20.372,59.599,17.755,59.599,15.425,59.599z"/>
		<path fill="none" d="M10.57,51.898v3.907c0,0.93,0.755,1.684,1.686,1.684h0.848v-5.591H10.57z"/>
		<path fill="#234D7D" d="M29.976,10.988c-0.012-0.597-0.5-1.076-1.099-1.076H3.361c-0.598,0-1.087,0.479-1.099,1.076
			c0,0.059-0.107,6.025,0.597,13.885c0.647,7.219,2.132,17.561,5.525,25.975v5.07c0,1.963,1.544,3.573,3.48,3.682
			c0.001,0,0.494,0,1.238,0v-2.108h-0.848c-0.931,0-1.686-0.754-1.686-1.685v-3.908h2.533v-2.382H10.22
			c-3.525-9.647-4.702-20.479-5.219-28.75h14.486V18.91H4.893C4.761,16.474,4.681,14.31,4.6,12.532h23.039
			c-0.079,1.75-0.124,3.946-0.205,6.424v-0.047h-5.089v1.856h5.022c-0.185,4.696-0.545,10.209-1.498,15.683h1.954
			c0.77-4.195,1.255-8.224,1.555-11.578C30.085,17.013,29.977,11.046,29.976,10.988z"/>
	</g>
	<g>
		<path fill="#234D7D" d="M48.28,44.726c-0.534-1.604-2.047-2.767-3.83-2.767h-1.673v-1.471c0-1.239-0.563-2.351-1.444-3.092
			c-0.517-0.436-1.144-0.741-1.835-0.873c-0.246-0.048-0.499-0.075-0.761-0.075h-3.991h-2.375h-4.549h-1.954h-3.015
			c-2.228,0-4.041,1.813-4.041,4.04v1.471h-1.672c-2.228,0-4.041,1.814-4.041,4.041v3.517v2.381v5.592v2.109v0.033
			c0,2.23,1.813,4.041,4.041,4.041h27.307c2.229,0,4.042-1.811,4.042-4.041v-1.276v-2.35v-9.424v-0.581
			C48.491,45.555,48.415,45.127,48.28,44.726z M21.137,40.488c0-0.946,0.771-1.719,1.72-1.719h2.574h1.943h4.77h2.349h4.248
			c0.266,0,0.515,0.065,0.738,0.174c0.579,0.277,0.981,0.863,0.981,1.547v1.471h-0.981H34.56h-2.359H26.65h-1.969h-3.545
			L21.137,40.488L21.137,40.488z M46.172,59.632c0,0.95-0.771,1.723-1.721,1.723H17.144c-0.948,0-1.72-0.772-1.72-1.723v-0.033
			v-0.271h6.132h24.616V59.632L46.172,59.632z M46.172,46.582v0.727H35.825h-2.327v0.48v1.375h0.556h2.605h9.511v6.842v1.465h-7.514
			H23.505h-3.324h-4.756v-5.572v-2.382v-0.353h6.751h1.597v-1.855H22.96h-7.536v-1.308c0-0.948,0.771-1.72,1.72-1.72h6.872h2.034
			h6.477h2.398H39.7h2.176h2.575c0.44,0,0.84,0.172,1.143,0.444c0.353,0.315,0.578,0.768,0.578,1.275V46.582L46.172,46.582z"/>
		<rect x="25.87" y="47.309" fill="#234D7D" width="4.927" height="1.855"/>
	</g>
	<g>
		<path fill="#234D7D" d="M47.531,35.1h8.333c0.92,0,1.666,0.746,1.666,1.663v6.298c0,0.918-0.746,1.665-1.666,1.665h-0.554v1.856
			h0.554c1.941,0,3.522-1.578,3.522-3.521v-6.298c0-1.94-1.581-3.519-3.522-3.519h-8.333V35.1z"/>
		<path fill="#234D7D" d="M66.756,39.884c0-7.59-3.705-14.557-9.5-17.968v-0.239c0-2.206-1.582-4.003-3.545-4.054v-3.211h2.081
			c1.539,0,2.794-1.364,2.794-3.041S57.331,8.33,55.792,8.33H43.605c-0.01,0-0.02,0-0.029,0.001
			c-2.195,0.056-4.772,0.223-7.243,1.04c-0.866,0.288-1.544,0.861-1.908,1.616c-0.361,0.75-0.399,1.607-0.103,2.418
			c0.421,1.158,1.623,1.966,2.922,1.966c0.318,0,0.636-0.048,0.942-0.146c1.638-0.527,3.012-0.813,5.579-0.813h1.387v3.21
			c-1.961,0.05-3.544,1.85-3.544,4.054v0.24c-4.905,2.887-8.306,8.327-9.235,14.533h2.375c0.931-5.594,4.091-10.421,8.585-12.808
			c0.384-0.205,0.624-0.603,0.624-1.038v-0.928c0-0.926,0.585-1.707,1.279-1.707h8.392c0.692,0,1.279,0.782,1.279,1.707v0.928
			c0,0.434,0.241,0.833,0.623,1.038c5.395,2.864,8.878,9.239,8.878,16.242c0,5.354-2.009,10.376-5.512,13.774
			c-0.346,0.335-0.452,0.845-0.269,1.288c0.046,0.113,0.07,0.237,0.07,0.363c0,0.426-0.248,0.695-0.419,0.695h-9.79v2.351h9.788
			c1.525,0,2.768-1.365,2.768-3.046c0-0.152-0.009-0.305-0.029-0.454C64.674,51.037,66.756,45.624,66.756,39.884z M51.361,17.62
			h-3.859v-3.208h3.859V17.62z M43.766,12.063c-2.863,0-4.478,0.34-6.295,0.924c-0.071,0.023-0.738,0.282-0.941-0.386
			c-0.186-0.615,0.279-0.91,0.543-0.998c2.173-0.719,4.527-0.871,6.549-0.923h12.171c0.21,0,0.444,0.297,0.444,0.691
			c0,0.396-0.234,0.691-0.444,0.691H43.766z"/>
		<path fill="#234D7D" d="M45.404,35.1v-1.857H44.39c-1.86,0-4.659,1.452-4.89,3.281c0.69,0.132,1.317,0.438,1.834,0.873v-0.634
			c0-0.918,2.138-1.664,3.058-1.664L45.404,35.1L45.404,35.1z"/>
		<path fill="#234D7D" d="M48.491,46.582h4.227v-1.856H48.28c0.134,0.401,0.21,0.829,0.21,1.275L48.491,46.582L48.491,46.582z"/>
		<rect x="49.014" y="22.156" fill="#234D7D" width="3.733" height="1.856"/>
	</g>
</g>
</svg>
