<?xml version="1.0" encoding="utf-8"?>
<!-- Generator: Adobe Illustrator 15.0.2, SVG Export Plug-In . SVG Version: 6.00 Build 0)  -->
<!DOCTYPE svg PUBLIC "-//W3C//DTD SVG 1.1//EN" "http://www.w3.org/Graphics/SVG/1.1/DTD/svg11.dtd">
<svg version="1.1" id="Layer_1" xmlns="http://www.w3.org/2000/svg" xmlns:xlink="http://www.w3.org/1999/xlink" x="0px" y="0px"
	 width="69px" height="69px" viewBox="0 0 69 69" enable-background="new 0 0 69 69" xml:space="preserve">
<path fill="#234D7D" d="M49.777,29.786c-2.998,0.947-9.079,4.037-9.142,4.068c-0.15,0.077-0.312,0.11-0.469,0.11
	c-0.376,0-0.74-0.206-0.922-0.561c-0.259-0.512-0.056-1.133,0.453-1.392c0.257-0.13,6.295-3.198,9.456-4.197
	c0.549-0.173,1.126,0.13,1.296,0.672C50.623,29.034,50.323,29.613,49.777,29.786L49.777,29.786z M49.777,17.386
	c-2.998,0.949-9.079,4.036-9.142,4.067c-0.15,0.077-0.312,0.114-0.469,0.114c-0.376,0-0.74-0.207-0.922-0.564
	c-0.259-0.509-0.056-1.132,0.453-1.392c0.257-0.129,6.295-3.197,9.456-4.197c0.549-0.173,1.126,0.133,1.296,0.676
	C50.623,16.633,50.323,17.213,49.777,17.386L49.777,17.386z M60.834,65.999H9.166C6.316,65.999,4,63.684,4,60.834v-40.3
	c0-0.57,0.463-1.033,1.033-1.033c0.571,0,1.033,0.463,1.033,1.033v40.3c0,1.708,1.391,3.1,3.1,3.1h24.799v-2.431
	c-1.258-0.527-4.486-1.702-8.265-1.702c-9.033,0-16.18,2.005-16.25,2.026c-0.093,0.027-0.188,0.04-0.284,0.04
	c-0.222,0-0.44-0.071-0.623-0.21c-0.256-0.194-0.41-0.5-0.41-0.823V15.368c0-0.463,0.306-0.866,0.749-0.993
	c0.303-0.086,7.479-2.106,16.818-2.106c5.348,0,9.585,2.085,9.761,2.175c0.352,0.176,0.57,0.533,0.57,0.925v39.538
	c3.149-1.792,10.514-5.795,17.567-8.247V6.544c-7.596,3.057-14.874,7.584-14.951,7.634c-0.484,0.302-1.123,0.154-1.425-0.33
	c-0.303-0.484-0.154-1.12,0.329-1.425c0.084-0.05,8.451-5.255,16.716-8.358c0.321-0.117,0.676-0.074,0.953,0.121
	c0.277,0.19,0.444,0.509,0.444,0.848v42.366c0,0.447-0.284,0.839-0.706,0.98c-9.086,3.029-19.325,9.145-19.427,9.206
	c-0.321,0.191-0.719,0.197-1.043,0.013c-0.323-0.182-0.524-0.527-0.524-0.897V16.037c-1.267-0.53-4.496-1.702-8.265-1.702
	c-7.344,0-13.438,1.323-15.501,1.832v43.338c2.52-0.599,8.383-1.771,15.501-1.771c4.447,0,8.123,1.44,9.339,1.979
	c1.369-0.502,5.791-1.979,10.294-1.979c6.924,0,12.124,1.11,14.468,1.724V16.207c-0.343-0.068-0.783-0.154-1.314-0.25
	c-0.558-0.104-0.931-0.642-0.826-1.206c0.103-0.558,0.642-0.932,1.203-0.826c1.385,0.253,2.192,0.435,2.192,0.435
	c0.476,0.102,0.812,0.524,0.812,1.009v45.466c0,0.33-0.16,0.645-0.429,0.839c-0.271,0.194-0.62,0.243-0.932,0.142
	c-0.062-0.021-6.171-2.014-15.174-2.014c-3.867,0-7.793,1.228-9.298,1.755v2.378h24.799c1.709,0,3.1-1.392,3.1-3.1v-40.3
	c0-0.57,0.463-1.033,1.033-1.033S66,19.964,66,20.534v40.3C66,63.684,63.681,65.999,60.834,65.999L60.834,65.999z M49.777,23.587
	c-2.998,0.947-9.079,4.037-9.142,4.068c-0.15,0.074-0.312,0.11-0.469,0.11c-0.376,0-0.74-0.206-0.922-0.563
	c-0.259-0.509-0.056-1.133,0.453-1.388c0.257-0.133,6.295-3.202,9.456-4.201c0.549-0.17,1.126,0.133,1.296,0.676
	C50.623,22.831,50.323,23.414,49.777,23.587L49.777,23.587z M49.777,35.985c-2.998,0.946-9.079,4.037-9.142,4.067
	c-0.15,0.078-0.312,0.114-0.469,0.114c-0.376,0-0.74-0.206-0.922-0.564c-0.259-0.509-0.056-1.132,0.453-1.391
	c0.257-0.13,6.295-3.198,9.456-4.197c0.549-0.173,1.126,0.129,1.296,0.675C50.623,35.232,50.323,35.813,49.777,35.985L49.777,35.985
	z M29.809,24.417c-0.133,0.558-0.691,0.9-1.243,0.771c-5.882-1.378-12.861,0.457-12.932,0.479c-0.09,0.021-0.179,0.034-0.269,0.034
	c-0.457,0-0.873-0.303-0.996-0.765c-0.148-0.553,0.179-1.12,0.73-1.269c0.306-0.08,7.557-1.989,13.938-0.49
	C29.592,23.307,29.938,23.861,29.809,24.417L29.809,24.417z M29.809,30.619c-0.133,0.555-0.691,0.897-1.243,0.771
	c-5.882-1.382-12.861,0.457-12.932,0.476c-0.09,0.024-0.179,0.033-0.269,0.033c-0.457,0-0.873-0.302-0.996-0.765
	c-0.148-0.552,0.179-1.116,0.73-1.265c0.306-0.083,7.557-1.989,13.938-0.493C29.592,29.506,29.938,30.063,29.809,30.619
	L29.809,30.619z M49.777,42.185c-2.998,0.949-9.079,4.04-9.142,4.07c-0.15,0.074-0.312,0.111-0.469,0.111
	c-0.376,0-0.74-0.207-0.922-0.564c-0.259-0.509-0.056-1.132,0.453-1.388c0.257-0.133,6.295-3.201,9.456-4.2
	c0.549-0.17,1.126,0.132,1.296,0.675C50.623,41.432,50.323,42.015,49.777,42.185L49.777,42.185z M29.809,36.818
	c-0.133,0.555-0.691,0.9-1.243,0.771c-5.882-1.379-12.861,0.456-12.932,0.475c-0.09,0.025-0.179,0.037-0.269,0.037
	c-0.457,0-0.873-0.306-0.996-0.768c-0.148-0.549,0.179-1.116,0.73-1.265c0.306-0.083,7.557-1.989,13.938-0.49
	C29.592,35.708,29.938,36.263,29.809,36.818L29.809,36.818z M29.809,49.219c-0.133,0.556-0.691,0.897-1.243,0.769
	c-5.882-1.379-12.861,0.459-12.932,0.478c-0.09,0.024-0.179,0.037-0.269,0.037c-0.457,0-0.873-0.306-0.996-0.768
	c-0.148-0.553,0.179-1.116,0.73-1.265c0.306-0.083,7.557-1.989,13.938-0.493C29.592,48.105,29.938,48.664,29.809,49.219
	L29.809,49.219z M29.809,43.017c-0.133,0.556-0.691,0.901-1.243,0.771c-5.882-1.379-12.861,0.456-12.932,0.478
	c-0.09,0.022-0.179,0.034-0.269,0.034c-0.457,0-0.873-0.302-0.996-0.765c-0.148-0.553,0.179-1.12,0.73-1.268
	c0.306-0.083,7.557-1.989,13.938-0.49C29.592,41.906,29.938,42.462,29.809,43.017L29.809,43.017z"/>
</svg>
