<?xml version="1.0" encoding="utf-8"?>
<!-- Generator: Adobe Illustrator 15.0.2, SVG Export Plug-In . SVG Version: 6.00 Build 0)  -->
<!DOCTYPE svg PUBLIC "-//W3C//DTD SVG 1.1//EN" "http://www.w3.org/Graphics/SVG/1.1/DTD/svg11.dtd">
<svg version="1.1" id="Layer_1" xmlns="http://www.w3.org/2000/svg" xmlns:xlink="http://www.w3.org/1999/xlink" x="0px" y="0px"
	 width="69px" height="69px" viewBox="0 0 69 69" enable-background="new 0 0 69 69" xml:space="preserve">
<path fill="#FFFFFF" d="M55.119,63H15.88C14.292,63,13,61.725,13,60.156V11.777c0-1.567,1.292-2.841,2.88-2.841h26.548V8.875
	c0-1.033,0.852-1.875,1.9-1.875h5.887c1.047,0,1.9,0.842,1.9,1.875v0.062h3.004c1.588,0,2.881,1.274,2.881,2.841v48.378
	C58,61.725,56.707,63,55.119,63L55.119,63z M50.273,8.875c0-0.034-0.024-0.062-0.06-0.062h-5.887c-0.035,0-0.063,0.028-0.063,0.062
	v9.175l2.594-1.28c0.131-0.062,0.271-0.095,0.41-0.095c0.144,0,0.285,0.034,0.414,0.095l2.59,1.28V8.875H50.273z M56.161,11.777
	c0-0.568-0.47-1.027-1.042-1.027h-3.004v8.768c0,0.314-0.168,0.607-0.438,0.771c-0.146,0.09-0.316,0.136-0.482,0.136
	c-0.141,0-0.283-0.031-0.412-0.096l-3.514-1.733l-3.511,1.733c-0.286,0.142-0.626,0.126-0.896-0.04
	c-0.271-0.164-0.436-0.457-0.436-0.771V10.75H15.88c-0.574,0-1.039,0.459-1.039,1.027v48.379c0,0.568,0.465,1.031,1.039,1.031
	h39.239c0.572,0,1.042-0.463,1.042-1.031V11.777L56.161,11.777z M50.215,40.746c-0.509,0-0.919-0.408-0.919-0.907V38.68
	c0-0.02-0.006-0.031-0.009-0.041c-0.907-0.521-1.939-0.795-2.998-0.795c-1.783,0-3.454,0.777-4.592,2.137
	c-1.135,1.36-1.586,3.152-1.237,4.916c0.45,2.279,2.304,4.107,4.608,4.56c1.643,0.319,3.281-0.013,4.619-0.933
	c0.416-0.287,0.99-0.186,1.279,0.226c0.293,0.41,0.188,0.976-0.229,1.263c-1.317,0.905-2.856,1.379-4.447,1.379
	c-0.523,0-1.053-0.054-1.579-0.154c-3.03-0.59-5.465-2.998-6.058-5.989c-0.452-2.302,0.136-4.64,1.623-6.418
	c1.486-1.779,3.676-2.8,6.011-2.8c1.388,0,2.748,0.363,3.938,1.055c0.558,0.322,0.906,0.938,0.906,1.598v1.159
	C51.135,40.338,50.725,40.746,50.215,40.746L50.215,40.746z M43.689,33.908c-0.474,0.185-1.01-0.04-1.197-0.506l-0.943-2.335h-8.173
	l-0.947,2.335c-0.142,0.354-0.487,0.57-0.854,0.57c-0.114,0-0.228-0.021-0.339-0.064c-0.472-0.188-0.703-0.716-0.512-1.182
	l4.808-11.858c0.317-0.784,1.075-1.29,1.932-1.29c0.854,0,1.612,0.506,1.931,1.29l4.809,11.858
	C44.389,33.192,44.161,33.72,43.689,33.908L43.689,33.908z M37.686,21.541c-0.041-0.099-0.115-0.148-0.223-0.148
	s-0.184,0.049-0.223,0.148l-3.127,7.713h6.7L37.686,21.541L37.686,21.541z M34.458,39.839c0,0.919-0.333,1.765-0.885,2.421
	c1.678,0.752,2.847,2.422,2.847,4.352c0,2.635-2.174,4.777-4.845,4.777H25.69c-0.509,0-0.919-0.406-0.919-0.906V42.74v-3.87
	c0-1.565,1.292-2.843,2.88-2.843h2.942C32.725,36.027,34.458,37.738,34.458,39.839L34.458,39.839z M26.609,49.575h4.965
	c1.659,0,3.007-1.329,3.007-2.964s-1.348-2.965-3.007-2.965h-0.98h-3.985V49.575L26.609,49.575z M30.594,37.844h-2.942
	c-0.574,0-1.042,0.459-1.042,1.026v2.964h3.985c1.116,0,2.023-0.896,2.023-1.995C32.617,38.738,31.71,37.844,30.594,37.844
	L30.594,37.844z M18.825,59.13c-0.509,0-0.922-0.407-0.922-0.907v-44.51c0-0.503,0.413-0.907,0.922-0.907
	c0.506,0,0.919,0.404,0.919,0.907v44.51C19.745,58.723,19.331,59.13,18.825,59.13L18.825,59.13z"/>
</svg>
