<svg width="42" height="42" viewBox="0 0 42 42" fill="none" xmlns="http://www.w3.org/2000/svg">
<path d="M32.863 10.5052L31.137 9.49482L19.7723 28.9095L11.6866 21.273L10.3134 22.727L20.2277 32.0905L32.863 10.5052Z" fill="#E1B400"/>
<path fill-rule="evenodd" clip-rule="evenodd" d="M42 21C42 32.598 32.598 42 21 42C9.40202 42 0 32.598 0 21C0 9.40202 9.40202 0 21 0C32.598 0 42 9.40202 42 21ZM40 21C40 31.4934 31.4934 40 21 40C10.5066 40 2 31.4934 2 21C2 10.5066 10.5066 2 21 2C31.4934 2 40 10.5066 40 21Z" fill="#E1B400"/>
</svg>
