<svg width="345" height="245" viewBox="0 0 345 245" fill="none" xmlns="http://www.w3.org/2000/svg">
<path d="M0 245L194 0L345 187L0 245Z" fill="#A88600"/>
<rect y="80" width="345" height="107" fill="#E1B400"/>
<path d="M121.381 121.853C121.294 123.733 120.787 125.397 119.859 126.844C118.932 128.279 117.627 129.393 115.944 130.184C114.274 130.976 112.363 131.372 110.211 131.372C106.661 131.372 103.865 130.215 101.824 127.902C99.7832 125.589 98.7627 122.323 98.7627 118.105V116.769C98.7627 114.122 99.2204 111.809 100.136 109.83C101.063 107.838 102.393 106.304 104.125 105.228C105.857 104.14 107.861 103.595 110.137 103.595C113.415 103.595 116.049 104.461 118.041 106.193C120.033 107.913 121.164 110.288 121.437 113.318H114.942C114.893 111.673 114.479 110.492 113.699 109.774C112.92 109.057 111.732 108.698 110.137 108.698C108.516 108.698 107.329 109.304 106.574 110.516C105.82 111.729 105.424 113.664 105.387 116.324V118.235C105.387 121.117 105.745 123.177 106.463 124.414C107.193 125.651 108.442 126.269 110.211 126.269C111.708 126.269 112.852 125.917 113.644 125.212C114.435 124.507 114.856 123.387 114.905 121.853H121.381ZM140.307 103.985H146.819V131.001H140.307V113.968L130.603 131.001H124.09V103.985H130.603V121.037L140.307 103.985ZM159.362 103.985L165.393 122.781L171.404 103.985H179.977V131.001H173.445V124.692L174.076 111.778L167.545 131.001H163.24L156.69 111.76L157.321 124.692V131.001H150.809V103.985H159.362ZM206.825 131.001H200.312V109.013H190.608V131.001H184.096V103.985H206.825V131.001ZM232.097 109.013H223.988V131.001H217.476V109.013H209.516V103.985H232.097V109.013ZM257.22 118.05C257.22 120.684 256.731 123.016 255.754 125.045C254.777 127.073 253.385 128.638 251.579 129.739C249.785 130.828 247.738 131.372 245.438 131.372C243.137 131.372 241.096 130.846 239.314 129.795C237.533 128.731 236.142 127.216 235.14 125.249C234.15 123.282 233.631 121.024 233.581 118.476V116.955C233.581 114.308 234.063 111.976 235.028 109.96C236.006 107.931 237.397 106.366 239.203 105.265C241.021 104.164 243.087 103.614 245.4 103.614C247.689 103.614 249.73 104.158 251.523 105.247C253.317 106.335 254.709 107.888 255.698 109.904C256.7 111.908 257.207 114.209 257.22 116.806V118.05ZM250.596 116.918C250.596 114.233 250.144 112.199 249.241 110.813C248.351 109.415 247.07 108.717 245.4 108.717C242.135 108.717 240.409 111.166 240.224 116.064L240.205 118.05C240.205 120.697 240.644 122.732 241.522 124.154C242.401 125.577 243.706 126.288 245.438 126.288C247.083 126.288 248.351 125.589 249.241 124.191C250.132 122.793 250.583 120.783 250.596 118.161V116.918ZM269.132 103.985L275.162 122.781L281.174 103.985H289.746V131.001H283.215V124.692L283.846 111.778L277.314 131.001H273.01L266.46 111.76L267.091 124.692V131.001H260.578V103.985H269.132ZM300.415 113.281H303.773C305.913 113.281 307.806 113.646 309.451 114.376C311.096 115.106 312.358 116.138 313.236 117.474C314.127 118.798 314.572 120.319 314.572 122.039C314.572 124.698 313.583 126.857 311.604 128.514C309.637 130.172 306.99 131.001 303.662 131.001H293.884V103.985H300.415V113.281ZM323.033 131.001H316.539V103.985H323.033V131.001ZM300.415 118.291V125.991H303.755C305.078 125.991 306.124 125.62 306.891 124.878C307.67 124.135 308.06 123.177 308.06 122.002C308.06 120.888 307.676 119.992 306.909 119.311C306.142 118.631 305.078 118.291 303.718 118.291H300.415ZM149.346 148.184C149.346 149.571 149.089 150.798 148.574 151.866C148.06 152.934 147.327 153.757 146.377 154.337C145.433 154.91 144.355 155.196 143.145 155.196C141.934 155.196 140.859 154.919 139.922 154.366C138.984 153.806 138.252 153.009 137.725 151.973C137.204 150.938 136.93 149.75 136.904 148.409V147.608C136.904 146.215 137.158 144.988 137.666 143.927C138.18 142.859 138.913 142.035 139.863 141.456C140.82 140.876 141.908 140.587 143.125 140.587C144.329 140.587 145.404 140.873 146.348 141.446C147.292 142.019 148.024 142.836 148.545 143.897C149.072 144.952 149.339 146.163 149.346 147.53V148.184ZM145.859 147.589C145.859 146.176 145.622 145.105 145.146 144.376C144.678 143.64 144.004 143.272 143.125 143.272C141.406 143.272 140.498 144.561 140.4 147.139L140.391 148.184C140.391 149.578 140.622 150.649 141.084 151.397C141.546 152.146 142.233 152.52 143.145 152.52C144.01 152.52 144.678 152.152 145.146 151.417C145.615 150.681 145.853 149.623 145.859 148.243V147.589ZM162.617 150.186C162.572 151.176 162.305 152.052 161.816 152.813C161.328 153.568 160.641 154.154 159.756 154.571C158.877 154.988 157.871 155.196 156.738 155.196C154.87 155.196 153.398 154.587 152.324 153.37C151.25 152.152 150.713 150.434 150.713 148.214V147.51C150.713 146.117 150.954 144.9 151.436 143.858C151.924 142.81 152.624 142.003 153.535 141.436C154.447 140.863 155.501 140.577 156.699 140.577C158.424 140.577 159.811 141.033 160.859 141.944C161.908 142.849 162.503 144.099 162.646 145.694H159.229C159.202 144.828 158.984 144.206 158.574 143.829C158.164 143.451 157.539 143.262 156.699 143.262C155.846 143.262 155.221 143.581 154.824 144.219C154.427 144.858 154.219 145.876 154.199 147.276V148.282C154.199 149.799 154.388 150.883 154.766 151.534C155.15 152.185 155.807 152.51 156.738 152.51C157.526 152.51 158.128 152.325 158.545 151.954C158.962 151.583 159.183 150.994 159.209 150.186H162.617ZM175.107 143.428H170.84V155.001H167.412V143.428H163.223V140.782H175.107V143.428ZM179.99 150.177V155.001H176.562V140.782H182.236C183.324 140.782 184.284 140.984 185.117 141.387C185.957 141.785 186.605 142.354 187.061 143.096C187.523 143.832 187.754 144.669 187.754 145.606C187.754 146.993 187.256 148.103 186.26 148.936C185.27 149.763 183.91 150.177 182.178 150.177H179.99ZM179.99 147.53H182.236C182.9 147.53 183.405 147.364 183.75 147.032C184.102 146.7 184.277 146.231 184.277 145.626C184.277 144.962 184.098 144.431 183.74 144.034C183.382 143.637 182.894 143.435 182.275 143.428H179.99V147.53ZM201.631 148.184C201.631 149.571 201.374 150.798 200.859 151.866C200.345 152.934 199.613 153.757 198.662 154.337C197.718 154.91 196.641 155.196 195.43 155.196C194.219 155.196 193.145 154.919 192.207 154.366C191.27 153.806 190.537 153.009 190.01 151.973C189.489 150.938 189.215 149.75 189.189 148.409V147.608C189.189 146.215 189.443 144.988 189.951 143.927C190.465 142.859 191.198 142.035 192.148 141.456C193.105 140.876 194.193 140.587 195.41 140.587C196.615 140.587 197.689 140.873 198.633 141.446C199.577 142.019 200.309 142.836 200.83 143.897C201.357 144.952 201.624 146.163 201.631 147.53V148.184ZM198.145 147.589C198.145 146.176 197.907 145.105 197.432 144.376C196.963 143.64 196.289 143.272 195.41 143.272C193.691 143.272 192.783 144.561 192.686 147.139L192.676 148.184C192.676 149.578 192.907 150.649 193.369 151.397C193.831 152.146 194.518 152.52 195.43 152.52C196.296 152.52 196.963 152.152 197.432 151.417C197.9 150.681 198.138 149.623 198.145 148.243V147.589ZM212.988 143.428H206.807V155.001H203.379V140.782H212.988V143.428ZM225.928 148.184C225.928 149.571 225.671 150.798 225.156 151.866C224.642 152.934 223.91 153.757 222.959 154.337C222.015 154.91 220.938 155.196 219.727 155.196C218.516 155.196 217.441 154.919 216.504 154.366C215.566 153.806 214.834 153.009 214.307 151.973C213.786 150.938 213.512 149.75 213.486 148.409V147.608C213.486 146.215 213.74 144.988 214.248 143.927C214.762 142.859 215.495 142.035 216.445 141.456C217.402 140.876 218.49 140.587 219.707 140.587C220.911 140.587 221.986 140.873 222.93 141.446C223.874 142.019 224.606 142.836 225.127 143.897C225.654 144.952 225.921 146.163 225.928 147.53V148.184ZM222.441 147.589C222.441 146.176 222.204 145.105 221.729 144.376C221.26 143.64 220.586 143.272 219.707 143.272C217.988 143.272 217.08 144.561 216.982 147.139L216.973 148.184C216.973 149.578 217.204 150.649 217.666 151.397C218.128 152.146 218.815 152.52 219.727 152.52C220.592 152.52 221.26 152.152 221.729 151.417C222.197 150.681 222.435 149.623 222.441 148.243V147.589ZM232.441 140.782H235.85V152.364H240.957V140.782H244.395V152.393H246.572L246.377 158.428H243.145V155.001H232.441V140.782ZM256.445 140.782H259.873V155.001H256.445V146.036L251.338 155.001H247.91V140.782H251.338V149.757L256.445 140.782ZM273.477 150.186C273.431 151.176 273.164 152.052 272.676 152.813C272.188 153.568 271.501 154.154 270.615 154.571C269.736 154.988 268.73 155.196 267.598 155.196C265.729 155.196 264.258 154.587 263.184 153.37C262.109 152.152 261.572 150.434 261.572 148.214V147.51C261.572 146.117 261.813 144.9 262.295 143.858C262.783 142.81 263.483 142.003 264.395 141.436C265.306 140.863 266.361 140.577 267.559 140.577C269.284 140.577 270.671 141.033 271.719 141.944C272.767 142.849 273.363 144.099 273.506 145.694H270.088C270.062 144.828 269.844 144.206 269.434 143.829C269.023 143.451 268.398 143.262 267.559 143.262C266.706 143.262 266.081 143.581 265.684 144.219C265.286 144.858 265.078 145.876 265.059 147.276V148.282C265.059 149.799 265.247 150.883 265.625 151.534C266.009 152.185 266.667 152.51 267.598 152.51C268.385 152.51 268.988 152.325 269.404 151.954C269.821 151.583 270.042 150.994 270.068 150.186H273.477ZM285.967 143.428H281.699V155.001H278.271V143.428H274.082V140.782H285.967V143.428ZM295.762 140.782H299.189V155.001H295.762V146.036L290.654 155.001H287.227V140.782H290.654V149.757L295.762 140.782ZM312.158 143.428H307.891V155.001H304.463V143.428H300.273V140.782H312.158V143.428ZM320.518 152.344H315.82L315 155.001H311.338L316.553 140.782H319.775L325.029 155.001H321.348L320.518 152.344ZM316.641 149.698H319.697L318.164 144.766L316.641 149.698Z" fill="white"/>
</svg>
