<svg width="345" height="245" viewBox="0 0 345 245" fill="none" xmlns="http://www.w3.org/2000/svg">
<path d="M0 245L194 0L345 187L0 245Z" fill="#A88600"/>
<rect y="80" width="345" height="107" fill="#E1B400"/>
<path d="M128.172 121.853C128.085 123.733 127.578 125.397 126.65 126.844C125.723 128.279 124.418 129.393 122.735 130.184C121.065 130.976 119.154 131.372 117.002 131.372C113.452 131.372 110.656 130.215 108.615 127.902C106.574 125.589 105.554 122.323 105.554 118.105V116.769C105.554 114.122 106.011 111.809 106.927 109.83C107.854 107.838 109.184 106.304 110.916 105.228C112.648 104.14 114.652 103.595 116.928 103.595C120.206 103.595 122.84 104.461 124.832 106.193C126.824 107.913 127.955 110.288 128.228 113.318H121.733C121.684 111.673 121.27 110.492 120.49 109.774C119.711 109.057 118.523 108.698 116.928 108.698C115.307 108.698 114.12 109.304 113.365 110.516C112.611 111.729 112.215 113.664 112.178 116.324V118.235C112.178 121.117 112.536 123.177 113.254 124.414C113.984 125.651 115.233 126.269 117.002 126.269C118.499 126.269 119.643 125.917 120.435 125.212C121.226 124.507 121.647 123.387 121.696 121.853H128.172ZM147.098 103.985H153.61V131.001H147.098V113.968L137.394 131.001H130.881V103.985H137.394V121.037L147.098 103.985ZM166.153 103.985L172.184 122.781L178.195 103.985H186.768V131.001H180.236V124.692L180.867 111.778L174.336 131.001H170.031L163.481 111.76L164.112 124.692V131.001H157.6V103.985H166.153ZM213.616 131.001H207.104V109.013H197.399V131.001H190.887V103.985H213.616V131.001ZM238.888 109.013H230.779V131.001H224.267V109.013H216.307V103.985H238.888V109.013ZM264.011 118.05C264.011 120.684 263.522 123.016 262.545 125.045C261.568 127.073 260.176 128.638 258.37 129.739C256.576 130.828 254.529 131.372 252.229 131.372C249.928 131.372 247.887 130.846 246.105 129.795C244.324 128.731 242.933 127.216 241.931 125.249C240.941 123.282 240.422 121.024 240.372 118.476V116.955C240.372 114.308 240.854 111.976 241.819 109.96C242.797 107.931 244.188 106.366 245.994 105.265C247.812 104.164 249.878 103.614 252.191 103.614C254.48 103.614 256.521 104.158 258.314 105.247C260.108 106.335 261.5 107.888 262.489 109.904C263.491 111.908 263.998 114.209 264.011 116.806V118.05ZM257.387 116.918C257.387 114.233 256.935 112.199 256.032 110.813C255.142 109.415 253.861 108.717 252.191 108.717C248.926 108.717 247.2 111.166 247.015 116.064L246.996 118.05C246.996 120.697 247.435 122.732 248.313 124.154C249.192 125.577 250.497 126.288 252.229 126.288C253.874 126.288 255.142 125.589 256.032 124.191C256.923 122.793 257.374 120.783 257.387 118.161V116.918ZM275.923 103.985L281.953 122.781L287.965 103.985H296.537V131.001H290.006V124.692L290.637 111.778L284.105 131.001H279.801L273.251 111.76L273.882 124.692V131.001H267.369V103.985H275.923ZM316.539 103.985H323.052V131.001H316.539V113.968L306.835 131.001H300.322V103.985H306.835V121.037L316.539 103.985ZM136.211 143.428H130.029V155.001H126.602V140.782H136.211V143.428ZM149.15 148.184C149.15 149.571 148.893 150.798 148.379 151.866C147.865 152.934 147.132 153.757 146.182 154.337C145.238 154.91 144.16 155.196 142.949 155.196C141.738 155.196 140.664 154.919 139.727 154.366C138.789 153.806 138.057 153.009 137.529 151.973C137.008 150.938 136.735 149.75 136.709 148.409V147.608C136.709 146.215 136.963 144.988 137.471 143.927C137.985 142.859 138.717 142.035 139.668 141.456C140.625 140.876 141.712 140.587 142.93 140.587C144.134 140.587 145.208 140.873 146.152 141.446C147.096 142.019 147.829 142.836 148.35 143.897C148.877 144.952 149.144 146.163 149.15 147.53V148.184ZM145.664 147.589C145.664 146.176 145.426 145.105 144.951 144.376C144.482 143.64 143.809 143.272 142.93 143.272C141.211 143.272 140.303 144.561 140.205 147.139L140.195 148.184C140.195 149.578 140.426 150.649 140.889 151.397C141.351 152.146 142.038 152.52 142.949 152.52C143.815 152.52 144.482 152.152 144.951 151.417C145.42 150.681 145.658 149.623 145.664 148.243V147.589ZM162.422 150.186C162.376 151.176 162.109 152.052 161.621 152.813C161.133 153.568 160.446 154.154 159.561 154.571C158.682 154.988 157.676 155.196 156.543 155.196C154.674 155.196 153.203 154.587 152.129 153.37C151.055 152.152 150.518 150.434 150.518 148.214V147.51C150.518 146.117 150.758 144.9 151.24 143.858C151.729 142.81 152.428 142.003 153.34 141.436C154.251 140.863 155.306 140.577 156.504 140.577C158.229 140.577 159.616 141.033 160.664 141.944C161.712 142.849 162.308 144.099 162.451 145.694H159.033C159.007 144.828 158.789 144.206 158.379 143.829C157.969 143.451 157.344 143.262 156.504 143.262C155.651 143.262 155.026 143.581 154.629 144.219C154.232 144.858 154.023 145.876 154.004 147.276V148.282C154.004 149.799 154.193 150.883 154.57 151.534C154.954 152.185 155.612 152.51 156.543 152.51C157.331 152.51 157.933 152.325 158.35 151.954C158.766 151.583 158.988 150.994 159.014 150.186H162.422ZM174.912 143.428H170.645V155.001H167.217V143.428H163.027V140.782H174.912V143.428ZM179.795 150.177V155.001H176.367V140.782H182.041C183.128 140.782 184.089 140.984 184.922 141.387C185.762 141.785 186.41 142.354 186.865 143.096C187.327 143.832 187.559 144.669 187.559 145.606C187.559 146.993 187.061 148.103 186.064 148.936C185.075 149.763 183.714 150.177 181.982 150.177H179.795ZM179.795 147.53H182.041C182.705 147.53 183.21 147.364 183.555 147.032C183.906 146.7 184.082 146.231 184.082 145.626C184.082 144.962 183.903 144.431 183.545 144.034C183.187 143.637 182.699 143.435 182.08 143.428H179.795V147.53ZM201.436 148.184C201.436 149.571 201.178 150.798 200.664 151.866C200.15 152.934 199.417 153.757 198.467 154.337C197.523 154.91 196.445 155.196 195.234 155.196C194.023 155.196 192.949 154.919 192.012 154.366C191.074 153.806 190.342 153.009 189.814 151.973C189.294 150.938 189.02 149.75 188.994 148.409V147.608C188.994 146.215 189.248 144.988 189.756 143.927C190.27 142.859 191.003 142.035 191.953 141.456C192.91 140.876 193.997 140.587 195.215 140.587C196.419 140.587 197.493 140.873 198.438 141.446C199.382 142.019 200.114 142.836 200.635 143.897C201.162 144.952 201.429 146.163 201.436 147.53V148.184ZM197.949 147.589C197.949 146.176 197.712 145.105 197.236 144.376C196.768 143.64 196.094 143.272 195.215 143.272C193.496 143.272 192.588 144.561 192.49 147.139L192.48 148.184C192.48 149.578 192.712 150.649 193.174 151.397C193.636 152.146 194.323 152.52 195.234 152.52C196.1 152.52 196.768 152.152 197.236 151.417C197.705 150.681 197.943 149.623 197.949 148.243V147.589ZM212.793 143.428H206.611V155.001H203.184V140.782H212.793V143.428ZM225.732 148.184C225.732 149.571 225.475 150.798 224.961 151.866C224.447 152.934 223.714 153.757 222.764 154.337C221.82 154.91 220.742 155.196 219.531 155.196C218.32 155.196 217.246 154.919 216.309 154.366C215.371 153.806 214.639 153.009 214.111 151.973C213.59 150.938 213.317 149.75 213.291 148.409V147.608C213.291 146.215 213.545 144.988 214.053 143.927C214.567 142.859 215.299 142.035 216.25 141.456C217.207 140.876 218.294 140.587 219.512 140.587C220.716 140.587 221.79 140.873 222.734 141.446C223.678 142.019 224.411 142.836 224.932 143.897C225.459 144.952 225.726 146.163 225.732 147.53V148.184ZM222.246 147.589C222.246 146.176 222.008 145.105 221.533 144.376C221.064 143.64 220.391 143.272 219.512 143.272C217.793 143.272 216.885 144.561 216.787 147.139L216.777 148.184C216.777 149.578 217.008 150.649 217.471 151.397C217.933 152.146 218.62 152.52 219.531 152.52C220.397 152.52 221.064 152.152 221.533 151.417C222.002 150.681 222.24 149.623 222.246 148.243V147.589ZM232.246 140.782H235.654V152.364H240.762V140.782H244.199V152.393H246.377L246.182 158.428H242.949V155.001H232.246V140.782ZM256.25 140.782H259.678V155.001H256.25V146.036L251.143 155.001H247.715V140.782H251.143V149.757L256.25 140.782ZM273.281 150.186C273.236 151.176 272.969 152.052 272.48 152.813C271.992 153.568 271.305 154.154 270.42 154.571C269.541 154.988 268.535 155.196 267.402 155.196C265.534 155.196 264.062 154.587 262.988 153.37C261.914 152.152 261.377 150.434 261.377 148.214V147.51C261.377 146.117 261.618 144.9 262.1 143.858C262.588 142.81 263.288 142.003 264.199 141.436C265.111 140.863 266.165 140.577 267.363 140.577C269.089 140.577 270.475 141.033 271.523 141.944C272.572 142.849 273.167 144.099 273.311 145.694H269.893C269.867 144.828 269.648 144.206 269.238 143.829C268.828 143.451 268.203 143.262 267.363 143.262C266.51 143.262 265.885 143.581 265.488 144.219C265.091 144.858 264.883 145.876 264.863 147.276V148.282C264.863 149.799 265.052 150.883 265.43 151.534C265.814 152.185 266.471 152.51 267.402 152.51C268.19 152.51 268.792 152.325 269.209 151.954C269.626 151.583 269.847 150.994 269.873 150.186H273.281ZM285.771 143.428H281.504V155.001H278.076V143.428H273.887V140.782H285.771V143.428ZM295.566 140.782H298.994V155.001H295.566V146.036L290.459 155.001H287.031V140.782H290.459V149.757L295.566 140.782ZM311.963 143.428H307.695V155.001H304.268V143.428H300.078V140.782H311.963V143.428ZM318.936 146.954V146.964L321.289 140.782H324.902L320.117 152.061C319.603 153.201 319.023 154.005 318.379 154.473C317.741 154.936 316.992 155.18 316.133 155.206H315.439L314.912 155.186L314.854 152.53C314.932 152.556 315.16 152.569 315.537 152.569C316.058 152.569 316.449 152.481 316.709 152.305C316.976 152.123 317.191 151.775 317.354 151.26L317.52 150.792L312.383 140.782H316.025L318.936 146.954Z" fill="white"/>
</svg>
