<svg width="131" height="20" viewBox="0 0 131 20" fill="none" xmlns="http://www.w3.org/2000/svg">
<path d="M8.80376 2.99824C8.90941 2.99824 9.05027 2.99824 9.15591 2.99824C9.57849 2.99824 10.1771 3.03351 10.7054 3.1746C11.0927 3.28042 11.4449 3.38624 11.6914 3.52734C11.9731 3.66843 12.1844 3.80952 12.3605 3.91534L13.1704 0.776014C11.9379 0.246914 10.5997 0 8.97984 0C8.80376 0 8.6629 0 8.48683 0C8.38118 0 8.31075 0 8.20511 0C6.33871 0 3.90887 0.388007 2.1129 2.46914C1.1621 3.59788 0 5.74956 0 8.85362C0 11.4286 0.986022 12.9806 1.72554 13.7919C3.06371 15.2381 5.10618 15.6966 6.76129 15.6966C6.90215 15.6966 7.0078 15.6966 7.18387 15.6966C7.28952 15.6966 7.43038 15.6966 7.53602 15.6966C8.27554 15.6966 9.47285 15.5556 10.7406 15.097L11.0927 11.8519C10.811 11.9929 10.5293 12.134 10.2828 12.2399C9.33199 12.6279 8.52204 12.6984 7.99382 12.6984C7.88817 12.6984 7.74731 12.6984 7.60645 12.6984C6.93737 12.6631 6.02177 12.4868 5.31747 11.746C4.4371 10.8289 4.33145 9.52381 4.33145 8.7478C4.33145 6.80776 5.00054 5.50265 5.45833 4.79718C6.33871 3.52734 7.53602 3.06878 8.80376 2.99824Z" fill="#565656"/>
<path d="M23.0306 5.32628C22.608 4.83245 21.5868 3.88007 19.2978 3.88007C19.1569 3.88007 18.9808 3.88007 18.84 3.88007C18.7343 3.88007 18.6639 3.88007 18.5583 3.88007C17.5018 3.88007 15.565 4.09171 14.0507 5.71429C13.3464 6.4903 12.3604 7.86596 12.3604 10.5467C12.3604 11.1817 12.3956 12.8042 13.5225 14.1799C14.6494 15.5556 16.3045 15.7319 17.3257 15.7319C17.4314 15.7319 17.537 15.7319 17.6427 15.7319C17.8188 15.7319 17.9596 15.7319 18.1005 15.7319C20.4247 15.7319 21.7981 14.8501 22.5728 14.1093C24.1222 12.5926 24.2983 10.2646 24.2983 8.95944C24.2631 8.04233 24.1222 6.59612 23.0306 5.32628ZM19.333 12.0282C19.0161 12.4515 18.5583 12.8042 17.9244 12.9101C17.537 12.8395 17.2553 12.6279 17.0088 12.2399C16.6214 11.7108 16.5158 11.1111 16.5158 10.4762C16.5158 9.1358 16.9032 8.35979 17.2201 7.79541C17.5018 7.37213 17.9596 6.77249 18.7696 6.59612C19.2274 6.70194 19.5443 6.98413 19.6852 7.23104C19.8964 7.58377 20.0373 8.21869 20.0373 9.02998C20.0725 10.1587 19.826 11.358 19.333 12.0282Z" fill="#565656"/>
<path d="M27.3621 4.12702L26.4113 8.60673C25.8479 11.2875 25.4957 11.9577 25.2844 12.2399C25.1083 12.4515 24.897 12.5926 24.6858 12.6632C24.6153 12.6632 24.5801 12.6984 24.5097 12.6984C24.4392 12.6984 24.404 12.7337 24.3336 12.7337C24.1223 12.7337 23.9815 12.6984 23.7702 12.6279L23.2419 15.4498C23.8406 15.6614 24.3688 15.6967 24.9323 15.6967C25.0379 15.6967 25.1788 15.6967 25.2844 15.6967C25.4253 15.6967 25.5661 15.6967 25.707 15.6967C26.8339 15.6967 27.7847 15.3792 28.5594 14.1094C29.2637 13.0159 29.6159 11.4286 29.9328 9.87657L30.5667 6.98416H32.4683L30.954 15.4145H35.0038L37.0462 4.12702H27.3621Z" fill="#565656"/>
<path d="M50.111 4.12702H45.6035L41.6242 9.73548L42.0467 7.54853L42.6806 4.12702H38.5957L36.5532 15.4498H41.0607L45.04 9.87657L44.5822 12.0988L43.9836 15.4498H48.0685L50.111 4.12702Z" fill="#565656"/>
<path d="M52.6113 4.12702L52.1887 6.34924C51.9774 7.58381 51.7309 9.10056 51.1674 10.5115C50.7801 11.4286 50.3927 12.0988 50.0758 12.5574H49.0898L47.9981 18.6244H51.907L52.4704 15.4498H57.6118L57.0484 18.6244H60.9572L62.0489 12.5574H60.6403L62.1545 4.12702H52.6113ZM56.5201 12.6984H53.879C54.1959 12.2399 54.4777 11.7461 54.7594 11.1111C54.865 10.8995 55.3228 9.73548 55.6398 7.97181L55.851 6.84307H57.6118L56.5201 12.6984Z" fill="#565656"/>
<path d="M72.0501 4.7619C71.5923 4.40917 70.7119 3.88007 69.092 3.88007C68.9511 3.88007 68.7751 3.88007 68.599 3.88007C68.5286 3.88007 68.4229 3.88007 68.3525 3.88007C67.7186 3.88007 66.8734 3.91534 66.1691 4.09171C65.7466 4.19753 65.2536 4.33862 64.831 4.51499L64.514 7.37213C64.7958 7.19577 65.0775 7.05467 65.324 6.94885C66.2396 6.52557 66.9791 6.4903 67.5425 6.4903C67.6482 6.4903 67.7538 6.4903 67.8947 6.4903C68.2468 6.52557 68.6342 6.59612 68.9511 6.87831C69.4089 7.26631 69.4089 7.79541 69.3737 8.18342V8.39506C69.092 8.35979 68.8455 8.35979 68.5638 8.35979C68.3877 8.35979 68.2116 8.35979 68.0355 8.35979C65.7818 8.35979 64.514 8.85362 63.8097 9.38272C63.1406 9.87654 62.2955 10.7937 62.2955 12.5926C62.2955 14.0388 62.8941 14.7443 63.2815 15.097C63.8802 15.6261 64.7605 15.7319 65.5001 15.7319C65.6057 15.7319 65.7113 15.7319 65.817 15.6966C65.9579 15.6966 66.1339 15.7319 66.2748 15.7319C67.1552 15.7319 67.7186 15.485 68.106 15.2734C68.2821 15.1675 68.4581 15.0617 68.6694 14.8854L68.599 15.4497H72.0853C72.1909 14.6737 72.3318 13.6861 72.4374 13.0511C72.5079 12.6279 72.7544 11.4638 72.86 10.97C73.0361 10.0882 73.3178 8.78307 73.3178 7.72487C73.2474 6.84303 73.0361 5.53792 72.0501 4.7619ZM68.2116 12.3104C67.789 12.769 67.3312 12.9806 66.9439 13.0511C66.7326 13.0159 66.5565 12.9101 66.4157 12.7337C66.31 12.6279 66.1691 12.4162 66.1691 12.0282C66.1691 11.7108 66.2748 11.1464 66.8382 10.7937C67.2256 10.5467 67.7538 10.4056 68.4229 10.3704C68.599 10.3704 68.8103 10.4056 69.0216 10.4056C68.9159 11.1817 68.599 11.8519 68.2116 12.3104Z" fill="#565656"/>
<path d="M83.8471 4.12702H75.3602L73.3178 15.4498H77.4027L78.917 7.01943H83.3189L83.8471 4.12702Z" fill="#565656"/>
<path d="M93.2846 5.32628C92.862 4.83245 91.8408 3.88007 89.5518 3.88007C89.411 3.88007 89.2349 3.88007 89.094 3.88007C88.9884 3.88007 88.918 3.88007 88.8123 3.88007C87.7559 3.88007 85.819 4.09171 84.3048 5.71429C83.6005 6.4903 82.6145 7.86596 82.6145 10.5467C82.6145 11.1817 82.6497 12.8042 83.7766 14.1799C84.9034 15.5556 86.5585 15.7319 87.5798 15.7319C87.6854 15.7319 87.7911 15.7319 87.8967 15.7319C88.0728 15.7319 88.2136 15.7319 88.3545 15.7319C90.6787 15.7319 92.0521 14.8501 92.7916 14.1093C94.3411 12.5926 94.5171 10.2646 94.5171 8.95944C94.5524 8.04233 94.3763 6.59612 93.2846 5.32628ZM89.6223 12.0282C89.3053 12.4515 88.8475 12.8042 88.2137 12.9101C87.8263 12.8395 87.5446 12.6279 87.2981 12.2399C86.9459 11.7108 86.8051 11.1111 86.8051 10.4762C86.8051 9.1358 87.1924 8.35979 87.5094 7.79541C87.7911 7.37213 88.2489 6.77249 89.0588 6.59612C89.5166 6.70194 89.8335 6.98413 89.9744 7.23104C90.1857 7.58377 90.3266 8.21869 90.3266 9.02998C90.3618 10.1587 90.08 11.358 89.6223 12.0282Z" fill="#565656"/>
<path d="M103.251 3.88007C103.145 3.88007 103.039 3.91534 102.934 3.91534C102.793 3.91534 102.652 3.88007 102.476 3.88007C101.384 3.88007 100.539 4.33862 99.9051 4.903L100.011 4.12698H96.2075C96.1371 5.07937 96.1019 5.18519 95.9962 5.82011L93.3199 19.9647H97.4401L98.4613 14.5326C99.2008 15.485 100.222 15.6614 100.856 15.6614C100.962 15.6614 101.102 15.6261 101.208 15.6261C101.349 15.6614 101.49 15.6614 101.631 15.6614C103.673 15.6614 104.941 14.3563 105.54 13.3686C106.209 12.3457 106.772 10.6173 106.772 8.57143C106.772 7.16049 106.49 6.06702 105.892 5.18518C105.434 4.51499 104.659 3.88007 103.251 3.88007ZM102.018 11.5697C101.595 12.2399 101.067 12.5573 100.574 12.6631C100.152 12.5573 99.8699 12.2399 99.729 12.0282C99.4473 11.6049 99.3417 11.0053 99.3417 10.4409C99.3417 9.806 99.4825 8.88889 100.046 8.04233C100.469 7.40741 100.962 7.08995 101.419 6.94885C101.842 7.05467 102.124 7.33686 102.265 7.51323C102.37 7.65432 102.652 8.14815 102.652 9.20635C102.652 10.1587 102.405 10.97 102.018 11.5697Z" fill="#565656"/>
<path d="M116.844 5.04409C115.893 4.05644 114.59 3.88007 113.674 3.88007C113.569 3.88007 113.463 3.88007 113.357 3.88007C113.216 3.88007 113.04 3.88007 112.899 3.88007C110.716 3.88007 109.307 4.903 108.427 6.20811C107.476 7.58377 107.159 9.2769 107.159 10.5467C107.159 11.4638 107.3 12.8748 108.427 14.1799C108.991 14.8148 110.047 15.7319 112.054 15.7319C112.195 15.7319 112.336 15.7319 112.547 15.7319C112.653 15.7319 112.723 15.7319 112.829 15.7319C113.392 15.7319 114.731 15.6614 116.21 15.097L116.632 12.3457C116.351 12.4868 116.069 12.6279 115.822 12.6984C114.871 13.0511 114.132 13.1217 113.639 13.1217C113.533 13.1217 113.428 13.1217 113.252 13.1217C112.899 13.0864 112.406 13.0159 112.054 12.8395C111.702 12.6631 111.491 12.4162 111.315 12.0282C111.139 11.6755 111.068 11.358 111.068 10.97H117.865C118.041 9.87654 118.111 9.34744 118.111 8.85362C118.111 6.87831 117.513 5.74956 116.844 5.04409ZM111.28 8.71252C111.35 8.46561 111.491 7.79541 112.054 7.16049C112.23 6.94885 112.582 6.59612 113.252 6.4903C113.674 6.56085 113.921 6.77249 114.097 6.94885C114.378 7.33686 114.59 8.04233 114.555 8.67725H111.28V8.71252Z" fill="#565656"/>
<path d="M126.915 4.12702L126.176 8.11291H123.358L124.098 4.12702H120.013L117.97 15.4498H122.055L122.865 10.97H125.683L124.873 15.4498H128.958L131 4.12702H126.915Z" fill="#565656"/>
</svg>
