<?xml version="1.0" encoding="utf-8"?>
<!-- Generator: Adobe Illustrator 21.1.0, SVG Export Plug-In . SVG Version: 6.00 Build 0)  -->
<svg version="1.1" id="Layer_1" xmlns="http://www.w3.org/2000/svg" xmlns:xlink="http://www.w3.org/1999/xlink" x="0px" y="0px"
	 viewBox="0 0 131 20" style="enable-background:new 0 0 131 20;" xml:space="preserve">
<style type="text/css">
	.st0{fill:#565656;}
</style>
<path class="st0" d="M63.7,5.1c-0.4-0.3-1.3-0.8-2.9-0.8c-0.2,0-0.3,0-0.5,0c-0.1,0-0.2,0-0.3,0c-0.6,0-1.5,0-2.1,0.2
	c-0.4,0.1-0.9,0.3-1.3,0.4l-0.3,2.8c0.3-0.2,0.5-0.3,0.8-0.4c0.9-0.4,1.6-0.5,2.2-0.5c0.1,0,0.2,0,0.3,0c0.3,0,0.7,0.1,1,0.4
	c0.4,0.4,0.5,0.9,0.4,1.3l0,0.2l0,0c-0.3,0-0.5,0-0.8,0c-0.2,0-0.3,0-0.5,0c-2.2,0-3.5,0.5-4.2,1c-0.7,0.5-1.5,1.4-1.5,3.1
	c0,1.4,0.6,2.1,1,2.4c0.6,0.5,1.4,0.6,2.2,0.6c0.1,0,0.2,0,0.3,0c0.1,0,0.3,0,0.4,0c0.8,0,1.4-0.2,1.8-0.4c0.2-0.1,0.4-0.2,0.5-0.4
	l-0.1,0.6h0.7H63h0.8c0.1-0.8,0.2-1.7,0.3-2.4c0.1-0.4,0.3-1.5,0.4-2c0.2-0.8,0.5-2.1,0.5-3.2C64.9,7.1,64.7,5.9,63.7,5.1z
	 M58.2,12.9c-0.1-0.1-0.3-0.3-0.3-0.7c0-0.3,0.1-0.9,0.7-1.2c0.4-0.2,0.9-0.4,1.6-0.4c0.2,0,0.4,0,0.6,0c-0.1,0.7-0.4,1.4-0.8,1.8
	c-0.4,0.5-0.9,0.7-1.2,0.7C58.5,13.2,58.4,13.1,58.2,12.9z M22.6,5.7c-0.4-0.5-1.4-1.4-3.7-1.4c-0.1,0-0.3,0-0.5,0
	c-0.1,0-0.2,0-0.3,0c-1,0-2.9,0.2-4.4,1.8c-0.7,0.7-1.7,2.1-1.7,4.7c0,0.6,0,2.2,1.2,3.5c1.1,1.3,2.7,1.5,3.7,1.5c0.1,0,0.2,0,0.3,0
	c0.2,0,0.3,0,0.5,0c2.3,0,3.6-0.9,4.4-1.6c1.5-1.5,1.7-3.8,1.7-5C23.8,8.3,23.6,6.9,22.6,5.7z M16.7,12.5c-0.4-0.5-0.5-1.1-0.5-1.7
	c0-1.3,0.4-2.1,0.7-2.6c0.3-0.4,0.7-1,1.5-1.2c0.4,0.1,0.8,0.4,0.9,0.6c0.2,0.3,0.4,1,0.4,1.8c0,1.1-0.3,2.2-0.7,2.9
	c-0.3,0.4-0.8,0.8-1.4,0.9C17.2,13,16.9,12.8,16.7,12.5z M84.6,5.7c-0.4-0.5-1.4-1.4-3.7-1.4c-0.1,0-0.3,0-0.5,0c-0.1,0-0.2,0-0.3,0
	c-1,0-2.9,0.2-4.4,1.8c-0.7,0.7-1.7,2.1-1.7,4.7c0,0.6,0,2.2,1.2,3.5c1.1,1.3,2.7,1.5,3.7,1.5c0.1,0,0.2,0,0.3,0c0.2,0,0.3,0,0.5,0
	c2.3,0,3.6-0.9,4.4-1.6c1.5-1.5,1.7-3.8,1.7-5C85.8,8.3,85.6,6.9,84.6,5.7z M78.7,12.5c-0.4-0.5-0.5-1.1-0.5-1.7
	c0-1.3,0.4-2.1,0.7-2.6c0.3-0.4,0.7-1,1.5-1.2c0.4,0.1,0.8,0.4,0.9,0.6c0.2,0.3,0.4,1,0.4,1.8c0,1.1-0.3,2.2-0.7,2.9
	c-0.3,0.4-0.8,0.8-1.4,0.9C79.2,13,78.9,12.8,78.7,12.5z M97,5.6c-0.5-0.7-1.3-1.3-2.6-1.3c-0.1,0-0.2,0-0.3,0c-0.1,0-0.3,0-0.4,0
	c-1.1,0-1.9,0.5-2.5,1l0.1-0.8h-0.8v0h-3c-0.1,0.9-0.1,1-0.2,1.7L84.6,20h0.8h2.5h0.8l1-5.3c0.7,0.9,1.7,1.1,2.4,1.1
	c0.1,0,0.2,0,0.3,0c0.1,0,0.3,0,0.4,0c2,0,3.2-1.3,3.8-2.2c0.7-1,1.2-2.7,1.2-4.7C97.8,7.5,97.6,6.4,97,5.6z M91.2,8.3
	c0.4-0.6,0.9-0.9,1.4-1.1c0.4,0.1,0.7,0.4,0.8,0.6c0.1,0.1,0.4,0.6,0.4,1.7c0,0.9-0.3,1.7-0.6,2.3c-0.4,0.7-0.9,1-1.4,1.1
	c-0.4-0.1-0.7-0.4-0.8-0.6c-0.3-0.4-0.4-1-0.4-1.6C90.5,10,90.6,9.1,91.2,8.3z M107.6,5.4c-0.9-1-2.2-1.1-3.1-1.1
	c-0.1,0-0.2,0-0.3,0c-0.2,0-0.3,0-0.4,0c-2.1,0-3.5,1-4.4,2.3c-0.9,1.3-1.2,3-1.2,4.2c0,0.9,0.1,2.3,1.2,3.5
	c0.6,0.6,1.6,1.5,3.6,1.5c0.1,0,0.3,0,0.5,0c0.1,0,0.2,0,0.3,0c0.5,0,1.9-0.1,3.3-0.6l0.4-2.7c-0.3,0.1-0.5,0.3-0.8,0.4
	c-0.9,0.3-1.7,0.4-2.1,0.4c-0.1,0-0.2,0-0.4,0c-0.3,0-0.8-0.1-1.2-0.3c-0.3-0.2-0.6-0.4-0.7-0.8c-0.2-0.3-0.2-0.7-0.2-1h5.9h0.8
	c0.2-1.1,0.2-1.6,0.2-2.1C108.9,7.2,108.3,6.1,107.6,5.4z M102.2,9c0.1-0.3,0.2-0.9,0.8-1.5c0.2-0.2,0.5-0.5,1.2-0.6
	c0.4,0.1,0.7,0.3,0.8,0.5c0.3,0.4,0.5,1.1,0.5,1.7H102.2z M121.5,4.5l-2,11.1h-0.8h-2.5h-0.8l0.8-4.4h-2.8l-0.8,4.4H112h-2.5h-0.8
	l2-11.1h0.8h2.5h0.8L114,8.4h2.8l0.7-3.9h0.8h2.5H121.5z M75.3,4.5l-0.5,2.8H74h-3.5L69,15.6h-0.8h-2.5H65l2-11.1h0.8h6.8H75.3z
	 M53.1,12.8h0.8l-1.1,5.9h-0.8h-2.3H49l0.6-3.1h-5L44,18.7h-0.8h-2.3h-0.8l1.1-5.9H42h0.2c0.3-0.4,0.7-1.1,1.1-2
	c0.6-1.4,0.8-2.9,1-4.1l0.4-2.2h8.6v0H54l-1.5,8.3H53.1z M49.5,7.2h-1.7l-0.2,1.1c-0.3,1.7-0.8,2.8-0.8,3.1
	c-0.3,0.6-0.5,1.1-0.8,1.6h2.6L49.5,7.2z M35.6,4.5h-8h-0.8l-0.9,4.4c-0.5,2.6-0.9,3.3-1.1,3.6c-0.2,0.2-0.4,0.4-0.6,0.4
	c-0.1,0-0.1,0-0.2,0c-0.1,0-0.1,0-0.2,0c-0.2,0-0.4,0-0.6-0.1l-0.5,2.7c0.6,0.2,1.1,0.3,1.7,0.3c0.1,0,0.2,0,0.3,0
	c0.1,0,0.3,0,0.4,0c1.1,0,2-0.3,2.8-1.5c0.7-1.1,1-2.6,1.4-4.1L30,7.3h1.9l-1.5,8.3h0.8h2.5h0.8l2-11.1H35.6z M8.3,0.5
	c-0.1,0-0.2,0-0.3,0c-1.8,0-4.2,0.4-6,2.4C1.1,4,0,6.1,0,9.1c0,2.5,1,4,1.7,4.8C3,15.4,5,15.8,6.6,15.8c0.1,0,0.3,0,0.4,0
	c0.1,0,0.2,0,0.4,0c0.7,0,1.9-0.1,3.2-0.6l0.4-3.2c-0.3,0.2-0.5,0.3-0.8,0.4c-0.9,0.4-1.7,0.4-2.3,0.4c-0.1,0-0.2,0-0.4,0
	c-0.6,0-1.6-0.2-2.3-0.9c-0.9-0.9-1-2.2-1-2.9c0-1.9,0.6-3.2,1.1-3.9c0.9-1.2,2-1.7,3.3-1.7c0.1,0,0.2,0,0.3,0c0.4,0,1,0,1.5,0.2
	c0.4,0.1,0.7,0.2,1,0.3c0.3,0.1,0.5,0.3,0.6,0.4l0.8-3.1c-1.2-0.5-2.5-0.8-4.1-0.8C8.6,0.4,8.5,0.5,8.3,0.5z M41.3,4.5h-2.7h-0.8
	l-2,11.1h0.8h2.7h0.8l2-11.1H41.3z M41.7,2.8h0.8L43,0h-0.8l0,0h-3.5l-0.5,2.8H39H41.7z"/>
</svg>
