<svg width="28" height="28" viewBox="0 0 28 28" fill="none" xmlns="http://www.w3.org/2000/svg">
<path d="M21.9087 7.00345L20.758 6.32988L13.1815 19.273L7.79108 14.182L6.87558 15.1513L13.4851 21.3937L21.9087 7.00345Z" fill="#FF6700"/>
<path fill-rule="evenodd" clip-rule="evenodd" d="M28 14C28 21.732 21.732 28 14 28C6.26801 28 0 21.732 0 14C0 6.26801 6.26801 0 14 0C21.732 0 28 6.26801 28 14ZM26.6667 14C26.6667 20.9956 20.9956 26.6667 14 26.6667C7.00439 26.6667 1.33333 20.9956 1.33333 14C1.33333 7.00439 7.00439 1.33333 14 1.33333C20.9956 1.33333 26.6667 7.00439 26.6667 14Z" fill="#FF6700"/>
</svg>
