<svg width="160" height="22" viewBox="0 0 160 22" fill="none" xmlns="http://www.w3.org/2000/svg">
<g clip-path="url(#clip0)">
<path d="M146.53 7.73333H151.565V21.6H155.031V7.73333H160.065V4.8H146.596V7.73333H146.53ZM131.361 21.5333H134.826V14.0667H141.3V21.5333H144.765V4.8H141.234V11.2H134.761V4.8H131.295V21.5333H131.361ZM121.488 8.6L123.58 15.2H119.395L121.488 8.6ZM113.707 21.5333H117.303L118.48 18.0667H124.561L125.607 21.5333H129.334L123.515 4.8H119.591L113.707 21.5333ZM108.476 21.5333H111.941V4.8H100.499C100.433 7.06667 100.172 14.4667 100.041 17.0667C99.9755 17.7333 99.7793 19.0667 98.6024 19.0667C98.4062 19.0667 97.8831 19 97.2293 18.6V21.5333C98.0139 21.8 98.6024 21.9333 99.4524 21.9333C100.368 21.9333 101.872 21.6667 102.656 20.1333C103.376 18.6667 103.441 16.8 103.637 12.2667L103.768 7.66667H108.606V21.5333H108.476ZM81.3404 21.5333H84.8059V7.73333H91.2791V21.6H94.7446V4.8H81.4058V21.5333H81.3404ZM70.8786 18.9333C68.067 18.9333 66.4324 16.5333 66.4324 13.2C66.4324 9.86667 68.1324 7.46667 70.8786 7.46667C73.6902 7.46667 75.3249 9.86667 75.3249 13.2C75.3249 16.5333 73.6902 18.9333 70.8786 18.9333ZM62.9669 13.2C62.9669 18.2 65.5824 22 70.8786 22C75.7826 22 78.7904 18.2 78.7904 13.2C78.7904 8.2 75.7826 4.4 70.8786 4.4C65.5824 4.4 62.9669 8.2 62.9669 13.2ZM51.982 7.73333H55.2513C56.8206 7.73333 57.736 8.46667 57.736 10.2C57.736 11.9333 56.8206 12.6667 55.2513 12.6667H51.982V7.73333ZM48.5819 21.5333H52.0474V15.5333H55.7744C59.1745 15.5333 61.2015 13.2667 61.2015 10.1333C61.2015 6.8 59.5014 4.73333 56.036 4.73333H48.5819V21.5333ZM40.8664 0C40.6702 1.06667 39.624 1.53333 38.4471 1.53333C37.2047 1.53333 36.2239 1.06667 36.0278 0H34.7201C34.7201 2.4 36.2239 3.33333 38.4471 3.33333C40.6702 3.33333 42.1741 2.4 42.1741 0H40.8664ZM31.7777 21.5333H35.2432L41.7164 10.2H41.7818V21.5333H45.0511V4.8H41.5856L35.1124 16.2H35.047V4.8H31.7777V21.5333ZM16.8043 21.5333H29.2276V18.5333H20.0736V14.3333H28.1161V11.4667H20.0736V7.73333H28.8353V4.8H16.8043V21.5333ZM0 21.5333H3.46547V14.0667H9.9387V21.5333H13.4042V4.8H9.9387V11.2H3.46547V4.8H0V21.5333Z" fill="white"/>
</g>
<defs>
<clipPath id="clip0">
<rect width="160" height="22" fill="white"/>
</clipPath>
</defs>
</svg>
