<svg width="360" height="192" viewBox="0 0 360 192" fill="none" xmlns="http://www.w3.org/2000/svg">
<rect width="360" height="192" fill="#F7EE1E"/>
<g clip-path="url(#clip0)">
<path d="M334.6 55.4C345.4 58.0667 353.667 62.9333 359.4 70C365.267 76.9333 368.2 85.3333 368.2 95.2C368.2 103.6 365.867 111.467 361.2 118.8C356.667 126 349.6 131.867 340 136.4C330.4 140.933 318.467 143.2 304.2 143.2C294.333 143.2 284.467 142.133 274.6 140C264.867 137.867 256.333 134.733 249 130.6L265 95.8C270.733 99.1333 276.867 101.667 283.4 103.4C290.067 105.133 296.467 106 302.6 106C308.067 106 312.467 105.067 315.8 103.2C319.133 101.333 320.8 98.6667 320.8 95.2C320.8 88.8 315.267 85.6 304.2 85.6H285.6V56.6L306.2 35.6H256.2V0H360.6V29L334.6 55.4Z" fill="white"/>
</g>
<defs>
<clipPath id="clip0">
<rect width="111" height="143" fill="white" transform="translate(249)"/>
</clipPath>
</defs>
</svg>
