<svg width="360" height="192" viewBox="0 0 360 192" fill="none" xmlns="http://www.w3.org/2000/svg">
<rect width="360" height="192" fill="#F7EE1E"/>
<g clip-path="url(#clip0)">
<path d="M111.4 155.6V192.2H-0.799999V163.2L49.8 116.4C54.2 112.267 57.1333 108.733 58.6 105.8C60.0667 102.867 60.8 100 60.8 97.2C60.8 93.7333 59.6 91.0667 57.2 89.2C54.9333 87.2 51.6 86.2 47.2 86.2C42.9333 86.2 38.9333 87.3333 35.2 89.6C31.4667 91.8667 28.6 95.0667 26.6 99.2L-9 81.4C-3.66667 71.4 4.13334 63.5333 14.4 57.8C24.6667 51.9333 37.0667 49 51.6 49C62.6667 49 72.4667 50.8 81 54.4C89.5333 58 96.2 63.1333 101 69.8C105.8 76.4667 108.2 84.1333 108.2 92.8C108.2 100.533 106.533 107.8 103.2 114.6C100 121.267 93.6667 128.867 84.2 137.4L64.2 155.6H111.4Z" fill="white"/>
</g>
<defs>
<clipPath id="clip0">
<rect width="111" height="143" fill="white" transform="translate(0 49)"/>
</clipPath>
</defs>
</svg>
