<svg width="488" height="192" viewBox="0 0 488 192" fill="none" xmlns="http://www.w3.org/2000/svg">
<rect width="488" height="192" fill="#F7EE1E"/>
<g clip-path="url(#clip0)">
<path d="M462.6 55.4C473.4 58.0667 481.667 62.9333 487.4 70C493.267 76.9333 496.2 85.3333 496.2 95.2C496.2 103.6 493.867 111.467 489.2 118.8C484.667 126 477.6 131.867 468 136.4C458.4 140.933 446.467 143.2 432.2 143.2C422.333 143.2 412.467 142.133 402.6 140C392.867 137.867 384.333 134.733 377 130.6L393 95.8C398.733 99.1333 404.867 101.667 411.4 103.4C418.067 105.133 424.467 106 430.6 106C436.067 106 440.467 105.067 443.8 103.2C447.133 101.333 448.8 98.6667 448.8 95.2C448.8 88.8 443.267 85.6 432.2 85.6H413.6V56.6L434.2 35.6H384.2V0H488.6V29L462.6 55.4Z" fill="white"/>
</g>
<defs>
<clipPath id="clip0">
<rect width="111" height="143" fill="white" transform="translate(377)"/>
</clipPath>
</defs>
</svg>
