<svg width="46" height="46" viewBox="0 0 46 46" fill="none" xmlns="http://www.w3.org/2000/svg">
<path d="M43.6835 12.1296C43.6835 11.6901 44.0337 11.3385 44.4714 11.3385C44.9091 11.3385 45.2593 11.6901 45.0842 12.1296V41.5748C45.0842 43.6843 43.4209 45.3543 41.3199 45.3543H3.76431C1.6633 45.3543 0 43.6843 0 41.5748V12.1296C0 11.6901 0.350168 11.3385 0.787879 11.3385C1.22559 11.3385 1.57576 11.6901 1.57576 12.1296V41.5748C1.57576 42.8053 2.62626 43.8601 3.85185 43.8601H21.798V42.1022L21.7528 42.0857C20.7627 41.7239 18.4299 40.8716 15.7576 40.8716C9.87158 40.8716 5.11127 42.0725 4.12573 42.3211C4.01193 42.3498 3.94846 42.3659 3.93939 42.3659H3.76431C3.63614 42.3659 3.55488 42.3188 3.45186 42.259C3.41414 42.2372 3.37351 42.2136 3.3266 42.1901C3.15152 42.0143 3.06397 41.8385 3.06397 41.5748V8.35001C3.06397 7.99843 3.23906 7.73474 3.58923 7.64684C3.85185 7.55895 9.01683 6.06471 15.8451 6.06471C19.697 6.06471 22.8485 7.55895 22.936 7.64684C23.1987 7.82263 23.3737 8.08632 23.3737 8.35001V37.2679C25.6498 35.9494 30.9899 32.961 36.1549 31.203V1.93359C31.6366 3.73382 27.2945 6.30097 25.8244 7.17017C25.5001 7.36192 25.3155 7.47105 25.2997 7.47105C24.9495 7.64684 24.5118 7.55895 24.2492 7.20736C24.0741 6.85578 24.1616 6.41629 24.5118 6.15261C24.5265 6.15261 24.7106 6.0451 25.0355 5.85539C26.6368 4.92024 31.6585 1.98764 36.6801 0.0877643C36.9428 -0.000131927 37.2054 -0.00013192 37.3805 0.175661C37.6431 0.351453 37.7306 0.527246 37.7306 0.790934V31.8183C37.7306 32.1699 37.5556 32.4336 37.2054 32.5215C30.6397 34.8068 23.1987 39.2016 23.1111 39.2895C22.8485 39.3774 22.5859 39.4653 22.3232 39.2895C22.1481 39.2016 21.9731 38.9379 21.9731 38.6742V8.96529L21.9279 8.9488C20.9377 8.58703 18.605 7.73474 15.9327 7.73474C10.5926 7.73474 6.12795 8.7016 4.63973 9.05318V40.6958C6.47811 40.2563 10.7677 39.3774 15.9327 39.3774C19.1717 39.3774 21.8855 40.4321 22.7609 40.7837C23.8114 40.4321 27.0505 39.3774 30.2896 39.3774C35.2795 39.3774 39.1313 40.1685 40.7946 40.6079V8.96529C40.532 8.96529 40.1818 8.87739 39.8316 8.78949C39.3939 8.7016 39.1313 8.35001 39.2189 7.91053C39.3064 7.47105 39.6566 7.20736 40.0943 7.29526C41.0572 7.47105 41.67 7.64684 41.67 7.64684C42.0202 7.64684 42.2828 7.99843 42.2828 8.35001V41.5748C42.2828 41.8385 42.1077 42.0143 41.9327 42.1901C41.8987 42.2014 41.8663 42.2128 41.8349 42.2238C41.6233 42.2977 41.461 42.3545 41.2323 42.278C41.2323 42.278 36.7677 40.7837 30.202 40.7837C27.6397 40.7837 25.0773 41.5927 23.7878 41.9997C23.6676 42.0377 23.5584 42.0722 23.4613 42.1022V43.8601H41.4074C42.633 43.8601 43.6835 42.8053 43.6835 41.5748V12.1296Z" fill="#353738"/>
<path d="M26.4377 12.8328C26.5253 12.8328 26.7003 12.8328 26.7879 12.7449C26.81 12.7449 27.1068 12.5987 27.5731 12.3687C28.9504 11.6897 31.8065 10.2817 33.4411 9.75647C33.8788 9.66858 34.0539 9.22909 33.9663 8.78961C33.8788 8.35013 33.4411 8.17434 33.0034 8.26223C31.2724 8.797 28.3262 10.2468 26.8988 10.9493C26.4494 11.1705 26.1504 11.3176 26.0875 11.3386C25.7374 11.5144 25.5623 11.9539 25.7374 12.3934C25.9125 12.7449 26.1751 12.8328 26.4377 12.8328Z" fill="#353738"/>
<path d="M25.7374 21.5346C25.9125 21.7983 26.1751 21.974 26.4377 21.974C26.5253 21.974 26.7003 21.974 26.7879 21.8862C26.81 21.8862 27.1068 21.7398 27.5732 21.5099C28.9505 20.8309 31.8065 19.4229 33.4411 18.8977C33.8788 18.8098 34.0539 18.3703 33.9663 17.9308C33.8788 17.4913 33.4411 17.3155 33.0034 17.4034C31.2724 17.9382 28.3262 19.388 26.8988 20.0905C26.4493 20.3117 26.1504 20.4588 26.0875 20.4798C25.7374 20.6556 25.5623 21.183 25.7374 21.5346Z" fill="#353738"/>
<path d="M25.7374 16.964C25.9125 17.2277 26.1751 17.4035 26.4377 17.4035C26.5253 17.4035 26.7003 17.4035 26.7879 17.3156C26.81 17.3156 27.107 17.1692 27.5737 16.9391C28.9509 16.2601 31.8065 14.8523 33.4411 14.3271C33.8788 14.2392 34.0539 13.7997 33.9663 13.3602C33.8788 12.9207 33.4411 12.745 33.0034 12.8328C31.2724 13.3676 28.3263 14.8174 26.8989 15.5199C26.4494 15.7411 26.1504 15.8882 26.0875 15.9092C25.7374 16.1729 25.5623 16.6124 25.7374 16.964Z" fill="#353738"/>
<path d="M26.4377 26.4568C26.1751 26.4568 25.9125 26.281 25.7374 26.0173C25.5623 25.6657 25.7374 25.2262 26.0875 24.9625C26.1504 24.9415 26.4493 24.7944 26.8988 24.5732C28.3262 23.8708 31.2724 22.4209 33.0034 21.8862C33.4411 21.7983 33.8788 21.9741 33.9663 22.4135C34.0539 22.853 33.8788 23.2925 33.4411 23.3804C31.8065 23.9056 28.951 25.3134 27.5737 25.9924C27.107 26.2224 26.81 26.3689 26.7879 26.3689C26.7003 26.4568 26.5253 26.4568 26.4377 26.4568Z" fill="#353738"/>
<path d="M18.2963 14.0634C13.6566 13.0086 8.40403 14.3271 8.14141 14.415C7.7037 14.5029 7.52861 14.9424 7.61616 15.3818C7.7037 15.7334 8.05387 15.9092 8.31649 15.9092H8.49158C8.49962 15.9092 8.54974 15.8981 8.63741 15.8786C9.50434 15.6863 14.0425 14.6796 17.8586 15.5576C18.2963 15.6455 18.6465 15.3818 18.734 15.0302C18.9966 14.5029 18.734 14.1513 18.2963 14.0634Z" fill="#353738"/>
<path d="M8.14141 18.8977C8.40403 18.8098 13.6566 17.4913 18.2963 18.5461C18.734 18.634 18.9966 19.0735 18.734 19.513C18.6465 19.8645 18.2963 20.1282 17.8586 20.0403C14.0425 19.1623 9.50435 20.169 8.63741 20.3614C8.54974 20.3808 8.49962 20.3919 8.49158 20.3919H8.31649C8.05387 20.3919 7.7037 20.2161 7.61616 19.8645C7.52861 19.4251 7.7037 18.9856 8.14141 18.8977Z" fill="#353738"/>
<path d="M25.7374 30.5879C25.9125 30.8516 26.1751 31.0274 26.4377 31.0274C26.5253 31.0274 26.7003 31.0274 26.7879 30.9395C26.81 30.9395 27.1068 30.7932 27.5732 30.5632C28.9505 29.8842 31.8065 28.4762 33.4411 27.951C33.8788 27.8631 34.0539 27.4236 33.9663 26.9841C33.8788 26.5447 33.4411 26.3689 33.0034 26.4568C31.2724 26.9915 28.3262 28.4414 26.8988 29.1438C26.4493 29.365 26.1504 29.5121 26.0875 29.5331C25.7374 29.7089 25.5623 30.2363 25.7374 30.5879Z" fill="#353738"/>
<path d="M8.14141 23.4683C8.40403 23.3804 13.6566 22.0619 18.2963 23.1167C18.734 23.2046 18.9966 23.6441 18.734 24.0836C18.6465 24.4351 18.2963 24.6988 17.8586 24.6109C14.0425 23.7329 9.50434 24.7396 8.63741 24.9319C8.54974 24.9514 8.49962 24.9625 8.49158 24.9625H8.31649C8.05387 24.9625 7.7037 24.7867 7.61616 24.4351C7.52861 23.9957 7.7037 23.5562 8.14141 23.4683Z" fill="#353738"/>
<path d="M18.2963 32.17C13.6566 31.1153 8.40403 32.4337 8.14141 32.5216C7.7037 32.6095 7.52861 33.049 7.61616 33.4885C7.7037 33.8401 8.05387 34.0158 8.31649 34.0158H8.49158C8.49962 34.0158 8.54974 34.0047 8.63741 33.9853C9.50434 33.7929 14.0425 32.7862 17.8586 33.6643C18.2963 33.7522 18.6465 33.4885 18.734 33.1369C18.9966 32.6974 18.734 32.2579 18.2963 32.17Z" fill="#353738"/>
<path d="M8.14141 27.951C8.40403 27.8631 13.6566 26.5447 18.2963 27.5994C18.734 27.6873 18.9966 28.1268 18.734 28.5663C18.6465 28.9179 18.2963 29.1815 17.8586 29.0936C14.0425 28.2156 9.50435 29.2223 8.63741 29.4147C8.54974 29.4341 8.49962 29.4452 8.49158 29.4452H8.31649C8.05387 29.4452 7.7037 29.2694 7.61616 28.9179C7.52861 28.4784 7.7037 28.0389 8.14141 27.951Z" fill="#353738"/>
</svg>
