<svg width="128" height="18" viewBox="0 0 128 18" fill="none" xmlns="http://www.w3.org/2000/svg">
<path d="M117.224 6.32727H121.252V17.6727H124.025V6.32727H128.052V3.92727H117.277V6.32727H117.224ZM105.089 17.6182H107.861V11.5091H113.04V17.6182H115.812V3.92727H112.987V9.16364H107.809V3.92727H105.036V17.6182H105.089ZM97.19 7.03636L98.8639 12.4364H95.5162L97.19 7.03636ZM90.9653 17.6182H93.8423L94.7838 14.7818H99.6486L100.486 17.6182H103.467L98.8116 3.92727H95.6731L90.9653 17.6182ZM86.7805 17.6182H89.5529V3.92727H80.3989C80.3465 5.78182 80.1373 11.8364 80.0327 13.9636C79.9804 14.5091 79.8235 15.6 78.8819 15.6C78.725 15.6 78.3065 15.5455 77.7834 15.2182V17.6182C78.4111 17.8364 78.8819 17.9455 79.5619 17.9455C80.2942 17.9455 81.4973 17.7273 82.1251 16.4727C82.7005 15.2727 82.7528 13.7455 82.9097 10.0364L83.0143 6.27273H86.8852V17.6182H86.7805ZM65.0723 17.6182H67.8447V6.32727H73.0233V17.6727H75.7957V3.92727H65.1246V17.6182H65.0723ZM56.7029 15.4909C54.4536 15.4909 53.1459 13.5273 53.1459 10.8C53.1459 8.07273 54.5059 6.10909 56.7029 6.10909C58.9522 6.10909 60.2599 8.07273 60.2599 10.8C60.2599 13.5273 58.9522 15.4909 56.7029 15.4909ZM50.3735 10.8C50.3735 14.8909 52.4659 18 56.7029 18C60.6261 18 63.0323 14.8909 63.0323 10.8C63.0323 6.70909 60.6261 3.6 56.7029 3.6C52.4659 3.6 50.3735 6.70909 50.3735 10.8ZM41.5856 6.32727H44.2011C45.4565 6.32727 46.1888 6.92727 46.1888 8.34546C46.1888 9.76364 45.4565 10.3636 44.2011 10.3636H41.5856V6.32727ZM38.8656 17.6182H41.6379V12.7091H44.6195C47.3396 12.7091 48.9612 10.8545 48.9612 8.29091C48.9612 5.56364 47.6011 3.87273 44.8288 3.87273H38.8656V17.6182ZM32.6931 0C32.5362 0.872727 31.6992 1.25455 30.7577 1.25455C29.7638 1.25455 28.9792 0.872727 28.8222 0H27.7761C27.7761 1.96364 28.9792 2.72727 30.7577 2.72727C32.5362 2.72727 33.7393 1.96364 33.7393 0H32.6931ZM25.4221 17.6182H28.1945L33.3731 8.34546H33.4254V17.6182H36.0409V3.92727H33.2685L28.0899 13.2545H28.0376V3.92727H25.4221V17.6182ZM13.4434 17.6182H23.3821V15.1636H16.0588V11.7273H22.4928V9.38182H16.0588V6.32727H23.0682V3.92727H13.4434V17.6182ZM0 17.6182H2.77237V11.5091H7.95096V17.6182H10.7233V3.92727H7.95096V9.16364H2.77237V3.92727H0V17.6182Z" fill="#01076D"/>
</svg>
