<svg width="386" height="386" viewBox="0 0 386 386" fill="none" xmlns="http://www.w3.org/2000/svg">
<path d="M281 143.992C281 143.992 317.551 134.736 323.877 96.288C323.877 96.288 330.906 58.552 340.043 62.824C349.181 67.096 354.101 73.504 363.942 79.2C373.783 84.896 384.326 92.728 373.08 111.952C361.833 131.176 333.014 158.944 343.558 188.136C354.101 217.328 380.109 252.216 378 275C375.891 297.784 366.754 327.688 353.399 363.288C353.399 363.288 375.188 283.544 355.507 254.352C336.529 224.448 325.986 215.904 325.986 215.904C325.986 215.904 301.384 190.272 325.283 158.232C351.29 123.344 360.428 105.544 356.913 97C353.399 86.32 342.855 77.064 337.232 88.456C332.312 100.56 324.58 132.6 281 143.992Z" fill="#941F89"/>
<path d="M341.449 8.71258C349.884 5.86458 360.428 12.9846 364.645 25.8006C368.862 37.9046 365.348 50.7206 356.913 53.5686C348.478 56.4166 338.638 48.5846 333.717 36.4806C329.5 24.3766 333.014 11.5606 341.449 8.71258Z" fill="#941F89"/>
<g style="mix-blend-mode:multiply">
<circle cx="193" cy="193" r="193" fill="#5A5A5A"/>
</g>
<path d="M131.322 335.01H139.44V336H129.936V320.6H131.322V335.01ZM150.019 336H148.787L148.699 333.558C148.332 334.365 147.797 334.988 147.093 335.428C146.389 335.853 145.582 336.066 144.673 336.066C143.675 336.066 142.869 335.817 142.253 335.318C141.637 334.805 141.329 334.115 141.329 333.25C141.329 332.062 141.893 331.145 143.023 330.5C144.167 329.855 145.78 329.532 147.863 329.532H148.699V328.586C148.699 327.75 148.427 327.09 147.885 326.606C147.357 326.107 146.653 325.858 145.773 325.858C144.893 325.858 144.174 326.093 143.617 326.562C143.059 327.017 142.781 327.611 142.781 328.344H141.483C141.483 327.332 141.886 326.511 142.693 325.88C143.499 325.249 144.526 324.934 145.773 324.934C147.063 324.934 148.09 325.264 148.853 325.924C149.63 326.569 150.019 327.457 150.019 328.586V336ZM148.699 330.764V330.368H147.863C146.205 330.368 144.922 330.617 144.013 331.116C143.118 331.6 142.671 332.282 142.671 333.162C142.671 333.778 142.876 334.262 143.287 334.614C143.697 334.966 144.247 335.142 144.937 335.142C146.081 335.142 146.99 334.753 147.665 333.976C148.354 333.184 148.699 332.113 148.699 330.764ZM153.058 332.59H154.356C154.356 333.338 154.642 333.954 155.214 334.438C155.786 334.907 156.512 335.142 157.392 335.142C158.272 335.142 158.968 334.959 159.482 334.592C159.995 334.211 160.252 333.697 160.252 333.052C160.252 331.996 159.43 331.314 157.788 331.006C156.277 330.727 155.258 330.456 154.73 330.192C153.762 329.679 153.285 328.931 153.3 327.948C153.3 327.024 153.659 326.291 154.378 325.748C155.111 325.205 156.079 324.934 157.282 324.934C158.411 324.934 159.357 325.235 160.12 325.836C160.868 326.423 161.242 327.207 161.242 328.19H160.01C160.01 327.501 159.746 326.943 159.218 326.518C158.704 326.078 158.052 325.858 157.26 325.858C156.468 325.858 155.83 326.049 155.346 326.43C154.862 326.797 154.62 327.303 154.62 327.948C154.62 328.432 154.788 328.821 155.126 329.114C155.478 329.407 155.91 329.605 156.424 329.708C156.937 329.811 157.494 329.935 158.096 330.082C158.712 330.214 159.276 330.368 159.79 330.544C160.303 330.705 160.728 330.999 161.066 331.424C161.418 331.849 161.594 332.399 161.594 333.074C161.594 333.998 161.205 334.731 160.428 335.274C159.665 335.802 158.638 336.066 157.348 336.066C156.101 336.066 155.074 335.751 154.268 335.12C153.461 334.489 153.058 333.646 153.058 332.59ZM165.993 322.844H164.673V320.6H165.993V322.844ZM165.993 336H164.673V325H165.993V336ZM174.323 324.934C175.731 324.934 176.86 325.44 177.711 326.452C178.576 327.449 178.972 328.909 178.899 330.83H170.429C170.444 332.165 170.803 333.221 171.507 333.998C172.211 334.761 173.142 335.142 174.301 335.142C175.24 335.142 176.01 334.907 176.611 334.438C177.227 333.969 177.535 333.36 177.535 332.612H178.811C178.811 333.653 178.386 334.489 177.535 335.12C176.714 335.751 175.643 336.066 174.323 336.066C172.739 336.066 171.463 335.575 170.495 334.592C169.542 333.595 169.065 332.231 169.065 330.5C169.065 328.755 169.534 327.391 170.473 326.408C171.412 325.425 172.695 324.934 174.323 324.934ZM174.301 325.858C173.157 325.858 172.226 326.232 171.507 326.98C170.788 327.713 170.429 328.703 170.429 329.95H177.579C177.579 328.703 177.271 327.713 176.655 326.98C176.054 326.232 175.269 325.858 174.301 325.858ZM186.017 336.066C183.788 336.066 182.673 335.135 182.673 333.272V325.924H180.781V325H182.673V322.69H183.993V325H187.007V325.924H183.993V333.36C183.993 333.917 184.184 334.357 184.565 334.68C184.946 334.988 185.467 335.142 186.127 335.142C186.494 335.142 186.787 335.113 187.007 335.054V335.978C186.611 336.037 186.281 336.066 186.017 336.066ZM201.653 325.924H194.415V325H203.149V325.924L195.779 335.076H203.259V336H194.327V335.076L201.653 325.924ZM210.632 324.934C212.04 324.934 213.169 325.44 214.02 326.452C214.885 327.449 215.281 328.909 215.208 330.83H206.738C206.752 332.165 207.112 333.221 207.816 333.998C208.52 334.761 209.451 335.142 210.61 335.142C211.548 335.142 212.318 334.907 212.92 334.438C213.536 333.969 213.844 333.36 213.844 332.612H215.12C215.12 333.653 214.694 334.489 213.844 335.12C213.022 335.751 211.952 336.066 210.632 336.066C209.048 336.066 207.772 335.575 206.804 334.592C205.85 333.595 205.374 332.231 205.374 330.5C205.374 328.755 205.843 327.391 206.782 326.408C207.72 325.425 209.004 324.934 210.632 324.934ZM210.61 325.858C209.466 325.858 208.534 326.232 207.816 326.98C207.097 327.713 206.738 328.703 206.738 329.95H213.888C213.888 328.703 213.58 327.713 212.964 326.98C212.362 326.232 211.578 325.858 210.61 325.858ZM219.79 330.5V336H218.47V325H219.724L219.79 327.464C220.464 325.777 221.572 324.934 223.112 324.934C223.918 324.934 224.608 325.169 225.18 325.638C225.766 326.093 226.155 326.716 226.346 327.508C226.668 326.687 227.145 326.056 227.776 325.616C228.406 325.161 229.125 324.934 229.932 324.934C231.002 324.934 231.86 325.293 232.506 326.012C233.151 326.731 233.474 327.699 233.474 328.916V336H232.154V328.916C232.154 327.963 231.926 327.215 231.472 326.672C231.017 326.129 230.408 325.858 229.646 325.858C228.751 325.858 228.025 326.276 227.468 327.112C226.91 327.948 226.632 329.077 226.632 330.5V336H225.312V328.916C225.312 327.963 225.084 327.215 224.63 326.672C224.175 326.129 223.566 325.858 222.804 325.858C221.88 325.858 221.146 326.276 220.604 327.112C220.061 327.933 219.79 329.063 219.79 330.5ZM245.216 336H243.984L243.896 333.558C243.529 334.365 242.994 334.988 242.29 335.428C241.586 335.853 240.779 336.066 239.87 336.066C238.873 336.066 238.066 335.817 237.45 335.318C236.834 334.805 236.526 334.115 236.526 333.25C236.526 332.062 237.091 331.145 238.22 330.5C239.364 329.855 240.977 329.532 243.06 329.532H243.896V328.586C243.896 327.75 243.625 327.09 243.082 326.606C242.554 326.107 241.85 325.858 240.97 325.858C240.09 325.858 239.371 326.093 238.814 326.562C238.257 327.017 237.978 327.611 237.978 328.344H236.68C236.68 327.332 237.083 326.511 237.89 325.88C238.697 325.249 239.723 324.934 240.97 324.934C242.261 324.934 243.287 325.264 244.05 325.924C244.827 326.569 245.216 327.457 245.216 328.586V336ZM243.896 330.764V330.368H243.06C241.403 330.368 240.119 330.617 239.21 331.116C238.315 331.6 237.868 332.282 237.868 333.162C237.868 333.778 238.073 334.262 238.484 334.614C238.895 334.966 239.445 335.142 240.134 335.142C241.278 335.142 242.187 334.753 242.862 333.976C243.551 333.184 243.896 332.113 243.896 330.764ZM243.742 322.668H238.264V321.766H243.742V322.668ZM257.121 336H255.691L251.577 330.786L250.147 332.392V336H248.827V320.05H250.147V330.588L255.075 325H256.593L252.325 329.84L257.121 336Z" fill="white"/>
<path d="M98.8506 156H82.2045V95.9364H109.405L119.615 136.265L129.998 95.9364H157.284V156H140.552V113.355L128.453 156H110.778L98.8506 113.355V156ZM209.081 156H165.663V95.9364H208.652V107.091H183.253V119.447H204.876V130.687H183.253V144.845H209.081V156ZM252.333 156L232.083 122.793V156H215.437V95.9364H232.083L252.333 129.143V95.9364H269.065V156H252.333ZM282.85 103.573C288.227 98.0815 295.292 95.3358 304.044 95.3358C312.796 95.3358 319.89 98.0815 325.324 103.573C330.701 108.95 333.39 116.415 333.39 125.968C333.39 135.521 330.701 143.015 325.324 148.449C319.89 153.883 312.796 156.601 304.044 156.601C295.349 156.601 288.285 153.883 282.85 148.449C277.473 143.015 274.785 135.521 274.785 125.968C274.785 116.415 277.473 108.95 282.85 103.573ZM304.044 145.274C311.824 145.274 315.714 138.839 315.714 125.968C315.714 113.097 311.824 106.662 304.044 106.662C300.269 106.662 297.38 108.292 295.378 111.553C293.376 114.814 292.375 119.619 292.375 125.968C292.375 132.318 293.376 137.123 295.378 140.383C297.38 143.644 300.269 145.274 304.044 145.274ZM99.7945 215H82.2045V154.936H110.177C116.527 154.936 121.646 156.653 125.536 160.085C129.369 163.517 131.285 168.236 131.285 174.243C131.285 180.192 129.369 184.882 125.536 188.315C121.646 191.69 116.527 193.377 110.177 193.377H99.7945V215ZM106.659 166.091H99.7945V182.222H106.659C111.693 182.222 114.21 179.562 114.21 174.243C114.21 168.808 111.693 166.091 106.659 166.091ZM144.374 215H126.956L146.262 154.936H166.426L185.561 215H168.228L164.882 203.845H147.635L144.374 215ZM162.479 192.605L156.387 168.665L150.209 192.605H162.479ZM223.881 193.463V154.936H241.471V193.463C241.471 200.385 239.04 205.819 234.177 209.766C229.315 213.656 222.908 215.601 214.957 215.601C207.006 215.601 200.57 213.656 195.651 209.766C190.846 205.819 188.443 200.385 188.443 193.463V154.936H206.033V193.463C206.033 200.671 209.008 204.274 214.957 204.274C220.906 204.274 223.881 200.671 223.881 193.463ZM109.098 225.091H82.2406V213.936H128.919V224.233L100.689 262.845H129.348V274H81.8116V263.703L109.098 225.091ZM179.149 274H135.731V213.936H178.72V225.091H153.321V237.447H174.944V248.687H153.321V262.845H179.149V274ZM182.33 254.694H198.976C198.976 260.414 201.551 263.274 206.699 263.274C209.159 263.274 211.104 262.702 212.534 261.558C213.964 260.357 214.679 258.784 214.679 256.839C214.679 254.551 213.592 252.835 211.418 251.691C209.302 250.547 206.699 249.717 203.61 249.202C200.578 248.687 197.518 248.001 194.429 247.143C191.397 246.285 188.794 244.569 186.621 241.995C184.504 239.421 183.446 235.931 183.446 231.526C183.446 225.863 185.648 221.43 190.053 218.227C194.515 214.966 200.321 213.336 207.471 213.336C214.622 213.336 220.228 215.023 224.289 218.398C228.35 221.716 230.381 226.264 230.381 232.041H213.735C213.735 227.122 211.79 224.662 207.9 224.662C205.898 224.662 204.239 225.32 202.924 226.636C201.665 227.951 201.036 229.496 201.036 231.269C201.036 232.413 201.293 233.386 201.808 234.186C202.323 234.987 203.181 235.674 204.382 236.246C205.641 236.761 206.728 237.161 207.643 237.447C208.615 237.733 210.103 238.105 212.105 238.562C214.164 238.963 215.68 239.278 216.652 239.506C219.513 240.307 222.029 241.194 224.203 242.166C226.663 243.196 228.636 244.941 230.124 247.4C231.611 249.803 232.355 252.749 232.355 256.238C232.355 262.13 230.038 266.678 225.404 269.881C220.885 273.028 214.822 274.601 207.214 274.601C199.377 274.601 193.256 272.856 188.851 269.367C184.504 265.877 182.33 260.986 182.33 254.694Z" fill="white"/>
<path d="M98.268 83H96.308L88.804 73.032L86.228 75.804V83H84.464V63.4H86.228V73.592L95.496 63.4H97.54L89.84 71.828L98.268 83ZM110.954 83H109.386L109.274 79.892C108.807 80.9187 108.126 81.712 107.23 82.272C106.334 82.8133 105.307 83.084 104.15 83.084C102.88 83.084 101.854 82.7667 101.07 82.132C100.286 81.4787 99.8935 80.6013 99.8935 79.5C99.8935 77.988 100.612 76.8213 102.05 76C103.506 75.1787 105.559 74.768 108.21 74.768H109.274V73.564C109.274 72.5 108.928 71.66 108.238 71.044C107.566 70.4093 106.67 70.092 105.55 70.092C104.43 70.092 103.515 70.3907 102.806 70.988C102.096 71.5667 101.742 72.3227 101.742 73.256H100.09C100.09 71.968 100.603 70.9227 101.63 70.12C102.656 69.3173 103.963 68.916 105.55 68.916C107.192 68.916 108.499 69.336 109.47 70.176C110.459 70.9973 110.954 72.1267 110.954 73.564V83ZM109.274 76.336V75.832H108.21C106.1 75.832 104.467 76.1493 103.31 76.784C102.171 77.4 101.602 78.268 101.602 79.388C101.602 80.172 101.863 80.788 102.386 81.236C102.908 81.684 103.608 81.908 104.486 81.908C105.942 81.908 107.099 81.4133 107.958 80.424C108.835 79.416 109.274 78.0533 109.274 76.336ZM109.078 66.032H102.106V64.884H109.078V66.032ZM126.133 62.7H127.841V83H126.245L126.133 79.92C125.2 82.0293 123.567 83.084 121.233 83.084C119.311 83.084 117.78 82.4587 116.641 81.208C115.484 79.9387 114.905 78.2027 114.905 76C114.905 73.816 115.484 72.0893 116.641 70.82C117.799 69.5507 119.329 68.916 121.233 68.916C123.585 68.916 125.219 69.9333 126.133 71.968V62.7ZM121.541 70.092C120.029 70.092 118.825 70.624 117.929 71.688C117.052 72.7333 116.613 74.1707 116.613 76C116.613 77.8293 117.052 79.276 117.929 80.34C118.825 81.3853 120.029 81.908 121.541 81.908C122.941 81.908 124.052 81.3853 124.873 80.34C125.713 79.276 126.133 77.8293 126.133 76C126.133 74.1707 125.713 72.7333 124.873 71.688C124.052 70.624 122.941 70.092 121.541 70.092ZM133.936 66.256H132.256V63.4H133.936V66.256ZM133.936 83H132.256V69H133.936V83ZM146.624 66.256H144.944V63.4H146.624V66.256ZM146.624 83H144.944V69H146.624V83ZM152.858 76.336V83H151.178V69H152.718L152.858 72.22C153.306 71.156 153.969 70.344 154.846 69.784C155.742 69.2053 156.778 68.916 157.954 68.916V70.204C156.442 70.204 155.21 70.764 154.258 71.884C153.325 72.9853 152.858 74.4693 152.858 76.336Z" fill="white"/>
<path d="M239.54 241.66H241.192C241.192 242.612 241.556 243.396 242.284 244.012C243.012 244.609 243.936 244.908 245.056 244.908C246.176 244.908 247.063 244.675 247.716 244.208C248.369 243.723 248.696 243.069 248.696 242.248C248.696 240.904 247.651 240.036 245.56 239.644C243.637 239.289 242.34 238.944 241.668 238.608C240.436 237.955 239.829 237.003 239.848 235.752C239.848 234.576 240.305 233.643 241.22 232.952C242.153 232.261 243.385 231.916 244.916 231.916C246.353 231.916 247.557 232.299 248.528 233.064C249.48 233.811 249.956 234.809 249.956 236.06H248.388C248.388 235.183 248.052 234.473 247.38 233.932C246.727 233.372 245.896 233.092 244.888 233.092C243.88 233.092 243.068 233.335 242.452 233.82C241.836 234.287 241.528 234.931 241.528 235.752C241.528 236.368 241.743 236.863 242.172 237.236C242.62 237.609 243.171 237.861 243.824 237.992C244.477 238.123 245.187 238.281 245.952 238.468C246.736 238.636 247.455 238.832 248.108 239.056C248.761 239.261 249.303 239.635 249.732 240.176C250.18 240.717 250.404 241.417 250.404 242.276C250.404 243.452 249.909 244.385 248.92 245.076C247.949 245.748 246.643 246.084 245 246.084C243.413 246.084 242.107 245.683 241.08 244.88C240.053 244.077 239.54 243.004 239.54 241.66ZM256.003 229.256H254.323V226.4H256.003V229.256ZM256.003 246H254.323V232H256.003V246ZM262.237 239V246H260.557V232H262.153L262.237 235.136C263.096 232.989 264.505 231.916 266.465 231.916C267.492 231.916 268.369 232.215 269.097 232.812C269.844 233.391 270.338 234.184 270.581 235.192C270.992 234.147 271.598 233.344 272.401 232.784C273.204 232.205 274.118 231.916 275.145 231.916C276.508 231.916 277.6 232.373 278.421 233.288C279.242 234.203 279.653 235.435 279.653 236.984V246H277.973V236.984C277.973 235.771 277.684 234.819 277.105 234.128C276.526 233.437 275.752 233.092 274.781 233.092C273.642 233.092 272.718 233.624 272.009 234.688C271.3 235.752 270.945 237.189 270.945 239V246H269.265V236.984C269.265 235.771 268.976 234.819 268.397 234.128C267.818 233.437 267.044 233.092 266.073 233.092C264.897 233.092 263.964 233.624 263.273 234.688C262.582 235.733 262.237 237.171 262.237 239ZM285.862 252.02H284.182V232H285.778L285.862 235.08C286.814 232.971 288.457 231.916 290.79 231.916C292.675 231.916 294.197 232.551 295.354 233.82C296.511 235.089 297.09 236.816 297.09 239C297.09 241.203 296.511 242.939 295.354 244.208C294.215 245.459 292.694 246.084 290.79 246.084C289.67 246.084 288.681 245.823 287.822 245.3C286.982 244.759 286.329 244.003 285.862 243.032V252.02ZM290.482 244.908C291.994 244.908 293.189 244.385 294.066 243.34C294.962 242.276 295.41 240.829 295.41 239C295.41 237.171 294.962 235.733 294.066 234.688C293.189 233.624 291.994 233.092 290.482 233.092C289.063 233.092 287.934 233.624 287.094 234.688C286.273 235.733 285.862 237.171 285.862 239C285.862 240.829 286.273 242.276 287.094 243.34C287.934 244.385 289.063 244.908 290.482 244.908ZM305.906 246.084C303.069 246.084 301.65 244.899 301.65 242.528V233.176H299.242V232H301.65V229.06H303.33V232H307.166V233.176H303.33V242.64C303.33 243.349 303.573 243.909 304.058 244.32C304.544 244.712 305.206 244.908 306.046 244.908C306.513 244.908 306.886 244.871 307.166 244.796V245.972C306.662 246.047 306.242 246.084 305.906 246.084ZM316.617 231.916C318.614 231.916 320.219 232.551 321.433 233.82C322.665 235.089 323.281 236.816 323.281 239C323.281 241.203 322.665 242.939 321.433 244.208C320.238 245.459 318.633 246.084 316.617 246.084C314.601 246.084 312.977 245.459 311.745 244.208C310.531 242.939 309.925 241.203 309.925 239C309.925 236.816 310.531 235.089 311.745 233.82C312.977 232.551 314.601 231.916 316.617 231.916ZM316.617 244.908C318.129 244.908 319.333 244.385 320.229 243.34C321.125 242.276 321.573 240.829 321.573 239C321.573 237.171 321.125 235.733 320.229 234.688C319.333 233.624 318.129 233.092 316.617 233.092C315.086 233.092 313.873 233.624 312.977 234.688C312.081 235.733 311.633 237.171 311.633 239C311.633 240.829 312.081 242.276 312.977 243.34C313.873 244.385 315.086 244.908 316.617 244.908ZM328.846 239V246H327.166V232H328.762L328.846 235.136C329.705 232.989 331.114 231.916 333.074 231.916C334.101 231.916 334.978 232.215 335.706 232.812C336.453 233.391 336.948 234.184 337.19 235.192C337.601 234.147 338.208 233.344 339.01 232.784C339.813 232.205 340.728 231.916 341.754 231.916C343.117 231.916 344.209 232.373 345.03 233.288C345.852 234.203 346.262 235.435 346.262 236.984V246H344.582V236.984C344.582 235.771 344.293 234.819 343.714 234.128C343.136 233.437 342.361 233.092 341.39 233.092C340.252 233.092 339.328 233.624 338.618 234.688C337.909 235.752 337.554 237.189 337.554 239V246H335.874V236.984C335.874 235.771 335.585 234.819 335.006 234.128C334.428 233.437 333.653 233.092 332.682 233.092C331.506 233.092 330.573 233.624 329.882 234.688C329.192 235.733 328.846 237.171 328.846 239ZM352.471 229.256H350.791V226.4H352.471V229.256ZM352.471 246H350.791V232H352.471V246ZM363.522 240.204H361.842V239.672C361.842 238.925 361.963 238.272 362.206 237.712C362.467 237.152 362.784 236.723 363.158 236.424C363.55 236.107 363.97 235.789 364.418 235.472C364.866 235.136 365.276 234.828 365.65 234.548C366.042 234.268 366.359 233.885 366.602 233.4C366.863 232.896 366.994 232.317 366.994 231.664C366.994 230.413 366.592 229.415 365.79 228.668C365.006 227.921 363.96 227.548 362.654 227.548C361.347 227.548 360.264 227.968 359.406 228.808C358.547 229.648 358.118 230.731 358.118 232.056H356.466C356.466 230.339 357.044 228.957 358.202 227.912C359.378 226.848 360.88 226.316 362.71 226.316C364.52 226.316 365.967 226.801 367.05 227.772C368.151 228.724 368.702 230.021 368.702 231.664C368.702 233.381 368.095 234.66 366.882 235.5C366.77 235.575 366.471 235.771 365.986 236.088C365.519 236.387 365.192 236.611 365.006 236.76C364.838 236.909 364.604 237.143 364.306 237.46C364.007 237.777 363.802 238.113 363.69 238.468C363.578 238.823 363.522 239.224 363.522 239.672V240.204ZM363.522 246H361.842V243.032H363.522V246Z" fill="white"/>
</svg>
