<?xml version="1.0" encoding="utf-8"?>
<!-- Generator: Adobe Illustrator 21.1.0, SVG Export Plug-In . SVG Version: 6.00 Build 0)  -->
<svg version="1.1" id="Layer_1" xmlns="http://www.w3.org/2000/svg" xmlns:xlink="http://www.w3.org/1999/xlink" x="0px" y="0px"
	 viewBox="0 0 163 40" style="enable-background:new 0 0 163 40;" xml:space="preserve">
<style type="text/css">
	.st0{fill:#932788;}
	.st1{fill:none;stroke:#932788;stroke-width:1.511;stroke-miterlimit:10;}
	.st2{fill:#932788;stroke:#932788;stroke-width:0.2;stroke-miterlimit:10;}
</style>
<g>
	<path class="st0" d="M0.3,10.1c0,0,2.4-0.6,2.8-3.1c0,0,0.5-2.5,1.1-2.2c0.6,0.3,0.9,0.7,1.6,1.1C6.4,6.2,7.1,6.7,6.4,8
		s-2.7,3.1-2,5s2.4,4.2,2.3,5.7c-0.1,1.5-0.8,3.4-1.6,5.8c0,0,1.4-5.2,0.2-7.1c-1.3-1.9-2-2.5-2-2.5s-1.6-1.7,0-3.8
		c1.7-2.3,2.3-3.4,2.1-4c-0.3-0.7-1-1.4-1.3-0.6C3.7,7.2,3.2,9.3,0.3,10.1"/>
	<path class="st0" d="M4.3,1.2C4.9,1,5.6,1.5,5.8,2.3c0.3,0.8,0.1,1.6-0.5,1.8C4.8,4.3,4.1,3.8,3.8,3S3.8,1.4,4.3,1.2"/>
	<path class="st1" d="M10.9,23.5c33.4,0,66.7,0,100.1,0 M119.7,23.5c14.4,0,28.7,0,43.1,0"/>
	<polygon class="st0" points="14.7,10.1 12.2,12.9 12.2,20 11.1,20 11.1,1.2 12.2,1.2 12.2,11.4 21.7,1.2 23,1.2 15.4,9.3 23.7,20 
		22.4,20 	"/>
	<path class="st0" d="M27,0.5h1.1v17c0,1.1,0.6,1.7,1.5,1.7V20C28,20,27,19.1,27,17.5V0.5z"/>
	<path class="st0" d="M33.4,1.2h1.1v2.6h-1.1V1.2z M33.4,6.5h1.1V20h-1.1V6.5z"/>
	<path class="st0" d="M40.3,20h-1.1V6.6h1l0.1,3.3c0.8-2.2,2.3-3.4,4.2-3.4c2.1,0,3.6,1.3,4,3.4C49.3,7.7,51,6.5,53,6.5
		c2.5,0,4.3,1.8,4.3,4.9V20h-1v-8.6c0-2.6-1.4-4.1-3.4-4.1c-2.3,0-4.1,2.2-4.1,6V20h-1v-8.6c0-2.6-1.4-4.1-3.4-4.1c-2.4,0-4,2.2-4,6
		L40.3,20L40.3,20z"/>
	<path class="st0" d="M70.5,16.7c-0.9,2.2-2.8,3.4-5.2,3.4c-2.3,0-4-1.3-4-3.4c0-2.9,2.9-4.5,8.1-4.5h1.1V11c0-2.3-1.6-3.6-3.9-3.6
		s-4,1.3-4,3.2h-1c0-2.4,2.2-4.1,5.1-4.1c2.9,0,5,1.6,5,4.4V20h-1L70.5,16.7z M69.4,12.9c-4.5,0-7,1.4-7,3.7c0,1.7,1.2,2.7,3,2.7
		c3,0,5.1-2.2,5.1-5.8V13h-1.1V12.9z"/>
	<polygon class="st0" points="79.1,13.3 77.4,15.3 77.4,20 76.3,20 76.3,0.5 77.4,0.5 77.4,13.9 83.9,6.6 85.1,6.6 79.8,12.5 
		85.8,20 84.6,20 	"/>
	<path class="st0" d="M90.3,16.8V7.4h-2.4V6.5h2.4V3.7h1.1v2.8h3.8v0.8h-3.8v9.5c0,1.5,1.1,2.3,2.8,2.3c0.4,0,0.7,0,1.1-0.1v1
		c-0.4,0.1-0.7,0.1-1.1,0.1C91.7,20.1,90.3,18.9,90.3,16.8"/>
	<path class="st0" d="M104.4,6.5c3.7,0,6.3,2.5,6.3,6.8s-2.6,6.8-6.3,6.8c-3.7,0-6.3-2.5-6.3-6.8S100.7,6.5,104.4,6.5 M104.4,19.2
		c3.1,0,5.2-2.2,5.2-6s-2.1-6-5.2-6s-5.2,2.2-5.2,6C99.2,17,101.3,19.2,104.4,19.2"/>
	<path class="st0" d="M114.8,6.5h1l0.1,3.3c0.9-2.2,2.7-3.4,5-3.4c3.6,0,6.1,2.5,6.1,6.8s-2.5,6.8-6.1,6.8c-2.3,0-4.1-1.2-5-3.3v9
		h-1.1V6.5z M120.7,19.2c3.1,0,5.2-2.2,5.2-6s-2.1-6-5.2-6c-2.9,0-4.8,2.2-4.8,6C115.9,17,117.8,19.2,120.7,19.2"/>
	<path class="st0" d="M131.1,0.5h1.1v17c0,1.1,0.6,1.7,1.5,1.7V20c-1.6,0-2.6-0.9-2.6-2.5V0.5z"/>
	<path class="st0" d="M145.9,16.7c-0.9,2.2-2.8,3.4-5.2,3.4c-2.3,0-4-1.3-4-3.4c0-2.9,2.9-4.5,8.1-4.5h1.1V11c0-2.3-1.6-3.6-3.9-3.6
		c-2.3,0-4,1.3-4,3.2h-1c0-2.4,2.2-4.1,5.1-4.1c2.9,0,5,1.6,5,4.4V20h-1L145.9,16.7z M144.8,12.9c-4.5,0-7,1.4-7,3.7
		c0,1.7,1.2,2.7,3,2.7c3,0,5.1-2.2,5.1-5.8V13h-1.1V12.9z"/>
	<path class="st0" d="M152.8,20h-1.1V6.6h1l0.1,3.3c0.9-2.2,2.7-3.4,5-3.4c2.9,0,5,1.8,5,4.9V20h-1v-8.6c0-2.6-1.7-4.1-4.1-4.1
		c-2.9,0-4.8,2.2-4.8,6L152.8,20L152.8,20z"/>
</g>
<g>
	<path class="st2" d="M91.1,26.2h7.2v0.6h-6.5V31h6.2v0.6h-6.2v4.7h6.6v0.6h-7.3V26.2z"/>
	<path class="st2" d="M100.4,34.3c0,0.4,0.1,0.7,0.2,1c0.1,0.3,0.3,0.5,0.5,0.7c0.2,0.2,0.5,0.3,0.8,0.4c0.3,0.1,0.6,0.1,1,0.1
		c0.3,0,0.5,0,0.8-0.1s0.5-0.1,0.8-0.2s0.4-0.3,0.6-0.5s0.2-0.5,0.2-0.8c0-0.4-0.1-0.8-0.4-1c-0.3-0.2-0.6-0.4-1-0.5
		c-0.4-0.1-0.8-0.2-1.3-0.3s-0.9-0.2-1.3-0.3c-0.4-0.1-0.7-0.4-1-0.6c-0.3-0.3-0.4-0.7-0.4-1.2c0-0.4,0.1-0.7,0.3-1
		c0.2-0.3,0.4-0.5,0.7-0.6c0.3-0.1,0.6-0.3,0.9-0.3c0.3-0.1,0.7-0.1,1-0.1c0.4,0,0.8,0,1.1,0.1c0.3,0.1,0.7,0.2,0.9,0.4
		s0.5,0.5,0.6,0.8c0.1,0.3,0.2,0.7,0.2,1.1h-0.6c0-0.3-0.1-0.6-0.2-0.9c-0.1-0.3-0.3-0.5-0.5-0.6s-0.4-0.3-0.7-0.3
		c-0.3-0.1-0.6-0.1-0.9-0.1c-0.3,0-0.5,0-0.8,0.1s-0.5,0.1-0.7,0.3s-0.4,0.3-0.5,0.5c-0.1,0.2-0.2,0.4-0.2,0.7
		c0,0.3,0.1,0.6,0.2,0.8c0.1,0.2,0.3,0.3,0.6,0.5c0.2,0.1,0.5,0.2,0.8,0.3c0.3,0.1,0.6,0.1,0.9,0.2c0.4,0.1,0.7,0.2,1.1,0.2
		s0.6,0.2,0.9,0.4s0.4,0.4,0.6,0.6c0.1,0.3,0.2,0.6,0.2,1c0,0.4-0.1,0.8-0.3,1c-0.2,0.3-0.4,0.5-0.7,0.7s-0.6,0.3-1,0.3
		c-0.4,0.1-0.7,0.1-1,0.1c-0.4,0-0.8-0.1-1.2-0.2c-0.4-0.1-0.7-0.3-1-0.5s-0.5-0.5-0.7-0.9s-0.2-0.7-0.3-1.2H100.4z"/>
	<path class="st2" d="M108.3,27.7v-1.5h0.6v1.5H108.3z M108.3,36.9v-7.7h0.6v7.7H108.3z"/>
	<path class="st2" d="M114.5,26.8v-0.6h8.2v0.6h-3.8v10.1h-0.7V26.8H114.5z"/>
	<path class="st2" d="M128.8,36.9h-0.6v-1.7h0c-0.1,0.3-0.2,0.5-0.4,0.8c-0.2,0.2-0.4,0.4-0.6,0.6c-0.2,0.2-0.5,0.3-0.8,0.4
		c-0.3,0.1-0.6,0.1-0.9,0.1c-0.5,0-0.8-0.1-1.1-0.2c-0.3-0.1-0.6-0.3-0.8-0.4c-0.2-0.2-0.4-0.4-0.5-0.6c-0.1-0.2-0.2-0.5-0.2-0.7
		c0-0.2-0.1-0.5-0.1-0.7c0-0.2,0-0.4,0-0.6v-4.8h0.6v4.9c0,0.2,0,0.4,0,0.7s0.1,0.6,0.3,0.8c0.1,0.3,0.4,0.5,0.7,0.7
		c0.3,0.2,0.7,0.3,1.2,0.3c0.4,0,0.8-0.1,1.2-0.2c0.3-0.2,0.6-0.4,0.9-0.7c0.2-0.3,0.4-0.6,0.5-1c0.1-0.4,0.2-0.8,0.2-1.3v-4.2h0.6
		V36.9z"/>
	<path class="st2" d="M136.1,31L136.1,31c0.1-0.2,0.2-0.4,0.3-0.6c0.1-0.2,0.3-0.4,0.6-0.6c0.2-0.2,0.5-0.4,0.8-0.5s0.7-0.2,1.1-0.2
		c0.6,0,1.1,0.1,1.5,0.3c0.4,0.2,0.8,0.5,1.1,0.9s0.5,0.8,0.6,1.3c0.1,0.5,0.2,1,0.2,1.5c0,0.6-0.1,1.1-0.2,1.6
		c-0.1,0.5-0.4,0.9-0.6,1.3c-0.3,0.4-0.6,0.6-1.1,0.8s-1,0.3-1.5,0.3c-0.6,0-1.2-0.1-1.7-0.4c-0.5-0.3-0.9-0.7-1.1-1.4h0v4.4h-0.6
		V29.2h0.6V31z M138.9,36.6c0.5,0,0.9-0.1,1.3-0.3c0.4-0.2,0.7-0.4,0.9-0.8c0.2-0.3,0.4-0.7,0.5-1.1s0.2-0.9,0.2-1.4
		c0-0.4-0.1-0.9-0.2-1.3s-0.3-0.8-0.5-1.1s-0.5-0.6-0.9-0.8c-0.4-0.2-0.8-0.3-1.3-0.3c-0.5,0-0.9,0.1-1.3,0.3
		c-0.4,0.2-0.7,0.5-0.9,0.8c-0.2,0.3-0.4,0.7-0.5,1.1c-0.1,0.4-0.2,0.9-0.2,1.3s0,0.9,0.1,1.3c0.1,0.4,0.2,0.8,0.5,1.1
		c0.2,0.3,0.5,0.6,0.9,0.8C137.9,36.5,138.4,36.6,138.9,36.6z"/>
	<path class="st2" d="M149.6,35.4L149.6,35.4c-0.1,0.2-0.3,0.4-0.4,0.7s-0.4,0.4-0.6,0.5c-0.2,0.2-0.5,0.3-0.8,0.4s-0.7,0.1-1,0.1
		c-0.8,0-1.5-0.2-1.9-0.5c-0.5-0.4-0.7-0.9-0.7-1.6c0-0.5,0.1-0.8,0.3-1.1c0.2-0.3,0.4-0.5,0.7-0.7s0.6-0.3,0.9-0.4s0.7-0.1,1-0.2
		l0.9-0.1c0.4,0,0.7-0.1,1-0.1c0.2-0.1,0.4-0.2,0.5-0.3s0.2-0.3,0.2-0.4c0-0.2,0-0.4,0-0.7c0-0.2,0-0.4-0.1-0.6
		c-0.1-0.2-0.2-0.3-0.4-0.5c-0.2-0.1-0.4-0.3-0.7-0.3c-0.3-0.1-0.6-0.1-1-0.1c-0.7,0-1.2,0.2-1.7,0.5c-0.4,0.3-0.7,0.9-0.7,1.5h-0.6
		c0-0.9,0.3-1.5,0.8-1.9c0.5-0.4,1.2-0.6,2.2-0.6c0.9,0,1.6,0.2,2,0.5s0.6,0.8,0.6,1.4v4.5c0,0.1,0,0.2,0,0.3c0,0.1,0,0.2,0.1,0.3
		c0,0.1,0.1,0.2,0.2,0.2c0.1,0.1,0.2,0.1,0.3,0.1c0.1,0,0.2,0,0.4,0v0.5c-0.1,0-0.3,0.1-0.5,0.1c-0.2,0-0.4,0-0.5-0.1
		c-0.1-0.1-0.2-0.1-0.3-0.2c-0.1-0.1-0.1-0.2-0.1-0.4c0-0.1,0-0.3,0-0.4V35.4z M149.6,32.5c-0.1,0.2-0.4,0.3-0.6,0.3
		c-0.3,0.1-0.6,0.1-1,0.1l-1,0.1c-0.3,0-0.6,0.1-0.8,0.1c-0.3,0.1-0.5,0.1-0.8,0.3c-0.2,0.1-0.4,0.3-0.5,0.5
		c-0.1,0.2-0.2,0.5-0.2,0.9c0,0.6,0.2,1,0.5,1.3c0.4,0.3,0.9,0.4,1.5,0.4c0.7,0,1.2-0.1,1.5-0.4c0.4-0.2,0.7-0.5,0.9-0.8
		s0.3-0.6,0.4-0.9c0.1-0.3,0.1-0.5,0.1-0.6V32.5z"/>
	<path class="st2" d="M155.5,29.7h-1.7v5.4c0,0.3,0,0.6,0.1,0.7c0.1,0.2,0.2,0.3,0.3,0.4c0.1,0.1,0.3,0.2,0.5,0.2c0.2,0,0.4,0,0.7,0
		v0.5c-0.3,0-0.6,0-0.8,0c-0.3,0-0.5-0.1-0.7-0.2s-0.4-0.3-0.5-0.6s-0.2-0.6-0.2-1v-5.4h-1.4v-0.5h1.4v-2.4h0.6v2.4h1.7V29.7z"/>
	<path class="st2" d="M157.5,27.7v-1.5h0.6v1.5H157.5z M157.5,36.9v-7.7h0.6v7.7H157.5z"/>
	<path class="st2" d="M161.3,35.4h0.8v1.5h-0.8V35.4z M161.4,29.8v-3.6h0.7v3.6l-0.2,4.4h-0.4L161.4,29.8z"/>
</g>
</svg>
