<svg width="13" height="24" viewBox="0 0 13 24" fill="none" xmlns="http://www.w3.org/2000/svg">
<path d="M8.50889 11.9938C8.50889 16.0123 8.50889 19.9691 8.50889 23.9691C8.37848 23.9753 8.26764 23.9938 8.15028 23.9938C6.47458 23.9938 4.8054 23.9877 3.12971 24C2.81674 24 2.75805 23.9012 2.75805 23.6296C2.76457 19.8951 2.76457 16.1605 2.76457 12.4259C2.76457 12.2963 2.76457 12.1667 2.76457 12.0062C1.82566 12.0062 0.925871 12.0062 0 12.0062C0 10.6543 0 9.32099 0 7.95679C0.912831 7.95679 1.81914 7.95679 2.76457 7.95679C2.76457 7.80864 2.76457 7.69753 2.76457 7.58642C2.76457 6.54938 2.75153 5.50617 2.77109 4.46914C2.79065 3.11728 3.25359 1.95062 4.42071 1.09877C5.24226 0.5 6.20725 0.160494 7.21788 0.111111C9.03051 0.0246913 10.8431 0.0308642 12.6557 0C12.8122 0 12.9035 0.037037 12.897 0.203704C12.8905 1.51235 12.8905 2.81482 12.884 4.12346C12.884 4.14198 12.8709 4.16049 12.8383 4.22222C12.7405 4.22222 12.6297 4.22222 12.5123 4.22222C11.619 4.22222 10.7323 4.22222 9.83901 4.22222C9.0305 4.22839 8.52193 4.71605 8.52193 5.46914C8.52193 6.27778 8.52193 7.09259 8.52193 7.93827C9.98246 7.93827 11.4104 7.93827 12.9231 7.93827C12.7405 9.31482 12.5645 10.642 12.3819 12C11.0779 11.9938 9.81293 11.9938 8.50889 11.9938Z" fill="white"/>
</svg>
