<svg width="267" height="57" viewBox="0 0 267 57" fill="none" xmlns="http://www.w3.org/2000/svg">
<rect width="260" height="50" fill="#2F80ED"/>
<path d="M40.1988 32.16C38.7854 32.16 37.5121 31.8533 36.3788 31.24C35.2454 30.6133 34.3521 29.7533 33.6988 28.66C33.0588 27.5667 32.7388 26.3467 32.7388 25C32.7388 23.6533 33.0588 22.4333 33.6988 21.34C34.3521 20.2467 35.2454 19.3933 36.3788 18.78C37.5121 18.1533 38.7854 17.84 40.1988 17.84C41.5988 17.84 42.8654 18.1533 43.9988 18.78C45.1321 19.3933 46.0188 20.2467 46.6588 21.34C47.2988 22.42 47.6188 23.64 47.6188 25C47.6188 26.36 47.2988 27.5867 46.6588 28.68C46.0188 29.76 45.1321 30.6133 43.9988 31.24C42.8654 31.8533 41.5988 32.16 40.1988 32.16ZM40.1988 30.38C41.2254 30.38 42.1454 30.1467 42.9588 29.68C43.7854 29.2133 44.4321 28.5733 44.8988 27.76C45.3788 26.9333 45.6188 26.0133 45.6188 25C45.6188 23.9867 45.3788 23.0733 44.8988 22.26C44.4321 21.4333 43.7854 20.7867 42.9588 20.32C42.1454 19.8533 41.2254 19.62 40.1988 19.62C39.1721 19.62 38.2388 19.8533 37.3988 20.32C36.5721 20.7867 35.9188 21.4333 35.4388 22.26C34.9721 23.0733 34.7388 23.9867 34.7388 25C34.7388 26.0133 34.9721 26.9333 35.4388 27.76C35.9188 28.5733 36.5721 29.2133 37.3988 29.68C38.2388 30.1467 39.1721 30.38 40.1988 30.38ZM58.1975 23.08H54.3175V32H52.3975V23.08H48.5175V21.4H58.1975V23.08ZM65.7808 21.3C66.8074 21.3 67.7274 21.5267 68.5408 21.98C69.3541 22.4333 69.9874 23.0667 70.4408 23.88C70.9074 24.6933 71.1408 25.6333 71.1408 26.7C71.1408 27.7667 70.9074 28.7133 70.4408 29.54C69.9874 30.3533 69.3541 30.9867 68.5408 31.44C67.7274 31.8933 66.8074 32.12 65.7808 32.12C65.0208 32.12 64.3208 31.9733 63.6808 31.68C63.0541 31.3867 62.5208 30.96 62.0808 30.4V35.88H60.1608V21.4H62.0008V23.08C62.4274 22.4933 62.9674 22.0533 63.6208 21.76C64.2741 21.4533 64.9941 21.3 65.7808 21.3ZM65.6208 30.44C66.3008 30.44 66.9074 30.2867 67.4408 29.98C67.9874 29.66 68.4141 29.22 68.7208 28.66C69.0408 28.0867 69.2008 27.4333 69.2008 26.7C69.2008 25.9667 69.0408 25.32 68.7208 24.76C68.4141 24.1867 67.9874 23.7467 67.4408 23.44C66.9074 23.1333 66.3008 22.98 65.6208 22.98C64.9541 22.98 64.3474 23.14 63.8008 23.46C63.2674 23.7667 62.8408 24.2 62.5208 24.76C62.2141 25.32 62.0608 25.9667 62.0608 26.7C62.0608 27.4333 62.2141 28.0867 62.5208 28.66C62.8274 29.22 63.2541 29.66 63.8008 29.98C64.3474 30.2867 64.9541 30.44 65.6208 30.44ZM73.9303 21.4H75.8503V29.12L82.3503 21.4H84.0903V32H82.1703V24.28L75.6903 32H73.9303V21.4ZM100.037 21.4V32H98.297V24.26L94.337 30.8H93.497L89.577 24.24V32H87.817V21.4H89.797L93.957 28.56L98.237 21.4H100.037ZM107.554 21.3C109.021 21.3 110.141 21.66 110.914 22.38C111.701 23.1 112.094 24.1733 112.094 25.6V32H110.274V30.6C109.954 31.0933 109.494 31.4733 108.894 31.74C108.307 31.9933 107.607 32.12 106.794 32.12C105.607 32.12 104.654 31.8333 103.934 31.26C103.227 30.6867 102.874 29.9333 102.874 29C102.874 28.0667 103.214 27.32 103.894 26.76C104.574 26.1867 105.654 25.9 107.134 25.9H110.174V25.52C110.174 24.6933 109.934 24.06 109.454 23.62C108.974 23.18 108.267 22.96 107.334 22.96C106.707 22.96 106.094 23.0667 105.494 23.28C104.894 23.48 104.387 23.7533 103.974 24.1L103.174 22.66C103.721 22.22 104.374 21.8867 105.134 21.66C105.894 21.42 106.701 21.3 107.554 21.3ZM107.114 30.64C107.847 30.64 108.481 30.48 109.014 30.16C109.547 29.8267 109.934 29.36 110.174 28.76V27.28H107.214C105.587 27.28 104.774 27.8267 104.774 28.92C104.774 29.4533 104.981 29.8733 105.394 30.18C105.807 30.4867 106.381 30.64 107.114 30.64ZM123.451 23.08H119.571V32H117.651V23.08H113.771V21.4H123.451V23.08ZM125.415 21.4H127.335V29.12L133.835 21.4H135.575V32H133.655V24.28L127.175 32H125.415V21.4ZM150.293 21.3C151.319 21.3 152.239 21.5267 153.053 21.98C153.866 22.4333 154.499 23.0667 154.953 23.88C155.419 24.6933 155.653 25.6333 155.653 26.7C155.653 27.7667 155.419 28.7133 154.953 29.54C154.499 30.3533 153.866 30.9867 153.053 31.44C152.239 31.8933 151.319 32.12 150.293 32.12C149.533 32.12 148.833 31.9733 148.193 31.68C147.566 31.3867 147.033 30.96 146.593 30.4V35.88H144.673V21.4H146.513V23.08C146.939 22.4933 147.479 22.0533 148.133 21.76C148.786 21.4533 149.506 21.3 150.293 21.3ZM150.133 30.44C150.813 30.44 151.419 30.2867 151.953 29.98C152.499 29.66 152.926 29.22 153.233 28.66C153.553 28.0867 153.713 27.4333 153.713 26.7C153.713 25.9667 153.553 25.32 153.233 24.76C152.926 24.1867 152.499 23.7467 151.953 23.44C151.419 23.1333 150.813 22.98 150.133 22.98C149.466 22.98 148.859 23.14 148.313 23.46C147.779 23.7667 147.353 24.2 147.033 24.76C146.726 25.32 146.573 25.9667 146.573 26.7C146.573 27.4333 146.726 28.0867 147.033 28.66C147.339 29.22 147.766 29.66 148.313 29.98C148.859 30.2867 149.466 30.44 150.133 30.44ZM162.124 21.3C163.591 21.3 164.711 21.66 165.484 22.38C166.271 23.1 166.664 24.1733 166.664 25.6V32H164.844V30.6C164.524 31.0933 164.064 31.4733 163.464 31.74C162.878 31.9933 162.178 32.12 161.364 32.12C160.178 32.12 159.224 31.8333 158.504 31.26C157.798 30.6867 157.444 29.9333 157.444 29C157.444 28.0667 157.784 27.32 158.464 26.76C159.144 26.1867 160.224 25.9 161.704 25.9H164.744V25.52C164.744 24.6933 164.504 24.06 164.024 23.62C163.544 23.18 162.838 22.96 161.904 22.96C161.278 22.96 160.664 23.0667 160.064 23.28C159.464 23.48 158.958 23.7533 158.544 24.1L157.744 22.66C158.291 22.22 158.944 21.8867 159.704 21.66C160.464 21.42 161.271 21.3 162.124 21.3ZM161.684 30.64C162.418 30.64 163.051 30.48 163.584 30.16C164.118 29.8267 164.504 29.36 164.744 28.76V27.28H161.784C160.158 27.28 159.344 27.8267 159.344 28.92C159.344 29.4533 159.551 29.8733 159.964 30.18C160.378 30.4867 160.951 30.64 161.684 30.64ZM176.742 32L173.682 27.94L170.582 32H168.442L172.622 26.58L168.642 21.4H170.782L173.702 25.22L176.602 21.4H178.702L174.702 26.58L178.922 32H176.742ZM189.797 21.4L184.657 33.06C184.203 34.14 183.67 34.9 183.057 35.34C182.457 35.78 181.73 36 180.877 36C180.357 36 179.85 35.9133 179.357 35.74C178.877 35.58 178.477 35.34 178.157 35.02L178.977 33.58C179.523 34.1 180.157 34.36 180.877 34.36C181.343 34.36 181.73 34.2333 182.037 33.98C182.357 33.74 182.643 33.32 182.897 32.72L183.237 31.98L178.557 21.4H180.557L184.257 29.88L187.917 21.4H189.797ZM191.762 21.4H193.682V25.9H199.722V21.4H201.642V32H199.722V27.56H193.682V32H191.762V21.4ZM209.916 32.12C208.862 32.12 207.916 31.8867 207.076 31.42C206.236 30.9533 205.576 30.3133 205.096 29.5C204.629 28.6733 204.396 27.74 204.396 26.7C204.396 25.66 204.629 24.7333 205.096 23.92C205.576 23.0933 206.236 22.4533 207.076 22C207.916 21.5333 208.862 21.3 209.916 21.3C210.969 21.3 211.909 21.5333 212.736 22C213.576 22.4533 214.229 23.0933 214.696 23.92C215.176 24.7333 215.416 25.66 215.416 26.7C215.416 27.74 215.176 28.6733 214.696 29.5C214.229 30.3133 213.576 30.9533 212.736 31.42C211.909 31.8867 210.969 32.12 209.916 32.12ZM209.916 30.44C210.596 30.44 211.202 30.2867 211.736 29.98C212.282 29.66 212.709 29.22 213.016 28.66C213.322 28.0867 213.476 27.4333 213.476 26.7C213.476 25.9667 213.322 25.32 213.016 24.76C212.709 24.1867 212.282 23.7467 211.736 23.44C211.202 23.1333 210.596 22.98 209.916 22.98C209.236 22.98 208.622 23.1333 208.076 23.44C207.542 23.7467 207.116 24.1867 206.796 24.76C206.489 25.32 206.336 25.9667 206.336 26.7C206.336 27.4333 206.489 28.0867 206.796 28.66C207.116 29.22 207.542 29.66 208.076 29.98C208.622 30.2867 209.236 30.44 209.916 30.44ZM222.308 27.52H220.108V32H218.188V21.4H220.108V25.88H222.348L225.788 21.4H227.848L223.828 26.5L228.128 32H225.868L222.308 27.52Z" fill="white"/>
<rect x="7.5" y="7.5" width="259" height="49" stroke="#2F80ED"/>
</svg>
