<svg width="267" height="57" viewBox="0 0 267 57" fill="none" xmlns="http://www.w3.org/2000/svg">
<rect width="260" height="50" fill="white"/>
<path d="M79.4857 18C81.299 18 82.7257 18.4333 83.7657 19.3C84.8057 20.1667 85.3257 21.36 85.3257 22.88C85.3257 24.4 84.8057 25.5933 83.7657 26.46C82.7257 27.3267 81.299 27.76 79.4857 27.76H76.0257V32H74.0257V18H79.4857ZM79.4257 26.02C80.6924 26.02 81.659 25.7533 82.3257 25.22C82.9924 24.6733 83.3257 23.8933 83.3257 22.88C83.3257 21.8667 82.9924 21.0933 82.3257 20.56C81.659 20.0133 80.6924 19.74 79.4257 19.74H76.0257V26.02H79.4257ZM97.3287 26.76C97.3287 26.9067 97.3153 27.1 97.2887 27.34H88.6887C88.8087 28.2733 89.2153 29.0267 89.9087 29.6C90.6153 30.16 91.4887 30.44 92.5287 30.44C93.7953 30.44 94.8153 30.0133 95.5887 29.16L96.6487 30.4C96.1687 30.96 95.5687 31.3867 94.8487 31.68C94.142 31.9733 93.3487 32.12 92.4687 32.12C91.3487 32.12 90.3553 31.8933 89.4887 31.44C88.622 30.9733 87.9487 30.3267 87.4687 29.5C87.002 28.6733 86.7687 27.74 86.7687 26.7C86.7687 25.6733 86.9953 24.7467 87.4487 23.92C87.9153 23.0933 88.5487 22.4533 89.3487 22C90.162 21.5333 91.0753 21.3 92.0887 21.3C93.102 21.3 94.002 21.5333 94.7887 22C95.5887 22.4533 96.2087 23.0933 96.6487 23.92C97.102 24.7467 97.3287 25.6933 97.3287 26.76ZM92.0887 22.92C91.1687 22.92 90.3953 23.2 89.7687 23.76C89.1553 24.32 88.7953 25.0533 88.6887 25.96H95.4887C95.382 25.0667 95.0153 24.34 94.3887 23.78C93.7753 23.2067 93.0087 22.92 92.0887 22.92ZM105.047 32.12C103.967 32.12 102.987 31.8867 102.107 31.42C101.241 30.9533 100.561 30.3067 100.067 29.48C99.5739 28.6533 99.3273 27.7267 99.3273 26.7C99.3273 25.66 99.5739 24.7267 100.067 23.9C100.561 23.0733 101.241 22.4267 102.107 21.96C102.987 21.4933 103.967 21.26 105.047 21.26C105.981 21.26 106.821 21.4067 107.567 21.7C108.327 21.9933 108.967 22.42 109.487 22.98L108.367 24.1C107.514 23.26 106.434 22.84 105.127 22.84C104.087 22.84 103.201 23.14 102.467 23.74C101.734 24.3267 101.294 25.1 101.147 26.06H106.467V27.48H101.187C101.361 28.4 101.807 29.1467 102.527 29.72C103.247 30.28 104.114 30.56 105.127 30.56C106.421 30.56 107.501 30.1333 108.367 29.28L109.487 30.38C108.967 30.9533 108.327 31.3867 107.567 31.68C106.807 31.9733 105.967 32.12 105.047 32.12ZM116.314 32.12C115.234 32.12 114.267 31.8867 113.414 31.42C112.574 30.9533 111.914 30.3133 111.434 29.5C110.954 28.6733 110.714 27.74 110.714 26.7C110.714 25.66 110.954 24.7333 111.434 23.92C111.914 23.0933 112.574 22.4533 113.414 22C114.267 21.5333 115.234 21.3 116.314 21.3C117.274 21.3 118.127 21.4933 118.874 21.88C119.634 22.2667 120.221 22.8267 120.634 23.56L119.174 24.5C118.841 23.9933 118.427 23.6133 117.934 23.36C117.441 23.1067 116.894 22.98 116.294 22.98C115.601 22.98 114.974 23.1333 114.414 23.44C113.867 23.7467 113.434 24.1867 113.114 24.76C112.807 25.32 112.654 25.9667 112.654 26.7C112.654 27.4467 112.807 28.1067 113.114 28.68C113.434 29.24 113.867 29.6733 114.414 29.98C114.974 30.2867 115.601 30.44 116.294 30.44C116.894 30.44 117.441 30.3133 117.934 30.06C118.427 29.8067 118.841 29.4267 119.174 28.92L120.634 29.84C120.221 30.5733 119.634 31.14 118.874 31.54C118.127 31.9267 117.274 32.12 116.314 32.12ZM130.883 23.08H127.003V32H125.083V23.08H121.203V21.4H130.883V23.08ZM138.466 21.3C139.493 21.3 140.413 21.5267 141.226 21.98C142.04 22.4333 142.673 23.0667 143.126 23.88C143.593 24.6933 143.826 25.6333 143.826 26.7C143.826 27.7667 143.593 28.7133 143.126 29.54C142.673 30.3533 142.04 30.9867 141.226 31.44C140.413 31.8933 139.493 32.12 138.466 32.12C137.706 32.12 137.006 31.9733 136.366 31.68C135.74 31.3867 135.206 30.96 134.766 30.4V35.88H132.846V21.4H134.686V23.08C135.113 22.4933 135.653 22.0533 136.306 21.76C136.96 21.4533 137.68 21.3 138.466 21.3ZM138.306 30.44C138.986 30.44 139.593 30.2867 140.126 29.98C140.673 29.66 141.1 29.22 141.406 28.66C141.726 28.0867 141.886 27.4333 141.886 26.7C141.886 25.9667 141.726 25.32 141.406 24.76C141.1 24.1867 140.673 23.7467 140.126 23.44C139.593 23.1333 138.986 22.98 138.306 22.98C137.64 22.98 137.033 23.14 136.486 23.46C135.953 23.7667 135.526 24.2 135.206 24.76C134.9 25.32 134.746 25.9667 134.746 26.7C134.746 27.4333 134.9 28.0867 135.206 28.66C135.513 29.22 135.94 29.66 136.486 29.98C137.033 30.2867 137.64 30.44 138.306 30.44ZM150.298 21.3C151.765 21.3 152.885 21.66 153.658 22.38C154.445 23.1 154.838 24.1733 154.838 25.6V32H153.018V30.6C152.698 31.0933 152.238 31.4733 151.638 31.74C151.052 31.9933 150.352 32.12 149.538 32.12C148.352 32.12 147.398 31.8333 146.678 31.26C145.972 30.6867 145.618 29.9333 145.618 29C145.618 28.0667 145.958 27.32 146.638 26.76C147.318 26.1867 148.398 25.9 149.878 25.9H152.918V25.52C152.918 24.6933 152.678 24.06 152.198 23.62C151.718 23.18 151.012 22.96 150.078 22.96C149.452 22.96 148.838 23.0667 148.238 23.28C147.638 23.48 147.132 23.7533 146.718 24.1L145.918 22.66C146.465 22.22 147.118 21.8867 147.878 21.66C148.638 21.42 149.445 21.3 150.298 21.3ZM149.858 30.64C150.592 30.64 151.225 30.48 151.758 30.16C152.292 29.8267 152.678 29.36 152.918 28.76V27.28H149.958C148.332 27.28 147.518 27.8267 147.518 28.92C147.518 29.4533 147.725 29.8733 148.138 30.18C148.552 30.4867 149.125 30.64 149.858 30.64ZM169.616 30.32V34.54H167.796V32H158.296V21.4H160.216V30.32H166.016V21.4H167.936V30.32H169.616ZM172.104 21.4H174.024V32H172.104V21.4ZM173.064 19.36C172.691 19.36 172.377 19.24 172.124 19C171.884 18.76 171.764 18.4667 171.764 18.12C171.764 17.7733 171.884 17.48 172.124 17.24C172.377 16.9867 172.691 16.86 173.064 16.86C173.437 16.86 173.744 16.98 173.984 17.22C174.237 17.4467 174.364 17.7333 174.364 18.08C174.364 18.44 174.237 18.7467 173.984 19C173.744 19.24 173.437 19.36 173.064 19.36ZM186.268 21.4V32H184.548V28.64H181.468H181.248L178.928 32H176.868L179.448 28.38C178.648 28.14 178.035 27.7467 177.608 27.2C177.182 26.64 176.968 25.9467 176.968 25.12C176.968 23.9067 177.382 22.9867 178.208 22.36C179.035 21.72 180.175 21.4 181.628 21.4H186.268ZM178.928 25.18C178.928 25.8867 179.148 26.4133 179.588 26.76C180.042 27.0933 180.715 27.26 181.608 27.26H184.548V23.08H181.688C179.848 23.08 178.928 23.78 178.928 25.18Z" fill="#2F80ED"/>
<rect x="7.5" y="7.5" width="259" height="49" stroke="white"/>
</svg>
