<svg width="28" height="28" viewBox="0 0 28 28" fill="none" xmlns="http://www.w3.org/2000/svg">
<path d="M0 0V28H28V0H0ZM22.9091 18.3838C22.6263 19.2323 22.0606 19.798 21.2121 20.0808C19.798 20.5051 13.8586 20.5051 13.8586 20.5051C13.8586 20.5051 8.06061 20.5051 6.50505 20.0808C5.65657 19.798 5.09091 19.2323 4.80808 18.3838C4.38384 16.9697 4.38384 13.8586 4.38384 13.8586C4.38384 13.8586 4.38384 10.8889 4.80808 9.33333C5.09091 8.48485 5.65657 7.91919 6.50505 7.63636C7.91919 7.21212 13.8586 7.21212 13.8586 7.21212C13.8586 7.21212 19.6566 7.21212 21.2121 7.63636C22.0606 7.91919 22.6263 8.48485 22.9091 9.33333C23.3333 10.7475 23.3333 13.8586 23.3333 13.8586C23.3333 13.8586 23.3333 16.9697 22.9091 18.3838Z" fill="#828282"/>
<path d="M12.1621 16.8284L16.9702 14.0002L12.1621 11.1719V16.8284Z" fill="#828282"/>
</svg>
