<svg width="267" height="57" viewBox="0 0 267 57" fill="none" xmlns="http://www.w3.org/2000/svg">
<rect width="260" height="50" fill="#2F80ED"/>
<path d="M49.3195 24.7C50.1995 24.94 50.8861 25.36 51.3795 25.96C51.8728 26.5467 52.1195 27.2533 52.1195 28.08C52.1195 28.9067 51.8528 29.6333 51.3195 30.26C50.7995 30.8733 50.0995 31.3467 49.2195 31.68C48.3528 32 47.4061 32.16 46.3795 32.16C45.4461 32.16 44.5195 32.02 43.5995 31.74C42.6795 31.46 41.8395 31.04 41.0795 30.48L41.7795 29C42.3928 29.48 43.0795 29.84 43.8395 30.08C44.5995 30.32 45.3661 30.44 46.1395 30.44C47.2595 30.44 48.1995 30.2067 48.9595 29.74C49.7195 29.26 50.0995 28.6067 50.0995 27.78C50.0995 27.0733 49.8128 26.5333 49.2395 26.16C48.6661 25.7733 47.8595 25.58 46.8195 25.58H43.6995V23.96H46.6795C47.5728 23.96 48.2661 23.78 48.7595 23.42C49.2661 23.0467 49.5195 22.5333 49.5195 21.88C49.5195 21.1467 49.1928 20.5667 48.5395 20.14C47.8861 19.7133 47.0595 19.5 46.0595 19.5C45.4061 19.5 44.7395 19.5933 44.0595 19.78C43.3928 19.9667 42.7595 20.2467 42.1595 20.62L41.5195 18.98C42.2261 18.58 42.9728 18.28 43.7595 18.08C44.5461 17.88 45.3328 17.78 46.1195 17.78C47.1061 17.78 48.0128 17.9333 48.8395 18.24C49.6661 18.5467 50.3195 18.9933 50.7995 19.58C51.2928 20.1667 51.5395 20.8533 51.5395 21.64C51.5395 22.3467 51.3395 22.9667 50.9395 23.5C50.5528 24.0333 50.0128 24.4333 49.3195 24.7ZM58.9115 21.3C60.3782 21.3 61.4982 21.66 62.2715 22.38C63.0582 23.1 63.4515 24.1733 63.4515 25.6V32H61.6315V30.6C61.3115 31.0933 60.8515 31.4733 60.2515 31.74C59.6648 31.9933 58.9648 32.12 58.1515 32.12C56.9648 32.12 56.0115 31.8333 55.2915 31.26C54.5848 30.6867 54.2315 29.9333 54.2315 29C54.2315 28.0667 54.5715 27.32 55.2515 26.76C55.9315 26.1867 57.0115 25.9 58.4915 25.9H61.5315V25.52C61.5315 24.6933 61.2915 24.06 60.8115 23.62C60.3315 23.18 59.6248 22.96 58.6915 22.96C58.0648 22.96 57.4515 23.0667 56.8515 23.28C56.2515 23.48 55.7448 23.7533 55.3315 24.1L54.5315 22.66C55.0782 22.22 55.7315 21.8867 56.4915 21.66C57.2515 21.42 58.0582 21.3 58.9115 21.3ZM58.4715 30.64C59.2048 30.64 59.8382 30.48 60.3715 30.16C60.9048 29.8267 61.2915 29.36 61.5315 28.76V27.28H58.5715C56.9448 27.28 56.1315 27.8267 56.1315 28.92C56.1315 29.4533 56.3382 29.8733 56.7515 30.18C57.1648 30.4867 57.7382 30.64 58.4715 30.64ZM72.5288 21.3C73.5555 21.3 74.4755 21.5267 75.2888 21.98C76.1022 22.4333 76.7355 23.0667 77.1888 23.88C77.6555 24.6933 77.8888 25.6333 77.8888 26.7C77.8888 27.7667 77.6555 28.7133 77.1888 29.54C76.7355 30.3533 76.1022 30.9867 75.2888 31.44C74.4755 31.8933 73.5555 32.12 72.5288 32.12C71.7688 32.12 71.0688 31.9733 70.4288 31.68C69.8022 31.3867 69.2688 30.96 68.8288 30.4V35.88H66.9088V21.4H68.7488V23.08C69.1755 22.4933 69.7155 22.0533 70.3688 21.76C71.0222 21.4533 71.7422 21.3 72.5288 21.3ZM72.3688 30.44C73.0488 30.44 73.6555 30.2867 74.1888 29.98C74.7355 29.66 75.1622 29.22 75.4688 28.66C75.7888 28.0867 75.9488 27.4333 75.9488 26.7C75.9488 25.9667 75.7888 25.32 75.4688 24.76C75.1622 24.1867 74.7355 23.7467 74.1888 23.44C73.6555 23.1333 73.0488 22.98 72.3688 22.98C71.7022 22.98 71.0955 23.14 70.5488 23.46C70.0155 23.7667 69.5888 24.2 69.2688 24.76C68.9622 25.32 68.8088 25.9667 68.8088 26.7C68.8088 27.4333 68.9622 28.0867 69.2688 28.66C69.5755 29.22 70.0022 29.66 70.5488 29.98C71.0955 30.2867 71.7022 30.44 72.3688 30.44ZM90.2584 26.76C90.2584 26.9067 90.245 27.1 90.2184 27.34H81.6184C81.7384 28.2733 82.145 29.0267 82.8384 29.6C83.545 30.16 84.4184 30.44 85.4584 30.44C86.725 30.44 87.745 30.0133 88.5184 29.16L89.5784 30.4C89.0984 30.96 88.4984 31.3867 87.7784 31.68C87.0717 31.9733 86.2784 32.12 85.3984 32.12C84.2784 32.12 83.285 31.8933 82.4184 31.44C81.5517 30.9733 80.8784 30.3267 80.3984 29.5C79.9317 28.6733 79.6984 27.74 79.6984 26.7C79.6984 25.6733 79.925 24.7467 80.3784 23.92C80.845 23.0933 81.4784 22.4533 82.2784 22C83.0917 21.5333 84.005 21.3 85.0184 21.3C86.0317 21.3 86.9317 21.5333 87.7184 22C88.5184 22.4533 89.1384 23.0933 89.5784 23.92C90.0317 24.7467 90.2584 25.6933 90.2584 26.76ZM85.0184 22.92C84.0984 22.92 83.325 23.2 82.6984 23.76C82.085 24.32 81.725 25.0533 81.6184 25.96H88.4184C88.3117 25.0667 87.945 24.34 87.3184 23.78C86.705 23.2067 85.9384 22.92 85.0184 22.92ZM97.977 32.12C96.897 32.12 95.917 31.8867 95.037 31.42C94.1703 30.9533 93.4903 30.3067 92.997 29.48C92.5036 28.6533 92.257 27.7267 92.257 26.7C92.257 25.66 92.5036 24.7267 92.997 23.9C93.4903 23.0733 94.1703 22.4267 95.037 21.96C95.917 21.4933 96.897 21.26 97.977 21.26C98.9103 21.26 99.7503 21.4067 100.497 21.7C101.257 21.9933 101.897 22.42 102.417 22.98L101.297 24.1C100.444 23.26 99.3636 22.84 98.057 22.84C97.017 22.84 96.1303 23.14 95.397 23.74C94.6636 24.3267 94.2236 25.1 94.077 26.06H99.397V27.48H94.117C94.2903 28.4 94.737 29.1467 95.457 29.72C96.177 30.28 97.0436 30.56 98.057 30.56C99.3503 30.56 100.43 30.1333 101.297 29.28L102.417 30.38C101.897 30.9533 101.257 31.3867 100.497 31.68C99.737 31.9733 98.897 32.12 97.977 32.12ZM109.244 32.12C108.164 32.12 107.197 31.8867 106.344 31.42C105.504 30.9533 104.844 30.3133 104.364 29.5C103.884 28.6733 103.644 27.74 103.644 26.7C103.644 25.66 103.884 24.7333 104.364 23.92C104.844 23.0933 105.504 22.4533 106.344 22C107.197 21.5333 108.164 21.3 109.244 21.3C110.204 21.3 111.057 21.4933 111.804 21.88C112.564 22.2667 113.15 22.8267 113.564 23.56L112.104 24.5C111.77 23.9933 111.357 23.6133 110.864 23.36C110.37 23.1067 109.824 22.98 109.224 22.98C108.53 22.98 107.904 23.1333 107.344 23.44C106.797 23.7467 106.364 24.1867 106.044 24.76C105.737 25.32 105.584 25.9667 105.584 26.7C105.584 27.4467 105.737 28.1067 106.044 28.68C106.364 29.24 106.797 29.6733 107.344 29.98C107.904 30.2867 108.53 30.44 109.224 30.44C109.824 30.44 110.37 30.3133 110.864 30.06C111.357 29.8067 111.77 29.4267 112.104 28.92L113.564 29.84C113.15 30.5733 112.564 31.14 111.804 31.54C111.057 31.9267 110.204 32.12 109.244 32.12ZM123.813 23.08H119.933V32H118.013V23.08H114.133V21.4H123.813V23.08ZM131.396 21.3C132.423 21.3 133.343 21.5267 134.156 21.98C134.969 22.4333 135.603 23.0667 136.056 23.88C136.523 24.6933 136.756 25.6333 136.756 26.7C136.756 27.7667 136.523 28.7133 136.056 29.54C135.603 30.3533 134.969 30.9867 134.156 31.44C133.343 31.8933 132.423 32.12 131.396 32.12C130.636 32.12 129.936 31.9733 129.296 31.68C128.669 31.3867 128.136 30.96 127.696 30.4V35.88H125.776V21.4H127.616V23.08C128.043 22.4933 128.583 22.0533 129.236 21.76C129.889 21.4533 130.609 21.3 131.396 21.3ZM131.236 30.44C131.916 30.44 132.523 30.2867 133.056 29.98C133.603 29.66 134.029 29.22 134.336 28.66C134.656 28.0867 134.816 27.4333 134.816 26.7C134.816 25.9667 134.656 25.32 134.336 24.76C134.029 24.1867 133.603 23.7467 133.056 23.44C132.523 23.1333 131.916 22.98 131.236 22.98C130.569 22.98 129.963 23.14 129.416 23.46C128.883 23.7667 128.456 24.2 128.136 24.76C127.829 25.32 127.676 25.9667 127.676 26.7C127.676 27.4333 127.829 28.0867 128.136 28.66C128.443 29.22 128.869 29.66 129.416 29.98C129.963 30.2867 130.569 30.44 131.236 30.44ZM148.713 21.4L143.573 33.06C143.119 34.14 142.586 34.9 141.973 35.34C141.373 35.78 140.646 36 139.793 36C139.273 36 138.766 35.9133 138.273 35.74C137.793 35.58 137.393 35.34 137.073 35.02L137.893 33.58C138.439 34.1 139.073 34.36 139.793 34.36C140.259 34.36 140.646 34.2333 140.953 33.98C141.273 33.74 141.559 33.32 141.813 32.72L142.153 31.98L137.473 21.4H139.473L143.173 29.88L146.833 21.4H148.713ZM157.898 26.5C159.272 26.8467 159.958 27.7067 159.958 29.08C159.958 30.0133 159.605 30.7333 158.898 31.24C158.205 31.7467 157.165 32 155.778 32H150.678V21.4H155.598C156.852 21.4 157.832 21.64 158.538 22.12C159.245 22.5867 159.598 23.2533 159.598 24.12C159.598 24.68 159.445 25.1667 159.138 25.58C158.845 25.98 158.432 26.2867 157.898 26.5ZM152.558 25.96H155.438C156.172 25.96 156.725 25.8267 157.098 25.56C157.485 25.2933 157.678 24.9067 157.678 24.4C157.678 23.3867 156.932 22.88 155.438 22.88H152.558V25.96ZM155.638 30.52C156.438 30.52 157.038 30.3933 157.438 30.14C157.838 29.8867 158.038 29.4933 158.038 28.96C158.038 28.4133 157.852 28.0067 157.478 27.74C157.118 27.4733 156.545 27.34 155.758 27.34H152.558V30.52H155.638ZM166.744 21.3C168.21 21.3 169.33 21.66 170.104 22.38C170.89 23.1 171.284 24.1733 171.284 25.6V32H169.464V30.6C169.144 31.0933 168.684 31.4733 168.084 31.74C167.497 31.9933 166.797 32.12 165.984 32.12C164.797 32.12 163.844 31.8333 163.124 31.26C162.417 30.6867 162.064 29.9333 162.064 29C162.064 28.0667 162.404 27.32 163.084 26.76C163.764 26.1867 164.844 25.9 166.324 25.9H169.364V25.52C169.364 24.6933 169.124 24.06 168.644 23.62C168.164 23.18 167.457 22.96 166.524 22.96C165.897 22.96 165.284 23.0667 164.684 23.28C164.084 23.48 163.577 23.7533 163.164 24.1L162.364 22.66C162.91 22.22 163.564 21.8867 164.324 21.66C165.084 21.42 165.89 21.3 166.744 21.3ZM166.304 30.64C167.037 30.64 167.67 30.48 168.204 30.16C168.737 29.8267 169.124 29.36 169.364 28.76V27.28H166.404C164.777 27.28 163.964 27.8267 163.964 28.92C163.964 29.4533 164.17 29.8733 164.584 30.18C164.997 30.4867 165.57 30.64 166.304 30.64ZM182.641 23.08H178.761V32H176.841V23.08H172.961V21.4H182.641V23.08ZM184.604 21.4H186.524V29.12L193.024 21.4H194.764V32H192.844V24.28L186.364 32H184.604V21.4ZM203.111 32.12C202.031 32.12 201.064 31.8867 200.211 31.42C199.371 30.9533 198.711 30.3133 198.231 29.5C197.751 28.6733 197.511 27.74 197.511 26.7C197.511 25.66 197.751 24.7333 198.231 23.92C198.711 23.0933 199.371 22.4533 200.211 22C201.064 21.5333 202.031 21.3 203.111 21.3C204.071 21.3 204.924 21.4933 205.671 21.88C206.431 22.2667 207.018 22.8267 207.431 23.56L205.971 24.5C205.638 23.9933 205.224 23.6133 204.731 23.36C204.238 23.1067 203.691 22.98 203.091 22.98C202.398 22.98 201.771 23.1333 201.211 23.44C200.664 23.7467 200.231 24.1867 199.911 24.76C199.604 25.32 199.451 25.9667 199.451 26.7C199.451 27.4467 199.604 28.1067 199.911 28.68C200.231 29.24 200.664 29.6733 201.211 29.98C201.771 30.2867 202.398 30.44 203.091 30.44C203.691 30.44 204.238 30.3133 204.731 30.06C205.224 29.8067 205.638 29.4267 205.971 28.92L207.431 29.84C207.018 30.5733 206.431 31.14 205.671 31.54C204.924 31.9267 204.071 32.12 203.111 32.12ZM214.817 25C216.163 25.0133 217.19 25.32 217.897 25.92C218.603 26.52 218.957 27.3667 218.957 28.46C218.957 29.6067 218.57 30.4933 217.797 31.12C217.037 31.7333 215.943 32.0333 214.517 32.02L209.917 32V21.4H211.837V24.98L214.817 25ZM214.357 30.56C215.223 30.5733 215.877 30.4 216.317 30.04C216.77 29.68 216.997 29.1467 216.997 28.44C216.997 27.7467 216.777 27.24 216.337 26.92C215.91 26.6 215.25 26.4333 214.357 26.42L211.837 26.38V30.54L214.357 30.56Z" fill="white"/>
<rect x="7.5" y="7.5" width="259" height="49" stroke="#2F80ED"/>
</svg>
