<svg width="267" height="57" viewBox="0 0 267 57" fill="none" xmlns="http://www.w3.org/2000/svg">
<rect width="260" height="50" fill="#2F80ED"/>
<path d="M56.5642 18V32H54.6042V19.74H46.4842V32H44.5042V18H56.5642ZM65.15 32.12C64.0967 32.12 63.15 31.8867 62.31 31.42C61.47 30.9533 60.81 30.3133 60.33 29.5C59.8633 28.6733 59.63 27.74 59.63 26.7C59.63 25.66 59.8633 24.7333 60.33 23.92C60.81 23.0933 61.47 22.4533 62.31 22C63.15 21.5333 64.0967 21.3 65.15 21.3C66.2033 21.3 67.1433 21.5333 67.97 22C68.81 22.4533 69.4633 23.0933 69.93 23.92C70.41 24.7333 70.65 25.66 70.65 26.7C70.65 27.74 70.41 28.6733 69.93 29.5C69.4633 30.3133 68.81 30.9533 67.97 31.42C67.1433 31.8867 66.2033 32.12 65.15 32.12ZM65.15 30.44C65.83 30.44 66.4367 30.2867 66.97 29.98C67.5167 29.66 67.9433 29.22 68.25 28.66C68.5567 28.0867 68.71 27.4333 68.71 26.7C68.71 25.9667 68.5567 25.32 68.25 24.76C67.9433 24.1867 67.5167 23.7467 66.97 23.44C66.4367 23.1333 65.83 22.98 65.15 22.98C64.47 22.98 63.8567 23.1333 63.31 23.44C62.7767 23.7467 62.35 24.1867 62.03 24.76C61.7233 25.32 61.57 25.9667 61.57 26.7C61.57 27.4333 61.7233 28.0867 62.03 28.66C62.35 29.22 62.7767 29.66 63.31 29.98C63.8567 30.2867 64.47 30.44 65.15 30.44ZM80.6425 26.5C82.0158 26.8467 82.7025 27.7067 82.7025 29.08C82.7025 30.0133 82.3492 30.7333 81.6425 31.24C80.9492 31.7467 79.9092 32 78.5225 32H73.4225V21.4H78.3425C79.5958 21.4 80.5758 21.64 81.2825 22.12C81.9892 22.5867 82.3425 23.2533 82.3425 24.12C82.3425 24.68 82.1892 25.1667 81.8825 25.58C81.5892 25.98 81.1758 26.2867 80.6425 26.5ZM75.3025 25.96H78.1825C78.9158 25.96 79.4692 25.8267 79.8425 25.56C80.2292 25.2933 80.4225 24.9067 80.4225 24.4C80.4225 23.3867 79.6758 22.88 78.1825 22.88H75.3025V25.96ZM78.3825 30.52C79.1825 30.52 79.7825 30.3933 80.1825 30.14C80.5825 29.8867 80.7825 29.4933 80.7825 28.96C80.7825 28.4133 80.5958 28.0067 80.2225 27.74C79.8625 27.4733 79.2892 27.34 78.5025 27.34H75.3025V30.52H78.3825ZM85.7077 21.4H87.6277V25.9H93.6677V21.4H95.5877V32H93.6677V27.56H87.6277V32H85.7077V21.4ZM103.101 21.3C104.568 21.3 105.688 21.66 106.461 22.38C107.248 23.1 107.641 24.1733 107.641 25.6V32H105.821V30.6C105.501 31.0933 105.041 31.4733 104.441 31.74C103.854 31.9933 103.154 32.12 102.341 32.12C101.154 32.12 100.201 31.8333 99.4809 31.26C98.7743 30.6867 98.4209 29.9333 98.4209 29C98.4209 28.0667 98.7609 27.32 99.4409 26.76C100.121 26.1867 101.201 25.9 102.681 25.9H105.721V25.52C105.721 24.6933 105.481 24.06 105.001 23.62C104.521 23.18 103.814 22.96 102.881 22.96C102.254 22.96 101.641 23.0667 101.041 23.28C100.441 23.48 99.9343 23.7533 99.5209 24.1L98.7209 22.66C99.2676 22.22 99.9209 21.8867 100.681 21.66C101.441 21.42 102.248 21.3 103.101 21.3ZM102.661 30.64C103.394 30.64 104.028 30.48 104.561 30.16C105.094 29.8267 105.481 29.36 105.721 28.76V27.28H102.761C101.134 27.28 100.321 27.8267 100.321 28.92C100.321 29.4533 100.528 29.8733 100.941 30.18C101.354 30.4867 101.928 30.64 102.661 30.64ZM126.289 21.4V32H124.369V23.08H118.389V32H116.469V21.4H126.289ZM135.625 21.3C136.651 21.3 137.571 21.5267 138.385 21.98C139.198 22.4333 139.831 23.0667 140.285 23.88C140.751 24.6933 140.985 25.6333 140.985 26.7C140.985 27.7667 140.751 28.7133 140.285 29.54C139.831 30.3533 139.198 30.9867 138.385 31.44C137.571 31.8933 136.651 32.12 135.625 32.12C134.865 32.12 134.165 31.9733 133.525 31.68C132.898 31.3867 132.365 30.96 131.925 30.4V35.88H130.005V21.4H131.845V23.08C132.271 22.4933 132.811 22.0533 133.465 21.76C134.118 21.4533 134.838 21.3 135.625 21.3ZM135.465 30.44C136.145 30.44 136.751 30.2867 137.285 29.98C137.831 29.66 138.258 29.22 138.565 28.66C138.885 28.0867 139.045 27.4333 139.045 26.7C139.045 25.9667 138.885 25.32 138.565 24.76C138.258 24.1867 137.831 23.7467 137.285 23.44C136.751 23.1333 136.145 22.98 135.465 22.98C134.798 22.98 134.191 23.14 133.645 23.46C133.111 23.7667 132.685 24.2 132.365 24.76C132.058 25.32 131.905 25.9667 131.905 26.7C131.905 27.4333 132.058 28.0867 132.365 28.66C132.671 29.22 133.098 29.66 133.645 29.98C134.191 30.2867 134.798 30.44 135.465 30.44ZM148.314 32.12C147.261 32.12 146.314 31.8867 145.474 31.42C144.634 30.9533 143.974 30.3133 143.494 29.5C143.027 28.6733 142.794 27.74 142.794 26.7C142.794 25.66 143.027 24.7333 143.494 23.92C143.974 23.0933 144.634 22.4533 145.474 22C146.314 21.5333 147.261 21.3 148.314 21.3C149.367 21.3 150.307 21.5333 151.134 22C151.974 22.4533 152.627 23.0933 153.094 23.92C153.574 24.7333 153.814 25.66 153.814 26.7C153.814 27.74 153.574 28.6733 153.094 29.5C152.627 30.3133 151.974 30.9533 151.134 31.42C150.307 31.8867 149.367 32.12 148.314 32.12ZM148.314 30.44C148.994 30.44 149.601 30.2867 150.134 29.98C150.681 29.66 151.107 29.22 151.414 28.66C151.721 28.0867 151.874 27.4333 151.874 26.7C151.874 25.9667 151.721 25.32 151.414 24.76C151.107 24.1867 150.681 23.7467 150.134 23.44C149.601 23.1333 148.994 22.98 148.314 22.98C147.634 22.98 147.021 23.1333 146.474 23.44C145.941 23.7467 145.514 24.1867 145.194 24.76C144.887 25.32 144.734 25.9667 144.734 26.7C144.734 27.4333 144.887 28.0867 145.194 28.66C145.514 29.22 145.941 29.66 146.474 29.98C147.021 30.2867 147.634 30.44 148.314 30.44ZM164.387 23.08H158.507V32H156.587V21.4H164.387V23.08ZM171.972 21.3C172.999 21.3 173.919 21.5267 174.732 21.98C175.546 22.4333 176.179 23.0667 176.632 23.88C177.099 24.6933 177.332 25.6333 177.332 26.7C177.332 27.7667 177.099 28.7133 176.632 29.54C176.179 30.3533 175.546 30.9867 174.732 31.44C173.919 31.8933 172.999 32.12 171.972 32.12C171.212 32.12 170.512 31.9733 169.872 31.68C169.246 31.3867 168.712 30.96 168.272 30.4V35.88H166.352V21.4H168.192V23.08C168.619 22.4933 169.159 22.0533 169.812 21.76C170.466 21.4533 171.186 21.3 171.972 21.3ZM171.812 30.44C172.492 30.44 173.099 30.2867 173.632 29.98C174.179 29.66 174.606 29.22 174.912 28.66C175.232 28.0867 175.392 27.4333 175.392 26.7C175.392 25.9667 175.232 25.32 174.912 24.76C174.606 24.1867 174.179 23.7467 173.632 23.44C173.099 23.1333 172.492 22.98 171.812 22.98C171.146 22.98 170.539 23.14 169.992 23.46C169.459 23.7667 169.032 24.2 168.712 24.76C168.406 25.32 168.252 25.9667 168.252 26.7C168.252 27.4333 168.406 28.0867 168.712 28.66C169.019 29.22 169.446 29.66 169.992 29.98C170.539 30.2867 171.146 30.44 171.812 30.44ZM183.804 21.3C185.271 21.3 186.391 21.66 187.164 22.38C187.951 23.1 188.344 24.1733 188.344 25.6V32H186.524V30.6C186.204 31.0933 185.744 31.4733 185.144 31.74C184.557 31.9933 183.857 32.12 183.044 32.12C181.857 32.12 180.904 31.8333 180.184 31.26C179.477 30.6867 179.124 29.9333 179.124 29C179.124 28.0667 179.464 27.32 180.144 26.76C180.824 26.1867 181.904 25.9 183.384 25.9H186.424V25.52C186.424 24.6933 186.184 24.06 185.704 23.62C185.224 23.18 184.517 22.96 183.584 22.96C182.957 22.96 182.344 23.0667 181.744 23.28C181.144 23.48 180.637 23.7533 180.224 24.1L179.424 22.66C179.971 22.22 180.624 21.8867 181.384 21.66C182.144 21.42 182.951 21.3 183.804 21.3ZM183.364 30.64C184.097 30.64 184.731 30.48 185.264 30.16C185.797 29.8267 186.184 29.36 186.424 28.76V27.28H183.464C181.837 27.28 181.024 27.8267 181.024 28.92C181.024 29.4533 181.231 29.8733 181.644 30.18C182.057 30.4867 182.631 30.64 183.364 30.64ZM204.021 21.4V32H202.281V24.26L198.321 30.8H197.481L193.561 24.24V32H191.801V21.4H193.781L197.941 28.56L202.221 21.4H204.021ZM211.538 21.3C213.005 21.3 214.125 21.66 214.898 22.38C215.685 23.1 216.078 24.1733 216.078 25.6V32H214.258V30.6C213.938 31.0933 213.478 31.4733 212.878 31.74C212.292 31.9933 211.592 32.12 210.778 32.12C209.592 32.12 208.638 31.8333 207.918 31.26C207.212 30.6867 206.858 29.9333 206.858 29C206.858 28.0667 207.198 27.32 207.878 26.76C208.558 26.1867 209.638 25.9 211.118 25.9H214.158V25.52C214.158 24.6933 213.918 24.06 213.438 23.62C212.958 23.18 212.252 22.96 211.318 22.96C210.692 22.96 210.078 23.0667 209.478 23.28C208.878 23.48 208.372 23.7533 207.958 24.1L207.158 22.66C207.705 22.22 208.358 21.8867 209.118 21.66C209.878 21.42 210.685 21.3 211.538 21.3ZM211.098 30.64C211.832 30.64 212.465 30.48 212.998 30.16C213.532 29.8267 213.918 29.36 214.158 28.76V27.28H211.198C209.572 27.28 208.758 27.8267 208.758 28.92C208.758 29.4533 208.965 29.8733 209.378 30.18C209.792 30.4867 210.365 30.64 211.098 30.64Z" fill="white"/>
<rect x="7.5" y="7.5" width="259" height="49" stroke="#2F80ED"/>
</svg>
