<svg width="220" height="34" viewBox="0 0 220 34" fill="none" xmlns="http://www.w3.org/2000/svg">
<path d="M49.648 18.072H47.312V23H45.744V11.8H47.312V16.664H49.68L53.2 11.8H54.912L50.912 17.224L55.104 23H53.28L49.648 18.072ZM61.7528 23.128C60.6221 23.128 59.6034 22.8827 58.6968 22.392C57.7901 21.8907 57.0754 21.2027 56.5528 20.328C56.0408 19.4533 55.7848 18.4773 55.7848 17.4C55.7848 16.3227 56.0408 15.3467 56.5528 14.472C57.0754 13.5973 57.7901 12.9147 58.6968 12.424C59.6034 11.9227 60.6221 11.672 61.7528 11.672C62.8728 11.672 63.8861 11.9227 64.7928 12.424C65.6994 12.9147 66.4088 13.5973 66.9208 14.472C67.4328 15.336 67.6888 16.312 67.6888 17.4C67.6888 18.488 67.4328 19.4693 66.9208 20.344C66.4088 21.208 65.6994 21.8907 64.7928 22.392C63.8861 22.8827 62.8728 23.128 61.7528 23.128ZM61.7528 21.704C62.5741 21.704 63.3101 21.5173 63.9608 21.144C64.6221 20.7707 65.1394 20.2587 65.5128 19.608C65.8968 18.9467 66.0888 18.2107 66.0888 17.4C66.0888 16.5893 65.8968 15.8587 65.5128 15.208C65.1394 14.5467 64.6221 14.0293 63.9608 13.656C63.3101 13.2827 62.5741 13.096 61.7528 13.096C60.9314 13.096 60.1848 13.2827 59.5128 13.656C58.8514 14.0293 58.3288 14.5467 57.9448 15.208C57.5714 15.8587 57.3848 16.5893 57.3848 17.4C57.3848 18.2107 57.5714 18.9467 57.9448 19.608C58.3288 20.2587 58.8514 20.7707 59.5128 21.144C60.1848 21.5173 60.9314 21.704 61.7528 21.704ZM79.9073 11.8V23H78.3073V18.008H71.8753V23H70.2753V11.8H71.8753V16.616H78.3073V11.8H79.9073ZM90.7283 13.192H84.9683L84.9843 23H83.4003V11.8H90.7443L90.7283 13.192ZM97.0183 11.8C98.4689 11.8 99.6103 12.1467 100.442 12.84C101.274 13.5333 101.69 14.488 101.69 15.704C101.69 16.92 101.274 17.8747 100.442 18.568C99.6103 19.2613 98.4689 19.608 97.0183 19.608H94.2503V23H92.6503V11.8H97.0183ZM96.9703 18.216C97.9836 18.216 98.7569 18.0027 99.2903 17.576C99.8236 17.1387 100.09 16.5147 100.09 15.704C100.09 14.8933 99.8236 14.2747 99.2903 13.848C98.7569 13.4107 97.9836 13.192 96.9703 13.192H94.2503V18.216H96.9703ZM112.044 21.608V23H103.916V11.8H111.82V13.192H105.516V16.632H111.132V17.992H105.516V21.608H112.044ZM119.518 23.128C118.398 23.128 117.384 22.8827 116.478 22.392C115.582 21.8907 114.878 21.208 114.366 20.344C113.854 19.4693 113.598 18.488 113.598 17.4C113.598 16.312 113.854 15.336 114.366 14.472C114.878 13.5973 115.587 12.9147 116.494 12.424C117.4 11.9227 118.414 11.672 119.534 11.672C120.408 11.672 121.208 11.8213 121.934 12.12C122.659 12.408 123.278 12.84 123.79 13.416L122.75 14.424C121.907 13.5387 120.856 13.096 119.598 13.096C118.766 13.096 118.014 13.2827 117.342 13.656C116.67 14.0293 116.142 14.5467 115.758 15.208C115.384 15.8587 115.198 16.5893 115.198 17.4C115.198 18.2107 115.384 18.9467 115.758 19.608C116.142 20.2587 116.67 20.7707 117.342 21.144C118.014 21.5173 118.766 21.704 119.598 21.704C120.846 21.704 121.896 21.256 122.75 20.36L123.79 21.368C123.278 21.944 122.654 22.3813 121.918 22.68C121.192 22.9787 120.392 23.128 119.518 23.128ZM139.939 11.8V23H138.371V13.192H131.875V23H130.291V11.8H139.939ZM151.56 21.608V23H143.432V11.8H151.336V13.192H145.032V16.632H150.648V17.992H145.032V21.608H151.56ZM164.744 21.608V25.448H163.256V23H154.04L154.024 25.448H152.536L152.552 21.608H153.096C153.8 21.5653 154.296 21.0107 154.584 19.944C154.872 18.8667 155.048 17.352 155.112 15.4L155.224 11.8H163.096V21.608H164.744ZM156.52 15.544C156.467 17.1227 156.339 18.4293 156.136 19.464C155.944 20.4987 155.629 21.2133 155.192 21.608H161.512V13.192H156.6L156.52 15.544ZM166.932 11.8H168.516V23H166.932V11.8ZM179.29 20.2H173.338L172.106 23H170.458L175.53 11.8H177.114L182.202 23H180.522L179.29 20.2ZM178.73 18.92L176.314 13.432L173.898 18.92H178.73ZM191.268 13.192H187.428V23H185.86V13.192H182.036V11.8H191.268V13.192ZM197.581 11.8C199.031 11.8 200.173 12.1467 201.005 12.84C201.837 13.5333 202.253 14.488 202.253 15.704C202.253 16.92 201.837 17.8747 201.005 18.568C200.173 19.2613 199.031 19.608 197.581 19.608H194.813V23H193.213V11.8H197.581ZM197.533 18.216C198.546 18.216 199.319 18.0027 199.853 17.576C200.386 17.1387 200.653 16.5147 200.653 15.704C200.653 14.8933 200.386 14.2747 199.853 13.848C199.319 13.4107 198.546 13.192 197.533 13.192H194.813V18.216H197.533ZM204.478 11.8H206.062V23H204.478V11.8ZM216.533 17.192C217.29 17.3733 217.861 17.6987 218.245 18.168C218.639 18.6267 218.837 19.2187 218.837 19.944C218.837 20.9147 218.479 21.6667 217.765 22.2C217.061 22.7333 216.031 23 214.677 23H209.557V11.8H214.373C215.599 11.8 216.554 12.0507 217.237 12.552C217.93 13.0427 218.277 13.752 218.277 14.68C218.277 15.288 218.122 15.8053 217.812 16.232C217.514 16.6587 217.087 16.9787 216.533 17.192ZM211.141 16.728H214.261C215.039 16.728 215.631 16.5733 216.036 16.264C216.453 15.9547 216.661 15.5013 216.661 14.904C216.661 14.3067 216.453 13.8533 216.036 13.544C215.621 13.224 215.029 13.064 214.261 13.064H211.141V16.728ZM214.645 21.736C216.362 21.736 217.22 21.096 217.22 19.816C217.22 19.176 217.002 18.7067 216.565 18.408C216.138 18.0987 215.498 17.944 214.645 17.944H211.141V21.736H214.645Z" fill="#0089CF"/>
<path d="M16.969 0C7.61749 0 0 7.74919 0 17.2624C0 20.1605 0.681239 22.9325 1.98179 25.3266C2.04372 25.3896 2.10565 25.5156 2.10565 25.5786C4.45902 29.7997 10.4044 31.2487 12.0146 27.9727C13.6867 24.6336 9.10382 21.7985 9.10382 21.7985C9.10382 21.7985 13.377 22.9956 16.7213 19.2785C20.0656 15.5614 19.8179 12.5373 22.6667 12.9153C25.4536 13.2933 24.5246 17.1994 23.6576 18.9635C22.7905 20.6645 22.0474 20.7905 24.3388 21.9245C26.6302 23.0586 29.6029 22.1135 29.7268 22.9326C29.8506 23.7516 26.2587 25.3896 22.1712 25.7676C18.0219 26.1456 14.7395 24.8856 13.9344 29.0437C13.1293 33.2018 18.765 34.7768 22.1712 33.6428C22.1712 33.6428 22.1712 33.6428 22.2332 33.6428C29.0455 31.4378 34 24.8856 34 17.2624C33.8761 7.74919 26.3206 0 16.969 0ZM10.3424 20.7905C6.93625 20.7905 4.14936 17.9554 4.14936 14.4903C4.14936 11.0253 6.93625 8.1902 10.3424 8.1902C13.7486 8.1902 16.5355 11.0253 16.5355 14.4903C16.5355 17.9554 13.7486 20.7905 10.3424 20.7905Z" fill="#0089CF"/>
</svg>
