<svg width="34" height="34" viewBox="0 0 34 34" fill="none" xmlns="http://www.w3.org/2000/svg">
<rect opacity="0.3" x="-0.5" y="0.5" width="33" height="33" transform="matrix(-1 0 0 1 33 0)" stroke="#636363"/>
<path d="M8.64645 17.3536C8.45119 17.1583 8.45119 16.8417 8.64645 16.6464L11.8284 13.4645C12.0237 13.2692 12.3403 13.2692 12.5355 13.4645C12.7308 13.6597 12.7308 13.9763 12.5355 14.1716L9.70711 17L12.5355 19.8284C12.7308 20.0237 12.7308 20.3403 12.5355 20.5355C12.3403 20.7308 12.0237 20.7308 11.8284 20.5355L8.64645 17.3536ZM25 17.5L9 17.5L9 16.5L25 16.5L25 17.5Z" fill="#636363"/>
</svg>
