<svg width="40" height="40" viewBox="0 0 40 40" fill="none" xmlns="http://www.w3.org/2000/svg">
<circle cx="20" cy="20" r="19.5" stroke="#E10F5C"/>
<path d="M27.5254 22.775V27H12.5254V26.7C12.5254 25.9167 12.6254 25.2 12.8254 24.55C13.0421 23.8833 13.3587 23.275 13.7754 22.725C14.1921 22.175 14.6421 21.6917 15.1254 21.275C15.6087 20.8583 16.1837 20.4167 16.8504 19.95C17.4171 19.55 18.0337 19.1583 18.7004 18.775C19.3671 18.375 19.8837 18.075 20.2504 17.875C20.6171 17.6583 20.9671 17.425 21.3004 17.175C21.6504 16.9083 21.8921 16.65 22.0254 16.4C22.1587 16.1333 22.2254 15.825 22.2254 15.475C22.2087 14.9417 22.0087 14.525 21.6254 14.225C21.2587 13.9083 20.7587 13.75 20.1254 13.75C19.1587 13.75 18.4921 14.0333 18.1254 14.6C17.7754 15.1667 17.5754 15.95 17.5254 16.95H12.8504V16.7C12.8504 14.35 13.4837 12.5667 14.7504 11.35C16.0171 10.1167 17.8754 9.5 20.3254 9.5C22.4087 9.5 24.0754 10.0083 25.3254 11.025C26.5754 12.025 27.2004 13.3583 27.2004 15.025C27.2004 15.725 27.1087 16.35 26.9254 16.9C26.7587 17.45 26.4671 17.95 26.0504 18.4C25.6337 18.8333 25.2421 19.1917 24.8754 19.475C24.5254 19.7583 24.0171 20.1167 23.3504 20.55C23.0004 20.7833 22.3504 21.1667 21.4004 21.7C20.4671 22.2333 19.7671 22.675 19.3004 23.025C20.7837 22.875 22.0671 22.8 23.1504 22.8L27.5254 22.775Z" fill="#E10F5C"/>
</svg>
