<svg width="386" height="386" viewBox="0 0 386 386" fill="none" xmlns="http://www.w3.org/2000/svg">
<path d="M281 143.992C281 143.992 317.551 134.736 323.877 96.288C323.877 96.288 330.906 58.552 340.043 62.824C349.181 67.096 354.101 73.504 363.942 79.2C373.783 84.896 384.326 92.728 373.08 111.952C361.833 131.176 333.014 158.944 343.558 188.136C354.101 217.328 380.109 252.216 378 275C375.891 297.784 366.754 327.688 353.399 363.288C353.399 363.288 375.188 283.544 355.507 254.352C336.529 224.448 325.986 215.904 325.986 215.904C325.986 215.904 301.384 190.272 325.283 158.232C351.29 123.344 360.428 105.544 356.913 97C353.399 86.32 342.855 77.064 337.232 88.456C332.312 100.56 324.58 132.6 281 143.992Z" fill="#941F89"/>
<path d="M341.449 8.71258C349.884 5.86458 360.428 12.9846 364.645 25.8006C368.862 37.9046 365.348 50.7206 356.913 53.5686C348.478 56.4166 338.638 48.5846 333.717 36.4806C329.5 24.3766 333.014 11.5606 341.449 8.71258Z" fill="#941F89"/>
<g style="mix-blend-mode:multiply">
<circle cx="193" cy="193" r="193" fill="#5A5A5A"/>
</g>
<path d="M102.008 317.28H96.128V316.2H109.376V317.28H103.496V333H102.008V317.28ZM123.74 326.544C123.74 328.672 123.196 330.32 122.108 331.488C121.036 332.656 119.58 333.24 117.74 333.24C116.604 333.24 115.588 332.984 114.692 332.472C113.812 331.944 113.116 331.184 112.604 330.192C112.092 329.184 111.836 327.968 111.836 326.544C111.836 324.416 112.372 322.776 113.444 321.624C114.516 320.472 115.972 319.896 117.812 319.896C118.98 319.896 120.004 320.16 120.884 320.688C121.78 321.2 122.476 321.952 122.972 322.944C123.484 323.92 123.74 325.12 123.74 326.544ZM117.764 321.672C116.58 321.672 115.692 322 115.1 322.656C114.508 323.296 114.156 324.248 114.044 325.512H121.532C121.42 324.248 121.052 323.296 120.428 322.656C119.82 322 118.932 321.672 117.764 321.672ZM117.788 331.488C119.02 331.488 119.932 331.128 120.524 330.408C121.116 329.688 121.452 328.64 121.532 327.264H114.02C114.1 328.64 114.444 329.688 115.052 330.408C115.66 331.128 116.572 331.488 117.788 331.488ZM128.383 333H126.991V321H128.959L133.615 331.392L138.247 321H140.239V333H138.847V322.8L134.263 333H132.967L128.383 322.8V333ZM149.308 320.928C150.844 320.928 152.076 321.48 153.004 322.584C153.948 323.672 154.38 325.264 154.3 327.36H145.06C145.076 328.816 145.468 329.968 146.236 330.816C147.004 331.648 148.02 332.064 149.284 332.064C150.308 332.064 151.148 331.808 151.804 331.296C152.476 330.784 152.812 330.12 152.812 329.304H154.204C154.204 330.44 153.74 331.352 152.812 332.04C151.916 332.728 150.748 333.072 149.308 333.072C147.58 333.072 146.188 332.536 145.132 331.464C144.092 330.376 143.572 328.888 143.572 327C143.572 325.096 144.084 323.608 145.108 322.536C146.132 321.464 147.532 320.928 149.308 320.928ZM149.284 321.936C148.036 321.936 147.02 322.344 146.236 323.16C145.452 323.96 145.06 325.04 145.06 326.4H152.86C152.86 325.04 152.524 323.96 151.852 323.16C151.196 322.344 150.34 321.936 149.284 321.936ZM167.818 333H166.378V327.384H159.298V333H157.858V321H159.298V326.376H166.378V321H167.818V333ZM172.141 336.6H170.797V332.016H171.157C171.717 332.016 172.149 331.928 172.453 331.752C172.757 331.56 173.029 331.128 173.269 330.456C173.749 328.824 173.989 325.672 173.989 321H182.293V332.016H184.357V336.624H183.013V333H172.141V336.6ZM180.829 322.008H175.333C175.333 325.144 175.213 327.472 174.973 328.992C174.733 330.512 174.349 331.52 173.821 332.016H180.829V322.008ZM192.105 320.928C193.641 320.928 194.873 321.48 195.801 322.584C196.745 323.672 197.177 325.264 197.097 327.36H187.857C187.873 328.816 188.265 329.968 189.033 330.816C189.801 331.648 190.817 332.064 192.081 332.064C193.105 332.064 193.945 331.808 194.601 331.296C195.273 330.784 195.609 330.12 195.609 329.304H197.001C197.001 330.44 196.537 331.352 195.609 332.04C194.713 332.728 193.545 333.072 192.105 333.072C190.377 333.072 188.985 332.536 187.929 331.464C186.889 330.376 186.369 328.888 186.369 327C186.369 325.096 186.881 323.608 187.905 322.536C188.929 321.464 190.329 320.928 192.105 320.928ZM192.081 321.936C190.833 321.936 189.817 322.344 189.033 323.16C188.249 323.96 187.857 325.04 187.857 326.4H195.657C195.657 325.04 195.321 323.96 194.649 323.16C193.993 322.344 193.137 321.936 192.081 321.936ZM211.37 320.928C213.082 320.928 214.458 321.472 215.498 322.56C216.554 323.648 217.082 325.128 217.082 327C217.082 328.888 216.554 330.376 215.498 331.464C214.474 332.536 213.098 333.072 211.37 333.072C209.642 333.072 208.25 332.536 207.194 331.464C206.154 330.376 205.634 328.888 205.634 327C205.634 325.128 206.154 323.648 207.194 322.56C208.25 321.472 209.642 320.928 211.37 320.928ZM211.37 332.064C212.666 332.064 213.698 331.616 214.466 330.72C215.234 329.808 215.618 328.568 215.618 327C215.618 325.432 215.234 324.2 214.466 323.304C213.698 322.392 212.666 321.936 211.37 321.936C210.058 321.936 209.018 322.392 208.25 323.304C207.482 324.2 207.098 325.432 207.098 327C207.098 328.568 207.482 329.808 208.25 330.72C209.018 331.616 210.058 332.064 211.37 332.064ZM229.461 337.464V333H228.429L222.621 326.472V333H220.509V320.136H222.621V326.376L228.117 320.136H230.421L224.925 326.328L229.317 331.224H231.477V337.464H229.461ZM238.308 333H233.772V321H235.212V325.776H238.308C239.668 325.776 240.756 326.104 241.572 326.76C242.388 327.4 242.796 328.272 242.796 329.376C242.796 330.496 242.388 331.384 241.572 332.04C240.756 332.68 239.668 333 238.308 333ZM235.212 326.76V331.992H238.188C239.164 331.992 239.94 331.76 240.516 331.296C241.092 330.832 241.38 330.192 241.38 329.376C241.38 328.56 241.092 327.92 240.516 327.456C239.94 326.992 239.164 326.76 238.188 326.76H235.212ZM246.612 333H245.148V321H246.612V333ZM261.619 337.44V333H259.699V327.264H252.715V333H250.603V320.136H252.715V325.488H259.699V320.136H261.811V331.224H263.707V337.44H261.619ZM270.816 333H266.28V321H267.72V325.776H270.816C272.176 325.776 273.264 326.104 274.08 326.76C274.896 327.4 275.304 328.272 275.304 329.376C275.304 330.496 274.896 331.384 274.08 332.04C273.264 332.68 272.176 333 270.816 333ZM267.72 326.76V331.992H270.696C271.672 331.992 272.448 331.76 273.024 331.296C273.6 330.832 273.888 330.192 273.888 329.376C273.888 328.56 273.6 327.92 273.024 327.456C272.448 326.992 271.672 326.76 270.696 326.76H267.72ZM279.12 333H277.656V321H279.12V333ZM287.43 332.064C288.454 332.064 289.27 331.848 289.878 331.416C290.486 330.984 290.79 330.392 290.79 329.64C290.79 328.92 290.502 328.352 289.926 327.936C289.35 327.504 288.574 327.288 287.598 327.288H285.51V326.352H287.574C288.374 326.352 289.014 326.16 289.494 325.776C289.99 325.376 290.238 324.84 290.238 324.168C290.238 323.48 289.966 322.936 289.422 322.536C288.894 322.136 288.19 321.936 287.31 321.936C286.35 321.936 285.55 322.168 284.91 322.632C284.286 323.096 283.974 323.688 283.974 324.408H282.702C282.702 323.384 283.142 322.552 284.022 321.912C284.918 321.256 286.046 320.928 287.406 320.928C288.67 320.928 289.686 321.208 290.454 321.768C291.238 322.328 291.63 323.088 291.63 324.048C291.63 324.672 291.462 325.224 291.126 325.704C290.806 326.184 290.358 326.536 289.782 326.76C290.55 327 291.142 327.384 291.558 327.912C291.99 328.424 292.206 329.04 292.206 329.76C292.206 330.784 291.774 331.592 290.91 332.184C290.062 332.776 288.934 333.072 287.526 333.072C286.102 333.072 284.942 332.752 284.046 332.112C283.15 331.456 282.702 330.616 282.702 329.592H283.998C283.998 330.328 284.318 330.928 284.958 331.392C285.598 331.84 286.422 332.064 287.43 332.064Z" fill="white"/>
<path d="M111.86 147H91.744L76.704 121.244L70.876 128.012V147H51.606V81.2H70.876V104.888L88.36 81.2H109.698L87.608 107.802L111.86 147ZM176.937 147H157.667V93.42H144.225C144.225 105.953 143.755 115.823 142.815 123.03C141.875 130.237 140.246 135.563 137.927 139.01C136.611 140.953 135.264 142.457 133.885 143.522C132.569 144.587 130.877 145.465 128.809 146.154C125.425 147.157 120.757 147.658 114.803 147.658V135.25C116.558 135.313 117.968 135.093 119.033 134.592C120.099 134.028 121.07 132.743 121.947 130.738C124.517 124.534 125.801 108.021 125.801 81.2H176.937V147ZM244.93 147H226.6V111.186L204.416 147H186.18V81.2H204.416V117.014L226.6 81.2H244.93V147ZM69.842 212H51.606V146.2H81.404L92.59 190.38L103.964 146.2H133.856V212H115.526V165.282L102.272 212H82.908L69.842 165.282V212ZM158.452 212H139.37L160.52 146.2H182.61L203.572 212H184.584L180.918 199.78H162.024L158.452 212ZM178.286 187.466L171.612 161.24L164.844 187.466H178.286ZM269.292 212H249.176L234.136 186.244L228.308 193.012V212H209.038V146.2H228.308V169.888L245.792 146.2H267.13L245.04 172.802L269.292 212ZM300.696 157.95C296.497 157.95 293.27 159.767 291.014 163.402C288.82 166.974 287.724 172.207 287.724 179.1C287.724 185.993 288.82 191.257 291.014 194.892C293.27 198.464 296.497 200.25 300.696 200.25C307.652 200.25 311.13 196.271 311.13 188.312H329.836C329.836 195.895 327.235 201.848 322.034 206.172C316.895 210.496 309.97 212.658 301.26 212.658C291.421 212.658 283.462 209.681 277.384 203.728C271.43 197.649 268.454 189.44 268.454 179.1C268.454 168.697 271.43 160.519 277.384 154.566C283.4 148.55 291.358 145.542 301.26 145.542C309.97 145.542 316.895 147.704 322.034 152.028C327.235 156.352 329.836 162.305 329.836 169.888H311.13C311.13 161.929 307.652 157.95 300.696 157.95Z" fill="white"/>
<path d="M52.836 239.63C52.836 236.275 53.312 233.601 54.264 231.606C54.672 230.767 55.2047 230.053 55.862 229.464C56.9047 228.512 58.1853 227.798 59.704 227.322C59.9307 227.231 60.928 226.971 62.696 226.54C63.6933 226.2 64.3507 225.724 64.668 225.112H66.844C66.5947 225.815 66.334 226.347 66.062 226.71C65.79 227.073 65.3707 227.379 64.804 227.628L63.784 228.07C63.648 228.138 63.206 228.285 62.458 228.512L61.166 228.886C60.282 229.158 59.5793 229.43 59.058 229.702C58.5593 229.951 58.0267 230.325 57.46 230.824C56.3493 231.799 55.7033 233.533 55.522 236.026C56.7913 233.918 58.718 232.864 61.302 232.864C63.5687 232.864 65.382 233.646 66.742 235.21C68.1247 236.751 68.816 238.848 68.816 241.5C68.816 244.175 68.0793 246.283 66.606 247.824C65.1327 249.365 63.1947 250.136 60.792 250.136C58.2307 250.136 56.2587 249.275 54.876 247.552C53.516 245.807 52.836 243.166 52.836 239.63ZM57.018 246.464C57.9473 247.665 59.2053 248.266 60.792 248.266C62.3787 248.266 63.6367 247.665 64.566 246.464C65.518 245.263 65.994 243.608 65.994 241.5C65.994 239.392 65.518 237.737 64.566 236.536C63.6367 235.335 62.3787 234.734 60.792 234.734C59.2053 234.734 57.9473 235.335 57.018 236.536C56.1113 237.737 55.658 239.392 55.658 241.5C55.658 243.608 56.1113 245.263 57.018 246.464ZM80.6198 232.864C82.9092 232.864 84.7112 233.657 86.0258 235.244C87.3858 236.831 87.9978 239.143 87.8618 242.18H75.2138C75.2365 244.061 75.7352 245.546 76.7098 246.634C77.6845 247.722 78.9765 248.266 80.5858 248.266C81.8778 248.266 82.9432 247.937 83.7818 247.28C84.6205 246.623 85.0398 245.761 85.0398 244.696H87.7598C87.7598 246.328 87.0912 247.643 85.7538 248.64C84.4165 249.637 82.7052 250.136 80.6198 250.136C78.1492 250.136 76.1432 249.365 74.6018 247.824C73.1058 246.283 72.3578 244.175 72.3578 241.5C72.3578 238.825 73.1058 236.717 74.6018 235.176C76.0978 233.635 78.1038 232.864 80.6198 232.864ZM80.5858 234.734C78.9992 234.734 77.7072 235.255 76.7098 236.298C75.7352 237.341 75.2478 238.735 75.2478 240.48H85.0738C85.0738 238.712 84.6545 237.318 83.8158 236.298C82.9998 235.255 81.9232 234.734 80.5858 234.734ZM106.059 250H103.237V234.836H96.4708C96.4708 241.296 95.9834 245.625 95.0088 247.824C94.7368 248.481 94.3288 248.98 93.7848 249.32C92.9234 249.864 91.6994 250.136 90.1128 250.136V248.266C90.6794 248.266 91.1214 248.209 91.4388 248.096C91.7788 247.96 92.1301 247.631 92.4928 247.11C92.8554 246.566 93.1161 245.761 93.2748 244.696C93.4561 243.608 93.6034 242.112 93.7167 240.208C93.8301 238.281 93.8868 235.879 93.8868 233H106.059V250ZM111.023 233H122.379V234.836H113.845V250H111.023V233ZM129.085 229.872H126.263V226.2H129.085V229.872ZM129.085 250H126.263V233H129.085V250ZM148.957 250H146.135V234.836H139.369C139.369 241.296 138.882 245.625 137.907 247.824C137.635 248.481 137.227 248.98 136.683 249.32C135.822 249.864 134.598 250.136 133.011 250.136V248.266C133.578 248.266 134.02 248.209 134.337 248.096C134.677 247.96 135.029 247.631 135.391 247.11C135.754 246.566 136.015 245.761 136.173 244.696C136.355 243.608 136.502 242.112 136.615 240.208C136.729 238.281 136.785 235.879 136.785 233H148.957V250ZM161.469 232.864C163.759 232.864 165.561 233.657 166.875 235.244C168.235 236.831 168.847 239.143 168.711 242.18H156.063C156.086 244.061 156.585 245.546 157.559 246.634C158.534 247.722 159.826 248.266 161.435 248.266C162.727 248.266 163.793 247.937 164.631 247.28C165.47 246.623 165.889 245.761 165.889 244.696H168.609C168.609 246.328 167.941 247.643 166.603 248.64C165.266 249.637 163.555 250.136 161.469 250.136C158.999 250.136 156.993 249.365 155.451 247.824C153.955 246.283 153.207 244.175 153.207 241.5C153.207 238.825 153.955 236.717 155.451 235.176C156.947 233.635 158.953 232.864 161.469 232.864ZM161.435 234.734C159.849 234.734 158.557 235.255 157.559 236.298C156.585 237.341 156.097 238.735 156.097 240.48H165.923C165.923 238.712 165.504 237.318 164.665 236.298C163.849 235.255 162.773 234.734 161.435 234.734ZM176.068 257.31H173.246V233H175.898L176.068 236.332C177.224 234.02 179.094 232.864 181.678 232.864C183.922 232.864 185.746 233.635 187.152 235.176C188.557 236.717 189.26 238.825 189.26 241.5C189.26 244.175 188.557 246.283 187.152 247.824C185.746 249.365 183.922 250.136 181.678 250.136C179.094 250.136 177.224 249.048 176.068 246.872V257.31ZM181.1 248.266C182.732 248.266 184.024 247.665 184.976 246.464C185.95 245.263 186.438 243.608 186.438 241.5C186.438 239.392 185.95 237.737 184.976 236.536C184.024 235.335 182.732 234.734 181.1 234.734C179.581 234.734 178.357 235.335 177.428 236.536C176.521 237.737 176.068 239.392 176.068 241.5C176.068 243.608 176.521 245.263 177.428 246.464C178.357 247.665 179.581 248.266 181.1 248.266ZM196.322 229.872H193.5V226.2H196.322V229.872ZM196.322 250H193.5V233H196.322V250ZM222.461 256.324V250H220.999L212.771 240.752V250H209.779V231.776H212.771V240.616L220.557 231.776H223.821L216.035 240.548L222.257 247.484H225.317V256.324H222.461ZM241.59 250H238.938L238.768 246.634C237.59 248.969 235.652 250.136 232.954 250.136C231.322 250.136 230.019 249.739 229.044 248.946C228.07 248.153 227.582 247.076 227.582 245.716C227.582 243.88 228.455 242.463 230.2 241.466C231.946 240.446 234.394 239.936 237.544 239.936H238.768V238.61C238.768 237.409 238.394 236.468 237.646 235.788C236.921 235.085 235.935 234.734 234.688 234.734C233.51 234.734 232.535 235.063 231.764 235.72C230.994 236.377 230.608 237.239 230.608 238.304H227.854C227.854 236.672 228.489 235.357 229.758 234.36C231.073 233.363 232.716 232.864 234.688 232.864C236.751 232.864 238.417 233.385 239.686 234.428C240.956 235.471 241.59 236.865 241.59 238.61V250ZM238.768 242.112V241.568H237.544C235.232 241.568 233.464 241.908 232.24 242.588C231.016 243.268 230.404 244.243 230.404 245.512C230.404 246.373 230.688 247.053 231.254 247.552C231.844 248.028 232.614 248.266 233.566 248.266C235.13 248.266 236.388 247.711 237.34 246.6C238.292 245.489 238.768 243.993 238.768 242.112ZM261.245 250H258.423V242.248H249.447V250H246.625V233H249.447V240.412H258.423V233H261.245V250ZM267.574 255.1H264.99V248.232H265.738C266.214 248.232 266.588 248.198 266.86 248.13C267.155 248.039 267.461 247.835 267.778 247.518C268.118 247.201 268.368 246.725 268.526 246.09C268.708 245.433 268.878 244.549 269.036 243.438C269.195 242.305 269.308 240.888 269.376 239.188C269.444 237.465 269.478 235.403 269.478 233H281.82V248.232H284.812V255.134H282.228V250H267.574V255.1ZM278.998 234.836H272.062C272.062 238.871 271.904 241.931 271.586 244.016C271.269 246.056 270.782 247.461 270.124 248.232H278.998V234.836ZM301.323 250H298.671L298.501 246.634C297.322 248.969 295.384 250.136 292.687 250.136C291.055 250.136 289.752 249.739 288.777 248.946C287.802 248.153 287.315 247.076 287.315 245.716C287.315 243.88 288.188 242.463 289.933 241.466C291.678 240.446 294.126 239.936 297.277 239.936H298.501V238.61C298.501 237.409 298.127 236.468 297.379 235.788C296.654 235.085 295.668 234.734 294.421 234.734C293.242 234.734 292.268 235.063 291.497 235.72C290.726 236.377 290.341 237.239 290.341 238.304H287.587C287.587 236.672 288.222 235.357 289.491 234.36C290.806 233.363 292.449 232.864 294.421 232.864C296.484 232.864 298.15 233.385 299.419 234.428C300.688 235.471 301.323 236.865 301.323 238.61V250ZM298.501 242.112V241.568H297.277C294.965 241.568 293.197 241.908 291.973 242.588C290.749 243.268 290.137 244.243 290.137 245.512C290.137 246.373 290.42 247.053 290.987 247.552C291.576 248.028 292.347 248.266 293.299 248.266C294.863 248.266 296.121 247.711 297.073 246.6C298.025 245.489 298.501 243.993 298.501 242.112ZM321.147 250H318.393V237.012L309.009 250H306.357V233H309.145V245.988L318.529 233H321.147V250ZM308.533 226.846H310.573C310.573 227.662 310.868 228.319 311.457 228.818C312.069 229.317 312.84 229.566 313.769 229.566C314.698 229.566 315.458 229.317 316.047 228.818C316.659 228.319 316.965 227.662 316.965 226.846H319.039C319.039 228.138 318.552 229.181 317.577 229.974C316.602 230.745 315.333 231.13 313.769 231.13C312.205 231.13 310.936 230.745 309.961 229.974C309.009 229.181 308.533 228.138 308.533 226.846ZM334.748 242.826H331.926V242.214C331.926 241.307 332.073 240.514 332.368 239.834C332.685 239.131 333.071 238.599 333.524 238.236C333.977 237.851 334.465 237.465 334.986 237.08C335.53 236.672 336.029 236.309 336.482 235.992C336.935 235.652 337.309 235.199 337.604 234.632C337.921 234.043 338.08 233.374 338.08 232.626C338.08 231.266 337.638 230.167 336.754 229.328C335.893 228.489 334.737 228.07 333.286 228.07C331.813 228.07 330.611 228.546 329.682 229.498C328.753 230.427 328.288 231.651 328.288 233.17H325.534C325.534 231.039 326.259 229.328 327.71 228.036C329.161 226.721 331.042 226.064 333.354 226.064C335.621 226.064 337.445 226.653 338.828 227.832C340.233 228.988 340.936 230.586 340.936 232.626C340.936 233.601 340.777 234.451 340.46 235.176C340.165 235.879 339.791 236.423 339.338 236.808C338.885 237.193 338.386 237.579 337.842 237.964C337.298 238.349 336.799 238.701 336.346 239.018C335.893 239.313 335.507 239.743 335.19 240.31C334.895 240.854 334.748 241.489 334.748 242.214V242.826ZM334.748 250H331.926V246.09H334.748V250Z" fill="white"/>
</svg>
