<svg width="235" height="43" viewBox="0 0 235 43" fill="none" xmlns="http://www.w3.org/2000/svg">
<path d="M128.406 27.1758C86.4467 27.1758 48.0836 27.1758 11.219 27.1758V26.3766C70.1623 26.3766 159.033 26.3766 234.561 26.3766V27.1758C206.288 27.1758 153.582 27.1758 128.406 27.1758Z" fill="#922686"/>
<path d="M15.3151 11.7906L12.5178 14.7877V22.5802H11.3189V2H12.5178V13.1892L22.9078 2H24.3064L16.1143 10.8914L25.1057 22.5802H23.707L15.3151 11.7906Z" fill="#922686"/>
<path d="M32.2987 8.79347C32.2987 21.781 30.9001 22.6801 27.6033 22.6801V21.781C30.001 21.781 31.1998 21.0817 31.1998 7.89433H40.7906V22.5802H39.6916V8.79347H32.2987Z" fill="#922686"/>
<path d="M56.5754 9.5927L46.9846 22.5802H45.8857V7.89433H46.9846V20.7819L56.6753 7.89433H57.7743V22.5802H56.5754V9.5927Z" fill="#922686"/>
<path d="M62.9693 7.89433H64.4678L70.6619 21.2815L76.9558 7.89433H78.4544V22.5802H77.3554V9.5927L71.2613 22.5802H70.1623L64.0682 9.5927V22.5802H62.9693V7.89433Z" fill="#922686"/>
<path d="M92.9404 18.9837C91.9414 21.3814 89.8434 22.6801 87.2459 22.6801C84.7483 22.6801 82.9501 21.2815 82.9501 18.8838C82.9501 15.7867 86.147 13.9885 91.7416 13.9885H92.9404V12.5898C92.9404 10.0922 91.1422 8.69356 88.6446 8.69356C86.147 8.69356 84.2488 10.0922 84.2488 12.1902H83.1499C83.1499 9.4928 85.5476 7.79443 88.7445 7.79443C91.9414 7.79443 94.1393 9.5927 94.1393 12.6897V22.5802H93.0403L92.9404 18.9837ZM91.7416 14.7877C86.7464 14.7877 84.1489 16.2863 84.1489 18.7839C84.1489 20.682 85.4476 21.6811 87.4457 21.6811C90.7426 21.6811 93.0403 19.2834 93.0403 15.2872V14.6878H91.7416V14.7877Z" fill="#922686"/>
<path d="M103.131 14.7877L100.433 17.3852V22.5802H99.2344V7.89433H100.433V15.8866L108.326 7.89433H109.824L103.83 13.9885L110.623 22.5802H109.325L103.131 14.7877Z" fill="#922686"/>
<path d="M113.021 7.89433H125.809V8.79347H120.014V22.5802H118.816V8.79347H113.021V7.89433Z" fill="#922686"/>
<path d="M135.2 7.79443C139.296 7.79443 142.093 10.5917 142.093 15.1873C142.093 19.8828 139.296 22.5802 135.2 22.5802C131.104 22.5802 128.306 19.7829 128.306 15.1873C128.306 10.5917 131.104 7.79443 135.2 7.79443ZM135.2 21.781C138.597 21.781 140.894 19.3833 140.894 15.2872C140.894 11.1912 138.597 8.79347 135.2 8.79347C131.803 8.79347 129.505 11.1912 129.505 15.2872C129.505 19.2834 131.803 21.781 135.2 21.781Z" fill="#922686"/>
<path d="M157.378 8.79347H147.688V22.5802H146.489V7.89433H158.477V22.5802H157.378V8.79347Z" fill="#922686"/>
<path d="M167.269 8.79347C167.269 21.781 165.87 22.6801 162.573 22.6801V21.781C164.971 21.781 166.17 21.0817 166.17 7.89433H175.761V22.5802H174.662V8.79347H167.269Z" fill="#922686"/>
<path d="M190.147 18.9837C189.148 21.3814 187.05 22.6801 184.452 22.6801C181.955 22.6801 180.157 21.2815 180.157 18.8838C180.157 15.7867 183.354 13.9885 188.948 13.9885H190.147V12.5898C190.147 10.0922 188.349 8.69356 185.851 8.69356C183.354 8.69356 181.455 10.0922 181.455 12.1902H180.356C180.356 9.4928 182.754 7.79443 185.951 7.79443C189.148 7.79443 191.346 9.5927 191.346 12.6897V22.5802H190.247L190.147 18.9837ZM188.948 14.7877C183.953 14.7877 181.355 16.2863 181.355 18.7839C181.355 20.682 182.654 21.6811 184.652 21.6811C187.949 21.6811 190.247 19.2834 190.247 15.2872V14.6878H188.948V14.7877Z" fill="#922686"/>
<path d="M207.131 15.487H197.64V22.5802H196.441V7.89433H197.64V14.5879H207.131V7.89433H208.329V22.5802H207.131V15.487Z" fill="#922686"/>
<path d="M0.529297 11.8905C0.529297 11.8905 3.2267 11.1912 3.62632 8.49376C3.62632 8.49376 4.12584 5.79635 4.82517 6.09606C5.42459 6.39577 5.82421 6.89529 6.62344 7.29491C7.32276 7.69452 8.122 8.29395 7.32276 9.6926C6.42363 10.9914 4.32565 13.0893 5.12488 15.1873C5.92411 17.2853 7.82228 19.7829 7.62248 21.4813C7.52257 23.0797 6.82325 25.2776 5.82421 27.8751C5.82421 27.8751 7.42267 22.0807 6.02401 19.9827C4.62536 17.8847 3.82613 17.1854 3.82613 17.1854C3.82613 17.1854 2.02786 15.3871 3.72622 12.9894C5.6244 10.4918 6.32373 9.19308 6.02401 8.59366C5.82421 7.79443 5.02497 7.0951 4.62536 7.99424C4.22574 8.79347 3.72622 11.0913 0.529297 11.8905Z" fill="#922686"/>
<path d="M4.92507 2.19981C5.52449 2 6.32373 2.49952 6.62344 3.39866C6.92315 4.29779 6.72334 5.19693 6.02401 5.39673C5.42459 5.59654 4.72526 5.09702 4.42555 4.19789C4.12584 3.29875 4.32565 2.39962 4.92507 2.19981Z" fill="#922686"/>
<path d="M234.473 22.5938H233.233V11.9298H220.089V22.5938H218.818V0.893799H220.089V10.9378H233.233V0.893799H234.473V22.5938Z" fill="#922686"/>
<path d="M120.376 32.4712C121.136 32.4712 121.821 32.6412 122.431 32.9812C123.041 33.3212 123.516 33.7912 123.856 34.3912C124.206 34.9912 124.381 35.6762 124.381 36.4462C124.381 37.2062 124.206 37.8912 123.856 38.5012C123.516 39.1012 123.041 39.5712 122.431 39.9112C121.821 40.2512 121.136 40.4212 120.376 40.4212C119.616 40.4212 118.931 40.2512 118.321 39.9112C117.711 39.5712 117.231 39.1012 116.881 38.5012C116.541 37.8912 116.371 37.2062 116.371 36.4462C116.371 35.6762 116.541 34.9912 116.881 34.3912C117.231 33.7912 117.711 33.3212 118.321 32.9812C118.931 32.6412 119.616 32.4712 120.376 32.4712ZM120.376 33.1012C119.786 33.1012 119.251 33.2312 118.771 33.4912C118.291 33.7412 117.906 34.0962 117.616 34.5562C117.326 35.0162 117.161 35.5462 117.121 36.1462H123.631C123.591 35.5462 123.426 35.0162 123.136 34.5562C122.846 34.0962 122.461 33.7412 121.981 33.4912C121.501 33.2312 120.966 33.1012 120.376 33.1012ZM120.376 39.7912C120.966 39.7912 121.501 39.6612 121.981 39.4012C122.461 39.1412 122.846 38.7812 123.136 38.3212C123.426 37.8512 123.591 37.3162 123.631 36.7162H117.121C117.161 37.3162 117.326 37.8512 117.616 38.3212C117.906 38.7812 118.291 39.1412 118.771 39.4012C119.251 39.6612 119.786 39.7912 120.376 39.7912Z" fill="#922686"/>
<path d="M130.405 36.2812C130.985 36.3912 131.43 36.6112 131.74 36.9412C132.06 37.2612 132.22 37.6562 132.22 38.1262C132.22 38.5862 132.065 38.9912 131.755 39.3412C131.455 39.6912 131.045 39.9612 130.525 40.1512C130.005 40.3412 129.44 40.4362 128.83 40.4362C128.27 40.4362 127.72 40.3512 127.18 40.1812C126.65 40.0012 126.185 39.7462 125.785 39.4162L126.085 38.8612C126.435 39.1612 126.85 39.3912 127.33 39.5512C127.82 39.7112 128.315 39.7912 128.815 39.7912C129.555 39.7912 130.18 39.6362 130.69 39.3262C131.2 39.0062 131.455 38.5862 131.455 38.0662C131.455 37.6062 131.24 37.2462 130.81 36.9862C130.39 36.7162 129.82 36.5812 129.1 36.5812H127.84V36.0112H129.07C129.7 36.0112 130.215 35.8862 130.615 35.6362C131.025 35.3862 131.23 35.0512 131.23 34.6312C131.23 34.1412 131.005 33.7662 130.555 33.5062C130.115 33.2362 129.55 33.1012 128.86 33.1012C127.98 33.1012 127.15 33.3262 126.37 33.7762L126.145 33.1762C127.025 32.6862 127.96 32.4412 128.95 32.4412C129.82 32.4412 130.545 32.6312 131.125 33.0112C131.705 33.3812 131.995 33.8862 131.995 34.5262C131.995 34.9362 131.85 35.2962 131.56 35.6062C131.27 35.9162 130.885 36.1412 130.405 36.2812Z" fill="#922686"/>
<path d="M134.295 35.9962H138.15V36.6712H134.295V35.9962Z" fill="#922686"/>
<path d="M144.19 32.4712C144.95 32.4712 145.635 32.6412 146.245 32.9812C146.855 33.3212 147.33 33.7912 147.67 34.3912C148.02 34.9912 148.195 35.6762 148.195 36.4462C148.195 37.2062 148.02 37.8912 147.67 38.5012C147.33 39.1012 146.855 39.5712 146.245 39.9112C145.635 40.2512 144.95 40.4212 144.19 40.4212C143.43 40.4212 142.745 40.2512 142.135 39.9112C141.525 39.5712 141.045 39.1012 140.695 38.5012C140.355 37.8912 140.185 37.2062 140.185 36.4462C140.185 35.6762 140.355 34.9912 140.695 34.3912C141.045 33.7912 141.525 33.3212 142.135 32.9812C142.745 32.6412 143.43 32.4712 144.19 32.4712ZM144.19 33.1012C143.6 33.1012 143.065 33.2312 142.585 33.4912C142.105 33.7412 141.72 34.0962 141.43 34.5562C141.14 35.0162 140.975 35.5462 140.935 36.1462H147.445C147.405 35.5462 147.24 35.0162 146.95 34.5562C146.66 34.0962 146.275 33.7412 145.795 33.4912C145.315 33.2312 144.78 33.1012 144.19 33.1012ZM144.19 39.7912C144.78 39.7912 145.315 39.6612 145.795 39.4012C146.275 39.1412 146.66 38.7812 146.95 38.3212C147.24 37.8512 147.405 37.3162 147.445 36.7162H140.935C140.975 37.3162 141.14 37.8512 141.43 38.3212C141.72 38.7812 142.105 39.1412 142.585 39.4012C143.065 39.6612 143.6 39.7912 144.19 39.7912Z" fill="#922686"/>
<path d="M154.219 36.2812C154.799 36.3912 155.244 36.6112 155.554 36.9412C155.874 37.2612 156.034 37.6562 156.034 38.1262C156.034 38.5862 155.879 38.9912 155.569 39.3412C155.269 39.6912 154.859 39.9612 154.339 40.1512C153.819 40.3412 153.254 40.4362 152.644 40.4362C152.084 40.4362 151.534 40.3512 150.994 40.1812C150.464 40.0012 149.999 39.7462 149.599 39.4162L149.899 38.8612C150.249 39.1612 150.664 39.3912 151.144 39.5512C151.634 39.7112 152.129 39.7912 152.629 39.7912C153.369 39.7912 153.994 39.6362 154.504 39.3262C155.014 39.0062 155.269 38.5862 155.269 38.0662C155.269 37.6062 155.054 37.2462 154.624 36.9862C154.204 36.7162 153.634 36.5812 152.914 36.5812H151.654V36.0112H152.884C153.514 36.0112 154.029 35.8862 154.429 35.6362C154.839 35.3862 155.044 35.0512 155.044 34.6312C155.044 34.1412 154.819 33.7662 154.369 33.5062C153.929 33.2362 153.364 33.1012 152.674 33.1012C151.794 33.1012 150.964 33.3262 150.184 33.7762L149.959 33.1762C150.839 32.6862 151.774 32.4412 152.764 32.4412C153.634 32.4412 154.359 32.6312 154.939 33.0112C155.519 33.3812 155.809 33.8862 155.809 34.5262C155.809 34.9362 155.664 35.2962 155.374 35.6062C155.084 35.9162 154.699 36.1412 154.219 36.2812Z" fill="#922686"/>
<path d="M158.8 32.5312H159.55V40.3612H158.8V32.5312ZM159.175 30.6262C159.005 30.6262 158.86 30.5712 158.74 30.4612C158.62 30.3412 158.56 30.1962 158.56 30.0262C158.56 29.8562 158.62 29.7112 158.74 29.5912C158.86 29.4712 159.005 29.4112 159.175 29.4112C159.345 29.4112 159.49 29.4712 159.61 29.5912C159.73 29.7012 159.79 29.8412 159.79 30.0112C159.79 30.1812 159.73 30.3262 159.61 30.4462C159.49 30.5662 159.345 30.6262 159.175 30.6262Z" fill="#922686"/>
<path d="M162.919 32.5312H163.669V36.1012H168.979V32.5312H169.729V40.3612H168.979V36.7612H163.669V40.3612H162.919V32.5312ZM171.019 39.7012V42.1312H170.299V40.3612H168.979V39.7012H171.019Z" fill="#922686"/>
<path d="M181.887 32.5312V40.3612H181.197V33.7312L177.792 39.3562H177.447L174.057 33.7462V40.3612H173.367V32.5312H174.102L177.642 38.4562L181.197 32.5312H181.887Z" fill="#922686"/>
<path d="M191.955 36.6262H185.22C185.24 37.2362 185.395 37.7812 185.685 38.2612C185.975 38.7312 186.365 39.0962 186.855 39.3562C187.355 39.6162 187.915 39.7462 188.535 39.7462C189.045 39.7462 189.515 39.6562 189.945 39.4762C190.385 39.2862 190.75 39.0112 191.04 38.6512L191.475 39.1462C191.135 39.5562 190.705 39.8712 190.185 40.0912C189.675 40.3112 189.12 40.4212 188.52 40.4212C187.74 40.4212 187.045 40.2512 186.435 39.9112C185.825 39.5712 185.345 39.1012 184.995 38.5012C184.655 37.9012 184.485 37.2162 184.485 36.4462C184.485 35.6862 184.645 35.0062 184.965 34.4062C185.295 33.7962 185.745 33.3212 186.315 32.9812C186.885 32.6412 187.525 32.4712 188.235 32.4712C188.945 32.4712 189.58 32.6412 190.14 32.9812C190.71 33.3112 191.155 33.7762 191.475 34.3762C191.805 34.9762 191.97 35.6562 191.97 36.4162L191.955 36.6262ZM188.235 33.1312C187.685 33.1312 187.19 33.2562 186.75 33.5062C186.31 33.7462 185.955 34.0912 185.685 34.5412C185.425 34.9812 185.275 35.4812 185.235 36.0412H191.235C191.205 35.4812 191.055 34.9812 190.785 34.5412C190.515 34.1012 190.16 33.7562 189.72 33.5062C189.28 33.2562 188.785 33.1312 188.235 33.1312Z" fill="#922686"/>
<path d="M194.571 32.5312H195.321V36.1012H200.631V32.5312H201.381V40.3612H200.631V36.7612H195.321V40.3612H194.571V32.5312Z" fill="#922686"/>
<path d="M212.402 32.6512C213.132 32.6512 213.777 32.8162 214.337 33.1462C214.907 33.4662 215.352 33.9162 215.672 34.4962C215.992 35.0762 216.152 35.7462 216.152 36.5062C216.152 37.2662 215.987 37.9462 215.657 38.5462C215.337 39.1362 214.882 39.6012 214.292 39.9412C213.712 40.2712 213.047 40.4362 212.297 40.4362C211.437 40.4362 210.702 40.2262 210.092 39.8062C209.492 39.3862 209.032 38.7912 208.712 38.0212C208.402 37.2512 208.247 36.3512 208.247 35.3212C208.247 34.1512 208.387 33.1812 208.667 32.4112C208.957 31.6412 209.387 31.0362 209.957 30.5962C210.537 30.1462 211.277 29.8112 212.177 29.5912L215.642 28.7512L215.762 29.4562L212.462 30.2362C211.652 30.4262 210.992 30.7062 210.482 31.0762C209.982 31.4362 209.607 31.9312 209.357 32.5612C209.107 33.1912 208.977 33.9962 208.967 34.9762C209.227 34.2562 209.662 33.6912 210.272 33.2812C210.882 32.8612 211.592 32.6512 212.402 32.6512ZM212.312 39.7912C212.902 39.7912 213.432 39.6512 213.902 39.3712C214.372 39.0912 214.737 38.7062 214.997 38.2162C215.257 37.7162 215.387 37.1512 215.387 36.5212C215.387 35.8912 215.257 35.3362 214.997 34.8562C214.737 34.3662 214.372 33.9912 213.902 33.7312C213.442 33.4612 212.912 33.3262 212.312 33.3262C211.712 33.3262 211.177 33.4612 210.707 33.7312C210.237 33.9912 209.872 34.3662 209.612 34.8562C209.352 35.3362 209.222 35.8912 209.222 36.5212C209.222 37.1512 209.352 37.7162 209.612 38.2162C209.872 38.7062 210.237 39.0912 210.707 39.3712C211.177 39.6512 211.712 39.7912 212.312 39.7912Z" fill="#922686"/>
<path d="M221.886 40.4212C221.146 40.4212 220.476 40.2512 219.876 39.9112C219.286 39.5712 218.821 39.1012 218.481 38.5012C218.141 37.8912 217.971 37.2062 217.971 36.4462C217.971 35.6862 218.141 35.0062 218.481 34.4062C218.821 33.7962 219.286 33.3212 219.876 32.9812C220.476 32.6412 221.146 32.4712 221.886 32.4712C222.626 32.4712 223.291 32.6412 223.881 32.9812C224.481 33.3212 224.951 33.7962 225.291 34.4062C225.631 35.0062 225.801 35.6862 225.801 36.4462C225.801 37.2062 225.631 37.8912 225.291 38.5012C224.951 39.1012 224.481 39.5712 223.881 39.9112C223.291 40.2512 222.626 40.4212 221.886 40.4212ZM221.886 39.7462C222.486 39.7462 223.021 39.6062 223.491 39.3262C223.971 39.0462 224.346 38.6562 224.616 38.1562C224.896 37.6562 225.036 37.0862 225.036 36.4462C225.036 35.8062 224.896 35.2362 224.616 34.7362C224.346 34.2362 223.971 33.8462 223.491 33.5662C223.021 33.2862 222.486 33.1462 221.886 33.1462C221.286 33.1462 220.746 33.2862 220.266 33.5662C219.796 33.8462 219.421 34.2362 219.141 34.7362C218.871 35.2362 218.736 35.8062 218.736 36.4462C218.736 37.0862 218.871 37.6562 219.141 38.1562C219.421 38.6562 219.796 39.0462 220.266 39.3262C220.746 39.6062 221.286 39.7462 221.886 39.7462Z" fill="#922686"/>
<path d="M234.484 32.5312V40.3612H233.734V33.2062H229.654L229.549 35.2912C229.489 36.3712 229.399 37.2762 229.279 38.0062C229.159 38.7362 228.954 39.3262 228.664 39.7762C228.374 40.2262 227.974 40.4512 227.464 40.4512C227.314 40.4512 227.099 40.4162 226.819 40.3462L226.894 39.7012C227.054 39.7412 227.174 39.7612 227.254 39.7612C227.674 39.7612 227.994 39.5562 228.214 39.1462C228.434 38.7362 228.584 38.2262 228.664 37.6162C228.744 37.0062 228.809 36.2112 228.859 35.2312L228.994 32.5312H234.484Z" fill="#922686"/>
</svg>
