<svg width="24" height="24" viewBox="0 0 24 24" fill="none" xmlns="http://www.w3.org/2000/svg">
<path d="M23.9913 11.9905C23.9913 13.6854 23.9564 15.3873 23.9982 17.0822C24.068 20.1372 22.0591 22.5017 19.5341 23.4712C18.6482 23.813 17.7205 23.9804 16.7719 23.9874C13.5982 23.9944 10.4245 24.0153 7.25074 23.9804C4.85126 23.9595 2.8424 23.0527 1.33575 21.1486C0.456877 20.0396 0.0104628 18.7562 0.0104628 17.3403C-0.00348761 13.797 -0.00348761 10.2537 0.0104628 6.70348C0.0244133 3.99023 1.78217 1.549 4.37695 0.558554C5.35348 0.188882 6.36489 0.000558065 7.41117 0.00753301C10.5291 0.00753301 13.64 -0.0133919 16.758 0.0145078C19.1714 0.0354327 21.1872 0.956126 22.6939 2.87424C23.5518 3.9693 23.9843 5.23177 23.9913 6.61978C23.9982 8.41234 23.9913 10.2049 23.9913 11.9905ZM22.2126 12.0044C22.2126 10.2468 22.2126 8.49604 22.2126 6.73835C22.2126 5.80371 21.9615 4.93882 21.4314 4.17855C20.2944 2.56036 18.6901 1.82102 16.751 1.80707C13.5912 1.79312 10.4314 1.80009 7.26469 1.80009C6.26026 1.80009 5.29768 2.00934 4.42578 2.51154C2.77265 3.46013 1.81704 4.84117 1.81704 6.80113C1.81704 10.2886 1.81704 13.7761 1.81704 17.2635C1.81704 18.4563 2.22161 19.4955 3.03073 20.3674C4.17467 21.6089 5.62551 22.1809 7.29259 22.1879C10.3477 22.2018 13.4029 22.2018 16.465 22.1809C17.0997 22.1739 17.7484 22.1181 18.3553 21.9577C20.5525 21.3857 22.2684 19.5234 22.2265 17.0892C22.1847 15.4012 22.2126 13.7063 22.2126 12.0044Z" fill="white"/>
<path d="M12.0357 17.1101C8.89687 17.1101 6.40672 14.648 6.40672 11.5511C6.40672 8.49605 8.92478 6.01297 12.0287 6.006C15.1467 6.006 17.6647 8.48908 17.6577 11.572C17.6508 14.648 15.1536 17.1031 12.0357 17.1101ZM15.8651 11.572C15.8721 9.4865 14.1492 7.78461 12.0357 7.78461C9.92223 7.78461 8.19238 9.47952 8.19238 11.565C8.19238 13.6366 9.90131 15.3245 12.0078 15.3385C14.1283 15.3524 15.8581 13.6645 15.8651 11.572Z" fill="white"/>
<path d="M19.4852 5.59449C19.4643 6.27106 18.9342 6.79418 18.2785 6.77326C17.6229 6.75931 17.0927 6.17341 17.1206 5.50382C17.1485 4.83422 17.6856 4.3111 18.3343 4.32505C19.0109 4.339 19.5062 4.89002 19.4852 5.59449Z" fill="white"/>
</svg>
