<svg width="43" height="58" viewBox="0 0 43 58" fill="none" xmlns="http://www.w3.org/2000/svg">
<g clip-path="url(#clip0)">
<path fill-rule="evenodd" clip-rule="evenodd" d="M14.6663 47.6995L11.9658 55.8344L9.68241 47.6995H7.21241L5.06076 55.8667L2.49196 47.6995H0L3.952 58.0001H6.14756L8.43094 49.542L10.7692 58.0001H13.0416L16.9936 47.6995H14.6663ZM25.4355 47.6995H22.724L17.6742 58.0001H20.1552L21.1322 55.8775H26.8956L27.8836 58.0001H30.4414L25.4355 47.6995ZM24.0523 49.6066L21.9556 54.0997H26.0942L24.0523 49.6066ZM40.3324 47.6995L37.1379 52.4619L33.8116 47.6995H31.0562L35.9193 54.1104V57.9893H38.2686V54.132L43.011 47.6887H40.3324V47.6995Z" fill="#141006"/>
<path fill-rule="evenodd" clip-rule="evenodd" d="M42.7036 38.5517H0.274414V40.5666H42.7036V38.5517ZM40.3324 16.7546C40.3324 11.6259 38.6528 7.54226 35.2936 4.52536C31.9344 1.50845 27.3566 0 21.5274 0C15.6543 0 11.0436 1.50845 7.6954 4.51458C4.35815 7.53149 2.67855 11.6151 2.67855 16.7438C2.67855 21.8833 4.35815 25.9669 7.6954 28.9838C11.0436 32.0007 15.6543 33.5092 21.5274 33.5092C27.3456 33.5092 31.9344 31.99 35.2936 28.9838C38.6637 25.9669 40.3324 21.8941 40.3324 16.7546ZM33.5261 16.7546C33.5261 13.3067 32.4723 10.5807 30.3865 8.60895C28.2897 6.62642 25.3477 5.63515 21.5274 5.63515C17.6852 5.63515 14.7102 6.62642 12.6244 8.60895C10.5386 10.5915 9.48478 13.3067 9.48478 16.7546C9.48478 20.2133 10.5386 22.9285 12.6244 24.911C14.7102 26.8936 17.6742 27.8848 21.5274 27.8848C25.3477 27.8848 28.2897 26.8936 30.3865 24.911C32.4723 22.9285 33.5261 20.2133 33.5261 16.7546Z" fill="#141006"/>
</g>
<defs>
<clipPath id="clip0">
<rect width="43" height="58" fill="white"/>
</clipPath>
</defs>
</svg>
