<svg width="64" height="86" viewBox="0 0 64 86" fill="none" xmlns="http://www.w3.org/2000/svg">
<path fill-rule="evenodd" clip-rule="evenodd" d="M21.829 70.7268L17.8095 82.7889L14.411 70.7268H10.7347L7.53229 82.8368L3.70896 70.7268H0L5.88205 86.0001H9.14986L12.5484 73.4587L16.0286 86.0001H19.4108L25.2928 70.7268H21.829ZM37.8575 70.7268H33.8218L26.3058 86.0001H29.9985L31.4526 82.8528H40.0306L41.5011 86.0001H45.3081L37.8575 70.7268ZM35.7988 73.5546L32.6781 80.2167H38.8379L35.7988 73.5546ZM60.0296 70.7268L55.2749 77.7883L50.3242 70.7268H46.2231L53.4613 80.2327V85.9841H56.9579V80.2646L64.0163 70.7108H60.0296V70.7268Z" fill="white"/>
<path fill-rule="evenodd" clip-rule="evenodd" d="M63.5588 57.1629H0.408456V60.1505H63.5588V57.1629ZM60.0296 24.843C60.0296 17.2383 57.5297 11.1834 52.53 6.71001C47.5302 2.23667 40.7169 0 32.0408 0C23.2994 0 16.437 2.23667 11.4536 6.69404C6.48658 11.1674 3.9867 17.2224 3.9867 24.827C3.9867 32.4477 6.48658 38.5027 11.4536 42.976C16.437 47.4494 23.2994 49.6861 32.0408 49.6861C40.7005 49.6861 47.5302 47.4334 52.53 42.976C57.5461 38.5027 60.0296 32.4637 60.0296 24.843ZM49.8994 24.843C49.8994 19.7306 48.3308 15.6887 45.2264 12.765C42.1057 9.82538 37.7268 8.35557 32.0408 8.35557C26.3222 8.35557 21.8943 9.82538 18.7899 12.765C15.6855 15.7046 14.1169 19.7306 14.1169 24.843C14.1169 29.9714 15.6855 33.9974 18.7899 36.937C21.8943 39.8767 26.3058 41.3465 32.0408 41.3465C37.7268 41.3465 42.1057 39.8767 45.2264 36.937C48.3308 33.9974 49.8994 29.9714 49.8994 24.843Z" fill="white"/>
</svg>
