<?xml version="1.0" encoding="utf-8"?>
<!-- Generator: Adobe Illustrator 21.1.0, SVG Export Plug-In . SVG Version: 6.00 Build 0)  -->
<svg version="1.1" id="Layer_1" xmlns="http://www.w3.org/2000/svg" xmlns:xlink="http://www.w3.org/1999/xlink" x="0px" y="0px"
	 viewBox="0 0 86 86" style="enable-background:new 0 0 86 86;" xml:space="preserve">
<style type="text/css">
	.st0{fill:#A00067;}
</style>
<g>
	<g>
		<g>
			<g>
				<path class="st0" d="M46.5,31.5c0.2,0.3,0.5,0.5,0.8,0.5c0.1,0,0.3,0,0.4-0.1c0.1,0,5.1-2.6,7.6-3.4c0.5-0.1,0.7-0.6,0.6-1.1
					c-0.1-0.5-0.6-0.7-1.1-0.6c-2.6,0.8-7.6,3.4-7.9,3.5C46.5,30.5,46.3,31.1,46.5,31.5z"/>
				<path class="st0" d="M47.3,21.6c0.1,0,0.3,0,0.4-0.1c0.1,0,5.1-2.6,7.6-3.4c0.5-0.1,0.7-0.6,0.6-1.1c-0.1-0.5-0.6-0.7-1.1-0.6
					c-2.6,0.8-7.6,3.4-7.9,3.5c-0.4,0.2-0.6,0.7-0.4,1.2C46.7,21.5,47,21.6,47.3,21.6z"/>
				<path class="st0" d="M67.9,19.9c-0.5,0-0.9,0.4-0.9,0.9v33.5c0,1.4-1.2,2.6-2.6,2.6H43.9v-2c1.3-0.4,4.5-1.5,7.7-1.5
					c7.5,0,12.6,1.7,12.6,1.7c0.3,0.1,0.5,0,0.8-0.1c0.2-0.2,0.4-0.4,0.4-0.7V16.5c0-0.4-0.3-0.8-0.7-0.8c0,0-0.7-0.2-1.8-0.4
					c-0.5-0.1-0.9,0.2-1,0.7s0.2,0.9,0.7,1c0.4,0.1,0.8,0.2,1.1,0.2v36c-1.9-0.5-6.3-1.4-12-1.4c-3.7,0-7.4,1.2-8.6,1.6
					c-1-0.4-4.1-1.6-7.8-1.6c-5.9,0-10.8,1-12.9,1.5v-36c1.7-0.4,6.8-1.5,12.9-1.5c3.1,0,5.8,1,6.9,1.4V51c0,0.3,0.2,0.6,0.4,0.7
					c0.3,0.2,0.6,0.1,0.9,0c0.1-0.1,8.6-5.1,16.1-7.7c0.4-0.1,0.6-0.4,0.6-0.8V7.9c0-0.3-0.1-0.5-0.4-0.7C59.6,7,59.3,7,59,7.1
					C52.1,9.7,45.2,14,45.1,14c-0.4,0.3-0.5,0.8-0.3,1.2c0.3,0.4,0.8,0.5,1.2,0.3c0.1,0,6.1-3.8,12.4-6.3v33.3
					c-5.9,2-12,5.4-14.6,6.9V16.5c0-0.3-0.2-0.6-0.5-0.8c-0.1-0.1-3.7-1.8-8.1-1.8c-7.8,0-13.7,1.7-14,1.8c-0.4,0.1-0.6,0.4-0.6,0.8
					v37.8c0,0.3,0.1,0.5,0.3,0.7c0.2,0.1,0.3,0.2,0.5,0.2c0.1,0,0.2,0,0.2,0c0.1,0,6-1.7,13.5-1.7c3.1,0,5.8,1,6.9,1.4v2H21.5
					c-1.4,0-2.6-1.2-2.6-2.6V20.8c0-0.5-0.4-0.9-0.9-0.9s-0.9,0.4-0.9,0.9v33.5c0,2.4,1.9,4.3,4.3,4.3h42.9c2.4,0,4.3-1.9,4.3-4.3
					V20.8C68.8,20.3,68.4,19.9,67.9,19.9z"/>
				<path class="st0" d="M46.5,26.3c0.2,0.3,0.5,0.5,0.8,0.5c0.1,0,0.3,0,0.4-0.1c0.1,0,5.1-2.6,7.6-3.4c0.5-0.1,0.7-0.6,0.6-1.1
					c-0.1-0.5-0.6-0.7-1.1-0.6c-2.6,0.8-7.6,3.4-7.9,3.5C46.5,25.4,46.3,25.9,46.5,26.3z"/>
				<path class="st0" d="M46.5,36.6c0.2,0.3,0.5,0.5,0.8,0.5c0.1,0,0.3,0,0.4-0.1c0.1,0,5.1-2.6,7.6-3.4c0.5-0.1,0.7-0.6,0.6-1.1
					c-0.1-0.5-0.6-0.7-1.1-0.6c-2.6,0.8-7.6,3.4-7.9,3.5C46.5,35.7,46.3,36.2,46.5,36.6z"/>
				<path class="st0" d="M38,23c-5.3-1.2-11.3,0.3-11.6,0.4c-0.5,0.1-0.7,0.6-0.6,1.1c0.1,0.4,0.5,0.6,0.8,0.6c0.1,0,0.1,0,0.2,0
					s5.9-1.5,10.7-0.4c0.5,0.1,0.9-0.2,1-0.6C38.8,23.5,38.5,23.1,38,23z"/>
				<path class="st0" d="M38,28.1c-5.3-1.2-11.3,0.3-11.6,0.4c-0.5,0.1-0.7,0.6-0.6,1.1c0.1,0.4,0.5,0.6,0.8,0.6c0.1,0,0.1,0,0.2,0
					s5.9-1.5,10.7-0.4c0.5,0.1,0.9-0.2,1-0.6C38.8,28.7,38.5,28.2,38,28.1z"/>
				<path class="st0" d="M46.5,41.8c0.2,0.3,0.5,0.5,0.8,0.5c0.1,0,0.3,0,0.4-0.1c0.1,0,5.1-2.6,7.6-3.4c0.5-0.1,0.7-0.6,0.6-1.1
					c-0.1-0.5-0.6-0.7-1.1-0.6c-2.6,0.8-7.6,3.4-7.9,3.5C46.5,40.8,46.3,41.4,46.5,41.8z"/>
				<path class="st0" d="M38,33.3c-5.3-1.2-11.3,0.3-11.6,0.4c-0.5,0.1-0.7,0.6-0.6,1.1c0.1,0.4,0.5,0.6,0.8,0.6c0.1,0,0.1,0,0.2,0
					s5.9-1.5,10.7-0.4c0.5,0.1,0.9-0.2,1-0.6C38.8,33.9,38.5,33.4,38,33.3z"/>
				<path class="st0" d="M38,43.6c-5.3-1.2-11.3,0.3-11.6,0.4c-0.5,0.1-0.7,0.6-0.6,1.1c0.1,0.4,0.5,0.6,0.8,0.6c0.1,0,0.1,0,0.2,0
					s5.9-1.5,10.7-0.4c0.5,0.1,0.9-0.2,1-0.6C38.8,44.2,38.5,43.7,38,43.6z"/>
				<path class="st0" d="M38,38.4c-5.3-1.2-11.3,0.3-11.6,0.4c-0.5,0.1-0.7,0.6-0.6,1.1c0.1,0.4,0.5,0.6,0.8,0.6c0.1,0,0.1,0,0.2,0
					s5.9-1.5,10.7-0.4c0.5,0.1,0.9-0.2,1-0.6C38.8,39,38.5,38.5,38,38.4z"/>
			</g>
		</g>
	</g>
	<g>
		<path class="st0" d="M15.3,73.6h-1.9v-8.4h1.9V73.6z"/>
		<path class="st0" d="M22.9,73.6H21v-2.5h-2.1v2.5H17v-6h1.9v2.2H21v-2.2h1.9V73.6z"/>
		<path class="st0" d="M29,73.4c-0.4,0.2-1,0.4-1.8,0.4c-0.9,0-1.7-0.3-2.2-0.8s-0.9-1.3-0.9-2.2c0-1,0.3-1.8,0.9-2.4
			s1.4-0.9,2.5-0.9c0.7,0,1.2,0.1,1.5,0.3v1.6c-0.4-0.3-0.8-0.4-1.3-0.4s-1,0.2-1.3,0.5s-0.5,0.7-0.5,1.3c0,0.5,0.1,0.9,0.4,1.3
			s0.7,0.5,1.2,0.5s0.9-0.1,1.4-0.4L29,73.4L29,73.4z"/>
		<path class="st0" d="M34.7,69h-1.6v4.6h-1.9V69h-1.6v-1.4h5.1V69z"/>
		<path class="st0" d="M37.5,72.9L37.5,72.9v3.5h-1.9v-8.8h1.9v0.9l0,0c0.5-0.7,1.1-1,1.9-1c0.8,0,1.4,0.3,1.8,0.8s0.6,1.3,0.6,2.2
			c0,1-0.2,1.8-0.7,2.4s-1.2,0.9-2,0.9C38.4,73.7,37.9,73.4,37.5,72.9z M37.5,70.4v0.5c0,0.4,0.1,0.8,0.3,1s0.5,0.4,0.9,0.4
			s0.7-0.2,1-0.5S40,71,40,70.4c0-1.1-0.4-1.6-1.2-1.6c-0.4,0-0.7,0.1-0.9,0.4S37.5,69.9,37.5,70.4z"/>
		<path class="st0" d="M48.8,67.6l-2.4,6.5c-0.6,1.6-1.5,2.3-2.6,2.3c-0.4,0-0.8-0.1-1.1-0.2v-1.5c0.2,0.1,0.5,0.2,0.8,0.2
			c0.5,0,0.8-0.2,1-0.7l0.3-0.7l-2.4-6h2.1l1.1,3.7c0.1,0.2,0.1,0.5,0.2,0.8l0,0c0-0.2,0.1-0.5,0.2-0.8l1.1-3.7L48.8,67.6L48.8,67.6
			z"/>
		<path class="st0" d="M55.5,73.6h-2.2l-1.9-2.9l0,0v2.9h-1.9v-6h1.9v2.8l0,0l1.8-2.8h2.2l-2.2,2.9L55.5,73.6z"/>
		<path class="st0" d="M63,75.8h-1.5v-2.2h-5.2v-6h1.9v4.7h2.1v-4.7H62v4.7h1V75.8z"/>
		<path class="st0" d="M65,66.6c-0.3,0-0.6-0.1-0.8-0.3s-0.3-0.4-0.3-0.7c0-0.3,0.1-0.5,0.3-0.7c0.2-0.2,0.5-0.3,0.8-0.3
			s0.6,0.1,0.8,0.3s0.3,0.4,0.3,0.7c0,0.3-0.1,0.5-0.3,0.7S65.3,66.6,65,66.6z M65.9,73.6H64v-6h1.9V73.6z"/>
		<path class="st0" d="M72.7,73.6h-1.8v-2.2h-0.4c-0.3,0-0.6,0.3-0.9,0.9L69,73.6h-2.1l0.9-1.7c0.3-0.5,0.6-0.8,1.1-1
			c-1-0.2-1.5-0.7-1.5-1.6c0-1.2,0.9-1.8,2.6-1.8h2.8v6.1H72.7z M70.9,70.2v-1.5h-0.7c-0.6,0-1,0.2-1,0.7s0.3,0.7,1,0.7h0.7V70.2z"
			/>
	</g>
</g>
</svg>
