<?xml version="1.0" encoding="utf-8"?>
<!-- Generator: Adobe Illustrator 15.0.2, SVG Export Plug-In . SVG Version: 6.00 Build 0)  -->
<!DOCTYPE svg PUBLIC "-//W3C//DTD SVG 1.1//EN" "http://www.w3.org/Graphics/SVG/1.1/DTD/svg11.dtd">
<svg version="1.1" id="Layer_1" xmlns="http://www.w3.org/2000/svg" xmlns:xlink="http://www.w3.org/1999/xlink" x="0px" y="0px"
	 width="69px" height="69px" viewBox="0 0 69 69" enable-background="new 0 0 69 69" xml:space="preserve">
<path fill="#234D7D" d="M60.864,49.392l-11.47,11.473c-1.379,1.376-3.217,2.135-5.175,2.135c-1.962,0-3.8-0.759-5.175-2.135
	L18.396,40.217c-1.378-1.379-2.137-3.217-2.137-5.176c0-0.65,0.086-1.285,0.247-1.896c-1.224,0-2.377-0.475-3.238-1.338
	c-0.867-0.864-1.341-2.018-1.341-3.245c0-0.989,0.308-1.927,0.875-2.705c-1.724-2.131-1.554-3.849-1.416-5.258
	c0.154-1.526,0.284-2.844-2.017-5.147l-1.11-1.107c-1.678-1.678-1.678-4.407,0-6.084c0.814-0.812,1.894-1.262,3.044-1.262
	c1.147,0,2.227,0.45,3.041,1.262l1.107,1.109c1.841,1.838,3.022,2.091,4.028,2.091c0.367,0,0.731-0.033,1.12-0.073
	c0.417-0.04,0.845-0.084,1.301-0.084c1.443,0,2.696,0.47,3.957,1.499c0.78-0.57,1.718-0.875,2.705-0.875
	c1.227,0,2.38,0.475,3.244,1.338s1.338,2.014,1.341,3.241c0.611-0.16,1.246-0.246,1.894-0.246c1.962,0,3.801,0.758,5.176,2.137
	l20.647,20.646C63.717,41.897,63.717,46.539,60.864,49.392L60.864,49.392z M21.903,13.635c-0.342,0-0.697,0.037-1.073,0.074
	c-0.426,0.043-0.867,0.086-1.351,0.086c-2.005,0-3.756-0.857-5.675-2.775l-1.11-1.11c-0.374-0.373-0.867-0.577-1.391-0.577
	c-0.527,0-1.021,0.204-1.394,0.577c-0.768,0.768-0.768,2.018,0,2.785l1.11,1.107c3.084,3.084,2.865,5.271,2.689,7.028
	c-0.117,1.172-0.207,2.079,0.719,3.321l9.724-9.721C23.232,13.749,22.529,13.635,21.903,13.635L21.903,13.635z M30.156,14.915
	c-0.422-0.423-0.99-0.657-1.594-0.657c-0.608,0-1.172,0.234-1.598,0.657l-0.277,0.28c-0.003,0.003-0.003,0.003-0.003,0.003
	L15.198,26.681c0,0.003,0,0.003-0.003,0.003l-0.278,0.28c-0.425,0.423-0.657,0.99-0.657,1.595c0,0.607,0.231,1.172,0.657,1.598
	c0.423,0.423,0.99,0.657,1.595,0.657s1.172-0.234,1.594-0.657l12.05-12.05c0.422-0.422,0.657-0.989,0.657-1.595
	C30.813,15.904,30.579,15.34,30.156,14.915L30.156,14.915z M59.215,40.691L39.393,20.87l-3.037,3.038
	c-0.226,0.228-0.524,0.342-0.824,0.342c-0.299,0-0.598-0.114-0.826-0.342c-0.453-0.457-0.453-1.193,0-1.65l2.939-2.938
	c-0.774-0.473-1.666-0.726-2.604-0.726c-1.335,0-2.587,0.516-3.525,1.453l-11.47,11.47c-0.938,0.938-1.453,2.189-1.453,3.524
	c0,0.935,0.253,1.829,0.728,2.604l4.589-4.589c0.453-0.457,1.193-0.457,1.649,0c0.454,0.453,0.454,1.193,0,1.649l-4.688,4.688
	l3.51,3.509l4.688-4.688c0.456-0.456,1.196-0.456,1.65,0c0.457,0.457,0.457,1.193,0,1.65l-4.688,4.688l3.513,3.513l4.688-4.688
	c0.457-0.456,1.193-0.456,1.649,0c0.457,0.456,0.457,1.193,0,1.649l-4.688,4.688l3.513,3.51l4.688-4.688
	c0.453-0.453,1.193-0.453,1.649,0c0.454,0.457,0.454,1.197,0,1.65l-4.688,4.688l3.51,3.513l5.326-5.326
	c0.456-0.456,1.193-0.456,1.649,0c0.457,0.457,0.457,1.194,0,1.65l-5.227,5.228c0.773,0.472,1.668,0.728,2.603,0.728
	c1.335,0,2.587-0.518,3.524-1.452l11.471-11.473C61.157,45.799,61.157,42.638,59.215,40.691L59.215,40.691z M49.234,52.321
	l-0.019,0.021c-0.228,0.229-0.527,0.34-0.827,0.34c-0.299,0-0.595-0.111-0.822-0.34c-0.457-0.456-0.457-1.196,0-1.649l0.018-0.021
	c0.457-0.453,1.193-0.453,1.65,0C49.691,51.128,49.691,51.868,49.234,52.321L49.234,52.321z M33.98,26.282l-0.019,0.022
	c-0.228,0.222-0.524,0.333-0.82,0.333c-0.302,0-0.602-0.114-0.83-0.346c-0.454-0.46-0.447-1.2,0.012-1.65l0.019-0.021
	c0.459-0.45,1.196-0.443,1.65,0.013C34.446,25.092,34.44,25.832,33.98,26.282L33.98,26.282z"/>
</svg>
