<?xml version="1.0" encoding="utf-8"?>
<!-- Generator: Adobe Illustrator 15.0.2, SVG Export Plug-In . SVG Version: 6.00 Build 0)  -->
<!DOCTYPE svg PUBLIC "-//W3C//DTD SVG 1.1//EN" "http://www.w3.org/Graphics/SVG/1.1/DTD/svg11.dtd">
<svg version="1.1" id="Layer_1" xmlns="http://www.w3.org/2000/svg" xmlns:xlink="http://www.w3.org/1999/xlink" x="0px" y="0px"
	 width="149.75px" height="127.5px" viewBox="0 0 149.75 127.5" enable-background="new 0 0 149.75 127.5" xml:space="preserve">
<g>
	<g>
		<path fill="#FFFFFF" d="M27.629,59.076c-1.022,0-1.854-0.832-1.854-1.854v-9.361c0-1.021,0.832-1.854,1.854-1.854h1.508v-4h-1.508
			c-3.228,0-5.854,2.626-5.854,5.854v9.361c0,3.228,2.626,5.854,5.854,5.854h14.449v-4H27.629z"/>
		<path fill="#FFFFFF" d="M46.756,42.007H32.991v4h13.765c1.021,0,1.854,0.832,1.854,1.854v9.359c0,1.022-0.832,1.854-1.854,1.854
			h-0.824v4h0.824c3.229,0,5.854-2.626,5.854-5.854v-9.359C52.609,44.633,49.984,42.007,46.756,42.007z"/>
	</g>
	<g>
		<path fill="none" d="M24.479,92.869h25.425c12.113-26.006,11.342-62.578,12.113-79.703h-49.65
			C13.142,30.294,13.943,64.031,24.479,92.869z"/>
	</g>
	<g>
		<rect x="22.975" y="13.167" fill="#FFFFFF" width="4" height="9.259"/>
	</g>
	<g>
		<rect x="30.801" y="13.167" fill="#FFFFFF" width="4" height="9.259"/>
	</g>
	<g>
		<rect x="38.627" y="13.167" fill="#FFFFFF" width="4" height="9.259"/>
	</g>
	<g>
		<rect x="46.453" y="13.167" fill="#FFFFFF" width="4" height="9.259"/>
	</g>
	<g>
		<rect x="54.279" y="13.167" fill="#FFFFFF" width="4" height="9.259"/>
	</g>
	<g>
		<rect x="15.148" y="13.167" fill="#FFFFFF" width="4" height="9.259"/>
	</g>
	<g>
		<path fill="none" stroke="#030203" stroke-width="3.6332" stroke-miterlimit="10" d="M42.331,94.125"/>
		<path fill="none" stroke="#030203" stroke-width="3.6332" stroke-miterlimit="10" d="M53.857,94.125"/>
	</g>
	<path fill="none" d="M94.643,73.414v3.172h3.604c4.801,0,8.707,3.906,8.707,8.707v21.563h21.092c0.369,0,0.903-0.584,0.903-1.5
		c0-0.272-0.051-0.537-0.151-0.783c-0.394-0.954-0.163-2.057,0.579-2.776c7.549-7.323,11.878-18.146,11.878-29.685
		c0-15.092-7.508-28.832-19.131-35.004c-0.826-0.439-1.345-1.299-1.345-2.235v-2c0-1.994-1.262-3.678-2.756-3.678H99.941
		c-1.496,0-2.76,1.684-2.76,3.678v2c0,0.937-0.517,1.796-1.345,2.235c-9.683,5.143-16.491,15.545-18.5,27.602h8.601
		C90.736,64.707,94.643,68.613,94.643,73.414z"/>
	<path fill="none" d="M35.693,114.668c0,2.044,1.663,3.707,3.707,3.707h58.847c2.044,0,3.707-1.663,3.707-3.707v-0.66h-66.26
		L35.693,114.668L35.693,114.668z"/>
	<rect x="104.822" y="17.216" fill="none" width="8.316" height="6.913"/>
	<path fill="none" d="M123.645,10.663c0-0.852-0.504-1.49-0.955-1.49H96.46c-4.354,0.112-9.433,0.438-14.112,1.988
		c-0.568,0.189-1.572,0.825-1.172,2.152c0.439,1.44,1.877,0.882,2.03,0.832c3.917-1.259,7.396-1.991,13.563-1.991h25.922
		C123.141,12.154,123.645,11.516,123.645,10.663z"/>
	<g>
		<path fill="none" d="M39.399,76.586h3.604v-3.172c0-4.801,3.906-8.707,8.707-8.707h6.498c3.463-19.893,3.294-40.075,3.812-51.541
			h-49.65c0.774,17.128,1.575,50.865,12.112,79.703h6.213v-7.576C30.693,80.492,34.599,76.586,39.399,76.586z"/>
		<path fill="none" d="M35.693,114.594v0.074c0,2.044,1.663,3.707,3.707,3.707h58.847c2.044,0,3.707-1.663,3.707-3.707v-0.66H48.909
			c-0.796,0.325-1.649,0.533-2.548,0.584C46.355,114.594,40.716,114.594,35.693,114.594z"/>
		<path fill="none" d="M25.233,98v8.418c0,2.008,1.627,3.633,3.633,3.633h1.826V98H25.233z"/>
		<path fill="#FFFFFF" d="M67.055,9.838c-0.025-1.289-1.078-2.321-2.367-2.321H9.698c-1.29,0-2.342,1.033-2.368,2.321
			C7.328,9.965,7.1,22.823,8.616,39.758c1.396,15.559,4.597,37.846,11.91,55.979v10.924c0,4.229,3.325,7.699,7.498,7.936
			c0.002,0,1.065,0,2.669,0v-4.541h-1.826c-2.006,0-3.633-1.625-3.633-3.635V98h5.459v-5.131H24.48
			C16.882,72.074,14.347,48.734,13.233,30.91H44.45v-4H13c-0.284-5.25-0.459-9.914-0.632-13.743h49.649
			c-0.17,3.773-0.268,8.504-0.442,13.845V26.91H50.609v4h10.824c-0.399,10.121-1.174,22.003-3.227,33.797h4.209
			c1.658-9.04,2.704-17.723,3.352-24.949C67.287,22.823,67.057,9.965,67.055,9.838z"/>
	</g>
	<g>
		<path fill="#FFFFFF" d="M106.501,82.543c-1.155-3.456-4.415-5.957-8.255-5.957h-3.604v-3.172c0-2.673-1.213-5.066-3.115-6.665
			c-1.114-0.937-2.467-1.599-3.951-1.882c-0.531-0.102-1.078-0.16-1.641-0.16h-8.6h-5.118h-9.802h-4.209H51.71
			c-4.801,0-8.707,3.906-8.707,8.707v3.172h-3.604c-4.801,0-8.707,3.906-8.707,8.707v7.576V98v12.051v4.542v0.075
			c0,4.801,3.906,8.707,8.707,8.707h58.847c4.801,0,8.707-3.906,8.707-8.707v-2.752v-5.063V86.541v-1.25
			C106.953,84.331,106.79,83.408,106.501,82.543z M48.003,73.414c0-2.044,1.663-3.707,3.707-3.707h5.547h4.187h10.277h5.063h9.152
			c0.57,0,1.106,0.141,1.592,0.373c1.246,0.598,2.115,1.861,2.115,3.334v3.172h-2.115H76.932h-5.084H59.887h-4.242h-7.643
			L48.003,73.414L48.003,73.414z M101.953,114.668c0,2.044-1.663,3.707-3.707,3.707H39.399c-2.044,0-3.707-1.663-3.707-3.707v-0.074
			v-0.586h13.216h53.044L101.953,114.668L101.953,114.668z M101.953,86.543v1.564H79.658h-5.014v1.037v2.963h1.197h5.61h20.5v14.746
			v3.152h-16.19H53.107h-7.162H35.693V98v-5.131v-0.762h14.551h3.439v-4h-1.75H35.693v-2.814c0-2.044,1.663-3.707,3.707-3.707h14.81
			h4.382h13.957h5.169h10.29h4.688h5.553c0.947,0,1.809,0.369,2.463,0.957c0.758,0.68,1.244,1.654,1.244,2.75L101.953,86.543
			L101.953,86.543z"/>
		<rect x="58.208" y="88.107" fill="#FFFFFF" width="10.614" height="4"/>
	</g>
	<g>
		<path fill="#FFFFFF" d="M104.889,61.797h17.957c1.979,0,3.588,1.609,3.588,3.588v13.568c0,1.979-1.607,3.59-3.588,3.59h-1.197v4
			h1.197c4.184,0,7.588-3.404,7.588-7.59V65.385c0-4.184-3.404-7.588-7.588-7.588h-17.957V61.797z"/>
		<path fill="#FFFFFF" d="M146.314,72.109c0-16.359-7.986-31.373-20.475-38.722v-0.516c0-4.752-3.408-8.628-7.64-8.737v-6.918h4.485
			c3.318,0,6.021-2.94,6.021-6.552c0-3.614-2.7-6.554-6.021-6.554H96.42c-0.02,0-0.042,0-0.063,0.002
			C91.626,4.232,86.07,4.594,80.75,6.354c-1.865,0.62-3.326,1.856-4.111,3.482c-0.779,1.614-0.857,3.462-0.223,5.209
			c0.91,2.496,3.5,4.237,6.296,4.237c0.69,0,1.373-0.104,2.033-0.316c3.526-1.134,6.487-1.75,12.021-1.75h2.992v6.918
			c-4.229,0.108-7.641,3.985-7.641,8.736v0.517c-10.569,6.222-17.896,17.945-19.901,31.32h5.118
			c2.008-12.055,8.818-22.458,18.5-27.602c0.828-0.439,1.344-1.299,1.344-2.235v-2c0-1.994,1.264-3.678,2.76-3.678h18.082
			c1.494,0,2.756,1.684,2.756,3.678v2c0,0.937,0.52,1.796,1.346,2.235c11.623,6.172,19.131,19.912,19.131,35.004
			c0,11.539-4.329,22.358-11.878,29.685c-0.742,0.722-0.974,1.822-0.579,2.776c0.102,0.246,0.15,0.511,0.15,0.783
			c0,0.916-0.533,1.5-0.902,1.5h-21.092v5.063h21.092c3.289,0,5.965-2.943,5.965-6.563c0-0.33-0.021-0.656-0.063-0.979
			C141.825,96.145,146.314,84.477,146.314,72.109z M113.139,24.129h-8.314v-6.913h8.314V24.129z M96.768,12.154
			c-6.168,0-9.646,0.731-13.563,1.991c-0.154,0.05-1.592,0.608-2.03-0.832c-0.401-1.327,0.603-1.963,1.171-2.152
			c4.682-1.549,9.76-1.876,14.113-1.988h26.23c0.451,0,0.955,0.638,0.955,1.49c0,0.854-0.504,1.491-0.955,1.491H96.768z"/>
		<path fill="#FFFFFF" d="M100.303,61.797v-4h-2.188c-4.01,0-10.041,3.128-10.539,7.07c1.484,0.283,2.837,0.945,3.951,1.882v-1.364
			c0-1.979,4.609-3.588,6.588-3.588H100.303z"/>
		<path fill="#FFFFFF" d="M106.953,86.543h9.109v-4H106.5c0.289,0.865,0.452,1.788,0.452,2.75L106.953,86.543L106.953,86.543z"/>
		<rect x="108.078" y="33.905" fill="#FFFFFF" width="8.045" height="4"/>
	</g>
</g>
</svg>
