<?xml version="1.0" encoding="utf-8"?>
<!-- Generator: Adobe Illustrator 15.0.2, SVG Export Plug-In . SVG Version: 6.00 Build 0)  -->
<!DOCTYPE svg PUBLIC "-//W3C//DTD SVG 1.1//EN" "http://www.w3.org/Graphics/SVG/1.1/DTD/svg11.dtd">
<svg version="1.1" id="Layer_1" xmlns="http://www.w3.org/2000/svg" xmlns:xlink="http://www.w3.org/1999/xlink" x="0px" y="0px"
	 width="69px" height="69px" viewBox="0 0 69 69" enable-background="new 0 0 69 69" xml:space="preserve">
<g>
	<g>
		<defs>
			<path id="SVGID_1_" d="M32.982,53.693c-0.583,0-1.055-0.479-1.055-1.067V14.063c0-0.586,0.472-1.063,1.055-1.063
				c0.586,0,1.058,0.478,1.058,1.063v38.563C34.04,53.215,33.568,53.693,32.982,53.693L32.982,53.693z M36.942,48.262
				c-0.586,0-1.058-0.475-1.058-1.063V14.063c0-0.586,0.472-1.063,1.058-1.063c0.583,0,1.055,0.478,1.055,1.063v33.136
				C37.997,47.787,37.525,48.262,36.942,48.262L36.942,48.262z M40.899,48.262c-0.583,0-1.059-0.475-1.059-1.063V34.421
				c0-0.589,0.476-1.064,1.059-1.064c0.582,0,1.055,0.475,1.055,1.064v12.777C41.954,47.787,41.481,48.262,40.899,48.262
				L40.899,48.262z M40.899,31.164c-0.583,0-1.059-0.478-1.059-1.064V14.063c0-0.586,0.476-1.063,1.059-1.063
				c0.582,0,1.055,0.478,1.055,1.063V30.1C41.954,30.686,41.481,31.164,40.899,31.164L40.899,31.164z M48.813,34.998
				c-0.583,0-1.055-0.475-1.055-1.064V14.063c0-0.586,0.472-1.063,1.055-1.063s1.058,0.478,1.058,1.063v19.871
				C49.87,34.522,49.396,34.998,48.813,34.998L48.813,34.998z M44.855,48.262c-0.582,0-1.058-0.475-1.058-1.063V14.063
				c0-0.586,0.476-1.063,1.058-1.063c0.583,0,1.056,0.478,1.056,1.063v33.136C45.911,47.787,45.438,48.262,44.855,48.262
				L44.855,48.262z M66.654,57.688c-0.207,0.207-0.479,0.312-0.746,0.312c-0.271,0-0.543-0.104-0.75-0.312l-3.531-3.559
				c-1.508,1.189-3.353,1.838-5.298,1.838c-2.301,0-4.463-0.904-6.092-2.545c-1.628-1.641-2.522-3.821-2.522-6.141
				c0-0.293,0.013-0.582,0.043-0.869v-7.717c0-0.586,0.472-1.064,1.055-1.064s1.058,0.479,1.058,1.064v2.844
				c0.118-0.133,0.241-0.269,0.367-0.395c0.453-0.46,0.95-0.854,1.478-1.193V14.063c0-0.586,0.472-1.063,1.055-1.063
				s1.058,0.478,1.058,1.063v24.908c0.799-0.244,1.642-0.371,2.502-0.371c0.379,0,0.755,0.028,1.125,0.074V14.063
				c0-0.586,0.472-1.063,1.055-1.063c0.587,0,1.058,0.478,1.058,1.063v25.17c1.056,0.432,2.023,1.076,2.854,1.912
				c0.049,0.046,0.093,0.096,0.139,0.145V14.063c0-0.586,0.475-1.063,1.058-1.063s1.055,0.478,1.055,1.063v30.9
				c0,0.039-0.003,0.08-0.006,0.119c0.182,0.71,0.28,1.447,0.28,2.199c0,1.962-0.645,3.821-1.825,5.342l3.534,3.559
				C67.064,56.599,67.064,57.271,66.654,57.688L66.654,57.688z M60.927,42.649c-0.765-0.771-1.687-1.327-2.692-1.635
				c-0.019-0.007-0.036-0.009-0.055-0.015c-0.593-0.18-1.216-0.271-1.851-0.271c-1.077,0-2.116,0.265-3.041,0.758
				c-0.013,0.006-0.024,0.013-0.037,0.019c-0.553,0.302-1.064,0.685-1.521,1.145c-1.228,1.236-1.903,2.884-1.903,4.632
				c0,1.752,0.676,3.396,1.903,4.636c1.23,1.236,2.862,1.918,4.599,1.918s3.37-0.682,4.598-1.918
				c1.228-1.24,1.906-2.884,1.906-4.636C62.833,45.533,62.154,43.886,60.927,42.649L60.927,42.649z M10.215,52.854
				c-0.089,0.229-0.247,0.417-0.475,0.558c-0.228,0.146-0.53,0.217-0.9,0.217c-0.361,0-0.657-0.063-0.885-0.188
				c-0.231-0.124-0.395-0.306-0.493-0.543c-0.096-0.237-0.145-0.563-0.145-0.975v-2.245h0.509v2.242c0,0.34,0.031,0.586,0.093,0.746
				s0.169,0.284,0.32,0.371c0.151,0.086,0.336,0.129,0.556,0.129c0.376,0,0.644-0.086,0.801-0.256
				c0.161-0.173,0.241-0.503,0.241-0.99v-2.242h0.509v2.245C10.345,52.314,10.302,52.623,10.215,52.854L10.215,52.854z
				 M13.796,53.564l-0.45-1.179h-1.61l-0.422,1.179h-0.543l1.48-3.887H12.8l1.579,3.887H13.796L13.796,53.564z M12.788,50.893
				c-0.124-0.326-0.213-0.595-0.274-0.805c-0.049,0.247-0.117,0.493-0.207,0.74l-0.422,1.141h1.305L12.788,50.893L12.788,50.893z
				 M29.479,53.693c-0.583,0-1.055-0.479-1.055-1.067V14.063c0-0.586,0.472-1.063,1.055-1.063s1.058,0.478,1.058,1.063v38.563
				C30.537,53.215,30.062,53.693,29.479,53.693L29.479,53.693z M17.087,53c-0.583,0-1.055-0.479-1.055-1.064V14.063
				c0-0.586,0.472-1.063,1.055-1.063c0.583,0,1.055,0.478,1.055,1.063v37.873C18.142,52.521,17.669,53,17.087,53L17.087,53z
				 M21.043,48.262c-0.583,0-1.055-0.475-1.055-1.063V34.421c0-0.589,0.472-1.064,1.055-1.064c0.583,0,1.058,0.475,1.058,1.064
				v12.777C22.102,47.787,21.626,48.262,21.043,48.262L21.043,48.262z M21.043,31.164c-0.583,0-1.055-0.478-1.055-1.064V14.063
				c0-0.586,0.472-1.063,1.055-1.063c0.583,0,1.058,0.478,1.058,1.063V30.1C22.102,30.686,21.626,31.164,21.043,31.164
				L21.043,31.164z M25,48.262c-0.583,0-1.055-0.475-1.055-1.063V14.063c0-0.586,0.472-1.063,1.055-1.063
				c0.586,0,1.058,0.478,1.058,1.063v33.136C26.058,47.787,25.586,48.262,25,48.262L25,48.262z M4.072,53
				c-0.583,0-1.055-0.479-1.055-1.064V14.063c0-0.586,0.472-1.063,1.055-1.063c0.583,0,1.058,0.478,1.058,1.063v37.873
				C5.13,52.521,4.655,53,4.072,53L4.072,53z M8.029,48.262c-0.583,0-1.055-0.475-1.055-1.063V34.421
				c0-0.589,0.472-1.064,1.055-1.064s1.058,0.475,1.058,1.064v12.777C9.087,47.787,8.612,48.262,8.029,48.262L8.029,48.262z
				 M8.029,31.164c-0.583,0-1.055-0.478-1.055-1.064V14.063c0-0.586,0.472-1.063,1.055-1.063s1.058,0.478,1.058,1.063V30.1
				C9.087,30.686,8.612,31.164,8.029,31.164L8.029,31.164z M11.985,48.262c-0.583,0-1.055-0.475-1.055-1.063V14.063
				c0-0.586,0.472-1.063,1.055-1.063c0.586,0,1.058,0.478,1.058,1.063v33.136C13.043,47.787,12.572,48.262,11.985,48.262
				L11.985,48.262z"/>
		</defs>
		<use xlink:href="#SVGID_1_"  overflow="visible" fill="#234D7D"/>
		<clipPath id="SVGID_2_">
			<use xlink:href="#SVGID_1_"  overflow="visible"/>
		</clipPath>
	</g>
</g>
</svg>
