<?xml version="1.0" encoding="utf-8"?>
<!-- Generator: Adobe Illustrator 15.0.2, SVG Export Plug-In . SVG Version: 6.00 Build 0)  -->
<!DOCTYPE svg PUBLIC "-//W3C//DTD SVG 1.1//EN" "http://www.w3.org/Graphics/SVG/1.1/DTD/svg11.dtd">
<svg version="1.1" id="Layer_1" xmlns="http://www.w3.org/2000/svg" xmlns:xlink="http://www.w3.org/1999/xlink" x="0px" y="0px"
	 width="69px" height="69px" viewBox="0 0 69 69" enable-background="new 0 0 69 69" xml:space="preserve">
<g>
	<g>
		<g>
			<path id="SVGID_1_" fill="#FFFFFF" d="M32.982,53.693c-0.583,0-1.055-0.479-1.055-1.067V14.063c0-0.586,0.472-1.063,1.055-1.063
				c0.586,0,1.058,0.478,1.058,1.063v38.563C34.04,53.215,33.568,53.693,32.982,53.693L32.982,53.693z M36.941,48.262
				c-0.586,0-1.058-0.475-1.058-1.063V14.063c0-0.586,0.472-1.063,1.058-1.063c0.584,0,1.056,0.478,1.056,1.063v33.136
				C37.997,47.787,37.525,48.262,36.941,48.262L36.941,48.262z M40.898,48.262c-0.582,0-1.059-0.475-1.059-1.063V34.421
				c0-0.589,0.477-1.064,1.059-1.064s1.056,0.475,1.056,1.064v12.776C41.954,47.787,41.48,48.262,40.898,48.262L40.898,48.262z
				 M40.898,31.164c-0.582,0-1.059-0.478-1.059-1.064V14.063c0-0.586,0.477-1.063,1.059-1.063s1.056,0.478,1.056,1.063V30.1
				C41.954,30.686,41.48,31.164,40.898,31.164L40.898,31.164z M48.813,34.998c-0.582,0-1.055-0.475-1.055-1.064V14.063
				c0-0.586,0.473-1.063,1.055-1.063c0.584,0,1.059,0.478,1.059,1.063v19.871C49.87,34.522,49.396,34.998,48.813,34.998
				L48.813,34.998z M44.855,48.262c-0.582,0-1.059-0.475-1.059-1.063V14.063c0-0.586,0.477-1.063,1.059-1.063
				s1.056,0.478,1.056,1.063v33.136C45.911,47.787,45.438,48.262,44.855,48.262L44.855,48.262z M66.654,57.688
				C66.447,57.895,66.175,58,65.908,58c-0.271,0-0.543-0.104-0.75-0.313l-3.531-3.559c-1.508,1.189-3.354,1.838-5.298,1.838
				c-2.302,0-4.463-0.904-6.093-2.545c-1.627-1.641-2.521-3.82-2.521-6.141c0-0.293,0.014-0.582,0.043-0.869v-7.717
				c0-0.586,0.473-1.064,1.055-1.064c0.584,0,1.059,0.479,1.059,1.064v2.844c0.117-0.133,0.24-0.27,0.367-0.395
				c0.453-0.461,0.949-0.854,1.478-1.193V14.063c0-0.586,0.472-1.063,1.056-1.063c0.582,0,1.058,0.478,1.058,1.063v24.908
				c0.799-0.244,1.642-0.371,2.502-0.371c0.379,0,0.755,0.028,1.125,0.074V14.063c0-0.586,0.472-1.063,1.056-1.063
				c0.586,0,1.057,0.478,1.057,1.063v25.169c1.057,0.433,2.023,1.076,2.854,1.912c0.05,0.047,0.093,0.097,0.14,0.146V14.063
				c0-0.586,0.475-1.063,1.058-1.063s1.055,0.478,1.055,1.063v30.9c0,0.039-0.003,0.08-0.006,0.119
				c0.183,0.71,0.28,1.447,0.28,2.199c0,1.962-0.645,3.82-1.825,5.342l3.534,3.559C67.064,56.6,67.064,57.271,66.654,57.688
				L66.654,57.688z M60.928,42.648c-0.766-0.771-1.688-1.326-2.693-1.635c-0.019-0.007-0.035-0.009-0.055-0.015
				c-0.593-0.181-1.216-0.271-1.851-0.271c-1.077,0-2.116,0.265-3.041,0.758c-0.013,0.006-0.024,0.013-0.037,0.019
				c-0.554,0.302-1.063,0.685-1.521,1.146c-1.229,1.236-1.903,2.884-1.903,4.631c0,1.753,0.676,3.396,1.903,4.637
				c1.229,1.236,2.861,1.918,4.599,1.918s3.37-0.682,4.599-1.918c1.227-1.24,1.905-2.884,1.905-4.637
				C62.833,45.533,62.154,43.887,60.928,42.648L60.928,42.648z M10.215,52.854c-0.089,0.229-0.247,0.418-0.475,0.559
				c-0.228,0.146-0.53,0.217-0.9,0.217c-0.361,0-0.657-0.063-0.885-0.188c-0.231-0.125-0.395-0.307-0.493-0.543
				c-0.096-0.237-0.145-0.563-0.145-0.976v-2.245h0.509v2.242c0,0.34,0.031,0.586,0.093,0.746s0.169,0.284,0.32,0.371
				c0.151,0.086,0.336,0.129,0.556,0.129c0.376,0,0.644-0.086,0.801-0.256c0.161-0.174,0.241-0.504,0.241-0.99v-2.242h0.509v2.245
				C10.345,52.314,10.302,52.623,10.215,52.854L10.215,52.854z M13.796,53.564l-0.45-1.18h-1.61l-0.422,1.18h-0.543l1.48-3.887H12.8
				l1.579,3.887H13.796L13.796,53.564z M12.788,50.893c-0.124-0.326-0.213-0.595-0.274-0.805c-0.049,0.247-0.117,0.493-0.207,0.74
				l-0.422,1.141h1.305L12.788,50.893L12.788,50.893z M29.479,53.693c-0.583,0-1.055-0.479-1.055-1.067V14.063
				c0-0.586,0.472-1.063,1.055-1.063s1.058,0.478,1.058,1.063v38.563C30.537,53.215,30.062,53.693,29.479,53.693L29.479,53.693z
				 M17.087,53c-0.583,0-1.055-0.479-1.055-1.064V14.063c0-0.586,0.472-1.063,1.055-1.063s1.055,0.478,1.055,1.063v37.873
				C18.142,52.521,17.669,53,17.087,53L17.087,53z M21.043,48.262c-0.583,0-1.055-0.475-1.055-1.063V34.421
				c0-0.589,0.472-1.064,1.055-1.064s1.058,0.475,1.058,1.064v12.776C22.102,47.787,21.626,48.262,21.043,48.262L21.043,48.262z
				 M21.043,31.164c-0.583,0-1.055-0.478-1.055-1.064V14.063c0-0.586,0.472-1.063,1.055-1.063s1.058,0.478,1.058,1.063V30.1
				C22.102,30.686,21.626,31.164,21.043,31.164L21.043,31.164z M25,48.262c-0.583,0-1.055-0.475-1.055-1.063V14.063
				C23.945,13.477,24.417,13,25,13c0.586,0,1.058,0.478,1.058,1.063v33.136C26.058,47.787,25.586,48.262,25,48.262L25,48.262z
				 M4.072,53c-0.583,0-1.055-0.479-1.055-1.064V14.063C3.017,13.477,3.489,13,4.072,13s1.058,0.478,1.058,1.063v37.873
				C5.13,52.521,4.655,53,4.072,53L4.072,53z M8.029,48.262c-0.583,0-1.055-0.475-1.055-1.063V34.421
				c0-0.589,0.472-1.064,1.055-1.064s1.058,0.475,1.058,1.064v12.776C9.087,47.787,8.612,48.262,8.029,48.262L8.029,48.262z
				 M8.029,31.164c-0.583,0-1.055-0.478-1.055-1.064V14.063C6.974,13.477,7.446,13,8.029,13s1.058,0.478,1.058,1.063V30.1
				C9.087,30.686,8.612,31.164,8.029,31.164L8.029,31.164z M11.985,48.262c-0.583,0-1.055-0.475-1.055-1.063V14.063
				c0-0.586,0.472-1.063,1.055-1.063c0.586,0,1.058,0.478,1.058,1.063v33.136C13.043,47.787,12.572,48.262,11.985,48.262
				L11.985,48.262z"/>
		</g>
	</g>
</g>
</svg>
