<svg width="108" height="172" viewBox="0 0 108 172" fill="none" xmlns="http://www.w3.org/2000/svg">
<path d="M74.2969 170.859H40.4297V40.3125L0 52.8516V25.3125L70.6641 0H74.2969V170.859Z" fill="#122B5C"/>
<path d="M84.8555 161.152C84.8555 158.008 85.9036 155.456 88 153.496C90.1419 151.536 92.8079 150.557 95.998 150.557C99.2337 150.557 101.9 151.536 103.996 153.496C106.138 155.456 107.209 158.008 107.209 161.152C107.209 164.251 106.161 166.781 104.064 168.74C101.968 170.654 99.2793 171.611 95.998 171.611C92.7624 171.611 90.0964 170.654 88 168.74C85.9036 166.781 84.8555 164.251 84.8555 161.152Z" fill="#122B5C"/>
</svg>
