<svg width="139" height="172" viewBox="0 0 139 172" fill="none" xmlns="http://www.w3.org/2000/svg">
<path d="M105.352 106.406H124.688V133.711H105.352V170.625H71.4844V133.711H1.52344L0 112.383L71.1328 0H105.352V106.406ZM33.75 106.406H71.4844V46.1719L69.2578 50.0391L33.75 106.406Z" fill="#122B5C"/>
<path d="M115.98 160.918C115.98 157.773 117.029 155.221 119.125 153.262C121.267 151.302 123.933 150.322 127.123 150.322C130.359 150.322 133.025 151.302 135.121 153.262C137.263 155.221 138.334 157.773 138.334 160.918C138.334 164.017 137.286 166.546 135.189 168.506C133.093 170.42 130.404 171.377 127.123 171.377C123.887 171.377 121.221 170.42 119.125 168.506C117.029 166.546 115.98 164.017 115.98 160.918Z" fill="#122B5C"/>
</svg>
