<svg width="156" height="174" viewBox="0 0 156 174" fill="none" xmlns="http://www.w3.org/2000/svg">
<path d="M120.352 172.969H3.39844V149.766L58.5938 90.9375C66.1719 82.6562 71.7578 75.4297 75.3516 69.2578C79.0234 63.0859 80.8594 57.2266 80.8594 51.6797C80.8594 44.1016 78.9453 38.1641 75.1172 33.8672C71.2891 29.4922 65.8203 27.3047 58.7109 27.3047C51.0547 27.3047 45 29.9609 40.5469 35.2734C36.1719 40.5078 33.9844 47.4219 33.9844 56.0156H0C0 45.625 2.46094 36.1328 7.38281 27.5391C12.3828 18.9453 19.4141 12.2266 28.4766 7.38281C37.5391 2.46094 47.8125 0 59.2969 0C76.875 0 90.5078 4.21875 100.195 12.6562C109.961 21.0938 114.844 33.0078 114.844 48.3984C114.844 56.8359 112.656 65.4297 108.281 74.1797C103.906 82.9297 96.4062 93.125 85.7812 104.766L46.9922 145.664H120.352V172.969Z" fill="#122B5C"/>
<path d="M133.423 163.262C133.423 160.117 134.471 157.565 136.567 155.605C138.709 153.646 141.375 152.666 144.565 152.666C147.801 152.666 150.467 153.646 152.563 155.605C154.705 157.565 155.776 160.117 155.776 163.262C155.776 166.361 154.728 168.89 152.632 170.85C150.535 172.764 147.846 173.721 144.565 173.721C141.33 173.721 138.664 172.764 136.567 170.85C134.471 168.89 133.423 166.361 133.423 163.262Z" fill="#122B5C"/>
</svg>
