<svg width="138" height="176" viewBox="0 0 138 176" fill="none" xmlns="http://www.w3.org/2000/svg">
<path d="M38.5547 72.6562H56.6016C65.1953 72.6562 71.5625 70.5078 75.7031 66.2109C79.8438 61.9141 81.9141 56.2109 81.9141 49.1016C81.9141 42.2266 79.8438 36.875 75.7031 33.0469C71.6406 29.2188 66.0156 27.3047 58.8281 27.3047C52.3438 27.3047 46.9141 29.1016 42.5391 32.6953C38.1641 36.2109 35.9766 40.8203 35.9766 46.5234H2.10938C2.10938 37.6172 4.49219 29.6484 9.25781 22.6172C14.1016 15.5078 20.8203 9.96094 29.4141 5.97656C38.0859 1.99219 47.6172 0 58.0078 0C76.0547 0 90.1953 4.33594 100.43 13.0078C110.664 21.6016 115.781 33.4766 115.781 48.6328C115.781 56.4453 113.398 63.6328 108.633 70.1953C103.867 76.7578 97.6172 81.7969 89.8828 85.3125C99.4922 88.75 106.641 93.9062 111.328 100.781C116.094 107.656 118.477 115.781 118.477 125.156C118.477 140.312 112.93 152.461 101.836 161.602C90.8203 170.742 76.2109 175.312 58.0078 175.312C40.9766 175.312 27.0312 170.82 16.1719 161.836C5.39062 152.852 0 140.977 0 126.211H33.8672C33.8672 132.617 36.25 137.852 41.0156 141.914C45.8594 145.977 51.7969 148.008 58.8281 148.008C66.875 148.008 73.1641 145.898 77.6953 141.68C82.3047 137.383 84.6094 131.719 84.6094 124.688C84.6094 107.656 75.2344 99.1406 56.4844 99.1406H38.5547V72.6562Z" fill="#122B5C"/>
<path d="M114.926 163.262C114.926 160.117 115.974 157.565 118.07 155.605C120.212 153.646 122.878 152.666 126.068 152.666C129.304 152.666 131.97 153.646 134.066 155.605C136.208 157.565 137.279 160.117 137.279 163.262C137.279 166.361 136.231 168.89 134.135 170.85C132.038 172.764 129.35 173.721 126.068 173.721C122.833 173.721 120.167 172.764 118.07 170.85C115.974 168.89 114.926 166.361 114.926 163.262Z" fill="#122B5C"/>
</svg>
