<svg width="141" height="126" viewBox="0 0 141 126" fill="none" xmlns="http://www.w3.org/2000/svg">
<mask id="path-1-inside-1" fill="white">
<path d="M105.836 62.0073L108.684 62.6978C112.481 63.6319 115.865 64.4443 119.456 65.0129C119.415 60.0577 116.732 56.1584 116.732 56.1584C116.402 55.3055 120.24 47.9538 120.24 47.9538L135.593 44.9482C137.244 44.6232 138.317 43.0392 137.987 41.4145C137.657 39.7898 136.047 38.7338 134.396 39.0587L117.97 42.2675C117.269 42.3893 116.65 42.7955 116.196 43.3235L107.528 53.8027L88.0068 62.0885C90.8545 61.5605 94.1976 61.1543 97.6644 61.1543C100.636 61.1137 103.36 61.4386 105.836 62.0073Z"/>
<path d="M141 67.0438C123.996 68.9934 117.021 66.6782 105.382 63.8756C93.7436 61.0731 80 66.1502 80 66.1502C97.6644 66.5157 99.6455 68.7903 114.338 71.4304C128.99 74.0299 141 67.0438 141 67.0438Z"/>
<path d="M105.382 72.852C93.7436 70.0494 80 75.1265 80 75.1265C97.6644 75.4921 99.6455 77.7666 114.338 80.4067C128.99 83.0468 141 76.0201 141 76.0201C123.996 77.9291 116.98 75.6545 105.382 72.852Z"/>
<path fill-rule="evenodd" clip-rule="evenodd" d="M121.355 54.0464C123.088 50.1878 127.669 48.4412 131.59 50.1471C135.511 51.8531 137.286 56.3615 135.552 60.2607C133.819 64.1193 129.237 65.8659 125.317 64.16C121.396 62.4541 119.621 57.905 121.355 54.0464ZM128.655 61.2069C130.927 61.2069 132.77 59.3697 132.77 57.1034C132.77 54.8372 130.927 53 128.655 53C126.382 53 124.54 54.8372 124.54 57.1034C124.54 59.3697 126.382 61.2069 128.655 61.2069Z"/>
<path d="M70.2394 124.6C75.8394 122.5 80.2394 117.7 81.5394 111.8C81.9394 109.9 82.0394 108 81.7394 106C81.5394 104.6 81.1394 103.3 80.8394 102C80.2394 99.7 79.8394 97.5 80.0394 95.1C80.2394 93.1 80.7394 91.4 81.3394 89.5C81.7394 88.4 82.5394 86.7 82.3394 85.5C81.0394 85.9 79.4394 88.1 78.6394 89.3C76.6394 92.5 75.7394 95.6 75.7394 99.4C75.7394 101.5 76.0394 103.6 76.3394 105.6V105.5C77.2394 111.9 72.6394 117 66.7394 118.2L64.2394 118.5L61.3394 118.4C60.3394 118.3 59.3394 118.1 58.4394 117.9C53.7394 116.6 52.0394 113.1 50.4394 108.7C48.6394 104.2 47.2394 99.7 43.7394 96.1C43.0394 95.4 42.2394 94.7 41.5394 94.1C40.3394 93 39.0394 91.9 37.8394 90.8C34.3394 87.7 30.9394 84.6 27.6394 81.3C23.0394 76.8 18.7394 71.7 15.8394 66C13.3394 61.1 11.9394 56.1 11.0394 50.8L10.3394 45.5L10.2394 39.1C10.4394 37 10.7394 34.9 11.3394 32.8C15.4394 17.3 31.6394 9.4 46.6394 9C57.3394 8.7 69.9394 12.5 74.6394 23C75.6394 25.2 76.1394 27.5 76.4394 29.8C76.6394 31.4 76.6394 33.1 76.5394 34.7C76.3394 37.3 75.7394 39.9 74.5394 42.4C72.9394 45.7 70.7394 48.7 67.8394 51C66.6394 52 65.3394 52.7 63.9394 53.5C62.7394 54.1 61.6394 54.6 60.6394 55.6C61.0394 55.7 61.7394 55.9 62.1394 56C62.6394 56 63.6394 55.9 64.1394 55.8C66.4394 55.4 68.4394 54.7 70.4394 53.6C74.0394 51.6 76.7394 48.6 79.0394 45.2C79.8394 43.9 80.9394 42.2 81.4394 40.8C82.4394 37.4 83.0394 33.8 83.1394 30.2C83.1394 27.2 82.7394 24.4 81.8394 21.6C78.1394 9.7 66.7394 2.9 55.0394 0.800003C51.9394 0.200005 48.7394 0 45.5394 0C42.4394 0 39.2394 0.300003 36.2394 0.900002C30.8394 1.9 25.5394 3.8 20.7394 6.5C17.1394 8.5 13.9394 10.9 11.1394 13.9C4.4394 20.5 0.839402 29.1 0.139402 38.4C-0.260598 43.2 0.239402 48.2 1.1394 52.9C2.0394 57.9 3.3394 62.8 5.4394 67.4C10.3394 78.3 18.7394 86.8 27.6394 94.6L36.6394 102.1L38.6394 104.2C40.4394 106.7 41.6394 110.1 42.6394 112.5C44.6394 117 46.9394 120.9 51.2394 123.4C54.4394 125.3 58.1394 126 61.8394 126C64.8394 126 67.4394 125.7 70.2394 124.6ZM64.7394 90.6C67.7394 89.3 69.6394 84.8 66.7394 81.1L62.9394 76.4L63.7394 66.6C64.3394 58.7 48.2394 54 40.2394 62.6C37.2394 60 35.2394 57.2 40.7394 53.1C43.0394 41.2 51.3394 39.5 61.7394 41.1C37.8394 23.3 17.0394 67.1 35.0394 72C55.0394 77.3 53.9394 95.2 64.7394 90.6ZM21.2394 57.3C21.0394 55.5 20.6394 53.7 20.4394 52C19.9394 48.2 19.9394 44.6 20.6394 41.1L21.6394 37.6L22.3394 35.9C26.0394 28.4 34.8394 23 43.1394 21.8L46.8394 21.6L51.0394 22C52.4394 22.2 53.8394 22.5 55.2394 23C56.9394 23.6 58.6394 24.4 60.1394 25.5C65.6394 29.7 65.0394 36.1 61.8394 41.5C60.7394 43.4 59.4394 44.9 58.1394 46.6C57.4394 47.4 56.3394 48.5 56.0394 49.6C57.8394 49.7 60.6394 47.4 61.9394 46.3C66.7394 42 70.0394 35.6 68.4394 29.1C66.4394 21.1 58.4394 17.3 50.9394 16.3C48.4394 16 45.9394 15.8 43.3394 16.1C33.2394 17.1 22.5394 23.8 18.2394 33.1C16.5394 36.8 15.8394 41 16.0394 45C16.2394 48.7 17.1394 52.6 18.6394 56C19.0394 56.9 20.1394 59.5 21.1394 60C21.5394 59.1 21.2394 58 21.2394 57.3Z"/>
</mask>
<path d="M105.836 62.0073L108.684 62.6978C112.481 63.6319 115.865 64.4443 119.456 65.0129C119.415 60.0577 116.732 56.1584 116.732 56.1584C116.402 55.3055 120.24 47.9538 120.24 47.9538L135.593 44.9482C137.244 44.6232 138.317 43.0392 137.987 41.4145C137.657 39.7898 136.047 38.7338 134.396 39.0587L117.97 42.2675C117.269 42.3893 116.65 42.7955 116.196 43.3235L107.528 53.8027L88.0068 62.0885C90.8545 61.5605 94.1976 61.1543 97.6644 61.1543C100.636 61.1137 103.36 61.4386 105.836 62.0073Z" fill="#133A87"/>
<path d="M141 67.0438C123.996 68.9934 117.021 66.6782 105.382 63.8756C93.7436 61.0731 80 66.1502 80 66.1502C97.6644 66.5157 99.6455 68.7903 114.338 71.4304C128.99 74.0299 141 67.0438 141 67.0438Z" fill="#133A87"/>
<path d="M105.382 72.852C93.7436 70.0494 80 75.1265 80 75.1265C97.6644 75.4921 99.6455 77.7666 114.338 80.4067C128.99 83.0468 141 76.0201 141 76.0201C123.996 77.9291 116.98 75.6545 105.382 72.852Z" fill="#133A87"/>
<path fill-rule="evenodd" clip-rule="evenodd" d="M121.355 54.0464C123.088 50.1878 127.669 48.4412 131.59 50.1471C135.511 51.8531 137.286 56.3615 135.552 60.2607C133.819 64.1193 129.237 65.8659 125.317 64.16C121.396 62.4541 119.621 57.905 121.355 54.0464ZM128.655 61.2069C130.927 61.2069 132.77 59.3697 132.77 57.1034C132.77 54.8372 130.927 53 128.655 53C126.382 53 124.54 54.8372 124.54 57.1034C124.54 59.3697 126.382 61.2069 128.655 61.2069Z" fill="#133A87"/>
<path d="M70.2394 124.6C75.8394 122.5 80.2394 117.7 81.5394 111.8C81.9394 109.9 82.0394 108 81.7394 106C81.5394 104.6 81.1394 103.3 80.8394 102C80.2394 99.7 79.8394 97.5 80.0394 95.1C80.2394 93.1 80.7394 91.4 81.3394 89.5C81.7394 88.4 82.5394 86.7 82.3394 85.5C81.0394 85.9 79.4394 88.1 78.6394 89.3C76.6394 92.5 75.7394 95.6 75.7394 99.4C75.7394 101.5 76.0394 103.6 76.3394 105.6V105.5C77.2394 111.9 72.6394 117 66.7394 118.2L64.2394 118.5L61.3394 118.4C60.3394 118.3 59.3394 118.1 58.4394 117.9C53.7394 116.6 52.0394 113.1 50.4394 108.7C48.6394 104.2 47.2394 99.7 43.7394 96.1C43.0394 95.4 42.2394 94.7 41.5394 94.1C40.3394 93 39.0394 91.9 37.8394 90.8C34.3394 87.7 30.9394 84.6 27.6394 81.3C23.0394 76.8 18.7394 71.7 15.8394 66C13.3394 61.1 11.9394 56.1 11.0394 50.8L10.3394 45.5L10.2394 39.1C10.4394 37 10.7394 34.9 11.3394 32.8C15.4394 17.3 31.6394 9.4 46.6394 9C57.3394 8.7 69.9394 12.5 74.6394 23C75.6394 25.2 76.1394 27.5 76.4394 29.8C76.6394 31.4 76.6394 33.1 76.5394 34.7C76.3394 37.3 75.7394 39.9 74.5394 42.4C72.9394 45.7 70.7394 48.7 67.8394 51C66.6394 52 65.3394 52.7 63.9394 53.5C62.7394 54.1 61.6394 54.6 60.6394 55.6C61.0394 55.7 61.7394 55.9 62.1394 56C62.6394 56 63.6394 55.9 64.1394 55.8C66.4394 55.4 68.4394 54.7 70.4394 53.6C74.0394 51.6 76.7394 48.6 79.0394 45.2C79.8394 43.9 80.9394 42.2 81.4394 40.8C82.4394 37.4 83.0394 33.8 83.1394 30.2C83.1394 27.2 82.7394 24.4 81.8394 21.6C78.1394 9.7 66.7394 2.9 55.0394 0.800003C51.9394 0.200005 48.7394 0 45.5394 0C42.4394 0 39.2394 0.300003 36.2394 0.900002C30.8394 1.9 25.5394 3.8 20.7394 6.5C17.1394 8.5 13.9394 10.9 11.1394 13.9C4.4394 20.5 0.839402 29.1 0.139402 38.4C-0.260598 43.2 0.239402 48.2 1.1394 52.9C2.0394 57.9 3.3394 62.8 5.4394 67.4C10.3394 78.3 18.7394 86.8 27.6394 94.6L36.6394 102.1L38.6394 104.2C40.4394 106.7 41.6394 110.1 42.6394 112.5C44.6394 117 46.9394 120.9 51.2394 123.4C54.4394 125.3 58.1394 126 61.8394 126C64.8394 126 67.4394 125.7 70.2394 124.6ZM64.7394 90.6C67.7394 89.3 69.6394 84.8 66.7394 81.1L62.9394 76.4L63.7394 66.6C64.3394 58.7 48.2394 54 40.2394 62.6C37.2394 60 35.2394 57.2 40.7394 53.1C43.0394 41.2 51.3394 39.5 61.7394 41.1C37.8394 23.3 17.0394 67.1 35.0394 72C55.0394 77.3 53.9394 95.2 64.7394 90.6ZM21.2394 57.3C21.0394 55.5 20.6394 53.7 20.4394 52C19.9394 48.2 19.9394 44.6 20.6394 41.1L21.6394 37.6L22.3394 35.9C26.0394 28.4 34.8394 23 43.1394 21.8L46.8394 21.6L51.0394 22C52.4394 22.2 53.8394 22.5 55.2394 23C56.9394 23.6 58.6394 24.4 60.1394 25.5C65.6394 29.7 65.0394 36.1 61.8394 41.5C60.7394 43.4 59.4394 44.9 58.1394 46.6C57.4394 47.4 56.3394 48.5 56.0394 49.6C57.8394 49.7 60.6394 47.4 61.9394 46.3C66.7394 42 70.0394 35.6 68.4394 29.1C66.4394 21.1 58.4394 17.3 50.9394 16.3C48.4394 16 45.9394 15.8 43.3394 16.1C33.2394 17.1 22.5394 23.8 18.2394 33.1C16.5394 36.8 15.8394 41 16.0394 45C16.2394 48.7 17.1394 52.6 18.6394 56C19.0394 56.9 20.1394 59.5 21.1394 60C21.5394 59.1 21.2394 58 21.2394 57.3Z" fill="#133A87"/>
<path d="M105.836 62.0073L108.684 62.6978C112.481 63.6319 115.865 64.4443 119.456 65.0129C119.415 60.0577 116.732 56.1584 116.732 56.1584C116.402 55.3055 120.24 47.9538 120.24 47.9538L135.593 44.9482C137.244 44.6232 138.317 43.0392 137.987 41.4145C137.657 39.7898 136.047 38.7338 134.396 39.0587L117.97 42.2675C117.269 42.3893 116.65 42.7955 116.196 43.3235L107.528 53.8027L88.0068 62.0885C90.8545 61.5605 94.1976 61.1543 97.6644 61.1543C100.636 61.1137 103.36 61.4386 105.836 62.0073Z" stroke="#133A87" stroke-width="2" mask="url(#path-1-inside-1)"/>
<path d="M141 67.0438C123.996 68.9934 117.021 66.6782 105.382 63.8756C93.7436 61.0731 80 66.1502 80 66.1502C97.6644 66.5157 99.6455 68.7903 114.338 71.4304C128.99 74.0299 141 67.0438 141 67.0438Z" stroke="#133A87" stroke-width="2" mask="url(#path-1-inside-1)"/>
<path d="M105.382 72.852C93.7436 70.0494 80 75.1265 80 75.1265C97.6644 75.4921 99.6455 77.7666 114.338 80.4067C128.99 83.0468 141 76.0201 141 76.0201C123.996 77.9291 116.98 75.6545 105.382 72.852Z" stroke="#133A87" stroke-width="2" mask="url(#path-1-inside-1)"/>
<path fill-rule="evenodd" clip-rule="evenodd" d="M121.355 54.0464C123.088 50.1878 127.669 48.4412 131.59 50.1471C135.511 51.8531 137.286 56.3615 135.552 60.2607C133.819 64.1193 129.237 65.8659 125.317 64.16C121.396 62.4541 119.621 57.905 121.355 54.0464ZM128.655 61.2069C130.927 61.2069 132.77 59.3697 132.77 57.1034C132.77 54.8372 130.927 53 128.655 53C126.382 53 124.54 54.8372 124.54 57.1034C124.54 59.3697 126.382 61.2069 128.655 61.2069Z" stroke="#133A87" stroke-width="2" mask="url(#path-1-inside-1)"/>
<path d="M70.2394 124.6C75.8394 122.5 80.2394 117.7 81.5394 111.8C81.9394 109.9 82.0394 108 81.7394 106C81.5394 104.6 81.1394 103.3 80.8394 102C80.2394 99.7 79.8394 97.5 80.0394 95.1C80.2394 93.1 80.7394 91.4 81.3394 89.5C81.7394 88.4 82.5394 86.7 82.3394 85.5C81.0394 85.9 79.4394 88.1 78.6394 89.3C76.6394 92.5 75.7394 95.6 75.7394 99.4C75.7394 101.5 76.0394 103.6 76.3394 105.6V105.5C77.2394 111.9 72.6394 117 66.7394 118.2L64.2394 118.5L61.3394 118.4C60.3394 118.3 59.3394 118.1 58.4394 117.9C53.7394 116.6 52.0394 113.1 50.4394 108.7C48.6394 104.2 47.2394 99.7 43.7394 96.1C43.0394 95.4 42.2394 94.7 41.5394 94.1C40.3394 93 39.0394 91.9 37.8394 90.8C34.3394 87.7 30.9394 84.6 27.6394 81.3C23.0394 76.8 18.7394 71.7 15.8394 66C13.3394 61.1 11.9394 56.1 11.0394 50.8L10.3394 45.5L10.2394 39.1C10.4394 37 10.7394 34.9 11.3394 32.8C15.4394 17.3 31.6394 9.4 46.6394 9C57.3394 8.7 69.9394 12.5 74.6394 23C75.6394 25.2 76.1394 27.5 76.4394 29.8C76.6394 31.4 76.6394 33.1 76.5394 34.7C76.3394 37.3 75.7394 39.9 74.5394 42.4C72.9394 45.7 70.7394 48.7 67.8394 51C66.6394 52 65.3394 52.7 63.9394 53.5C62.7394 54.1 61.6394 54.6 60.6394 55.6C61.0394 55.7 61.7394 55.9 62.1394 56C62.6394 56 63.6394 55.9 64.1394 55.8C66.4394 55.4 68.4394 54.7 70.4394 53.6C74.0394 51.6 76.7394 48.6 79.0394 45.2C79.8394 43.9 80.9394 42.2 81.4394 40.8C82.4394 37.4 83.0394 33.8 83.1394 30.2C83.1394 27.2 82.7394 24.4 81.8394 21.6C78.1394 9.7 66.7394 2.9 55.0394 0.800003C51.9394 0.200005 48.7394 0 45.5394 0C42.4394 0 39.2394 0.300003 36.2394 0.900002C30.8394 1.9 25.5394 3.8 20.7394 6.5C17.1394 8.5 13.9394 10.9 11.1394 13.9C4.4394 20.5 0.839402 29.1 0.139402 38.4C-0.260598 43.2 0.239402 48.2 1.1394 52.9C2.0394 57.9 3.3394 62.8 5.4394 67.4C10.3394 78.3 18.7394 86.8 27.6394 94.6L36.6394 102.1L38.6394 104.2C40.4394 106.7 41.6394 110.1 42.6394 112.5C44.6394 117 46.9394 120.9 51.2394 123.4C54.4394 125.3 58.1394 126 61.8394 126C64.8394 126 67.4394 125.7 70.2394 124.6ZM64.7394 90.6C67.7394 89.3 69.6394 84.8 66.7394 81.1L62.9394 76.4L63.7394 66.6C64.3394 58.7 48.2394 54 40.2394 62.6C37.2394 60 35.2394 57.2 40.7394 53.1C43.0394 41.2 51.3394 39.5 61.7394 41.1C37.8394 23.3 17.0394 67.1 35.0394 72C55.0394 77.3 53.9394 95.2 64.7394 90.6ZM21.2394 57.3C21.0394 55.5 20.6394 53.7 20.4394 52C19.9394 48.2 19.9394 44.6 20.6394 41.1L21.6394 37.6L22.3394 35.9C26.0394 28.4 34.8394 23 43.1394 21.8L46.8394 21.6L51.0394 22C52.4394 22.2 53.8394 22.5 55.2394 23C56.9394 23.6 58.6394 24.4 60.1394 25.5C65.6394 29.7 65.0394 36.1 61.8394 41.5C60.7394 43.4 59.4394 44.9 58.1394 46.6C57.4394 47.4 56.3394 48.5 56.0394 49.6C57.8394 49.7 60.6394 47.4 61.9394 46.3C66.7394 42 70.0394 35.6 68.4394 29.1C66.4394 21.1 58.4394 17.3 50.9394 16.3C48.4394 16 45.9394 15.8 43.3394 16.1C33.2394 17.1 22.5394 23.8 18.2394 33.1C16.5394 36.8 15.8394 41 16.0394 45C16.2394 48.7 17.1394 52.6 18.6394 56C19.0394 56.9 20.1394 59.5 21.1394 60C21.5394 59.1 21.2394 58 21.2394 57.3Z" stroke="#133A87" stroke-width="2" mask="url(#path-1-inside-1)"/>
</svg>
