<svg width="98" height="18" viewBox="0 0 98 18" fill="none" xmlns="http://www.w3.org/2000/svg">
<path d="M7.56736 1.06509C10.0361 1.06509 12.8806 1.81065 12.8806 5.21894C12.8806 6.86982 12.1292 7.77515 11.0022 8.52071C12.6659 9.15976 13.632 10.4379 13.632 12.568C13.632 16.4556 10.7875 17.574 7.88938 17.574H0V1.06509H7.56736ZM4.45455 7.40237H7.03067C7.88938 7.40237 8.42607 6.92308 8.42607 6.12426C8.42607 5.27219 7.88938 4.84615 6.81599 4.84615H4.45455V7.40237ZM4.45455 13.6864H7.29902C8.47974 13.6864 9.0701 13.1538 9.0701 12.142C9.0701 11.1302 8.47974 10.5444 7.29902 10.5444H4.45455V13.6864Z" fill="#133A87"/>
<path d="M29.5182 17.6272H24.8489L24.0976 15.284H19.2673L18.516 17.6272H13.8467L19.4283 1.06509H23.9902L29.5182 17.6272ZM22.3265 8.89349C22.0045 7.77515 21.9508 7.45562 21.7361 6.39053C21.4678 7.50888 21.4141 7.88166 21.0921 8.94674C21.0921 8.94674 20.7701 10.0651 20.2871 11.7692H23.0779C22.8095 10.7574 22.3265 8.89349 22.3265 8.89349Z" fill="#133A87"/>
<path d="M39.6615 7.50888L45.9408 17.6272H40.1982L36.5487 11.1834L35.2069 12.7278V17.6272H30.6987V1.06509H35.2606V4.42012C35.2606 6.01775 35.2606 5.48521 35.2069 6.97633L39.5005 1.11834H45.0821L39.6615 7.50888Z" fill="#133A87"/>
<path d="M52.8642 18C48.2486 18 45.3505 14.2189 45.3505 9.3195C45.3505 4.47335 48.4096 0.692285 52.9715 0.692285C56.621 0.692285 59.5728 3.51477 59.7875 7.24258H55.2793C55.011 5.75146 54.1522 4.89939 52.8642 4.89939C50.7174 4.89939 49.966 7.29584 49.966 9.3195C49.966 12.0355 51.0394 13.7396 52.8642 13.7396C54.2059 13.7396 55.0646 12.8343 55.2793 11.0769H59.7875C59.5192 15.6568 56.5137 18 52.8642 18Z" fill="#133A87"/>
<path d="M76.3177 9.37281C76.3177 14.5385 73.3122 18.0533 68.804 18.0533C64.1884 18.0533 61.1293 14.5917 61.1293 9.37281C61.1293 4.10062 64.1884 0.692332 68.8577 0.692332C73.3122 0.639077 76.3177 4.15387 76.3177 9.37281ZM65.7985 9.2663C65.7985 12.1953 66.8719 13.8994 68.804 13.8994C70.6824 13.8994 71.7021 12.2485 71.7021 9.10653C71.7021 6.3373 70.6287 4.68641 68.804 4.68641C66.9256 4.68641 65.7985 6.44381 65.7985 9.2663Z" fill="#133A87"/>
<path d="M91.6134 1.06509V17.574H87.0515V5.32544H84.2607V6.28402C84.2607 10.9704 84.3681 17.8935 79.0548 17.8935C78.4644 17.8935 77.8204 17.787 77.23 17.5207V13.5799C77.4447 13.7396 77.8204 13.8462 78.1424 13.8462C79.6988 13.8462 79.7525 10.8639 79.7525 8.14793V1.06509H91.6134Z" fill="#133A87"/>
<path d="M97.9999 2.50296C97.9999 3.88757 96.9802 4.95266 95.7458 4.95266C94.5114 4.95266 93.4917 3.83432 93.4917 2.50296C93.4917 1.11834 94.5114 0 95.7458 0C96.9802 0 97.9999 1.11834 97.9999 2.50296ZM93.9747 2.50296C93.9747 3.56805 94.7798 4.47337 95.7458 4.47337C96.7118 4.47337 97.5169 3.56805 97.5169 2.50296C97.5169 1.38462 96.7118 0.532544 95.7458 0.532544C94.7798 0.532544 93.9747 1.43787 93.9747 2.50296ZM95.9605 1.11834C96.4972 1.11834 96.8728 1.38462 96.8728 1.97041C96.8728 2.3432 96.7118 2.50296 96.4435 2.60947C96.7655 2.82249 96.8192 2.98225 96.8728 3.40828V3.56805C96.8728 3.67456 96.8728 3.78106 96.9265 3.88757H96.2288C96.1751 3.78106 96.1751 3.6213 96.1751 3.51479C96.1751 3.0355 96.1215 2.92899 95.6921 2.92899H95.5311V3.88757H94.7798V1.11834H95.9605ZM95.6385 2.28994C95.8531 2.28994 96.0678 2.23669 96.0678 1.97041C96.0678 1.70414 95.8531 1.65089 95.6385 1.65089H95.5311V2.28994H95.6385Z" fill="#133A87"/>
</svg>
