<svg width="155" height="126" viewBox="0 0 155 126" fill="none" xmlns="http://www.w3.org/2000/svg">
<mask id="path-1-inside-1" fill="white">
<path d="M89.8376 72.2975C89.1151 71.8751 88.2991 72.2462 87.8825 72.9721C87.4659 73.698 87.8377 74.5213 88.5602 74.9437L89.9669 75.645C90.6894 76.0674 91.5055 75.6963 91.922 74.9704C92.3386 74.2445 91.9668 73.4213 91.2443 72.9988L89.8376 72.2975Z"/>
<path d="M89.1729 66.9405C89.5895 66.2146 89.2177 65.3913 88.4952 64.9689L87.0885 64.2676C86.366 63.8452 85.5499 64.2163 85.1334 64.9422C84.7168 65.668 85.0886 66.4913 85.8111 66.9137L87.2178 67.615C87.9403 68.0375 88.7564 67.6663 89.1729 66.9405Z"/>
<path d="M82.0171 74.9958C81.2946 74.5734 80.4786 74.9445 80.062 75.6704C79.6455 76.3962 80.0173 77.2195 80.7397 77.6419L82.1465 78.3432C82.8689 78.7657 83.685 78.3945 84.1016 77.6687C84.5181 76.9428 84.1463 76.1195 83.4238 75.6971L82.0171 74.9958Z"/>
<path d="M79.8809 58.9628C79.1584 58.5404 78.3424 58.9115 77.9258 59.6374C77.5092 60.3632 77.881 61.1865 78.6035 61.6089L80.0102 62.3102C80.7327 62.7327 81.5488 62.3615 81.9653 61.6357C82.3819 60.9098 82.0101 60.0865 81.2876 59.6641L79.8809 58.9628Z"/>
<path d="M81.3525 69.6388C81.7691 68.913 81.3972 68.0897 80.6748 67.6673L79.2681 66.966C78.5456 66.5436 77.7295 66.9147 77.313 67.6405C76.8964 68.3664 77.2682 69.1897 77.9907 69.6121L79.3974 70.3134C80.1199 70.7358 80.9359 70.3647 81.3525 69.6388Z"/>
<path d="M72.8414 73.751C72.1189 73.3285 71.3029 73.6997 70.8863 74.4255C70.4697 75.1514 70.8415 75.9747 71.564 76.3971L72.9707 77.0984C73.6932 77.5208 74.5093 77.1497 74.9258 76.4238C75.3424 75.698 74.9706 74.8747 74.2481 74.4523L72.8414 73.751Z"/>
<path d="M71.9692 58.4572C71.2467 58.0348 70.4306 58.4059 70.0141 59.1318C69.5975 59.8577 69.8269 60.7189 70.6918 61.1034L72.0985 61.8047C72.821 62.2271 73.6371 61.856 74.0536 61.1301C74.4702 60.4042 74.0984 59.581 73.3759 59.1585L71.9692 58.4572Z"/>
<path d="M70.0793 69.1064C70.4958 68.3806 70.124 67.5573 69.4015 67.1349L67.9948 66.4336C67.2723 66.0111 66.4563 66.3823 66.0397 67.1081C65.6231 67.834 65.995 68.6573 66.7174 69.0797L68.1242 69.781C68.8084 70.0599 69.6627 69.8323 70.0793 69.1064Z"/>
<path d="M153.581 90.0573L135.152 80.9783L128.557 84.2723L126.504 83.4356L125.227 86.0818L128.544 87.6576L135.1 84.2201L151.116 92.2513L151.488 93.0745L142.886 110.585L142.174 110.774L126.054 102.925L124.712 95.5961L121.395 94.0202L120.118 96.6663L122.066 97.6845L123.551 104.975L141.981 114.054L145.037 112.932L154.565 93.1771L153.581 90.0573Z"/>
<path d="M99.3828 78.363L99.487 78.1815L114.749 83.954L119.167 74.7833L116.535 73.4863L113.289 80.1924L98.0274 74.4199L95.5768 79.5307L109.561 87.9493L106.211 94.8369L108.844 96.1339L113.405 86.9252L99.3828 78.363Z"/>
<path d="M118.568 79.401L117.29 82.0471L119.923 83.3441L116.129 91.4261L113.496 90.1291L112.219 92.7753L117.485 95.3693L123.833 81.995L118.568 79.401Z"/>
<path d="M137.14 88.5147L130.701 101.844L133.353 103.152L139.793 89.8225L137.14 88.5147Z"/>
<path d="M141.146 93.9003L135.994 104.564L138.646 105.872L143.798 95.208L141.146 93.9003Z"/>
<path d="M70.2394 124.6C75.8394 122.5 80.2394 117.7 81.5394 111.8C81.9394 109.9 82.0394 108 81.7394 106C81.5394 104.6 81.1394 103.3 80.8394 102C80.2394 99.7 79.8394 97.5 80.0394 95.1C80.2394 93.1 80.7394 91.4 81.3394 89.5C81.7394 88.4 82.5394 86.7 82.3394 85.5C81.0394 85.9 79.4394 88.1 78.6394 89.3C76.6394 92.5 75.7394 95.6 75.7394 99.4C75.7394 101.5 76.0394 103.6 76.3394 105.6V105.5C77.2394 111.9 72.6394 117 66.7394 118.2L64.2394 118.5L61.3394 118.4C60.3394 118.3 59.3394 118.1 58.4394 117.9C53.7394 116.6 52.0394 113.1 50.4394 108.7C48.6394 104.2 47.2394 99.7 43.7394 96.1C43.0394 95.4 42.2394 94.7 41.5394 94.1C40.3394 93 39.0394 91.9 37.8394 90.8C34.3394 87.7 30.9394 84.6 27.6394 81.3C23.0394 76.8 18.7394 71.7 15.8394 66C13.3394 61.1 11.9394 56.1 11.0394 50.8L10.3394 45.5L10.2394 39.1C10.4394 37 10.7394 34.9 11.3394 32.8C15.4394 17.3 31.6394 9.4 46.6394 9C57.3394 8.7 69.9394 12.5 74.6394 23C75.6394 25.2 76.1394 27.5 76.4394 29.8C76.6394 31.4 76.6394 33.1 76.5394 34.7C76.3394 37.3 75.7394 39.9 74.5394 42.4C72.9394 45.7 70.7394 48.7 67.8394 51C66.6394 52 65.3394 52.7 63.9394 53.5C62.7394 54.1 61.6394 54.6 60.6394 55.6C61.0394 55.7 61.7394 55.9 62.1394 56C62.6394 56 63.6394 55.9 64.1394 55.8C66.4394 55.4 68.4394 54.7 70.4394 53.6C74.0394 51.6 76.7394 48.6 79.0394 45.2C79.8394 43.9 80.9394 42.2 81.4394 40.8C82.4394 37.4 83.0394 33.8 83.1394 30.2C83.1394 27.2 82.7394 24.4 81.8394 21.6C78.1394 9.7 66.7394 2.9 55.0394 0.800003C51.9394 0.200005 48.7394 0 45.5394 0C42.4394 0 39.2394 0.300003 36.2394 0.900002C30.8394 1.9 25.5394 3.8 20.7394 6.5C17.1394 8.5 13.9394 10.9 11.1394 13.9C4.4394 20.5 0.839402 29.1 0.139402 38.4C-0.260598 43.2 0.239402 48.2 1.1394 52.9C2.0394 57.9 3.3394 62.8 5.4394 67.4C10.3394 78.3 18.7394 86.8 27.6394 94.6L36.6394 102.1L38.6394 104.2C40.4394 106.7 41.6394 110.1 42.6394 112.5C44.6394 117 46.9394 120.9 51.2394 123.4C54.4394 125.3 58.1394 126 61.8394 126C64.8394 126 67.4394 125.7 70.2394 124.6ZM64.7394 90.6C67.7394 89.3 69.6394 84.8 66.7394 81.1L62.9394 76.4L63.7394 66.6C64.3394 58.7 48.2394 54 40.2394 62.6C37.2394 60 35.2394 57.2 40.7394 53.1C43.0394 41.2 51.3394 39.5 61.7394 41.1C37.8394 23.3 17.0394 67.1 35.0394 72C55.0394 77.3 53.9394 95.2 64.7394 90.6ZM21.2394 57.3C21.0394 55.5 20.6394 53.7 20.4394 52C19.9394 48.2 19.9394 44.6 20.6394 41.1L21.6394 37.6L22.3394 35.9C26.0394 28.4 34.8394 23 43.1394 21.8L46.8394 21.6L51.0394 22C52.4394 22.2 53.8394 22.5 55.2394 23C56.9394 23.6 58.6394 24.4 60.1394 25.5C65.6394 29.7 65.0394 36.1 61.8394 41.5C60.7394 43.4 59.4394 44.9 58.1394 46.6C57.4394 47.4 56.3394 48.5 56.0394 49.6C57.8394 49.7 60.6394 47.4 61.9394 46.3C66.7394 42 70.0394 35.6 68.4394 29.1C66.4394 21.1 58.4394 17.3 50.9394 16.3C48.4394 16 45.9394 15.8 43.3394 16.1C33.2394 17.1 22.5394 23.8 18.2394 33.1C16.5394 36.8 15.8394 41 16.0394 45C16.2394 48.7 17.1394 52.6 18.6394 56C19.0394 56.9 20.1394 59.5 21.1394 60C21.5394 59.1 21.2394 58 21.2394 57.3Z"/>
</mask>
<path d="M89.8376 72.2975C89.1151 71.8751 88.2991 72.2462 87.8825 72.9721C87.4659 73.698 87.8377 74.5213 88.5602 74.9437L89.9669 75.645C90.6894 76.0674 91.5055 75.6963 91.922 74.9704C92.3386 74.2445 91.9668 73.4213 91.2443 72.9988L89.8376 72.2975Z" fill="#133A87"/>
<path d="M89.1729 66.9405C89.5895 66.2146 89.2177 65.3913 88.4952 64.9689L87.0885 64.2676C86.366 63.8452 85.5499 64.2163 85.1334 64.9422C84.7168 65.668 85.0886 66.4913 85.8111 66.9137L87.2178 67.615C87.9403 68.0375 88.7564 67.6663 89.1729 66.9405Z" fill="#133A87"/>
<path d="M82.0171 74.9958C81.2946 74.5734 80.4786 74.9445 80.062 75.6704C79.6455 76.3962 80.0173 77.2195 80.7397 77.6419L82.1465 78.3432C82.8689 78.7657 83.685 78.3945 84.1016 77.6687C84.5181 76.9428 84.1463 76.1195 83.4238 75.6971L82.0171 74.9958Z" fill="#133A87"/>
<path d="M79.8809 58.9628C79.1584 58.5404 78.3424 58.9115 77.9258 59.6374C77.5092 60.3632 77.881 61.1865 78.6035 61.6089L80.0102 62.3102C80.7327 62.7327 81.5488 62.3615 81.9653 61.6357C82.3819 60.9098 82.0101 60.0865 81.2876 59.6641L79.8809 58.9628Z" fill="#133A87"/>
<path d="M81.3525 69.6388C81.7691 68.913 81.3972 68.0897 80.6748 67.6673L79.2681 66.966C78.5456 66.5436 77.7295 66.9147 77.313 67.6405C76.8964 68.3664 77.2682 69.1897 77.9907 69.6121L79.3974 70.3134C80.1199 70.7358 80.9359 70.3647 81.3525 69.6388Z" fill="#133A87"/>
<path d="M72.8414 73.751C72.1189 73.3285 71.3029 73.6997 70.8863 74.4255C70.4697 75.1514 70.8415 75.9747 71.564 76.3971L72.9707 77.0984C73.6932 77.5208 74.5093 77.1497 74.9258 76.4238C75.3424 75.698 74.9706 74.8747 74.2481 74.4523L72.8414 73.751Z" fill="#133A87"/>
<path d="M71.9692 58.4572C71.2467 58.0348 70.4306 58.4059 70.0141 59.1318C69.5975 59.8577 69.8269 60.7189 70.6918 61.1034L72.0985 61.8047C72.821 62.2271 73.6371 61.856 74.0536 61.1301C74.4702 60.4042 74.0984 59.581 73.3759 59.1585L71.9692 58.4572Z" fill="#133A87"/>
<path d="M70.0793 69.1064C70.4958 68.3806 70.124 67.5573 69.4015 67.1349L67.9948 66.4336C67.2723 66.0111 66.4563 66.3823 66.0397 67.1081C65.6231 67.834 65.995 68.6573 66.7174 69.0797L68.1242 69.781C68.8084 70.0599 69.6627 69.8323 70.0793 69.1064Z" fill="#133A87"/>
<path d="M153.581 90.0573L135.152 80.9783L128.557 84.2723L126.504 83.4356L125.227 86.0818L128.544 87.6576L135.1 84.2201L151.116 92.2513L151.488 93.0745L142.886 110.585L142.174 110.774L126.054 102.925L124.712 95.5961L121.395 94.0202L120.118 96.6663L122.066 97.6845L123.551 104.975L141.981 114.054L145.037 112.932L154.565 93.1771L153.581 90.0573Z" fill="#133A87"/>
<path d="M99.3828 78.363L99.487 78.1815L114.749 83.954L119.167 74.7833L116.535 73.4863L113.289 80.1924L98.0274 74.4199L95.5768 79.5307L109.561 87.9493L106.211 94.8369L108.844 96.1339L113.405 86.9252L99.3828 78.363Z" fill="#133A87"/>
<path d="M118.568 79.401L117.29 82.0471L119.923 83.3441L116.129 91.4261L113.496 90.1291L112.219 92.7753L117.485 95.3693L123.833 81.995L118.568 79.401Z" fill="#133A87"/>
<path d="M137.14 88.5147L130.701 101.844L133.353 103.152L139.793 89.8225L137.14 88.5147Z" fill="#133A87"/>
<path d="M141.146 93.9003L135.994 104.564L138.646 105.872L143.798 95.208L141.146 93.9003Z" fill="#133A87"/>
<path d="M70.2394 124.6C75.8394 122.5 80.2394 117.7 81.5394 111.8C81.9394 109.9 82.0394 108 81.7394 106C81.5394 104.6 81.1394 103.3 80.8394 102C80.2394 99.7 79.8394 97.5 80.0394 95.1C80.2394 93.1 80.7394 91.4 81.3394 89.5C81.7394 88.4 82.5394 86.7 82.3394 85.5C81.0394 85.9 79.4394 88.1 78.6394 89.3C76.6394 92.5 75.7394 95.6 75.7394 99.4C75.7394 101.5 76.0394 103.6 76.3394 105.6V105.5C77.2394 111.9 72.6394 117 66.7394 118.2L64.2394 118.5L61.3394 118.4C60.3394 118.3 59.3394 118.1 58.4394 117.9C53.7394 116.6 52.0394 113.1 50.4394 108.7C48.6394 104.2 47.2394 99.7 43.7394 96.1C43.0394 95.4 42.2394 94.7 41.5394 94.1C40.3394 93 39.0394 91.9 37.8394 90.8C34.3394 87.7 30.9394 84.6 27.6394 81.3C23.0394 76.8 18.7394 71.7 15.8394 66C13.3394 61.1 11.9394 56.1 11.0394 50.8L10.3394 45.5L10.2394 39.1C10.4394 37 10.7394 34.9 11.3394 32.8C15.4394 17.3 31.6394 9.4 46.6394 9C57.3394 8.7 69.9394 12.5 74.6394 23C75.6394 25.2 76.1394 27.5 76.4394 29.8C76.6394 31.4 76.6394 33.1 76.5394 34.7C76.3394 37.3 75.7394 39.9 74.5394 42.4C72.9394 45.7 70.7394 48.7 67.8394 51C66.6394 52 65.3394 52.7 63.9394 53.5C62.7394 54.1 61.6394 54.6 60.6394 55.6C61.0394 55.7 61.7394 55.9 62.1394 56C62.6394 56 63.6394 55.9 64.1394 55.8C66.4394 55.4 68.4394 54.7 70.4394 53.6C74.0394 51.6 76.7394 48.6 79.0394 45.2C79.8394 43.9 80.9394 42.2 81.4394 40.8C82.4394 37.4 83.0394 33.8 83.1394 30.2C83.1394 27.2 82.7394 24.4 81.8394 21.6C78.1394 9.7 66.7394 2.9 55.0394 0.800003C51.9394 0.200005 48.7394 0 45.5394 0C42.4394 0 39.2394 0.300003 36.2394 0.900002C30.8394 1.9 25.5394 3.8 20.7394 6.5C17.1394 8.5 13.9394 10.9 11.1394 13.9C4.4394 20.5 0.839402 29.1 0.139402 38.4C-0.260598 43.2 0.239402 48.2 1.1394 52.9C2.0394 57.9 3.3394 62.8 5.4394 67.4C10.3394 78.3 18.7394 86.8 27.6394 94.6L36.6394 102.1L38.6394 104.2C40.4394 106.7 41.6394 110.1 42.6394 112.5C44.6394 117 46.9394 120.9 51.2394 123.4C54.4394 125.3 58.1394 126 61.8394 126C64.8394 126 67.4394 125.7 70.2394 124.6ZM64.7394 90.6C67.7394 89.3 69.6394 84.8 66.7394 81.1L62.9394 76.4L63.7394 66.6C64.3394 58.7 48.2394 54 40.2394 62.6C37.2394 60 35.2394 57.2 40.7394 53.1C43.0394 41.2 51.3394 39.5 61.7394 41.1C37.8394 23.3 17.0394 67.1 35.0394 72C55.0394 77.3 53.9394 95.2 64.7394 90.6ZM21.2394 57.3C21.0394 55.5 20.6394 53.7 20.4394 52C19.9394 48.2 19.9394 44.6 20.6394 41.1L21.6394 37.6L22.3394 35.9C26.0394 28.4 34.8394 23 43.1394 21.8L46.8394 21.6L51.0394 22C52.4394 22.2 53.8394 22.5 55.2394 23C56.9394 23.6 58.6394 24.4 60.1394 25.5C65.6394 29.7 65.0394 36.1 61.8394 41.5C60.7394 43.4 59.4394 44.9 58.1394 46.6C57.4394 47.4 56.3394 48.5 56.0394 49.6C57.8394 49.7 60.6394 47.4 61.9394 46.3C66.7394 42 70.0394 35.6 68.4394 29.1C66.4394 21.1 58.4394 17.3 50.9394 16.3C48.4394 16 45.9394 15.8 43.3394 16.1C33.2394 17.1 22.5394 23.8 18.2394 33.1C16.5394 36.8 15.8394 41 16.0394 45C16.2394 48.7 17.1394 52.6 18.6394 56C19.0394 56.9 20.1394 59.5 21.1394 60C21.5394 59.1 21.2394 58 21.2394 57.3Z" fill="#133A87"/>
<path d="M89.8376 72.2975C89.1151 71.8751 88.2991 72.2462 87.8825 72.9721C87.4659 73.698 87.8377 74.5213 88.5602 74.9437L89.9669 75.645C90.6894 76.0674 91.5055 75.6963 91.922 74.9704C92.3386 74.2445 91.9668 73.4213 91.2443 72.9988L89.8376 72.2975Z" stroke="#133A87" stroke-width="2" mask="url(#path-1-inside-1)"/>
<path d="M89.1729 66.9405C89.5895 66.2146 89.2177 65.3913 88.4952 64.9689L87.0885 64.2676C86.366 63.8452 85.5499 64.2163 85.1334 64.9422C84.7168 65.668 85.0886 66.4913 85.8111 66.9137L87.2178 67.615C87.9403 68.0375 88.7564 67.6663 89.1729 66.9405Z" stroke="#133A87" stroke-width="2" mask="url(#path-1-inside-1)"/>
<path d="M82.0171 74.9958C81.2946 74.5734 80.4786 74.9445 80.062 75.6704C79.6455 76.3962 80.0173 77.2195 80.7397 77.6419L82.1465 78.3432C82.8689 78.7657 83.685 78.3945 84.1016 77.6687C84.5181 76.9428 84.1463 76.1195 83.4238 75.6971L82.0171 74.9958Z" stroke="#133A87" stroke-width="2" mask="url(#path-1-inside-1)"/>
<path d="M79.8809 58.9628C79.1584 58.5404 78.3424 58.9115 77.9258 59.6374C77.5092 60.3632 77.881 61.1865 78.6035 61.6089L80.0102 62.3102C80.7327 62.7327 81.5488 62.3615 81.9653 61.6357C82.3819 60.9098 82.0101 60.0865 81.2876 59.6641L79.8809 58.9628Z" stroke="#133A87" stroke-width="2" mask="url(#path-1-inside-1)"/>
<path d="M81.3525 69.6388C81.7691 68.913 81.3972 68.0897 80.6748 67.6673L79.2681 66.966C78.5456 66.5436 77.7295 66.9147 77.313 67.6405C76.8964 68.3664 77.2682 69.1897 77.9907 69.6121L79.3974 70.3134C80.1199 70.7358 80.9359 70.3647 81.3525 69.6388Z" stroke="#133A87" stroke-width="2" mask="url(#path-1-inside-1)"/>
<path d="M72.8414 73.751C72.1189 73.3285 71.3029 73.6997 70.8863 74.4255C70.4697 75.1514 70.8415 75.9747 71.564 76.3971L72.9707 77.0984C73.6932 77.5208 74.5093 77.1497 74.9258 76.4238C75.3424 75.698 74.9706 74.8747 74.2481 74.4523L72.8414 73.751Z" stroke="#133A87" stroke-width="2" mask="url(#path-1-inside-1)"/>
<path d="M71.9692 58.4572C71.2467 58.0348 70.4306 58.4059 70.0141 59.1318C69.5975 59.8577 69.8269 60.7189 70.6918 61.1034L72.0985 61.8047C72.821 62.2271 73.6371 61.856 74.0536 61.1301C74.4702 60.4042 74.0984 59.581 73.3759 59.1585L71.9692 58.4572Z" stroke="#133A87" stroke-width="2" mask="url(#path-1-inside-1)"/>
<path d="M70.0793 69.1064C70.4958 68.3806 70.124 67.5573 69.4015 67.1349L67.9948 66.4336C67.2723 66.0111 66.4563 66.3823 66.0397 67.1081C65.6231 67.834 65.995 68.6573 66.7174 69.0797L68.1242 69.781C68.8084 70.0599 69.6627 69.8323 70.0793 69.1064Z" stroke="#133A87" stroke-width="2" mask="url(#path-1-inside-1)"/>
<path d="M153.581 90.0573L135.152 80.9783L128.557 84.2723L126.504 83.4356L125.227 86.0818L128.544 87.6576L135.1 84.2201L151.116 92.2513L151.488 93.0745L142.886 110.585L142.174 110.774L126.054 102.925L124.712 95.5961L121.395 94.0202L120.118 96.6663L122.066 97.6845L123.551 104.975L141.981 114.054L145.037 112.932L154.565 93.1771L153.581 90.0573Z" stroke="#133A87" stroke-width="2" mask="url(#path-1-inside-1)"/>
<path d="M99.3828 78.363L99.487 78.1815L114.749 83.954L119.167 74.7833L116.535 73.4863L113.289 80.1924L98.0274 74.4199L95.5768 79.5307L109.561 87.9493L106.211 94.8369L108.844 96.1339L113.405 86.9252L99.3828 78.363Z" stroke="#133A87" stroke-width="2" mask="url(#path-1-inside-1)"/>
<path d="M118.568 79.401L117.29 82.0471L119.923 83.3441L116.129 91.4261L113.496 90.1291L112.219 92.7753L117.485 95.3693L123.833 81.995L118.568 79.401Z" stroke="#133A87" stroke-width="2" mask="url(#path-1-inside-1)"/>
<path d="M137.14 88.5147L130.701 101.844L133.353 103.152L139.793 89.8225L137.14 88.5147Z" stroke="#133A87" stroke-width="2" mask="url(#path-1-inside-1)"/>
<path d="M141.146 93.9003L135.994 104.564L138.646 105.872L143.798 95.208L141.146 93.9003Z" stroke="#133A87" stroke-width="2" mask="url(#path-1-inside-1)"/>
<path d="M70.2394 124.6C75.8394 122.5 80.2394 117.7 81.5394 111.8C81.9394 109.9 82.0394 108 81.7394 106C81.5394 104.6 81.1394 103.3 80.8394 102C80.2394 99.7 79.8394 97.5 80.0394 95.1C80.2394 93.1 80.7394 91.4 81.3394 89.5C81.7394 88.4 82.5394 86.7 82.3394 85.5C81.0394 85.9 79.4394 88.1 78.6394 89.3C76.6394 92.5 75.7394 95.6 75.7394 99.4C75.7394 101.5 76.0394 103.6 76.3394 105.6V105.5C77.2394 111.9 72.6394 117 66.7394 118.2L64.2394 118.5L61.3394 118.4C60.3394 118.3 59.3394 118.1 58.4394 117.9C53.7394 116.6 52.0394 113.1 50.4394 108.7C48.6394 104.2 47.2394 99.7 43.7394 96.1C43.0394 95.4 42.2394 94.7 41.5394 94.1C40.3394 93 39.0394 91.9 37.8394 90.8C34.3394 87.7 30.9394 84.6 27.6394 81.3C23.0394 76.8 18.7394 71.7 15.8394 66C13.3394 61.1 11.9394 56.1 11.0394 50.8L10.3394 45.5L10.2394 39.1C10.4394 37 10.7394 34.9 11.3394 32.8C15.4394 17.3 31.6394 9.4 46.6394 9C57.3394 8.7 69.9394 12.5 74.6394 23C75.6394 25.2 76.1394 27.5 76.4394 29.8C76.6394 31.4 76.6394 33.1 76.5394 34.7C76.3394 37.3 75.7394 39.9 74.5394 42.4C72.9394 45.7 70.7394 48.7 67.8394 51C66.6394 52 65.3394 52.7 63.9394 53.5C62.7394 54.1 61.6394 54.6 60.6394 55.6C61.0394 55.7 61.7394 55.9 62.1394 56C62.6394 56 63.6394 55.9 64.1394 55.8C66.4394 55.4 68.4394 54.7 70.4394 53.6C74.0394 51.6 76.7394 48.6 79.0394 45.2C79.8394 43.9 80.9394 42.2 81.4394 40.8C82.4394 37.4 83.0394 33.8 83.1394 30.2C83.1394 27.2 82.7394 24.4 81.8394 21.6C78.1394 9.7 66.7394 2.9 55.0394 0.800003C51.9394 0.200005 48.7394 0 45.5394 0C42.4394 0 39.2394 0.300003 36.2394 0.900002C30.8394 1.9 25.5394 3.8 20.7394 6.5C17.1394 8.5 13.9394 10.9 11.1394 13.9C4.4394 20.5 0.839402 29.1 0.139402 38.4C-0.260598 43.2 0.239402 48.2 1.1394 52.9C2.0394 57.9 3.3394 62.8 5.4394 67.4C10.3394 78.3 18.7394 86.8 27.6394 94.6L36.6394 102.1L38.6394 104.2C40.4394 106.7 41.6394 110.1 42.6394 112.5C44.6394 117 46.9394 120.9 51.2394 123.4C54.4394 125.3 58.1394 126 61.8394 126C64.8394 126 67.4394 125.7 70.2394 124.6ZM64.7394 90.6C67.7394 89.3 69.6394 84.8 66.7394 81.1L62.9394 76.4L63.7394 66.6C64.3394 58.7 48.2394 54 40.2394 62.6C37.2394 60 35.2394 57.2 40.7394 53.1C43.0394 41.2 51.3394 39.5 61.7394 41.1C37.8394 23.3 17.0394 67.1 35.0394 72C55.0394 77.3 53.9394 95.2 64.7394 90.6ZM21.2394 57.3C21.0394 55.5 20.6394 53.7 20.4394 52C19.9394 48.2 19.9394 44.6 20.6394 41.1L21.6394 37.6L22.3394 35.9C26.0394 28.4 34.8394 23 43.1394 21.8L46.8394 21.6L51.0394 22C52.4394 22.2 53.8394 22.5 55.2394 23C56.9394 23.6 58.6394 24.4 60.1394 25.5C65.6394 29.7 65.0394 36.1 61.8394 41.5C60.7394 43.4 59.4394 44.9 58.1394 46.6C57.4394 47.4 56.3394 48.5 56.0394 49.6C57.8394 49.7 60.6394 47.4 61.9394 46.3C66.7394 42 70.0394 35.6 68.4394 29.1C66.4394 21.1 58.4394 17.3 50.9394 16.3C48.4394 16 45.9394 15.8 43.3394 16.1C33.2394 17.1 22.5394 23.8 18.2394 33.1C16.5394 36.8 15.8394 41 16.0394 45C16.2394 48.7 17.1394 52.6 18.6394 56C19.0394 56.9 20.1394 59.5 21.1394 60C21.5394 59.1 21.2394 58 21.2394 57.3Z" stroke="#133A87" stroke-width="2" mask="url(#path-1-inside-1)"/>
</svg>
