<svg width="84" height="126" viewBox="0 0 84 126" fill="none" xmlns="http://www.w3.org/2000/svg">
<mask id="path-1-inside-1" fill="white">
<path fill-rule="evenodd" clip-rule="evenodd" d="M70.2394 124.6C75.8394 122.5 80.2394 117.7 81.5394 111.8C81.9394 109.9 82.0394 108 81.7394 106C81.6009 105.03 81.3663 104.108 81.1356 103.201C81.0332 102.799 80.9316 102.4 80.8394 102C80.2394 99.7001 79.8394 97.5001 80.0394 95.1001C80.2394 93.1001 80.7394 91.4001 81.3394 89.5001C81.4079 89.3118 81.4881 89.106 81.5729 88.8881C81.9839 87.8329 82.5052 86.4947 82.3394 85.5001C81.0394 85.9001 79.4394 88.1001 78.6394 89.3001C76.6394 92.5001 75.7394 95.6001 75.7394 99.4001C75.7394 101.5 76.0394 103.6 76.3394 105.6V105.5C77.2394 111.9 72.6394 117 66.7394 118.2L64.2394 118.5L61.3394 118.4C60.3394 118.3 59.3394 118.1 58.4394 117.9C53.7394 116.6 52.0394 113.1 50.4394 108.7C50.1868 108.069 49.942 107.437 49.6982 106.808C48.2355 103.033 46.8072 99.3476 43.9211 96.2898L55.0801 87.2069C57.823 90.5416 60.2557 92.5098 64.7394 90.6001C67.7394 89.3001 69.6394 84.8001 66.7394 81.1001L62.9394 76.4001L63.7394 66.6001C64.3394 58.7001 48.2394 54.0001 40.2394 62.6001C37.2394 60.0001 35.2394 57.2001 40.7394 53.1001C43.0394 41.2001 51.3394 39.5001 61.7394 41.1001C38.3351 23.6693 17.9036 65.3097 33.9691 71.6459L27.6412 74.891L27.5175 75.0147C26.8932 75.4615 26.6595 76.2972 26.6073 77.1896C26.552 78.1343 26.6896 79.3086 26.9625 80.6032L26.9701 80.6388C22.6242 76.3023 18.5983 71.4227 15.8394 66.0001C13.3394 61.1001 11.9394 56.1001 11.0394 50.8001L10.3394 45.5001L10.2394 39.1001C10.4394 37.0001 10.7394 34.9001 11.3394 32.8001C15.4394 17.3001 31.6394 9.40012 46.6394 9.00012C57.3394 8.70012 69.9394 12.5001 74.6394 23.0001C75.6394 25.2001 76.1394 27.5001 76.4394 29.8001C76.6394 31.4001 76.6394 33.1001 76.5394 34.7001C76.3394 37.3001 75.7394 39.9001 74.5394 42.4001C72.9394 45.7001 70.7394 48.7001 67.8394 51.0001C66.769 51.8921 65.619 52.5455 64.3894 53.244C64.2406 53.3285 64.0906 53.4137 63.9394 53.5001L63.7531 53.593L63.6394 53.6494C62.5555 54.1876 61.5555 54.684 60.6394 55.6001C60.8394 55.6501 61.1144 55.7251 61.3894 55.8001C61.6644 55.8751 61.9394 55.9501 62.1394 56.0001C62.6394 56.0001 63.6394 55.9001 64.1394 55.8001C66.4394 55.4001 68.4394 54.7001 70.4394 53.6001C74.0394 51.6001 76.7394 48.6001 79.0394 45.2001C79.0946 45.1105 79.1511 45.0189 79.2089 44.9257C79.2446 44.868 79.2808 44.8097 79.3173 44.7508C80.0775 43.5244 80.9952 42.0437 81.4394 40.8001C82.4394 37.4001 83.0394 33.8001 83.1394 30.2001C83.1394 27.2001 82.7394 24.4001 81.8394 21.6001C78.1394 9.70012 66.7394 2.90013 55.0394 0.800125C51.9394 0.200125 48.7394 0.00012207 45.5394 0.00012207C42.4394 0.00012207 39.2394 0.300124 36.2394 0.900124C30.8394 1.90012 25.5394 3.80012 20.7394 6.50012C17.1394 8.50012 13.9394 10.9001 11.1394 13.9001C4.4394 20.5001 0.839402 29.1001 0.139402 38.4001C-0.260598 43.2001 0.239402 48.2001 1.1394 52.9001C2.0394 57.9001 3.3394 62.8001 5.4394 67.4001C10.3394 78.3001 18.7394 86.8001 27.6394 94.6001L36.6394 102.1L38.6394 104.2C40.1269 106.266 41.2047 108.947 42.0984 111.17C42.2862 111.637 42.4658 112.083 42.6394 112.5C44.6394 117 46.9394 120.9 51.2394 123.4C54.4394 125.3 58.1394 126 61.8394 126C64.8394 126 67.4394 125.7 70.2394 124.6ZM58.2392 70.9999C60.6392 76.0999 61.1392 80.4999 59.9392 81.1999L39.5392 97.9999C39.6392 96.6999 39.3392 94.8999 38.7392 92.7999V92.6999C38.7392 92.5999 38.7142 92.5249 38.6892 92.4499C38.6642 92.3749 38.6392 92.2999 38.6392 92.1999C38.6392 92.1499 38.6142 92.0999 38.5892 92.0499C38.5642 91.9999 38.5392 91.9499 38.5392 91.8999C38.4892 91.7999 38.4642 91.6999 38.4392 91.5999C38.4142 91.4999 38.3892 91.3999 38.3392 91.2999C38.3392 91.2499 38.3142 91.175 38.2892 91.1C38.2642 91.025 38.2392 90.9499 38.2392 90.8999C38.2392 90.8499 38.2142 90.7999 38.1892 90.7499C38.1642 90.6999 38.1392 90.6499 38.1392 90.5999C38.1392 90.2999 38.0392 90.0999 37.9392 89.8999C37.9392 89.8499 37.9142 89.8249 37.8892 89.7999C37.8642 89.7749 37.8392 89.7499 37.8392 89.6999C37.7892 89.5999 37.7642 89.4999 37.7392 89.3999C37.7142 89.2999 37.6892 89.1999 37.6392 89.0999C37.6392 89.0499 37.6142 89.0249 37.5892 88.9999C37.5642 88.9749 37.5392 88.9499 37.5392 88.8999C37.4892 88.7999 37.4392 88.6749 37.3892 88.5499C37.3392 88.4249 37.2892 88.2999 37.2392 88.1999C37.1392 88.0999 37.1392 88.0999 37.1392 87.9999C37.0392 87.6999 36.9392 87.4999 36.8392 87.2999V87.1999C36.7392 86.8999 36.6392 86.5999 36.5392 86.3999C36.4817 86.3424 36.4573 86.3179 36.4469 86.2886C36.4392 86.2668 36.4392 86.2424 36.4392 86.1999C36.3892 86.0499 36.3392 85.9249 36.2892 85.7999C36.2392 85.6749 36.1892 85.5498 36.1392 85.3999C36.0892 85.2999 36.0392 85.1749 35.9892 85.0499C35.9392 84.9249 35.8892 84.7999 35.8392 84.6999C35.8392 84.6499 35.8142 84.6249 35.7892 84.5999C35.7642 84.5749 35.7392 84.5499 35.7392 84.4999C35.5864 84.3471 35.492 84.136 35.4113 83.9556C35.3864 83.8999 35.3628 83.8471 35.3392 83.7999V83.6999C35.2392 83.3999 35.1392 83.1999 35.0392 82.9999L34.9392 82.8999C34.7864 82.7471 34.692 82.536 34.6114 82.3556C34.5864 82.2999 34.5628 82.2471 34.5392 82.1999C34.4392 82.1999 34.4392 82.0999 34.4392 82.0999L34.1392 81.4999C34.0392 81.4999 34.0392 81.3999 34.0392 81.3999C33.8392 81.0999 33.7392 80.8999 33.6392 80.6999L33.5392 80.5999C33.3392 80.3999 33.2392 80.1999 33.1392 79.9999C33.0892 79.8999 33.0142 79.7999 32.9392 79.6999C32.8643 79.6 32.7892 79.4999 32.7392 79.3999L32.6392 79.2999C32.5892 79.1999 32.5142 79.0999 32.4392 78.9999C32.3642 78.8999 32.2892 78.7999 32.2392 78.6999V78.5999C32.1892 78.4999 32.1392 78.4249 32.0892 78.3499C32.0392 78.2749 31.9892 78.1999 31.9392 78.0999L31.8392 77.9999C31.6392 77.7999 31.5392 77.6999 31.4392 77.4999C31.3392 77.4999 31.3392 77.3999 31.3392 77.3999C31.2892 77.3499 31.2392 77.2749 31.1892 77.1999C31.1392 77.1249 31.0892 77.0499 31.0392 76.9999L30.9392 76.8999C30.7998 76.8302 30.7089 76.7118 30.6328 76.6127C30.5998 76.5696 30.5695 76.5302 30.5392 76.4999L29.7392 75.6999C29.6392 75.6999 29.5392 75.5999 29.4392 75.4999L51.8392 64.0999C52.9392 63.3999 55.8392 65.9999 58.2392 70.9999ZM35.3391 86C38.2391 92.4 39.3391 97.9 38.4391 98.8C37.4391 99.3 34.2391 95.7 31.1391 88.6C28.1391 81.8 27.4391 76.7 28.2391 76.1H28.3391C29.3391 75.8 32.1391 79.2 34.8391 84.8C34.9391 85.2 35.1391 85.6 35.3391 86Z"/>
<path d="M21.2394 57.3001C21.135 56.3604 20.9761 55.4207 20.8195 54.4952C20.6763 53.6479 20.535 52.8126 20.4394 52.0001C19.9394 48.2001 19.9394 44.6001 20.6394 41.1001L21.6394 37.6001L22.3394 35.9001C26.0394 28.4001 34.8394 23.0001 43.1394 21.8001L46.8394 21.6001L51.0394 22.0001C52.4394 22.2001 53.8394 22.5001 55.2394 23.0001C56.9394 23.6001 58.6394 24.4001 60.1394 25.5001C65.6394 29.7001 65.0394 36.1001 61.8394 41.5001C60.9969 42.9553 60.0371 44.1758 59.0499 45.4313C58.7481 45.8151 58.4437 46.2021 58.1394 46.6001C58.0411 46.7124 57.935 46.8306 57.8243 46.9539C57.1464 47.7089 56.2973 48.6545 56.0394 49.6001C57.8394 49.7001 60.6394 47.4001 61.9394 46.3001C66.7394 42.0001 70.0394 35.6001 68.4394 29.1001C66.4394 21.1001 58.4394 17.3001 50.9394 16.3001C48.4394 16.0001 45.9394 15.8001 43.3394 16.1001C33.2394 17.1001 22.5394 23.8001 18.2394 33.1001C16.5394 36.8001 15.8394 41.0001 16.0394 45.0001C16.2394 48.7001 17.1394 52.6001 18.6394 56.0001L18.6784 56.0881L18.7147 56.1705C19.1649 57.1906 20.1966 59.5287 21.1394 60.0001C21.429 59.3486 21.3517 58.5922 21.287 57.9587C21.2623 57.7171 21.2394 57.4934 21.2394 57.3001Z"/>
<path d="M35.1392 79.4999C34.9392 79.4999 34.7392 79.3999 34.6392 79.0999C34.6392 78.7999 34.7392 78.5999 34.9392 78.4999L37.1392 77.9999C37.3392 77.9999 37.4392 78.0999 37.5392 78.2999V78.3999C37.5392 78.6999 37.4392 78.8999 37.2392 78.9999L35.1392 79.4999Z"/>
<path d="M42.0392 73.2999V73.3999C42.0392 73.6999 41.9392 73.8999 41.7392 73.9999L39.4392 74.4999C39.2392 74.4999 39.0392 74.3999 38.9392 74.0999C38.9392 73.7999 39.0392 73.5999 39.2392 73.4999L41.5392 72.9999C41.7392 72.9999 41.9392 73.0999 42.0392 73.2999Z"/>
<path d="M45.9392 72.1999C45.7392 72.1999 45.5392 72.0999 45.4392 71.7999C45.4392 71.4999 45.5392 71.2999 45.7392 71.1999L48.0392 70.6999C48.2392 70.6999 48.4392 70.7999 48.4392 70.9999C48.4392 70.9999 48.4392 71.0999 48.4392 71.1999C48.4392 71.4999 48.3392 71.6999 48.1392 71.7999L45.9392 72.1999Z"/>
<path d="M50.2392 68.2999C50.0392 68.3999 49.7392 68.1999 49.7392 67.8999C49.7392 67.5999 49.8392 67.3999 50.0392 67.2999L52.4392 66.6999C52.6392 66.6999 52.8392 66.7999 52.9392 66.8999C52.9392 66.8999 52.9392 66.9999 52.9392 67.0999C52.9392 67.3999 52.8392 67.5999 52.6392 67.6999L50.2392 68.2999Z"/>
<path d="M38.9392 84.0999C38.7392 84.0999 38.5392 83.9999 38.4392 83.6999C38.4392 83.3999 38.5392 83.1999 38.7392 83.0999L41.0392 82.6999C41.2392 82.6999 41.3392 82.7999 41.4392 82.9999C41.4392 82.9999 41.4392 83.0999 41.4392 83.1999C41.4392 83.4999 41.3392 83.6999 41.1392 83.7999L38.9392 84.0999Z"/>
<path d="M49.9392 76.9999C49.7392 76.9999 49.4392 76.8999 49.4392 76.5999C49.4392 76.2999 49.5392 76.0999 49.7392 75.9999L52.1392 75.4999C52.3392 75.4999 52.5392 75.5999 52.6392 75.7999C52.6392 75.7999 52.6392 75.8999 52.6392 75.9999C52.6392 76.2999 52.5392 76.4999 52.3392 76.5999L49.9392 76.9999Z"/>
<path d="M54.2392 73.0999C54.0392 73.1999 53.7392 72.9999 53.7392 72.6999C53.7392 72.3999 53.8392 72.1999 54.0392 72.0999L56.4392 71.5999C56.6392 71.5999 56.8392 71.6999 56.9392 71.8999C56.9392 71.8999 56.9392 71.9999 56.9392 72.0999C56.9392 72.3999 56.8392 72.5999 56.6392 72.6999L54.2392 73.0999Z"/>
<path d="M45.8392 77.9999C45.8392 77.9999 45.8392 78.0999 45.8392 78.1999C45.8392 78.4999 45.7392 78.6999 45.5392 78.7999L43.2392 79.2999C43.0392 79.2999 42.8392 79.1999 42.7392 78.8999C42.7392 78.5999 42.8392 78.3999 43.0392 78.2999L45.3392 77.7999C45.6392 77.6999 45.8392 77.7999 45.8392 77.9999Z"/>
<path d="M40.1392 90.8999C40.1392 90.5999 40.2392 90.3999 40.4392 90.2999L42.7392 89.8999C42.9392 89.8999 43.1392 89.9999 43.1392 90.1999C43.1392 90.1999 43.1392 90.2999 43.1392 90.3999C43.1392 90.6999 43.0392 90.8999 42.8392 90.9999L40.5392 91.3999C40.3392 91.3999 40.1392 91.1999 40.1392 90.8999Z"/>
<path d="M47.5392 85.2999C47.5392 85.2999 47.5392 85.3999 47.5392 85.4999C47.5392 85.7999 47.4392 85.9999 47.2392 86.0999L44.9392 86.4999C44.7392 86.4999 44.5392 86.3999 44.4392 86.0999C44.4392 85.7999 44.5392 85.5999 44.7392 85.4999L47.0392 85.0999C47.3392 84.9999 47.5392 85.0999 47.5392 85.2999Z"/>
<path d="M51.6392 84.2999C51.4392 84.2999 51.1392 84.1999 51.1392 83.8999C51.1392 83.5999 51.2392 83.3999 51.4392 83.2999L53.8392 82.7999C54.0392 82.7999 54.2392 82.8999 54.3392 83.0999C54.3392 83.0999 54.3392 83.1999 54.3392 83.2999C54.3392 83.5999 54.2392 83.7999 54.0392 83.8999L51.6392 84.2999Z"/>
<path d="M56.0392 80.4999C55.8392 80.4999 55.5392 80.3999 55.5392 80.0999C55.5392 79.7999 55.6392 79.5999 55.8392 79.4999L58.3392 78.9999C58.5392 78.9999 58.7392 79.0999 58.8392 79.2999C58.8392 79.2999 58.8392 79.3999 58.8392 79.4999C58.8392 79.7999 58.7392 79.9999 58.5392 80.0999L56.0392 80.4999Z"/>
<path d="M29.3392 81.1999C29.1392 81.0999 29.0392 80.8999 29.0392 80.5999C29.1392 80.2999 29.3392 80.1999 29.5392 80.2999L30.4392 80.6999C30.5392 80.6999 30.6392 80.7999 30.6392 80.8999C30.6392 80.9999 30.7392 81.0999 30.6392 81.2999C30.5392 81.5999 30.3392 81.6999 30.1392 81.5999L29.3392 81.1999Z"/>
<path d="M34.9392 93.6999C34.7392 93.5999 34.6392 93.2999 34.6392 93.0999C34.7392 92.7999 34.9392 92.6999 35.1392 92.7999L36.1392 93.1999C36.2392 93.1999 36.3392 93.2999 36.3392 93.3999C36.4392 93.4999 36.4392 93.5999 36.3392 93.7999C36.2392 94.0999 36.0392 94.1999 35.8392 94.0999L34.9392 93.6999Z"/>
<path d="M34.5392 90.9999C34.3392 90.8999 34.2392 90.5999 34.2392 90.3999C34.3392 90.0999 34.5392 89.9999 34.7392 90.0999L35.7392 90.4999C35.8392 90.4999 35.9392 90.5999 35.9392 90.6999C36.0392 90.7999 36.0392 90.8999 35.9392 91.0999C35.8392 91.3999 35.6392 91.4999 35.4392 91.3999L34.5392 90.9999Z"/>
<path d="M31.8392 88.5999C31.6392 88.4999 31.5392 88.1999 31.5392 87.9999C31.6392 87.6999 31.8392 87.5999 32.0392 87.6999L33.0392 88.0999C33.1392 88.0999 33.2392 88.1999 33.2392 88.2999C33.2392 88.3999 33.3392 88.4999 33.2392 88.6999C33.1392 88.9999 32.9392 89.0999 32.7392 88.9999L31.8392 88.5999Z"/>
<path d="M31.6392 84.6999C31.4392 84.5999 31.3392 84.2999 31.3392 84.0999C31.4392 83.7999 31.6392 83.6999 31.8392 83.7999L32.8392 84.1999C32.9392 84.1999 33.0392 84.2999 33.0392 84.3999C33.0392 84.4999 33.1392 84.5999 33.0392 84.7999C32.9392 85.0999 32.7392 85.1999 32.5392 85.0999L31.6392 84.6999Z"/>
</mask>
<path fill-rule="evenodd" clip-rule="evenodd" d="M70.2394 124.6C75.8394 122.5 80.2394 117.7 81.5394 111.8C81.9394 109.9 82.0394 108 81.7394 106C81.6009 105.03 81.3663 104.108 81.1356 103.201C81.0332 102.799 80.9316 102.4 80.8394 102C80.2394 99.7001 79.8394 97.5001 80.0394 95.1001C80.2394 93.1001 80.7394 91.4001 81.3394 89.5001C81.4079 89.3118 81.4881 89.106 81.5729 88.8881C81.9839 87.8329 82.5052 86.4947 82.3394 85.5001C81.0394 85.9001 79.4394 88.1001 78.6394 89.3001C76.6394 92.5001 75.7394 95.6001 75.7394 99.4001C75.7394 101.5 76.0394 103.6 76.3394 105.6V105.5C77.2394 111.9 72.6394 117 66.7394 118.2L64.2394 118.5L61.3394 118.4C60.3394 118.3 59.3394 118.1 58.4394 117.9C53.7394 116.6 52.0394 113.1 50.4394 108.7C50.1868 108.069 49.942 107.437 49.6982 106.808C48.2355 103.033 46.8072 99.3476 43.9211 96.2898L55.0801 87.2069C57.823 90.5416 60.2557 92.5098 64.7394 90.6001C67.7394 89.3001 69.6394 84.8001 66.7394 81.1001L62.9394 76.4001L63.7394 66.6001C64.3394 58.7001 48.2394 54.0001 40.2394 62.6001C37.2394 60.0001 35.2394 57.2001 40.7394 53.1001C43.0394 41.2001 51.3394 39.5001 61.7394 41.1001C38.3351 23.6693 17.9036 65.3097 33.9691 71.6459L27.6412 74.891L27.5175 75.0147C26.8932 75.4615 26.6595 76.2972 26.6073 77.1896C26.552 78.1343 26.6896 79.3086 26.9625 80.6032L26.9701 80.6388C22.6242 76.3023 18.5983 71.4227 15.8394 66.0001C13.3394 61.1001 11.9394 56.1001 11.0394 50.8001L10.3394 45.5001L10.2394 39.1001C10.4394 37.0001 10.7394 34.9001 11.3394 32.8001C15.4394 17.3001 31.6394 9.40012 46.6394 9.00012C57.3394 8.70012 69.9394 12.5001 74.6394 23.0001C75.6394 25.2001 76.1394 27.5001 76.4394 29.8001C76.6394 31.4001 76.6394 33.1001 76.5394 34.7001C76.3394 37.3001 75.7394 39.9001 74.5394 42.4001C72.9394 45.7001 70.7394 48.7001 67.8394 51.0001C66.769 51.8921 65.619 52.5455 64.3894 53.244C64.2406 53.3285 64.0906 53.4137 63.9394 53.5001L63.7531 53.593L63.6394 53.6494C62.5555 54.1876 61.5555 54.684 60.6394 55.6001C60.8394 55.6501 61.1144 55.7251 61.3894 55.8001C61.6644 55.8751 61.9394 55.9501 62.1394 56.0001C62.6394 56.0001 63.6394 55.9001 64.1394 55.8001C66.4394 55.4001 68.4394 54.7001 70.4394 53.6001C74.0394 51.6001 76.7394 48.6001 79.0394 45.2001C79.0946 45.1105 79.1511 45.0189 79.2089 44.9257C79.2446 44.868 79.2808 44.8097 79.3173 44.7508C80.0775 43.5244 80.9952 42.0437 81.4394 40.8001C82.4394 37.4001 83.0394 33.8001 83.1394 30.2001C83.1394 27.2001 82.7394 24.4001 81.8394 21.6001C78.1394 9.70012 66.7394 2.90013 55.0394 0.800125C51.9394 0.200125 48.7394 0.00012207 45.5394 0.00012207C42.4394 0.00012207 39.2394 0.300124 36.2394 0.900124C30.8394 1.90012 25.5394 3.80012 20.7394 6.50012C17.1394 8.50012 13.9394 10.9001 11.1394 13.9001C4.4394 20.5001 0.839402 29.1001 0.139402 38.4001C-0.260598 43.2001 0.239402 48.2001 1.1394 52.9001C2.0394 57.9001 3.3394 62.8001 5.4394 67.4001C10.3394 78.3001 18.7394 86.8001 27.6394 94.6001L36.6394 102.1L38.6394 104.2C40.1269 106.266 41.2047 108.947 42.0984 111.17C42.2862 111.637 42.4658 112.083 42.6394 112.5C44.6394 117 46.9394 120.9 51.2394 123.4C54.4394 125.3 58.1394 126 61.8394 126C64.8394 126 67.4394 125.7 70.2394 124.6ZM58.2392 70.9999C60.6392 76.0999 61.1392 80.4999 59.9392 81.1999L39.5392 97.9999C39.6392 96.6999 39.3392 94.8999 38.7392 92.7999V92.6999C38.7392 92.5999 38.7142 92.5249 38.6892 92.4499C38.6642 92.3749 38.6392 92.2999 38.6392 92.1999C38.6392 92.1499 38.6142 92.0999 38.5892 92.0499C38.5642 91.9999 38.5392 91.9499 38.5392 91.8999C38.4892 91.7999 38.4642 91.6999 38.4392 91.5999C38.4142 91.4999 38.3892 91.3999 38.3392 91.2999C38.3392 91.2499 38.3142 91.175 38.2892 91.1C38.2642 91.025 38.2392 90.9499 38.2392 90.8999C38.2392 90.8499 38.2142 90.7999 38.1892 90.7499C38.1642 90.6999 38.1392 90.6499 38.1392 90.5999C38.1392 90.2999 38.0392 90.0999 37.9392 89.8999C37.9392 89.8499 37.9142 89.8249 37.8892 89.7999C37.8642 89.7749 37.8392 89.7499 37.8392 89.6999C37.7892 89.5999 37.7642 89.4999 37.7392 89.3999C37.7142 89.2999 37.6892 89.1999 37.6392 89.0999C37.6392 89.0499 37.6142 89.0249 37.5892 88.9999C37.5642 88.9749 37.5392 88.9499 37.5392 88.8999C37.4892 88.7999 37.4392 88.6749 37.3892 88.5499C37.3392 88.4249 37.2892 88.2999 37.2392 88.1999C37.1392 88.0999 37.1392 88.0999 37.1392 87.9999C37.0392 87.6999 36.9392 87.4999 36.8392 87.2999V87.1999C36.7392 86.8999 36.6392 86.5999 36.5392 86.3999C36.4817 86.3424 36.4573 86.3179 36.4469 86.2886C36.4392 86.2668 36.4392 86.2424 36.4392 86.1999C36.3892 86.0499 36.3392 85.9249 36.2892 85.7999C36.2392 85.6749 36.1892 85.5498 36.1392 85.3999C36.0892 85.2999 36.0392 85.1749 35.9892 85.0499C35.9392 84.9249 35.8892 84.7999 35.8392 84.6999C35.8392 84.6499 35.8142 84.6249 35.7892 84.5999C35.7642 84.5749 35.7392 84.5499 35.7392 84.4999C35.5864 84.3471 35.492 84.136 35.4113 83.9556C35.3864 83.8999 35.3628 83.8471 35.3392 83.7999V83.6999C35.2392 83.3999 35.1392 83.1999 35.0392 82.9999L34.9392 82.8999C34.7864 82.7471 34.692 82.536 34.6114 82.3556C34.5864 82.2999 34.5628 82.2471 34.5392 82.1999C34.4392 82.1999 34.4392 82.0999 34.4392 82.0999L34.1392 81.4999C34.0392 81.4999 34.0392 81.3999 34.0392 81.3999C33.8392 81.0999 33.7392 80.8999 33.6392 80.6999L33.5392 80.5999C33.3392 80.3999 33.2392 80.1999 33.1392 79.9999C33.0892 79.8999 33.0142 79.7999 32.9392 79.6999C32.8643 79.6 32.7892 79.4999 32.7392 79.3999L32.6392 79.2999C32.5892 79.1999 32.5142 79.0999 32.4392 78.9999C32.3642 78.8999 32.2892 78.7999 32.2392 78.6999V78.5999C32.1892 78.4999 32.1392 78.4249 32.0892 78.3499C32.0392 78.2749 31.9892 78.1999 31.9392 78.0999L31.8392 77.9999C31.6392 77.7999 31.5392 77.6999 31.4392 77.4999C31.3392 77.4999 31.3392 77.3999 31.3392 77.3999C31.2892 77.3499 31.2392 77.2749 31.1892 77.1999C31.1392 77.1249 31.0892 77.0499 31.0392 76.9999L30.9392 76.8999C30.7998 76.8302 30.7089 76.7118 30.6328 76.6127C30.5998 76.5696 30.5695 76.5302 30.5392 76.4999L29.7392 75.6999C29.6392 75.6999 29.5392 75.5999 29.4392 75.4999L51.8392 64.0999C52.9392 63.3999 55.8392 65.9999 58.2392 70.9999ZM35.3391 86C38.2391 92.4 39.3391 97.9 38.4391 98.8C37.4391 99.3 34.2391 95.7 31.1391 88.6C28.1391 81.8 27.4391 76.7 28.2391 76.1H28.3391C29.3391 75.8 32.1391 79.2 34.8391 84.8C34.9391 85.2 35.1391 85.6 35.3391 86Z" fill="#133A87"/>
<path d="M21.2394 57.3001C21.135 56.3604 20.9761 55.4207 20.8195 54.4952C20.6763 53.6479 20.535 52.8126 20.4394 52.0001C19.9394 48.2001 19.9394 44.6001 20.6394 41.1001L21.6394 37.6001L22.3394 35.9001C26.0394 28.4001 34.8394 23.0001 43.1394 21.8001L46.8394 21.6001L51.0394 22.0001C52.4394 22.2001 53.8394 22.5001 55.2394 23.0001C56.9394 23.6001 58.6394 24.4001 60.1394 25.5001C65.6394 29.7001 65.0394 36.1001 61.8394 41.5001C60.9969 42.9553 60.0371 44.1758 59.0499 45.4313C58.7481 45.8151 58.4437 46.2021 58.1394 46.6001C58.0411 46.7124 57.935 46.8306 57.8243 46.9539C57.1464 47.7089 56.2973 48.6545 56.0394 49.6001C57.8394 49.7001 60.6394 47.4001 61.9394 46.3001C66.7394 42.0001 70.0394 35.6001 68.4394 29.1001C66.4394 21.1001 58.4394 17.3001 50.9394 16.3001C48.4394 16.0001 45.9394 15.8001 43.3394 16.1001C33.2394 17.1001 22.5394 23.8001 18.2394 33.1001C16.5394 36.8001 15.8394 41.0001 16.0394 45.0001C16.2394 48.7001 17.1394 52.6001 18.6394 56.0001L18.6784 56.0881L18.7147 56.1705C19.1649 57.1906 20.1966 59.5287 21.1394 60.0001C21.429 59.3486 21.3517 58.5922 21.287 57.9587C21.2623 57.7171 21.2394 57.4934 21.2394 57.3001Z" fill="#133A87"/>
<path d="M35.1392 79.4999C34.9392 79.4999 34.7392 79.3999 34.6392 79.0999C34.6392 78.7999 34.7392 78.5999 34.9392 78.4999L37.1392 77.9999C37.3392 77.9999 37.4392 78.0999 37.5392 78.2999V78.3999C37.5392 78.6999 37.4392 78.8999 37.2392 78.9999L35.1392 79.4999Z" fill="#133A87"/>
<path d="M42.0392 73.2999V73.3999C42.0392 73.6999 41.9392 73.8999 41.7392 73.9999L39.4392 74.4999C39.2392 74.4999 39.0392 74.3999 38.9392 74.0999C38.9392 73.7999 39.0392 73.5999 39.2392 73.4999L41.5392 72.9999C41.7392 72.9999 41.9392 73.0999 42.0392 73.2999Z" fill="#133A87"/>
<path d="M45.9392 72.1999C45.7392 72.1999 45.5392 72.0999 45.4392 71.7999C45.4392 71.4999 45.5392 71.2999 45.7392 71.1999L48.0392 70.6999C48.2392 70.6999 48.4392 70.7999 48.4392 70.9999C48.4392 70.9999 48.4392 71.0999 48.4392 71.1999C48.4392 71.4999 48.3392 71.6999 48.1392 71.7999L45.9392 72.1999Z" fill="#133A87"/>
<path d="M50.2392 68.2999C50.0392 68.3999 49.7392 68.1999 49.7392 67.8999C49.7392 67.5999 49.8392 67.3999 50.0392 67.2999L52.4392 66.6999C52.6392 66.6999 52.8392 66.7999 52.9392 66.8999C52.9392 66.8999 52.9392 66.9999 52.9392 67.0999C52.9392 67.3999 52.8392 67.5999 52.6392 67.6999L50.2392 68.2999Z" fill="#133A87"/>
<path d="M38.9392 84.0999C38.7392 84.0999 38.5392 83.9999 38.4392 83.6999C38.4392 83.3999 38.5392 83.1999 38.7392 83.0999L41.0392 82.6999C41.2392 82.6999 41.3392 82.7999 41.4392 82.9999C41.4392 82.9999 41.4392 83.0999 41.4392 83.1999C41.4392 83.4999 41.3392 83.6999 41.1392 83.7999L38.9392 84.0999Z" fill="#133A87"/>
<path d="M49.9392 76.9999C49.7392 76.9999 49.4392 76.8999 49.4392 76.5999C49.4392 76.2999 49.5392 76.0999 49.7392 75.9999L52.1392 75.4999C52.3392 75.4999 52.5392 75.5999 52.6392 75.7999C52.6392 75.7999 52.6392 75.8999 52.6392 75.9999C52.6392 76.2999 52.5392 76.4999 52.3392 76.5999L49.9392 76.9999Z" fill="#133A87"/>
<path d="M54.2392 73.0999C54.0392 73.1999 53.7392 72.9999 53.7392 72.6999C53.7392 72.3999 53.8392 72.1999 54.0392 72.0999L56.4392 71.5999C56.6392 71.5999 56.8392 71.6999 56.9392 71.8999C56.9392 71.8999 56.9392 71.9999 56.9392 72.0999C56.9392 72.3999 56.8392 72.5999 56.6392 72.6999L54.2392 73.0999Z" fill="#133A87"/>
<path d="M45.8392 77.9999C45.8392 77.9999 45.8392 78.0999 45.8392 78.1999C45.8392 78.4999 45.7392 78.6999 45.5392 78.7999L43.2392 79.2999C43.0392 79.2999 42.8392 79.1999 42.7392 78.8999C42.7392 78.5999 42.8392 78.3999 43.0392 78.2999L45.3392 77.7999C45.6392 77.6999 45.8392 77.7999 45.8392 77.9999Z" fill="#133A87"/>
<path d="M40.1392 90.8999C40.1392 90.5999 40.2392 90.3999 40.4392 90.2999L42.7392 89.8999C42.9392 89.8999 43.1392 89.9999 43.1392 90.1999C43.1392 90.1999 43.1392 90.2999 43.1392 90.3999C43.1392 90.6999 43.0392 90.8999 42.8392 90.9999L40.5392 91.3999C40.3392 91.3999 40.1392 91.1999 40.1392 90.8999Z" fill="#133A87"/>
<path d="M47.5392 85.2999C47.5392 85.2999 47.5392 85.3999 47.5392 85.4999C47.5392 85.7999 47.4392 85.9999 47.2392 86.0999L44.9392 86.4999C44.7392 86.4999 44.5392 86.3999 44.4392 86.0999C44.4392 85.7999 44.5392 85.5999 44.7392 85.4999L47.0392 85.0999C47.3392 84.9999 47.5392 85.0999 47.5392 85.2999Z" fill="#133A87"/>
<path d="M51.6392 84.2999C51.4392 84.2999 51.1392 84.1999 51.1392 83.8999C51.1392 83.5999 51.2392 83.3999 51.4392 83.2999L53.8392 82.7999C54.0392 82.7999 54.2392 82.8999 54.3392 83.0999C54.3392 83.0999 54.3392 83.1999 54.3392 83.2999C54.3392 83.5999 54.2392 83.7999 54.0392 83.8999L51.6392 84.2999Z" fill="#133A87"/>
<path d="M56.0392 80.4999C55.8392 80.4999 55.5392 80.3999 55.5392 80.0999C55.5392 79.7999 55.6392 79.5999 55.8392 79.4999L58.3392 78.9999C58.5392 78.9999 58.7392 79.0999 58.8392 79.2999C58.8392 79.2999 58.8392 79.3999 58.8392 79.4999C58.8392 79.7999 58.7392 79.9999 58.5392 80.0999L56.0392 80.4999Z" fill="#133A87"/>
<path d="M29.3392 81.1999C29.1392 81.0999 29.0392 80.8999 29.0392 80.5999C29.1392 80.2999 29.3392 80.1999 29.5392 80.2999L30.4392 80.6999C30.5392 80.6999 30.6392 80.7999 30.6392 80.8999C30.6392 80.9999 30.7392 81.0999 30.6392 81.2999C30.5392 81.5999 30.3392 81.6999 30.1392 81.5999L29.3392 81.1999Z" fill="#133A87"/>
<path d="M34.9392 93.6999C34.7392 93.5999 34.6392 93.2999 34.6392 93.0999C34.7392 92.7999 34.9392 92.6999 35.1392 92.7999L36.1392 93.1999C36.2392 93.1999 36.3392 93.2999 36.3392 93.3999C36.4392 93.4999 36.4392 93.5999 36.3392 93.7999C36.2392 94.0999 36.0392 94.1999 35.8392 94.0999L34.9392 93.6999Z" fill="#133A87"/>
<path d="M34.5392 90.9999C34.3392 90.8999 34.2392 90.5999 34.2392 90.3999C34.3392 90.0999 34.5392 89.9999 34.7392 90.0999L35.7392 90.4999C35.8392 90.4999 35.9392 90.5999 35.9392 90.6999C36.0392 90.7999 36.0392 90.8999 35.9392 91.0999C35.8392 91.3999 35.6392 91.4999 35.4392 91.3999L34.5392 90.9999Z" fill="#133A87"/>
<path d="M31.8392 88.5999C31.6392 88.4999 31.5392 88.1999 31.5392 87.9999C31.6392 87.6999 31.8392 87.5999 32.0392 87.6999L33.0392 88.0999C33.1392 88.0999 33.2392 88.1999 33.2392 88.2999C33.2392 88.3999 33.3392 88.4999 33.2392 88.6999C33.1392 88.9999 32.9392 89.0999 32.7392 88.9999L31.8392 88.5999Z" fill="#133A87"/>
<path d="M31.6392 84.6999C31.4392 84.5999 31.3392 84.2999 31.3392 84.0999C31.4392 83.7999 31.6392 83.6999 31.8392 83.7999L32.8392 84.1999C32.9392 84.1999 33.0392 84.2999 33.0392 84.3999C33.0392 84.4999 33.1392 84.5999 33.0392 84.7999C32.9392 85.0999 32.7392 85.1999 32.5392 85.0999L31.6392 84.6999Z" fill="#133A87"/>
<path fill-rule="evenodd" clip-rule="evenodd" d="M70.2394 124.6C75.8394 122.5 80.2394 117.7 81.5394 111.8C81.9394 109.9 82.0394 108 81.7394 106C81.6009 105.03 81.3663 104.108 81.1356 103.201C81.0332 102.799 80.9316 102.4 80.8394 102C80.2394 99.7001 79.8394 97.5001 80.0394 95.1001C80.2394 93.1001 80.7394 91.4001 81.3394 89.5001C81.4079 89.3118 81.4881 89.106 81.5729 88.8881C81.9839 87.8329 82.5052 86.4947 82.3394 85.5001C81.0394 85.9001 79.4394 88.1001 78.6394 89.3001C76.6394 92.5001 75.7394 95.6001 75.7394 99.4001C75.7394 101.5 76.0394 103.6 76.3394 105.6V105.5C77.2394 111.9 72.6394 117 66.7394 118.2L64.2394 118.5L61.3394 118.4C60.3394 118.3 59.3394 118.1 58.4394 117.9C53.7394 116.6 52.0394 113.1 50.4394 108.7C50.1868 108.069 49.942 107.437 49.6982 106.808C48.2355 103.033 46.8072 99.3476 43.9211 96.2898L55.0801 87.2069C57.823 90.5416 60.2557 92.5098 64.7394 90.6001C67.7394 89.3001 69.6394 84.8001 66.7394 81.1001L62.9394 76.4001L63.7394 66.6001C64.3394 58.7001 48.2394 54.0001 40.2394 62.6001C37.2394 60.0001 35.2394 57.2001 40.7394 53.1001C43.0394 41.2001 51.3394 39.5001 61.7394 41.1001C38.3351 23.6693 17.9036 65.3097 33.9691 71.6459L27.6412 74.891L27.5175 75.0147C26.8932 75.4615 26.6595 76.2972 26.6073 77.1896C26.552 78.1343 26.6896 79.3086 26.9625 80.6032L26.9701 80.6388C22.6242 76.3023 18.5983 71.4227 15.8394 66.0001C13.3394 61.1001 11.9394 56.1001 11.0394 50.8001L10.3394 45.5001L10.2394 39.1001C10.4394 37.0001 10.7394 34.9001 11.3394 32.8001C15.4394 17.3001 31.6394 9.40012 46.6394 9.00012C57.3394 8.70012 69.9394 12.5001 74.6394 23.0001C75.6394 25.2001 76.1394 27.5001 76.4394 29.8001C76.6394 31.4001 76.6394 33.1001 76.5394 34.7001C76.3394 37.3001 75.7394 39.9001 74.5394 42.4001C72.9394 45.7001 70.7394 48.7001 67.8394 51.0001C66.769 51.8921 65.619 52.5455 64.3894 53.244C64.2406 53.3285 64.0906 53.4137 63.9394 53.5001L63.7531 53.593L63.6394 53.6494C62.5555 54.1876 61.5555 54.684 60.6394 55.6001C60.8394 55.6501 61.1144 55.7251 61.3894 55.8001C61.6644 55.8751 61.9394 55.9501 62.1394 56.0001C62.6394 56.0001 63.6394 55.9001 64.1394 55.8001C66.4394 55.4001 68.4394 54.7001 70.4394 53.6001C74.0394 51.6001 76.7394 48.6001 79.0394 45.2001C79.0946 45.1105 79.1511 45.0189 79.2089 44.9257C79.2446 44.868 79.2808 44.8097 79.3173 44.7508C80.0775 43.5244 80.9952 42.0437 81.4394 40.8001C82.4394 37.4001 83.0394 33.8001 83.1394 30.2001C83.1394 27.2001 82.7394 24.4001 81.8394 21.6001C78.1394 9.70012 66.7394 2.90013 55.0394 0.800125C51.9394 0.200125 48.7394 0.00012207 45.5394 0.00012207C42.4394 0.00012207 39.2394 0.300124 36.2394 0.900124C30.8394 1.90012 25.5394 3.80012 20.7394 6.50012C17.1394 8.50012 13.9394 10.9001 11.1394 13.9001C4.4394 20.5001 0.839402 29.1001 0.139402 38.4001C-0.260598 43.2001 0.239402 48.2001 1.1394 52.9001C2.0394 57.9001 3.3394 62.8001 5.4394 67.4001C10.3394 78.3001 18.7394 86.8001 27.6394 94.6001L36.6394 102.1L38.6394 104.2C40.1269 106.266 41.2047 108.947 42.0984 111.17C42.2862 111.637 42.4658 112.083 42.6394 112.5C44.6394 117 46.9394 120.9 51.2394 123.4C54.4394 125.3 58.1394 126 61.8394 126C64.8394 126 67.4394 125.7 70.2394 124.6ZM58.2392 70.9999C60.6392 76.0999 61.1392 80.4999 59.9392 81.1999L39.5392 97.9999C39.6392 96.6999 39.3392 94.8999 38.7392 92.7999V92.6999C38.7392 92.5999 38.7142 92.5249 38.6892 92.4499C38.6642 92.3749 38.6392 92.2999 38.6392 92.1999C38.6392 92.1499 38.6142 92.0999 38.5892 92.0499C38.5642 91.9999 38.5392 91.9499 38.5392 91.8999C38.4892 91.7999 38.4642 91.6999 38.4392 91.5999C38.4142 91.4999 38.3892 91.3999 38.3392 91.2999C38.3392 91.2499 38.3142 91.175 38.2892 91.1C38.2642 91.025 38.2392 90.9499 38.2392 90.8999C38.2392 90.8499 38.2142 90.7999 38.1892 90.7499C38.1642 90.6999 38.1392 90.6499 38.1392 90.5999C38.1392 90.2999 38.0392 90.0999 37.9392 89.8999C37.9392 89.8499 37.9142 89.8249 37.8892 89.7999C37.8642 89.7749 37.8392 89.7499 37.8392 89.6999C37.7892 89.5999 37.7642 89.4999 37.7392 89.3999C37.7142 89.2999 37.6892 89.1999 37.6392 89.0999C37.6392 89.0499 37.6142 89.0249 37.5892 88.9999C37.5642 88.9749 37.5392 88.9499 37.5392 88.8999C37.4892 88.7999 37.4392 88.6749 37.3892 88.5499C37.3392 88.4249 37.2892 88.2999 37.2392 88.1999C37.1392 88.0999 37.1392 88.0999 37.1392 87.9999C37.0392 87.6999 36.9392 87.4999 36.8392 87.2999V87.1999C36.7392 86.8999 36.6392 86.5999 36.5392 86.3999C36.4817 86.3424 36.4573 86.3179 36.4469 86.2886C36.4392 86.2668 36.4392 86.2424 36.4392 86.1999C36.3892 86.0499 36.3392 85.9249 36.2892 85.7999C36.2392 85.6749 36.1892 85.5498 36.1392 85.3999C36.0892 85.2999 36.0392 85.1749 35.9892 85.0499C35.9392 84.9249 35.8892 84.7999 35.8392 84.6999C35.8392 84.6499 35.8142 84.6249 35.7892 84.5999C35.7642 84.5749 35.7392 84.5499 35.7392 84.4999C35.5864 84.3471 35.492 84.136 35.4113 83.9556C35.3864 83.8999 35.3628 83.8471 35.3392 83.7999V83.6999C35.2392 83.3999 35.1392 83.1999 35.0392 82.9999L34.9392 82.8999C34.7864 82.7471 34.692 82.536 34.6114 82.3556C34.5864 82.2999 34.5628 82.2471 34.5392 82.1999C34.4392 82.1999 34.4392 82.0999 34.4392 82.0999L34.1392 81.4999C34.0392 81.4999 34.0392 81.3999 34.0392 81.3999C33.8392 81.0999 33.7392 80.8999 33.6392 80.6999L33.5392 80.5999C33.3392 80.3999 33.2392 80.1999 33.1392 79.9999C33.0892 79.8999 33.0142 79.7999 32.9392 79.6999C32.8643 79.6 32.7892 79.4999 32.7392 79.3999L32.6392 79.2999C32.5892 79.1999 32.5142 79.0999 32.4392 78.9999C32.3642 78.8999 32.2892 78.7999 32.2392 78.6999V78.5999C32.1892 78.4999 32.1392 78.4249 32.0892 78.3499C32.0392 78.2749 31.9892 78.1999 31.9392 78.0999L31.8392 77.9999C31.6392 77.7999 31.5392 77.6999 31.4392 77.4999C31.3392 77.4999 31.3392 77.3999 31.3392 77.3999C31.2892 77.3499 31.2392 77.2749 31.1892 77.1999C31.1392 77.1249 31.0892 77.0499 31.0392 76.9999L30.9392 76.8999C30.7998 76.8302 30.7089 76.7118 30.6328 76.6127C30.5998 76.5696 30.5695 76.5302 30.5392 76.4999L29.7392 75.6999C29.6392 75.6999 29.5392 75.5999 29.4392 75.4999L51.8392 64.0999C52.9392 63.3999 55.8392 65.9999 58.2392 70.9999ZM35.3391 86C38.2391 92.4 39.3391 97.9 38.4391 98.8C37.4391 99.3 34.2391 95.7 31.1391 88.6C28.1391 81.8 27.4391 76.7 28.2391 76.1H28.3391C29.3391 75.8 32.1391 79.2 34.8391 84.8C34.9391 85.2 35.1391 85.6 35.3391 86Z" stroke="#133A87" stroke-width="2" mask="url(#path-1-inside-1)"/>
<path d="M21.2394 57.3001C21.135 56.3604 20.9761 55.4207 20.8195 54.4952C20.6763 53.6479 20.535 52.8126 20.4394 52.0001C19.9394 48.2001 19.9394 44.6001 20.6394 41.1001L21.6394 37.6001L22.3394 35.9001C26.0394 28.4001 34.8394 23.0001 43.1394 21.8001L46.8394 21.6001L51.0394 22.0001C52.4394 22.2001 53.8394 22.5001 55.2394 23.0001C56.9394 23.6001 58.6394 24.4001 60.1394 25.5001C65.6394 29.7001 65.0394 36.1001 61.8394 41.5001C60.9969 42.9553 60.0371 44.1758 59.0499 45.4313C58.7481 45.8151 58.4437 46.2021 58.1394 46.6001C58.0411 46.7124 57.935 46.8306 57.8243 46.9539C57.1464 47.7089 56.2973 48.6545 56.0394 49.6001C57.8394 49.7001 60.6394 47.4001 61.9394 46.3001C66.7394 42.0001 70.0394 35.6001 68.4394 29.1001C66.4394 21.1001 58.4394 17.3001 50.9394 16.3001C48.4394 16.0001 45.9394 15.8001 43.3394 16.1001C33.2394 17.1001 22.5394 23.8001 18.2394 33.1001C16.5394 36.8001 15.8394 41.0001 16.0394 45.0001C16.2394 48.7001 17.1394 52.6001 18.6394 56.0001L18.6784 56.0881L18.7147 56.1705C19.1649 57.1906 20.1966 59.5287 21.1394 60.0001C21.429 59.3486 21.3517 58.5922 21.287 57.9587C21.2623 57.7171 21.2394 57.4934 21.2394 57.3001Z" stroke="#133A87" stroke-width="2" mask="url(#path-1-inside-1)"/>
<path d="M35.1392 79.4999C34.9392 79.4999 34.7392 79.3999 34.6392 79.0999C34.6392 78.7999 34.7392 78.5999 34.9392 78.4999L37.1392 77.9999C37.3392 77.9999 37.4392 78.0999 37.5392 78.2999V78.3999C37.5392 78.6999 37.4392 78.8999 37.2392 78.9999L35.1392 79.4999Z" stroke="#133A87" stroke-width="2" mask="url(#path-1-inside-1)"/>
<path d="M42.0392 73.2999V73.3999C42.0392 73.6999 41.9392 73.8999 41.7392 73.9999L39.4392 74.4999C39.2392 74.4999 39.0392 74.3999 38.9392 74.0999C38.9392 73.7999 39.0392 73.5999 39.2392 73.4999L41.5392 72.9999C41.7392 72.9999 41.9392 73.0999 42.0392 73.2999Z" stroke="#133A87" stroke-width="2" mask="url(#path-1-inside-1)"/>
<path d="M45.9392 72.1999C45.7392 72.1999 45.5392 72.0999 45.4392 71.7999C45.4392 71.4999 45.5392 71.2999 45.7392 71.1999L48.0392 70.6999C48.2392 70.6999 48.4392 70.7999 48.4392 70.9999C48.4392 70.9999 48.4392 71.0999 48.4392 71.1999C48.4392 71.4999 48.3392 71.6999 48.1392 71.7999L45.9392 72.1999Z" stroke="#133A87" stroke-width="2" mask="url(#path-1-inside-1)"/>
<path d="M50.2392 68.2999C50.0392 68.3999 49.7392 68.1999 49.7392 67.8999C49.7392 67.5999 49.8392 67.3999 50.0392 67.2999L52.4392 66.6999C52.6392 66.6999 52.8392 66.7999 52.9392 66.8999C52.9392 66.8999 52.9392 66.9999 52.9392 67.0999C52.9392 67.3999 52.8392 67.5999 52.6392 67.6999L50.2392 68.2999Z" stroke="#133A87" stroke-width="2" mask="url(#path-1-inside-1)"/>
<path d="M38.9392 84.0999C38.7392 84.0999 38.5392 83.9999 38.4392 83.6999C38.4392 83.3999 38.5392 83.1999 38.7392 83.0999L41.0392 82.6999C41.2392 82.6999 41.3392 82.7999 41.4392 82.9999C41.4392 82.9999 41.4392 83.0999 41.4392 83.1999C41.4392 83.4999 41.3392 83.6999 41.1392 83.7999L38.9392 84.0999Z" stroke="#133A87" stroke-width="2" mask="url(#path-1-inside-1)"/>
<path d="M49.9392 76.9999C49.7392 76.9999 49.4392 76.8999 49.4392 76.5999C49.4392 76.2999 49.5392 76.0999 49.7392 75.9999L52.1392 75.4999C52.3392 75.4999 52.5392 75.5999 52.6392 75.7999C52.6392 75.7999 52.6392 75.8999 52.6392 75.9999C52.6392 76.2999 52.5392 76.4999 52.3392 76.5999L49.9392 76.9999Z" stroke="#133A87" stroke-width="2" mask="url(#path-1-inside-1)"/>
<path d="M54.2392 73.0999C54.0392 73.1999 53.7392 72.9999 53.7392 72.6999C53.7392 72.3999 53.8392 72.1999 54.0392 72.0999L56.4392 71.5999C56.6392 71.5999 56.8392 71.6999 56.9392 71.8999C56.9392 71.8999 56.9392 71.9999 56.9392 72.0999C56.9392 72.3999 56.8392 72.5999 56.6392 72.6999L54.2392 73.0999Z" stroke="#133A87" stroke-width="2" mask="url(#path-1-inside-1)"/>
<path d="M45.8392 77.9999C45.8392 77.9999 45.8392 78.0999 45.8392 78.1999C45.8392 78.4999 45.7392 78.6999 45.5392 78.7999L43.2392 79.2999C43.0392 79.2999 42.8392 79.1999 42.7392 78.8999C42.7392 78.5999 42.8392 78.3999 43.0392 78.2999L45.3392 77.7999C45.6392 77.6999 45.8392 77.7999 45.8392 77.9999Z" stroke="#133A87" stroke-width="2" mask="url(#path-1-inside-1)"/>
<path d="M40.1392 90.8999C40.1392 90.5999 40.2392 90.3999 40.4392 90.2999L42.7392 89.8999C42.9392 89.8999 43.1392 89.9999 43.1392 90.1999C43.1392 90.1999 43.1392 90.2999 43.1392 90.3999C43.1392 90.6999 43.0392 90.8999 42.8392 90.9999L40.5392 91.3999C40.3392 91.3999 40.1392 91.1999 40.1392 90.8999Z" stroke="#133A87" stroke-width="2" mask="url(#path-1-inside-1)"/>
<path d="M47.5392 85.2999C47.5392 85.2999 47.5392 85.3999 47.5392 85.4999C47.5392 85.7999 47.4392 85.9999 47.2392 86.0999L44.9392 86.4999C44.7392 86.4999 44.5392 86.3999 44.4392 86.0999C44.4392 85.7999 44.5392 85.5999 44.7392 85.4999L47.0392 85.0999C47.3392 84.9999 47.5392 85.0999 47.5392 85.2999Z" stroke="#133A87" stroke-width="2" mask="url(#path-1-inside-1)"/>
<path d="M51.6392 84.2999C51.4392 84.2999 51.1392 84.1999 51.1392 83.8999C51.1392 83.5999 51.2392 83.3999 51.4392 83.2999L53.8392 82.7999C54.0392 82.7999 54.2392 82.8999 54.3392 83.0999C54.3392 83.0999 54.3392 83.1999 54.3392 83.2999C54.3392 83.5999 54.2392 83.7999 54.0392 83.8999L51.6392 84.2999Z" stroke="#133A87" stroke-width="2" mask="url(#path-1-inside-1)"/>
<path d="M56.0392 80.4999C55.8392 80.4999 55.5392 80.3999 55.5392 80.0999C55.5392 79.7999 55.6392 79.5999 55.8392 79.4999L58.3392 78.9999C58.5392 78.9999 58.7392 79.0999 58.8392 79.2999C58.8392 79.2999 58.8392 79.3999 58.8392 79.4999C58.8392 79.7999 58.7392 79.9999 58.5392 80.0999L56.0392 80.4999Z" stroke="#133A87" stroke-width="2" mask="url(#path-1-inside-1)"/>
<path d="M29.3392 81.1999C29.1392 81.0999 29.0392 80.8999 29.0392 80.5999C29.1392 80.2999 29.3392 80.1999 29.5392 80.2999L30.4392 80.6999C30.5392 80.6999 30.6392 80.7999 30.6392 80.8999C30.6392 80.9999 30.7392 81.0999 30.6392 81.2999C30.5392 81.5999 30.3392 81.6999 30.1392 81.5999L29.3392 81.1999Z" stroke="#133A87" stroke-width="2" mask="url(#path-1-inside-1)"/>
<path d="M34.9392 93.6999C34.7392 93.5999 34.6392 93.2999 34.6392 93.0999C34.7392 92.7999 34.9392 92.6999 35.1392 92.7999L36.1392 93.1999C36.2392 93.1999 36.3392 93.2999 36.3392 93.3999C36.4392 93.4999 36.4392 93.5999 36.3392 93.7999C36.2392 94.0999 36.0392 94.1999 35.8392 94.0999L34.9392 93.6999Z" stroke="#133A87" stroke-width="2" mask="url(#path-1-inside-1)"/>
<path d="M34.5392 90.9999C34.3392 90.8999 34.2392 90.5999 34.2392 90.3999C34.3392 90.0999 34.5392 89.9999 34.7392 90.0999L35.7392 90.4999C35.8392 90.4999 35.9392 90.5999 35.9392 90.6999C36.0392 90.7999 36.0392 90.8999 35.9392 91.0999C35.8392 91.3999 35.6392 91.4999 35.4392 91.3999L34.5392 90.9999Z" stroke="#133A87" stroke-width="2" mask="url(#path-1-inside-1)"/>
<path d="M31.8392 88.5999C31.6392 88.4999 31.5392 88.1999 31.5392 87.9999C31.6392 87.6999 31.8392 87.5999 32.0392 87.6999L33.0392 88.0999C33.1392 88.0999 33.2392 88.1999 33.2392 88.2999C33.2392 88.3999 33.3392 88.4999 33.2392 88.6999C33.1392 88.9999 32.9392 89.0999 32.7392 88.9999L31.8392 88.5999Z" stroke="#133A87" stroke-width="2" mask="url(#path-1-inside-1)"/>
<path d="M31.6392 84.6999C31.4392 84.5999 31.3392 84.2999 31.3392 84.0999C31.4392 83.7999 31.6392 83.6999 31.8392 83.7999L32.8392 84.1999C32.9392 84.1999 33.0392 84.2999 33.0392 84.3999C33.0392 84.4999 33.1392 84.5999 33.0392 84.7999C32.9392 85.0999 32.7392 85.1999 32.5392 85.0999L31.6392 84.6999Z" stroke="#133A87" stroke-width="2" mask="url(#path-1-inside-1)"/>
</svg>
