<svg width="57" height="47" viewBox="0 0 57 47" fill="none" xmlns="http://www.w3.org/2000/svg">
<path fill-rule="evenodd" clip-rule="evenodd" d="M46.5 35.0999V38.7999H41.3V44H40.3V35.2H46.5V35.0999ZM40.3 28.2999H41.3V33.5H46.5V34.5H40.3V28.2999ZM39.8 35.0999V44H36V38.7999H30.9V35.0999H39.8ZM36 28.2999H39.8V34.5H30.8V33.5H36V28.2999ZM30.9 1.69995L56.5 46.0999H5.40002L18.2 23.9L30.9 1.69995Z" fill="white"/>
<path fill-rule="evenodd" clip-rule="evenodd" d="M0 39.5L0.6 38.5L6.7 39.9L6.1 41L5 40.6L4.1 42.2L4.9 43L4.3 44L0 39.5ZM3.3 41.4L3.9 40.3L1.6 39.7L3.3 41.4ZM1.7 36.5L2.2 35.6L7.4 38.6L6.9 39.5L1.7 36.5ZM4.1 35.7L4.6 34.8L5 35.1C5 35 4.9 34.9 4.9 34.8C4.9 34.7 4.9 34.6 4.8 34.5C4.8 34.3 4.8 34.2 4.8 34.1C4.8 34 4.9 33.9 4.9 33.8C5.3 33.3 5.7 33 6.2 33C6.7 33 7.3 33.1 7.9 33.5C8.4 33.8 8.8 34.1 9 34.4C9.2 34.7 9.3 35 9.3 35.2C9.3 35.4 9.3 35.6 9.2 35.8C9.1 35.9 9 36 9 36L8.8 36.2C8.7 36.3 8.6 36.4 8.4 36.5C8.3 36.6 8.1 36.6 7.9 36.6L9.4 37.4L8.9 38.3L4.1 35.7ZM6.4 35.9C6.7 36.1 7 36.2 7.3 36.2C7.6 36.2 7.8 36.1 8 35.8C8.2 35.5 8.1 35.3 8 35C7.8 34.8 7.6 34.5 7.2 34.3C6.8 34 6.4 33.9 6.1 34C5.8 34 5.7 34.1 5.5 34.3C5.4 34.5 5.4 34.7 5.5 34.9C5.7 35.4 6 35.6 6.4 35.9ZM10.2 31.1L10.7 30.2L10.9 30.4C11 30.5 11 30.5 11.1 30.6C11.2 30.8 11.3 31.1 11.3 31.4C11.3 31.7 11.2 32.1 11 32.5C10.7 33.1 10.3 33.4 9.7 33.4C9.2 33.5 8.6 33.3 8 33C7.3 32.6 6.9 32.2 6.8 31.6C6.7 31.1 6.7 30.6 7 30.1C7.3 29.5 7.8 29.2 8.3 29.2C8.9 29.2 9.4 29.4 10 29.7L10.2 29.8L8.8 32.2H9C9.2 32.3 9.5 32.4 9.8 32.4C10.1 32.4 10.3 32.3 10.4 32C10.5 31.9 10.5 31.7 10.5 31.6C10.4 31.4 10.4 31.3 10.2 31.1ZM8.3 31.8L9.1 30.4C8.8 30.2 8.6 30.2 8.4 30.2C8.2 30.2 8.1 30.2 8 30.3L7.8 30.5C7.7 30.7 7.7 30.9 7.7 31C7.8 31.2 7.8 31.3 7.9 31.4L8.3 31.8ZM9 27.1L9.5 27.4L9.4 27.3L9.3 27C9.3 26.9 9.3 26.7 9.3 26.5C9.3 26.3 9.4 26.1 9.5 25.9L9.7 25.5C9.9 25.4 10.1 25.3 10.4 25.3C10.7 25.3 11.1 25.4 11.6 25.7L14 27.1L13.5 28L11.3 26.8L10.9 26.6C10.8 26.5 10.6 26.5 10.5 26.5C10.4 26.5 10.2 26.6 10.1 26.8C10 27 10 27.2 10.1 27.4C10.2 27.6 10.4 27.8 10.7 27.9L12.8 29.1L12.3 30L8.5 28L9 27.1ZM10.4 21.4L11.5 19.4C11.8 18.8 12.3 18.5 12.7 18.5C13.2 18.5 13.6 18.6 14.1 18.8C14.6 19.1 14.9 19.4 15.1 19.7C15.2 20 15.3 20.3 15.2 20.6C15.2 20.8 15.1 20.9 15.1 21C15 21.1 15 21.2 14.9 21.3L14.3 22.3L16.1 23.3L15.5 24.3L10.4 21.4ZM12 20.9L13.4 21.7L13.9 20.9C14 20.7 14.1 20.5 14.1 20.3C14.1 20.1 13.9 19.9 13.6 19.8C13.3 19.6 13.1 19.6 13 19.7C12.8 19.8 12.7 19.9 12.6 20.2L12 20.9ZM13.2 16.3L15 17.3C15 17.2 14.9 17.1 14.9 17V16.8C14.9 16.6 14.9 16.4 15 16.3C15.1 16.2 15.1 16.1 15.1 16L15.2 15.8L15.4 15.6C15.6 15.5 15.8 15.4 16.1 15.4C16.4 15.4 16.8 15.5 17.3 15.8L19.7 17.2L19.2 18.1L17 16.9L16.6 16.7C16.5 16.6 16.3 16.6 16.2 16.6C16.1 16.6 15.9 16.7 15.8 16.9C15.7 17.1 15.7 17.3 15.8 17.5C15.9 17.7 16.1 17.9 16.4 18L18.5 19.2L18 20.1L12.8 17.1L13.2 16.3ZM18 14.1L17.5 15L17.3 14.9L17.1 14.7C16.9 14.5 16.8 14.3 16.7 14C16.6 13.7 16.7 13.3 17 12.9C17.3 12.4 17.5 12.2 17.8 12.1C18.1 12 18.3 12 18.6 12C18.7 12 18.8 12.1 18.9 12.1C19 12.1 19.1 12.2 19.2 12.2L20.9 13.2C21.1 13.3 21.3 13.4 21.4 13.5C21.5 13.5 21.6 13.5 21.7 13.5L21.1 14.5L20.7 14.4C20.8 14.5 20.8 14.6 20.8 14.7C20.8 14.8 20.8 14.9 20.8 15C20.8 15.2 20.7 15.3 20.7 15.4C20.6 15.5 20.6 15.6 20.6 15.7C20.4 16 20.2 16.2 20 16.3C19.8 16.4 19.6 16.4 19.4 16.4C19.3 16.4 19.2 16.4 19.1 16.3L19 16C18.6 15.7 18.3 15.5 18.3 15.1C18.3 14.8 18.3 14.4 18.5 14.1V13.9L18.7 13.5C18.8 13.3 18.8 13.2 18.8 13.1C18.8 13 18.7 12.9 18.6 12.9H18.4C18.3 12.9 18.2 12.9 18.1 12.9C18 12.9 17.9 13 17.8 13.2C17.7 13.4 17.7 13.5 17.7 13.6C17.7 13.7 17.8 13.8 17.9 13.9L18 14V14.1ZM19.6 13.6L19.4 13.5V14.4C19.4 14.5 19.4 14.7 19.4 14.8C19.4 14.9 19.5 15 19.7 15.1C19.8 15.1 19.9 15.1 20 15.1C20.1 15.1 20.2 15 20.3 14.8L20.4 14.7V14.5C20.4 14.4 20.4 14.2 20.3 14.1C20.1 13.9 19.9 13.8 19.6 13.6ZM19.5 8.5L20.4 9L20.2 9.2C20.1 9.5 20 9.7 20.1 9.9C20.2 10.1 20.3 10.3 20.5 10.5C20.6 10.6 20.7 10.7 20.8 10.8C20.9 10.9 21 10.9 21.1 11L22.6 11.9L22.1 12.8L18.3 10.6L18.8 9.7L19.4 10.1C19.2 9.8 19.1 9.5 19.1 9.3C19.1 9.1 19.2 8.8 19.3 8.6L19.5 8.5ZM19.9 8.1L20.4 7.2L21 7.5L20.9 7.3C20.9 7.2 20.8 7.2 20.8 7.1C20.8 7 20.7 6.8 20.7 6.7C20.7 6.5 20.7 6.4 20.8 6.2C20.9 6 21.1 5.8 21.3 5.8C21.5 5.7 21.7 5.7 21.9 5.7H22.1C21.9 5.3 21.8 5 21.8 4.8C21.8 4.6 21.9 4.4 22 4.2C22.2 3.9 22.4 3.7 22.7 3.7C23 3.7 23.2 3.7 23.5 3.7C23.7 3.7 23.8 3.8 23.9 3.9C23.9 4 24 4 24.1 4.1L26.4 5.4L25.9 6.3L23.7 5L23.3 4.8C23.2 4.7 23 4.7 22.9 4.7C22.8 4.7 22.7 4.8 22.6 4.9C22.6 5 22.6 5.2 22.6 5.4C22.7 5.6 22.9 5.7 23.1 5.9L25.3 7.1L24.8 8L22.5 7C22.3 6.9 22.1 6.8 21.9 6.8C21.7 6.8 21.6 6.9 21.4 7.1V7.3C21.4 7.4 21.4 7.6 21.5 7.7C21.6 7.9 21.8 8 22 8.2L24.2 9.4L23.7 10.3L19.9 8.1ZM24.8 2.2L24.3 3.1L24.1 3L23.9 2.8C23.7 2.6 23.6 2.4 23.5 2.1C23.4 1.8 23.5 1.4 23.8 1C24.1 0.5 24.3 0.3 24.6 0.2C24.9 0 25.2 0 25.4 0C25.5 0 25.6 0.1 25.7 0.1C25.8 0.2 25.9 0.2 26 0.2L27.7 1.2C27.9 1.3 28.1 1.4 28.2 1.5C28.3 1.5 28.4 1.5 28.5 1.5L27.9 2.5L27.5 2.4C27.6 2.5 27.6 2.6 27.6 2.7C27.6 2.8 27.6 2.9 27.6 3C27.6 3.2 27.5 3.3 27.5 3.4C27.5 3.5 27.4 3.6 27.4 3.7C27.2 4 27 4.2 26.8 4.3C26.6 4.4 26.4 4.4 26.2 4.4C26.1 4.4 26 4.4 25.9 4.3L25.7 4.2C25.3 3.9 25 3.7 25 3.3C25 3 25.1 2.6 25.2 2.3V2.1L25.5 2L25.6 1.8C25.7 1.6 25.7 1.5 25.7 1.4C25.7 1.3 25.6 1.2 25.5 1.2H25.3C25.2 1.2 25.1 1.2 25 1.2C24.9 1.2 24.8 1.3 24.7 1.5C24.6 1.7 24.6 1.8 24.6 1.9C24.6 2 24.7 2.1 24.8 2.2ZM26.4 1.7L26.2 1.6V2.5C26.2 2.6 26.2 2.8 26.2 2.9C26.2 3 26.3 3.1 26.5 3.2C26.6 3.2 26.7 3.2 26.8 3.2C26.9 3.2 27 3.1 27.1 2.9L27.2 2.8V2.6C27.2 2.5 27.2 2.3 27.1 2.2C26.9 2.1 26.7 1.9 26.4 1.7Z" fill="white"/>
</svg>
