<svg width="192" height="30" viewBox="0 0 192 30" fill="none" xmlns="http://www.w3.org/2000/svg">
<path opacity="0.3" d="M22.36 24.12H11.72L9.84 29H0.24L12.48 0.999998H21.76L34 29H24.24L22.36 24.12ZM19.76 17.32L17.04 10.28L14.32 17.32H19.76ZM47.5066 21.96H44.9466V29H35.5066V0.999998H48.9866C51.5732 0.999998 53.8266 1.42666 55.7466 2.28C57.6666 3.13333 59.1466 4.36 60.1866 5.96C61.2266 7.56 61.7466 9.42667 61.7466 11.56C61.7466 13.56 61.2932 15.3067 60.3866 16.8C59.4799 18.2933 58.1732 19.48 56.4666 20.36L62.3466 29H52.2666L47.5066 21.96ZM52.2266 11.56C52.2266 10.52 51.9066 9.72 51.2666 9.16C50.6266 8.57333 49.6666 8.28 48.3866 8.28H44.9466V14.84H48.3866C49.6666 14.84 50.6266 14.56 51.2666 14C51.9066 13.4133 52.2266 12.6 52.2266 11.56ZM76.7113 19.72L74.5913 22.08V29H65.3113V0.999998H74.5913V11.16L83.7913 0.999998H94.0713L82.8713 13.32L94.6313 29H83.7113L76.7113 19.72ZM109.562 29.64C106.548 29.64 103.842 29.0133 101.442 27.76C99.0416 26.5067 97.1616 24.7733 95.8016 22.56C94.4416 20.32 93.7616 17.8 93.7616 15C93.7616 12.2 94.4416 9.69333 95.8016 7.48C97.1616 5.24 99.0416 3.49333 101.442 2.24C103.842 0.986666 106.548 0.359999 109.562 0.359999C112.575 0.359999 115.282 0.986666 117.682 2.24C120.082 3.49333 121.962 5.24 123.322 7.48C124.682 9.69333 125.362 12.2 125.362 15C125.362 17.8 124.682 20.32 123.322 22.56C121.962 24.7733 120.082 26.5067 117.682 27.76C115.282 29.0133 112.575 29.64 109.562 29.64ZM109.562 22C110.735 22 111.788 21.72 112.722 21.16C113.682 20.5733 114.442 19.76 115.002 18.72C115.562 17.6533 115.842 16.4133 115.842 15C115.842 13.5867 115.562 12.36 115.002 11.32C114.442 10.2533 113.682 9.44 112.722 8.88C111.788 8.29333 110.735 8 109.562 8C108.388 8 107.322 8.29333 106.362 8.88C105.428 9.44 104.682 10.2533 104.122 11.32C103.562 12.36 103.282 13.5867 103.282 15C103.282 16.4133 103.562 17.6533 104.122 18.72C104.682 19.76 105.428 20.5733 106.362 21.16C107.322 21.72 108.388 22 109.562 22ZM156.388 0.999998V29H148.628L137.988 16.28V29H128.788V0.999998H136.548L147.188 13.72V0.999998H156.388ZM180.016 24.12H169.376L167.496 29H157.896L170.136 0.999998H179.416L191.656 29H181.896L180.016 24.12ZM177.416 17.32L174.696 10.28L171.976 17.32H177.416Z" fill="#1D1D1F"/>
</svg>
