<svg width="24" height="24" viewBox="0 0 24 24" fill="none" xmlns="http://www.w3.org/2000/svg">
<path d="M8.16 13.5865C9.28 13.5865 10.24 14.4814 10.24 15.7017V21.9661C10.24 23.1051 9.36 24.0814 8.16 24.0814H2C0.88 24.0814 0 23.1051 0 21.9661V15.7017C0 14.5628 0.88 13.5865 2.08 13.5865H8.16ZM20.48 13.5865C21.6 13.5865 22.56 14.4814 22.56 15.7017V21.9661C22.56 23.1051 21.68 24.0814 20.48 24.0814H14.32C13.2 24.0814 12.24 23.1865 12.24 21.9661V15.7017C12.24 14.5628 13.12 13.5865 14.32 13.5865H20.48ZM8.16 15.6204H2V21.8848H8.16V15.6204ZM20.48 15.6204H14.32V21.8848H20.48V15.6204ZM19.04 0.569537L23.36 4.96276C24.16 5.77632 24.16 7.07801 23.36 7.89157L19.04 12.2848C18.24 13.0984 16.96 13.0984 16.16 12.2848L11.84 7.89157C11.04 7.07801 11.04 5.77632 11.84 4.96276L16.16 0.488181C16.96 -0.162667 18.32 -0.162667 19.04 0.569537ZM8.16 1.05767C9.28 1.05767 10.24 1.95259 10.24 3.17293V9.43733C10.24 10.5763 9.36 11.5526 8.16 11.5526H2C0.88 11.4712 0 10.5763 0 9.35598V3.17293C0 2.03394 0.88 1.05767 2.08 1.05767H8.16ZM8.16 3.17293H2V9.43733H8.16V3.17293Z" fill="white"/>
</svg>
