<svg width="206" height="30" viewBox="0 0 206 30" fill="none" xmlns="http://www.w3.org/2000/svg">
<path fill-rule="evenodd" clip-rule="evenodd" d="M28 22.6L33.8 5.8C33.8 5.7 33.9 5.4 34.1 4.8C34.3 4.2 34.3 3.7 34.3 3.3C34.3 2.8 34.2 2.4 33.9 2C33.7 1.6 33.3 1.2 32.6 0.8L43.1 0.7L51.5 23.3C52 24.7 52.5 25.8 52.9 26.6C53.4 27.3 54 28.1 55 29V29.2H42.1V29C43.3 28.3 43.9 27.5 43.9 26.5C43.9 26.1 43.9 25.8 43.9 25.6C43.9 25.4 43.8 25.1 43.6 24.6L42.2 20.5H33.6L32.4 24.1C32.3 24.5 32.2 24.9 32 25.4C31.9 25.8 31.8 26.2 31.7 26.6C31.7 27.1 31.8 27.5 32.1 27.8C32.4 28.2 32.8 28.5 33.3 29V29.2H24.5V29C25.3 28.2 26.1 27.3 26.6 26.1C27 25.4 27.4 24.2 28 22.6ZM34.9 16.4H40.8L37.8 7.8L34.9 16.4ZM65.8 14.6C67.2 14.4 68.3 13.8 69.2 12.8C70 11.8 70.5 10.7 70.5 9.4C70.5 8.1 70.2 7 69.5 6.2C68.7 5.3 67.6 4.8 66.2 4.8H65.9V14.6H65.8ZM65.8 16.9V24.9C65.8 25.9 66 26.8 66.3 27.5C66.6 28.1 67.1 28.6 67.7 29V29.2H56.1V29C56.8 28.6 57.3 28.1 57.5 27.4C57.8 26.7 57.9 25.9 57.9 25.1V5.4C57.9 4.2 57.8 3.2 57.6 2.6C57.4 1.9 56.9 1.3 56.1 0.8L70.2 0.7C72.6 0.7 74.6 1.3 76.1 2.6C77.7 4 78.5 5.9 78.5 8.3C78.5 9.4 78.2 10.4 77.7 11.4C76.9 12.9 75.4 14.1 73.5 15.1L79 24.5C79.6 25.5 80.1 26.1 80.4 26.5C81.1 27.5 81.9 28.3 82.6 28.9L77.8 29.2H75.4C74.3 29.2 73.4 29 72.8 28.7C72.2 28.3 71.5 27.6 71 26.5L65.8 16.9ZM92.8 25C92.8 25.9 92.9 26.7 93.2 27.4C93.5 28.1 94 28.6 94.6 28.9V29.1H83V28.9C83.7 28.5 84.2 27.9 84.4 27.2C84.6 26.4 84.8 25.7 84.8 25V5.6C84.8 4.3 84.7 3.4 84.5 2.8C84.2 2 83.7 1.3 82.9 0.8L94.6 0.7C93.9 1.2 93.5 1.7 93.2 2.5C93 3.2 92.8 4 92.8 4.6V13.5L98.3 6.6C98.7 6.2 99.1 5.7 99.4 5.2C99.9 4.5 100.2 3.9 100.2 3.2C100.2 2.7 100 2.3 99.8 1.9C99.6 1.5 99.1 1.2 98.5 0.8L109.1 0.7L99.6 12.2L107.6 24.9C108 25.5 108.4 26.1 108.7 26.7C109.3 27.6 110.1 28.3 110.8 28.9V29.1H108.2C104.7 29.1 102.4 28.9 101.2 28.4C100 27.9 98.9 26.9 97.9 25.1L92.9 16.4V25H92.8ZM111.6 14.2C111.6 10.1 113.1 6.7 116.2 4C119.2 1.3 123.1 0 127.8 0C132.7 0 136.6 1.4 139.5 4.2C142.2 6.9 143.6 10.3 143.6 14.6V14.8C143.6 18.5 142.4 21.8 140.1 24.5C137.2 27.9 133 29.7 127.6 29.7C122.8 29.7 118.8 28.2 115.8 25.3C113 22.5 111.5 19.1 111.5 14.9V14.2H111.6ZM119.9 14.2C119.9 17 120.6 19.5 122 21.7C123.5 24.1 125.5 25.3 127.9 25.3C130.3 25.3 132.2 24.4 133.4 22.8C134.6 21.2 135.2 19.1 135.2 16.4C135.2 13.4 134.7 10.7 133.6 8.6C132.2 5.8 130.2 4.3 127.5 4.3C125.4 4.3 123.6 5.2 122.1 7C120.7 8.8 120 11 120 13.7V14.2H119.9ZM147.3 23.9V7.7C147.3 5.8 147.2 4.6 146.9 3.8C146.6 3 145.9 2.1 144.9 0.9V0.7H153.9L167.1 18.1V6.3C167.1 5.1 167 4.2 166.9 3.6C166.7 2.5 166.1 1.6 165.2 0.7L165.1 0.6H173.5C172.8 1.3 172.3 2.1 172 2.9C171.7 3.8 171.5 4.7 171.5 5.6V30H171.3C170.3 30 168.9 29.6 167.2 28.8C164.9 27.7 163.2 26.4 161.9 24.7L151.9 11.4H151.7V23.9C151.7 25.1 151.9 26.1 152.2 26.9C152.6 27.7 153 28.3 153.6 28.9V29.1H145.2V28.9C145.9 28.4 146.3 27.7 146.7 26.9C147.2 26.2 147.3 25.2 147.3 23.9ZM178.1 22.6L184 5.8C184.1 5.7 184.1 5.4 184.3 4.8C184.5 4.2 184.6 3.7 184.6 3.3C184.6 2.8 184.5 2.4 184.3 2C184.1 1.6 183.7 1.2 183 0.8L193.6 0.7L201.9 23.3C202.4 24.7 202.9 25.8 203.4 26.6C203.9 27.3 204.5 28.1 205.5 29V29.2H192.4V29C193.6 28.3 194.2 27.5 194.2 26.5C194.2 26.1 194.2 25.8 194.2 25.6C194.2 25.4 194 25.1 193.9 24.6L192.5 20.5H183.9L182.7 24.1C182.6 24.5 182.5 24.9 182.4 25.4C182.2 25.8 182.2 26.2 182.2 26.6C182.2 27.1 182.3 27.5 182.6 27.8C182.9 28.2 183.2 28.5 183.8 29V29.2H174.9V29C175.8 28.2 176.6 27.3 177.1 26.1C177.2 25.4 177.6 24.2 178.1 22.6ZM185 16.4H190.9L187.9 7.8L185 16.4Z" fill="#0C499A"/>
<path d="M2.6 0H17.3C18 0 18.7 0.3 19.2 0.8C19.7 1.3 20 1.9 20 2.6V26.7C20 27.4 19.7 28.1 19.2 28.6C18.7 29.1 18.1 29.4 17.3 29.4H2.6C1.9 29.4 1.2 29.1 0.7 28.6C0.3 28.1 0 27.5 0 26.7V2.6C0 1.9 0.3 1.2 0.8 0.7C1.3 0.3 1.9 0 2.6 0ZM2.6 0.5C2 0.5 1.5 0.7 1.1 1.1C0.8 1.5 0.5 2.1 0.5 2.6V26.7C0.5 27.3 0.7 27.8 1.1 28.2C1.5 28.6 2 28.8 2.6 28.8H17.3C17.9 28.8 18.4 28.6 18.8 28.2C19.2 27.8 19.4 27.3 19.4 26.7V2.6C19.4 2 19.2 1.5 18.8 1.1C18.4 0.7 17.9 0.5 17.3 0.5H2.6Z" fill="#0C499A"/>
<path fill-rule="evenodd" clip-rule="evenodd" d="M2.49997 6.30002C2.49997 6.90002 6.39997 6.80002 6.69997 7.40002C7.19997 8.20002 7.69997 8.90001 8.69997 9.40001C7.89997 9.90001 7.69997 9.80002 6.19997 11.6C4.69997 13.4 6.89997 17 7.89997 20.1C8.29997 21.5 9.39997 23.7 9.79997 24.7C8.79997 25.2 6.89997 25.1 6.89997 26.1C6.89997 26.4 7.29997 26.4 7.39997 26.4H14.1C15.6 26.4 14.3 25.3 14.5 25.2C15.5 24.5 15.3 19.4 15.3 15.7C15.2 11.9 14 9.60002 14.1 9.50002C14.4 8.90001 15.2 8.00002 15.2 7.00002C15.3 5.80002 14 5.70002 13.4 4.20002C13.1 3.50002 11.4 3.20002 10.5 3.10002C9.59997 3.00002 8.99997 3.60002 8.19997 4.40002C7.19997 5.60002 6.39997 5.70002 5.29997 5.70002C4.49997 5.70002 2.39997 5.80002 2.49997 6.30002ZM9.59997 3.90002C10.3 3.70002 10.4 4.50002 10.7 4.90002C11.5 6.10002 11.4 5.70002 12.2 6.00002C13.6 6.50002 13.9 9.10001 12.4 9.40001C11.5 9.60001 11.7 9.40002 11.3 8.60002C11.1 8.20002 10.4 7.70002 10.1 7.50002C8.89997 6.70002 8.49997 4.30002 9.59997 3.90002ZM9.29997 7.90002C9.79997 8.30002 10.1 8.90001 9.89997 9.20002C9.69997 9.40001 9.09997 9.30001 8.49997 8.90001C7.99997 8.50002 7.59997 7.80002 7.79997 7.50002C7.99997 7.20002 8.79997 7.50002 9.29997 7.90002ZM8.39997 10.9C8.49997 11 8.19997 11.8 7.79997 13C7.59997 13.8 8.39997 13.8 8.99997 15.3C9.59997 16.7 9.89997 19 10.6 20.6C11.2 21.9 12.2 22.8 12.8 22.7C13.4 22.6 14 21.8 14 20C14.1 16.5 13.8 12.7 14 12.2C14.3 11.3 14.9 19.6 14.3 22.1C13.7 24.5 13 24.5 12.4 24.5C9.99997 24.5 9.69997 23 7.89997 18.6C7.49997 17.6 5.99997 14.6 6.19997 13.2C6.39997 11.8 8.19997 10.7 8.39997 10.9Z" fill="#0C499A"/>
</svg>
