<svg width="84" height="46" viewBox="0 0 84 46" fill="none" xmlns="http://www.w3.org/2000/svg">
<path d="M22.2545 0.768701C25.3446 -0.454048 28.945 -0.198123 31.865 1.39429C35.919 3.49856 38.6689 7.42273 40.5116 11.4891C41.0786 11.7734 41.9008 11.8872 42.0425 12.6265C42.2126 13.3374 41.7874 13.963 41.5039 14.5886C42.1843 17.4322 42.6662 20.3327 42.7513 23.2616C42.5528 26.6455 42.0142 30.0578 40.9936 33.2995C39.2643 37.9346 36.2875 42.3706 31.8367 44.7023C29.4269 46.0673 26.5353 46.2379 23.8421 45.7545C19.8448 45.0436 16.0743 43.1099 13.2109 40.2663C11.6517 38.7308 10.8296 36.6549 9.61053 34.8919C8.67499 33.6692 7.59771 32.617 6.49207 31.5649C4.47924 29.6312 1.92778 28.3801 0 26.3611C0.481944 25.508 0.992239 24.6549 1.47418 23.7734C1.72933 23.8303 2.26797 23.9725 2.52312 24.0294C3.9406 23.5744 5.35809 22.9488 6.26527 21.6976C6.74722 22.0388 7.39926 22.2663 7.56936 22.9204C8.3348 24.6549 8.95849 26.4464 9.49713 28.2663C9.44043 26.0767 8.70334 23.944 8.78839 21.7829C9.10024 21.7829 9.69558 21.7829 10.0074 21.7829C10.4327 17.3753 11.2265 12.8824 13.4377 9.01514C15.3655 5.43221 18.3139 2.16206 22.2545 0.768701ZM20.2983 3.52699C17.6618 4.92036 15.7908 7.33742 14.0614 9.69761C11.9919 13.3659 10.5177 17.4322 10.3476 21.6692C10.7445 22.181 11.1131 22.6644 11.51 23.1763C12.162 23.0341 12.814 22.9204 13.4377 22.7782C13.6645 22.9204 14.1181 23.2047 14.3449 23.3469C15.1104 23.4606 15.8475 23.6881 16.5562 23.9725C16.6129 24.4275 16.6696 24.8824 16.7263 25.3374C16.301 25.7071 15.7908 26.0483 15.5073 26.5317C14.2599 28.6075 13.2676 30.8256 12.5022 33.1004C14.515 38.0199 18.484 42.5128 23.757 43.8777C25.3162 44.0767 26.9038 44.0199 28.4914 43.9346C32.3753 43.1952 35.5221 40.4369 37.8184 37.309C40.7101 33.2142 42.1276 28.2379 42.2693 23.2616C42.3827 20.3042 41.5606 17.4606 40.9652 14.5886C40.7101 14.5886 40.1714 14.5602 39.888 14.5317C38.754 13.4796 39.8596 12.0009 39.1792 10.8066C36.9679 6.71183 33.3392 3.18576 28.7182 2.04832C25.8265 1.22368 22.8215 2.13363 20.2983 3.52699ZM12.0203 38.0199C13.6362 40.4654 16.0742 42.4274 18.7675 43.5649C15.7908 41.1763 13.6645 37.9346 12.0486 34.4938C11.7084 35.6597 11.1131 36.9677 12.0203 38.0199Z" fill="white"/>
<path d="M44.3955 7.963C45.6146 7.62177 46.8903 7.87769 48.1377 7.963C47.8259 8.33267 47.514 8.73077 47.2022 9.10044C47.1455 9.66916 47.1171 10.2094 47.0604 10.7782C46.4934 10.4654 45.9264 10.1526 45.3594 9.83978C45.3311 9.55542 45.3027 8.9867 45.2744 8.70234C45.0476 8.95826 44.8208 9.21419 44.6223 9.47011C46.2383 10.835 48.5062 12.1715 50.6041 11.0625C51.483 10.5507 53.1839 9.95352 52.5035 8.61703C52.3618 8.92983 52.1066 9.58385 51.9649 9.89665C51.483 10.181 50.9727 10.4369 50.4907 10.6929C50.4907 10.3516 50.4907 9.64073 50.4907 9.29949C50.1222 8.84452 49.8103 8.33267 49.5268 7.82082C51.0294 7.76395 52.702 7.47959 54.0061 8.41798C54.0061 10.5791 51.8231 11.4038 50.2356 12.2284C49.3284 12.2568 48.4495 12.1715 47.5707 12.399C46.3517 11.7166 45.0476 11.1194 44.0554 10.1526C43.3466 9.55542 43.46 8.2758 44.3955 7.963Z" fill="white"/>
<path d="M54.0911 9.78296C56.0189 9.15737 58.0884 9.41329 60.1012 9.47016C61.462 10.2664 59.5909 11.3185 58.8822 11.7735C59.3074 13.1384 59.676 14.5318 60.0162 15.9251C60.4414 16.3232 60.8667 16.7213 61.2919 17.1479C60.1012 17.2048 58.8822 17.2048 57.6915 17.1479C58.0034 16.7782 58.3436 16.4086 58.6838 16.0104C58.4286 14.7877 58.2018 13.5934 58.0317 12.3706C56.8127 12.9678 55.3952 13.5649 55.0267 15.0152C55.2535 15.2142 55.7354 15.6408 55.9622 15.8398C56.274 16.9773 55.1401 17.2332 54.3179 17.2332C53.5241 14.5886 55.5086 12.2853 56.2741 9.8967L55.8204 9.8114C55.5653 10.2379 55.2818 10.6645 55.0267 11.091C54.7432 10.8067 54.3179 10.1242 54.0911 9.78296ZM55.5937 13.11C56.5292 12.655 57.408 12.1147 58.2585 11.546C57.7482 11.2048 57.408 10.7213 57.0678 10.2379C56.3024 11.0341 56.0189 12.1431 55.5937 13.11Z" fill="white"/>
<path d="M60.5832 9.49855C63.163 9.52699 65.8562 9.04358 68.351 9.78291C67.7273 10.5791 66.1397 11.1194 66.9902 12.3422C65.6011 12.3706 66.2248 10.9204 66.4516 10.0673C66.1397 10.0673 65.4877 10.0957 65.1475 10.1241C65.0908 12.0578 65.1191 13.963 65.0908 15.8967C65.516 16.2948 65.9129 16.7213 66.3382 17.1194C65.0624 17.29 63.7867 17.3469 62.5393 16.9772C62.9362 16.5222 63.9001 16.3516 63.7867 15.5839C63.8434 13.764 63.8151 11.9156 63.7867 10.0957C63.5032 10.0957 62.9079 10.0673 62.596 10.0673C62.7661 10.9204 63.0496 11.8019 62.6244 12.6265C62.4259 12.1147 62.2275 11.6313 61.9723 11.1478C61.5187 10.636 61.0651 10.0673 60.5832 9.49855Z" fill="white"/>
<path d="M68.4077 9.4701C69.3716 9.66915 71.2143 8.81607 71.5545 10.0104C71.186 10.5222 70.7324 10.9488 70.3071 11.4322C71.2994 11.5459 72.1215 12.0293 72.7452 12.8824C71.8663 12.6549 71.1293 12.1146 70.4205 11.6028C70.3638 12.1431 69.8819 13.309 70.8741 13.2805C71.4695 13.3943 72.0648 13.5649 72.5184 13.963C71.2427 14.8161 69.7401 14.2473 68.6345 13.4227C68.8896 12.7971 69.1448 12.1715 69.3999 11.5459L69.7401 11.944C69.9386 11.2331 70.137 10.5222 70.052 9.7829C69.6834 10.2379 69.3432 10.6928 68.9747 11.1478C68.8613 10.7213 68.5494 9.8682 68.4077 9.4701Z" fill="white"/>
<path d="M71.8664 9.72607C72.8586 9.47015 73.8792 9.41328 74.8998 9.38484C74.0493 11.6597 74.1627 14.1337 73.8792 16.5223C72.5751 17.2616 71.0442 17.3185 69.5984 17.1479C68.7195 16.9488 68.8046 16.0389 68.7762 15.328C69.0597 15.2995 69.6551 15.2427 69.9386 15.1858C69.9953 15.6976 70.0803 16.2095 70.137 16.6929C70.9875 16.6645 71.838 16.6076 72.6885 16.5507C72.9436 15.527 72.8869 14.4749 72.5751 13.4512C73.057 12.1716 73.3122 10.4938 71.8664 9.72607Z" fill="white"/>
<path d="M74.9281 9.75451C76.6007 9.29953 78.5568 9.12892 80.0877 10.0673C81.7604 11.0057 81.6469 14.0199 79.6908 14.5033C78.812 14.6739 77.2244 14.5886 77.1961 13.3943C76.9409 12.6265 77.5079 12.1716 78.0465 11.7735C78.16 12.1431 78.3867 12.854 78.5001 13.1953C80.031 13.2237 79.7192 11.6882 79.5491 10.636C78.7836 10.2664 77.9615 10.0389 77.111 10.1242C76.9693 12.0863 76.9693 14.0199 77.111 15.982C77.5363 16.3517 77.9615 16.7213 78.3584 17.091C77.0543 17.3185 75.7219 17.3469 74.4461 17.0057C74.758 16.7782 75.3533 16.2948 75.6368 16.0389C75.3533 13.963 76.3172 11.5175 74.9281 9.75451Z" fill="white"/>
<path d="M45.3878 11.6028C45.9831 11.8872 46.5501 12.1999 47.1171 12.4843C47.1171 13.6502 47.1171 14.8445 47.1171 16.0104C47.6274 16.3232 48.1377 16.6075 48.648 16.9203C47.1171 17.5175 45.3027 17.6312 43.8286 16.8634C44.3388 16.5507 44.8491 16.2379 45.3594 15.9251C45.3878 14.5033 45.3878 13.053 45.3878 11.6028Z" fill="white"/>
<path d="M50.4907 12.4559C51.0294 12.1715 51.568 11.9156 52.0783 11.6313C52.1066 13.0531 52.1067 14.5033 52.1067 15.9251C52.6453 16.2663 53.1839 16.6076 53.6942 16.9772C52.1917 17.5744 50.4624 17.5175 48.9598 17.0057C49.4701 16.636 49.9804 16.2948 50.4907 15.9251C50.4907 14.7592 50.4907 13.6218 50.4907 12.4559Z" fill="white"/>
<path d="M49.5552 23.0056C51.001 21.271 53.4391 21.9251 55.3952 21.8113C57.0962 21.6691 58.9106 23.1478 58.5987 24.9677C58.457 27.0151 55.1684 27.6407 54.3463 25.7639C54.5447 25.2236 54.7148 24.6834 54.9133 24.1431C55.3952 24.7971 56.0756 25.3374 56.9261 25.3658C56.9544 24.7118 57.0395 24.0578 56.9261 23.4037C56.5859 22.4938 55.5369 22.4085 54.7715 22.0957C54.2045 24.1431 54.2612 26.2473 54.5164 28.3516C54.9133 28.6928 55.2535 29.0909 55.5369 29.5459C54.3463 29.6028 53.1556 29.5459 51.9649 29.4322C52.3618 29.0625 52.7587 28.6928 53.1556 28.3232C53.5525 26.2758 53.354 24.2284 53.0989 22.181C51.483 22.1241 49.9521 23.6028 50.7742 25.2521C51.001 25.2805 51.4829 25.3374 51.7381 25.3658C51.9365 25.053 52.3051 24.4274 52.5035 24.1146C53.1272 24.7687 53.3257 25.5649 53.1839 26.4464C52.2484 26.7592 51.2278 26.9014 50.2356 26.8445C49.0449 25.9061 48.5629 24.1999 49.5552 23.0056Z" fill="white"/>
<path d="M59.109 22.2094C61.2636 21.8966 63.4465 22.0388 65.6294 22.0957C65.7712 23.1762 64.8356 23.745 64.0985 24.3421C64.4104 25.707 64.7222 27.072 65.0624 28.4085C65.3459 28.7781 65.9696 29.0341 65.9413 29.5743C64.9207 30.0009 63.7867 29.6881 62.7094 29.7165C63.0212 29.3184 63.3614 28.9487 63.7016 28.5506C63.5032 27.3563 63.2764 26.1336 63.0779 24.9393C61.944 25.5933 60.2997 26.0483 60.1296 27.5838C61.0651 28.0388 60.8383 29.0056 60.7533 29.8587C60.1012 29.8018 59.0523 29.745 59.0807 28.835C59.024 27.0435 60.1296 25.5364 60.5265 23.8303C60.0162 23.3184 59.5626 22.7781 59.109 22.2094ZM60.5548 22.4938C60.2997 23.0625 60.4981 23.2615 61.1502 23.0909C61.377 22.4938 61.1785 22.2947 60.5548 22.4938ZM60.6682 25.7639C61.7739 25.0246 62.9078 24.2852 64.1269 23.745C63.7867 23.8018 63.0779 23.9156 62.7378 23.944C62.6527 23.6881 62.4826 23.1478 62.3692 22.8919C61.0935 22.8634 61.2636 24.9393 60.6682 25.7639Z" fill="white"/>
<path d="M66.3098 22.0957C67.869 22.0673 69.485 21.8967 71.0159 22.2094C72.6885 22.6075 73.2555 24.7971 72.4617 26.1905C71.4128 27.527 68.918 27.2426 68.3793 25.5365L69.003 25.309C68.7479 25.3374 68.2376 25.3943 67.9824 25.4227C68.8613 26.1905 68.6061 27.3848 68.7762 28.4085C69.0881 28.8919 69.5417 29.29 69.9386 29.745C68.8046 29.745 67.5288 30.0578 66.5366 29.6028C66.6784 29.1478 66.9619 28.7497 67.3021 28.4654C67.132 26.3327 68.1809 23.6881 66.3098 22.0957ZM68.8046 22.4369C68.6912 23.1478 68.5778 23.8872 68.4927 24.5981C68.6345 24.7402 68.8046 24.854 68.9747 24.9677C69.7968 23.8872 70.3355 26.3895 71.1293 25.2805C72.0931 23.7734 70.3355 22.2094 68.8046 22.4369Z" fill="white"/>
<path d="M73.5673 22.38C74.0776 21.8966 74.843 22.0957 75.4667 22.0388C78.3017 22.0957 81.165 21.9819 84 22.0957C83.9433 22.9488 83.5181 23.6028 82.7526 24.0009C82.8093 23.6597 82.8944 22.9488 82.9511 22.6075C82.5542 22.636 82.1289 22.6928 81.732 22.7213C81.9021 22.835 82.299 23.0909 82.4691 23.2047C82.4975 25.4227 83.2062 27.5554 82.9227 29.7734C80.0311 29.7165 77.1394 29.6312 74.2194 29.5744C74.0493 27.3279 74.3611 25.0815 75.325 23.0056C75.7219 21.3848 74.5312 23.3469 74.0209 23.489C73.9359 23.2616 73.6807 22.6644 73.5673 22.38ZM76.7141 22.7213C76.459 23.0056 75.9203 23.5744 75.6652 23.8587C76.544 23.9156 77.4512 24.0293 78.3301 24.1715C77.9899 23.6597 77.6497 23.1194 77.3378 22.6075C77.1677 22.5791 76.8559 22.6644 76.7141 22.7213ZM79.5491 22.636C79.379 22.9772 79.0672 23.6597 78.8971 24.0293C79.6058 23.944 80.3429 24.0293 81.0516 24.0009C80.8532 23.6881 80.4846 23.0056 80.2862 22.6928C80.0877 22.6644 79.7192 22.636 79.5491 22.636ZM75.2116 28.4369C75.7219 28.7497 76.1755 29.1478 76.7708 29.3184C77.1677 29.1763 77.5646 28.9488 77.9048 28.6644C77.8765 27.2426 77.8765 25.8208 77.9332 24.399C77.1677 24.3137 76.4306 24.2284 75.6935 24.1146C75.1549 25.508 75.0982 26.9867 75.2116 28.4369ZM79.0955 24.4843C79.1522 26.1336 79.0388 27.7829 79.4641 29.3753C80.0027 29.29 80.5413 29.2331 81.08 29.1478C81.8738 27.6123 81.5619 25.7639 80.9666 24.1999C80.4846 24.2853 79.5491 24.4274 79.0955 24.4843Z" fill="white"/>
<path d="M17.3783 6.74028C18.7675 6.74028 20.1283 6.74028 21.5174 6.74028C21.5741 8.67393 21.4323 10.636 21.5741 12.5697C22.0844 13.764 23.2751 14.5317 24.5224 14.8161C24.5791 12.1147 24.5224 9.41326 24.5508 6.71184C25.9399 6.71184 27.3007 6.71184 28.6898 6.71184C28.6898 11.091 28.6898 15.4701 28.6898 19.8493C28.6048 20.9298 29.2568 21.9251 30.2491 22.3232C33.3108 23.9725 36.9112 25.1099 38.8957 28.181C40.3982 30.2284 40.3982 33.6123 38.1586 35.1479C35.1819 37.2806 31.3547 37.9061 28.6615 40.4938C28.5764 38.4749 26.8755 37.0815 25.0611 36.4843C22.2545 35.3753 18.5974 34.7782 17.2933 31.6787C16.9247 29.5744 17.2366 27.1573 18.7675 25.5934C19.7597 24.3137 21.3756 23.8019 22.9349 23.6313C26.025 23.6313 28.8883 25.1668 30.9862 27.3564C29.9089 24.6265 27.2157 22.9772 24.5508 22.0389C24.409 20.7024 24.976 19.0531 23.9271 17.9441C23.3034 17.1763 22.3962 16.8066 21.5457 16.4085C21.489 18.2569 21.5174 20.0768 21.5174 21.9251C20.0432 22.181 18.6257 22.7498 17.35 23.5744C17.3783 17.9441 17.35 12.3422 17.3783 6.74028ZM23.8988 30.1147C24.2673 32.5886 26.677 33.8682 28.6615 34.9488C28.6615 32.8161 28.6615 30.655 28.6615 28.5223C27.9811 28.0104 27.2724 27.2142 26.3368 27.4133C24.9477 27.4701 24.0972 28.8635 23.8988 30.1147ZM32.8856 27.3848C32.7722 29.9441 32.8289 32.5033 32.8572 35.0341C33.6794 34.3801 34.6716 33.7545 34.8984 32.6455C35.5221 30.6834 34.2464 28.7213 32.8856 27.3848Z" fill="white"/>
</svg>
