<svg width="130" height="130" viewBox="0 0 130 130" fill="none" xmlns="http://www.w3.org/2000/svg">
<path d="M65 2C99.7 2 128 30.3 128 65C128 99.7 99.7 128 65 128C30.3 128 2 99.7 2 65C2 30.3 30.3 2 65 2ZM65 0C29.1 0 0 29.1 0 65C0 100.9 29.1 130 65 130C100.9 130 130 100.9 130 65C130 29.1 100.9 0 65 0Z" fill="#E47100"/>
<path d="M91.8999 77.6001C92.8999 76.5001 92.9999 74.4001 92.9999 74.4001C92.9999 73.3001 92.9999 71.4001 92.9999 70.0001C93.1999 70.0001 93.8999 70.2001 93.9999 69.2001C93.9999 67.2001 94.1999 45.1001 94.0999 43.2001C93.6999 38.4001 92.5999 37.3001 92.1999 36.5001C90.2999 32.9001 86.7999 31.2001 86.7999 31.2001C80.0999 27.5001 71.6999 29.9001 67.9999 36.6001C66.8999 38.6001 66.2999 40.9001 66.2999 43.2001L65.7999 69.2001C65.7999 69.6001 66.0999 70.0001 66.4999 70.1001H66.6999V74.4001C66.6999 75.6001 67.0999 76.7001 67.7999 77.6001L65.1999 94.4001C65.0999 94.9001 65.4999 95.3001 65.8999 95.4001H71.4999V99.1001C71.4999 101 72.9999 102.5 74.8999 102.5C76.7999 102.5 78.2999 101 78.2999 99.1001V96.2001H81.6999V99.0001C81.6999 100.9 83.1999 102.4 85.0999 102.4C86.9999 102.4 88.4999 100.9 88.4999 99.0001V95.3001H93.9999C93.9999 95.3001 94.8999 95.1001 94.7999 94.3001C94.4999 93.5001 92.0999 78.8001 91.8999 77.6001ZM67.6999 64.1001L68.0999 43.1001C68.2999 36.4001 73.8999 31.2001 80.5999 31.4001C86.9999 31.6001 92.0999 36.7001 92.2999 43.1001V64.0001C90.9999 60.7001 89.9999 57.2001 89.1999 53.7001V37.5001C89.1999 37.0001 88.7999 36.6001 88.2999 36.6001H87.9999C87.4999 36.5001 87.0999 36.8001 86.9999 37.3001C86.9999 37.5001 86.1999 41.0001 83.4999 41.8001V37.5001C83.4999 37.0001 83.0999 36.6001 82.5999 36.7001C82.1999 36.7001 81.8999 37.0001 81.7999 37.4001C81.7999 37.4001 80.8999 42.0001 77.2999 42.0001H71.9999C71.4999 42.0001 71.0999 42.4001 71.0999 42.9001C71.0999 43.0001 71.0999 43.1001 71.0999 43.1001V53.8001C70.1999 57.3001 68.9999 60.8001 67.6999 64.1001ZM91.2999 66.8001V73.0001L89.5999 62.1001C89.5999 61.8001 89.4999 61.5001 89.3999 61.2001C90.0999 63.2001 90.7999 65.2001 91.2999 66.8001ZM81.8999 43.4001C82.0999 43.6001 82.2999 43.6001 82.4999 43.6001C84.4999 43.6001 86.2999 42.5001 87.2999 40.8001V50.1001C83.8999 54.2001 77.7999 54.8001 73.6999 51.4001C73.3999 51.1001 73.0999 50.9001 72.7999 50.6001V43.6001H77.1999C78.8999 43.6001 80.5999 42.8001 81.5999 41.4001V42.8001C81.6999 43.0001 81.7999 43.2001 81.8999 43.4001ZM76.3999 54.8001V57.7001H74.6999C74.5999 57.7001 74.3999 57.7001 74.2999 57.8001C73.5999 57.9001 72.9999 58.2001 72.3999 58.6001C72.0999 58.6001 71.7999 58.7001 71.5999 58.7001C72.1999 57.1001 72.6999 55.4001 72.9999 53.7001V53.0001C73.8999 53.8001 75.0999 54.4001 76.3999 54.8001ZM76.8999 59.5001H77.1999C77.6999 59.5001 78.0999 59.1001 78.0999 58.6001V55.2001C78.6999 55.3001 79.2999 55.4001 79.8999 55.4001C80.4999 55.4001 81.0999 55.4001 81.6999 55.3001V58.7001C81.6999 59.2001 82.0999 59.6001 82.5999 59.6001H84.2999C83.7999 62.0001 81.4999 63.5001 79.0999 63.1001C77.3999 62.8001 75.9999 61.4001 75.5999 59.6001L76.8999 59.5001ZM83.3999 57.7001V54.8001C84.8999 54.3001 86.1999 53.6001 87.2999 52.6001V53.7001C87.5999 55.4001 87.9999 57.2001 88.5999 58.8001C88.1999 58.7001 87.7999 58.6001 87.3999 58.6001C86.7999 58.2001 86.1999 57.9001 85.4999 57.8001C85.3999 57.7001 85.1999 57.7001 85.0999 57.7001H83.3999ZM69.9999 62.8001C69.9999 62.9001 69.8999 63.0001 69.8999 63.1001L68.3999 73.1001V67.1001C68.8999 65.9001 69.3999 64.5001 69.8999 63.1001L69.9999 62.8001ZM74.8999 100.6C74.1999 100.6 73.5999 100.2 73.3999 99.6001H76.3999C76.0999 100.2 75.5999 100.6 74.8999 100.6ZM76.3999 97.8001H73.2999V95.3001H73.4999C73.4999 95.8001 73.8999 96.1001 74.3999 96.1001H76.3999V97.8001ZM84.8999 100.6C84.1999 100.6 83.5999 100.2 83.3999 99.6001H86.2999C86.0999 100.2 85.5999 100.6 84.8999 100.6ZM86.3999 97.8001H83.2999V96.2001H85.7999C85.9999 96.2001 86.1999 96.1001 86.3999 96.0001V97.8001ZM86.6999 93.6001V82.1001C86.6999 81.6001 86.2999 81.2001 85.7999 81.2001C85.2999 81.2001 84.8999 81.6001 84.8999 82.1001V94.4001H75.1999V82.1001C75.1999 81.6001 74.7999 81.2001 74.2999 81.2001C73.7999 81.2001 73.3999 81.6001 73.3999 82.1001V93.6001H66.9999L71.7999 62.4001C71.9999 61.3001 72.6999 60.3001 73.7999 59.9001C74.4999 63.2001 77.6999 65.4001 80.9999 64.8001C83.4999 64.3001 85.3999 62.4001 85.8999 59.9001C86.9999 60.4001 87.6999 61.3001 87.8999 62.5001L92.6999 93.7001L86.6999 93.6001Z" fill="#E47100"/>
<path d="M70.4999 74.5001C70.4999 75.0001 70.8999 75.4001 71.3999 75.4001H88.3999C88.8999 75.4001 89.2999 75.0001 89.2999 74.5001C89.2999 74.0001 88.8999 73.6001 88.3999 73.6001H71.3999C70.8999 73.6001 70.4999 74.0001 70.4999 74.5001Z" fill="#E47100"/>
<path d="M76.9999 45.6001C76.3999 45.6001 75.9999 46.1001 75.9999 46.6001C75.9999 47.2001 76.4999 47.6001 76.9999 47.6001C77.5999 47.6001 77.9999 47.1001 77.9999 46.6001C77.9999 46.1001 77.4999 45.6001 76.9999 45.6001Z" fill="#E47100"/>
<path d="M82.8999 47.7001C83.4999 47.7001 83.8999 47.2001 83.8999 46.7001C83.8999 46.1001 83.3999 45.7001 82.8999 45.7001C82.2999 45.7001 81.8999 46.2001 81.8999 46.7001C81.7999 47.2001 82.2999 47.7001 82.8999 47.7001Z" fill="#E47100"/>
<path d="M54.3999 71.6001C48.5999 71.6001 43.8999 66.9001 43.8999 61.1001C43.8999 60.6001 43.4999 60.2001 42.9999 60.2001C42.4999 60.2001 42.0999 60.6001 42.0999 61.1001C42.0999 67.8001 47.5999 73.3001 54.2999 73.3001C54.7999 73.3001 55.1999 72.9001 55.1999 72.4001C55.2999 72.0001 54.8999 71.6001 54.3999 71.6001Z" fill="#E47100"/>
<path d="M53.9999 54.7001V51.7001C54.8999 51.4001 55.4999 51.1001 56.1999 50.7001C62.1999 47.6001 64.4999 40.3001 61.4999 34.3001C58.3999 28.3001 51.0999 26.0001 45.0999 29.0001C44.5999 29.3001 43.9999 29.6001 43.5999 29.9001C43.5999 29.9001 40.4999 31.8001 39.0999 36.3001C37.0999 45.2001 43.0999 50.3001 47.2999 51.7001C47.2999 53.5001 47.2999 54.3001 47.2999 54.7001C36.1999 54.1001 35.9999 58.7001 35.5999 62.1001C35.5999 62.7001 35.5999 63.2001 35.5999 63.6001C35.5999 64.2001 35.8999 64.6001 36.4999 64.6001C36.4999 65.9001 36.4999 72.0001 36.4999 72.4001C36.3999 75.6001 37.8999 76.2001 37.8999 76.2001C37.8999 76.2001 37.1999 81.6001 37.6999 87.4001C37.7999 90.0001 38.0999 92.5001 38.5999 95.1001C38.6999 95.5001 38.9999 95.8001 39.4999 95.8001H39.9999V99.0001C39.9999 100.9 41.4999 102.4 43.3999 102.4H43.7999C45.6999 102.4 47.1999 100.9 47.1999 99.0001V95.8001H47.5999C47.9999 95.8001 48.3999 95.5001 48.4999 95.1001L50.9999 84.8001L53.4999 95.1001C53.5999 95.5001 53.9999 95.8001 54.3999 95.8001H54.7999V99.0001C54.7999 100.9 56.2999 102.4 58.1999 102.4H57.9999C59.8999 102.4 61.3999 100.9 61.3999 99.0001V95.8001H61.8999C62.2999 95.8001 62.6999 95.5001 62.7999 95.1001C63.4999 91.4001 63.8999 87.6001 63.7999 83.8001C63.7999 81.3001 63.5999 78.7001 63.2999 76.2001C64.1999 75.1001 64.7999 73.8001 64.7999 72.4001V64.6001C65.2999 64.6001 65.6999 64.2001 65.6999 63.7001V62.1001C64.5999 53.4001 56.8999 54.8001 53.9999 54.7001ZM52.6999 29.6001C54.9999 30.1001 56.9999 31.3001 58.4999 33.0001C58.2999 33.9001 57.2999 36.9001 54.5999 37.5001V32.8001C54.5999 32.3001 54.2999 32.0001 53.7999 31.9001C53.2999 31.9001 52.8999 32.2001 52.8999 32.6001C52.8999 32.8001 51.8999 37.6001 48.0999 37.6001H40.2999C41.5999 32.0001 47.0999 28.4001 52.6999 29.6001ZM41.3999 44.8001C40.5999 43.2001 40.0999 41.5001 40.0999 39.7001C40.0999 39.6001 40.0999 39.4001 40.0999 39.3001H48.0999C49.9999 39.3001 51.7999 38.4001 52.8999 36.8001V38.4001C52.8999 38.6001 52.9999 38.9001 53.1999 39.0001C53.3999 39.2001 53.5999 39.2001 53.7999 39.2001C57.0999 39.2001 58.8999 36.7001 59.7999 34.6001C62.5999 39.7001 60.6999 46.0001 55.5999 48.8001C50.4999 51.7001 44.1999 49.9001 41.3999 44.8001ZM47.7999 56.4001C48.2999 56.4001 48.6999 56.0001 48.6999 55.5001V51.8001C49.9999 52.0001 51.2999 52.0001 52.5999 51.8001V55.5001C52.5999 56.0001 52.9999 56.4001 53.4999 56.4001H54.3999C54.6999 56.4001 55.2999 56.4001 55.2999 56.4001C54.7999 59.3001 51.7999 60.9001 49.2999 60.1001C47.5999 59.6001 46.2999 58.2001 45.8999 56.4001H47.7999ZM38.3999 72.8001C38.3999 72.7001 38.3999 72.6001 38.3999 72.4001V64.6001H39.4999L38.3999 72.8001ZM43.4999 100.6H43.0999C42.3999 100.6 41.6999 100.1 41.5999 99.4001H44.9999C44.8999 100.1 44.2999 100.6 43.4999 100.6ZM45.0999 97.6001H41.5999V95.8001H45.0999V97.6001ZM57.9999 100.6H57.5999C56.8999 100.6 56.1999 100.1 56.0999 99.4001H59.4999C59.3999 100.1 58.7999 100.6 57.9999 100.6ZM59.5999 97.6001H56.0999V95.8001H59.5999V97.6001ZM61.0999 94.1001H54.5999L51.3999 80.9001C51.2999 80.4001 50.7999 80.1001 50.2999 80.3001C49.9999 80.4001 49.6999 80.6001 49.6999 80.9001L46.4999 94.1001H39.9999C39.3999 90.7001 39.0999 87.3001 39.0999 83.9001C39.0999 81.2001 39.2999 78.6001 39.5999 76.0001H61.3999C61.6999 78.6001 61.8999 81.3001 61.8999 83.9001C61.9999 87.3001 61.6999 90.7001 61.0999 94.1001ZM62.8999 72.4001C62.8999 72.5001 62.8999 72.7001 62.8999 72.8001L61.7999 64.6001H62.8999V72.4001ZM63.8999 62.8001H60.7999C60.2999 62.8001 59.8999 63.2001 59.8999 63.7001V63.8001L61.1999 74.2001H39.9999L41.2999 63.9001C41.3999 63.4001 40.9999 63.0001 40.4999 62.9001H37.2999V62.2001C37.2999 59.0001 39.8999 56.5001 42.9999 56.5001H44.0999C44.5999 60.1001 47.9999 62.5001 51.5999 62.0001C53.9999 61.6001 56.1999 59.9001 56.9999 56.6001C56.9999 56.6001 57.0999 56.5001 57.8999 56.5001C63.0999 56.5001 63.8999 60.4001 63.8999 62.2001V62.8001Z" fill="#E47100"/>
<path d="M47.4999 41.6001C46.8999 41.6001 46.3999 42.1001 46.3999 42.7001C46.3999 43.3001 46.8999 43.8001 47.4999 43.8001C48.0999 43.8001 48.5999 43.3001 48.5999 42.7001C48.5999 42.1001 48.0999 41.6001 47.4999 41.6001Z" fill="#E47100"/>
<path d="M53.7999 41.6001C53.1999 41.6001 52.6999 42.1001 52.6999 42.7001C52.6999 43.3001 53.1999 43.8001 53.7999 43.8001C54.3999 43.8001 54.8999 43.3001 54.8999 42.7001C54.8999 42.1001 54.3999 41.6001 53.7999 41.6001Z" fill="#E47100"/>
</svg>
