<svg width="88" height="17" viewBox="0 0 88 17" fill="none" xmlns="http://www.w3.org/2000/svg">
<path d="M0 13.2659H3.01026L4.91676 2.65318H9.5325L9.93387 0H2.30787L0 13.2659Z" fill="white"/>
<path d="M14.4493 13.1676H16.8575C16.9578 12.4798 17.0582 11.5954 17.1585 11.104L17.4595 9.33526C17.5599 8.54913 17.8609 7.46821 17.8609 6.48555C17.8609 5.69942 17.6602 4.6185 16.7571 3.93064C16.3558 3.63584 15.553 3.14451 14.1482 3.24277C13.5462 3.24277 12.8438 3.24277 12.2417 3.43931C11.8404 3.53757 11.439 3.63584 11.0376 3.83237L10.7366 6.28902C11.9407 5.60116 12.7434 5.50289 13.3455 5.50289C13.6465 5.50289 14.2486 5.50289 14.5496 5.89595C15.1517 6.09249 15.1517 6.48555 15.0513 6.87861V7.07515C12.3421 6.87861 10.9373 7.36994 10.2349 7.86127C9.63284 8.25434 8.93044 9.13873 8.93044 10.6127C8.93044 11.8902 9.43215 12.4798 9.83352 12.7746C10.3352 13.2659 11.138 13.3642 11.74 13.3642C12.5428 13.3642 13.0445 13.1676 13.3455 12.9711C13.7469 12.7746 14.1482 12.4798 14.5496 11.7919L14.4493 13.1676ZM14.8506 8.84393C14.7503 9.53179 14.5496 10.0231 14.1482 10.5145C13.6465 11.104 13.0445 11.2023 12.6431 11.2023C12.3421 11.2023 12.041 11.104 11.8404 10.9075C11.74 10.8093 11.6397 10.6127 11.6397 10.3179C11.6397 10.0231 11.74 9.53179 12.2417 9.23699C12.7434 8.84393 13.5462 8.74567 14.8506 8.84393Z" fill="white"/>
<path d="M25.9886 10.4162C25.2862 10.711 24.5838 10.8092 24.1824 10.8092C23.7811 10.8092 23.0787 10.711 22.577 10.2197C22.1756 9.72832 22.0753 9.04046 22.0753 8.6474C22.0753 7.86127 22.2759 6.97688 22.7777 6.38728C23.0787 6.09249 23.5804 5.60116 24.5838 5.60116C24.8848 5.60116 25.6876 5.69942 26.4903 6.09249L27.0924 3.7341C26.39 3.43931 26.0889 3.34104 25.6876 3.24277C25.1859 3.14451 24.7845 3.04624 24.3831 3.04624C23.2794 3.04624 21.7742 3.34104 20.4698 4.71676C19.2657 6.19075 19.065 7.86127 19.065 8.9422C19.065 9.92486 19.2657 11.0058 20.1688 12.0867C20.7708 12.7746 21.6739 13.3642 23.2794 13.3642C23.7811 13.3642 24.6842 13.3642 25.5872 12.9711L25.9886 10.4162Z" fill="white"/>
<path d="M28.8985 13.0694H31.8084L33.1129 5.69942H35.6214L36.1231 3.24278H27.9954L27.5941 5.79769L30.1026 5.69942L28.8985 13.0694Z" fill="white"/>
<path d="M34.7184 17H37.6283L38.6317 11.3988C39.2337 12.9711 40.5382 13.2659 41.2406 13.2659C43.0467 13.2659 44.1505 12.0867 44.6522 11.3006C45.2543 10.4162 45.756 8.9422 45.756 7.17341C45.756 5.99422 45.455 5.01156 44.9532 4.22543C44.6522 3.43931 43.9498 2.94798 42.6454 2.94798C41.0399 2.94798 40.1368 4.0289 39.6351 4.71676L39.8358 3.14451H37.1266C37.1266 4.0289 37.1266 4.12717 37.0262 4.71676L34.7184 17ZM41.4413 5.60116C42.0433 5.60116 42.3444 5.89595 42.545 6.09249C42.6454 6.19075 42.8461 6.68208 42.8461 7.56647C42.8461 8.3526 42.6454 9.13873 42.244 9.63006C41.7423 10.4162 41.1403 10.6127 40.6385 10.6127C40.0365 10.6127 39.7355 10.2197 39.5348 10.0231C39.3341 9.63006 39.2337 9.13873 39.2337 8.6474C39.2337 8.0578 39.3341 7.27168 39.8358 6.58382C40.3375 5.79769 40.8392 5.60116 41.4413 5.60116Z" fill="white"/>
<path d="M48.1642 3.14451L46.4584 12.9711H49.7697L54.0844 6.87861H54.1847L53.5827 10.0231L52.9806 12.9711L55.9909 12.8728L57.6967 3.04624L54.3854 3.14451L50.0707 9.13873H49.9704L50.5724 6.09249L51.1745 3.14451H48.1642Z" fill="white"/>
<path d="M59.8039 12.8728H62.7138L64.0182 5.50289H66.6271L67.0285 3.04624H58.9008L58.4994 5.60116H61.1083L59.8039 12.8728Z" fill="white"/>
<path d="M73.7514 7.27168C73.7514 8.25434 73.5507 9.23699 73.1494 9.82659C72.8484 10.3179 72.3466 10.6127 71.5439 10.6127C71.0422 10.6127 70.7412 10.4162 70.4401 10.0231C70.1391 9.53179 70.0388 9.04046 70.0388 8.54913C70.0388 7.36994 70.3398 6.68208 70.6408 6.19075C70.9418 5.79769 71.4436 5.10983 72.3466 5.10983C72.9487 5.10983 73.2497 5.40462 73.4504 5.69942C73.5507 5.99422 73.7514 6.58382 73.7514 7.27168ZM76.7617 7.17341C76.7617 6.38728 76.6613 5.10983 75.6579 4.0289C75.2566 3.63584 74.3535 2.75145 72.3466 2.75145C71.4436 2.75145 69.7377 2.94798 68.4333 4.3237C67.8312 5.01156 66.9282 6.19075 66.9282 8.54913C66.9282 9.13873 66.9282 10.5145 68.0319 11.6936C69.0353 12.8728 70.5405 12.9711 71.4436 12.9711C73.4504 12.9711 74.6545 12.185 75.3569 11.4971C76.561 10.3179 76.7617 8.25434 76.7617 7.17341Z" fill="white"/>
<path d="M80.1733 2.94798L79.3706 6.87861C78.8689 9.23699 78.5678 9.82659 78.3672 10.0231C78.1665 10.3179 77.8655 10.4162 77.5644 10.4162C77.3637 10.4162 77.2634 10.4162 77.0627 10.3179L76.561 12.7746C77.0627 12.9711 77.5644 12.9711 78.0661 12.9711C79.0696 12.9711 79.8723 12.6763 80.5747 11.5954C81.1768 10.6127 81.4778 9.23699 81.7788 7.95954L82.2805 5.40462H84.5884L83.3843 12.7746H86.2942L88 2.94798H80.1733Z" fill="white"/>
</svg>
