<svg width="50" height="50" viewBox="0 0 50 50" fill="none" xmlns="http://www.w3.org/2000/svg">
<path d="M33.5938 32.8125C42.6547 32.8125 50 25.4672 50 16.4062C50 7.34533 42.6547 0 33.5938 0C24.5328 0 17.1875 7.34533 17.1875 16.4062C17.1875 25.4672 24.5328 32.8125 33.5938 32.8125Z" fill="#FFEC40"/>
<path d="M4.6875 0H3.125V50H4.6875V0Z" fill="#BE0811"/>
<path d="M50 45.3125H0V46.875H50V45.3125Z" fill="#BE0811"/>
<path d="M12.7602 29.8845L8.06458 34.5801L9.16942 35.6849L13.865 30.9893L12.7602 29.8845Z" fill="#BE0811"/>
<path d="M7.8125 42.1875H6.25V43.75H7.8125V42.1875Z" fill="#BE0811"/>
<path d="M10.9375 42.1875H9.375V43.75H10.9375V42.1875Z" fill="#BE0811"/>
<path d="M14.0625 42.1875H12.5V43.75H14.0625V42.1875Z" fill="#BE0811"/>
<path d="M17.1875 42.1875H15.625V43.75H17.1875V42.1875Z" fill="#BE0811"/>
<path d="M20.3125 42.1875H18.75V43.75H20.3125V42.1875Z" fill="#BE0811"/>
<path d="M23.4375 42.1875H21.875V43.75H23.4375V42.1875Z" fill="#BE0811"/>
<path d="M26.5625 42.1875H25V43.75H26.5625V42.1875Z" fill="#BE0811"/>
<path d="M29.6875 42.1875H28.125V43.75H29.6875V42.1875Z" fill="#BE0811"/>
<path d="M32.8125 42.1875H31.25V43.75H32.8125V42.1875Z" fill="#BE0811"/>
<path d="M35.9375 42.1875H34.375V43.75H35.9375V42.1875Z" fill="#BE0811"/>
<path d="M39.0625 42.1875H37.5V43.75H39.0625V42.1875Z" fill="#BE0811"/>
<path d="M42.1875 42.1875H40.625V43.75H42.1875V42.1875Z" fill="#BE0811"/>
<path d="M45.3125 42.1875H43.75V43.75H45.3125V42.1875Z" fill="#BE0811"/>
<path d="M48.4375 42.1875H46.875V43.75H48.4375V42.1875Z" fill="#BE0811"/>
<path d="M18.5156 26.3281L17.4219 25.2344L21.5625 21.0938H32.5L47.1094 6.48438L48.2031 7.57813L33.125 22.6563H22.1875L18.5156 26.3281Z" fill="#BE0811"/>
<path d="M36.1719 14.6094L30.9375 9.375H27.6563L22.6562 14.375L17.6562 9.375H7.8125V7.8125H18.2812L22.6562 12.1875L27.0312 7.8125H31.5625L37.2656 13.5156L36.1719 14.6094Z" fill="#BE0811"/>
<path d="M41.1571 17.3966L40.0522 18.5015L47.068 25.5172L48.1728 24.4124L41.1571 17.3966Z" fill="#BE0811"/>
<path d="M48.4375 25.7812H43.75V24.2188H46.875V21.0938H48.4375V25.7812Z" fill="#BE0811"/>
<path d="M48.4375 10.9375H46.875V7.8125H43.75V6.25H48.4375V10.9375Z" fill="#BE0811"/>
<path d="M45.0781 38.0469L43.9844 36.9531L46.5625 34.375L43.9844 31.7969L45.0781 30.7031L48.75 34.375L45.0781 38.0469Z" fill="#BE0811"/>
<path d="M23.4375 37.0313L8.04686 21.6406L9.14061 20.5469L23.4375 34.8438L29.6875 28.5938L34.6875 33.5938H47.6562V35.1563H34.0625L29.6875 30.7813L23.4375 37.0313Z" fill="#BE0811"/>
</svg>
