<svg width="50" height="50" viewBox="0 0 50 50" fill="none" xmlns="http://www.w3.org/2000/svg">
<path d="M33.5938 50C42.6547 50 50 42.8016 50 33.9219C50 25.0422 42.6547 17.8438 33.5938 17.8438C24.5328 17.8438 17.1875 25.0422 17.1875 33.9219C17.1875 42.8016 24.5328 50 33.5938 50Z" fill="#FFEC40"/>
<path d="M50 13.7812H21.0938V12.25H48.4375V9.1875H21.0938V7.65625H50V13.7812Z" fill="#3C3C3C"/>
<path d="M48.4375 19.9062H43.75V18.375H40.625V12.25H48.4375V19.9062ZM45.3125 18.375H46.875V13.7812H42.1875V16.8438H45.3125V18.375Z" fill="#3C3C3C"/>
<path d="M6.25 13.7812C4.53125 13.7812 3.125 12.4031 3.125 10.7188C3.125 9.03438 4.53125 7.65625 6.25 7.65625C7.96875 7.65625 9.375 9.03438 9.375 10.7188C9.375 12.4031 7.96875 13.7812 6.25 13.7812ZM6.25 9.1875C5.39062 9.1875 4.6875 9.87656 4.6875 10.7188C4.6875 11.5609 5.39062 12.25 6.25 12.25C7.10938 12.25 7.8125 11.5609 7.8125 10.7188C7.8125 9.87656 7.10938 9.1875 6.25 9.1875Z" fill="#3C3C3C"/>
<path d="M26.5625 29.0938H12.5V24.5H26.5625V29.0938ZM14.0625 27.5625H25V26.0312H14.0625V27.5625Z" fill="#3C3C3C"/>
<path d="M50 29.0938H28.125V24.5H50V29.0938ZM29.6875 27.5625H48.4375V26.0312H29.6875V27.5625Z" fill="#3C3C3C"/>
<path d="M14.0625 35.2188H0V30.625H14.0625V35.2188ZM1.5625 33.6875H12.5V32.1562H1.5625V33.6875Z" fill="#3C3C3C"/>
<path d="M34.375 35.2188H15.625V30.625H34.375V35.2188ZM17.1875 33.6875H32.8125V32.1562H17.1875V33.6875Z" fill="#3C3C3C"/>
<path d="M50 35.2188H35.9375V30.625H50V35.2188ZM37.5 33.6875H48.4375V32.1562H37.5V33.6875Z" fill="#3C3C3C"/>
<path d="M18.75 41.3438H0V36.75H18.75V41.3438ZM1.5625 39.8125H17.1875V38.2812H1.5625V39.8125Z" fill="#3C3C3C"/>
<path d="M37.5 41.3438H20.3125V36.75H37.5V41.3438ZM21.875 39.8125H35.9375V38.2812H21.875V39.8125Z" fill="#3C3C3C"/>
<path d="M50 41.3438H39.0625V36.75H50V41.3438ZM40.625 39.8125H48.4375V38.2812H40.625V39.8125Z" fill="#3C3C3C"/>
<path d="M10.9375 29.0938H0V24.5H10.9375V29.0938ZM1.5625 27.5625H9.375V26.0312H1.5625V27.5625Z" fill="#3C3C3C"/>
<path d="M10.9375 21.4375C4.92188 21.4375 0 16.6141 0 10.7188C0 4.82344 4.92188 0 10.9375 0C16.9531 0 21.875 4.82344 21.875 10.7188C21.875 16.6141 16.9531 21.4375 10.9375 21.4375ZM10.9375 1.53125C5.78125 1.53125 1.5625 5.66563 1.5625 10.7188C1.5625 15.7719 5.78125 19.9062 10.9375 19.9062C16.0938 19.9062 20.3125 15.7719 20.3125 10.7188C20.3125 5.66563 16.0938 1.53125 10.9375 1.53125Z" fill="#3C3C3C"/>
<path d="M34.375 16.8438H32.8125V18.3744H34.375V16.8438Z" fill="#3C3C3C"/>
<path d="M37.5 16.8438H35.9375V18.3744H37.5V16.8438Z" fill="#3C3C3C"/>
<path d="M31.25 16.8438H29.6875V18.3744H31.25V16.8438Z" fill="#3C3C3C"/>
<path d="M28.125 16.8438H26.5625V18.3744H28.125V16.8438Z" fill="#3C3C3C"/>
</svg>
