<svg width="20" height="17" viewBox="0 0 20 17" fill="none" xmlns="http://www.w3.org/2000/svg">
<path d="M18.9552 1.1748V0.760163H14.1727C14.1727 3.69715 13.5095 9.22561 10.5423 11.2642C10.1234 11.5752 9.66957 11.7825 9.21576 11.8862C8.97141 11.9207 8.72705 11.9553 8.48269 11.9553C6.63256 11.9553 5.0966 10.4004 5.0966 8.5C5.0966 6.53049 6.52783 5.07927 8.41288 5.07927C8.69214 5.07927 8.9365 5.11382 9.21576 5.14837C9.70448 5.25203 11.1008 5.59756 12.183 7.22155C12.6717 6.0813 13.1604 3.86992 13.1604 1.72764C12.6019 0.898374 10.4026 0 8.37797 0C6.07403 0.0345528 3.94463 0.932927 2.37376 2.59146C0.837797 4.14634 0 6.25407 0 8.5C0 10.7459 0.872705 12.8537 2.44357 14.4776C4.04935 16.1016 6.17875 17 8.48269 17C14.6614 17 18.641 10.4695 18.9552 1.1748Z" fill="#3C3C3C"/>
<path d="M13.684 17H19.1297C19.1297 16.8618 19.1297 7.87805 19.1297 7.22155C18.1523 11.6098 16.2672 15.065 13.684 17Z" fill="#3C3C3C"/>
</svg>
