<svg width="50" height="50" viewBox="0 0 50 50" fill="none" xmlns="http://www.w3.org/2000/svg">
<path d="M33.5938 50C42.6547 50 50 42.8016 50 33.9219C50 25.0422 42.6547 17.8438 33.5938 17.8438C24.5328 17.8438 17.1875 25.0422 17.1875 33.9219C17.1875 42.8016 24.5328 50 33.5938 50Z" fill="#FFEC40"/>
<path d="M35.1562 31.3906H14.8438C14.375 31.3906 14.0625 31.0844 14.0625 30.625V19.9062C14.0625 19.4469 14.375 19.1406 14.8438 19.1406H19.5312V20.6719H15.625V29.8594H34.375V20.6719H30.4688V19.1406H35.1562C35.625 19.1406 35.9375 19.4469 35.9375 19.9062V30.625C35.9375 31.0844 35.625 31.3906 35.1562 31.3906Z" fill="#3C3C3C"/>
<path d="M25 22.9688C24.7656 22.9688 24.4531 22.8156 24.375 22.5859C23.5938 21.5141 17.1875 11.5609 17.1875 7.65625C17.1875 3.44531 20.7031 0 25 0C29.2969 0 32.8125 3.44531 32.8125 7.65625C32.8125 11.5609 26.4062 21.5141 25.625 22.5859C25.5469 22.8156 25.2344 22.9688 25 22.9688ZM25 1.53125C21.5625 1.53125 18.75 4.2875 18.75 7.65625C18.75 10.3359 22.8125 17.2266 25 20.7484C27.1875 17.2266 31.25 10.2594 31.25 7.65625C31.25 4.2875 28.4375 1.53125 25 1.53125Z" fill="#3C3C3C"/>
<path d="M25 12.25C22.4219 12.25 20.3125 10.1828 20.3125 7.65625C20.3125 5.12969 22.4219 3.0625 25 3.0625C27.5781 3.0625 29.6875 5.12969 29.6875 7.65625C29.6875 10.1828 27.5781 12.25 25 12.25ZM25 4.59375C23.2812 4.59375 21.875 5.97188 21.875 7.65625C21.875 9.34062 23.2812 10.7188 25 10.7188C26.7188 10.7188 28.125 9.34062 28.125 7.65625C28.125 5.97188 26.7188 4.59375 25 4.59375Z" fill="#3C3C3C"/>
<path d="M12.5 24.5H7.8125C6.48438 24.5 5.46875 23.5047 5.46875 22.2031V15.3125H7.03125V22.2031C7.03125 22.6625 7.34375 22.9688 7.8125 22.9688H12.5V24.5Z" fill="#3C3C3C"/>
<path d="M7.03125 35.2188H5.46875V28.3281C5.46875 27.0266 6.48438 26.0313 7.8125 26.0313H12.5V27.5625H7.8125C7.34375 27.5625 7.03125 27.8688 7.03125 28.3281V35.2188Z" fill="#3C3C3C"/>
<path d="M6.25 13.7806C2.8125 13.7806 0 11.0244 0 7.65561C0 4.28686 2.8125 1.53061 6.25 1.53061C9.6875 1.53061 12.5 4.28686 12.5 7.65561C12.5 11.0244 9.6875 13.7806 6.25 13.7806ZM6.25 3.06186C3.67188 3.06186 1.5625 5.12905 1.5625 7.65561C1.5625 10.1822 3.67188 12.2494 6.25 12.2494C8.82812 12.2494 10.9375 10.1822 10.9375 7.65561C10.9375 5.12905 8.82812 3.06186 6.25 3.06186Z" fill="#3C3C3C"/>
<path d="M6.25 49C2.8125 49 0 46.2438 0 42.875C0 39.5062 2.8125 36.75 6.25 36.75C9.6875 36.75 12.5 39.5062 12.5 42.875C12.5 46.2438 9.6875 49 6.25 49ZM6.25 38.2812C3.67188 38.2812 1.5625 40.3484 1.5625 42.875C1.5625 45.4016 3.67188 47.4688 6.25 47.4688C8.82812 47.4688 10.9375 45.4016 10.9375 42.875C10.9375 40.3484 8.82812 38.2812 6.25 38.2812Z" fill="#3C3C3C"/>
<path d="M42.1875 24.5H37.5V22.9688H42.1875C42.6562 22.9688 42.9688 22.6625 42.9688 22.2031V15.3125H44.5312V22.2031C44.5312 23.5047 43.5156 24.5 42.1875 24.5Z" fill="#3C3C3C"/>
<path d="M21.875 43.6406H14.0625V42.1094H21.875C22.3438 42.1094 22.6562 41.8031 22.6562 41.3438V32.9219H24.2188V41.3438C24.2188 42.6453 23.2031 43.6406 21.875 43.6406Z" fill="#3C3C3C"/>
<path d="M35.9375 43.6406H28.125C26.7969 43.6406 25.7812 42.6453 25.7812 41.3438V32.9219H27.3438V41.3438C27.3438 41.8031 27.6562 42.1094 28.125 42.1094H35.9375V43.6406Z" fill="#3C3C3C"/>
<path d="M44.5312 35.2188H42.9688V28.3281C42.9688 27.8688 42.6562 27.5625 42.1875 27.5625H37.5V26.0313H42.1875C43.5156 26.0313 44.5312 27.0266 44.5312 28.3281V35.2188Z" fill="#3C3C3C"/>
<path d="M43.75 13.7806C40.3125 13.7806 37.5 11.0244 37.5 7.65561C37.5 4.28686 40.3125 1.53061 43.75 1.53061C47.1875 1.53061 50 4.28686 50 7.65561C50 11.0244 47.1875 13.7806 43.75 13.7806ZM43.75 3.06186C41.1719 3.06186 39.0625 5.12905 39.0625 7.65561C39.0625 10.1822 41.1719 12.2494 43.75 12.2494C46.3281 12.2494 48.4375 10.1822 48.4375 7.65561C48.4375 5.12905 46.3281 3.06186 43.75 3.06186Z" fill="#3C3C3C"/>
<path d="M43.75 49C40.3125 49 37.5 46.2438 37.5 42.875C37.5 39.5062 40.3125 36.75 43.75 36.75C47.1875 36.75 50 39.5062 50 42.875C50 46.2438 47.1875 49 43.75 49ZM43.75 38.2812C41.1719 38.2812 39.0625 40.3484 39.0625 42.875C39.0625 45.4016 41.1719 47.4688 43.75 47.4688C46.3281 47.4688 48.4375 45.4016 48.4375 42.875C48.4375 40.3484 46.3281 38.2812 43.75 38.2812Z" fill="#3C3C3C"/>
<path d="M43.75 10.7188C42.0312 10.7188 40.625 9.34062 40.625 7.65625C40.625 5.97188 42.0312 4.59375 43.75 4.59375C45.4688 4.59375 46.875 5.97188 46.875 7.65625C46.875 9.34062 45.4688 10.7188 43.75 10.7188ZM43.75 6.125C42.8906 6.125 42.1875 6.81406 42.1875 7.65625C42.1875 8.49844 42.8906 9.1875 43.75 9.1875C44.6094 9.1875 45.3125 8.49844 45.3125 7.65625C45.3125 6.81406 44.6094 6.125 43.75 6.125Z" fill="#3C3C3C"/>
<path d="M43.75 45.9375C42.0312 45.9375 40.625 44.5594 40.625 42.875C40.625 41.1906 42.0312 39.8125 43.75 39.8125C45.4688 39.8125 46.875 41.1906 46.875 42.875C46.875 44.5594 45.4688 45.9375 43.75 45.9375ZM43.75 41.3438C42.8906 41.3438 42.1875 42.0328 42.1875 42.875C42.1875 43.7172 42.8906 44.4062 43.75 44.4062C44.6094 44.4062 45.3125 43.7172 45.3125 42.875C45.3125 42.0328 44.6094 41.3438 43.75 41.3438Z" fill="#3C3C3C"/>
<path d="M6.25 10.7188C4.53125 10.7188 3.125 9.34062 3.125 7.65625C3.125 5.97188 4.53125 4.59375 6.25 4.59375C7.96875 4.59375 9.375 5.97188 9.375 7.65625C9.375 9.34062 7.96875 10.7188 6.25 10.7188ZM6.25 6.125C5.39062 6.125 4.6875 6.81406 4.6875 7.65625C4.6875 8.49844 5.39062 9.1875 6.25 9.1875C7.10938 9.1875 7.8125 8.49844 7.8125 7.65625C7.8125 6.81406 7.10938 6.125 6.25 6.125Z" fill="#3C3C3C"/>
<path d="M6.25 45.9375C4.53125 45.9375 3.125 44.5594 3.125 42.875C3.125 41.1906 4.53125 39.8125 6.25 39.8125C7.96875 39.8125 9.375 41.1906 9.375 42.875C9.375 44.5594 7.96875 45.9375 6.25 45.9375ZM6.25 41.3438C5.39062 41.3438 4.6875 42.0328 4.6875 42.875C4.6875 43.7172 5.39062 44.4062 6.25 44.4062C7.10938 44.4062 7.8125 43.7172 7.8125 42.875C7.8125 42.0328 7.10938 41.3438 6.25 41.3438Z" fill="#3C3C3C"/>
<path d="M25.7812 24.5H24.2188V26.0306H25.7812V24.5Z" fill="#3C3C3C"/>
<path d="M22.6562 24.5H21.0938V26.0306H22.6562V24.5Z" fill="#3C3C3C"/>
<path d="M28.9062 24.5H27.3438V26.0306H28.9062V24.5Z" fill="#3C3C3C"/>
</svg>
