<svg width="50" height="50" viewBox="0 0 50 50" fill="none" xmlns="http://www.w3.org/2000/svg">
<path d="M33.5938 32.8125C42.6547 32.8125 50 25.4672 50 16.4062C50 7.34533 42.6547 0 33.5938 0C24.5328 0 17.1875 7.34533 17.1875 16.4062C17.1875 25.4672 24.5328 32.8125 33.5938 32.8125Z" fill="#FFEC40"/>
<path d="M10.9375 34.375C8.28125 34.375 6.25 31.875 6.25 28.5156C6.25 26.1719 6.79688 23.4375 10.9375 23.4375C15.0781 23.4375 15.625 26.1719 15.625 28.5156C15.625 31.875 13.5938 34.375 10.9375 34.375ZM10.9375 25C8.59375 25 7.8125 25.8594 7.8125 28.5156C7.8125 30.625 8.90625 32.8125 10.9375 32.8125C12.9688 32.8125 14.0625 30.625 14.0625 28.5156C14.0625 25.8594 13.2812 25 10.9375 25Z" fill="#3C3C3C"/>
<path d="M16.4062 40.625H5.46875C4.21875 40.625 3.125 39.2188 3.125 37.5V35.5469L8.125 32.1875L8.98438 33.5156L4.6875 36.3281V37.5C4.6875 38.4375 5.23438 39.0625 5.46875 39.0625H16.4062C16.6406 39.0625 17.1875 38.4375 17.1875 37.5V36.3281L12.8125 33.4375L13.6719 32.1094L18.6719 35.4688V37.5C18.75 39.2188 17.6562 40.625 16.4062 40.625Z" fill="#3C3C3C"/>
<path d="M18.75 50C18.5938 50 18.5156 50 18.4375 49.9219L6.09375 43.75H2.34375C1.01562 43.75 0 42.7344 0 41.4062V22.6562C0 21.3281 1.01562 20.3125 2.34375 20.3125H19.5312C20.8594 20.3125 21.875 21.3281 21.875 22.6562V41.4062C21.875 42.7344 20.8594 43.75 19.5312 43.75H16.875L19.4531 48.9062C19.6094 49.2188 19.5312 49.5312 19.2969 49.8438C19.1406 49.9219 18.9844 50 18.75 50ZM2.34375 21.875C1.875 21.875 1.5625 22.1875 1.5625 22.6562V41.4062C1.5625 41.875 1.875 42.1875 2.34375 42.1875H6.25C6.40625 42.1875 6.48437 42.1875 6.5625 42.2656L16.9531 47.5L14.8438 43.3594C14.6875 43.125 14.7656 42.8125 14.8438 42.5781C15 42.3438 15.2344 42.1875 15.5469 42.1875H19.4531C19.9219 42.1875 20.2344 41.875 20.2344 41.4062V22.6562C20.2344 22.1875 19.9219 21.875 19.4531 21.875H2.34375Z" fill="#3C3C3C"/>
<path d="M39.0625 26.5625C36.4062 26.5625 34.375 24.0625 34.375 20.7031C34.375 18.3594 34.9219 15.625 39.0625 15.625C43.2031 15.625 43.75 18.3594 43.75 20.7031C43.75 24.0625 41.7188 26.5625 39.0625 26.5625ZM39.0625 17.1875C36.7188 17.1875 35.9375 18.0469 35.9375 20.7031C35.9375 22.8125 37.0312 25 39.0625 25C41.0938 25 42.1875 22.8125 42.1875 20.7031C42.1875 18.0469 41.4062 17.1875 39.0625 17.1875Z" fill="#3C3C3C"/>
<path d="M44.5312 32.8125H33.5938C32.3438 32.8125 31.25 31.4062 31.25 29.6875V27.7344L36.25 24.375L37.1094 25.7031L32.8125 28.5156V29.6875C32.8125 30.625 33.3594 31.25 33.5938 31.25H44.5312C44.7656 31.25 45.3125 30.625 45.3125 29.6875V28.5156L40.9375 25.625L41.7969 24.2969L46.7969 27.6562V29.6875C46.875 31.4062 45.7812 32.8125 44.5312 32.8125Z" fill="#3C3C3C"/>
<path d="M31.25 42.1875C31.0156 42.1875 30.8594 42.1094 30.7031 41.9531C30.4688 41.7188 30.3906 41.3281 30.5469 41.0156L33.125 35.8594H30.4688C29.1406 35.8594 28.125 34.8438 28.125 33.5156V26.4844H29.6875V33.5156C29.6875 33.9844 30 34.2969 30.4688 34.2969H34.375C34.6094 34.2969 34.9219 34.4531 35.0781 34.6875C35.2344 34.9219 35.2344 35.2344 35.0781 35.4688L32.9688 39.6094L43.3594 34.375C43.5156 34.375 43.5938 34.375 43.75 34.375H47.6562C48.125 34.375 48.4375 34.0625 48.4375 33.5938V14.8438C48.4375 14.375 48.125 14.0625 47.6562 14.0625H34.375V12.5H47.6562C48.9844 12.5 50 13.5156 50 14.8438V33.5938C50 34.9219 48.9844 35.9375 47.6562 35.9375H43.9062L31.5625 42.1094C31.4844 42.1875 31.4062 42.1875 31.25 42.1875Z" fill="#3C3C3C"/>
<path d="M21.875 15.625C19.2188 15.625 17.1875 13.125 17.1875 9.76562C17.1875 7.42188 17.7344 4.6875 21.875 4.6875C26.0156 4.6875 26.5625 7.42188 26.5625 9.76562C26.5625 13.125 24.5312 15.625 21.875 15.625ZM21.875 6.25C19.5312 6.25 18.75 7.10938 18.75 9.76562C18.75 11.875 19.8438 14.0625 21.875 14.0625C23.9062 14.0625 25 11.875 25 9.76562C25 7.10938 24.2188 6.25 21.875 6.25Z" fill="#3C3C3C"/>
<path d="M15.625 18.75H14.0625V16.7969L19.0625 13.4375L20 14.6875L15.625 17.5781V18.75Z" fill="#3C3C3C"/>
<path d="M27.3438 21.875H23.4375V20.3125H27.3438C27.5781 20.3125 28.125 19.6875 28.125 18.75V17.5781L23.75 14.6875L24.6094 13.3594L29.6094 16.7187V18.75C29.6875 20.4687 28.5938 21.875 27.3438 21.875Z" fill="#3C3C3C"/>
<path d="M24.0625 29.375L22.7344 28.5156L25.8594 23.8281C26.0156 23.5938 26.25 23.5156 26.4844 23.5156H30.3906C30.8594 23.5156 31.1719 23.2031 31.1719 22.7344V3.90625C31.1719 3.4375 30.8594 3.125 30.3906 3.125H13.2812C12.8125 3.125 12.5 3.4375 12.5 3.90625V18.75H10.9375V3.90625C10.9375 2.57812 11.9531 1.5625 13.2812 1.5625H30.4688C31.7969 1.5625 32.8125 2.57812 32.8125 3.90625V22.6562C32.8125 23.9844 31.7969 25 30.4688 25H26.9531L24.0625 29.375Z" fill="#3C3C3C"/>
<path d="M32.0312 45.3125H30.4688V46.875H32.0312V45.3125Z" fill="#3C3C3C"/>
<path d="M28.9062 45.3125H27.3438V46.875H28.9062V45.3125Z" fill="#3C3C3C"/>
<path d="M25.7812 45.3125H24.2188V46.875H25.7812V45.3125Z" fill="#3C3C3C"/>
<path d="M35.1562 45.3125H33.5938V46.875H35.1562V45.3125Z" fill="#3C3C3C"/>
</svg>
