<svg width="50" height="50" viewBox="0 0 50 50" fill="none" xmlns="http://www.w3.org/2000/svg">
<path d="M33.5938 32.2C42.6547 32.2 50 24.9918 50 16.1C50 7.20822 42.6547 0 33.5938 0C24.5328 0 17.1875 7.20822 17.1875 16.1C17.1875 24.9918 24.5328 32.2 33.5938 32.2Z" fill="#FFEC40"/>
<path d="M46.875 19.3333H45.3125V14.7333H40.625V13.2H46.875V19.3333Z" fill="#3C3C3C"/>
<path d="M10.7031 37.5029L9.60936 36.4296L23.4375 22.8596L29.6875 28.9929L45.5469 13.4296L46.6406 14.5029L29.6875 31.1396L23.4375 25.0063L10.7031 37.5029Z" fill="#3C3C3C"/>
<path d="M46.4062 50H3.59375L0 46.4733V43.8667H19.8438L21.4062 45.4H28.5937L30.1562 43.8667H50V46.4733L46.4062 50ZM4.21875 48.4667H45.7812L48.4375 45.86V45.4H30.7813L29.2188 46.9333H20.7812L19.2188 45.4H1.5625V45.86L4.21875 48.4667Z" fill="#3C3C3C"/>
<path d="M4.6875 42.3333H3.125V16.2667C3.125 14.58 4.53125 13.2 6.25 13.2H37.5V14.7333H6.25C5.39062 14.7333 4.6875 15.4233 4.6875 16.2667V42.3333Z" fill="#3C3C3C"/>
<path d="M46.875 22.4H45.3125V42.3333H46.875V22.4Z" fill="#3C3C3C"/>
<path d="M43.75 40.8H6.25V16.2667H37.5V17.8H7.8125V39.2667H42.1875V22.4H43.75V40.8Z" fill="#3C3C3C"/>
<path d="M19.5312 33.1333H17.9688V37.7333H19.5312V33.1333Z" fill="#3C3C3C"/>
<path d="M16.4062 36.2H14.8438V37.7333H16.4062V36.2Z" fill="#3C3C3C"/>
<path d="M22.6562 30.0667H21.0938V37.7333H22.6562V30.0667Z" fill="#3C3C3C"/>
<path d="M25.7812 30.0667H24.2188V37.7333H25.7812V30.0667Z" fill="#3C3C3C"/>
<path d="M28.9062 33.1333H27.3438V37.7333H28.9062V33.1333Z" fill="#3C3C3C"/>
<path d="M32.0312 33.1333H30.4688V37.7333H32.0312V33.1333Z" fill="#3C3C3C"/>
<path d="M35.1562 30.0667H33.5938V37.7333H35.1562V30.0667Z" fill="#3C3C3C"/>
<path d="M38.2812 27H36.7188V37.7333H38.2812V27Z" fill="#3C3C3C"/>
</svg>
