<svg width="82" height="16" viewBox="0 0 82 16" fill="none" xmlns="http://www.w3.org/2000/svg">
<rect x="1" y="2" width="81" height="12" fill="#BE0811"/>
<path d="M62.8969 12.992C63.8995 12.992 64.6515 12.6187 65.1529 11.872C65.6649 11.1253 65.9209 10.0213 65.9209 8.56V7.92C65.9209 7.25867 65.8515 6.66133 65.7129 6.128C65.5742 5.584 65.3715 5.12 65.1049 4.736C64.8489 4.352 64.5289 4.05867 64.1449 3.856C63.7715 3.64267 63.3449 3.536 62.8649 3.536C61.8942 3.536 61.1369 3.92 60.5929 4.688C60.0489 5.44533 59.7769 6.53333 59.7769 7.952V8.592C59.7769 10.0427 60.0595 11.1413 60.6249 11.888C61.1902 12.624 61.9475 12.992 62.8969 12.992ZM62.8969 14.144C62.2142 14.144 61.5902 14.0107 61.0249 13.744C60.4702 13.4773 59.9955 13.104 59.6009 12.624C59.2062 12.144 58.8969 11.5627 58.6729 10.88C58.4595 10.1973 58.3529 9.44 58.3529 8.608V7.968C58.3529 7.12533 58.4542 6.36267 58.6569 5.68C58.8702 4.99733 59.1689 4.416 59.5529 3.936C59.9475 3.44533 60.4222 3.072 60.9769 2.816C61.5315 2.54933 62.1609 2.416 62.8649 2.416C63.5689 2.416 64.1982 2.54933 64.7529 2.816C65.3075 3.08267 65.7715 3.46133 66.1449 3.952C66.5289 4.44267 66.8222 5.02933 67.0249 5.712C67.2275 6.384 67.3289 7.12533 67.3289 7.936V8.576C67.3289 9.408 67.2275 10.1653 67.0249 10.848C66.8329 11.5307 66.5449 12.1173 66.1609 12.608C65.7875 13.0987 65.3235 13.4773 64.7689 13.744C64.2249 14.0107 63.6009 14.144 62.8969 14.144ZM68.7906 13.68L73.3346 8.896C73.8573 8.34133 74.2626 7.79733 74.5506 7.264C74.8386 6.73067 74.9826 6.17067 74.9826 5.584C74.9826 4.944 74.8013 4.44267 74.4386 4.08C74.0866 3.71733 73.5853 3.536 72.9346 3.536C72.2626 3.536 71.7186 3.73333 71.3026 4.128C70.8973 4.52267 70.636 5.17333 70.5186 6.08H69.2226C69.2653 5.52533 69.3773 5.024 69.5586 4.576C69.7506 4.11733 70.0066 3.728 70.3266 3.408C70.6466 3.088 71.0253 2.84267 71.4626 2.672C71.9 2.50133 72.3906 2.416 72.9346 2.416C73.4573 2.416 73.932 2.49067 74.3586 2.64C74.7853 2.78933 75.148 3.008 75.4466 3.296C75.756 3.57333 75.9906 3.90933 76.1506 4.304C76.3106 4.69867 76.3906 5.14133 76.3906 5.632C76.3906 6.336 76.1826 7.03467 75.7666 7.728C75.3506 8.41067 74.7906 9.09867 74.0866 9.792L70.9346 12.864H76.4546V14H68.7906V13.68ZM79.6489 14.08C79.3715 14.08 79.1315 13.984 78.9289 13.792C78.7262 13.5893 78.6249 13.344 78.6249 13.056C78.6249 12.768 78.7262 12.528 78.9289 12.336C79.1315 12.1333 79.3715 12.032 79.6489 12.032C79.9262 12.032 80.1662 12.1333 80.3689 12.336C80.5715 12.528 80.6729 12.768 80.6729 13.056C80.6729 13.344 80.5715 13.5893 80.3689 13.792C80.1662 13.984 79.9262 14.08 79.6489 14.08Z" fill="white"/>
</svg>
