<svg width="82" height="16" viewBox="0 0 82 16" fill="none" xmlns="http://www.w3.org/2000/svg">
<rect x="1" y="2" width="81" height="12" fill="#BE0811"/>
<path d="M65.5375 12.992C66.5402 12.992 67.2922 12.6187 67.7935 11.872C68.3055 11.1253 68.5615 10.0213 68.5615 8.56V7.92C68.5615 7.25867 68.4922 6.66133 68.3535 6.128C68.2148 5.584 68.0122 5.12 67.7455 4.736C67.4895 4.352 67.1695 4.05867 66.7855 3.856C66.4122 3.64267 65.9855 3.536 65.5055 3.536C64.5348 3.536 63.7775 3.92 63.2335 4.688C62.6895 5.44533 62.4175 6.53333 62.4175 7.952V8.592C62.4175 10.0427 62.7002 11.1413 63.2655 11.888C63.8308 12.624 64.5882 12.992 65.5375 12.992ZM65.5375 14.144C64.8548 14.144 64.2308 14.0107 63.6655 13.744C63.1108 13.4773 62.6362 13.104 62.2415 12.624C61.8468 12.144 61.5375 11.5627 61.3135 10.88C61.1002 10.1973 60.9935 9.44 60.9935 8.608V7.968C60.9935 7.12533 61.0948 6.36267 61.2975 5.68C61.5108 4.99733 61.8095 4.416 62.1935 3.936C62.5882 3.44533 63.0628 3.072 63.6175 2.816C64.1722 2.54933 64.8015 2.416 65.5055 2.416C66.2095 2.416 66.8388 2.54933 67.3935 2.816C67.9482 3.08267 68.4122 3.46133 68.7855 3.952C69.1695 4.44267 69.4628 5.02933 69.6655 5.712C69.8682 6.384 69.9695 7.12533 69.9695 7.936V8.576C69.9695 9.408 69.8682 10.1653 69.6655 10.848C69.4735 11.5307 69.1855 12.1173 68.8015 12.608C68.4282 13.0987 67.9642 13.4773 67.4095 13.744C66.8655 14.0107 66.2415 14.144 65.5375 14.144ZM74.2153 3.936L71.6553 5.776V4.48L74.3113 2.56H75.6073V14H74.2153V3.936ZM79.6489 14.08C79.3715 14.08 79.1315 13.984 78.9289 13.792C78.7262 13.5893 78.6249 13.344 78.6249 13.056C78.6249 12.768 78.7262 12.528 78.9289 12.336C79.1315 12.1333 79.3715 12.032 79.6489 12.032C79.9262 12.032 80.1662 12.1333 80.3689 12.336C80.5715 12.528 80.6729 12.768 80.6729 13.056C80.6729 13.344 80.5715 13.5893 80.3689 13.792C80.1662 13.984 79.9262 14.08 79.6489 14.08Z" fill="white"/>
</svg>
