<svg width="82" height="16" viewBox="0 0 82 16" fill="none" xmlns="http://www.w3.org/2000/svg">
<rect x="1" y="2" width="81" height="12" fill="#BE0811"/>
<path d="M62.2563 12.992C63.2589 12.992 64.0109 12.6187 64.5123 11.872C65.0243 11.1253 65.2803 10.0213 65.2803 8.56V7.92C65.2803 7.25867 65.2109 6.66133 65.0723 6.128C64.9336 5.584 64.7309 5.12 64.4643 4.736C64.2083 4.352 63.8883 4.05867 63.5043 3.856C63.1309 3.64267 62.7043 3.536 62.2243 3.536C61.2536 3.536 60.4963 3.92 59.9523 4.688C59.4083 5.44533 59.1363 6.53333 59.1363 7.952V8.592C59.1363 10.0427 59.4189 11.1413 59.9843 11.888C60.5496 12.624 61.3069 12.992 62.2563 12.992ZM62.2563 14.144C61.5736 14.144 60.9496 14.0107 60.3843 13.744C59.8296 13.4773 59.3549 13.104 58.9603 12.624C58.5656 12.144 58.2563 11.5627 58.0323 10.88C57.8189 10.1973 57.7122 9.44 57.7122 8.608V7.968C57.7122 7.12533 57.8136 6.36267 58.0163 5.68C58.2296 4.99733 58.5283 4.416 58.9123 3.936C59.3069 3.44533 59.7816 3.072 60.3363 2.816C60.8909 2.54933 61.5203 2.416 62.2243 2.416C62.9283 2.416 63.5576 2.54933 64.1123 2.816C64.6669 3.08267 65.1309 3.46133 65.5043 3.952C65.8883 4.44267 66.1816 5.02933 66.3843 5.712C66.5869 6.384 66.6883 7.12533 66.6883 7.936V8.576C66.6883 9.408 66.5869 10.1653 66.3843 10.848C66.1923 11.5307 65.9043 12.1173 65.5203 12.608C65.1469 13.0987 64.6829 13.4773 64.1283 13.744C63.5843 14.0107 62.9603 14.144 62.2563 14.144ZM72.486 14.144C71.878 14.144 71.3287 14.0533 70.838 13.872C70.358 13.6907 69.9473 13.4453 69.606 13.136C69.2647 12.816 68.998 12.4427 68.806 12.016C68.614 11.5893 68.5073 11.1253 68.486 10.624H69.766C69.798 10.9653 69.8727 11.2853 69.99 11.584C70.118 11.872 70.294 12.1227 70.518 12.336C70.742 12.5493 71.0193 12.72 71.35 12.848C71.6807 12.9653 72.07 13.024 72.518 13.024C73.4247 13.024 74.086 12.8267 74.502 12.432C74.918 12.0267 75.126 11.488 75.126 10.816C75.126 9.33333 74.3207 8.592 72.71 8.592H71.846V7.424H72.646C73.3927 7.424 73.9367 7.25867 74.278 6.928C74.6193 6.58667 74.79 6.10133 74.79 5.472C74.79 4.928 74.6193 4.47467 74.278 4.112C73.9367 3.73867 73.414 3.552 72.71 3.552C71.9953 3.552 71.414 3.74933 70.966 4.144C70.518 4.53867 70.2567 5.06133 70.182 5.712H68.966C68.9873 5.264 69.0887 4.84267 69.27 4.448C69.462 4.04267 69.7233 3.69067 70.054 3.392C70.3847 3.09333 70.774 2.85867 71.222 2.688C71.67 2.50667 72.166 2.416 72.71 2.416C73.254 2.416 73.7393 2.50133 74.166 2.672C74.5927 2.832 74.95 3.056 75.238 3.344C75.5367 3.62133 75.7607 3.94133 75.91 4.304C76.07 4.66667 76.15 5.04533 76.15 5.44C76.15 6.09067 75.9793 6.61867 75.638 7.024C75.2967 7.41867 74.8647 7.72267 74.342 7.936C75.014 8.11733 75.5473 8.44267 75.942 8.912C76.3473 9.38133 76.55 10.016 76.55 10.816C76.55 11.3387 76.4487 11.808 76.246 12.224C76.0433 12.6293 75.7607 12.976 75.398 13.264C75.046 13.552 74.6193 13.7707 74.118 13.92C73.6167 14.0693 73.0727 14.144 72.486 14.144ZM79.6489 14.08C79.3715 14.08 79.1315 13.984 78.9289 13.792C78.7262 13.5893 78.6249 13.344 78.6249 13.056C78.6249 12.768 78.7262 12.528 78.9289 12.336C79.1315 12.1333 79.3715 12.032 79.6489 12.032C79.9262 12.032 80.1662 12.1333 80.3689 12.336C80.5715 12.528 80.6729 12.768 80.6729 13.056C80.6729 13.344 80.5715 13.5893 80.3689 13.792C80.1662 13.984 79.9262 14.08 79.6489 14.08Z" fill="white"/>
</svg>
