<svg width="128" height="29" viewBox="0 0 128 29" fill="none" xmlns="http://www.w3.org/2000/svg">
<path d="M30.7089 1.95166V1.26284H22.961C22.961 6.142 21.8864 15.3263 17.0793 18.713C16.4007 19.2296 15.6655 19.574 14.9303 19.7462C14.5344 19.8036 14.1385 19.861 13.7427 19.861C10.7453 19.861 8.2569 17.278 8.2569 14.1209C8.2569 10.8489 10.5756 8.43807 13.6295 8.43807C14.082 8.43807 14.4779 8.49547 14.9303 8.55287C15.722 8.72508 17.9842 9.2991 19.7374 11.997C20.5292 10.1027 21.3209 6.42901 21.3209 2.87009C20.416 1.49245 16.8531 0 13.573 0C9.84042 0.0574018 6.39062 1.54985 3.84568 4.30514C1.3573 6.88822 0 10.3897 0 14.1209C0 17.852 1.41385 21.3535 3.95879 24.0514C6.56028 26.7493 10.0101 28.2417 13.7427 28.2417C23.7527 28.2417 30.1999 17.3928 30.7089 1.95166Z" fill="white"/>
<path d="M22.1692 28.2417H30.9917C30.9917 28.0121 30.9917 13.0876 30.9917 11.997C29.4081 19.287 26.3542 25.0272 22.1692 28.2417Z" fill="white"/>
<path d="M40.6059 9.29913H38.0044L37.552 11.3082H36.0815L38.5699 1.26287H40.0969L42.5853 11.3082H41.1149L40.6059 9.29913ZM40.3231 7.92148L39.701 5.22359C39.5313 4.59217 39.4182 3.61634 39.3617 3.09973H39.3051C39.2486 3.61634 39.0789 4.59217 38.9658 5.22359L38.3437 7.92148H40.3231ZM44.3384 11.3082H45.6957V0.918457H44.3384V11.3082ZM53.0478 6.48644V8.5529C53.0478 10.3898 52.1429 11.423 50.6725 11.423C50.1635 11.423 49.598 11.1934 49.2587 10.849V13.8339H47.9014V3.73115H48.8628L48.9759 4.41997C49.3152 3.96075 49.9939 3.55894 50.6725 3.55894C52.0864 3.55894 53.0478 4.64958 53.0478 6.48644ZM51.6339 6.48644C51.6339 5.3958 51.1815 4.87918 50.4463 4.87918C49.7676 4.87918 49.2587 5.3958 49.2587 6.48644V8.5529C49.2587 9.52873 49.7111 10.1602 50.4463 10.1602C51.238 10.1602 51.6339 9.70094 51.6339 8.5529V6.48644ZM60.1736 6.71604C60.1736 4.59217 59.4384 3.55894 58.1377 3.55894C57.4025 3.55894 56.8935 3.90335 56.4976 4.47737V0.975859H55.1403V11.3082H56.4976V6.65864C56.4976 5.56801 57.0066 4.93659 57.7418 4.93659C58.4204 4.93659 58.7597 5.4532 58.7597 6.77344V11.3082H60.117V6.71604H60.1736ZM67.2429 6.31423V11.3082H66.1118L65.9987 10.562C65.7159 11.0786 65.1504 11.4804 64.3586 11.4804C63.0013 11.4804 62.0964 10.562 62.0964 9.12692C62.0964 7.57707 63.1144 6.83085 64.811 6.83085H65.8856V6.31423C65.8856 5.4532 65.5462 4.93659 64.811 4.93659C64.1889 4.93659 63.7365 5.281 63.68 5.91242H62.3227C62.3792 4.47737 63.3406 3.55894 64.8676 3.55894C66.3946 3.55894 67.2429 4.53477 67.2429 6.31423ZM65.829 7.97888H64.7545C63.9062 7.97888 63.4537 8.3807 63.4537 9.12692C63.4537 9.81574 63.9062 10.2176 64.6414 10.2176C65.3766 10.2176 65.829 9.75834 65.829 8.95471V7.97888ZM42.5853 21.5257C42.5853 23.6496 41.5107 24.7976 39.5313 24.7976H38.3437V28.2991H36.9299V18.2538H39.5313C41.5107 18.2538 42.5853 19.4593 42.5853 21.5257ZM41.1149 21.5257C41.1149 20.3203 40.6059 19.6889 39.5313 19.6889H38.3437V23.42H39.5313C40.6059 23.42 41.1149 22.7886 41.1149 21.5257ZM49.598 23.707C49.598 21.5831 48.8628 20.5499 47.562 20.5499C46.8268 20.5499 46.3178 20.8943 45.922 21.4683V17.9668H44.5647V28.2991H45.922V23.6496C45.922 22.5589 46.4309 21.9275 47.1662 21.9275C47.8448 21.9275 48.1841 22.4441 48.1841 23.7644V28.2991H49.5414V23.707H49.598ZM56.6672 23.3052V28.2991H55.5362L55.4231 27.5529C55.1403 28.0695 54.5747 28.4713 53.783 28.4713C52.4257 28.4713 51.5208 27.5529 51.5208 26.1179C51.5208 24.568 52.5388 23.8218 54.2354 23.8218H55.3099V23.3052C55.3099 22.4441 54.9706 21.9275 54.2354 21.9275C53.6133 21.9275 53.1609 22.2719 53.1043 22.9034H51.747C51.8036 21.4683 52.765 20.5499 54.292 20.5499C55.8189 20.5499 56.6672 21.5257 56.6672 23.3052ZM55.3099 24.9698H54.2354C53.3871 24.9698 52.9347 25.3716 52.9347 26.1179C52.9347 26.8067 53.3871 27.2085 54.1223 27.2085C54.8575 27.2085 55.3099 26.7493 55.3099 25.9457V24.9698ZM62.662 20.6647C62.4358 20.6073 62.2096 20.5499 61.8702 20.5499C61.0219 20.5499 60.3433 20.9517 59.9474 21.6405L59.7777 20.7221H58.8163V28.2991H60.1736V23.7644C60.1736 22.5589 60.7391 21.8701 61.7006 21.8701C62.0399 21.8701 62.3227 21.9275 62.6054 22.0423V20.6647H62.662ZM73.0114 23.5922C73.0114 21.5831 72.2196 20.6073 70.9754 20.6073C70.1271 20.6073 69.4485 21.0091 69.1092 21.7553C68.7698 21.0091 68.1477 20.6073 67.356 20.6073C66.5642 20.6073 65.9421 21.0091 65.6028 21.6405L65.4331 20.7795H64.4717V28.3565H65.829V23.707C65.829 22.5589 66.338 21.9849 67.0732 21.9849C67.6953 21.9849 68.0912 22.4441 68.0912 23.707V28.4139H69.4485V23.7644C69.4485 22.6164 69.9575 22.0423 70.6927 22.0423C71.3148 22.0423 71.6541 22.5015 71.6541 23.7644V28.4713H73.0114V23.5922ZM80.0807 23.3052V28.2991H78.9496L78.8365 27.5529C78.5537 28.0695 77.9881 28.4713 77.1964 28.4713C75.8391 28.4713 74.9342 27.5529 74.9342 26.1179C74.9342 24.568 75.9522 23.8218 77.6488 23.8218H78.7234V23.3052C78.7234 22.4441 78.384 21.9275 77.6488 21.9275C77.0267 21.9275 76.5743 22.2719 76.5177 22.9034H75.1604C75.217 21.4683 76.1784 20.5499 77.7054 20.5499C79.2323 20.5499 80.0807 21.5257 80.0807 23.3052ZM78.7234 24.9698H77.6488C76.8005 24.9698 76.3481 25.3716 76.3481 26.1179C76.3481 26.8067 76.8005 27.2085 77.5357 27.2085C78.2709 27.2085 78.7234 26.7493 78.7234 25.9457V24.9698ZM82.1166 25.6586C82.1166 27.4381 83.078 28.4139 84.605 28.4139C86.1885 28.4139 87.1499 27.4381 87.2065 25.6586H85.8492C85.7926 26.6345 85.3967 27.0937 84.605 27.0937C83.8698 27.0937 83.4739 26.6345 83.4739 25.6586V23.3052C83.4739 22.3293 83.8698 21.8701 84.605 21.8701C85.3402 21.8701 85.7926 22.3293 85.7926 23.3052H87.1499C87.0934 21.5831 86.1885 20.5499 84.5484 20.5499C83.0215 20.5499 82.06 21.5257 82.06 23.3052V25.6586H82.1166ZM94.2757 25.9457C94.1061 27.5529 93.2012 28.4713 91.6177 28.4713C90.0907 28.4713 89.0728 27.4381 89.0728 25.6586V23.42C89.0728 21.6405 90.0342 20.6073 91.6177 20.6073C93.2012 20.6073 94.2192 21.6405 94.2192 23.42V25.0846H90.4301V25.6586C90.4301 26.6919 90.8825 27.1511 91.6177 27.1511C92.4095 27.1511 92.7488 26.8067 92.8619 25.9457H94.2757ZM90.4301 23.3626V23.994H92.8619V23.3626C92.8619 22.3293 92.4095 21.8701 91.6177 21.8701C90.8825 21.8701 90.4301 22.3293 90.4301 23.3626ZM99.9311 20.7221V25.3716C99.9311 26.4623 99.4222 27.0937 98.687 27.0937C97.9518 27.0937 97.669 26.5771 97.669 25.3716V20.7221H96.3117V25.4864C96.3117 27.5529 97.1034 28.4713 98.4042 28.4713C99.2525 28.4713 99.8746 28.0695 100.27 27.4381L100.384 28.2991H101.345V20.7221H99.9311ZM106.548 27.0937C105.813 27.0937 105.473 26.6919 105.473 25.8883V22.0423H106.831V20.7221H105.473V18.9426H104.116V20.7221H103.098V21.9849H104.116V25.8309C104.116 27.3807 104.964 28.3565 106.491 28.3565H107V27.0363H106.548V27.0937ZM108.697 18.5982C108.697 18.0816 109.036 17.7372 109.545 17.7372C110.054 17.7372 110.394 18.0816 110.394 18.5982C110.394 19.1148 110.054 19.4592 109.545 19.4592C109.093 19.4592 108.697 19.1148 108.697 18.5982ZM108.923 20.7221H110.281V28.2991H108.923V20.7221ZM112.317 25.6586C112.317 27.4381 113.278 28.4139 114.805 28.4139C116.388 28.4139 117.35 27.4381 117.406 25.6586H116.049C115.993 26.6345 115.597 27.0937 114.805 27.0937C114.07 27.0937 113.674 26.6345 113.674 25.6586V23.3052C113.674 22.3293 114.07 21.8701 114.805 21.8701C115.54 21.8701 115.993 22.3293 115.993 23.3052H117.35C117.293 21.5831 116.388 20.5499 114.748 20.5499C113.221 20.5499 112.26 21.5257 112.26 23.3052V25.6586H112.317ZM124.306 23.3052V28.2991H123.175L123.062 27.5529C122.779 28.0695 122.213 28.4713 121.422 28.4713C120.064 28.4713 119.16 27.5529 119.16 26.1179C119.16 24.568 120.178 23.8218 121.874 23.8218H122.949V23.3052C122.949 22.4441 122.609 21.9275 121.874 21.9275C121.252 21.9275 120.8 22.2719 120.743 22.9034H119.329C119.386 21.4683 120.347 20.5499 121.874 20.5499C123.458 20.5499 124.306 21.5257 124.306 23.3052ZM122.949 24.9698H121.874C121.026 24.9698 120.573 25.3716 120.573 26.1179C120.573 26.8067 121.026 27.2085 121.761 27.2085C122.496 27.2085 122.949 26.7493 122.949 25.9457V24.9698ZM126.512 28.2991H127.869V17.9094H126.512V28.2991Z" fill="white"/>
</svg>
