<svg width="128" height="29" viewBox="0 0 128 29" fill="none" xmlns="http://www.w3.org/2000/svg">
<path d="M30.7089 1.95166V1.26284H22.961C22.961 6.142 21.8864 15.3263 17.0793 18.713C16.4007 19.2296 15.6655 19.574 14.9303 19.7462C14.5344 19.8036 14.1385 19.861 13.7427 19.861C10.7453 19.861 8.2569 17.278 8.2569 14.1209C8.2569 10.8489 10.5756 8.43807 13.6295 8.43807C14.082 8.43807 14.4779 8.49547 14.9303 8.55287C15.722 8.72508 17.9842 9.2991 19.7374 11.997C20.5292 10.1027 21.3209 6.42901 21.3209 2.87009C20.416 1.49245 16.8531 0 13.573 0C9.84042 0.0574018 6.39062 1.54985 3.84568 4.30514C1.3573 6.88822 0 10.3897 0 14.1209C0 17.852 1.41385 21.3535 3.95879 24.0514C6.56028 26.7493 10.0101 28.2417 13.7427 28.2417C23.7527 28.2417 30.1999 17.3928 30.7089 1.95166Z" fill="#BE0811"/>
<path d="M22.1692 28.2417H30.9917C30.9917 28.0121 30.9917 13.0876 30.9917 11.997C29.4081 19.287 26.3542 25.0272 22.1692 28.2417Z" fill="#BE0811"/>
<path d="M40.6059 9.29906H38.0044L37.552 11.3081H36.0815L38.5699 1.26281H40.0969L42.5853 11.3081H41.1149L40.6059 9.29906ZM40.3231 7.92142L39.701 5.22353C39.5313 4.59211 39.4182 3.61628 39.3617 3.09967H39.3051C39.2486 3.61628 39.0789 4.59211 38.9658 5.22353L38.3437 7.92142H40.3231ZM44.3384 11.3081H45.6957V0.918396H44.3384V11.3081ZM53.0478 6.48637V8.55284C53.0478 10.3897 52.1429 11.4229 50.6725 11.4229C50.1635 11.4229 49.598 11.1933 49.2587 10.8489V13.8338H47.9014V3.73109H48.8628L48.9759 4.41991C49.3152 3.96069 49.9939 3.55888 50.6725 3.55888C52.0864 3.55888 53.0478 4.64952 53.0478 6.48637ZM51.6339 6.48637C51.6339 5.39574 51.1815 4.87912 50.4463 4.87912C49.7676 4.87912 49.2587 5.39574 49.2587 6.48637V8.55284C49.2587 9.52867 49.7111 10.1601 50.4463 10.1601C51.238 10.1601 51.6339 9.70088 51.6339 8.55284V6.48637ZM60.1736 6.71598C60.1736 4.59211 59.4384 3.55888 58.1377 3.55888C57.4025 3.55888 56.8935 3.90329 56.4976 4.47731V0.975798H55.1403V11.3081H56.4976V6.65858C56.4976 5.56794 57.0066 4.93652 57.7418 4.93652C58.4204 4.93652 58.7597 5.45314 58.7597 6.77338V11.3081H60.117V6.71598H60.1736ZM67.2429 6.31417V11.3081H66.1118L65.9987 10.5619C65.7159 11.0785 65.1504 11.4803 64.3586 11.4803C63.0013 11.4803 62.0964 10.5619 62.0964 9.12686C62.0964 7.57701 63.1144 6.83079 64.811 6.83079H65.8856V6.31417C65.8856 5.45314 65.5462 4.93652 64.811 4.93652C64.1889 4.93652 63.7365 5.28094 63.68 5.91236H62.3227C62.3792 4.47731 63.3406 3.55888 64.8676 3.55888C66.3946 3.55888 67.2429 4.53471 67.2429 6.31417ZM65.829 7.97882H64.7545C63.9062 7.97882 63.4537 8.38063 63.4537 9.12686C63.4537 9.81568 63.9062 10.2175 64.6414 10.2175C65.3766 10.2175 65.829 9.75828 65.829 8.95465V7.97882ZM42.5853 21.5257C42.5853 23.6495 41.5107 24.7976 39.5313 24.7976H38.3437V28.2991H36.9299V18.2538H39.5313C41.5107 18.2538 42.5853 19.4592 42.5853 21.5257ZM41.1149 21.5257C41.1149 20.3202 40.6059 19.6888 39.5313 19.6888H38.3437V23.4199H39.5313C40.6059 23.4199 41.1149 22.7885 41.1149 21.5257ZM49.598 23.7069C49.598 21.5831 48.8628 20.5498 47.562 20.5498C46.8268 20.5498 46.3178 20.8942 45.922 21.4683V17.9667H44.5647V28.2991H45.922V23.6495C45.922 22.5589 46.4309 21.9275 47.1662 21.9275C47.8448 21.9275 48.1841 22.4441 48.1841 23.7643V28.2991H49.5414V23.7069H49.598ZM56.6672 23.3051V28.2991H55.5362L55.4231 27.5528C55.1403 28.0695 54.5747 28.4713 53.783 28.4713C52.4257 28.4713 51.5208 27.5528 51.5208 26.1178C51.5208 24.568 52.5388 23.8217 54.2354 23.8217H55.3099V23.3051C55.3099 22.4441 54.9706 21.9275 54.2354 21.9275C53.6133 21.9275 53.1609 22.2719 53.1043 22.9033H51.747C51.8036 21.4683 52.765 20.5498 54.292 20.5498C55.8189 20.5498 56.6672 21.5257 56.6672 23.3051ZM55.3099 24.9698H54.2354C53.3871 24.9698 52.9347 25.3716 52.9347 26.1178C52.9347 26.8066 53.3871 27.2084 54.1223 27.2084C54.8575 27.2084 55.3099 26.7492 55.3099 25.9456V24.9698ZM62.662 20.6646C62.4358 20.6072 62.2096 20.5498 61.8702 20.5498C61.0219 20.5498 60.3433 20.9516 59.9474 21.6405L59.7777 20.722H58.8163V28.2991H60.1736V23.7643C60.1736 22.5589 60.7391 21.8701 61.7006 21.8701C62.0399 21.8701 62.3227 21.9275 62.6054 22.0423V20.6646H62.662ZM73.0114 23.5921C73.0114 21.5831 72.2196 20.6072 70.9754 20.6072C70.1271 20.6072 69.4485 21.009 69.1092 21.7553C68.7698 21.009 68.1477 20.6072 67.356 20.6072C66.5642 20.6072 65.9421 21.009 65.6028 21.6405L65.4331 20.7794H64.4717V28.3565H65.829V23.7069C65.829 22.5589 66.338 21.9849 67.0732 21.9849C67.6953 21.9849 68.0912 22.4441 68.0912 23.7069V28.4139H69.4485V23.7643C69.4485 22.6163 69.9575 22.0423 70.6927 22.0423C71.3148 22.0423 71.6541 22.5015 71.6541 23.7643V28.4713H73.0114V23.5921ZM80.0807 23.3051V28.2991H78.9496L78.8365 27.5528C78.5537 28.0695 77.9881 28.4713 77.1964 28.4713C75.8391 28.4713 74.9342 27.5528 74.9342 26.1178C74.9342 24.568 75.9522 23.8217 77.6488 23.8217H78.7234V23.3051C78.7234 22.4441 78.384 21.9275 77.6488 21.9275C77.0267 21.9275 76.5743 22.2719 76.5177 22.9033H75.1604C75.217 21.4683 76.1784 20.5498 77.7054 20.5498C79.2323 20.5498 80.0807 21.5257 80.0807 23.3051ZM78.7234 24.9698H77.6488C76.8005 24.9698 76.3481 25.3716 76.3481 26.1178C76.3481 26.8066 76.8005 27.2084 77.5357 27.2084C78.2709 27.2084 78.7234 26.7492 78.7234 25.9456V24.9698ZM82.1166 25.6586C82.1166 27.438 83.078 28.4139 84.605 28.4139C86.1885 28.4139 87.1499 27.438 87.2065 25.6586H85.8492C85.7926 26.6344 85.3967 27.0936 84.605 27.0936C83.8698 27.0936 83.4739 26.6344 83.4739 25.6586V23.3051C83.4739 22.3293 83.8698 21.8701 84.605 21.8701C85.3402 21.8701 85.7926 22.3293 85.7926 23.3051H87.1499C87.0934 21.5831 86.1885 20.5498 84.5484 20.5498C83.0215 20.5498 82.06 21.5257 82.06 23.3051V25.6586H82.1166ZM94.2757 25.9456C94.1061 27.5528 93.2012 28.4713 91.6177 28.4713C90.0907 28.4713 89.0728 27.438 89.0728 25.6586V23.4199C89.0728 21.6405 90.0342 20.6072 91.6177 20.6072C93.2012 20.6072 94.2192 21.6405 94.2192 23.4199V25.0846H90.4301V25.6586C90.4301 26.6918 90.8825 27.151 91.6177 27.151C92.4095 27.151 92.7488 26.8066 92.8619 25.9456H94.2757ZM90.4301 23.3625V23.9939H92.8619V23.3625C92.8619 22.3293 92.4095 21.8701 91.6177 21.8701C90.8825 21.8701 90.4301 22.3293 90.4301 23.3625ZM99.9311 20.722V25.3716C99.9311 26.4622 99.4222 27.0936 98.687 27.0936C97.9518 27.0936 97.669 26.577 97.669 25.3716V20.722H96.3117V25.4864C96.3117 27.5528 97.1034 28.4713 98.4042 28.4713C99.2525 28.4713 99.8746 28.0695 100.27 27.438L100.384 28.2991H101.345V20.722H99.9311ZM106.548 27.0936C105.813 27.0936 105.473 26.6918 105.473 25.8882V22.0423H106.831V20.722H105.473V18.9426H104.116V20.722H103.098V21.9849H104.116V25.8308C104.116 27.3806 104.964 28.3565 106.491 28.3565H107V27.0362H106.548V27.0936ZM108.697 18.5982C108.697 18.0815 109.036 17.7371 109.545 17.7371C110.054 17.7371 110.394 18.0815 110.394 18.5982C110.394 19.1148 110.054 19.4592 109.545 19.4592C109.093 19.4592 108.697 19.1148 108.697 18.5982ZM108.923 20.722H110.281V28.2991H108.923V20.722ZM112.317 25.6586C112.317 27.438 113.278 28.4139 114.805 28.4139C116.388 28.4139 117.35 27.438 117.406 25.6586H116.049C115.993 26.6344 115.597 27.0936 114.805 27.0936C114.07 27.0936 113.674 26.6344 113.674 25.6586V23.3051C113.674 22.3293 114.07 21.8701 114.805 21.8701C115.54 21.8701 115.993 22.3293 115.993 23.3051H117.35C117.293 21.5831 116.388 20.5498 114.748 20.5498C113.221 20.5498 112.26 21.5257 112.26 23.3051V25.6586H112.317ZM124.306 23.3051V28.2991H123.175L123.062 27.5528C122.779 28.0695 122.213 28.4713 121.422 28.4713C120.064 28.4713 119.16 27.5528 119.16 26.1178C119.16 24.568 120.178 23.8217 121.874 23.8217H122.949V23.3051C122.949 22.4441 122.609 21.9275 121.874 21.9275C121.252 21.9275 120.8 22.2719 120.743 22.9033H119.329C119.386 21.4683 120.347 20.5498 121.874 20.5498C123.458 20.5498 124.306 21.5257 124.306 23.3051ZM122.949 24.9698H121.874C121.026 24.9698 120.573 25.3716 120.573 26.1178C120.573 26.8066 121.026 27.2084 121.761 27.2084C122.496 27.2084 122.949 26.7492 122.949 25.9456V24.9698ZM126.512 28.2991H127.869V17.9093H126.512V28.2991Z" fill="#211915"/>
</svg>
