<svg width="50" height="50" viewBox="0 0 50 50" fill="none" xmlns="http://www.w3.org/2000/svg">
<path d="M18.75 32.9C27.8109 32.9 35.1562 25.5351 35.1562 16.45C35.1562 7.36492 27.8109 0 18.75 0C9.68908 0 2.34375 7.36492 2.34375 16.45C2.34375 25.5351 9.68908 32.9 18.75 32.9Z" fill="#FFEC40"/>
<path d="M41.4062 28.85H8.59375C5.15625 28.85 2.34375 26.03 2.34375 22.5833H3.90625C3.90625 25.1683 6.01562 27.2833 8.59375 27.2833H41.4062C43.9844 27.2833 46.0938 25.1683 46.0938 22.5833H47.6562C47.6562 26.03 44.8438 28.85 41.4062 28.85Z" fill="#3C3C3C"/>
<path d="M47.6562 50H2.34375V42.1666H3.90625V48.4333H46.0938V42.1666H47.6562V50Z" fill="#3C3C3C"/>
<path d="M47.6562 32.7667H46.0938V17.1H3.90625V32.7667H2.34375V15.5333H47.6562V32.7667Z" fill="#3C3C3C"/>
<path d="M32.0312 16.3167H30.4688V10.8333H19.5312V16.3167H17.9688V10.05C17.9688 9.57998 18.2812 9.26665 18.75 9.26665H31.25C31.7188 9.26665 32.0312 9.57998 32.0312 10.05V16.3167Z" fill="#3C3C3C"/>
<path d="M25.7812 22.5833H24.2188V24.15H25.7812V22.5833Z" fill="#3C3C3C"/>
<path d="M28.9062 22.5833H27.3438V24.15H28.9062V22.5833Z" fill="#3C3C3C"/>
<path d="M22.6562 22.5833H21.0938V24.15H22.6562V22.5833Z" fill="#3C3C3C"/>
<path d="M31.25 12.4H18.75V13.9667H31.25V12.4Z" fill="#3C3C3C"/>
<path d="M45.3125 39.0333H9.375V40.6H45.3125V39.0333Z" fill="#3C3C3C"/>
<path d="M45.3125 34.3333H9.375V35.9H45.3125V34.3333Z" fill="#3C3C3C"/>
<path d="M50 40.6H44.5312V34.3333H50V40.6ZM46.0938 39.0333H48.4375V35.9H46.0938V39.0333Z" fill="#3C3C3C"/>
<path d="M9.375 40.6H4.6875C4.53125 40.6 4.375 40.6 4.29688 40.5217L0.390625 38.1717C0.15625 38.015 0 37.78 0 37.4667C0 37.1533 0.15625 36.9183 0.390625 36.7617L4.29688 34.4117C4.375 34.3333 4.53125 34.3333 4.6875 34.3333H9.375C9.84375 34.3333 10.1562 34.6467 10.1562 35.1167V39.8167C10.1562 40.2867 9.84375 40.6 9.375 40.6ZM4.92188 39.0333H8.59375V35.9H4.92188L2.34375 37.4667L4.92188 39.0333Z" fill="#3C3C3C"/>
<path d="M22.6562 35.1167H21.0938V39.8167H22.6562V35.1167Z" fill="#3C3C3C"/>
<path d="M41.4062 43.7333H29.6875V42.1667H39.8438V39.8167H41.4062V43.7333Z" fill="#3C3C3C"/>
</svg>
