<svg width="50" height="50" viewBox="0 0 50 50" fill="none" xmlns="http://www.w3.org/2000/svg">
<path d="M33.5938 50C42.6547 50 50 42.6547 50 33.5938C50 24.5328 42.6547 17.1875 33.5938 17.1875C24.5328 17.1875 17.1875 24.5328 17.1875 33.5938C17.1875 42.6547 24.5328 50 33.5938 50Z" fill="#FFEC40"/>
<path d="M35.9375 17.1875C34.2188 17.1875 32.8125 15.7812 32.8125 14.0625C32.8125 12.3438 34.2188 10.9375 35.9375 10.9375C37.6562 10.9375 39.0625 12.3438 39.0625 14.0625C39.0625 15.7812 37.6562 17.1875 35.9375 17.1875ZM35.9375 12.5C35.0781 12.5 34.375 13.2031 34.375 14.0625C34.375 14.9219 35.0781 15.625 35.9375 15.625C36.7969 15.625 37.5 14.9219 37.5 14.0625C37.5 13.2031 36.7969 12.5 35.9375 12.5Z" fill="#3C3C3C"/>
<path d="M4.6875 26.5625H3.125V5.46875C3.125 4.14062 4.14062 3.125 5.46875 3.125H26.5625V4.6875H5.46875C5 4.6875 4.6875 5 4.6875 5.46875V26.5625Z" fill="#3C3C3C"/>
<path d="M44.5312 46.875H23.4375V45.3125H44.5312C45 45.3125 45.3125 45 45.3125 44.5312V23.4375H46.875V44.5312C46.875 45.8594 45.8594 46.875 44.5312 46.875Z" fill="#3C3C3C"/>
<path d="M17.1875 6.25H6.25V7.8125H17.1875V6.25Z" fill="#3C3C3C"/>
<path d="M7.8125 9.375H6.25V10.9375H7.8125V9.375Z" fill="#3C3C3C"/>
<path d="M10.9375 9.375H9.375V10.9375H10.9375V9.375Z" fill="#3C3C3C"/>
<path d="M14.0625 9.375H12.5V10.9375H14.0625V9.375Z" fill="#3C3C3C"/>
<path d="M25.7812 24.2188H24.2188V25.7812H25.7812V24.2188Z" fill="#3C3C3C"/>
<path d="M43.75 42.1875H32.8125V43.75H43.75V42.1875Z" fill="#3C3C3C"/>
<path d="M43.75 39.0625H42.1875V40.625H43.75V39.0625Z" fill="#3C3C3C"/>
<path d="M40.625 39.0625H39.0625V40.625H40.625V39.0625Z" fill="#3C3C3C"/>
<path d="M37.5 39.0625H35.9375V40.625H37.5V39.0625Z" fill="#3C3C3C"/>
<path d="M14.0625 41.4062C12.3438 41.4062 10.9375 40 10.9375 38.2812H12.5C12.5 39.1406 13.2031 39.8438 14.0625 39.8438C14.9219 39.8438 15.625 39.1406 15.625 38.2812C15.625 37.8125 14.5312 37.0312 13.75 36.6406C13.2812 36.4062 10.9375 35.3125 10.9375 33.5938C10.9375 31.875 12.3438 30.4688 14.0625 30.4688C15.7812 30.4688 17.1875 31.875 17.1875 33.5938H15.625C15.625 32.7344 14.9219 32.0312 14.0625 32.0312C13.2031 32.0312 12.5 32.7344 12.5 33.5938C12.5 34.0625 13.5938 34.8438 14.375 35.2344C14.8438 35.4688 17.1875 36.5625 17.1875 38.2812C17.1875 40 15.7812 41.4062 14.0625 41.4062Z" fill="#3C3C3C"/>
<path d="M14.8438 28.9062H13.2812V31.25H14.8438V28.9062Z" fill="#3C3C3C"/>
<path d="M14.8438 40.625H13.2812V42.9688H14.8438V40.625Z" fill="#3C3C3C"/>
<path d="M20.3125 35.1562H18.75V36.7188H20.3125V35.1562Z" fill="#3C3C3C"/>
<path d="M9.375 35.1562H7.8125V36.7188H9.375V35.1562Z" fill="#3C3C3C"/>
<path d="M39.0625 28.125C38.8281 28.125 38.5937 28.0469 38.4375 27.8125L35.9375 24.6875L33.4375 27.8125C33.2031 28.0469 32.8906 28.2031 32.5 28.0469L28.5937 26.4844C28.2812 26.4063 28.125 26.0938 28.125 25.7812V21.875H24.2187C23.9062 21.875 23.5937 21.7188 23.5156 21.4062L21.9531 17.5C21.7969 17.1875 21.9531 16.7969 22.1875 16.5625L25.3125 14.0625L22.1875 11.5625C21.9531 11.3281 21.7969 11.0156 21.9531 10.625L23.5156 6.71875C23.5937 6.40625 23.9062 6.25 24.2187 6.25H28.125V2.34375C28.125 2.03125 28.2812 1.71875 28.5937 1.64062L32.5 0.078125C32.8125 -0.078125 33.2031 0.078125 33.4375 0.3125L35.9375 3.4375L38.4375 0.3125C38.6719 0 39.0625 -0.078125 39.375 0.078125L43.2812 1.64062C43.5937 1.71875 43.75 2.03125 43.75 2.34375V6.25H47.6562C47.9687 6.25 48.2812 6.40625 48.3594 6.71875L49.9219 10.625C50.0781 10.9375 49.9219 11.3281 49.6875 11.5625L46.5625 14.0625L49.6875 16.5625C49.9219 16.7969 50.0781 17.1094 49.9219 17.5L48.3594 21.4062C48.2812 21.7188 47.9687 21.875 47.6562 21.875H43.75V25.7812C43.75 26.0938 43.5937 26.4063 43.2812 26.4844L39.375 28.0469C39.2969 28.125 39.1406 28.125 39.0625 28.125ZM35.9375 22.6562C36.1719 22.6562 36.4062 22.7344 36.5625 22.9688L39.2969 26.4062L42.1875 25.2344V21.0938C42.1875 20.625 42.5 20.3125 42.9687 20.3125H47.1094L48.2812 17.4219L44.8437 14.6875C44.6094 14.5312 44.5312 14.2969 44.5312 14.0625C44.5312 13.8281 44.6094 13.5938 44.8437 13.4375L48.2812 10.7031L47.1094 7.8125H42.9687C42.5 7.8125 42.1875 7.5 42.1875 7.03125V2.89062L39.2969 1.71875L36.5625 5.15625C36.25 5.54688 35.625 5.54688 35.3125 5.15625L32.5781 1.71875L29.6875 2.89062V7.03125C29.6875 7.5 29.375 7.8125 28.9062 7.8125H24.7656L23.5937 10.7031L27.0312 13.4375C27.1875 13.5938 27.3437 13.8281 27.3437 14.0625C27.3437 14.2969 27.2656 14.5312 27.0312 14.6875L23.5937 17.4219L24.7656 20.3125H28.9062C29.375 20.3125 29.6875 20.625 29.6875 21.0938V25.2344L32.5781 26.4062L35.3125 22.9688C35.4687 22.7344 35.7031 22.6562 35.9375 22.6562Z" fill="#3C3C3C"/>
<path d="M35.9375 21.0938C32.0312 21.0938 28.9062 17.9688 28.9062 14.0625C28.9062 10.1562 32.0312 7.03125 35.9375 7.03125C39.8438 7.03125 42.9688 10.1562 42.9688 14.0625C42.9688 17.9688 39.8438 21.0938 35.9375 21.0938ZM35.9375 8.59375C32.8906 8.59375 30.4688 11.0156 30.4688 14.0625C30.4688 17.1094 32.8906 19.5312 35.9375 19.5312C38.9844 19.5312 41.4062 17.1094 41.4062 14.0625C41.4062 11.0156 38.9844 8.59375 35.9375 8.59375Z" fill="#3C3C3C"/>
<path d="M17.1875 50C16.9531 50 16.7188 49.9219 16.5625 49.6875L14.0625 46.5625L11.5625 49.6875C11.3281 49.9219 11.0156 50.0781 10.625 49.9219L6.71875 48.3594C6.40625 48.2813 6.25 47.9688 6.25 47.6563V43.75H2.34375C2.03125 43.75 1.71875 43.5938 1.64062 43.2813L0.078125 39.375C-0.078125 39.0625 0.078125 38.6719 0.3125 38.4375L3.4375 35.9375L0.3125 33.4375C0 33.2031 -0.078125 32.8125 0.078125 32.5L1.64062 28.5938C1.71875 28.2813 2.03125 28.125 2.34375 28.125H6.25V24.2188C6.25 23.9063 6.40625 23.5938 6.71875 23.5156L10.625 21.9531C10.9375 21.7969 11.3281 21.9531 11.5625 22.1875L14.0625 25.3125L16.5625 22.1875C16.7969 21.9531 17.1094 21.7969 17.5 21.9531L21.4062 23.5156C21.7188 23.6719 21.875 23.9063 21.875 24.2188V28.125H25.7812C26.0938 28.125 26.4063 28.2813 26.4844 28.5938L28.0469 32.5C28.2031 32.8125 28.0469 33.2031 27.8125 33.4375L24.6875 35.9375L27.8125 38.4375C28.0469 38.6719 28.2031 38.9844 28.0469 39.375L26.4844 43.2813C26.4063 43.5938 26.0938 43.75 25.7812 43.75H21.875V47.6563C21.875 47.9688 21.7188 48.2813 21.4062 48.3594L17.5 49.9219C17.4219 50 17.2656 50 17.1875 50ZM14.0625 44.5313C14.2969 44.5313 14.5312 44.6094 14.6875 44.8438L17.4219 48.2813L20.3125 47.1094V42.9688C20.3125 42.5 20.625 42.1875 21.0938 42.1875H25.2344L26.4062 39.2969L22.9688 36.5625C22.7344 36.4063 22.6562 36.1719 22.6562 35.9375C22.6562 35.7031 22.7344 35.4688 22.9688 35.3125L26.4062 32.5781L25.2344 29.6875H21.0938C20.625 29.6875 20.3125 29.375 20.3125 28.9063V24.7656L17.4219 23.5938L14.6875 27.0313C14.375 27.4219 13.75 27.4219 13.4375 27.0313L10.7031 23.5938L7.8125 24.7656V28.9063C7.8125 29.375 7.5 29.6875 7.03125 29.6875H2.89062L1.71875 32.5781L5.15625 35.3125C5.39062 35.4688 5.46875 35.7031 5.46875 35.9375C5.46875 36.1719 5.39062 36.4063 5.15625 36.5625L1.71875 39.2969L2.89062 42.1875H7.03125C7.5 42.1875 7.8125 42.5 7.8125 42.9688V47.1094L10.7031 48.2813L13.4375 44.8438C13.5938 44.6094 13.8281 44.5313 14.0625 44.5313Z" fill="#3C3C3C"/>
</svg>
