<svg width="50" height="50" viewBox="0 0 50 50" fill="none" xmlns="http://www.w3.org/2000/svg">
<path d="M34.375 31.25C43.0044 31.25 50 24.2544 50 15.625C50 6.99553 43.0044 -1.52588e-05 34.375 -1.52588e-05C25.7456 -1.52588e-05 18.75 6.99553 18.75 15.625C18.75 24.2544 25.7456 31.25 34.375 31.25Z" fill="#FFEC40"/>
<path d="M49.2188 50H7.03125C6.5625 50 6.25 49.6875 6.25 49.2187V46.0937H7.8125V48.4375H48.4375V29.6875H46.0938V28.125H49.2188C49.6875 28.125 50 28.4375 50 28.9062V49.2187C50 49.6875 49.6875 50 49.2188 50Z" fill="#3C3C3C"/>
<path d="M46.0938 46.875H3.90625C3.4375 46.875 3.125 46.5625 3.125 46.0937V42.9687H4.6875V45.3125H45.3125V26.5625H42.9688V25H46.0938C46.5625 25 46.875 25.3125 46.875 25.7812V46.0937C46.875 46.5625 46.5625 46.875 46.0938 46.875Z" fill="#3C3C3C"/>
<path d="M42.9688 43.75H0.78125C0.3125 43.75 0 43.4375 0 42.9687V22.6562C0 22.1875 0.3125 21.875 0.78125 21.875H42.9688C43.4375 21.875 43.75 22.1875 43.75 22.6562V42.9687C43.75 43.4375 43.4375 43.75 42.9688 43.75ZM1.5625 42.1875H42.1875V23.4375H1.5625V42.1875Z" fill="#3C3C3C"/>
<path d="M37.5 40.625H6.25C6.01562 40.625 5.85938 40.5469 5.70312 40.3906L3.35938 38.0469C3.20313 37.8906 3.125 37.7344 3.125 37.5V28.125C3.125 27.8906 3.20313 27.7344 3.35938 27.5781L5.70312 25.2344C5.85938 25.0781 6.01562 25 6.25 25H37.5C37.7344 25 37.8906 25.0781 38.0469 25.2344L40.3906 27.5781C40.5469 27.7344 40.625 27.8906 40.625 28.125V37.5C40.625 37.7344 40.5469 37.8906 40.3906 38.0469L38.0469 40.3906C37.8906 40.5469 37.7344 40.625 37.5 40.625ZM6.5625 39.0625H37.1875L39.0625 37.1875V28.4375L37.1875 26.5625H6.5625L4.6875 28.4375V37.1875L6.5625 39.0625Z" fill="#3C3C3C"/>
<path d="M14.0625 32.0312H12.5V33.5937H14.0625V32.0312Z" fill="#3C3C3C"/>
<path d="M10.9375 32.0312H9.375V33.5937H10.9375V32.0312Z" fill="#3C3C3C"/>
<path d="M34.375 32.0312H32.8125V33.5937H34.375V32.0312Z" fill="#3C3C3C"/>
<path d="M31.25 32.0312H29.6875V33.5937H31.25V32.0312Z" fill="#3C3C3C"/>
<path d="M21.875 37.5C19.2969 37.5 17.1875 35.3906 17.1875 32.8125C17.1875 30.2344 19.2969 28.125 21.875 28.125C24.4531 28.125 26.5625 30.2344 26.5625 32.8125C26.5625 35.3906 24.4531 37.5 21.875 37.5ZM21.875 29.6875C20.1562 29.6875 18.75 31.0937 18.75 32.8125C18.75 34.5312 20.1562 35.9375 21.875 35.9375C23.5938 35.9375 25 34.5312 25 32.8125C25 31.0937 23.5938 29.6875 21.875 29.6875Z" fill="#3C3C3C"/>
<path d="M17.9687 20.3125C17.7344 20.3125 17.5781 20.2344 17.4219 20.0781L14.2969 16.9531L15.3906 15.8594L17.9687 18.4375L20.5469 15.8594L21.6406 16.9531L18.5156 20.0781C18.3594 20.2344 18.2031 20.3125 17.9687 20.3125Z" fill="#3C3C3C"/>
<path d="M32.0312 20.3125C31.7969 20.3125 31.6406 20.2344 31.4844 20.0781L28.3594 16.9531L29.4531 15.8594L32.0312 18.4375L34.6094 15.8594L35.7031 16.9531L32.5781 20.0781C32.4219 20.2344 32.2656 20.3125 32.0312 20.3125Z" fill="#3C3C3C"/>
<path d="M27.5781 7.57811L25 4.99998L22.4219 7.57811L21.3281 6.48436L24.4531 3.35936C24.7656 3.04686 25.2344 3.04686 25.5469 3.35936L28.6719 6.48436L27.5781 7.57811Z" fill="#3C3C3C"/>
<path d="M18.75 19.5312H17.1875V11.7187H0V10.1562H17.9688C18.4375 10.1562 18.75 10.4687 18.75 10.9375V19.5312Z" fill="#3C3C3C"/>
<path d="M32.8125 19.5312H31.25V10.9375C31.25 10.4687 31.5625 10.1562 32.0312 10.1562H50V11.7187H32.8125V19.5312Z" fill="#3C3C3C"/>
<path d="M25.7812 3.90623H24.2188V20.3125H25.7812V3.90623Z" fill="#3C3C3C"/>
</svg>
