<?xml version="1.0" encoding="utf-8"?>
<!-- Generator: Adobe Illustrator 21.1.0, SVG Export Plug-In . SVG Version: 6.00 Build 0)  -->
<svg version="1.1" id="Layer_1" xmlns="http://www.w3.org/2000/svg" xmlns:xlink="http://www.w3.org/1999/xlink" x="0px" y="0px"
	 viewBox="0 0 53 53" style="enable-background:new 0 0 53 53;" xml:space="preserve">
<style type="text/css">
	.st0{fill:#A00067;}
</style>
<g>
	<g>
		<g>
			<g>
				<path class="st0" d="M30.3,25.1c0.2,0.3,0.5,0.5,0.8,0.5c0.1,0,0.3,0,0.4-0.1c0.1,0,5.1-2.6,7.6-3.4c0.5-0.1,0.7-0.6,0.6-1.1
					s-0.6-0.7-1.1-0.6c-2.6,0.8-7.6,3.4-7.9,3.5C30.3,24.2,30.1,24.7,30.3,25.1z"/>
				<path class="st0" d="M31.1,15.3c0.1,0,0.3,0,0.4-0.1c0.1,0,5.1-2.6,7.6-3.4c0.5-0.1,0.7-0.6,0.6-1.1s-0.6-0.7-1.1-0.6
					c-2.6,0.8-7.6,3.4-7.9,3.5c-0.4,0.2-0.6,0.7-0.4,1.2C30.4,15.1,30.8,15.3,31.1,15.3z"/>
				<path class="st0" d="M51.7,13.5c-0.5,0-0.9,0.4-0.9,0.9v33.5c0,1.4-1.2,2.6-2.6,2.6H27.6v-2c1.3-0.4,4.5-1.5,7.7-1.5
					c7.5,0,12.6,1.7,12.6,1.7c0.3,0.1,0.5,0,0.8-0.1c0.2-0.2,0.4-0.4,0.4-0.7V10.1c0-0.4-0.3-0.8-0.7-0.8c0,0-0.7-0.2-1.8-0.4
					c-0.5-0.1-0.9,0.2-1,0.7s0.2,0.9,0.7,1c0.4,0.1,0.8,0.2,1.1,0.2v36c-1.9-0.5-6.3-1.4-12-1.4c-3.7,0-7.4,1.2-8.6,1.6
					c-1-0.4-4.1-1.6-7.8-1.6c-5.9,0-10.8,1-12.9,1.5v-36c1.7-0.4,6.8-1.5,12.9-1.5c3.1,0,5.8,1,6.9,1.4v33.8c0,0.3,0.2,0.6,0.4,0.7
					c0.3,0.2,0.6,0.1,0.9,0c0.1-0.1,8.6-5.1,16.1-7.7c0.4-0.1,0.6-0.4,0.6-0.8V1.6c0-0.3-0.1-0.5-0.4-0.7c-0.2-0.2-0.5-0.2-0.8-0.1
					c-6.9,2.6-13.8,6.9-13.9,6.9c-0.4,0.3-0.5,0.8-0.3,1.2c0.3,0.4,0.8,0.5,1.2,0.3c0.1,0,6.1-3.8,12.4-6.3v33.3
					c-5.9,2-12,5.4-14.6,6.9V10.2c0-0.3-0.2-0.6-0.5-0.8c-0.1-0.1-3.7-1.8-8.1-1.8c-7.8,0-13.7,1.7-14,1.8c-0.4,0.1-0.6,0.4-0.6,0.8
					v37.7c0,0.3,0.1,0.5,0.3,0.7c0.2,0.1,0.3,0.2,0.5,0.2c0.1,0,0.2,0,0.2,0c0.1,0,6-1.7,13.5-1.7c3.1,0,5.8,1,6.9,1.4v2H5.1
					c-1.4,0-2.6-1.2-2.6-2.6V14.4c0-0.5-0.4-0.9-0.9-0.9s-0.9,0.4-0.9,0.9v33.5c0,2.4,1.9,4.3,4.3,4.3h42.9c2.4,0,4.3-1.9,4.3-4.3
					V14.4C52.5,13.9,52.2,13.5,51.7,13.5z"/>
				<path class="st0" d="M30.3,19.9c0.2,0.3,0.5,0.5,0.8,0.5c0.1,0,0.3,0,0.4-0.1c0.1,0,5.1-2.6,7.6-3.4c0.5-0.1,0.7-0.6,0.6-1.1
					s-0.6-0.7-1.1-0.6C36,16,31,18.6,30.7,18.7C30.3,19,30.1,19.5,30.3,19.9z"/>
				<path class="st0" d="M30.3,30.3c0.2,0.3,0.5,0.5,0.8,0.5c0.1,0,0.3,0,0.4-0.1c0.1,0,5.1-2.6,7.6-3.4c0.5-0.1,0.7-0.6,0.6-1.1
					s-0.6-0.7-1.1-0.6C36,26.4,31,29,30.7,29.1C30.3,29.3,30.1,29.8,30.3,30.3z"/>
				<path class="st0" d="M21.8,16.6c-5.3-1.2-11.3,0.3-11.6,0.4c-0.5,0.1-0.7,0.6-0.6,1.1c0.1,0.4,0.5,0.6,0.8,0.6
					c0.1,0,0.1,0,0.2,0s5.9-1.5,10.7-0.4c0.5,0.1,0.9-0.2,1-0.6C22.6,17.2,22.3,16.7,21.8,16.6z"/>
				<path class="st0" d="M21.8,21.8c-5.3-1.2-11.3,0.3-11.6,0.4c-0.5,0.1-0.7,0.6-0.6,1.1c0.1,0.4,0.5,0.6,0.8,0.6
					c0.1,0,0.1,0,0.2,0s5.9-1.5,10.7-0.4c0.5,0.1,0.9-0.2,1-0.6C22.6,22.3,22.3,21.9,21.8,21.8z"/>
				<path class="st0" d="M30.3,35.4c0.2,0.3,0.5,0.5,0.8,0.5c0.1,0,0.3,0,0.4-0.1c0.1,0,5.1-2.6,7.6-3.4c0.5-0.1,0.7-0.6,0.6-1.1
					s-0.6-0.7-1.1-0.6c-2.6,0.8-7.6,3.4-7.9,3.5C30.3,34.5,30.1,35,30.3,35.4z"/>
				<path class="st0" d="M21.8,26.9c-5.3-1.2-11.3,0.3-11.6,0.4c-0.5,0.1-0.7,0.6-0.6,1.1c0.1,0.4,0.5,0.6,0.8,0.6
					c0.1,0,0.1,0,0.2,0s5.9-1.5,10.7-0.4c0.5,0.1,0.9-0.2,1-0.6C22.6,27.5,22.3,27,21.8,26.9z"/>
				<path class="st0" d="M21.8,37.2c-5.3-1.2-11.3,0.3-11.6,0.4c-0.5,0.1-0.7,0.6-0.6,1.1c0.1,0.4,0.5,0.6,0.8,0.6
					c0.1,0,0.1,0,0.2,0s5.9-1.5,10.7-0.4c0.5,0.1,0.9-0.2,1-0.6C22.6,37.8,22.3,37.3,21.8,37.2z"/>
				<path class="st0" d="M21.8,32.1c-5.3-1.2-11.3,0.3-11.6,0.4c-0.5,0.1-0.7,0.6-0.6,1.1c0.1,0.4,0.5,0.6,0.8,0.6
					c0.1,0,0.1,0,0.2,0s5.9-1.5,10.7-0.4c0.5,0.1,0.9-0.2,1-0.6C22.6,32.6,22.3,32.2,21.8,32.1z"/>
			</g>
		</g>
	</g>
</g>
</svg>
