<svg width="50" height="34" viewBox="0 0 50 34" fill="none" xmlns="http://www.w3.org/2000/svg">
<g clip-path="url(#clip0)">
<path d="M42.7765 7.66092C39.5034 4.41685 35.6659 2.0677 32.0542 1.06092C28.2731 -0.00179201 25.1693 0.501598 23.1941 2.45923L18.6795 6.9338C17.5508 8.05245 16.93 9.56261 16.8172 11.3524C16.7043 11.3524 16.6479 11.3524 16.535 11.3524C6.94131 11.2965 0 14.205 0 18.1762V25.5592C0 29.5304 6.94131 32.4389 16.4786 32.4389C21.219 32.4389 25.7901 31.7118 29.0632 30.4253C32.2799 32.4389 35.553 33.5016 38.3183 33.5016C40.4063 33.5016 42.2122 32.8863 43.5102 31.5999L48.0248 27.1253C52.0316 23.1541 49.6614 14.4846 42.7765 7.66092ZM23.9842 3.18634L46.7269 26.7338C45.0339 27.9643 42.5508 28.188 39.5598 27.3491C36.1174 26.3982 32.4492 24.1609 29.2889 21.0287C22.8555 14.7084 20.4853 6.71007 23.9842 3.18634ZM16.4786 12.4152C16.5914 12.4152 16.6479 12.4152 16.7607 12.4152C16.8736 15.7711 18.5666 19.8541 21.5576 23.6575C19.921 23.8253 18.228 23.9372 16.535 23.9372C6.94131 23.9372 1.1851 21.0287 1.1851 18.1762C1.12867 15.3236 6.88488 12.4152 16.4786 12.4152ZM16.4786 31.3202C6.88488 31.3202 1.12867 28.4118 1.12867 25.5592V20.805C3.44244 23.3779 9.19865 25.0558 16.4786 25.0558C18.5102 25.0558 20.4853 24.944 22.4041 24.6643C22.912 25.2236 23.4199 25.783 23.9278 26.3423C25.2257 27.6287 26.5237 28.6914 27.9345 29.6423C24.8307 30.705 20.7675 31.3202 16.4786 31.3202ZM42.7765 30.7609C41.14 32.383 38.3747 32.7745 35.0451 31.8796C31.6027 30.9287 27.9345 28.6914 24.7743 25.5592C18.3409 19.183 15.9707 11.1287 19.4695 7.66092L21.4447 5.70329C20.5418 10.1219 23.1377 16.5541 28.4424 21.8677C33.8036 27.1253 40.237 29.6982 44.7517 28.8033L42.7765 30.7609ZM47.5169 26.0067L24.8307 2.51516C26.5237 1.45245 28.8939 1.34058 31.7156 2.12363C35.158 3.07448 38.8262 5.31177 41.9865 8.44397C45.1467 11.5762 47.4041 15.1558 48.3634 18.6236C49.2664 21.7558 48.9278 24.3287 47.5169 26.0067Z" fill="#7E8284"/>
</g>
<defs>
<clipPath id="clip0">
<rect width="50" height="33" fill="white" transform="translate(0 0.5)"/>
</clipPath>
</defs>
</svg>
