<svg width="27" height="55" viewBox="0 0 27 55" fill="none" xmlns="http://www.w3.org/2000/svg">
<path d="M5.18226 23.7423C5.18226 22.7513 5.18226 21.8558 5.18226 20.8647C4.92434 20.8647 4.67814 20.8528 4.43194 20.8647C3.90438 20.9005 3.68163 20.6617 3.69335 20.1244C3.70508 19.1334 3.69335 18.1304 3.69335 17.1394C3.69335 17.0081 3.66991 16.8767 3.65818 16.6857C2.6734 16.6857 1.72378 16.6737 0.774161 16.6976C0.234873 16.7096 -0.0113244 16.5185 0.000399258 15.9335C0.0355703 14.8947 0.0121229 13.8678 0.0121229 12.829C0.0121229 12.0887 0.0707412 12.029 0.832779 12.029C3.08372 12.029 5.32294 12.029 7.57389 12.029C7.78491 12.029 7.99594 12.029 8.27731 12.029C8.28903 11.7783 8.31248 11.5753 8.31248 11.3604C8.31248 9.72461 8.31248 8.10075 8.31248 6.46496C8.3242 4.69782 8.91038 3.15755 10.1648 1.90384C12.0875 -0.018521 14.9481 0.0411795 16.8121 2.03518C18.0079 3.31277 18.4886 4.87692 18.5003 6.60824C18.5121 8.18433 18.5003 9.74849 18.5003 11.3246C18.5003 11.5395 18.5238 11.7544 18.5355 12.029C18.7934 12.029 19.0045 12.029 19.2155 12.029C21.525 12.029 23.8229 12.041 26.1324 12.0171C26.6835 12.0171 26.9179 12.1962 26.8945 12.7813C26.871 13.8201 26.8828 14.8469 26.8828 15.8857C26.8828 16.614 26.8007 16.6857 26.0621 16.6857C25.1125 16.6857 24.1511 16.6857 23.1077 16.6857C23.1077 17.4857 23.1077 18.2498 23.1077 19.014C23.1077 19.3722 23.0843 19.7304 23.1077 20.0886C23.1429 20.6498 22.9084 20.9005 22.3457 20.8647C22.0761 20.8408 21.8064 20.8647 21.5133 20.8647C21.5133 21.8438 21.5133 22.7513 21.5133 23.7423C22.2519 23.7423 22.9671 23.7423 23.6822 23.7423C24.5849 23.7423 25.4759 23.7542 26.3786 23.7423C26.789 23.7423 26.9883 23.9214 26.9883 24.3512C26.9883 25.6646 26.9766 26.9781 26.9883 28.2915C26.9883 28.8168 26.7069 28.9124 26.2731 28.9124C24.6904 28.9004 23.1077 28.9124 21.525 28.9124C21.3375 28.9124 21.1499 28.9124 20.9154 28.9124C20.974 29.7601 21.3375 30.3571 21.9354 30.775C22.5685 31.2287 23.2719 31.5869 23.9518 31.981C24.3973 32.2317 24.8546 32.4466 25.2883 32.7212C26.4255 33.4615 27 34.4764 27 35.8973C26.9766 41.8077 26.9883 47.718 26.9883 53.6284C26.9883 54.4164 26.9179 54.5 26.1676 54.5C17.7031 54.5 9.25037 54.5 0.785885 54.5C0.105912 54.5 0.0238466 54.4045 0.0238466 53.7C0.0238466 47.6941 0.0238466 41.6763 0.0238466 35.6705C0.0238466 34.4167 0.586583 33.4735 1.58309 32.8406C2.45065 32.2795 3.40026 31.8377 4.30298 31.3243C5.20571 30.8228 5.9443 30.178 6.10843 28.9601C5.88568 28.9482 5.68638 28.9243 5.48707 28.9124C3.92783 28.9124 2.35686 28.9124 0.797608 28.9124C0.105912 28.9124 0.0355703 28.8288 0.0355703 28.1124C0.0355703 26.9422 0.0355703 25.7602 0.0355703 24.59C0.0355703 23.802 0.0824649 23.7542 0.879674 23.7542C2.27479 23.7423 3.70508 23.7423 5.18226 23.7423ZM0.914845 50.3926C9.26209 50.3926 17.5507 50.3926 25.8745 50.3926C25.8745 45.6763 25.8745 40.9957 25.8745 36.2913C17.539 36.2913 9.23865 36.2913 0.914845 36.2913C0.914845 40.9838 0.914845 45.6524 0.914845 50.3926ZM19.7079 28.984C19.6258 28.9482 19.6141 28.9362 19.5906 28.9362C15.5108 28.9243 11.431 28.9124 7.35114 28.9243C7.21045 28.9243 6.9877 29.1392 6.95253 29.2825C6.75323 30.3452 6.16705 31.1571 5.2995 31.7183C4.49056 32.2436 3.62301 32.6496 2.80236 33.1511C2.32169 33.4377 1.84101 33.76 1.43069 34.1541C1.17277 34.4048 1.04381 34.7988 0.809332 35.2167C9.23865 35.2167 17.4921 35.2167 25.7925 35.2167C25.6166 34.2615 24.9835 33.76 24.2684 33.3421C23.5415 32.9242 22.7795 32.5541 22.0409 32.1481C20.8099 31.4437 19.872 30.5004 19.7079 28.984ZM0.973463 27.8736C9.30899 27.8736 17.539 27.8736 25.769 27.8736C25.769 26.8109 25.769 25.784 25.769 24.7453C25.5463 24.7333 25.3704 24.7214 25.2063 24.7214C18.8169 24.7214 12.4392 24.7214 6.04981 24.7214C4.54918 24.7214 3.03683 24.7214 1.5362 24.7214C1.30173 24.7214 0.985187 24.6259 0.985187 25.0438C0.973463 25.987 0.973463 26.9184 0.973463 27.8736ZM17.3514 12.0052C17.3514 9.84401 17.3983 7.76643 17.328 5.67691C17.2928 4.65006 16.8356 3.71873 16.1673 2.93069C14.655 1.11579 12.2282 1.04415 10.6103 2.75158C9.91862 3.47993 9.37933 4.3635 9.32071 5.36647C9.18003 7.53957 9.18003 9.72461 9.12141 11.9096C9.12141 11.9335 9.1683 11.9693 9.20348 12.0052C11.8999 12.0052 14.6081 12.0052 17.3514 12.0052ZM25.8745 15.6469C25.8745 14.7394 25.8745 13.8917 25.8745 13.0678C17.5507 13.0678 9.28554 13.0678 1.00863 13.0678C1.00863 13.9514 1.00863 14.7753 1.00863 15.6469C9.30899 15.6469 17.5742 15.6469 25.8745 15.6469ZM22.0761 16.7334C16.2728 16.7334 10.5048 16.7334 4.74848 16.7334C4.74848 17.7961 4.74848 18.811 4.74848 19.814C10.5517 19.814 16.308 19.814 22.0761 19.814C22.0761 18.7633 22.0761 17.7603 22.0761 16.7334ZM0.903121 53.4373C9.27382 53.4373 17.5742 53.4373 25.8863 53.4373C25.8863 52.7567 25.8863 52.1239 25.8863 51.4792C17.5507 51.4792 9.23865 51.4792 0.903121 51.4792C0.903121 52.1359 0.903121 52.7687 0.903121 53.4373ZM6.22567 23.6945C11.0206 23.6945 15.757 23.6945 20.4699 23.6945C20.4699 22.7393 20.4699 21.8319 20.4699 20.9125C15.6984 20.9125 10.962 20.9125 6.19049 20.9125C6.19049 21.7244 6.19049 22.5005 6.19049 23.2647C6.20222 23.396 6.21394 23.5393 6.22567 23.6945Z" fill="#7E8284"/>
<path d="M8.59384 46.6554C6.87046 46.6554 5.68637 45.5688 5.75671 44.0405C5.75671 43.9569 5.74499 43.8733 5.78016 43.8017C6.55392 42.3211 7.30424 40.8286 8.1249 39.3719C8.34765 38.9779 8.79314 39.0376 9.07451 39.3958C9.40277 39.8137 9.70759 40.2435 9.97723 40.7092C10.3524 41.3778 10.7041 42.0704 11.0324 42.7629C12.0406 44.924 10.962 46.6554 8.59384 46.6554ZM8.65246 40.3629C8.55867 40.351 8.46488 40.351 8.37109 40.339C7.84353 41.4734 7.2339 42.5838 6.80012 43.7659C6.44841 44.6852 7.03459 45.4613 7.99593 45.5927C8.23041 45.6285 8.46488 45.6285 8.69935 45.6166C10.0007 45.5688 10.6103 44.7449 10.1414 43.5032C9.73104 42.4286 9.15658 41.4137 8.65246 40.3629Z" fill="#7E8284"/>
</svg>
