<svg width="30" height="55" viewBox="0 0 30 55" fill="none" xmlns="http://www.w3.org/2000/svg">
<path d="M23.9538 7.70398C24.4282 8.30133 24.781 8.75531 25.146 9.20929C26.6423 11.0969 28.1508 12.9726 29.6229 14.8721C29.8297 15.1469 29.9878 15.5412 29.9878 15.8757C30 27.4164 30 38.969 30 50.5097C30 52.5527 28.7956 54.058 26.8856 54.4403C26.5937 54.5 26.2774 54.5 25.9732 54.5C18.6496 54.5 11.3382 54.5 4.0146 54.5C1.67883 54.5 0 52.8633 0 50.5575C0 38.969 0 27.3925 0.0121654 15.804C0.0121654 15.4934 0.158151 15.1469 0.352798 14.896C2.0438 12.7336 3.75912 10.5951 5.46229 8.44469C5.62044 8.24159 5.77859 8.0385 6.03406 7.71593C5.08516 7.71593 4.27007 7.71593 3.44282 7.71593C2.68856 7.71593 2.60341 7.62035 2.60341 6.89159C2.60341 5.03982 2.60341 3.18805 2.60341 1.33628C2.60341 0.607522 2.70073 0.511947 3.44282 0.511947C11.1922 0.5 18.9294 0.5 26.6788 0.5C27.5547 0.5 27.6034 0.547788 27.6034 1.41991C27.6034 3.27168 27.5912 5.12345 27.6156 6.97522C27.6156 7.52478 27.3966 7.72788 26.8613 7.71593C25.9489 7.69204 25.0365 7.70398 23.9538 7.70398ZM28.9659 33.4376C28.9659 27.6673 28.9781 21.8969 28.9538 16.1146C28.9538 15.792 28.82 15.4097 28.6253 15.1469C26.764 12.7695 24.8662 10.404 22.9927 8.02655C22.7616 7.72788 22.5182 7.59646 22.129 7.59646C17.3479 7.60841 12.5669 7.60841 7.77372 7.59646C7.38443 7.59646 7.15328 7.72788 6.90998 8.02655C5.04866 10.392 3.16302 12.7336 1.31387 15.0991C1.09489 15.3739 0.948905 15.7681 0.948905 16.1146C0.93674 27.6075 0.93674 39.0885 0.93674 50.5695C0.93674 52.3735 2.09246 53.5084 3.94161 53.5084C11.2652 53.5084 18.5766 53.5084 25.9002 53.5084C27.8467 53.5084 28.9659 52.4093 28.9659 50.5097C28.9659 44.823 28.9659 39.1243 28.9659 33.4376ZM26.5937 3.51062C26.5937 3.00885 26.5572 2.54292 26.6058 2.10088C26.6545 1.58717 26.4355 1.47965 25.9489 1.47965C18.7348 1.49159 11.5207 1.49159 4.31874 1.49159C4.09976 1.49159 3.89294 1.49159 3.64963 1.49159C3.64963 2.20841 3.64963 2.84159 3.64963 3.52257C11.2774 3.51062 18.8808 3.51062 26.5937 3.51062ZM3.67397 4.69336C3.67397 5.41018 3.67397 6.04336 3.67397 6.67655C11.326 6.67655 18.9294 6.67655 26.545 6.67655C26.545 5.98363 26.545 5.35044 26.545 4.69336C18.8929 4.69336 11.3017 4.69336 3.67397 4.69336Z" fill="#7E8284"/>
<path d="M24.9148 31.1557C24.9148 35.3371 24.9148 39.5185 24.9148 43.6999C24.9148 44.572 24.8662 44.6079 23.9781 44.6079C17.9319 44.6079 11.8978 44.6079 5.85158 44.6079C5.06083 44.6079 4.98783 44.5362 4.98783 43.7477C4.98783 35.3729 4.98783 26.9862 4.98783 18.6114C4.98783 17.799 5.07299 17.7154 5.88808 17.7154C11.91 17.7154 17.9319 17.7154 23.9538 17.7154C24.854 17.7154 24.9148 17.7871 24.9148 18.6712C24.9148 22.8406 24.9148 26.9982 24.9148 31.1557ZM23.8443 43.5924C23.8443 35.3013 23.8443 27.0579 23.8443 18.7787C17.8954 18.7787 11.9951 18.7787 6.05839 18.7787C6.05839 27.0698 6.05839 35.3132 6.05839 43.5924C11.9951 43.5924 17.8954 43.5924 23.8443 43.5924Z" fill="#7E8284"/>
<path d="M21.3869 31.2035C21.3869 34.1902 21.3869 37.1769 21.3869 40.1636C21.3869 40.8924 21.253 41.0477 20.4988 41.0477C16.8127 41.0596 13.1265 41.0596 9.44039 41.0477C8.73479 41.0477 8.63747 40.9402 8.63747 40.2473C8.63747 34.2021 8.63747 28.1451 8.63747 22.0999C8.63747 21.3831 8.72263 21.2995 9.44039 21.2995C13.1509 21.2995 16.8613 21.2995 20.5596 21.2995C21.2895 21.2995 21.3869 21.407 21.3869 22.1358C21.3869 25.1583 21.3869 28.1809 21.3869 31.2035ZM20.3163 22.2911C20.0487 22.2911 19.8418 22.2911 19.6472 22.2911C16.545 22.2911 13.4428 22.303 10.3406 22.2791C9.79319 22.2791 9.62287 22.3986 9.62287 22.972C9.6472 28.4437 9.63504 33.9154 9.63504 39.3871C9.63504 39.6021 9.65937 39.8052 9.65937 40.0203C13.2482 40.0203 16.764 40.0203 20.3041 40.0203C20.3163 34.1065 20.3163 28.2406 20.3163 22.2911Z" fill="#7E8284"/>
</svg>
