<svg width="68" height="107" viewBox="0 0 68 107" fill="none" xmlns="http://www.w3.org/2000/svg">
<path d="M1.87957 32.9267L0 32.5927C3.22211 15.1598 13.3583 5.27453 21.078 2.13527C24.77 0.59904 27.9921 0.59904 30.073 2.06848C32.0869 3.47113 33.0938 3.93867 33.4294 4.07226C33.8322 4.00547 34.9733 3.60471 37.2557 2.06848C39.4037 0.59904 42.8272 0.665832 46.6535 2.26886C51.0839 4.07226 55.5143 7.61227 59.0721 12.1542C63.5025 17.698 66.5232 24.5108 68 32.3924L66.1204 32.7263C64.6436 25.1787 61.7572 18.6331 57.5281 13.2229C54.1718 8.94813 50.0099 5.67528 45.9151 4.00547C42.7601 2.66961 39.8736 2.53603 38.2626 3.6715C35.309 5.67528 33.8993 5.94245 33.4294 6.00925H33.2952H33.1609C32.8253 5.94245 31.6841 5.5417 28.999 3.6715C27.4551 2.60282 24.9042 2.66961 21.8164 3.93867C14.4995 6.81076 4.9003 16.2285 1.87957 32.9267ZM30.7443 40.4743C31.6841 42.1441 33.228 43.2128 35.5104 43.6803H35.7789C35.9803 43.6803 37.5913 43.4799 38.8667 41.8101C40.2764 40.0735 40.7463 37.335 40.3435 33.795C41.2162 33.9954 42.3574 34.5297 42.8272 36.1328L44.6397 35.5984C43.6999 32.2588 40.6792 31.7244 39.2024 31.858L38.3968 32.9267C39.0681 37.335 38.2626 39.5392 37.4571 40.6079C36.7858 41.4762 35.9803 41.7433 35.7117 41.8101C34.1007 41.4762 32.9595 40.7414 32.3554 39.606C31.0128 37.1346 32.4225 33.5278 32.4225 33.461L32.0197 32.2588C31.2142 31.7912 30.2744 31.7244 29.4018 32.0584C27.2537 32.7931 25.9112 35.5316 25.7769 35.7988L27.4551 36.6003C27.7236 35.9992 28.7976 34.1958 30.0059 33.795C30.1402 33.7282 30.2744 33.7282 30.3416 33.7282C30.0059 35.2644 29.4689 38.1365 30.7443 40.4743ZM30.6772 28.5852L30.3416 27.7169C30.2073 27.7837 27.5222 28.7856 24.3001 31.7244C21.4136 34.3961 17.5202 39.3388 15.5735 47.4875L17.386 47.8883C19.1984 40.2071 22.8233 35.5984 25.5084 33.1271C28.3949 30.3886 30.9457 29.4535 30.9457 29.4535L30.6772 28.5852ZM52.9635 48.8902L54.843 48.7566C54.4403 43.3464 51.9566 38.0697 47.7947 33.3275C44.6397 29.7874 41.6861 27.9172 41.5518 27.7837L40.5449 29.3867C40.6792 29.4535 51.9566 36.8675 52.9635 48.8902ZM31.2813 74.8725C31.2813 66.3231 32.4225 58.6419 34.5035 52.0294L32.691 51.4951C30.4758 58.3079 29.4018 66.1895 29.3346 74.9393L31.2813 74.8725ZM31.6841 97.916L33.5637 97.582C32.9595 94.3092 32.0869 89.2329 31.6841 83.2216L29.8045 83.3552C30.1402 89.4333 31.0128 94.6432 31.6841 97.916ZM54.6417 80.7503C54.3731 81.8857 54.1046 83.0212 53.769 84.1567C57.6624 80.8171 61.153 76.5423 63.9052 71.5329L65.5834 72.4012C62.227 78.4793 57.7966 83.6224 52.8292 87.2959C52.5607 88.0307 52.2922 88.8322 52.0237 89.5669L49.7414 90.1012C51.0168 87.1624 52.0908 83.8227 52.8963 80.3495C55.3801 69.7963 54.9102 60.3117 51.7552 54.8347C49.54 50.9607 46.8549 48.6898 43.767 48.0219C39.4709 47.0868 35.846 49.6249 35.846 49.6249L34.772 48.0886C34.9733 47.9551 39.1352 45.083 44.1698 46.1517C47.7947 46.9532 50.8825 49.5581 53.4334 53.8328C54.1046 54.9015 54.5745 56.1706 55.0444 57.5732C60.8174 53.6324 61.69 42.1441 61.7572 41.0754C60.9516 34.5297 59.4748 29.1195 57.461 24.9784C57.1254 25.0452 56.7226 25.0452 56.387 24.9784C55.3129 24.7112 54.4403 23.9097 53.9704 23.3086C53.4334 23.4421 52.9635 23.3753 52.5607 23.2418C51.8223 22.9746 51.2853 22.4402 50.9497 21.9727C50.1441 22.4402 49.4057 22.3735 48.9358 22.2399C48.0632 22.0395 47.3919 21.3716 46.9891 20.7704C46.385 21.1044 45.6466 21.3048 44.9753 21.238C43.6999 21.1712 42.5587 20.3697 41.8875 19.7685C40.8806 20.6368 39.8065 21.0376 38.6653 20.9708C36.92 20.904 35.5775 19.7685 34.772 19.0338C33.5637 20.0357 32.2882 20.4365 31.0128 20.3697C29.7374 20.3029 28.6634 19.7017 27.9921 19.1674C27.3208 20.1025 26.5153 20.6368 25.5755 20.7036C24.5015 20.8372 23.4946 20.3029 22.8233 19.7685C22.4205 20.5033 21.8835 20.9708 21.1451 21.1712C20.2053 21.5052 19.2655 21.238 18.5271 20.904C18.1915 21.8391 17.5874 22.3735 16.9161 22.5738C16.3791 22.7074 15.9092 22.6406 15.4393 22.4402C15.305 22.7742 15.1708 23.175 14.9023 23.4421C13.7611 25.0452 11.4788 25.5795 10.4047 25.7799C8.79368 29.4535 7.45113 34.3961 6.64561 40.9418C6.71273 41.9437 7.51826 53.4321 13.2241 57.3728C13.6269 56.037 14.1639 54.7679 14.768 53.6992C17.1846 49.3577 20.2725 46.7528 23.8302 45.9513C28.7305 44.8826 32.7581 47.7547 32.8924 47.8883L31.7512 49.4245C31.6841 49.4245 28.1935 46.9532 24.1658 47.8215C21.1451 48.4894 18.5271 50.7604 16.3791 54.6343C13.2912 60.1113 12.8884 69.6627 15.2379 80.2159C15.9763 83.5556 16.9832 86.7616 18.1244 89.5669L15.7749 88.6986C15.5735 88.1643 15.3722 87.6299 15.1708 87.0288C10.539 83.6224 6.51135 79.0137 3.28924 73.4699L4.9003 72.5348C7.51826 77.0767 10.6732 80.8839 14.231 83.8895C13.9625 82.8208 13.6269 81.7522 13.4255 80.6167C12.6199 77.1435 12.15 73.737 11.9487 70.531L11.8815 70.5978C7.38401 66.8574 4.36328 60.2449 2.88648 51.0275C1.74531 44.2815 1.87957 38.6709 1.87957 38.4705L3.75913 38.5373C3.75913 38.7377 3.28924 58.7755 11.6802 68.0597C11.6802 64.9204 11.9487 62.0483 12.4857 59.4434C5.37019 55.1019 4.63179 41.6765 4.63179 41.0754V41.0086V40.9418C5.84008 30.8561 8.45805 23.3753 12.4857 18.6999C15.7078 14.8927 19.9368 13.0893 24.233 13.6236C30.0059 14.2915 32.6239 13.824 33.228 13.6904V13.6236C33.228 13.6236 33.2952 13.6236 33.3623 13.6236C34.0336 13.7572 37.1885 14.2915 43.3643 13.5568C47.8618 13.0225 52.1579 14.8927 55.5143 18.6331C59.6091 23.3086 62.3613 30.7893 63.6367 40.875V40.9418V41.0086C63.6367 41.6098 62.8983 55.0351 55.4472 59.3766C56.0513 61.9147 56.3198 64.8536 56.3198 67.9929C65.0464 58.7087 64.5765 38.6041 64.5765 38.4037L66.4561 38.3369C66.4561 38.6041 66.5903 44.1479 65.4492 50.8939C63.9052 60.1113 60.8174 66.7238 56.2527 70.5978L56.1856 70.531C55.9842 73.8706 55.4472 77.2771 54.6417 80.7503ZM56.3198 22.9746C55.6486 21.8391 54.9102 20.8372 54.1046 19.9689C50.3455 15.6942 46.3179 15.1598 43.5656 15.4938C37.8598 16.1617 34.6377 15.761 33.3623 15.5606C32.2211 15.761 29.4018 16.0949 24.0316 15.4938C21.7493 15.2266 15.8421 15.4938 11.3445 23.7093C12.0829 23.4421 12.8213 23.0414 13.2241 22.507C13.5597 22.1063 13.6269 21.5719 13.4926 21.0376L15.1037 20.2361C15.4393 20.6368 16.0434 20.9708 16.2448 20.9708C16.3119 20.9708 16.6476 20.6368 16.849 19.5014L18.3929 18.967C18.7285 19.2342 19.7354 19.8353 20.4067 19.635C20.9437 19.4346 21.2794 18.6999 21.4136 18.0987L23.0918 17.7648C23.3603 18.1655 24.3672 19.1674 25.2399 19.1006C25.9112 19.0338 26.4482 18.2323 26.7838 17.4976L28.3949 17.2972C28.3949 17.2972 29.4689 18.6331 31.0128 18.6999C32.0197 18.7667 33.0266 18.2323 34.1007 17.2304L35.5104 17.364C35.5104 17.364 36.9872 19.2342 38.6653 19.301C39.538 19.301 40.3435 18.9002 41.0819 18.0319H42.4916C42.8272 18.4327 43.9013 19.4346 44.9753 19.5014C45.5123 19.5014 46.0494 19.301 46.5192 18.8334L48.0632 19.1674C48.1974 19.5682 48.6673 20.3697 49.2715 20.5701C49.6742 20.7036 50.2113 20.3697 50.5469 20.0357L52.0237 20.3697C52.1579 20.7036 52.6278 21.4384 53.0977 21.5719C53.232 21.6387 53.4334 21.6387 53.7019 21.4384L54.9773 21.7723C54.9773 21.6387 55.5814 22.5738 56.3198 22.9746ZM49.8085 95.2443L49.4728 95.3779L49.1372 96.1126C43.8342 108.068 34.5706 104.595 34.1678 104.462L33.8322 104.328L33.4965 104.462C24.3001 107.868 18.9299 97.582 17.9901 95.5115L17.8559 95.1775L17.5202 95.0439C12.0158 92.8397 6.84699 89.5001 2.61797 85.4258L1.34255 86.7616C5.70582 90.9695 10.9418 94.376 16.5133 96.6469C17.1175 97.916 18.7957 100.922 21.4136 103.326C24.0316 105.731 26.9181 107 29.9388 107C31.2142 107 32.5568 106.799 33.8993 106.332C34.772 106.599 37.1214 107.2 40.0079 106.733C43.2971 106.198 47.7947 103.994 50.9497 96.9141C56.1856 94.8435 61.0187 91.9046 65.2478 88.0975L63.9724 86.6948C59.7433 90.4352 54.9773 93.3073 49.8085 95.2443Z" fill="#7E8284"/>
<path d="M44.5135 42.9369C45.1261 42.7838 45.5856 43.0901 45.8919 43.5495L47.5766 46L49.2613 43.5495C49.5676 43.0901 50.1802 42.7838 50.6396 42.9369L53.5495 43.5495L52.9369 40.6396C52.9369 40.027 53.0901 39.5676 53.5495 39.2613L56 37.5766L53.5495 35.8919C53.0901 35.5856 52.9369 34.973 52.9369 34.5135L53.5495 31.6036L50.6396 32.0631C50.027 32.2162 49.5676 31.9099 49.2613 31.4505L47.5766 29L45.8919 31.4505C45.5856 31.9099 44.973 32.2162 44.5135 32.0631L41.4505 31.4505L42.0631 34.5135C42.2162 35.1261 41.9099 35.5856 41.4505 35.8919L39 37.5766L41.4505 39.2613C41.9099 39.5676 42.2162 40.027 42.0631 40.6396L41.4505 43.5495L44.5135 42.9369Z" fill="#FF0000"/>
</svg>
