<svg width="96" height="85" viewBox="0 0 96 85" fill="none" xmlns="http://www.w3.org/2000/svg">
<path d="M94.3282 77.8273C93.3876 80.7768 91.3719 82.8549 88.4155 84.0615C86.9373 84.6648 85.3247 85 83.5105 85C80.2182 85 76.7914 84.7989 70.0723 84.0615C64.2939 83.4582 60.0609 78.0954 58.9187 73.0678C56.9029 64.6214 55.156 55.3036 55.2904 44.9132C55.2904 44.7121 55.2904 44.511 55.2904 44.2429C55.4247 41.4274 54.1481 38.7461 51.9308 37.0702C50.7886 36.1987 49.3776 35.6625 47.8994 35.6625C46.4212 35.6625 45.0102 36.1317 43.8679 37.0702C41.6506 38.8131 40.4412 41.4945 40.5084 44.2429C40.5084 44.444 40.5084 44.7121 40.5084 44.9132C40.7099 55.3036 38.8958 64.6214 36.8801 73.0678C35.7378 78.0284 31.5048 83.4582 25.7264 84.0615C19.1417 84.7989 15.7821 85 12.4898 85C12.4226 85 12.3554 85 12.2882 85C10.4741 85 8.86147 84.6648 7.38328 84.0615C4.42688 82.8549 2.47834 80.7098 1.47048 77.8273C-1.75468 68.1073 7.38328 52.3541 8.32395 50.7453C13.7664 31.9085 20.2839 24.1995 24.8529 21.1159C26.4655 20.0434 28.4812 19.6412 30.4297 20.0434C32.3783 20.4456 33.9909 21.5852 34.9987 23.194C35.9394 24.7358 36.8801 26.6798 37.6863 29.026C37.8879 29.5623 38.0895 30.1656 38.2239 30.7019L39.9708 29.4953C42.0538 27.8194 43.1288 25.205 43.1288 21.4511V1.00552C43.1288 0.469243 43.5991 0 44.1367 0C44.6742 0 45.1445 0.469243 45.1445 1.00552V21.4511C45.1445 25.8084 43.8679 28.959 41.2475 31.0371L38.6942 33.0481C38.627 33.1151 38.4926 33.1822 38.3583 33.2492C37.8879 33.4503 37.3504 33.2492 37.1488 32.847C37.0816 32.7129 37.0144 32.6459 37.0144 32.5118C36.7457 31.5063 36.4769 30.5678 36.141 29.6293C35.3347 27.4172 34.5284 25.6073 33.6549 24.1995C32.9158 23.0599 31.7736 22.2555 30.3625 21.9203C28.9515 21.6522 27.4733 21.9203 26.3311 22.7248C22.8372 25.138 16.1181 31.9755 10.6084 51.0804C10.81 51.3486 13.0945 54.2981 18.2682 54.5662C18.8057 54.5662 19.2089 55.0355 19.2089 55.5718C19.2089 56.108 18.7385 56.5103 18.201 56.5103H18.1338C13.4976 56.2421 10.81 54.164 9.60057 52.9574C8.45833 55.0355 6.30822 59.1916 4.83002 63.817C5.97227 65.0907 10.2053 69.2468 19.3432 69.2468C19.8808 69.2468 20.3511 69.7161 20.3511 70.2524C20.3511 70.7886 19.8808 71.2579 19.3432 71.2579C10.9444 71.2579 6.24103 67.9732 4.15811 66.0292C3.08306 69.9842 2.54553 74.0733 3.62059 77.291C4.42688 79.7043 5.97227 81.3131 8.39114 82.3186C9.60057 82.8549 11.0116 83.056 12.557 83.123C15.7821 83.123 19.1417 82.9219 25.7264 82.1845C30.6313 81.6483 34.1924 77.0229 35.2003 72.7326C37.1488 64.3533 38.963 55.2366 38.7614 45.0473C38.7614 44.8462 38.7614 44.6451 38.7614 44.444C38.627 41.0252 40.1724 37.7405 42.86 35.5954C44.3382 34.4558 46.2196 33.7855 48.1009 33.7855C49.9823 33.7855 51.8636 34.4558 53.3418 35.5954C56.0295 37.6735 57.5748 41.0252 57.4405 44.444C57.4405 44.6451 57.4405 44.8462 57.4405 45.0473C57.2389 55.2366 59.053 64.3533 61.0016 72.7326C62.0094 77.0229 65.5706 81.7153 70.4755 82.1845C77.1274 82.9219 80.4197 83.123 83.6449 83.123C85.1903 83.123 86.6013 82.8549 87.8107 82.3186C90.2296 81.3131 91.775 79.6372 92.5813 77.291C93.6563 74.1404 93.186 70.1183 92.111 66.2303C90.1624 68.1073 85.3919 71.6601 76.657 71.6601C76.1195 71.6601 75.6492 71.1908 75.6492 70.6546C75.6492 70.1183 76.1195 69.6491 76.657 69.6491C86.6013 69.6491 90.8343 64.6885 91.439 63.9511C89.8937 59.2587 87.7435 55.0355 86.6013 52.9574C85.4591 54.164 82.7714 56.2421 78.0681 56.5103H78.0009C77.4633 56.5103 77.0602 56.108 76.993 55.5718C76.993 55.0355 77.3961 54.5662 77.9337 54.5662C83.1746 54.2981 85.3919 51.3486 85.5934 51.0804C80.0838 31.9755 73.3647 25.071 69.8708 22.7248C68.7285 21.9203 67.2503 21.6522 65.8393 21.9203C64.4283 22.1885 63.2861 22.9929 62.547 24.1995C61.6735 25.6073 60.8672 27.4172 60.0609 29.6293C59.725 30.5678 59.4562 31.5063 59.1874 32.5118C59.1874 32.6459 59.1202 32.78 59.053 32.914C58.7843 33.3162 58.3139 33.5173 57.8436 33.3162C57.7092 33.2492 57.642 33.2492 57.5748 33.1822L54.9544 31.1041C52.334 29.026 51.0573 25.8754 51.0573 21.5181V1.00552C50.923 0.469243 51.3933 0 51.9308 0C52.4683 0 52.9387 0.469243 52.9387 1.00552V21.4511C52.9387 25.205 53.9465 27.8194 56.0966 29.4953L57.5748 30.6349C57.7764 30.0315 57.9108 29.4953 58.1124 28.959C58.9187 26.6128 59.8593 24.6688 60.8 23.127C61.8079 21.5181 63.4204 20.3785 65.369 19.9763C67.3175 19.5741 69.3332 19.9763 70.9458 21.0489C75.5148 24.1995 82.0995 31.8415 87.4748 50.6782C88.4155 52.3541 97.5534 68.1073 94.3282 77.8273ZM11.4819 75.1459C12.3554 75.1459 13.0273 75.8162 13.0273 76.6877C13.0273 77.5591 12.3554 78.2295 11.4819 78.2295C10.6084 78.2295 9.93653 77.5591 9.93653 76.6877C9.93653 75.8162 10.6084 75.1459 11.4819 75.1459ZM11.4819 76.2855C11.2803 76.2855 11.0788 76.4866 11.0788 76.6877C11.0788 76.8888 11.2803 77.0899 11.4819 77.0899C11.6835 77.0899 11.8851 76.8888 11.8851 76.6877C11.8851 76.4866 11.6835 76.2855 11.4819 76.2855ZM26.8014 65.0237C25.928 65.0237 25.256 64.3533 25.256 63.4819C25.256 62.6104 25.928 61.9401 26.8014 61.9401C27.6749 61.9401 28.3468 62.6104 28.3468 63.4819C28.3468 64.3533 27.6077 65.0237 26.8014 65.0237ZM27.2046 63.4819C27.2046 63.2808 27.003 63.0797 26.8014 63.0797C26.5999 63.0797 26.3983 63.2808 26.3983 63.4819C26.3983 63.683 26.5999 63.8841 26.8014 63.8841C27.003 63.8841 27.2046 63.683 27.2046 63.4819ZM26.1967 73.336C27.0702 73.336 27.7421 74.0063 27.7421 74.8778C27.7421 75.7492 27.0702 76.4196 26.1967 76.4196C25.3232 76.4196 24.6513 75.7492 24.6513 74.8778C24.6513 74.0733 25.3232 73.336 26.1967 73.336ZM26.1967 74.4755C25.9951 74.4755 25.7936 74.6767 25.7936 74.8778C25.7936 75.0789 25.9951 75.28 26.1967 75.28C26.3983 75.28 26.5999 75.0789 26.5999 74.8778C26.5999 74.6767 26.4655 74.4755 26.1967 74.4755ZM63.4876 59.2587C62.6142 59.2587 61.9422 58.5883 61.9422 57.7169C61.9422 56.8454 62.6142 56.1751 63.4876 56.1751C64.3611 56.1751 65.033 56.8454 65.033 57.7169C65.033 58.5883 64.3611 59.2587 63.4876 59.2587ZM63.4876 58.1191C63.6892 58.1191 63.8908 57.918 63.8908 57.7169C63.8908 57.5158 63.6892 57.3147 63.4876 57.3147C63.2861 57.3147 63.0845 57.5158 63.0845 57.7169C63.0845 57.918 63.2861 58.1191 63.4876 58.1191ZM73.9694 64.6885C73.0959 64.6885 72.424 64.0181 72.424 63.1467C72.424 62.2752 73.0959 61.6049 73.9694 61.6049C74.8429 61.6049 75.5148 62.2752 75.5148 63.1467C75.5148 63.9511 74.8429 64.6885 73.9694 64.6885ZM73.9694 63.5489C74.171 63.5489 74.3726 63.3478 74.3726 63.1467C74.3726 62.9456 74.171 62.7445 73.9694 62.7445C73.7678 62.7445 73.5663 62.9456 73.5663 63.1467C73.5663 63.3478 73.7678 63.5489 73.9694 63.5489ZM67.3847 73.7382C66.5112 73.7382 65.8393 73.0678 65.8393 72.1964C65.8393 71.3249 66.5112 70.6546 67.3847 70.6546C68.2582 70.6546 68.9301 71.3249 68.9301 72.1964C68.9973 73.0008 68.2582 73.7382 67.3847 73.7382ZM67.3847 72.5986C67.5863 72.5986 67.7879 72.3975 67.7879 72.1964C67.7879 71.9953 67.5863 71.7942 67.3847 71.7942C67.1831 71.7942 66.9816 71.9953 66.9816 72.1964C66.9816 72.3975 67.1831 72.5986 67.3847 72.5986ZM78.2024 79.3691C77.329 79.3691 76.657 78.6987 76.657 77.8273C76.657 76.9558 77.329 76.2855 78.2024 76.2855C79.0759 76.2855 79.7478 76.9558 79.7478 77.8273C79.7478 78.6987 79.0759 79.3691 78.2024 79.3691ZM78.2024 78.2295C78.404 78.2295 78.6056 78.0284 78.6056 77.8273C78.6056 77.6262 78.404 77.4251 78.2024 77.4251C78.0009 77.4251 77.7993 77.6262 77.7993 77.8273C77.7993 78.0284 78.0009 78.2295 78.2024 78.2295Z" fill="#7E8284"/>
<path d="M23.5135 44.9369C24.1261 44.7838 24.5856 45.0901 24.8919 45.5495L26.5766 48L28.2613 45.5495C28.5676 45.0901 29.1802 44.7838 29.6396 44.9369L32.5495 45.5495L31.9369 42.6396C31.9369 42.027 32.0901 41.5676 32.5495 41.2613L35 39.5766L32.5495 37.8919C32.0901 37.5856 31.9369 36.973 31.9369 36.5135L32.5495 33.6036L29.6396 34.0631C29.027 34.2162 28.5676 33.9099 28.2613 33.4505L26.5766 31L24.8919 33.4505C24.5856 33.9099 23.973 34.2162 23.5135 34.0631L20.4505 33.4505L21.0631 36.5135C21.2162 37.1261 20.9099 37.5856 20.4505 37.8919L18 39.5766L20.4505 41.2613C20.9099 41.5676 21.2162 42.027 21.0631 42.6396L20.4505 45.5495L23.5135 44.9369Z" fill="#FF0000"/>
</svg>
