<svg width="108" height="85" viewBox="0 0 108 85" fill="none" xmlns="http://www.w3.org/2000/svg">
<path fill-rule="evenodd" clip-rule="evenodd" d="M18.5469 72C18.8802 75.236 18.0802 77.7978 16.0802 79.7528L14.7469 78.4045C16.2802 76.9214 16.8802 74.8315 16.6136 72.2022C16.5469 71.3933 16.3469 70.6517 16.2136 70.1124C8.74689 70.5843 3.74689 69.0337 1.41356 65.4607C-1.85311 60.5393 1.54689 54.2697 1.68023 54L1.74689 53.8652C2.21356 53.0562 13.8136 34.4494 20.0136 28.2472C23.7469 24.4719 24.0802 22.1798 24.0802 21.5056C19.4136 11.7303 24.1469 0.47191 24.3469 0L26.0802 0.741573C25.8802 1.21348 21.4136 11.7978 26.0136 20.8315L26.0802 20.9663V21.1685C26.1469 21.9775 26.0136 25.0112 21.4136 29.5955C15.4136 35.5955 4.01356 53.9326 3.41356 54.809V54.8764C3.21356 55.2809 0.480226 60.4719 3.01356 64.382C5.01356 67.4831 9.68023 68.6966 16.8802 68.0899L17.6136 68.0225L17.8136 68.6966C18.0802 69.5056 18.4136 70.7191 18.5469 72ZM106.68 45.9775C105.747 46.1798 104.88 46.3146 104.014 46.3146C100.747 46.3146 98.0136 44.8989 95.8136 42.1348C93.8136 39.573 93.0802 36.7416 93.0136 36.6067C92.1469 33.1685 90.9469 31.8876 90.0802 31.4157C90.0136 31.3483 89.8802 31.3483 89.8136 31.2809L88.9469 30.9438L88.5469 31.7528C88.1469 32.6966 87.5469 33.3034 86.7469 33.573C85.0802 34.1798 83.2802 32.764 83.0802 32.6292L83.0136 32.5618C82.0136 31.5506 81.6136 30.5393 81.9469 29.5955C82.0802 29.191 82.3469 28.7865 82.7469 28.4494L83.6802 27.6404L82.7469 26.9663C80.8802 25.618 77.7469 24.7416 73.6136 24.4045C69.1469 24 65.0136 24.4045 64.6802 24.4045H64.6136C53.7469 24.7416 46.2136 22.2472 42.1469 16.9213C37.2136 10.3146 39.6136 2.02247 39.7469 1.61798L37.9469 1.07865C37.8136 1.48315 35.1469 10.7191 40.6802 18.0674C45.0802 23.8652 53.1469 26.6292 64.6802 26.2247H64.8802C65.0802 26.2247 69.0802 25.8202 73.4802 26.2247C77.2136 26.5618 79.4136 27.236 80.7469 27.9101C80.5469 28.2472 80.3469 28.5843 80.2136 28.9888C79.9469 29.9326 79.7469 31.8202 81.7469 33.9101L81.9469 34.1124C82.2136 34.3146 84.7469 36.3371 87.4136 35.3933C88.0802 35.1236 89.0136 34.6517 89.7469 33.573C90.1469 34.1124 90.6802 35.1236 91.2136 37.0787C91.2802 37.4157 92.1469 40.4494 94.3469 43.2809C96.0802 45.5056 99.2136 48.2022 104.014 48.2022C105.014 48.2022 106.014 48.0674 107.08 47.8652L106.68 45.9775ZM89.4802 52.4494C87.8136 50.8989 86.0802 50.427 85.8136 50.3596C72.6136 46.6517 69.5469 41.4607 66.6136 36.4045C66.2802 35.8652 65.9469 35.2584 65.6136 34.6517C62.0802 28.8539 51.1469 26.764 50.4802 26.6292C42.8136 24.9438 37.4802 26.3596 34.2802 27.8427C30.8136 29.4607 29.1469 31.5506 29.0802 31.618L17.3469 48.3371L18.8802 49.4157L30.6136 32.764C30.8802 32.427 36.8136 25.4831 50.1469 28.4494C50.2802 28.4494 60.8802 30.5393 64.0136 35.5955C64.3469 36.1348 64.6802 36.6742 65.0136 37.2809C68.0136 42.4045 71.3469 48.2023 85.3469 52.1124H85.4136C85.4802 52.1124 91.2802 53.5281 91.1469 61.7528V83.7303H93.0136V61.7528C93.0136 56.8315 91.0802 53.9326 89.4802 52.4494ZM79.6802 63.236C75.4136 59.8652 70.2136 61.4832 69.7469 61.618C69.1469 61.7528 54.2802 66 40.1469 62.8989C35.4802 61.8876 31.1469 61.618 27.2802 62.1573C27.2136 62.1573 27.1469 62.1573 27.1469 62.1573V62.2247C26.1469 62.3596 25.1469 62.5618 24.2136 62.8315L24.6802 64.6517C25.4802 64.4494 26.3469 64.2472 27.2802 64.1124C28.0802 64.3146 28.6136 65.2584 29.0136 66.809C29.1469 67.4831 30.6802 77.6629 27.1469 82.382L28.6136 83.5281C32.7469 78 30.9469 66.9438 30.8136 66.4719V66.4045C30.5469 65.3258 30.2136 64.5169 29.8136 63.9101C32.8802 63.7753 36.2136 64.0449 39.8136 64.8539C54.6802 68.1573 69.7469 63.7753 70.3469 63.573H70.4136C70.4802 63.573 75.0802 62.0225 78.6802 64.8539C82.3469 67.7528 83.8136 74.3596 83.0136 84L84.8802 84.1348C85.6135 73.5506 83.9469 66.6067 79.6802 63.236ZM38.4802 22.1798L39.0136 20.4944C32.7469 15.9775 34.6802 3.16854 34.7469 3.03371L33.8136 2.89888L32.8802 2.69663C32.8136 3.23596 31.0136 14.5618 36.2136 20.427C34.1469 20.6966 31.4136 21.4382 30.6802 23.3933L32.4136 24.0674C32.9469 22.7865 36.2802 22.1798 38.4802 22.1798ZM84.1469 39.4382C85.2802 39.4382 86.4802 39.1685 87.8136 38.6966L87.1469 36.9438C84.9469 37.7528 83.0802 37.7528 81.6136 36.8764C79.0136 35.3258 78.4802 31.4831 78.4802 31.4831L76.6136 31.7528C76.6136 31.9551 77.2802 36.4719 80.6136 38.4944C81.7469 39.1685 82.8802 39.4382 84.1469 39.4382ZM42.2802 61.2809L42.8802 59.4607C34.4802 56.6966 27.3469 57.6404 22.8802 58.9888L23.4136 60.809C27.6136 59.5955 34.3469 58.6517 42.2802 61.2809ZM10.6802 59.4607L10.0136 58.7865C9.54689 59.2584 7.21356 61.7528 8.21356 63.7079C8.74689 64.7191 9.94689 65.191 11.9469 65.191C13.2802 65.191 14.8802 64.9888 16.9469 64.5843L16.6136 62.6966C10.5469 63.9101 9.88023 62.8315 9.88023 62.764C9.68023 62.2921 10.4802 60.9438 11.3469 60.0674L10.6802 59.4607ZM57.6802 49.8876L59.5469 49.618C58.6802 43.5506 55.2802 38.8315 49.6802 35.9326C45.5469 33.7753 41.6136 33.3708 41.4802 33.3708L41.2802 35.2584C41.3469 35.2584 45.0136 35.5955 48.8136 37.618C53.9469 40.2472 56.8802 44.427 57.6802 49.8876ZM29.9469 46.2472L29.7469 48.1348C29.8802 48.1348 40.8136 49.4832 44.6136 58.5169L46.3469 57.7753C44.5469 53.5955 41.1469 50.2921 36.4802 48.2022C33.0136 46.5843 30.0802 46.2472 29.9469 46.2472ZM44.6136 46.2472C44.4136 46.1798 44.2802 45.9775 44.1469 45.9101C44.1469 46.1124 44.3469 46.382 44.6136 46.2472Z" fill="#7E8284"/>
<path d="M32.5135 51.9369C33.1261 51.7838 33.5856 52.0901 33.8919 52.5495L35.5766 55L37.2613 52.5495C37.5676 52.0901 38.1802 51.7838 38.6396 51.9369L41.5495 52.5495L40.9369 49.6396C40.9369 49.027 41.0901 48.5676 41.5495 48.2613L44 46.5766L41.5495 44.8919C41.0901 44.5856 40.9369 43.973 40.9369 43.5135L41.5495 40.6036L38.6396 41.0631C38.027 41.2162 37.5676 40.9099 37.2613 40.4505L35.5766 38L33.8919 40.4505C33.5856 40.9099 32.973 41.2162 32.5135 41.0631L29.4505 40.4505L30.0631 43.5135C30.2162 44.1261 29.9099 44.5856 29.4505 44.8919L27 46.5766L29.4505 48.2613C29.9099 48.5676 30.2162 49.027 30.0631 49.6396L29.4505 52.5495L32.5135 51.9369Z" fill="#FF0000"/>
</svg>
