<svg width="60" height="75" viewBox="0 0 60 75" fill="none" xmlns="http://www.w3.org/2000/svg">
<path d="M56.3 49.9124C57.3 48.8124 57.4 46.7124 57.4 46.7124C57.4 45.6124 57.4 43.7124 57.4 42.3124C57.6 42.3124 58.3 42.5124 58.4 41.5124C58.4 39.5124 58.6 17.4124 58.5 15.5124C58.1 10.7124 57 9.6124 56.6 8.8124C54.7 5.2124 51.2 3.5124 51.2 3.5124C44.5 -0.187599 36.1 2.2124 32.4 8.9124C31.3 10.9124 30.7 13.2124 30.7 15.5124L30.2 41.5124C30.2 41.9124 30.5 42.3124 30.9 42.4124H31.1V46.7124C31.1 47.9124 31.5 49.0124 32.2 49.9124L29.6 66.7124C29.5 67.2124 29.9 67.6124 30.3 67.7124H35.9V71.4124C35.9 73.3124 37.4 74.8124 39.3 74.8124C41.2 74.8124 42.7 73.3124 42.7 71.4124V68.5124H46.1V71.3124C46.1 73.2124 47.6 74.7124 49.5 74.7124C51.4 74.7124 52.9 73.2124 52.9 71.3124V67.6124H58.4C58.4 67.6124 59.3 67.4124 59.2 66.6124C58.9 65.8124 56.5 51.1124 56.3 49.9124ZM32.1 36.4124L32.5 15.4124C32.7 8.7124 38.3 3.5124 45 3.7124C51.4 3.9124 56.5 9.0124 56.7 15.4124V36.3124C55.4 33.0124 54.4 29.5124 53.6 26.0124V9.8124C53.6 9.3124 53.2 8.9124 52.7 8.9124H52.4C51.9 8.8124 51.5 9.1124 51.4 9.6124C51.4 9.8124 50.6 13.3124 47.9 14.1124V9.8124C47.9 9.3124 47.5 8.9124 47 9.0124C46.6 9.0124 46.3 9.3124 46.2 9.7124C46.2 9.7124 45.3 14.3124 41.7 14.3124H36.4C35.9 14.3124 35.5 14.7124 35.5 15.2124C35.5 15.3124 35.5 15.4124 35.5 15.4124V26.1124C34.6 29.6124 33.4 33.1124 32.1 36.4124ZM55.7 39.1124V45.3124L54 34.4124C54 34.1124 53.9 33.8124 53.8 33.5124C54.5 35.5124 55.2 37.5124 55.7 39.1124ZM46.3 15.7124C46.5 15.9124 46.7 15.9124 46.9 15.9124C48.9 15.9124 50.7 14.8124 51.7 13.1124V22.4124C48.3 26.5124 42.2 27.1124 38.1 23.7124C37.8 23.4124 37.5 23.2124 37.2 22.9124V15.9124H41.6C43.3 15.9124 45 15.1124 46 13.7124V15.1124C46.1 15.3124 46.2 15.5124 46.3 15.7124ZM40.8 27.1124V30.0124H39.1C39 30.0124 38.8 30.0124 38.7 30.1124C38 30.2124 37.4 30.5124 36.8 30.9124C36.5 30.9124 36.2 31.0124 36 31.0124C36.6 29.4124 37.1 27.7124 37.4 26.0124V25.3124C38.3 26.1124 39.5 26.7124 40.8 27.1124ZM41.3 31.8124H41.6C42.1 31.8124 42.5 31.4124 42.5 30.9124V27.5124C43.1 27.6124 43.7 27.7124 44.3 27.7124C44.9 27.7124 45.5 27.7124 46.1 27.6124V31.0124C46.1 31.5124 46.5 31.9124 47 31.9124H48.7C48.2 34.3124 45.9 35.8124 43.5 35.4124C41.8 35.1124 40.4 33.7124 40 31.9124L41.3 31.8124ZM47.8 30.0124V27.1124C49.3 26.6124 50.6 25.9124 51.7 24.9124V26.0124C52 27.7124 52.4 29.5124 53 31.1124C52.6 31.0124 52.2 30.9124 51.8 30.9124C51.2 30.5124 50.6 30.2124 49.9 30.1124C49.8 30.0124 49.6 30.0124 49.5 30.0124H47.8ZM34.4 35.1124C34.4 35.2124 34.3 35.3124 34.3 35.4124L32.8 45.4124V39.4124C33.3 38.2124 33.8 36.8124 34.3 35.4124L34.4 35.1124ZM39.3 72.9124C38.6 72.9124 38 72.5124 37.8 71.9124H40.8C40.5 72.5124 40 72.9124 39.3 72.9124ZM40.8 70.1124H37.7V67.6124H37.9C37.9 68.1124 38.3 68.4124 38.8 68.4124H40.8V70.1124ZM49.3 72.9124C48.6 72.9124 48 72.5124 47.8 71.9124H50.7C50.5 72.5124 50 72.9124 49.3 72.9124ZM50.8 70.1124H47.7V68.5124H50.2C50.4 68.5124 50.6 68.4124 50.8 68.3124V70.1124ZM51.1 65.9124V54.4124C51.1 53.9124 50.7 53.5124 50.2 53.5124C49.7 53.5124 49.3 53.9124 49.3 54.4124V66.7124H39.6V54.4124C39.6 53.9124 39.2 53.5124 38.7 53.5124C38.2 53.5124 37.8 53.9124 37.8 54.4124V65.9124H31.4L36.2 34.7124C36.4 33.6124 37.1 32.6124 38.2 32.2124C38.9 35.5124 42.1 37.7124 45.4 37.1124C47.9 36.6124 49.8 34.7124 50.3 32.2124C51.4 32.7124 52.1 33.6124 52.3 34.8124L57.1 66.0124L51.1 65.9124Z" fill="#7E8284"/>
<path d="M34.9 46.8124C34.9 47.3124 35.3 47.7124 35.8 47.7124H52.8C53.3 47.7124 53.7 47.3124 53.7 46.8124C53.7 46.3124 53.3 45.9124 52.8 45.9124H35.8C35.3 45.9124 34.9 46.3124 34.9 46.8124Z" fill="#7E8284"/>
<path d="M41.4 17.9124C40.8 17.9124 40.4 18.4124 40.4 18.9124C40.4 19.5124 40.9 19.9124 41.4 19.9124C42 19.9124 42.4 19.4124 42.4 18.9124C42.4 18.4124 41.9 17.9124 41.4 17.9124Z" fill="#7E8284"/>
<path d="M47.3 20.0124C47.9 20.0124 48.3 19.5124 48.3 19.0124C48.3 18.4124 47.8 18.0124 47.3 18.0124C46.7 18.0124 46.3 18.5124 46.3 19.0124C46.2 19.5124 46.7 20.0124 47.3 20.0124Z" fill="#7E8284"/>
<path d="M18.8 43.9124C13 43.9124 8.3 39.2124 8.3 33.4124C8.3 32.9124 7.9 32.5124 7.4 32.5124C6.9 32.5124 6.5 32.9124 6.5 33.4124C6.5 40.1124 12 45.6124 18.7 45.6124C19.2 45.6124 19.6 45.2124 19.6 44.7124C19.7 44.3124 19.3 43.9124 18.8 43.9124Z" fill="#7E8284"/>
<path d="M18.4 27.0124V24.0124C19.3 23.7124 19.9 23.4124 20.6 23.0124C26.6 19.9124 28.9 12.6124 25.9 6.6124C22.8 0.6124 15.5 -1.6876 9.5 1.3124C9 1.6124 8.4 1.9124 8 2.2124C8 2.2124 4.9 4.1124 3.5 8.6124C1.5 17.5124 7.5 22.6124 11.7 24.0124C11.7 25.8124 11.7 26.6124 11.7 27.0124C0.600002 26.4124 0.4 31.0124 0 34.4124C0 35.0124 0 35.5124 0 35.9124C0 36.5124 0.300002 36.9124 0.900002 36.9124C0.900002 38.2124 0.900002 44.3124 0.900002 44.7124C0.800002 47.9124 2.3 48.5124 2.3 48.5124C2.3 48.5124 1.6 53.9124 2.1 59.7124C2.2 62.3124 2.5 64.8124 3 67.4124C3.1 67.8124 3.4 68.1124 3.9 68.1124H4.4V71.3124C4.4 73.2124 5.9 74.7124 7.8 74.7124H8.2C10.1 74.7124 11.6 73.2124 11.6 71.3124V68.1124H12C12.4 68.1124 12.8 67.8124 12.9 67.4124L15.4 57.1124L17.9 67.4124C18 67.8124 18.4 68.1124 18.8 68.1124H19.2V71.3124C19.2 73.2124 20.7 74.7124 22.6 74.7124H22.4C24.3 74.7124 25.8 73.2124 25.8 71.3124V68.1124H26.3C26.7 68.1124 27.1 67.8124 27.2 67.4124C27.9 63.7124 28.3 59.9124 28.2 56.1124C28.2 53.6124 28 51.0124 27.7 48.5124C28.6 47.4124 29.2 46.1124 29.2 44.7124V36.9124C29.7 36.9124 30.1 36.5124 30.1 36.0124V34.4124C29 25.7124 21.3 27.1124 18.4 27.0124ZM17.1 1.9124C19.4 2.4124 21.4 3.6124 22.9 5.3124C22.7 6.2124 21.7 9.2124 19 9.8124V5.1124C19 4.6124 18.7 4.3124 18.2 4.2124C17.7 4.2124 17.3 4.5124 17.3 4.9124C17.3 5.1124 16.3 9.9124 12.5 9.9124H4.7C6 4.3124 11.5 0.712402 17.1 1.9124ZM5.8 17.1124C5 15.5124 4.5 13.8124 4.5 12.0124C4.5 11.9124 4.5 11.7124 4.5 11.6124H12.5C14.4 11.6124 16.2 10.7124 17.3 9.1124V10.7124C17.3 10.9124 17.4 11.2124 17.6 11.3124C17.8 11.5124 18 11.5124 18.2 11.5124C21.5 11.5124 23.3 9.0124 24.2 6.9124C27 12.0124 25.1 18.3124 20 21.1124C14.9 24.0124 8.6 22.2124 5.8 17.1124ZM12.2 28.7124C12.7 28.7124 13.1 28.3124 13.1 27.8124V24.1124C14.4 24.3124 15.7 24.3124 17 24.1124V27.8124C17 28.3124 17.4 28.7124 17.9 28.7124H18.8C19.1 28.7124 19.7 28.7124 19.7 28.7124C19.2 31.6124 16.2 33.2124 13.7 32.4124C12 31.9124 10.7 30.5124 10.3 28.7124H12.2ZM2.8 45.1124C2.8 45.0124 2.8 44.9124 2.8 44.7124V36.9124H3.9L2.8 45.1124ZM7.9 72.9124H7.5C6.8 72.9124 6.1 72.4124 6 71.7124H9.4C9.3 72.4124 8.7 72.9124 7.9 72.9124ZM9.5 69.9124H6V68.1124H9.5V69.9124ZM22.4 72.9124H22C21.3 72.9124 20.6 72.4124 20.5 71.7124H23.9C23.8 72.4124 23.2 72.9124 22.4 72.9124ZM24 69.9124H20.5V68.1124H24V69.9124ZM25.5 66.4124H19L15.8 53.2124C15.7 52.7124 15.2 52.4124 14.7 52.6124C14.4 52.7124 14.1 52.9124 14.1 53.2124L10.9 66.4124H4.4C3.8 63.0124 3.5 59.6124 3.5 56.2124C3.5 53.5124 3.7 50.9124 4 48.3124H25.8C26.1 50.9124 26.3 53.6124 26.3 56.2124C26.4 59.6124 26.1 63.0124 25.5 66.4124ZM27.3 44.7124C27.3 44.8124 27.3 45.0124 27.3 45.1124L26.2 36.9124H27.3V44.7124ZM28.3 35.1124H25.2C24.7 35.1124 24.3 35.5124 24.3 36.0124V36.1124L25.6 46.5124H4.4L5.7 36.2124C5.8 35.7124 5.4 35.3124 4.9 35.2124H1.7V34.5124C1.7 31.3124 4.3 28.8124 7.4 28.8124H8.5C9 32.4124 12.4 34.8124 16 34.3124C18.4 33.9124 20.6 32.2124 21.4 28.9124C21.4 28.9124 21.5 28.8124 22.3 28.8124C27.5 28.8124 28.3 32.7124 28.3 34.5124V35.1124Z" fill="#7E8284"/>
<path d="M11.9 13.9124C11.3 13.9124 10.8 14.4124 10.8 15.0124C10.8 15.6124 11.3 16.1124 11.9 16.1124C12.5 16.1124 13 15.6124 13 15.0124C13 14.4124 12.5 13.9124 11.9 13.9124Z" fill="#7E8284"/>
<path d="M18.2 13.9124C17.6 13.9124 17.1 14.4124 17.1 15.0124C17.1 15.6124 17.6 16.1124 18.2 16.1124C18.8 16.1124 19.3 15.6124 19.3 15.0124C19.3 14.4124 18.8 13.9124 18.2 13.9124Z" fill="#7E8284"/>
</svg>
