<svg width="58" height="89" viewBox="0 0 58 89" fill="none" xmlns="http://www.w3.org/2000/svg">
<path d="M57.1 41.0564L56.6 38.3564C56.5 37.9564 56.2 37.6564 55.8 37.6564C55.6 37.6564 55.4 37.6564 55.2 37.7564C54.8 36.0564 54 34.5564 52.7 33.3564H56.1C56.2 33.3564 56.3 33.3564 56.4 33.2564C56.7 33.1564 56.8 32.8564 56.8 32.5564V15.9564C56.8 8.15639 50.4 1.75639 42.6 1.75639C34.8 1.75639 28.5 8.15639 28.5 15.9564L28.2 27.9564C28.1 27.8564 28 27.7564 27.9 27.7564L21.8 25.3564L20.8 24.9564L20.4 22.3564C26.4 20.2564 29.5 13.6564 27.4 7.65639C25.3 1.65639 18.7 -1.44361 12.7 0.656388C6.7 2.75639 3.6 9.35639 5.7 15.3564C6.9 18.6564 9.4 21.1564 12.7 22.3564L12.2 24.9564L11.3 25.3564L5.2 27.7564C5 27.8564 4.8 28.0564 4.7 28.3564C1.9 29.3564 0 32.0564 0 35.0564V50.4564C0 53.2564 1.7 55.8564 4.3 56.9564C4.1 61.9564 4 68.6564 4 70.5564C4 74.1564 4.3 77.7564 5 81.2564C5.1 81.6564 5.4 81.8564 5.8 81.8564H6.3V84.9564C6.3 86.6564 7.6 87.9564 9.3 87.9564H9.9C11.6 87.9564 12.9 86.6564 12.9 84.9564V81.7564H13.3C13.7 81.7564 14 81.4564 14.1 81.0564L16.6 67.2564L19 81.1564C19.1 81.5564 19.4 81.8564 19.8 81.8564H20.2V85.0564C20.2 86.7564 21.5 88.0564 23.2 88.0564H23.8C25.5 88.0564 26.8 86.7564 26.8 85.0564V81.8564H27.3C27.7 81.8564 28 81.5564 28.1 81.2564C28.8 77.7564 29.1 74.1564 29.1 70.5564C29.1 68.7564 29 62.0564 28.8 57.0564L28.6 55.2564L28.3 52.9564V39.3564L29.3 39.7564C29.3 39.9564 29.3 40.0564 29.3 40.2564V52.2564C29.3 54.0564 29.8 55.8564 30.9 57.4564L30.3 73.8564C30.3 74.2564 30.6 74.6564 31.1 74.6564H34.4V84.6564C34.5 86.4564 36.1 87.8564 37.9 87.7564C39.6 87.6564 40.9 86.3564 41 84.6564V74.6564H43.8V84.6564C43.9 86.4564 45.5 87.8564 47.3 87.7564C49 87.6564 50.3 86.3564 50.4 84.6564V74.6564H53.7C54.1 74.6564 54.5 74.2564 54.5 73.8564L53.9 57.4564C55 55.9564 55.5 54.1564 55.5 52.2564V44.8564H55.8C56.2 44.8564 56.5 44.5564 56.6 44.1564L57.1 41.3564C57.1 41.2564 57.1 41.1564 57.1 41.0564ZM4.8 52.9564L4.6 55.2564C2.9 54.2564 1.8 52.4564 1.8 50.4564V34.9564C1.8 32.8564 3 30.9564 4.9 30.0564L4.8 52.9564ZM55.2 43.0564C54.2 42.3564 54 40.8564 54.7 39.8564C54.8 39.6564 55 39.5564 55.2 39.3564L55.5 41.1564L55.2 43.0564ZM45.8 31.7564V27.9564C47.4 27.4564 49 26.5564 50.2 25.4564V26.9564C50.2 28.4564 52.1 30.3564 53.8 31.7564H45.8ZM39.3 28.0564V31.7564H31.1C32.9 30.2564 35 28.2564 35 26.9564V25.9564C36.3 26.8564 37.8 27.6564 39.3 28.0564ZM35.1 23.7564V18.7564C41.8 18.5564 47.6 16.4564 50.3 13.6564V23.2564C46.7 27.5564 40.4 28.2564 36 24.6564C35.7 24.2564 35.4 23.9564 35.1 23.7564ZM37.7 33.2564H40.2C40.6 33.2564 41 32.8564 41 32.4564V28.3564C41.5 28.4564 42 28.4564 42.5 28.4564C43.1 28.4564 43.7 28.3564 44.3 28.2564V32.4564C44.3 32.8564 44.7 33.2564 45.1 33.2564H47.3V35.9564H37.8V33.2564H37.7ZM30 15.9564C30.2 8.95639 36 3.45639 43 3.65639C49.7 3.95639 55.1 9.25639 55.3 15.9564V30.8564C53.5 29.3564 51.9 27.5564 51.9 26.8564V10.0564C51.9 9.65639 51.5 9.25639 51.1 9.25639C50.7 9.25639 50.3 9.65639 50.3 10.0564C50.3 13.7564 42.7 17.1564 34.3 17.1564C33.9 17.1564 33.5 17.5564 33.5 17.9564V26.9564C33.5 27.5564 31.8 29.2564 29.6 30.9564L30 15.9564ZM21.8 27.0564L22.8 27.5564L22.7 30.2564L21.6 29.2564C21.4 29.0564 21.1 28.9564 20.8 29.1564H20.7L21.8 27.0564ZM20.8 36.5564C21.2 36.5564 21.5 36.2564 21.6 35.8564L21.8 31.6564L22.9 32.6564C23.2 32.9564 23.7 32.9564 24 32.5564C24.1 32.4564 24.2 32.2564 24.2 32.0564L24.3 27.9564L26.7 28.9564V52.1564H17.3V36.5564H20.8ZM12.8 26.4564L13.3 26.2564C13.6 26.1564 13.7 25.9564 13.8 25.6564L14.3 22.7564C15.8 23.0564 17.4 23.0564 19 22.7564L19.4 25.5564C19.4 25.8564 19.6 26.0564 19.9 26.1564L20.5 26.4564L16.6 34.1564L12.8 26.4564ZM15.3 35.0564H13.1L12.8 30.2564L15.3 35.0564ZM20.3 30.1564L20 34.9564H17.8L20.3 30.1564ZM16.5 1.45639C21.7 1.45639 26.1 5.55639 26.4 10.7564C24.2 10.3564 22.6 8.45639 22.6 6.25639C22.6 5.85639 22.2 5.45639 21.8 5.45639H11.2C10.8 5.45639 10.4 5.85639 10.4 6.25639C10.4 8.45639 8.8 10.3564 6.6 10.7564C6.9 5.55639 11.3 1.45639 16.5 1.45639ZM6.7 12.4564C9.4 12.0564 11.6 9.85639 12 7.15639H21.3C21.6 9.95639 23.8 12.0564 26.6 12.4564C26.1 17.9564 21.2 21.8564 15.7 21.3564C10.8 20.8564 7.1 17.1564 6.7 12.4564ZM11.3 27.0564L12.4 29.2564H12.3C12 29.1564 11.7 29.1564 11.5 29.3564L10.4 30.3564L10.3 27.6564L11.3 27.0564ZM6.3 28.9564L8.7 27.9564L8.8 32.0564C8.8 32.4564 9.2 32.8564 9.6 32.8564C9.8 32.8564 10 32.7564 10.1 32.6564L11.2 31.6564L11.5 35.8564C11.5 36.2564 11.9 36.5564 12.3 36.5564L15.7 36.6564V52.2564H6.3V28.9564ZM9.9 86.3564H9.4C8.7 86.3564 8.1 85.8564 8 85.0564H11.4C11.3 85.7564 10.7 86.3564 9.9 86.3564ZM11.3 83.5564H8V81.7564H11.4L11.3 83.5564ZM23.7 86.3564H23.1C22.4 86.3564 21.8 85.8564 21.7 85.0564H25.1C25 85.7564 24.4 86.3564 23.7 86.3564ZM25.1 83.5564H21.7V81.7564H25.1V83.5564ZM26.5 80.1564H20.3L17.3 62.3564C17.2 61.9564 16.8 61.6564 16.4 61.7564C16.1 61.8564 15.8 62.0564 15.8 62.3564L12.8 80.1564H6.6C6 76.9564 5.8 73.6564 5.8 70.4564C5.8 68.5564 5.9 61.4564 6.1 56.4564L6.4 53.7564H26.9L27.2 56.3564C27.4 61.3564 27.5 68.4564 27.5 70.3564C27.4 73.6564 27.1 76.9564 26.5 80.1564ZM28.3 37.5564V33.1564L28.4 33.2564C28.5 33.3564 28.7 33.3564 28.8 33.3564H32.1C30.8 34.6564 29.9 36.3564 29.6 38.1564L28.3 37.5564ZM31.1 53.0564V53.7564C31 53.2564 30.9 52.6564 30.9 52.1564V40.1564C30.9 36.3564 33.1 33.2564 35.8 33.2564H36V36.1564C34.1 36.7564 32.7 38.3564 32.4 40.3564L31.1 53.0564ZM37.7 86.3564C36.9 86.3564 36.2 85.8564 36 85.0564H39.4C39.2 85.7564 38.5 86.3564 37.7 86.3564ZM39.5 83.4564H36V74.5564H39.5V83.4564ZM47.1 86.3564C46.3 86.3564 45.6 85.8564 45.4 85.0564H48.7C48.6 85.7564 47.9 86.3564 47.1 86.3564ZM48.9 83.4564H45.4V74.5564H48.9V83.4564ZM31.9 72.9564L32.7 53.1564L34 40.6564C34.3 38.8564 35.8 37.5564 37.6 37.5564H47.2C49 37.5564 50.5 38.8564 50.8 40.6564L52.2 53.1564L52.9 72.9564H31.9ZM53.9 52.1564C53.9 52.6564 53.8 53.2564 53.7 53.7564V52.9564L52.3 40.4564C52 38.4564 50.6 36.8564 48.7 36.2564V33.2564H48.9C51.2 33.2564 53.2 35.4564 53.7 38.4564C52.2 39.9564 52.2 42.4564 53.8 43.9564C53.8 43.9564 53.8 43.9564 53.9 44.0564V52.1564ZM39.7 18.5564C39.2 18.5564 38.8 18.9564 38.8 19.4564C38.8 19.9564 39.2 20.3564 39.7 20.3564C40.2 20.3564 40.6 19.9564 40.6 19.4564C40.6 18.9564 40.2 18.5564 39.7 18.5564ZM45 20.3564C45.5 20.3564 45.9 19.9564 45.9 19.4564C45.9 18.9564 45.5 18.5564 45 18.5564C44.5 18.5564 44.1 18.9564 44.1 19.4564C44.1 19.9564 44.5 20.3564 45 20.3564ZM13.6 11.2564C13.1 11.2564 12.7 11.6564 12.7 12.1564C12.7 12.6564 13.1 13.0564 13.6 13.0564C14.1 13.0564 14.5 12.6564 14.5 12.1564C14.6 11.6564 14.2 11.2564 13.6 11.2564ZM18.9 13.0564C19.4 13.0564 19.8 12.6564 19.8 12.1564C19.8 11.6564 19.4 11.2564 18.9 11.2564C18.4 11.2564 18 11.6564 18 12.1564C18 12.6564 18.4 13.0564 18.9 13.0564Z" fill="#7E8284"/>
</svg>
