<svg width="46" height="47" viewBox="0 0 46 47" fill="none" xmlns="http://www.w3.org/2000/svg">
<path d="M43.6833 12.8095C43.6833 12.37 44.0334 12.0184 44.4711 12.0184C44.9088 12.0184 45.259 12.37 45.0839 12.8095V42.2547C45.0839 44.3642 43.4206 46.0343 41.3196 46.0343H3.76407C1.66306 46.0343 -0.000244141 44.3642 -0.000244141 42.2547V12.8095C-0.000244141 12.37 0.349924 12.0184 0.787634 12.0184C1.22535 12.0184 1.57551 12.37 1.57551 12.8095V42.2547C1.57551 43.4853 2.62602 44.54 3.85161 44.54H21.7977V42.7821L21.7526 42.7656C20.7624 42.4038 18.4296 41.5516 15.7573 41.5516C9.87133 41.5516 5.11103 42.7524 4.12548 43.0011C4.01168 43.0298 3.94821 43.0458 3.93915 43.0458H3.76407C3.6359 43.0458 3.55464 42.9987 3.45161 42.939C3.4139 42.9171 3.37327 42.8936 3.32635 42.87C3.15127 42.6942 3.06373 42.5184 3.06373 42.2547V9.02994C3.06373 8.67836 3.23881 8.41467 3.58898 8.32677C3.85161 8.23888 9.01659 6.74464 15.8449 6.74464C19.6967 6.74464 22.8482 8.23888 22.9358 8.32677C23.1984 8.50257 23.3735 8.76625 23.3735 9.02994V37.9478C25.6496 36.6294 30.9897 33.6409 36.1546 31.883V2.61352C31.6363 4.41375 27.2943 6.9809 25.8241 7.8501C25.4998 8.04185 25.3152 8.15098 25.2994 8.15098C24.9492 8.32677 24.5115 8.23888 24.2489 7.88729C24.0738 7.53571 24.1614 7.09623 24.5115 6.83254C24.5263 6.83254 24.7104 6.72503 25.0352 6.53532C26.6366 5.60017 31.6582 2.66757 36.6799 0.767696C36.9425 0.6798 37.2051 0.6798 37.3802 0.855592C37.6429 1.03138 37.7304 1.20718 37.7304 1.47087V32.4982C37.7304 32.8498 37.5553 33.1135 37.2051 33.2014C30.6395 35.4867 23.1984 39.8815 23.1109 39.9694C22.8482 40.0573 22.5856 40.1452 22.323 39.9694C22.1479 39.8815 21.9728 39.6178 21.9728 39.3541V9.64522L21.9277 9.62873C20.9375 9.26696 18.6047 8.41467 15.9324 8.41467C10.5923 8.41467 6.1277 9.38153 4.63949 9.73311V41.3758C6.47787 40.9363 10.7674 40.0573 15.9324 40.0573C19.1715 40.0573 21.8853 41.1121 22.7607 41.4637C23.8112 41.1121 27.0503 40.0573 30.2893 40.0573C35.2792 40.0573 39.1311 40.8484 40.7944 41.2879V9.64522C40.5317 9.64522 40.1816 9.55732 39.8314 9.46942C39.3937 9.38153 39.1311 9.02994 39.2186 8.59046C39.3062 8.15098 39.6563 7.88729 40.094 7.97519C41.057 8.15098 41.6698 8.32677 41.6698 8.32677C42.02 8.32677 42.2826 8.67836 42.2826 9.02994V42.2547C42.2826 42.5184 42.1075 42.6942 41.9324 42.87C41.8985 42.8814 41.866 42.8927 41.8346 42.9037C41.6231 42.9777 41.4608 43.0344 41.2321 42.9579C41.2321 42.9579 36.7674 41.4637 30.2018 41.4637C27.6394 41.4637 25.077 42.2726 23.7876 42.6797C23.6673 42.7176 23.5581 42.7521 23.461 42.7821V44.54H41.4072C42.6328 44.54 43.6833 43.4853 43.6833 42.2547V12.8095Z" fill="#1F2426"/>
<path d="M26.4375 13.5128C26.525 13.5128 26.7001 13.5128 26.7876 13.4249C26.8098 13.4249 27.1065 13.2786 27.5729 13.0487C28.9501 12.3697 31.8062 10.9616 33.4408 10.4364C33.8785 10.3485 34.0536 9.90903 33.9661 9.46954C33.8785 9.03006 33.4408 8.85427 33.0031 8.94217C31.2721 9.47693 28.326 10.9268 26.8986 11.6292C26.4491 11.8504 26.1502 11.9975 26.0873 12.0185C25.7371 12.1943 25.562 12.6338 25.7371 13.0733C25.9122 13.4249 26.1748 13.5128 26.4375 13.5128Z" fill="#1F2426"/>
<path d="M25.7371 22.2145C25.9122 22.4782 26.1748 22.654 26.4375 22.654C26.525 22.654 26.7001 22.654 26.7876 22.5661C26.8098 22.5661 27.1065 22.4198 27.573 22.1898C28.9502 21.5108 31.8062 20.1028 33.4408 19.5776C33.8785 19.4897 34.0536 19.0502 33.9661 18.6108C33.8785 18.1713 33.4408 17.9955 33.0031 18.0834C31.2721 18.6181 28.326 20.068 26.8986 20.7704C26.4491 20.9916 26.1502 21.1387 26.0873 21.1597C25.7371 21.3355 25.562 21.8629 25.7371 22.2145Z" fill="#1F2426"/>
<path d="M25.7371 17.6439C25.9122 17.9076 26.1748 18.0834 26.4375 18.0834C26.525 18.0834 26.7001 18.0834 26.7876 17.9955C26.8098 17.9955 27.1067 17.8491 27.5735 17.619C28.9507 16.94 31.8062 15.5322 33.4408 15.007C33.8785 14.9191 34.0536 14.4796 33.9661 14.0402C33.8785 13.6007 33.4408 13.4249 33.0031 13.5128C31.2722 14.0475 28.326 15.4973 26.8986 16.1998C26.4491 16.421 26.1502 16.5681 26.0873 16.5891C25.7371 16.8528 25.562 17.2923 25.7371 17.6439Z" fill="#1F2426"/>
<path d="M26.4375 27.1367C26.1748 27.1367 25.9122 26.9609 25.7371 26.6972C25.562 26.3456 25.7371 25.9061 26.0873 25.6425C26.1502 25.6214 26.4491 25.4743 26.8986 25.2531C28.326 24.5507 31.2721 23.1009 33.0031 22.5661C33.4408 22.4782 33.8785 22.654 33.9661 23.0935C34.0536 23.5329 33.8785 23.9724 33.4408 24.0603C31.8062 24.5855 28.9507 25.9933 27.5735 26.6723C27.1068 26.9024 26.8098 27.0488 26.7876 27.0488C26.7001 27.1367 26.525 27.1367 26.4375 27.1367Z" fill="#1F2426"/>
<path d="M18.296 14.7433C13.6563 13.6886 8.40379 15.007 8.14116 15.0949C7.70345 15.1828 7.52837 15.6223 7.61591 16.0618C7.70345 16.4134 8.05362 16.5891 8.31625 16.5891H8.49133C8.49937 16.5891 8.5495 16.578 8.63717 16.5586C9.5041 16.3662 14.0422 15.3595 17.8583 16.2376C18.296 16.3255 18.6462 16.0618 18.7338 15.7102C18.9964 15.1828 18.7338 14.8312 18.296 14.7433Z" fill="#1F2426"/>
<path d="M8.14116 19.5776C8.40379 19.4897 13.6563 18.1713 18.296 19.226C18.7338 19.3139 18.9964 19.7534 18.7338 20.1929C18.6462 20.5445 18.296 20.8082 17.8583 20.7203C14.0422 19.8422 9.5041 20.849 8.63717 21.0413C8.5495 21.0607 8.49937 21.0719 8.49133 21.0719H8.31625C8.05362 21.0719 7.70345 20.8961 7.61591 20.5445C7.52837 20.105 7.70345 19.6655 8.14116 19.5776Z" fill="#1F2426"/>
<path d="M25.7371 31.2678C25.9122 31.5315 26.1748 31.7073 26.4375 31.7073C26.525 31.7073 26.7001 31.7073 26.7876 31.6194C26.8098 31.6194 27.1065 31.4731 27.573 31.2431C28.9502 30.5641 31.8062 29.1561 33.4408 28.6309C33.8785 28.543 34.0536 28.1036 33.9661 27.6641C33.8785 27.2246 33.4408 27.0488 33.0031 27.1367C31.2721 27.6715 28.326 29.1213 26.8986 29.8237C26.4491 30.0449 26.1502 30.192 26.0873 30.2131C25.7371 30.3889 25.562 30.9162 25.7371 31.2678Z" fill="#1F2426"/>
<path d="M8.14116 24.1482C8.40379 24.0603 13.6563 22.7419 18.296 23.7966C18.7338 23.8845 18.9964 24.324 18.7338 24.7635C18.6462 25.1151 18.296 25.3788 17.8583 25.2909C14.0422 24.4128 9.5041 25.4196 8.63717 25.6119C8.5495 25.6313 8.49937 25.6424 8.49133 25.6424H8.31625C8.05362 25.6424 7.70345 25.4667 7.61591 25.1151C7.52837 24.6756 7.70345 24.2361 8.14116 24.1482Z" fill="#1F2426"/>
<path d="M18.296 32.85C13.6563 31.7952 8.40379 33.1136 8.14116 33.2015C7.70345 33.2894 7.52837 33.7289 7.61591 34.1684C7.70345 34.52 8.05362 34.6958 8.31625 34.6958H8.49133C8.49937 34.6958 8.5495 34.6847 8.63717 34.6652C9.5041 34.4729 14.0422 33.4661 17.8583 34.3442C18.296 34.4321 18.6462 34.1684 18.7338 33.8168C18.9964 33.3773 18.7338 32.9379 18.296 32.85Z" fill="#1F2426"/>
<path d="M8.14116 28.6309C8.40379 28.543 13.6563 27.2246 18.296 28.2793C18.7338 28.3672 18.9964 28.8067 18.7338 29.2462C18.6462 29.5978 18.296 29.8615 17.8583 29.7736C14.0422 28.8955 9.5041 29.9023 8.63717 30.0946C8.5495 30.114 8.49937 30.1252 8.49133 30.1252H8.31625C8.05362 30.1252 7.70345 29.9494 7.61591 29.5978C7.52837 29.1583 7.70345 28.7188 8.14116 28.6309Z" fill="#1F2426"/>
</svg>
