<svg width="134" height="17" viewBox="0 0 134 17" fill="none" xmlns="http://www.w3.org/2000/svg">
<path d="M133.6 3.97661C133.6 5.94971 131.99 7.55322 130 7.55322C128.01 7.55322 126.4 5.94971 126.4 3.97661C126.4 2.00351 128.01 0.4 130 0.4C131.99 0.4 133.6 2.00351 133.6 3.97661Z" stroke="#BF1985" stroke-width="0.8"/>
<path d="M8.1 8.25146L10.9 0.397661H15.1L9.8 13.2222C9.5 14.0175 9.1 14.7134 8.7 15.2105C8.3 15.7076 7.9 16.1053 7.4 16.3041C7 16.5029 6.6 16.7018 6.2 16.7018C5.8 16.8012 5.3 16.8012 4.8 16.8012C4 16.8012 3.2 16.7018 2.4 16.5029V13.3216C2.9 13.5205 3.5 13.5205 4 13.5205C4.6 13.5205 5.1 13.3216 5.4 13.0234C5.7 12.7251 5.9 12.3275 6 11.9298L0 0.397661H4.6L8.1 8.25146ZM24.5 16.5029L20.5 4.97076H20.4V16.5029H16.6V0.397661H22L25.9 11.5322L29.8 0.397661H35.2V16.5029H31.4V4.97076H31.3L27.2 16.5029H24.5ZM42.5 7.15789L48.1 0.397661H52.6L46.1 7.75439L53 16.5029H48.3L42.5 8.64912V16.5029H38.7V0.397661H42.5V7.15789ZM60 0.397661H63.9L70 16.5029H65.9L64.9 13.5205H59L58 16.5029H54L60 0.397661ZM59.8 10.7368H64L61.9 4.5731L59.8 10.7368ZM70.6 16.5029V13.3216C70.9 13.3216 71.1 13.3216 71.3 13.3216C72 13.3216 72.6 13.1228 73 12.8246C73.4 12.5263 73.7 12.0292 73.9 11.5322C74.1 11.0351 74.2 10.4386 74.3 9.94152C74.3 9.34503 74.4 8.74854 74.4 7.95322L74.5 0.298246H86.5V16.4035H82.7V3.47953H78.1L78 9.1462C78 10.3392 77.8 11.5322 77.6 12.5263C77.4 13.6199 76.8 14.5146 76 15.3099C75.1 16.1053 73.9 16.6023 72.2 16.6023C71.7 16.6023 71.2 16.6023 70.6 16.5029ZM97.5 17C95.9 17 94.6 16.7018 93.5 16.2047C92.4 15.7076 91.6 14.9123 91 14.117C90.4 13.2222 90 12.3275 89.7 11.3333C89.5 10.3392 89.3 9.44444 89.3 8.54971C89.3 7.65497 89.4 6.66082 89.7 5.66667C89.9 4.67251 90.4 3.77778 91 2.88304C91.6 1.9883 92.5 1.2924 93.5 0.795322C94.6 0.298246 95.9 0 97.5 0C98.9 0 100.2 0.19883 101.2 0.695906C102.3 1.19298 103.1 1.78947 103.8 2.5848C104.5 3.38012 104.9 4.27485 105.2 5.26901C105.5 6.26316 105.7 7.35672 105.7 8.54971C105.7 9.74269 105.5 10.8363 105.2 11.8304C104.9 12.8246 104.4 13.7193 103.8 14.5146C103.1 15.3099 102.3 15.9064 101.2 16.4035C100.2 16.8012 99 17 97.5 17ZM97.5 13.8187C98.5 13.8187 99.4 13.4211 100.3 12.7251C101.2 12.0292 101.6 10.538 101.6 8.45029C101.6 7.05848 101.4 5.96491 101 5.16959C100.6 4.37427 100.1 3.77778 99.5 3.47953C98.9 3.18129 98.2 2.98246 97.5 2.98246C96.2 2.98246 95.2 3.38012 94.5 4.27485C93.8 5.16959 93.4 6.46199 93.4 8.35088C93.4 9.74269 93.6 10.8363 94 11.6316C94.4 12.4269 94.9 13.0234 95.5 13.3216C96.2 13.7193 96.8 13.8187 97.5 13.8187ZM108.5 0.397661H116.1C117.8 0.397661 119.1 0.695906 120 1.2924C120.9 1.88889 121.5 2.48538 121.8 3.2807C122.1 4.07602 122.2 4.87135 122.2 5.66667C122.2 9.24561 120.1 11.0351 116 11.0351H112.4V16.6023H108.6V0.397661H108.5ZM112.4 3.47953V7.8538H115.4C116.3 7.8538 117 7.65497 117.4 7.35672C117.9 7.05848 118.1 6.46199 118.1 5.66667C118.1 4.77193 117.8 4.17544 117.3 3.97661C116.8 3.67836 116.1 3.57895 115.3 3.57895H112.4V3.47953Z" fill="#BF1985"/>
<path d="M128.49 5.75084V2.20238H130.194C130.582 2.20238 130.875 2.28652 131.073 2.4548C131.273 2.62146 131.374 2.85689 131.374 3.16109C131.374 3.62225 131.177 3.92078 130.785 4.0567V4.06641C130.925 4.08583 131.048 4.15298 131.154 4.26786C131.261 4.38113 131.315 4.56397 131.315 4.81639C131.315 5.3002 131.38 5.61168 131.51 5.75084H130.839C130.775 5.6489 130.744 5.47496 130.744 5.22901C130.744 4.88759 130.694 4.64569 130.595 4.50329C130.497 4.3609 130.31 4.28971 130.033 4.28971H129.115V5.75084H128.49ZM129.115 3.81642H130.138C130.545 3.81642 130.749 3.62791 130.749 3.2509C130.749 3.04216 130.692 2.89977 130.58 2.82372C130.469 2.74767 130.319 2.70965 130.128 2.70965H129.115V3.81642Z" fill="#BF1985"/>
</svg>
