<svg width="362" height="227" viewBox="0 0 362 227" fill="none" xmlns="http://www.w3.org/2000/svg">
<path d="M247.4 11.3C249.8 13.3 253.5 13 255.6 10.5C257.6 7.99999 257.3 4.39999 254.8 2.29999C252.3 0.29999 248.7 0.59999 246.6 3.09999C244.6 5.49999 244.9 9.29999 247.4 11.3Z" fill="#BDD530"/>
<path d="M212.3 13.6C213.9 15 216.4 14.7 217.8 13.1C219.1 11.4 218.9 8.99999 217.3 7.59999C215.6 6.19999 213.2 6.49999 211.8 8.09999C210.5 9.69999 210.7 12.2 212.3 13.6Z" fill="#BDD530"/>
<path d="M266.2 29.2C269.4 32 274.3 31.5 277 28.2C279.8 25 279.2 20.1 276 17.4C272.8 14.7 267.9 15.2 265.2 18.4C262.5 21.7 262.9 26.6 266.2 29.2Z" fill="#BDD530"/>
<path d="M335.3 76.5C337.3 74.1 336.9 70.6 334.6 68.6C332.2 66.6 328.7 67 326.7 69.3C324.8 71.7 325 75.2 327.4 77.2C329.8 79.2 333.4 79 335.3 76.5Z" fill="#BDD530"/>
<path d="M26.6 149.8C24.6 152.2 24.9 155.9 27.4 157.9C29.8 159.9 33.5 159.6 35.6 157.1C37.6 154.6 37.3 151 34.8 148.9C32.3 147 28.7 147.3 26.6 149.8Z" fill="#BDD530"/>
<path d="M239.2 123.3L327.3 115.7L320.1 32L297.2 34C297 33.8 296.8 33.6 296.5 33.4C292.9 30.4 287.5 30.9 284.5 34.6C284.3 34.8 284.2 35 284.1 35.2L240.7 38.9C241.5 36.3 240.8 33.4 238.6 31.6L238.5 31.5C238.9 31.2 239.2 30.9 239.5 30.5C239.6 30.4 239.6 30.3 239.7 30.2C239.9 31.6 240.5 33 241.7 33.9C244.1 35.9 247.8 35.6 249.9 33.1C251.9 30.6 251.6 27 249.1 24.9C246.7 22.9 243.1 23.2 241 25.6C240.9 23.8 240.1 22 238.6 20.8C235.7 18.4 231.4 18.8 229 21.7C226.7 24.6 227 28.9 229.9 31.3C229.9 31.3 230 31.3 230 31.4C229.6 31.7 229.3 32 229 32.4C227.2 34.5 227 37.5 228.2 39.9L210.7 41.4C211.7 41 212.7 40.3 213.4 39.4C215.7 36.6 215.4 32.5 212.7 30C214.4 29.7 215.9 28.9 217.1 27.5C219.6 24.4 219.2 19.9 216.1 17.3C213 14.7 208.5 15.2 205.9 18.3C203.4 21.3 203.8 25.8 206.8 28.4C205.3 28.7 203.9 29.5 202.9 30.8C202 31.9 201.5 33.3 201.4 34.7C201.1 34.4 200.8 34.1 200.5 33.9C199.9 33.4 199.3 33 198.6 32.6C199.9 32.1 201 31.2 202 30.1C205 26.3 204.6 20.8 200.8 17.7C197 14.6 191.5 15.1 188.3 18.9C185.3 22.6 185.7 28.3 189.5 31.3C189.8 31.5 190.1 31.7 190.3 31.9C188.4 32.5 186.6 33.6 185.2 35.3C183.2 37.7 182.5 40.8 182.9 43.8L177.5 44.3C179.2 41.3 179 37.6 177.1 34.9C178.9 34.5 180.6 33.5 181.9 32C185 28.2 184.5 22.6 180.7 19.4C176.9 16.3 171.3 16.8 168.1 20.6C166.8 22.2 166.1 24.2 166.1 26.3C163.5 26.3 161 27.4 159.2 29.6C158.7 30.2 158.3 31 157.9 31.7C156.9 31.3 155.9 31.2 154.9 31.1C151.4 29.1 147.2 29.1 143.7 30.9C144 29.1 143.4 27.2 141.9 25.9C139.6 24 136.2 24.3 134.3 26.6C132.4 28.9 132.7 32.3 135 34.2C136.2 35.2 137.6 35.6 139 35.4C136.8 39.2 136.9 44 139.3 47.7L128 48.7C127.6 46.9 126.7 45.3 125.2 44C121.6 41 116.2 41.5 113.2 45.2C112 46.6 111.4 48.4 111.3 50.1L88.4 52.1C88.1 51.4 87.6 50.7 87 50.2C84.7 48.3 81.3 48.6 79.4 50.9C78.9 51.5 78.6 52.2 78.4 52.9L0 59.5L7.2 143.2L40.6 140.3V207.2H84.9C85.3 208.5 86 209.7 87.1 210.6C90 213 94.3 212.6 96.7 209.7C97.3 208.9 97.7 208.1 98 207.2H124.6C124.8 208 125.2 208.8 125.9 209.4C127.6 210.8 130.1 210.6 131.5 208.9C131.9 208.4 132.2 207.8 132.3 207.2H143.5C143.9 208.5 144.6 209.7 145.7 210.6C148.6 213 152.9 212.6 155.3 209.7C155.9 208.9 156.3 208.1 156.6 207.2H159C159.4 208.4 160.2 209.6 161.3 210.5C164.4 213.1 169.2 212.7 171.9 209.5C172.5 208.8 172.9 208 173.2 207.2H180.2C180.6 208.1 181.3 208.8 182.1 209.5C185.2 212.1 190 211.7 192.7 208.5C193 208.1 193.3 207.7 193.5 207.2H361.9V123.2H239.2V123.3ZM206.5 41.8L204.1 42C204.1 41.6 204.1 41.1 204 40.7C204.8 41.2 205.7 41.6 206.5 41.8ZM161.6 45.6C161.8 45.3 162 45.1 162.2 44.8C162.4 45.1 162.6 45.3 162.7 45.5L161.6 45.6Z" fill="#BDD530"/>
<path d="M106 217.1C104 219.5 104.3 223.2 106.8 225.2C109.2 227.2 112.9 226.9 115 224.4C117 221.9 116.7 218.3 114.2 216.2C111.7 214.3 108 214.6 106 217.1Z" fill="#BDD530"/>
<path d="M144.2 214.4C142.8 216.1 143 218.6 144.7 220C146.4 221.4 148.9 221.2 150.3 219.5C151.7 217.8 151.5 215.3 149.8 213.9C148.1 212.5 145.6 212.7 144.2 214.4Z" fill="#BDD530"/>
<path d="M120.328 137.8V191H105.508V149.732H90.232L89.928 158.396C89.6747 165.996 89.0413 172.177 88.028 176.94C87.0653 181.703 85.3933 185.401 83.012 188.036C80.6307 190.62 77.2613 191.912 72.904 191.912C70.8773 191.912 68.5973 191.608 66.064 191L66.9 178.688C67.5587 178.84 68.2427 178.916 68.952 178.916C70.928 178.916 72.448 178.131 73.512 176.56C74.576 174.989 75.336 172.811 75.792 170.024C76.248 167.187 76.552 163.513 76.704 159.004L77.464 137.8H120.328ZM174.42 179.372V191H131.708V137.8H173.432V149.428H146.604V158.396H170.24V169.644H146.604V179.372H174.42ZM221.905 149.732H197.813V191H182.993V137.8H221.981L221.905 149.732ZM250.22 170.632H243.38V191H228.408V137.8H243.38V158.472H250.6L263.292 137.8H279.1L262.456 163.488L279.252 191H262.304L250.22 170.632ZM309.926 192.064C304.302 192.064 299.235 190.873 294.726 188.492C290.267 186.111 286.746 182.817 284.162 178.612C281.629 174.407 280.362 169.669 280.362 164.4C280.362 159.131 281.629 154.393 284.162 150.188C286.746 145.983 290.267 142.689 294.726 140.308C299.235 137.927 304.302 136.736 309.926 136.736C315.55 136.736 320.591 137.927 325.05 140.308C329.559 142.689 333.081 145.983 335.614 150.188C338.198 154.393 339.49 159.131 339.49 164.4C339.49 169.669 338.198 174.407 335.614 178.612C333.081 182.817 329.559 186.111 325.05 188.492C320.591 190.873 315.55 192.064 309.926 192.064ZM309.926 179.6C312.611 179.6 315.043 178.967 317.222 177.7C319.401 176.433 321.123 174.66 322.39 172.38C323.657 170.049 324.29 167.389 324.29 164.4C324.29 161.411 323.657 158.776 322.39 156.496C321.123 154.165 319.401 152.367 317.222 151.1C315.043 149.833 312.611 149.2 309.926 149.2C307.241 149.2 304.809 149.833 302.63 151.1C300.451 152.367 298.729 154.165 297.462 156.496C296.195 158.776 295.562 161.411 295.562 164.4C295.562 167.389 296.195 170.049 297.462 172.38C298.729 174.66 300.451 176.433 302.63 177.7C304.809 178.967 307.241 179.6 309.926 179.6Z" fill="white"/>
<path d="M90.4682 100.247L84.1832 100.786L85.923 121.08L71.2329 122.339L69.4931 102.045L63.2082 102.584L54.574 123.767L37.2336 125.254L49.9199 96.1719L33.5981 72.1703L49.3483 70.8201L61.7152 90.5077L68.4544 89.9299L66.6887 69.3335L81.3788 68.0741L83.1446 88.6705L89.581 88.1188L98.6435 66.594L114.318 65.2502L102.32 91.6797L119.771 118.178L102.506 119.658L90.4682 100.247ZM120.065 64.7576L134.83 63.4917L137.499 94.6135L156.714 61.6156L170.799 60.4081L175.343 113.414L160.577 114.68L157.915 83.6335L138.769 116.549L124.609 117.763L120.065 64.7576ZM222.967 81.4128C226.183 82.1541 228.69 83.5156 230.487 85.4974C232.335 87.4748 233.393 90.0284 233.661 93.1583C234.064 97.853 232.539 101.721 229.088 104.763C225.683 107.75 220.623 109.532 213.909 110.107L186.725 112.438L182.181 59.4323L207.926 57.2252C214.287 56.6799 219.313 57.4695 223.004 59.594C226.741 61.6636 228.797 64.8944 229.174 69.2863C229.395 71.8609 228.958 74.1866 227.865 76.2636C226.822 78.3363 225.19 80.0527 222.967 81.4128ZM198.764 79.3687L208.305 78.5507C212.545 78.1872 214.516 76.2638 214.218 72.7806C213.919 69.2974 211.65 67.7375 207.409 68.1011L197.868 68.919L198.764 79.3687ZM212.381 99.4068C216.723 99.0346 218.736 97.0059 218.42 93.3208C218.112 89.7366 215.788 88.1306 211.447 88.5028L199.634 89.5155L200.569 100.419L212.381 99.4068ZM238.529 54.6016L253.294 53.3357L255.962 84.4576L275.178 51.4596L289.262 50.2522L293.807 103.258L279.041 104.524L276.379 73.4775L257.233 106.393L243.073 107.607L238.529 54.6016Z" fill="white"/>
</svg>
