<svg width="38" height="38" viewBox="0 0 38 38" fill="none" xmlns="http://www.w3.org/2000/svg">
<path d="M29.7332 9.50469L28.1716 8.59055L17.8892 26.1562L10.5736 19.247L9.33115 20.5625L18.3012 29.0343L29.7332 9.50469Z" fill="#BF1985"/>
<path fill-rule="evenodd" clip-rule="evenodd" d="M38 19C38 29.4934 29.4934 38 19 38C8.50659 38 0 29.4934 0 19C0 8.50659 8.50659 0 19 0C29.4934 0 38 8.50659 38 19ZM36.1905 19C36.1905 28.494 28.494 36.1905 19 36.1905C9.50596 36.1905 1.80952 28.494 1.80952 19C1.80952 9.50596 9.50596 1.80952 19 1.80952C28.494 1.80952 36.1905 9.50596 36.1905 19Z" fill="#BF1985"/>
</svg>
