<svg width="30" height="54" viewBox="0 0 30 54" fill="none" xmlns="http://www.w3.org/2000/svg">
<path d="M23.9538 7.20398C24.4282 7.80133 24.781 8.25531 25.146 8.70929C26.6423 10.5969 28.1508 12.4726 29.6229 14.3721C29.8297 14.6469 29.9878 15.0412 29.9878 15.3757C30 26.9164 30 38.469 30 50.0097C30 52.0527 28.7956 53.558 26.8856 53.9403C26.5937 54 26.2774 54 25.9732 54C18.6496 54 11.3382 54 4.0146 54C1.67883 54 0 52.3633 0 50.0575C0 38.469 0 26.8925 0.0121654 15.304C0.0121654 14.9934 0.158151 14.6469 0.352798 14.396C2.0438 12.2336 3.75912 10.0951 5.46229 7.94469C5.62044 7.74159 5.77859 7.5385 6.03406 7.21593C5.08516 7.21593 4.27007 7.21593 3.44282 7.21593C2.68856 7.21593 2.60341 7.12035 2.60341 6.39159C2.60341 4.53982 2.60341 2.68805 2.60341 0.836283C2.60341 0.107522 2.70073 0.0119469 3.44282 0.0119469C11.1922 0 18.9294 0 26.6788 0C27.5547 0 27.6034 0.0477876 27.6034 0.919912C27.6034 2.77168 27.5912 4.62345 27.6156 6.47522C27.6156 7.02478 27.3966 7.22788 26.8613 7.21593C25.9489 7.19204 25.0365 7.20398 23.9538 7.20398ZM28.9659 32.9376C28.9659 27.1673 28.9781 21.3969 28.9538 15.6146C28.9538 15.292 28.82 14.9097 28.6253 14.6469C26.764 12.2695 24.8662 9.90398 22.9927 7.52655C22.7616 7.22788 22.5182 7.09646 22.129 7.09646C17.3479 7.10841 12.5669 7.10841 7.77372 7.09646C7.38443 7.09646 7.15328 7.22788 6.90998 7.52655C5.04866 9.89204 3.16302 12.2336 1.31387 14.5991C1.09489 14.8739 0.948905 15.2681 0.948905 15.6146C0.93674 27.1075 0.93674 38.5885 0.93674 50.0695C0.93674 51.8735 2.09246 53.0084 3.94161 53.0084C11.2652 53.0084 18.5766 53.0084 25.9002 53.0084C27.8467 53.0084 28.9659 51.9093 28.9659 50.0097C28.9659 44.323 28.9659 38.6243 28.9659 32.9376ZM26.5937 3.01062C26.5937 2.50885 26.5572 2.04292 26.6058 1.60088C26.6545 1.08717 26.4355 0.979646 25.9489 0.979646C18.7348 0.991593 11.5207 0.991593 4.31874 0.991593C4.09976 0.991593 3.89294 0.991593 3.64963 0.991593C3.64963 1.70841 3.64963 2.34159 3.64963 3.02257C11.2774 3.01062 18.8808 3.01062 26.5937 3.01062ZM3.67397 4.19336C3.67397 4.91018 3.67397 5.54336 3.67397 6.17655C11.326 6.17655 18.9294 6.17655 26.545 6.17655C26.545 5.48363 26.545 4.85044 26.545 4.19336C18.8929 4.19336 11.3017 4.19336 3.67397 4.19336Z" fill="#828282"/>
<path d="M24.9148 30.6557C24.9148 34.8371 24.9148 39.0185 24.9148 43.1999C24.9148 44.072 24.8662 44.1079 23.9781 44.1079C17.9319 44.1079 11.8978 44.1079 5.85158 44.1079C5.06083 44.1079 4.98783 44.0362 4.98783 43.2477C4.98783 34.8729 4.98783 26.4862 4.98783 18.1114C4.98783 17.299 5.07299 17.2154 5.88808 17.2154C11.91 17.2154 17.9319 17.2154 23.9538 17.2154C24.854 17.2154 24.9148 17.2871 24.9148 18.1712C24.9148 22.3406 24.9148 26.4982 24.9148 30.6557ZM23.8443 43.0924C23.8443 34.8013 23.8443 26.5579 23.8443 18.2787C17.8954 18.2787 11.9951 18.2787 6.05839 18.2787C6.05839 26.5698 6.05839 34.8132 6.05839 43.0924C11.9951 43.0924 17.8954 43.0924 23.8443 43.0924Z" fill="#828282"/>
<path d="M21.3869 30.7035C21.3869 33.6902 21.3869 36.6769 21.3869 39.6636C21.3869 40.3924 21.253 40.5477 20.4988 40.5477C16.8127 40.5596 13.1265 40.5596 9.44039 40.5477C8.73479 40.5477 8.63747 40.4402 8.63747 39.7473C8.63747 33.7021 8.63747 27.6451 8.63747 21.5999C8.63747 20.8831 8.72263 20.7995 9.44039 20.7995C13.1509 20.7995 16.8613 20.7995 20.5596 20.7995C21.2895 20.7995 21.3869 20.907 21.3869 21.6358C21.3869 24.6583 21.3869 27.6809 21.3869 30.7035ZM20.3163 21.7911C20.0487 21.7911 19.8418 21.7911 19.6472 21.7911C16.545 21.7911 13.4428 21.803 10.3406 21.7791C9.79319 21.7791 9.62287 21.8986 9.62287 22.472C9.6472 27.9437 9.63504 33.4154 9.63504 38.8871C9.63504 39.1021 9.65937 39.3052 9.65937 39.5203C13.2482 39.5203 16.764 39.5203 20.3041 39.5203C20.3163 33.6065 20.3163 27.7406 20.3163 21.7911Z" fill="#828282"/>
</svg>
