<svg width="27" height="54" viewBox="0 0 27 54" fill="none" xmlns="http://www.w3.org/2000/svg">
<path d="M5.18226 23.2423C5.18226 22.2513 5.18226 21.3558 5.18226 20.3647C4.92434 20.3647 4.67814 20.3528 4.43194 20.3647C3.90438 20.4005 3.68163 20.1617 3.69335 19.6244C3.70508 18.6334 3.69335 17.6304 3.69335 16.6394C3.69335 16.5081 3.66991 16.3767 3.65818 16.1857C2.6734 16.1857 1.72378 16.1737 0.774161 16.1976C0.234873 16.2096 -0.0113244 16.0185 0.000399258 15.4335C0.0355703 14.3947 0.0121229 13.3678 0.0121229 12.329C0.0121229 11.5887 0.0707412 11.529 0.832779 11.529C3.08372 11.529 5.32294 11.529 7.57389 11.529C7.78491 11.529 7.99594 11.529 8.27731 11.529C8.28903 11.2783 8.31248 11.0753 8.31248 10.8604C8.31248 9.22461 8.31248 7.60075 8.31248 5.96496C8.3242 4.19782 8.91038 2.65755 10.1648 1.40384C12.0875 -0.518521 14.9481 -0.45882 16.8121 1.53518C18.0079 2.81277 18.4886 4.37692 18.5003 6.10824C18.5121 7.68433 18.5003 9.24849 18.5003 10.8246C18.5003 11.0395 18.5238 11.2544 18.5355 11.529C18.7934 11.529 19.0045 11.529 19.2155 11.529C21.525 11.529 23.8229 11.541 26.1324 11.5171C26.6835 11.5171 26.9179 11.6962 26.8945 12.2813C26.871 13.3201 26.8828 14.3469 26.8828 15.3857C26.8828 16.114 26.8007 16.1857 26.0621 16.1857C25.1125 16.1857 24.1511 16.1857 23.1077 16.1857C23.1077 16.9857 23.1077 17.7498 23.1077 18.514C23.1077 18.8722 23.0843 19.2304 23.1077 19.5886C23.1429 20.1498 22.9084 20.4005 22.3457 20.3647C22.0761 20.3408 21.8064 20.3647 21.5133 20.3647C21.5133 21.3438 21.5133 22.2513 21.5133 23.2423C22.2519 23.2423 22.9671 23.2423 23.6822 23.2423C24.5849 23.2423 25.4759 23.2542 26.3786 23.2423C26.789 23.2423 26.9883 23.4214 26.9883 23.8512C26.9883 25.1646 26.9766 26.4781 26.9883 27.7915C26.9883 28.3168 26.7069 28.4124 26.2731 28.4124C24.6904 28.4004 23.1077 28.4124 21.525 28.4124C21.3375 28.4124 21.1499 28.4124 20.9154 28.4124C20.974 29.2601 21.3375 29.8571 21.9354 30.275C22.5685 30.7287 23.2719 31.0869 23.9518 31.481C24.3973 31.7317 24.8546 31.9466 25.2883 32.2212C26.4255 32.9615 27 33.9764 27 35.3973C26.9766 41.3077 26.9883 47.218 26.9883 53.1284C26.9883 53.9164 26.9179 54 26.1676 54C17.7031 54 9.25037 54 0.785885 54C0.105912 54 0.0238466 53.9045 0.0238466 53.2C0.0238466 47.1941 0.0238466 41.1763 0.0238466 35.1705C0.0238466 33.9167 0.586583 32.9735 1.58309 32.3406C2.45065 31.7795 3.40026 31.3377 4.30298 30.8243C5.20571 30.3228 5.9443 29.678 6.10843 28.4601C5.88568 28.4482 5.68638 28.4243 5.48707 28.4124C3.92783 28.4124 2.35686 28.4124 0.797608 28.4124C0.105912 28.4124 0.0355703 28.3288 0.0355703 27.6124C0.0355703 26.4422 0.0355703 25.2602 0.0355703 24.09C0.0355703 23.302 0.0824649 23.2542 0.879674 23.2542C2.27479 23.2423 3.70508 23.2423 5.18226 23.2423ZM0.914845 49.8926C9.26209 49.8926 17.5507 49.8926 25.8745 49.8926C25.8745 45.1763 25.8745 40.4957 25.8745 35.7913C17.539 35.7913 9.23865 35.7913 0.914845 35.7913C0.914845 40.4838 0.914845 45.1524 0.914845 49.8926ZM19.7079 28.484C19.6258 28.4482 19.6141 28.4362 19.5906 28.4362C15.5108 28.4243 11.431 28.4124 7.35114 28.4243C7.21045 28.4243 6.9877 28.6392 6.95253 28.7825C6.75323 29.8452 6.16705 30.6571 5.2995 31.2183C4.49056 31.7436 3.62301 32.1496 2.80236 32.6511C2.32169 32.9377 1.84101 33.26 1.43069 33.6541C1.17277 33.9048 1.04381 34.2988 0.809332 34.7167C9.23865 34.7167 17.4921 34.7167 25.7925 34.7167C25.6166 33.7615 24.9835 33.26 24.2684 32.8421C23.5415 32.4242 22.7795 32.0541 22.0409 31.6481C20.8099 30.9437 19.872 30.0004 19.7079 28.484ZM0.973463 27.3736C9.30899 27.3736 17.539 27.3736 25.769 27.3736C25.769 26.3109 25.769 25.284 25.769 24.2453C25.5463 24.2333 25.3704 24.2214 25.2063 24.2214C18.8169 24.2214 12.4392 24.2214 6.04981 24.2214C4.54918 24.2214 3.03683 24.2214 1.5362 24.2214C1.30173 24.2214 0.985187 24.1259 0.985187 24.5438C0.973463 25.487 0.973463 26.4184 0.973463 27.3736ZM17.3514 11.5052C17.3514 9.34401 17.3983 7.26643 17.328 5.17691C17.2928 4.15006 16.8356 3.21873 16.1673 2.43069C14.655 0.615789 12.2282 0.544148 10.6103 2.25158C9.91862 2.97993 9.37933 3.8635 9.32071 4.86647C9.18003 7.03957 9.18003 9.22461 9.12141 11.4096C9.12141 11.4335 9.1683 11.4693 9.20348 11.5052C11.8999 11.5052 14.6081 11.5052 17.3514 11.5052ZM25.8745 15.1469C25.8745 14.2394 25.8745 13.3917 25.8745 12.5678C17.5507 12.5678 9.28554 12.5678 1.00863 12.5678C1.00863 13.4514 1.00863 14.2753 1.00863 15.1469C9.30899 15.1469 17.5742 15.1469 25.8745 15.1469ZM22.0761 16.2334C16.2728 16.2334 10.5048 16.2334 4.74848 16.2334C4.74848 17.2961 4.74848 18.311 4.74848 19.314C10.5517 19.314 16.308 19.314 22.0761 19.314C22.0761 18.2633 22.0761 17.2603 22.0761 16.2334ZM0.903121 52.9373C9.27382 52.9373 17.5742 52.9373 25.8863 52.9373C25.8863 52.2567 25.8863 51.6239 25.8863 50.9792C17.5507 50.9792 9.23865 50.9792 0.903121 50.9792C0.903121 51.6359 0.903121 52.2687 0.903121 52.9373ZM6.22567 23.1945C11.0206 23.1945 15.757 23.1945 20.4699 23.1945C20.4699 22.2393 20.4699 21.3319 20.4699 20.4125C15.6984 20.4125 10.962 20.4125 6.19049 20.4125C6.19049 21.2244 6.19049 22.0005 6.19049 22.7647C6.20222 22.896 6.21394 23.0393 6.22567 23.1945Z" fill="#BF1985"/>
<path d="M8.59384 46.1554C6.87046 46.1554 5.68637 45.0688 5.75671 43.5405C5.75671 43.4569 5.74499 43.3733 5.78016 43.3017C6.55392 41.8211 7.30424 40.3286 8.1249 38.8719C8.34765 38.4779 8.79314 38.5376 9.07451 38.8958C9.40277 39.3137 9.70759 39.7435 9.97723 40.2092C10.3524 40.8778 10.7041 41.5704 11.0324 42.2629C12.0406 44.424 10.962 46.1554 8.59384 46.1554ZM8.65246 39.8629C8.55867 39.851 8.46488 39.851 8.37109 39.839C7.84353 40.9734 7.2339 42.0838 6.80012 43.2659C6.44841 44.1852 7.03459 44.9613 7.99593 45.0927C8.23041 45.1285 8.46488 45.1285 8.69935 45.1166C10.0007 45.0688 10.6103 44.2449 10.1414 43.0032C9.73104 41.9286 9.15658 40.9137 8.65246 39.8629Z" fill="#BF1985"/>
</svg>
