<svg width="56" height="64" viewBox="0 0 56 64" fill="none" xmlns="http://www.w3.org/2000/svg">
<path d="M24.5996 27.8773C24.5958 28.673 24.9083 29.4376 25.4682 30.003C26.0282 30.5683 26.7898 30.888 27.5855 30.8918C28.3812 30.8957 29.1458 30.5832 29.7112 30.0233C30.2765 29.4633 30.5962 28.7017 30.6 27.906L29.4946 27.9007C29.4922 28.4032 29.2903 28.8842 28.9332 29.2379C28.5762 29.5915 28.0933 29.7888 27.5908 29.7864C27.0883 29.784 26.6073 29.5821 26.2536 29.225C25.9 28.868 25.7027 28.3851 25.7051 27.8826L24.5996 27.8773Z" fill="#7E8284"/>
<path d="M1.06901 60.4479H12.9254C13.5085 62.6831 15.8408 64.0437 18.0761 63.4606C19.3394 63.169 20.4085 62.1972 20.8944 61.031L25.1704 63.6549H30.0296L34.3056 61.031C35.1803 63.169 37.707 64.1408 39.8451 63.2662C41.0113 62.7803 41.9831 61.7113 42.2747 60.4479H54.131C54.7141 60.4479 55.2 59.962 55.2 59.3789V51.993C55.2 49.6606 53.2563 47.7169 50.9239 47.7169C48.5916 47.7169 46.6479 49.6606 46.6479 51.993H42.3718V41.4C42.3718 39.6507 40.9141 38.193 39.1648 38.193H15.8408C14.0915 38.193 12.6338 39.6507 12.6338 41.4V51.993H8.45493C8.45493 49.6606 6.51127 47.7169 4.17887 47.7169C1.84648 47.7169 0 49.6606 0 51.993V59.3789C0 59.962 0.485916 60.4479 1.06901 60.4479ZM29.4465 61.5169H25.7535L21.1859 58.7958V55.2H33.9169V58.7958L29.4465 61.5169ZM47.7169 54.131C48.3 54.131 48.7859 53.6451 48.7859 53.062V51.993C48.7859 50.8268 49.7578 49.8549 50.9239 49.8549C52.0901 49.8549 53.062 50.8268 53.062 51.993V58.3099H42.469V54.0338H47.7169V54.131ZM14.869 41.4C14.869 40.8169 15.3549 40.331 15.938 40.331H39.262C39.8451 40.331 40.331 40.8169 40.331 41.4V59.4761C40.331 60.6423 39.3592 61.6141 38.193 61.6141C37.0268 61.6141 36.0549 60.6423 36.0549 59.4761V44.5099H33.9169V52.9648H21.1859V44.5099H19.0479V59.3789C19.0479 60.5451 18.0761 61.5169 16.9099 61.5169C15.7437 61.5169 14.7718 60.5451 14.7718 59.3789V41.4H14.869ZM2.13803 51.993C2.13803 50.8268 3.10986 49.8549 4.27606 49.8549C5.44225 49.8549 6.41408 50.8268 6.41408 51.993V53.062C6.41408 53.6451 6.9 54.131 7.4831 54.131H12.8282V58.3099H2.13803V51.993Z" fill="#7E8284"/>
<path d="M40.1366 27.5028C42.469 27.0169 43.9268 24.7817 43.4408 22.4493C43.0521 20.5056 41.3028 19.0479 39.262 19.0479H38.5817C37.4155 17.007 35.6662 15.3549 33.6254 14.1887C35.0831 13.4113 36.0549 11.8563 36.0549 10.2042V8.45493C36.0549 7.87183 35.569 7.38592 34.9859 7.38592H31.293C30.3211 7.38592 29.4465 7.67746 28.669 8.16338C28.8634 5.92817 30.6127 4.17887 32.8479 4.17887H34.9859V2.13803H32.8479C31.293 2.13803 29.738 2.72113 28.5718 3.79014V0H26.4338V3.79014C25.2676 2.72113 23.7127 2.13803 22.1577 2.13803H20.0197V4.27606H22.1577C24.393 4.27606 26.2394 6.02535 26.3366 8.26056C25.5592 7.77465 24.6845 7.4831 23.7127 7.4831H20.0197C19.4366 7.4831 18.9507 7.96901 18.9507 8.55211V10.3014C18.9507 11.9535 19.9225 13.5085 21.3803 14.2859C19.3394 15.3549 17.5901 17.1042 16.4239 19.1451H15.7437C13.4113 19.1451 11.5648 21.0887 11.5648 23.4211C11.5648 25.3648 12.9254 27.1141 14.869 27.5028C16.0352 34.4028 22.5465 39.1648 29.4465 37.9986C34.9859 37.1239 39.262 32.8479 40.1366 27.5028ZM31.293 9.52394H33.9169V10.2042C33.8197 11.662 32.6535 12.731 31.293 12.6338H28.669V11.9535C28.669 10.593 29.8352 9.52394 31.293 9.52394ZM21.1859 9.52394H23.8099C25.2676 9.52394 26.4338 10.593 26.4338 11.9535V12.6338H23.8099C22.3521 12.6338 21.1859 11.5648 21.1859 10.2042V9.52394ZM27.6 36.0549C22.0606 36.0549 17.493 31.8761 17.007 26.4338C16.9099 25.8507 16.4239 25.462 15.938 25.462C14.7718 25.462 13.8 24.4901 13.8 23.3239C13.8 22.1577 14.7718 21.1859 15.938 21.1859H17.2014C17.5901 21.1859 17.9789 20.9916 18.1732 20.6028C20.7972 15.3549 27.2113 13.3141 32.4592 15.938C34.5 16.9099 36.0549 18.562 37.1239 20.6028C37.3183 20.9916 37.707 21.1859 38.0958 21.1859H39.3592C40.5254 21.1859 41.4972 22.1577 41.4972 23.3239C41.4972 24.4901 40.5254 25.462 39.3592 25.462C38.7761 25.462 38.3873 25.8507 38.2901 26.4338C37.707 31.8761 33.0423 36.0549 27.6 36.0549Z" fill="#7E8284"/>
<path d="M24.6844 20.2139C24.1013 20.2139 23.7126 20.6998 23.7126 21.1857C23.7126 21.7688 24.1985 22.1575 24.6844 22.1575C25.2675 22.1575 25.6562 21.6716 25.6562 21.1857C25.7534 20.6026 25.2675 20.2139 24.6844 20.2139Z" fill="#7E8284"/>
<path d="M30.4181 22.1575C31.0012 22.1575 31.39 21.6716 31.39 21.1857C31.39 20.6026 30.904 20.2139 30.4181 20.2139C29.835 20.2139 29.4463 20.6998 29.4463 21.1857C29.4463 21.7688 29.9322 22.1575 30.4181 22.1575Z" fill="#7E8284"/>
<path d="M27.6 48.8828C27.0169 48.8828 26.6282 49.3688 26.6282 49.8547C26.6282 50.4378 27.1141 50.8265 27.6 50.8265C28.1831 50.8265 28.5718 50.3406 28.5718 49.8547C28.5718 49.2716 28.1831 48.8828 27.6 48.8828Z" fill="#7E8284"/>
</svg>
