<svg width="50" height="33" viewBox="0 0 50 33" fill="none" xmlns="http://www.w3.org/2000/svg">
<path d="M42.7765 7.16092C39.5034 3.91685 35.6659 1.5677 32.0542 0.56092C28.2731 -0.501792 25.1693 0.00159789 23.1941 1.95923L18.6795 6.4338C17.5508 7.55245 16.93 9.06261 16.8172 10.8524C16.7043 10.8524 16.6479 10.8524 16.535 10.8524C6.94131 10.7965 0 13.705 0 17.6762V25.0592C0 29.0304 6.94131 31.9389 16.4786 31.9389C21.219 31.9389 25.7901 31.2118 29.0632 29.9253C32.2799 31.9389 35.553 33.0016 38.3183 33.0016C40.4063 33.0016 42.2122 32.3863 43.5102 31.0999L48.0248 26.6253C52.0316 22.6541 49.6614 13.9846 42.7765 7.16092ZM23.9842 2.68634L46.7269 26.2338C45.0339 27.4643 42.5508 27.688 39.5598 26.8491C36.1174 25.8982 32.4492 23.6609 29.2889 20.5287C22.8555 14.2084 20.4853 6.21007 23.9842 2.68634ZM16.4786 11.9152C16.5914 11.9152 16.6479 11.9152 16.7607 11.9152C16.8736 15.2711 18.5666 19.3541 21.5576 23.1575C19.921 23.3253 18.228 23.4372 16.535 23.4372C6.94131 23.4372 1.1851 20.5287 1.1851 17.6762C1.12867 14.8236 6.88488 11.9152 16.4786 11.9152ZM16.4786 30.8202C6.88488 30.8202 1.12867 27.9118 1.12867 25.0592V20.305C3.44244 22.8779 9.19865 24.5558 16.4786 24.5558C18.5102 24.5558 20.4853 24.444 22.4041 24.1643C22.912 24.7236 23.4199 25.283 23.9278 25.8423C25.2257 27.1287 26.5237 28.1914 27.9345 29.1423C24.8307 30.205 20.7675 30.8202 16.4786 30.8202ZM42.7765 30.2609C41.14 31.883 38.3747 32.2745 35.0451 31.3796C31.6027 30.4287 27.9345 28.1914 24.7743 25.0592C18.3409 18.683 15.9707 10.6287 19.4695 7.16092L21.4447 5.20329C20.5418 9.62194 23.1377 16.0541 28.4424 21.3677C33.8036 26.6253 40.237 29.1982 44.7517 28.3033L42.7765 30.2609ZM47.5169 25.5067L24.8307 2.01516C26.5237 0.952445 28.8939 0.840581 31.7156 1.62363C35.158 2.57448 38.8262 4.81177 41.9865 7.94397C45.1467 11.0762 47.4041 14.6558 48.3634 18.1236C49.2664 21.2558 48.9278 23.8287 47.5169 25.5067Z" fill="#7E8284"/>
</svg>
