<?xml version="1.0" encoding="utf-8"?>
<!-- Generator: Adobe Illustrator 15.0.0, SVG Export Plug-In . SVG Version: 6.00 Build 0)  -->
<!DOCTYPE svg PUBLIC "-//W3C//DTD SVG 1.1//EN" "http://www.w3.org/Graphics/SVG/1.1/DTD/svg11.dtd">
<svg version="1.1" id="Layer_1" xmlns="http://www.w3.org/2000/svg" xmlns:xlink="http://www.w3.org/1999/xlink" x="0px" y="0px"
	 width="18px" height="18px" viewBox="0 0 18 18" enable-background="new 0 0 18 18" xml:space="preserve">
<g>
	<g>
		<g>
			<path fill="#0F3B84" d="M1.611,8.486c-0.158,0-0.289-0.128-0.289-0.287V6.428c0-0.162,0.131-0.289,0.289-0.289
				c0.16,0,0.289,0.127,0.289,0.289v1.771C1.9,8.358,1.771,8.486,1.611,8.486L1.611,8.486z"/>
		</g>
	</g>
	<g>
		<path fill="none" d="M2.691,5.742V5.694C2.222,5.911,1.936,6.163,1.936,6.386c0,0.541,1.62,1.297,4.259,1.297
			c0.091,0,0.173-0.014,0.263-0.016c0.022-0.029,0.044-0.06,0.067-0.089C4.525,7.419,2.691,6.788,2.691,5.742z"/>
	</g>
	<g>
		<path fill="none" d="M7.527,2.651c-2.639,0-4.259,0.757-4.259,1.297c0,0.544,1.62,1.299,4.259,1.299
			c2.641,0,4.263-0.755,4.263-1.299C11.79,3.408,10.167,2.651,7.527,2.651z"/>
	</g>
	<g>
		<path fill="#0F3B84" d="M2.714,5.684c-0.007,0.004-0.016,0.007-0.023,0.01v0.048C2.691,5.719,2.709,5.705,2.714,5.684z"/>
	</g>
	<g>
		<path fill="#0F3B84" d="M3.23,5.175c0.047,0.129-0.019,0.257-0.132,0.328c0.095,0.047,0.17,0.125,0.17,0.239V4.871
			C2.915,4.617,2.701,4.316,2.693,3.967c0,0.002-0.002,0.003-0.002,0.006v1.093C2.749,5.044,2.798,5.02,2.862,4.998
			C3.01,4.945,3.177,5.024,3.23,5.175z"/>
	</g>
	<g>
		<path fill="#0F3B84" d="M2.691,11.141c0,0.082,0.038,0.154,0.094,0.207c-0.058-0.117-0.094-0.238-0.094-0.367V11.141z"/>
	</g>
	<g>
		<path fill="#0F3B84" d="M2.979,10.694c0.161,0,0.289,0.125,0.289,0.287v-0.875c-0.176-0.129-0.326-0.264-0.42-0.412
			C2.817,9.647,2.821,9.594,2.82,9.542C2.788,9.53,2.756,9.518,2.725,9.505c-0.01,0.029-0.034,0.051-0.034,0.083v1.392
			C2.691,10.819,2.82,10.694,2.979,10.694z"/>
	</g>
	<g>
		<path fill="#0F3B84" d="M5.387,10.29c-0.594-0.114-1.078-0.269-1.432-0.443C3.717,9.8,3.485,9.748,3.268,9.687v0.419
			c0.461,0.334,1.18,0.598,2.072,0.762C5.346,10.674,5.362,10.481,5.387,10.29z"/>
	</g>
	<g>
		<path fill="#0F3B84" d="M2.82,9.542c0.001,0.052-0.003,0.105,0.028,0.152c0.094,0.147,0.244,0.283,0.42,0.412V9.687
			C3.111,9.643,2.963,9.594,2.82,9.542z"/>
	</g>
	<g>
		<path fill="#0F3B84" d="M2.911,9.327c0.011-0.009,0.011-0.025,0.023-0.034c0.133-0.087,0.312-0.047,0.4,0.088
			c0.1,0.157,0.318,0.316,0.62,0.464c0.467,0.09,0.966,0.15,1.473,0.182c0.035-0.196,0.08-0.389,0.135-0.577
			c-2.256-0.11-3.626-0.778-3.626-1.275c0-0.16-0.128-0.289-0.289-0.289c-0.158,0-0.289,0.128-0.289,0.289
			c0,0.569,0.547,1.014,1.367,1.329C2.755,9.415,2.819,9.353,2.911,9.327z"/>
	</g>
	<g>
		<path fill="#0F3B84" d="M2.911,9.327C2.819,9.353,2.755,9.415,2.725,9.505C2.756,9.518,2.788,9.53,2.82,9.542
			C2.819,9.459,2.846,9.385,2.911,9.327z"/>
	</g>
	<g>
		<path fill="#0F3B84" d="M3.268,9.589v0.098C3.485,9.748,3.717,9.8,3.955,9.846c-0.302-0.148-0.52-0.307-0.62-0.464
			c-0.089-0.136-0.268-0.175-0.4-0.088C2.922,9.302,2.921,9.318,2.911,9.327c0.024-0.006,0.042-0.028,0.069-0.028
			C3.14,9.299,3.268,9.427,3.268,9.589z"/>
	</g>
	<g>
		<path fill="#0F3B84" d="M3.268,9.589c0-0.162-0.128-0.29-0.289-0.29c-0.027,0-0.044,0.022-0.069,0.028
			C2.846,9.385,2.819,9.459,2.82,9.542c0.143,0.052,0.291,0.101,0.448,0.145V9.589z"/>
	</g>
	<g>
		<path fill="#0F3B84" d="M3.268,4.871V3.973c0-0.162-0.128-0.29-0.289-0.29c-0.157,0-0.283,0.126-0.287,0.284
			C2.701,4.316,2.915,4.617,3.268,4.871z"/>
	</g>
	<g>
		<path fill="#0F3B84" d="M3.268,5.742c0,0.16-0.128,0.288-0.289,0.288c-0.16,0-0.289-0.128-0.289-0.288
			c0,1.046,1.834,1.677,3.834,1.836c0.152-0.195,0.313-0.382,0.488-0.556C4.687,6.931,3.268,6.247,3.268,5.742z"/>
	</g>
	<g>
		<path fill="#0F3B84" d="M2.979,6.03c0.161,0,0.289-0.128,0.289-0.288c0-0.114-0.075-0.192-0.17-0.239
			c-0.018,0.011-0.024,0.032-0.044,0.04C2.928,5.586,2.822,5.635,2.714,5.684C2.709,5.705,2.691,5.719,2.691,5.742
			C2.691,5.901,2.82,6.03,2.979,6.03z"/>
	</g>
	<g>
		<path fill="#0F3B84" d="M12.077,3.683c-0.16,0-0.287,0.128-0.287,0.29v0.897c0.354-0.254,0.566-0.555,0.574-0.903
			C12.36,3.809,12.233,3.683,12.077,3.683z"/>
	</g>
	<g>
		<path fill="#0F3B84" d="M3.268,10.981v0.16c0,0.158-0.128,0.289-0.289,0.289c-0.076,0-0.143-0.035-0.194-0.082
			c0.315,0.631,1.426,1.086,2.787,1.322c-0.06-0.199-0.107-0.406-0.145-0.615C4.085,11.788,3.268,11.329,3.268,10.981z"/>
	</g>
	<g>
		<path fill="#0F3B84" d="M3.268,11.141v-0.16c0-0.162-0.128-0.287-0.289-0.287c-0.16,0-0.289,0.125-0.289,0.287
			c0,0.129,0.036,0.25,0.094,0.367c0.051,0.047,0.118,0.082,0.194,0.082C3.14,11.43,3.268,11.299,3.268,11.141z"/>
	</g>
	<g>
		<path fill="#0F3B84" d="M6.195,7.683c-2.64,0-4.259-0.757-4.259-1.297c0-0.223,0.286-0.475,0.755-0.692V5.066
			C1.604,5.494,1.358,6.014,1.358,6.386c0,1.197,2.403,1.85,4.71,1.873c0.117-0.206,0.249-0.402,0.39-0.592
			C6.369,7.669,6.286,7.683,6.195,7.683z"/>
	</g>
	<g>
		<path fill="#0F3B84" d="M2.714,5.684c0.029-0.128,0.128-0.23,0.265-0.23c0.046,0,0.08,0.029,0.119,0.049
			c0.113-0.07,0.179-0.199,0.132-0.328c-0.053-0.151-0.22-0.23-0.368-0.177C2.798,5.02,2.749,5.044,2.691,5.066v0.627
			C2.698,5.691,2.707,5.688,2.714,5.684z"/>
	</g>
	<g>
		<path fill="#0F3B84" d="M3.098,5.502c-0.039-0.02-0.072-0.049-0.119-0.049c-0.137,0-0.236,0.103-0.265,0.23
			c0.107-0.049,0.213-0.098,0.339-0.142C3.074,5.535,3.081,5.513,3.098,5.502z"/>
	</g>
	<g>
		<g>
			<path fill="#0F3B84" d="M11.79,4.871v0.581c0.195,0.028,0.387,0.065,0.574,0.113c0-0.002,0.002-0.003,0.002-0.005V3.973
				c0-0.002-0.002-0.003-0.002-0.006C12.356,4.316,12.143,4.617,11.79,4.871z"/>
		</g>
		<g>
			<path fill="#0F3B84" d="M12.077,3.683c0.156,0,0.283,0.126,0.287,0.284c0-0.006,0.002-0.012,0.002-0.019
				c0-1.217-2.492-1.872-4.839-1.872c-2.344,0-4.836,0.655-4.836,1.872c0,0.006,0.002,0.012,0.002,0.019
				c0.004-0.158,0.129-0.284,0.287-0.284c0.161,0,0.289,0.128,0.289,0.29v0.897c0.871,0.625,2.6,0.956,4.259,0.956
				c0.516,0,1.037-0.033,1.539-0.096c0.563-0.07,1.098-0.179,1.567-0.325c0.461-0.143,0.857-0.321,1.156-0.535V3.973
				C11.79,3.811,11.917,3.683,12.077,3.683z M7.527,5.248c-2.639,0-4.259-0.755-4.259-1.299c0-0.541,1.62-1.297,4.259-1.297
				c2.641,0,4.263,0.757,4.263,1.297C11.79,4.493,10.167,5.248,7.527,5.248z"/>
		</g>
	</g>
	<g>
		<path fill="#0F3B84" d="M10.983,6.131c-1.045,0-2.011,0.333-2.807,0.889C7.927,7.194,7.694,7.389,7.481,7.605
			c0.076-0.008,0.134,0.014,0.045,0.014c-0.019,0-0.037-0.001-0.056-0.001C7.292,7.802,7.129,8.002,6.98,8.212
			c-0.27,0.381-0.473,0.806-0.626,1.255c-0.065,0.193-0.14,0.382-0.181,0.584c-0.023,0.114-0.021,0.236-0.036,0.353
			c-0.025,0.188-0.055,0.377-0.058,0.572c0,0.023-0.006,0.041-0.006,0.064c0,0.393,0.059,0.771,0.146,1.139
			c0.049,0.207,0.113,0.41,0.188,0.605c0.704,1.848,2.48,3.17,4.575,3.17c2.719-0.004,4.916-2.203,4.916-4.914
			C15.899,8.327,13.702,6.131,10.983,6.131z M13.327,10.792h-1.445c-0.156,0.143-0.316,0.273-0.473,0.408h1.859l-0.061,0.662h-2.563
			c-0.255,0.258-0.428,0.51-0.433,0.758c-0.002,0.563,0.467,0.809,1.309,0.779c0.836-0.027,1.678-0.389,1.678-0.389l-0.104,1.242
			c0.006-0.043-0.578,0.289-1.969,0.275c-1.389-0.016-2.502-0.666-2.488-1.867c0.002-0.287,0.102-0.549,0.258-0.799H8.433
			l0.055-0.666h0.988c0.15-0.139,0.307-0.271,0.466-0.404H8.547l0.056-0.666h2.14c0.342-0.318,0.588-0.619,0.6-0.941
			c0.006-0.303-0.262-0.767-1.086-0.78c-0.826-0.019-1.49,0.29-1.49,0.29l0.086-1.201c0,0,0.667-0.236,1.693-0.206
			c1.029,0.03,2.375,0.495,2.375,1.782c0,0.386-0.164,0.73-0.408,1.056h0.869L13.327,10.792z"/>
	</g>
	<g>
		<path fill="#0F3B84" d="M14.879,18H3.12C1.4,18,0,16.6,0,14.881V3.12C0,1.4,1.4,0,3.12,0h11.759C16.6,0,18,1.4,18,3.12v11.761
			C18,16.6,16.6,18,14.879,18z M3.12,0.643c-1.366,0-2.477,1.111-2.477,2.477v11.761c0,1.365,1.111,2.475,2.477,2.475h11.759
			c1.365,0,2.477-1.109,2.477-2.475V3.12c0-1.366-1.111-2.477-2.477-2.477H3.12z"/>
	</g>
</g>
</svg>
