<svg width="34" height="34" viewBox="0 0 34 34" fill="none" xmlns="http://www.w3.org/2000/svg">
<path d="M8.94547 32.8943C5.78266 31.0696 5.5346 26.6652 7.39508 23.4563L7.51911 22.7013H21.7207L17.8137 29.5595C15.9533 32.7685 12.1083 34.719 8.94547 32.8943Z" fill="#5065A7"/>
<path d="M26.993 1.18283C30.1559 3.0075 30.4039 7.41189 28.5434 10.6208L28.1714 11.3758H14.2178L18.1248 4.51758C19.9853 1.30867 23.8923 -0.641847 26.993 1.18283Z" fill="#5576AA"/>
<path d="M28.108 11.3757L17.8134 29.5595C16.5111 31.8876 14.0924 33.5864 11.6738 33.5864L24.3251 33.6493C26.2476 33.6493 28.046 32.6426 28.9763 30.9438L33.9995 22.135L28.108 11.3757Z" fill="#9FD0DB"/>
<path d="M0.697679 19.7441C-0.23256 18.0453 -0.23256 15.9689 0.697679 14.2701L7.0233 3.13329C8.01556 1.43445 9.752 0.427734 11.6745 0.427734L24.3257 0.490654C21.9071 0.553574 19.4885 2.18949 18.1862 4.51752L7.3954 23.4564C6.09306 25.7844 5.845 28.7416 7.0233 30.8809L0.697679 19.7441Z" fill="#6EABE1"/>
</svg>
