<?xml version="1.0" encoding="utf-8"?>
<!-- Generator: Adobe Illustrator 15.0.2, SVG Export Plug-In . SVG Version: 6.00 Build 0)  -->
<!DOCTYPE svg PUBLIC "-//W3C//DTD SVG 1.1//EN" "http://www.w3.org/Graphics/SVG/1.1/DTD/svg11.dtd">
<svg version="1.1" id="Layer_1" xmlns="http://www.w3.org/2000/svg" xmlns:xlink="http://www.w3.org/1999/xlink" x="0px" y="0px"
	 width="69px" height="69px" viewBox="0 0 69 69" enable-background="new 0 0 69 69" xml:space="preserve">
<path fill="#234D7D" d="M59.156,59.155c-5.059,5.058-13.234,5.113-18.225,0.123L10.721,29.067c-4.99-4.99-4.935-13.166,0.123-18.225
	c5.058-5.058,13.234-5.113,18.224-0.123l30.212,30.212C64.27,45.922,64.214,54.098,59.156,59.155L59.156,59.155z M27.563,12.225
	C23.625,8.286,17.314,8.11,13.064,11.66l1.456,1.456l-1.505,1.505l-1.446-1.449c-3.457,4.25-3.247,10.485,0.657,14.39l7.583,7.584
	l15.337-15.337L27.563,12.225L27.563,12.225z M36.63,21.295L21.292,36.632L33.37,48.706l15.337-15.337L36.63,21.295L36.63,21.295z
	 M57.774,42.437l-7.584-7.584L34.854,50.189l7.584,7.584c3.904,3.904,10.14,4.114,14.39,0.66l-1.449-1.449l1.505-1.505l1.459,1.455
	C61.889,52.685,61.713,46.375,57.774,42.437L57.774,42.437z M44.654,35.893l-8.762,8.761c-1.375,1.379-3.599,1.392-4.956,0.034
	l-5.625-5.622c-1.357-1.36-1.341-3.584,0.034-4.959l8.762-8.762c1.375-1.376,3.599-1.392,4.956-0.034l5.625,5.625
	C46.046,32.293,46.03,34.517,44.654,35.893L44.654,35.893z M43.184,32.44l-5.625-5.625c-0.537-0.54-1.422-0.533-1.968,0.013
	l-8.762,8.765c-0.546,0.546-0.552,1.428-0.012,1.968l5.625,5.622c0.537,0.54,1.419,0.533,1.968-0.013l8.762-8.762
	C43.717,33.863,43.723,32.978,43.184,32.44L43.184,32.44z M18.974,32.817l-1.487-1.486l1.607-1.604l1.483,1.483L18.974,32.817
	L18.974,32.817z M22.082,29.705l-1.486-1.483l1.505-1.505l1.487,1.483L22.082,29.705L22.082,29.705z M25.092,26.695l-1.486-1.483
	l1.606-1.604l1.483,1.483L25.092,26.695L25.092,26.695z M28.201,23.587l-1.483-1.483l1.505-1.506l1.483,1.483L28.201,23.587
	L28.201,23.587z M31.211,20.576l-1.483-1.483l1.604-1.606l1.483,1.486L31.211,20.576L31.211,20.576z M12.935,26.778l-1.484-1.483
	l1.604-1.606l1.483,1.486L12.935,26.778L12.935,26.778z M16.043,23.67l-1.483-1.486l1.505-1.506l1.483,1.487L16.043,23.67
	L16.043,23.67z M19.054,20.659l-1.483-1.486l1.604-1.604l1.486,1.483L19.054,20.659L19.054,20.659z M22.163,17.548l-1.483-1.483
	l1.505-1.505l1.483,1.486L22.163,17.548L22.163,17.548z M25.172,14.541l-1.483-1.486l1.604-1.604l1.487,1.483L25.172,14.541
	L25.172,14.541z M17.607,28.24l-1.483-1.483l1.505-1.505l1.483,1.483L17.607,28.24L17.607,28.24z M20.617,25.233l-1.483-1.486
	l1.505-1.505l1.483,1.486L20.617,25.233L20.617,25.233z M23.726,22.121l-1.483-1.482l1.505-1.506l1.483,1.483L23.726,22.121
	L23.726,22.121z M26.736,19.111l-1.484-1.483l1.505-1.505l1.483,1.483L26.736,19.111L26.736,19.111z M11.572,22.205l-1.487-1.487
	l1.505-1.505l1.484,1.487L11.572,22.205L11.572,22.205z M14.579,19.194l-1.483-1.483l1.505-1.505l1.483,1.483L14.579,19.194
	L14.579,19.194z M17.69,16.086L16.204,14.6l1.505-1.505l1.487,1.486L17.69,16.086L17.69,16.086z M20.7,13.076l-1.486-1.487
	l1.505-1.505l1.483,1.486L20.7,13.076L20.7,13.076z M38.668,52.512l-1.483-1.483l1.604-1.606l1.483,1.486L38.668,52.512
	L38.668,52.512z M41.777,49.403l-1.483-1.486l1.505-1.505l1.483,1.486L41.777,49.403L41.777,49.403z M44.787,46.394l-1.483-1.486
	l1.604-1.604l1.486,1.483L44.787,46.394L44.787,46.394z M47.896,43.281l-1.484-1.483l1.506-1.505l1.483,1.486L47.896,43.281
	L47.896,43.281z M50.906,40.274l-1.483-1.486l1.604-1.604l1.486,1.483L50.906,40.274L50.906,40.274z M44.707,58.551l-1.486-1.486
	l1.606-1.604l1.483,1.483L44.707,58.551L44.707,58.551z M47.815,55.439l-1.483-1.484l1.502-1.505l1.487,1.484L47.815,55.439
	L47.815,55.439z M50.826,52.429l-1.486-1.483l1.606-1.604l1.483,1.483L50.826,52.429L50.826,52.429z M53.935,49.32l-1.483-1.483
	l1.505-1.505l1.483,1.483L53.935,49.32L53.935,49.32z M56.944,46.311l-1.483-1.484l1.604-1.606l1.483,1.486L56.944,46.311
	L56.944,46.311z M43.242,53.875l-1.483-1.483l1.505-1.505l1.483,1.483L43.242,53.875L43.242,53.875z M46.252,50.868l-1.483-1.486
	l1.505-1.505l1.483,1.486L46.252,50.868L46.252,50.868z M49.361,47.757l-1.483-1.483l1.505-1.506l1.483,1.483L49.361,47.757
	L49.361,47.757z M52.371,44.746l-1.483-1.483l1.505-1.505l1.483,1.483L52.371,44.746L52.371,44.746z M49.281,59.914l-1.487-1.483
	l1.505-1.505l1.487,1.483L49.281,59.914L49.281,59.914z M52.291,56.904l-1.486-1.484l1.505-1.505l1.486,1.483L52.291,56.904
	L52.291,56.904z M55.399,53.795l-1.483-1.486l1.505-1.502l1.483,1.483L55.399,53.795L55.399,53.795z M58.41,50.785l-1.487-1.483
	l1.506-1.505l1.486,1.483L58.41,50.785L58.41,50.785z M33.466,41.089l-4.556-4.553l7.624-7.623l4.556,4.552L33.466,41.089
	L33.466,41.089z M36.516,31.901l-4.613,4.613l1.582,1.586l4.613-4.617L36.516,31.901L36.516,31.901z M59.279,29.067L29.067,59.278
	c-4.99,4.99-13.166,4.935-18.224-0.123S5.73,45.922,10.721,40.932L40.932,10.72c4.99-4.99,13.166-4.935,18.225,0.123
	C64.214,15.901,64.27,24.077,59.279,29.067L59.279,29.067z M12.226,42.437c-3.938,3.938-4.114,10.248-0.567,14.498l1.514,1.499
	c4.25,3.454,10.486,3.244,14.39-0.66l7.584-7.584L19.809,34.853L12.226,42.437L12.226,42.437z M21.292,33.369L36.63,48.706
	l12.077-12.074L33.37,21.295L21.292,33.369L21.292,33.369z M58.432,13.172l-1.496-1.512c-4.25-3.55-10.56-3.374-14.498,0.564
	l-7.584,7.584L50.19,35.146l7.584-7.584C61.679,23.657,61.889,17.422,58.432,13.172L58.432,13.172z"/>
</svg>
