<svg width="40" height="40" viewBox="0 0 40 40" fill="none" xmlns="http://www.w3.org/2000/svg">
<path d="M31.2981 10.0049L29.6543 9.04269L18.8308 27.5328L11.1301 20.26L9.82226 21.6448L19.2645 30.5624L31.2981 10.0049Z" fill="#FFE500"/>
<path fill-rule="evenodd" clip-rule="evenodd" d="M40 20C40 31.0457 31.0457 40 20 40C8.95431 40 0 31.0457 0 20C0 8.95431 8.95431 0 20 0C31.0457 0 40 8.95431 40 20ZM38.0952 20C38.0952 29.9937 29.9937 38.0952 20 38.0952C10.0063 38.0952 1.90476 29.9937 1.90476 20C1.90476 10.0063 10.0063 1.90476 20 1.90476C29.9937 1.90476 38.0952 10.0063 38.0952 20Z" fill="#FFE500"/>
</svg>
