<svg width="102" height="139" viewBox="0 0 102 139" fill="none" xmlns="http://www.w3.org/2000/svg">
<path d="M71 136H99V108" stroke="#FFE500" stroke-width="6" stroke-linecap="round" stroke-linejoin="round"/>
<circle cx="77" cy="69" r="22" fill="#FFE500"/>
<path d="M87 65.2876L86.3783 61.9148C86.2539 61.4151 85.8809 61.0403 85.3835 61.0403C85.1348 61.0403 84.8862 61.0403 84.6375 61.1653C84.1401 59.0416 83.1454 57.1678 81.5289 55.6688H85.7566C85.8809 55.6688 86.0053 55.6688 86.1296 55.5439C86.5026 55.4189 86.627 55.0442 86.627 54.6694V33.9327C86.627 24.189 78.669 16.1941 68.9702 16.1941C59.2715 16.1941 51.4378 24.189 51.4378 33.9327L51.0648 48.9231C50.9405 48.7982 50.8161 48.6733 50.6918 48.6733L43.1068 45.6752L41.8634 45.1755L41.366 41.9276C48.8266 39.3043 52.6813 31.0596 50.0701 23.5644C47.4588 16.0692 39.2522 12.1966 31.7916 14.82C24.331 17.4433 20.4764 25.688 23.0876 33.1832C24.5797 37.3056 27.6883 40.4286 31.7916 41.9276L31.1699 45.1755L30.0508 45.6752L22.4658 48.6733C22.2172 48.7982 21.9685 49.048 21.8441 49.4228C18.3625 50.672 16 54.0448 16 57.7924V77.0301C16 80.5279 18.1138 83.7758 21.3468 85.1499C21.0981 91.3959 20.9737 99.7655 20.9737 102.139C20.9737 106.636 21.3468 111.133 22.2172 115.505C22.3415 116.005 22.7145 116.255 23.2119 116.255H23.8336V120.127C23.8336 122.251 25.4501 123.875 27.5639 123.875H28.31C30.4238 123.875 32.0403 122.251 32.0403 120.127V116.13H32.5377C33.035 116.13 33.4081 115.755 33.5324 115.256L36.641 98.0167L39.6252 115.381C39.7496 115.88 40.1226 116.255 40.62 116.255H41.1173V120.252C41.1173 122.376 42.7338 124 44.8476 124H45.5937C47.7075 124 49.324 122.376 49.324 120.252V116.255H49.9457C50.4431 116.255 50.8161 115.88 50.9405 115.505C51.8109 111.133 52.1839 106.636 52.1839 102.139C52.1839 99.8904 52.0595 91.5208 51.8109 85.2748L51.5622 83.0263L51.1891 80.1531V63.164L52.4326 63.6637C52.4326 63.9135 52.4326 64.0384 52.4326 64.2883V79.2787C52.4326 81.5272 53.0543 83.7758 54.4221 85.7745L53.676 106.261C53.676 106.761 54.049 107.261 54.6708 107.261H58.7741V119.753C58.8984 122.001 60.8879 123.75 63.1261 123.625C65.2399 123.5 66.8564 121.876 66.9807 119.753V107.261H70.4623V119.753C70.5867 122.001 72.5762 123.75 74.8144 123.625C76.9282 123.5 78.5447 121.876 78.669 119.753V107.261H82.7723C83.2697 107.261 83.7671 106.761 83.7671 106.261L83.021 85.7745C84.3888 83.9007 85.0105 81.6521 85.0105 79.2787V70.0346H85.3835C85.8809 70.0346 86.2539 69.6598 86.3783 69.1601L87 65.6624C87 65.5375 87 65.4125 87 65.2876ZM21.9685 80.1531L21.7198 83.0263C19.606 81.7771 18.2382 79.5285 18.2382 77.0301V57.6675C18.2382 55.0442 19.7303 52.6707 22.0928 51.5464L21.9685 80.1531ZM84.6375 67.786C83.394 66.9116 83.1454 65.0378 84.0158 63.7886C84.1401 63.5387 84.3888 63.4138 84.6375 63.164L85.0105 65.4125L84.6375 67.786ZM72.9492 53.6701V48.9231C74.9387 48.2985 76.9282 47.1742 78.4203 45.8001V47.6739C78.4203 49.5477 80.7828 51.9212 82.8967 53.6701H72.9492ZM64.8669 49.048V53.6701H54.6708C56.9089 51.7963 59.5201 49.2979 59.5201 47.6739V46.4247C61.1366 47.549 63.0017 48.5483 64.8669 49.048ZM59.6445 43.6765V37.4305C67.9755 37.1806 75.1874 34.5573 78.5447 31.0596V43.0519C74.0683 48.4234 66.2347 49.2979 60.7636 44.8007C60.3905 44.3011 60.0175 43.9263 59.6445 43.6765ZM62.8774 55.5439H65.986C66.4834 55.5439 66.9807 55.0442 66.9807 54.5445V49.4228C67.6025 49.5477 68.2242 49.5477 68.8459 49.5477C69.5919 49.5477 70.338 49.4228 71.0841 49.2979V54.5445C71.0841 55.0442 71.5814 55.5439 72.0788 55.5439H74.8144V58.9167H63.0017V55.5439H62.8774ZM53.303 33.9327C53.5517 25.1883 60.7636 18.3177 69.4676 18.5676C77.7986 18.9423 84.5131 25.5631 84.7618 33.9327V52.5458C82.5236 50.672 80.5342 48.4234 80.5342 47.549V26.5624C80.5342 26.0628 80.0368 25.5631 79.5394 25.5631C79.042 25.5631 78.5447 26.0628 78.5447 26.5624C78.5447 31.1845 69.0946 35.4318 58.6497 35.4318C58.1524 35.4318 57.655 35.9314 57.655 36.4311V47.6739C57.655 48.4234 55.5412 50.5471 52.8056 52.6707L53.303 33.9327ZM43.1068 47.7988L44.3503 48.4234L44.2259 51.7963L42.8581 50.5471C42.6095 50.2972 42.2364 50.1723 41.8634 50.4221H41.7391L43.1068 47.7988ZM41.8634 59.6662C42.3608 59.6662 42.7338 59.2915 42.8581 58.7918L43.1068 53.5451L44.4746 54.7943C44.8476 55.1691 45.4694 55.1691 45.8424 54.6694C45.9667 54.5445 46.0911 54.2947 46.0911 54.0448L46.2154 48.9231L49.1996 50.1723V79.1537H37.5114V59.6662H41.8634ZM31.9159 47.0493L32.5377 46.7995C32.9107 46.6745 33.035 46.4247 33.1594 46.0499L33.7811 42.4273C35.6462 42.802 37.6357 42.802 39.6252 42.4273L40.1226 45.925C40.1226 46.2998 40.3713 46.5496 40.7443 46.6745L41.4904 47.0493L36.641 56.6681L31.9159 47.0493ZM35.0245 57.7924H32.289L31.9159 51.7963L35.0245 57.7924ZM41.2417 51.6713L40.8687 57.6675H38.1331L41.2417 51.6713ZM36.5166 15.8193C42.9825 15.8193 48.4536 20.941 48.8266 27.4369C46.0911 26.9372 44.1016 24.5637 44.1016 21.8155C44.1016 21.3158 43.6042 20.8161 43.1068 20.8161H29.9264C29.4291 20.8161 28.9317 21.3158 28.9317 21.8155C28.9317 24.5637 26.9422 26.9372 24.2067 27.4369C24.5797 20.941 30.0508 15.8193 36.5166 15.8193ZM24.331 29.5605C27.6883 29.0608 30.4238 26.3126 30.9212 22.9398H42.4851C42.8581 26.4375 45.5937 29.0608 49.0753 29.5605C48.4536 36.4311 42.3608 41.303 35.5219 40.6784C29.4291 40.0538 24.8284 35.4318 24.331 29.5605ZM30.0508 47.7988L31.4186 50.5471H31.2942C30.9212 50.4221 30.5482 50.4221 30.2995 50.672L28.9317 51.9212L28.8074 48.5483L30.0508 47.7988ZM23.8336 50.1723L26.8179 48.9231L26.9422 54.0448C26.9422 54.5445 27.4396 55.0442 27.937 55.0442C28.1856 55.0442 28.4343 54.9193 28.5587 54.7943L29.9264 53.5451L30.2995 58.7918C30.2995 59.2915 30.7968 59.6662 31.2942 59.6662L35.5219 59.7911V79.2787H23.8336V50.1723ZM28.31 121.876H27.6883C26.8179 121.876 26.0718 121.252 25.9475 120.252H30.1751C30.0508 121.127 29.3047 121.876 28.31 121.876ZM30.0508 118.379H25.9475V116.13H30.1751L30.0508 118.379ZM45.4693 121.876H44.7233C43.8529 121.876 43.1068 121.252 42.9825 120.252H47.2102C47.0858 121.127 46.3398 121.876 45.4693 121.876ZM47.2102 118.379H42.9825V116.13H47.2102V118.379ZM48.951 114.131H41.2417L37.5114 91.8956C37.387 91.3959 36.8897 91.0211 36.3923 91.1461C36.0193 91.271 35.6462 91.5208 35.6462 91.8956L31.9159 114.131H24.2067C23.4606 110.134 23.2119 106.012 23.2119 102.014C23.2119 99.6406 23.3363 90.7713 23.5849 84.5253L23.958 81.1525H49.4483L49.8214 84.4004C50.07 90.6464 50.1944 99.5157 50.1944 101.889C50.0701 106.012 49.697 110.134 48.951 114.131ZM51.1891 60.9154V55.4189L51.3135 55.5439C51.4378 55.6688 51.6865 55.6688 51.8109 55.6688H55.9142C54.2977 57.2927 53.1786 59.4164 52.8056 61.6649L51.1891 60.9154ZM54.6708 80.278V81.1525C54.5464 80.5279 54.4221 79.7783 54.4221 79.1537V64.1633C54.4221 59.4164 57.1576 55.5439 60.5149 55.5439H60.7636V59.1665C58.4011 59.9161 56.6602 61.9148 56.2872 64.4132L54.6708 80.278ZM62.8774 121.876C61.8827 121.876 61.0123 121.252 60.7636 120.252H64.9912C64.7426 121.127 63.8722 121.876 62.8774 121.876ZM65.1156 118.254H60.7636V107.136H65.1156V118.254ZM74.5657 121.876C73.5709 121.876 72.7005 121.252 72.4518 120.252H76.5552C76.4308 121.127 75.5604 121.876 74.5657 121.876ZM76.8039 118.254H72.4518V107.136H76.8039V118.254ZM55.6655 105.137L56.6602 80.4029L58.2767 64.7879C58.6497 62.5394 60.5149 60.9154 62.7531 60.9154H74.69C76.9282 60.9154 78.7933 62.5394 79.1664 64.7879L80.9072 80.4029L81.7776 105.137H55.6655ZM83.021 79.1537C83.021 79.7783 82.8967 80.5279 82.7723 81.1525V80.1531L81.0315 64.5381C80.6585 62.0397 78.9177 60.041 76.5552 59.2915V55.5439H76.8039C79.6638 55.5439 82.1506 58.2921 82.7723 62.0397C80.9072 63.9135 80.9072 67.0365 82.8967 68.9103C82.8967 68.9103 82.8967 68.9103 83.021 69.0352V79.1537ZM65.3643 37.1806C64.7426 37.1806 64.2452 37.6803 64.2452 38.3049C64.2452 38.9295 64.7426 39.4292 65.3643 39.4292C65.986 39.4292 66.4834 38.9295 66.4834 38.3049C66.4834 37.6803 65.986 37.1806 65.3643 37.1806ZM71.9545 39.4292C72.5762 39.4292 73.0736 38.9295 73.0736 38.3049C73.0736 37.6803 72.5762 37.1806 71.9545 37.1806C71.3328 37.1806 70.8354 37.6803 70.8354 38.3049C70.8354 38.9295 71.3328 39.4292 71.9545 39.4292ZM32.9107 28.0615C32.289 28.0615 31.7916 28.5612 31.7916 29.1858C31.7916 29.8104 32.289 30.31 32.9107 30.31C33.5324 30.31 34.0298 29.8104 34.0298 29.1858C34.1541 28.5612 33.6567 28.0615 32.9107 28.0615ZM39.5009 30.31C40.1226 30.31 40.62 29.8104 40.62 29.1858C40.62 28.5612 40.1226 28.0615 39.5009 28.0615C38.8792 28.0615 38.3818 28.5612 38.3818 29.1858C38.3818 29.8104 38.8792 30.31 39.5009 30.31Z" fill="#5F5C58" fill-opacity="0.5"/>
<path d="M31 3H3V31" stroke="#FFE500" stroke-width="6" stroke-linecap="round" stroke-linejoin="round"/>
</svg>
