<svg width="102" height="139" viewBox="0 0 102 139" fill="none" xmlns="http://www.w3.org/2000/svg">
<path d="M71 136H99V108" stroke="#FFE500" stroke-width="6" stroke-linecap="round" stroke-linejoin="round"/>
<circle cx="23" cy="91" r="22" fill="#FFE500"/>
<path d="M84.3658 84.7137C85.6156 83.3316 85.7406 80.693 85.7406 80.693C85.7406 79.3109 85.7406 76.9236 85.7406 75.1645C85.9906 75.1645 86.8654 75.4158 86.9904 74.1593C86.9904 71.6464 87.2404 43.8783 87.1154 41.491C86.6155 35.4599 85.2407 34.0778 84.7407 33.0726C82.366 28.5493 77.9916 26.4132 77.9916 26.4132C69.6177 21.7643 59.1191 24.7798 54.4947 33.1982C53.1199 35.7112 52.37 38.6011 52.37 41.491L51.7451 74.1593C51.7451 74.6619 52.12 75.1645 52.6199 75.2902H52.8699V80.693C52.8699 82.2008 53.3698 83.5829 54.2447 84.7137L50.9952 105.823C50.8702 106.451 51.3701 106.953 51.87 107.079H58.8691V111.728C58.8691 114.115 60.7439 116 63.1186 116C65.4932 116 67.368 114.115 67.368 111.728V108.084H71.6174V111.602C71.6174 113.99 73.4922 115.874 75.8669 115.874C78.2416 115.874 80.1163 113.99 80.1163 111.602V106.953H86.9904C86.9904 106.953 88.1153 106.702 87.9903 105.697C87.6153 104.692 84.6157 86.2215 84.3658 84.7137ZM54.1197 67.7513L54.6197 41.3653C54.8696 32.9469 61.8687 26.4132 70.2426 26.6645C78.2416 26.9158 84.6157 33.3239 84.8657 41.3653V67.6257C83.2409 63.4793 81.9911 59.0816 80.9912 54.684V34.329C80.9912 33.7008 80.4913 33.1982 79.8664 33.1982H79.4914C78.8665 33.0726 78.3666 33.4495 78.2416 34.0778C78.2416 34.329 77.2417 38.7267 73.8671 39.7319V34.329C73.8671 33.7008 73.3672 33.1982 72.7423 33.3239C72.2424 33.3239 71.8674 33.7008 71.7424 34.2034C71.7424 34.2034 70.6176 39.9832 66.1182 39.9832H59.494C58.8691 39.9832 58.3692 40.4858 58.3692 41.114C58.3692 41.2397 58.3692 41.3653 58.3692 41.3653V54.8096C57.2443 59.2073 55.7445 63.6049 54.1197 67.7513ZM83.6159 71.1438V78.934L81.4911 65.2384C81.4911 64.8614 81.3662 64.4845 81.2412 64.1075C82.1161 66.6205 82.991 69.1334 83.6159 71.1438ZM71.8674 41.7423C72.1174 41.9936 72.3673 41.9936 72.6173 41.9936C75.117 41.9936 77.3667 40.6114 78.6165 38.4754V50.1606C74.3671 55.3122 66.7431 56.0661 61.6187 51.7941C61.2438 51.4171 60.8689 51.1658 60.4939 50.7889V41.9936H65.9932C68.1179 41.9936 70.2426 40.9884 71.4925 39.2293V40.9884C71.6174 41.2397 71.7424 41.491 71.8674 41.7423ZM64.9933 56.0661V59.7099H62.8686C62.7436 59.7099 62.4936 59.7099 62.3687 59.8355C61.4938 59.9612 60.7439 60.3381 59.994 60.8407C59.619 60.8407 59.2441 60.9663 58.9941 60.9663C59.744 58.956 60.3689 56.82 60.7439 54.684V53.8044C61.8687 54.8096 63.3685 55.5635 64.9933 56.0661ZM65.6182 61.9715H65.9932C66.6181 61.9715 67.118 61.4689 67.118 60.8407V56.5687C67.8679 56.6943 68.6178 56.82 69.3677 56.82C70.1176 56.82 70.8675 56.82 71.6174 56.6943V60.9663C71.6174 61.5946 72.1174 62.0972 72.7423 62.0972H74.867C74.2421 65.1127 71.3675 66.9974 68.3679 66.4948C66.2431 66.1179 64.4934 64.3588 63.9934 62.0972L65.6182 61.9715ZM73.7422 59.7099V56.0661C75.6169 55.4379 77.2417 54.5583 78.6165 53.3018V54.684C78.9915 56.82 79.4914 59.0816 80.2413 61.092C79.7414 60.9663 79.2414 60.8407 78.7415 60.8407C77.9916 60.3381 77.2417 59.9612 76.3668 59.8355C76.2418 59.7099 75.9919 59.7099 75.8669 59.7099H73.7422ZM56.9944 66.1179C56.9944 66.2435 56.8694 66.3692 56.8694 66.4948L54.9946 79.0596V71.5207C55.6195 70.013 56.2445 68.2539 56.8694 66.4948L56.9944 66.1179ZM63.1186 113.613C62.2437 113.613 61.4938 113.11 61.2438 112.356H64.9933C64.6184 113.11 63.9934 113.613 63.1186 113.613ZM64.9933 110.095H61.1188V106.953H61.3688C61.3688 107.582 61.8687 107.959 62.4936 107.959H64.9933V110.095ZM75.6169 113.613C74.742 113.613 73.9921 113.11 73.7422 112.356H77.3667C77.1167 113.11 76.4918 113.613 75.6169 113.613ZM77.4917 110.095H73.6172V108.084H76.7418C76.9917 108.084 77.2417 107.959 77.4917 107.833V110.095ZM77.8666 104.817V90.3679C77.8666 89.7396 77.3667 89.2371 76.7418 89.2371C76.1169 89.2371 75.6169 89.7396 75.6169 90.3679V105.823H63.4935V90.3679C63.4935 89.7396 62.9936 89.2371 62.3687 89.2371C61.7437 89.2371 61.2438 89.7396 61.2438 90.3679V104.817H53.2449L59.2441 65.6153C59.494 64.2332 60.3689 62.9767 61.7437 62.4741C62.6186 66.6205 66.6181 69.3847 70.7426 68.6309C73.8671 68.0026 76.2418 65.6153 76.8668 62.4741C78.2416 63.1024 79.1165 64.2332 79.3664 65.741L85.3656 104.943L77.8666 104.817Z" fill="#5F5C58" fill-opacity="0.5"/>
<path d="M57.6193 80.8187C57.6193 81.4469 58.1192 81.9495 58.7441 81.9495H79.9913C80.6163 81.9495 81.1162 81.4469 81.1162 80.8187C81.1162 80.1904 80.6163 79.6878 79.9913 79.6878H58.7441C58.1192 79.6878 57.6193 80.1904 57.6193 80.8187Z" fill="#5F5C58" fill-opacity="0.5"/>
<path d="M65.7432 44.5065C64.9933 44.5065 64.4934 45.1347 64.4934 45.763C64.4934 46.5169 65.1183 47.0195 65.7432 47.0195C66.4931 47.0195 66.993 46.3912 66.993 45.763C66.993 45.1347 66.3681 44.5065 65.7432 44.5065Z" fill="#5F5C58" fill-opacity="0.5"/>
<path d="M73.1172 47.1451C73.8671 47.1451 74.3671 46.5169 74.3671 45.8886C74.3671 45.1347 73.7422 44.6322 73.1172 44.6322C72.3673 44.6322 71.8674 45.2604 71.8674 45.8886C71.7424 46.5169 72.3673 47.1451 73.1172 47.1451Z" fill="#5F5C58" fill-opacity="0.5"/>
<path d="M37.4969 77.1749C30.2479 77.1749 24.3736 71.2695 24.3736 63.9819C24.3736 63.3536 23.8737 62.8511 23.2488 62.8511C22.6239 62.8511 22.1239 63.3536 22.1239 63.9819C22.1239 72.4003 28.998 79.3109 37.3719 79.3109C37.9969 79.3109 38.4968 78.8083 38.4968 78.1801C38.6218 77.6775 38.1218 77.1749 37.4969 77.1749Z" fill="#5F5C58" fill-opacity="0.5"/>
<path d="M36.997 55.9404V52.171C38.1218 51.7941 38.8717 51.4171 39.7466 50.9145C47.2456 47.0195 50.1203 37.8472 46.3708 30.3083C42.4963 22.7695 33.3725 19.8796 25.8734 23.649C25.2485 24.0259 24.4986 24.4029 23.9987 24.7798C23.9987 24.7798 20.1242 27.1671 18.3744 32.8213C15.8748 44.0039 23.3738 50.4119 28.6231 52.171C28.6231 54.4327 28.6231 55.4379 28.6231 55.9404C14.7499 55.1866 14.4999 60.9664 14 65.2384C14 65.9923 14 66.6205 14 67.1231C14 67.877 14.375 68.3796 15.1249 68.3796C15.1249 70.013 15.1249 77.6775 15.1249 78.1801C14.9999 82.2008 16.8746 82.9547 16.8746 82.9547C16.8746 82.9547 15.9997 89.7396 16.6247 97.0272C16.7496 100.294 17.1246 103.435 17.7495 106.702C17.8745 107.205 18.2494 107.582 18.8744 107.582H19.4993V111.602C19.4993 113.99 21.374 115.874 23.7487 115.874H24.2487C26.6233 115.874 28.4981 113.99 28.4981 111.602V107.582H28.998C29.498 107.582 29.9979 107.205 30.1229 106.702L33.2475 93.7604L36.3721 106.702C36.4971 107.205 36.997 107.582 37.4969 107.582H37.9969V111.602C37.9969 113.99 39.8716 115.874 42.2463 115.874H41.9963C44.371 115.874 46.2458 113.99 46.2458 111.602V107.582H46.8707C47.3706 107.582 47.8706 107.205 47.9955 106.702C48.8704 102.053 49.3704 97.2785 49.2454 92.5039C49.2454 89.3627 48.9954 86.0959 48.6205 82.9547C49.7453 81.5725 50.4952 79.9391 50.4952 78.1801V68.3796C51.1201 68.3796 51.6201 67.877 51.6201 67.2487V65.2384C50.2452 54.307 40.6215 56.0661 36.997 55.9404ZM35.3722 24.4029C38.2468 25.0311 40.7465 26.5389 42.6213 28.6749C42.3713 29.8057 41.1214 33.5752 37.7469 34.329V28.4236C37.7469 27.7954 37.3719 27.4184 36.747 27.2928C36.1221 27.2928 35.6222 27.6697 35.6222 28.1723C35.6222 28.4236 34.3723 34.4547 29.623 34.4547H19.8742C21.499 27.4184 28.3731 22.8951 35.3722 24.4029ZM21.2491 43.5013C20.2492 41.491 19.6243 39.355 19.6243 37.0933C19.6243 36.9676 19.6243 36.7164 19.6243 36.5907H29.623C31.9976 36.5907 34.2474 35.4599 35.6222 33.4495V35.4599C35.6222 35.7112 35.7472 36.0881 35.9971 36.2138C36.2471 36.4651 36.4971 36.4651 36.747 36.4651C40.8715 36.4651 43.1212 33.3239 44.246 30.6853C47.7456 37.0933 45.3709 45.0091 38.9967 48.5272C32.6226 52.171 24.7486 49.9094 21.2491 43.5013ZM29.248 58.0765C29.8729 58.0765 30.3729 57.5739 30.3729 56.9456V52.2967C31.9976 52.548 33.6224 52.548 35.2472 52.2967V56.9456C35.2472 57.5739 35.7472 58.0765 36.3721 58.0765H37.4969C37.8719 58.0765 38.6218 58.0765 38.6218 58.0765C37.9969 61.7202 34.2474 63.7306 31.1228 62.7254C28.998 62.0972 27.3733 60.3381 26.8733 58.0765H29.248ZM17.4995 78.6827C17.4995 78.557 17.4995 78.4314 17.4995 78.1801V68.3796H18.8744L17.4995 78.6827ZM23.8737 113.613H23.3738C22.4989 113.613 21.624 112.984 21.499 112.105H25.7485C25.6235 112.984 24.8736 113.613 23.8737 113.613ZM25.8734 109.843H21.499V107.582H25.8734V109.843ZM41.9963 113.613H41.4964C40.6215 113.613 39.7466 112.984 39.6216 112.105H43.8711C43.7461 112.984 42.9962 113.613 41.9963 113.613ZM43.9961 109.843H39.6216V107.582H43.9961V109.843ZM45.8708 105.446H37.7469L33.7474 88.8601C33.6224 88.2319 32.9975 87.8549 32.3726 88.1062C31.9976 88.2319 31.6227 88.4832 31.6227 88.8601L27.6232 105.446H19.4993C18.7494 101.174 18.3744 96.9016 18.3744 92.6295C18.3744 89.2371 18.6244 85.9702 18.9993 82.7034H46.2458C46.6207 85.9702 46.8707 89.3627 46.8707 92.6295C46.9957 96.9016 46.6207 101.174 45.8708 105.446ZM48.1205 78.1801C48.1205 78.3057 48.1205 78.557 48.1205 78.6827L46.7457 68.3796H48.1205V78.1801ZM49.3704 66.1179H45.4959C44.871 66.1179 44.371 66.6205 44.371 67.2487V67.3744L45.9958 80.4417H19.4993L21.1241 67.5C21.2491 66.8718 20.7491 66.3692 20.1242 66.2436H16.1247V65.364C16.1247 61.3433 19.3743 58.2021 23.2488 58.2021H24.6236C25.2485 62.7254 29.498 65.741 33.9974 65.1127C36.997 64.6101 39.7466 62.4741 40.7465 58.3277C40.7465 58.3277 40.8715 58.2021 41.8714 58.2021C48.3705 58.2021 49.3704 63.1024 49.3704 65.364V66.1179Z" fill="#5F5C58" fill-opacity="0.5"/>
<path d="M28.8731 39.4806C28.1232 39.4806 27.4982 40.1088 27.4982 40.8627C27.4982 41.6166 28.1232 42.2448 28.8731 42.2448C29.623 42.2448 30.2479 41.6166 30.2479 40.8627C30.2479 40.1088 29.623 39.4806 28.8731 39.4806Z" fill="#5F5C58" fill-opacity="0.5"/>
<path d="M36.747 39.4806C35.9971 39.4806 35.3722 40.1088 35.3722 40.8627C35.3722 41.6166 35.9971 42.2448 36.747 42.2448C37.4969 42.2448 38.1218 41.6166 38.1218 40.8627C38.1218 40.1088 37.4969 39.4806 36.747 39.4806Z" fill="#5F5C58" fill-opacity="0.5"/>
<path d="M31 3H3V31" stroke="#FFE500" stroke-width="6" stroke-linecap="round" stroke-linejoin="round"/>
</svg>
