<svg width="105" height="48" viewBox="0 0 105 48" fill="none" xmlns="http://www.w3.org/2000/svg">
<path fill-rule="evenodd" clip-rule="evenodd" d="M24.4501 13.0283C24.7501 13.0283 24.8251 13.2569 25.1251 13.1807C25.1251 13.5617 24.7501 13.5617 24.4501 13.5617V13.0283Z" fill="white"/>
<path fill-rule="evenodd" clip-rule="evenodd" d="M12.225 21.7145C11.475 21.7907 11.175 21.4098 10.425 21.486C10.5 22.0955 11.325 22.0193 11.7 22.3241C12 23.086 13.8 23.1622 14.925 23.5431C11.175 22.9336 6.75004 23.3907 4.50004 20.8003C3.60004 20.6479 2.55004 20.9526 1.65004 20.5717C1.95004 20.0383 1.87504 19.4288 1.80004 18.7431C1.57504 18.5145 1.27504 19.2003 0.825041 19.1241C4.14252e-05 17.0669 4.05004 15.5431 6.37504 16.6098C7.20004 16.9907 7.65004 17.9812 8.40004 18.5145C9.45004 19.2764 10.5 19.2764 11.1 19.9622C12.6 19.8098 12.825 20.9526 14.175 20.9526C14.1 21.486 14.775 21.3336 14.775 21.7907C14.025 21.8669 12 21.105 12.225 21.7145Z" fill="#FFC40C"/>
<path fill-rule="evenodd" clip-rule="evenodd" d="M104.625 25.2185C104.625 25.9042 100.2 25.9042 100.2 25.9042H28.875C28.875 25.9042 25.275 25.9804 25.275 25.2947C25.275 24.6089 28.95 24.6851 28.95 24.6851H100.125C100.125 24.7613 104.625 24.5328 104.625 25.2185Z" fill="#FFC40C"/>
<path fill-rule="evenodd" clip-rule="evenodd" d="M20.175 1.44745C21.075 2.13317 21.75 4.19031 22.875 5.0284C23.325 4.2665 22.275 3.50459 23.025 3.12364C22.8 2.20936 22.275 1.59983 22.05 0.685547C23.175 1.8284 23.475 3.4284 24.45 4.64745C24.75 5.10459 25.2 5.33317 25.5 5.71412C26.25 6.70459 26.175 7.99983 26.925 9.21888C26.55 10.5903 27.75 11.1998 27.75 12.5713C27.45 12.5713 27.15 12.4951 27.3 12.9522C34.875 12.3427 39.375 15.7713 41.025 21.4855C40.725 21.7141 40.35 20.5713 39.975 20.4951C38.925 17.5998 36.9 15.9236 33.9 15.0094C33.525 15.2379 34.575 15.0855 34.35 15.4665C32.4 14.7808 28.725 14.3236 26.625 15.2379C28.65 15.1617 32.25 15.2379 34.125 16.076C35.175 17.2951 37.125 18.6665 37.8 20.6475C36.75 20.2665 36.9 19.3522 36.225 18.5903C33.6 15.4665 27.075 15.4665 24 17.9046C21.75 20.0379 20.25 25.2951 22.35 28.4951C23.625 30.3998 25.5 30.9332 27.825 31.6189C28.95 32.8379 30.45 33.676 30.3 36.1903C22.05 35.9617 14.85 31.0094 16.8 21.7141C17.625 17.8284 20.25 15.3903 23.7 13.8665C21.45 12.0379 22.05 7.39031 20.25 5.10459C20.4 4.11412 20.25 3.35221 19.875 2.59031C20.475 2.43793 20.325 3.04745 20.7 3.04745C19.95 2.28555 20.55 2.05698 20.175 1.44745ZM24.45 13.5617C24.825 13.5617 25.2 13.5617 25.125 13.1808C24.75 13.257 24.675 13.0284 24.45 13.0284V13.5617Z" fill="#FFC40C"/>
<path fill-rule="evenodd" clip-rule="evenodd" d="M45.225 3.65723C45.675 4.26675 44.4 5.10485 44.025 5.71437C44.625 6.17151 43.425 6.47627 43.575 7.16199C45 6.70484 46.725 5.4858 47.625 4.11437C47.25 5.94294 44.625 7.16199 44.4 9.14294C42.825 11.2763 40.425 12.6477 38.625 14.5525C38.025 14.0953 37.425 14.781 36.375 14.5525C36.45 13.562 36.675 13.3334 36.375 12.4953C35.925 12.4953 35.925 12.9525 35.4 12.8763C35.175 12.4953 35.1 11.962 35.25 11.581C38.775 9.14294 41.25 5.63818 45.225 3.65723Z" fill="#FFC40C"/>
<path fill-rule="evenodd" clip-rule="evenodd" d="M57.9 12.1137C57.825 12.7995 57.225 13.028 57.45 13.9423C57.675 14.2471 57.975 13.7899 58.425 13.9423V14.9328C57.525 15.8471 56.475 16.1518 55.125 16.609C53.325 17.2185 51.675 18.5899 50.025 19.2756C48.75 19.809 47.175 20.1899 45.75 19.2756C46.425 19.0471 45.675 19.0471 45.75 18.4375C46.275 18.6661 46.575 19.0471 47.175 19.1233C46.65 18.6661 46.05 18.2852 45.6 17.6756C48.375 16.5328 49.65 13.9423 52.575 12.9518C54.075 12.8756 54.6 11.8852 55.8 11.5042C56.1 11.428 56.025 11.7328 56.175 11.8852C56.775 11.8852 57.6 11.7328 57.9 12.1137Z" fill="#FFC40C"/>
<path fill-rule="evenodd" clip-rule="evenodd" d="M16.5 31.009C16.425 31.7709 15.825 31.9233 16.05 32.9138C16.125 33.1424 16.5 32.6852 16.875 32.7614C17.4 34.0566 15.375 35.1233 14.25 35.5043C12.225 36.19 9.67503 36.9519 8.55003 38.1709C6.97502 38.4757 5.62502 39.1614 4.27502 38.1709C4.57502 37.7138 4.35002 37.9424 4.27502 37.3328C4.80002 37.4852 5.02502 38.0186 5.85003 37.9424C5.25002 37.6376 4.50002 37.409 4.27502 36.6471C5.40002 35.7328 7.05003 35.3519 7.57503 33.9043C8.85003 33.2186 10.05 32.5328 11.25 31.8471C12.825 31.6186 14.4 30.0186 16.5 31.009Z" fill="#FFC40C"/>
<path fill-rule="evenodd" clip-rule="evenodd" d="M104.4 47.162C104.4 47.8477 99.975 47.8477 99.975 47.8477H28.575C28.575 47.8477 24.975 47.9239 24.975 47.2382C24.975 46.5525 28.65 46.6287 28.65 46.6287H99.825C99.9 46.6287 104.4 46.4763 104.4 47.162Z" fill="#FFC40C"/>
<path d="M39.0751 39.1618C38.6251 39.1618 35.8501 39.1618 35.1751 39.1618C34.9501 39.8475 34.4251 41.5237 34.2751 41.6761C34.2001 41.7523 31.0501 41.5237 30.8251 41.3713C31.2001 40.1523 34.7251 29.7904 34.9501 29.638C35.1001 29.5618 38.7001 29.4094 39.1501 29.4856C39.2251 29.4856 43.0501 39.3904 43.4251 41.2951C43.0501 41.5237 40.0501 41.5999 40.0501 41.5999C39.9001 41.4475 39.3001 39.8475 39.0751 39.1618ZM37.1251 32.3808C36.9001 33.2189 36.0751 35.7332 35.6251 36.8761C36.2251 36.8761 37.9501 36.8761 38.7001 36.8761C38.2501 35.7332 37.5001 33.2189 37.2001 32.457C37.2001 32.3808 37.1251 32.3808 37.1251 32.3808Z" fill="#543980"/>
<path d="M47.625 28.7996C47.775 29.0281 47.475 40.3805 47.4 41.7519C47.4 41.7519 44.925 41.7519 44.775 41.6757C44.625 41.5996 44.625 29.1043 44.925 28.8758C45.15 28.6472 47.55 28.6472 47.625 28.7996Z" fill="#543980"/>
<path d="M59.175 37.4091C59.175 40.152 57.15 41.6758 54.9 41.6758C53.7 41.6758 52.65 41.1424 52.5 40.9139C52.5 41.4472 52.575 45.1043 52.425 45.1805C52.275 45.3329 49.725 45.4091 49.35 45.2567C49.275 45.2567 49.425 33.4472 49.575 33.0663C49.575 32.9901 52.35 33.1424 52.35 33.1424C52.35 33.2186 52.35 33.9805 52.35 34.0567C52.5 33.8282 53.475 33.1424 55.125 33.1424C57.3 33.1424 59.175 34.5901 59.175 37.4091ZM54.3 35.7329C53.025 35.7329 52.425 36.4948 52.425 37.4853C52.425 38.6282 53.25 39.3139 54.225 39.3139C55.35 39.3139 56.025 38.552 56.025 37.5615C56.1 36.3424 55.35 35.7329 54.3 35.7329Z" fill="#543980"/>
<path d="M65.025 39.6188C66.0001 39.6188 66.6751 39.314 67.2001 39.0092C67.3501 39.1616 68.1751 40.6092 68.1751 40.8378C67.6501 41.295 66.3751 41.8283 64.9501 41.8283C61.65 41.8283 60.3 39.7711 60.3 37.5616C60.3 35.2759 61.8751 33.1426 64.7251 33.1426C67.2001 33.1426 68.7001 34.8188 68.7001 36.7235C68.7001 37.2569 68.6251 37.714 68.5501 38.0188C67.6501 38.1712 64.2751 38.1711 63.2251 38.095C63.0751 39.0092 63.75 39.6188 65.025 39.6188ZM65.9251 36.495C65.9251 35.6569 65.475 35.0473 64.65 35.0473C63.675 35.0473 63.075 35.7331 63.075 36.5711L65.9251 36.495Z" fill="#543980"/>
<path d="M73.5 29.7137C73.575 29.7898 73.425 34.8184 73.425 34.8184C73.425 34.8184 77.925 29.7137 78.075 29.7137C78.225 29.7137 80.775 30.3994 80.85 30.6279C80.85 30.7803 77.25 35.047 77.25 35.047C78.15 36.1898 80.85 40.7613 80.925 41.066C80.925 41.2184 78.45 42.0565 77.85 41.9041C77.625 41.6756 75.225 37.7137 74.85 37.1041C74.7 37.2565 73.5 38.5517 73.5 38.5517V41.7517C73.2 41.8279 70.5 41.9041 70.35 41.8279C70.2 41.7517 69.975 30.1708 70.2 29.866C70.425 29.5613 73.425 29.6375 73.5 29.7137Z" fill="#543980"/>
<path d="M83.55 28.9521C84.525 28.9521 85.275 29.5617 85.275 30.6283C85.275 31.3902 84.6 31.9236 83.55 31.9236C82.575 31.9236 81.9 31.4664 81.9 30.476C81.975 29.5617 82.275 28.9521 83.55 28.9521ZM85.05 33.2188C85.125 33.295 84.975 41.4474 84.9 41.5998C84.825 41.7522 82.2 41.676 82.125 41.5998C82.125 41.5236 81.9 33.4474 82.05 33.2188C82.2 33.0664 84.975 33.1426 85.05 33.2188Z" fill="#543980"/>
<path d="M86.475 37.3332C86.475 34.6665 88.575 33.2189 90.75 33.2189C91.95 33.2189 93 33.9046 93.15 34.1332C93.15 33.5999 93.15 29.0284 93.3 28.876C93.45 28.7237 96 28.6475 96.375 28.7999C96.375 28.7999 96.225 41.3713 96.15 41.5999C96.075 41.676 94.05 41.8284 93.45 41.5999C93.45 41.4475 93.375 40.7618 93.375 40.6856C93.225 40.9141 92.175 41.676 90.6 41.676C88.5 41.676 86.475 40.1522 86.475 37.3332ZM91.5 39.1618C92.7 39.1618 93.3 38.3999 93.3 37.4094C93.3 36.2665 92.475 35.657 91.5 35.657C90.375 35.657 89.7 36.4189 89.7 37.4094C89.7 38.5522 90.45 39.1618 91.5 39.1618Z" fill="#543980"/>
</svg>
