<svg width="85" height="101" viewBox="0 0 85 101" fill="none" xmlns="http://www.w3.org/2000/svg">
<path d="M84.46 75.38V101H5.92V80.7L41.34 47.94C44.42 45.0467 46.4733 42.5733 47.5 40.52C48.5267 38.4667 49.04 36.46 49.04 34.5C49.04 32.0733 48.2 30.2067 46.52 28.9C44.9333 27.5 42.6 26.8 39.52 26.8C36.5333 26.8 33.7333 27.5933 31.12 29.18C28.5067 30.7667 26.5 33.0067 25.1 35.9L0.18 23.44C3.91333 16.44 9.37333 10.9333 16.56 6.91999C23.7467 2.81333 32.4267 0.759997 42.6 0.759997C50.3467 0.759997 57.2067 2.02 63.18 4.54C69.1533 7.05999 73.82 10.6533 77.18 15.32C80.54 19.9867 82.22 25.3533 82.22 31.42C82.22 36.8333 81.0533 41.92 78.72 46.68C76.48 51.3467 72.0467 56.6667 65.42 62.64L51.42 75.38H84.46Z" fill="#5F5C58" fill-opacity="0.12"/>
</svg>
