<svg width="84" height="101" viewBox="0 0 84 101" fill="none" xmlns="http://www.w3.org/2000/svg">
<path d="M60.08 38.78C67.64 40.6467 73.4267 44.0533 77.44 49C81.5467 53.8533 83.6 59.7333 83.6 66.64C83.6 72.52 81.9667 78.0267 78.7 83.16C75.5267 88.2 70.58 92.3067 63.86 95.48C57.14 98.6533 48.7867 100.24 38.8 100.24C31.8933 100.24 24.9867 99.4933 18.08 98C11.2667 96.5067 5.29333 94.3133 0.16 91.42L11.36 67.06C15.3733 69.3933 19.6667 71.1667 24.24 72.38C28.9067 73.5933 33.3867 74.2 37.68 74.2C41.5067 74.2 44.5867 73.5467 46.92 72.24C49.2533 70.9333 50.42 69.0667 50.42 66.64C50.42 62.16 46.5467 59.92 38.8 59.92H25.78V39.62L40.2 24.92H5.2V-6.67572e-06H78.28V20.3L60.08 38.78Z" fill="#5F5C58" fill-opacity="0.12"/>
</svg>
