<svg width="387" height="404" viewBox="0 0 387 404" fill="none" xmlns="http://www.w3.org/2000/svg">
<path d="M387 76.2054V0L-3.05176e-05 0V76.2054L387 76.2054Z" fill="#F5F5F5"/>
<path d="M65.2507 11.207L11.2173 11.207L11.2173 65.1888H65.2507V11.207Z" fill="#C6C7C1"/>
<path d="M143.068 11.207L89.0342 11.207V65.1888H143.068V11.207Z" fill="#AA9EAC"/>
<path d="M220.884 11.207L166.85 11.207V65.1888H220.884V11.207Z" fill="#957082"/>
<path d="M298.752 11.207L244.719 11.207V65.1888H298.752V11.207Z" fill="#8E6587"/>
<path d="M376.569 11.207L322.536 11.207V65.1888H376.569V11.207Z" fill="#7B476D"/>
<path opacity="0.11" d="M252.764 403.999H151.582L150.539 374.611L156.536 374.403L156.171 364.242L159.979 364.086C157.684 350.278 145.897 278.58 146.523 268.002C147.201 256.331 174.739 201.15 180.685 195.523C182.249 194.064 184.336 193.022 186.526 192.553C188.664 192.084 190.907 192.24 192.941 192.97L196.018 194.012C196.384 193.751 196.749 193.543 197.114 193.334L193.619 96.0004L192.68 70.1037L205.406 69.6348L206.345 95.5314L209.84 192.709C212.969 194.116 215.577 196.565 217.298 199.639C217.924 200.733 218.445 202.713 218.967 205.162C220.48 206.309 222.096 207.507 223.609 208.81C223.661 208.862 223.765 208.914 223.817 208.966C224.339 209.331 224.808 209.696 225.278 210.008C229.92 213.343 233.049 216.469 234.457 219.335V219.387C234.562 219.596 234.666 219.804 234.718 219.961C235.292 220.898 235.605 221.784 235.605 222.514C235.605 227.985 230.024 232.049 222.357 232.31C226.008 237.103 235.083 249.036 236.335 252.318C236.909 253.934 238.004 256.591 238.786 259.561C240.403 263.261 242.75 268.992 243.689 272.431C244.576 275.766 246.923 279.987 247.288 285.51C248.748 290.043 251.512 298.901 252.19 304.737C253.025 311.875 251.877 318.024 241.498 323.86C243.689 340.221 242.854 354.081 242.124 361.22L245.306 361.116L245.671 371.276L251.669 371.068L252.764 403.999Z" fill="black"/>
<path d="M238.838 301.662C238.369 295.826 235.97 286.812 234.614 282.279C234.457 276.756 232.267 272.431 231.484 269.096C230.702 265.605 228.512 259.821 227.051 256.07C226.373 253.1 225.382 250.39 224.861 248.775C223.765 245.44 215.16 233.195 211.613 228.297C219.332 228.297 225.069 224.441 225.226 218.97C225.382 214.333 213.021 203.964 205.146 197.867C203.477 196.565 189.76 190.26 189.76 190.26L222.566 322.661C237.639 316.565 239.516 309.791 238.838 301.662Z" fill="#DEAD80"/>
<path d="M224.548 216.418C223.765 216.678 222.879 216.887 222.044 216.783C220.167 216.626 215.316 212.51 214.69 211.207C214.169 210.165 213.595 206.987 213.804 204.746C213.856 204.798 213.96 204.85 214.012 204.902C214.482 205.267 214.951 205.632 215.421 205.997C219.958 209.488 222.931 212.77 224.235 215.636V215.688C224.391 215.949 224.496 216.157 224.548 216.418Z" fill="#F6E2CA"/>
<path d="M227.208 302.6C228.512 308.332 229.346 313.855 229.92 319.066C229.19 319.535 228.355 320.004 227.521 320.421C226.269 307.498 223.192 293.013 216.672 278.996C216.672 278.996 213.387 265.866 212.239 248.254C212.083 246.17 210.883 226.005 210.935 224.494C211.04 220.846 210.622 208.705 209.371 201.046C210.362 201.827 211.353 202.661 212.291 203.495C213.387 212.092 213.543 222.983 213.491 224.598C213.491 224.91 213.543 226.265 213.647 228.193C213.022 228.245 212.396 228.297 211.77 228.297C212.343 229.079 213.022 230.069 213.804 231.215C214.169 237.52 214.691 246.326 214.795 248.15C215.577 260.29 217.455 270.347 218.446 275.245C220.845 273.473 223.348 271.493 225.278 269.617C228.564 266.439 228.199 260.916 227.104 256.174C227.99 258.415 229.086 261.437 230.024 264.198C229.711 267.168 228.616 269.513 226.843 271.285C224.548 273.473 221.627 275.766 218.967 277.746C219.019 278.006 219.072 278.163 219.072 278.319C222.462 285.666 224.913 293.117 226.634 300.308C228.564 298.797 230.285 296.869 231.589 294.472C234.04 289.939 234.77 285.927 234.666 282.383C235.136 283.999 235.709 286.135 236.335 288.48C235.814 290.825 234.875 293.169 233.623 295.514C231.954 298.432 229.711 300.777 227.208 302.6Z" fill="#D4A477"/>
<path d="M185.743 196.513L225.903 362.835L144.957 360.074C144.957 360.074 133.587 272.9 134.683 261.281C135.778 249.661 165.246 195.523 171.4 190.052C173.017 188.645 175.156 187.707 177.346 187.29C179.485 186.926 181.727 187.134 183.761 187.916L199.043 193.647L185.743 196.513Z" fill="#ECB98C"/>
<path opacity="0.17" d="M167.542 281.133C167.542 281.133 158.675 269.93 160.448 251.016C162.222 232.101 168.741 221.576 174.791 216.991C180.789 212.405 211.3 263.782 189.551 278.163C177.086 286.396 167.542 281.133 167.542 281.133Z" fill="#D4A477"/>
<path d="M177.972 253.309C177.868 254.143 177.711 254.976 177.555 255.862C173.956 255.549 170.775 255.393 170.097 255.393C163.629 255.341 157.527 256.8 151.216 257.373C159.613 254.403 168.845 253.153 177.972 253.309Z" fill="#D4A477"/>
<path d="M177.712 231.111C177.764 231.424 177.764 231.685 177.816 231.998C174.843 231.737 171.87 231.476 168.897 231.163C170.671 231.216 172.496 231.111 174.113 231.163C175.313 231.163 176.512 231.163 177.712 231.111Z" fill="#D4A477"/>
<path d="M179.902 201.463C179.902 201.568 179.902 201.724 179.902 201.828L180.267 216.261C180.163 219.284 179.798 229.08 179.902 231.164C180.111 236.166 179.954 241.533 179.12 247.421C177.764 257.06 174.739 268.159 168.95 281.238C168.793 281.55 168.689 281.863 168.532 282.176L164.621 288.168C164.829 285.719 165.455 283.374 166.446 281.238C172.705 267.221 175.938 256.644 176.825 247.004C176.982 245.232 177.086 243.461 177.138 241.741C177.399 238.198 177.451 234.707 177.347 231.216C177.294 229.601 177.451 223.869 177.607 219.232C177.66 218.137 177.66 217.147 177.712 216.209C177.712 216.209 177.347 201.568 177.347 201.411C177.347 198.754 177.92 196.201 179.068 193.908C180.528 190.886 185.222 188.385 185.222 188.385L186.839 189.01C182.667 191.667 179.902 196.253 179.902 201.463Z" fill="#D4A477"/>
<path d="M200.66 65.1016H187.934V226.734H200.66V65.1016Z" fill="#F5F5F5"/>
<path d="M200.66 65.1016H187.934V90.9982H200.66V65.1016Z" fill="#957082"/>
<path d="M225.903 362.836C225.903 362.836 155.024 312.397 168.584 282.176C178.233 260.604 180.528 244.451 179.902 231.164C179.798 229.08 180.163 219.284 180.267 216.262L179.902 201.828C179.902 201.724 179.902 201.568 179.902 201.464C179.902 193.596 186.213 187.082 194.14 186.874C200.19 186.718 205.25 190.365 207.805 195.471C210.204 200.109 210.935 219.649 210.83 224.494C210.778 226.006 211.978 246.171 212.134 248.255C213.282 265.867 216.567 278.997 216.567 278.997C235.187 319.067 225.903 362.836 225.903 362.836Z" fill="#ECB98C"/>
<path d="M196.644 213.552C199.669 212.77 204.311 209.436 204.728 196.774C204.728 196.774 202.068 190.573 194.401 190.417C186.734 190.261 183.813 196.409 183.813 196.409C183.813 211.259 190.02 213.448 192.732 213.708C193.514 213.813 195.131 213.969 196.644 213.552Z" fill="#F6E2CA"/>
<path opacity="0.7" d="M200.659 211C199.303 212.563 197.843 213.24 196.643 213.553C195.757 213.813 194.818 213.813 194.036 213.813C193.514 213.813 193.097 213.761 192.784 213.709C191.48 213.605 189.341 212.98 187.464 210.739C189.394 210.322 191.688 210.114 194.088 210.166C196.487 210.218 198.73 210.531 200.659 211Z" fill="white"/>
<path opacity="0.7" d="M183.867 196.462C183.867 196.462 186.787 190.366 194.454 190.47C202.121 190.626 204.781 196.827 204.781 196.827C204.781 197.14 204.781 197.452 204.729 197.713C204.52 197.244 201.808 191.147 194.402 190.991C187.1 190.887 184.127 196.671 183.867 197.296C183.867 197.035 183.815 196.723 183.867 196.462Z" fill="white"/>
<path opacity="0.46" d="M225.903 362.836C225.903 362.836 223.347 361.012 219.331 357.886C221.418 348.559 225.016 327.196 221.678 304.008C220.27 294.473 214.168 280.04 211.977 268.785C210.882 263.262 209.578 254.612 208.9 244.503C208.744 242.419 207.544 222.254 207.596 220.743C207.701 215.949 206.97 196.358 204.571 191.72C204.31 191.199 203.998 190.73 203.685 190.209C205.406 191.616 206.762 193.387 207.805 195.42C210.204 200.057 210.934 219.597 210.83 224.443C210.778 225.954 211.977 246.119 212.134 248.203C213.281 265.815 216.567 278.945 216.567 278.945C235.187 319.067 225.903 362.836 225.903 362.836Z" fill="#D4A477"/>
<path d="M229.972 357.729H140.838V371.954H229.972V357.729Z" fill="#E6E7E8"/>
<path d="M185.379 357.729H140.838V371.954H185.379V357.729Z" fill="white"/>
<path d="M235.987 403.998V367.889H134.857V403.998H235.987Z" fill="#263E53"/>
<path d="M185.43 367.891H134.839V404H185.43V367.891Z" fill="#32526E"/>
</svg>
