<svg width="159" height="192" viewBox="0 0 159 192" fill="none" xmlns="http://www.w3.org/2000/svg">
<path d="M128 189H156V161" stroke="#FFE500" stroke-width="6" stroke-linecap="round" stroke-linejoin="round"/>
<path d="M82.1196 3C84.4424 3.39974 85.6038 4.3991 85.6038 5.99807C85.2033 7.51709 84.0419 8.2766 82.1196 8.2766H79.7166L78.5152 7.19729V6.59768C78.5152 4.19923 79.7166 3 82.1196 3ZM65.5393 3.59961L67.8221 4.19923V6.59768C67.5017 7.71696 66.3403 8.2766 64.3378 8.2766H63.7371L61.9349 6.59768V5.39845C62.3354 4.19923 63.5369 3.59961 65.5393 3.59961ZM98.6998 5.99807H99.7811L100.983 7.19729V8.2766H98.6998L97.4983 7.19729L98.6998 5.99807ZM75.6316 9.47582H76.1122L77.3137 10.675V14.8723L75.0309 17.1509H71.4265L69.6243 15.352V12.4739C70.5054 10.4752 72.5078 9.47582 75.6316 9.47582ZM56.0477 10.0754C57.8099 10.8749 58.8111 11.6744 59.0514 12.4739V15.9516L57.8499 17.1509H54.2455L52.4433 15.352V12.4739C53.2443 10.8749 54.4457 10.0754 56.0477 10.0754ZM90.4097 10.0754H93.2932C94.4146 10.0754 95.2155 11.6744 95.6961 14.8723C95.2956 16.7911 94.0942 17.7505 92.0917 17.7505C89.3684 17.3507 88.0067 16.7511 88.0067 15.9516V12.4739L90.4097 10.0754ZM108.672 10.0754C110.755 10.0754 112.356 11.0748 113.478 13.0735V15.9516C113.478 17.1509 111.315 17.7505 106.99 17.7505L105.788 16.5513V12.4739C106.589 10.8749 107.551 10.0754 108.672 10.0754ZM118.164 17.7505C120.967 17.7505 122.369 19.1496 122.369 21.9478C122.369 25.0658 120.366 26.6248 116.361 26.6248L114.679 26.0251V19.5493C115 18.3501 116.161 17.7505 118.164 17.7505ZM47.1568 18.3501C49.9603 18.8298 51.362 21.1883 51.362 25.4255C56.8887 26.7847 59.6521 28.7434 59.6521 31.3017V35.499L56.6484 36.0986H54.2455C51.5222 36.0986 50.1605 33.3404 50.1605 27.824C45.4347 26.6248 43.0718 24.8659 43.0718 22.5474C43.0718 20.4687 44.4335 19.0696 47.1568 18.3501ZM63.7371 18.3501H64.9386C67.2614 18.3501 68.4228 19.5493 68.4228 21.9478V24.2263L66.7408 26.0251H64.3378C61.5344 26.0251 60.1327 24.4662 60.1327 21.3482C60.4531 19.3495 61.6545 18.3501 63.7371 18.3501ZM82.7203 18.3501H84.4023C85.6038 18.3501 86.2045 20.3088 86.2045 24.2263L86.8053 26.6248C92.332 27.4242 95.0954 28.6235 95.0954 30.2224V32.501C95.0954 33.2205 93.8939 34.2199 91.491 35.499C88.7677 35.499 87.2058 32.7408 86.8053 27.2244C81.679 26.4249 79.1159 25.2257 79.1159 23.6267V20.1489C79.5164 18.9497 80.7178 18.3501 82.7203 18.3501ZM100.983 18.3501H103.386L105.188 20.1489V26.0251C105.188 26.9845 107.751 27.5841 112.877 27.824L113.478 28.4236V30.8221C113.478 33.8601 110.915 35.619 105.788 36.0986C104.507 41.6151 102.905 44.3733 100.983 44.3733H100.382C98.4595 44.0535 97.4983 43.4539 97.4983 42.5745V40.7756C97.4983 38.4571 99.661 36.2985 103.986 34.2998L105.188 28.4236L97.4983 25.4255L96.2969 21.3482C96.2969 19.3495 97.8588 18.3501 100.983 18.3501ZM30.5766 23.6267V24.2263L29.3751 25.4255L28.7744 24.8259V24.2263L29.3751 23.6267H30.5766ZM71.4265 27.824H75.0309L77.3137 30.2224V32.501L75.0309 34.8994H73.2287C70.4253 34.8994 69.0236 33.7002 69.0236 31.3017C69.8245 28.9832 70.6255 27.824 71.4265 27.824ZM127.655 27.824C129.738 27.824 130.899 29.7827 131.139 33.7002C131.139 35.2992 128.777 36.0986 124.051 36.0986C122.128 41.6151 120.366 44.3733 118.764 44.3733H117.563C115.641 43.7337 114.679 42.3346 114.679 40.176V37.8975C114.679 36.6983 117.242 35.8988 122.369 35.499C122.849 30.3823 124.611 27.824 127.655 27.824ZM38.266 28.4236C40.6689 28.4236 41.8704 30.1825 41.8704 33.7002C41.8704 35.3791 44.6338 36.5783 50.1605 37.2979L50.7612 40.176V41.3752C50.7612 43.7737 48.959 44.9729 45.3546 44.9729C43.4323 45.4526 42.4711 46.8117 42.4711 49.0503V53.8472C47.9979 53.8472 50.7612 55.2063 50.7612 57.9246C50.2807 60.6428 49.4797 62.0019 48.3583 62.0019H46.5561C43.8328 62.0019 42.4711 60.0432 42.4711 56.1257V54.3269C37.1046 54.3269 33.34 51.9684 31.1773 47.2515L28.2938 46.6518C25.8909 46.6518 24.6894 48.0509 24.6894 50.8491C24.6894 52.0484 27.2525 53.6074 32.3788 55.5261C32.3788 59.6035 34.7417 62.3617 39.4674 63.8008V64.4004L38.266 65.5996H37.6652L23.4879 62.6016V57.9246C23.4879 55.4462 21.5255 53.8872 17.6007 53.2476L17 51.4487C17.3204 48.8104 19.0825 45.8524 22.2865 42.5745L22.8872 40.7756L22.2865 35.499L22.8872 34.8994H24.0887C30.4164 35.6989 33.5803 38.0574 33.5803 41.9749L35.9832 43.7737H37.6652C40.4687 43.7737 41.8704 42.1747 41.8704 38.9768C41.8704 37.4578 39.908 36.2985 35.9832 35.499L34.181 33.1006V32.501C34.181 29.7827 35.5427 28.4236 38.266 28.4236ZM61.3342 36.0986H62.5356C65.5793 36.0986 67.3415 36.8981 67.8221 38.4971V40.7756C67.8221 43.1741 66.6607 44.3733 64.3378 44.3733H62.5356C60.9337 43.6538 60.1327 42.2547 60.1327 40.176V37.2979L61.3342 36.0986ZM83.321 36.6983C85.0832 37.4977 86.0443 38.2573 86.2045 38.9768V39.5764C86.2045 41.5751 85.4036 42.7743 83.8016 43.1741C80.6778 42.4545 79.1159 41.6551 79.1159 40.7756V38.9768C79.8368 37.4578 81.2385 36.6983 83.321 36.6983ZM132.341 38.4971H132.942C134.544 39.0567 135.345 40.4159 135.345 42.5745L131.74 46.1721C131.74 50.8891 130.379 53.2476 127.655 53.2476C124.451 53.2476 122.849 54.207 122.849 56.1257C122.849 60.0432 121.888 62.0019 119.966 62.0019L116.361 62.6016C115.32 62.4417 114.559 61.4823 114.079 59.7234C114.079 55.8059 117.002 53.8472 122.849 53.8472V53.2476C122.849 47.7311 125.052 44.9729 129.457 44.9729C131.38 44.9729 132.341 42.8143 132.341 38.4971ZM53.044 45.5725H56.0477C58.4506 45.5725 59.6521 46.9317 59.6521 49.6499C58.6909 52.4481 56.8887 53.8472 54.2455 53.8472C52.8037 53.8472 51.8426 52.0484 51.362 48.4507C51.8426 46.5319 52.4032 45.5725 53.044 45.5725ZM91.0104 45.5725C93.7337 45.5725 95.0954 46.9317 95.0954 49.6499L94.4947 52.0484H91.491L89.8089 46.1721L90.4097 45.5725H91.0104ZM108.672 45.5725C110.674 45.5725 112.276 46.5319 113.478 48.4507V49.6499C113.478 52.0484 112.276 53.2476 109.873 53.2476H107.471L105.788 51.4487V47.8511L108.672 45.5725ZM98.6998 54.3269H102.785C103.586 54.3269 104.187 55.5261 104.587 57.9246C103.786 60.403 102.785 61.7621 101.583 62.0019H98.6998L96.8976 60.323V56.1257L98.6998 54.3269ZM135.345 54.3269L137.147 57.9246C136.746 60.323 136.146 61.5222 135.345 61.5222H132.942L132.341 58.5242V57.9246C132.341 55.5261 133.342 54.3269 135.345 54.3269ZM54.8462 63.2012H58.4506L59.0514 66.1992L56.6484 67.9981H54.2455C53.3644 67.9981 52.7637 66.9987 52.4433 65L54.8462 63.2012ZM91.491 63.2012C94.6949 63.2012 96.2969 65.5596 96.2969 70.2766C101.423 72.3553 103.986 73.7543 103.986 74.4739V77.9516C103.986 78.7511 102.785 79.5506 100.382 80.3501C98.1391 80.3501 96.377 77.7917 95.0954 72.675L90.4097 71.4758C88.4873 71.4758 87.0856 74.234 86.2045 79.7505L85.6038 80.3501H83.8016C81.639 80.3501 80.0771 79.3907 79.1159 77.472C79.1159 74.7537 81.679 72.1954 86.8053 69.7969C86.8053 66.9987 88.3672 64.8001 91.491 63.2012ZM109.873 63.2012H112.276C112.917 63.2012 113.518 64.2005 114.079 66.1992L113.478 69.7969V70.8762L110.474 71.4758C108.392 71.4758 106.83 70.5164 105.788 68.5977V65.5996C106.429 64.0007 107.791 63.2012 109.873 63.2012ZM127.655 63.2012C129.978 63.2012 131.139 64.6003 131.139 67.3985V68.5977L128.857 70.8762H125.252L123.45 69.1973V65.5996C123.45 64.4803 124.852 63.6809 127.655 63.2012ZM120.567 71.4758L122.849 74.4739C122.849 76.9523 121.888 78.7112 119.966 79.7505H115.761C114.639 79.3507 114.079 78.1915 114.079 76.2727V73.2747C114.079 72.0754 116.241 71.4758 120.567 71.4758ZM89.2082 81.5493H93.2932C94.0942 81.5493 94.8952 82.7486 95.6961 85.147C95.6961 87.4655 94.1342 88.8246 91.0104 89.2244C88.6075 88.4249 87.406 86.8659 87.406 84.5474C87.7264 82.5487 88.3271 81.5493 89.2082 81.5493ZM108.071 81.5493H109.873C112.276 81.5493 113.478 82.7486 113.478 85.147V87.4255C113.077 88.6248 111.876 89.2244 109.873 89.2244H108.071C106.549 88.5048 105.788 87.1457 105.788 85.147C105.788 83.548 106.549 82.3488 108.071 81.5493ZM72.628 82.1489H75.0309L76.713 83.9478V86.2263C75.5916 88.225 74.0297 89.2244 72.0272 89.2244L69.6243 88.6248V85.147L72.628 82.1489ZM125.252 82.1489H125.853V83.3482L124.652 84.5474H124.051V83.3482L125.252 82.1489ZM64.9386 90.4236H68.4228C68.4228 96.7395 70.986 99.8975 76.1122 99.8975L77.3137 101.576V103.375C77.3137 105.774 76.1523 106.973 73.8294 106.973H70.8258C70.185 106.973 69.1837 104.614 67.8221 99.8975C63.4968 98.2186 61.3342 97.0193 61.3342 96.2998V93.9014L64.9386 90.4236ZM100.983 90.4236C103.386 90.4236 104.987 92.9819 105.788 98.0986C107.711 98.5783 108.672 99.178 108.672 99.8975V101.097L106.99 102.776H105.188C105.188 101.257 104.387 100.097 102.785 99.2979H100.382C97.6585 99.2979 96.2969 100.657 96.2969 103.375V105.174C96.4571 106.054 98.019 107.053 100.983 108.172V108.772C100.502 110.291 99.5408 111.45 98.0991 112.25H97.4983L94.4947 107.573H91.0104C88.6075 107.573 87.406 108.732 87.406 111.05V114.048C87.406 114.688 89.5686 115.847 93.8939 117.526L95.0954 120.524C95.0954 122.763 93.3333 124.322 89.8089 125.201C88.0468 125.201 87.0456 122.443 86.8053 116.926C81.2785 116.207 78.5152 114.448 78.5152 111.65C78.5152 109.571 81.0783 108.012 86.2045 106.973C86.8453 101.057 89.008 98.0986 92.6925 98.0986C94.2944 98.0986 95.8964 95.94 97.4983 91.6228L100.983 90.4236ZM116.361 90.4236H116.962L118.164 91.6228L116.361 93.3017V93.9014L114.679 93.3017V92.2224L116.361 90.4236ZM83.321 91.0232C85.0832 91.8227 86.0443 92.5822 86.2045 93.3017V95.7002L84.4023 97.499H80.9181C79.7166 97.0993 79.1159 95.9001 79.1159 93.9014C79.6766 91.9826 81.0783 91.0232 83.321 91.0232ZM57.8499 100.497H58.4506C59.4118 100.497 60.1727 103.055 60.7334 108.172C65.8597 108.172 68.4228 108.932 68.4228 110.451L69.0236 112.849C69.0236 115.567 67.6619 116.926 64.9386 116.926C62.1351 116.926 60.7334 118.326 60.7334 121.124V124.122C60.7334 125.241 62.1351 125.801 64.9386 125.801C67.2614 126.92 68.4228 128.119 68.4228 129.398C68.2626 130.997 66.7007 131.797 63.7371 131.797C62.1351 131.797 60.7735 129.598 59.6521 125.201C54.5258 125.201 51.9627 124.042 51.9627 121.723C51.9627 118.366 54.3256 116.207 59.0514 115.248L60.1327 111.65V108.772C60.1327 108.132 58.5708 107.333 55.447 106.373V105.174C55.9276 102.216 56.7285 100.657 57.8499 100.497ZM69.6243 117.526H73.8294C76.9532 117.526 78.5152 119.885 78.5152 124.602C79.3161 125.401 81.8793 126.001 86.2045 126.4V129.398C85.6439 130.997 84.2822 131.797 82.1196 131.797C78.9156 131.797 77.3137 129.998 77.3137 126.4C72.1874 124.562 69.6243 123.202 69.6243 122.323V117.526ZM83.321 142.95C86.4448 142.95 88.0067 145.308 88.0067 150.025C89.3684 151.784 91.531 152.983 94.4947 153.623L95.0954 156.501V158.899C94.6148 160.019 92.8527 161.418 89.8089 163.097L89.2082 163.576V167.174C93.133 170.452 95.0954 172.411 95.0954 173.05L95.6961 175.449C95.6961 177.607 93.934 179.166 90.4097 180.126L88.6075 182.524V183.124L90.4097 187.801C88.8077 188.6 86.605 189 83.8016 189H80.9181C78.0346 189 76.4326 188.4 76.1122 187.201L77.3137 182.524V180.725C76.9132 179.606 75.7518 179.046 73.8294 179.046C71.026 179.286 69.6243 179.846 69.6243 180.725V184.323L70.225 187.201C69.2638 188.001 67.3014 188.6 64.3378 189C60.8135 189 59.0514 186.242 59.0514 180.725L58.4506 180.126H55.447C54.1654 180.126 52.8037 180.725 51.362 181.925L50.7612 181.325V169.573L51.362 168.973V168.373L56.0477 170.172C58.4506 169.533 59.6521 168.133 59.6521 165.975C59.6521 163.656 58.2504 162.497 55.447 162.497C54.0853 162.497 52.5234 163.257 50.7612 164.776L50.1605 155.901V155.422L51.362 150.625L56.0477 151.824H59.0514C59.6121 146.707 61.3742 144.149 64.3378 144.149H67.3415L69.0236 145.948V148.826C69.0236 150.505 66.0599 151.904 60.1327 153.023L59.6521 155.422C60.2929 160.139 62.856 162.497 67.3415 162.497L68.4228 164.176V168.373C68.4228 169.173 66.0599 169.972 61.3342 170.772L60.1327 175.449V177.248L61.9349 179.046H67.3415C68.4629 179.046 69.2238 176.488 69.6243 171.371C75.151 170.572 77.9144 169.573 77.9144 168.373C77.9144 164.216 75.7518 161.458 71.4265 160.099C70.225 160.099 69.6243 159.699 69.6243 158.899V156.501C69.6243 153.783 71.6267 152.424 75.6316 152.424L78.5152 153.023V156.501C79.3161 158.5 80.7178 159.499 82.7203 159.499C84.2421 159.099 85.0031 157.9 85.0031 155.901C85.0031 154.462 82.8404 153.103 78.5152 151.824L77.9144 145.348C79.2761 144.149 81.0783 143.349 83.321 142.95ZM77.9144 172.451C77.9144 176.848 79.3161 179.046 82.1196 179.046C84.5225 178.247 85.8842 177.248 86.2045 176.048V174.849C86.2045 171.731 84.6426 170.172 81.5188 170.172H79.7166C78.7554 170.172 78.1547 170.932 77.9144 172.451ZM50.7612 184.923C51.5622 185.083 52.3231 186.042 53.044 187.801L52.4433 188.4H51.9627L50.7612 186.721V184.923Z" fill="#FFE500"/>
<path d="M31 3H3V31" stroke="#FFE500" stroke-width="6" stroke-linecap="round" stroke-linejoin="round"/>
</svg>
