<svg width="62" height="62" viewBox="0 0 62 62" fill="none" xmlns="http://www.w3.org/2000/svg">
<circle cx="31" cy="31" r="30.5" fill="white" stroke="#004494"/>
<path d="M36.0977 39H25.7363V36.4609L29.2227 32.9355C30.2188 31.8939 30.8698 31.1842 31.1758 30.8066C31.4818 30.4225 31.6934 30.0938 31.8105 29.8203C31.9342 29.5469 31.9961 29.2604 31.9961 28.9609C31.9961 28.5898 31.8757 28.2969 31.6348 28.082C31.3939 27.8672 31.0553 27.7598 30.6191 27.7598C30.1699 27.7598 29.7142 27.89 29.252 28.1504C28.7962 28.4043 28.2786 28.7819 27.6992 29.2832L25.5801 26.8027C26.3158 26.1452 26.9342 25.6764 27.4355 25.3965C27.9368 25.11 28.4805 24.8919 29.0664 24.7422C29.6589 24.5924 30.3229 24.5176 31.0586 24.5176C31.9831 24.5176 32.8066 24.6803 33.5293 25.0059C34.2585 25.3314 34.8216 25.7969 35.2188 26.4023C35.6224 27.0013 35.8242 27.6751 35.8242 28.4238C35.8242 28.9837 35.7526 29.5013 35.6094 29.9766C35.4727 30.4518 35.2578 30.9206 34.9648 31.3828C34.6719 31.8385 34.2812 32.3203 33.793 32.8281C33.3112 33.3359 32.2793 34.2995 30.6973 35.7188V35.8164H36.0977V39Z" fill="#004494"/>
</svg>
