<svg width="109" height="109" viewBox="0 0 109 109" fill="none" xmlns="http://www.w3.org/2000/svg">
<path d="M54.5 105.744C82.8013 105.744 105.744 82.8014 105.744 54.5C105.744 26.1986 82.8013 3.25584 54.5 3.25584C26.1986 3.25584 3.25582 26.1986 3.25582 54.5C3.25582 82.8014 26.1986 105.744 54.5 105.744Z" fill="white"/>
<path d="M16.9397 59.4546L17.1285 60.5398L13.7783 61.1061L14.2501 63.9372L17.6004 63.371L17.7891 64.4563L9.81464 65.8247L9.62589 64.7394L13.3064 64.126L12.8346 61.2948L9.15403 61.9554L8.96529 60.8701L16.9397 59.4546Z" fill="#1E1E1E"/>
<path d="M14.6276 71.7229L13.4951 68.5143C12.2682 68.939 11.5604 69.5524 11.9379 70.5433C12.1739 71.1567 12.5514 71.3926 12.7873 71.487L12.457 72.1948C12.0323 71.9589 11.5133 71.6758 11.1358 70.6848C10.7111 69.4108 11.3717 68.184 13.1176 67.6177C15.9016 66.674 16.7037 68.2312 16.8453 68.703C17.3172 70.0242 16.4206 71.1095 15.0994 71.5814L14.6276 71.7229ZM14.9107 70.5433C15.8544 70.213 16.4206 69.5996 16.1847 68.8918C16.0431 68.4199 15.6185 68.184 15.1466 68.1368C14.6747 68.0896 14.3444 68.2312 14.1557 68.2784L14.9107 70.5433Z" fill="#1E1E1E"/>
<path d="M17.7419 71.9589L18.4969 72.6195L16.8454 73.4217C16.7982 73.4688 16.751 73.516 16.751 73.516L16.7982 73.6104C16.8926 73.6576 17.3172 73.6576 17.4116 73.7048C18.7328 73.8935 19.299 74.4126 19.3934 74.5069L17.9307 75.2147C17.8835 75.0732 17.8363 74.9788 17.7891 74.8844C17.506 74.271 16.8454 73.9879 16.1376 73.8463L13.1648 75.3091L12.693 74.3654L17.7419 71.9589Z" fill="#1E1E1E"/>
<path d="M21.564 78.2818L21.9887 78.9424L17.6004 81.7736C17.3173 81.9623 16.8454 82.1511 16.7038 82.1983C16.6567 82.1983 15.9489 82.4342 15.2883 81.9623C15.1467 81.868 14.7692 81.5849 14.3917 81.0186C14.2974 80.8771 13.9671 80.358 13.8255 79.7918L14.6748 79.2255L14.9108 79.5559C14.8164 79.7918 14.7692 80.0749 15.0995 80.5939C15.3826 81.0658 15.7601 81.2074 15.8073 81.2074C16.3264 81.4433 16.8926 81.0658 17.0813 80.9242L17.7891 80.4524V80.4052C17.7419 80.358 17.7419 80.358 17.506 80.358C17.3173 80.358 16.6567 80.3108 16.1848 79.6502C15.7601 79.0368 15.9017 78.329 16.232 77.81C16.5623 77.1965 17.1285 76.8662 17.6004 76.5359C18.78 75.781 20.1013 75.9225 20.6203 76.7719C21.0922 77.5268 20.9034 78.0931 20.6675 78.5178C20.5731 78.6593 20.5731 78.7065 20.5731 78.7537C20.6203 78.8009 20.6675 78.8009 20.7619 78.7537L21.564 78.2818ZM19.3463 79.5087C20.4787 78.8009 20.6203 77.9515 20.2428 77.3853C19.6294 76.4416 18.3082 77.2909 17.8835 77.5268C17.6004 77.7156 16.5151 78.5178 17.0813 79.4143C17.3173 79.7446 18.0251 80.4052 19.3463 79.5087Z" fill="#1E1E1E"/>
<path d="M23.2156 85.1238L20.9978 82.5286C20.0069 83.3779 19.5823 84.1801 20.2429 84.9823C20.6675 85.5013 21.1394 85.5485 21.3753 85.5485L21.3281 86.3506C20.8563 86.2563 20.2429 86.2091 19.5351 85.4069C18.6857 84.3688 18.8745 83.0004 20.2429 81.8208C22.4606 79.9333 23.7818 81.0658 24.1121 81.4905C25.0087 82.5286 24.584 83.897 23.5459 84.7935L23.2156 85.1238ZM23.074 83.9442C23.829 83.2835 24.1593 82.5286 23.6403 81.9623C23.31 81.5849 22.8853 81.4905 22.4134 81.632C21.9887 81.7736 21.6584 82.0095 21.5169 82.1511L23.074 83.9442Z" fill="#1E1E1E"/>
<path d="M27.5567 86.681C27.4623 86.1619 27.3679 85.7844 26.9433 85.4069C26.5186 84.9823 26.0467 85.1238 25.8108 85.4069C25.5277 85.7372 25.6221 86.1147 25.7636 86.4922L26.1411 87.4831C26.2827 87.8134 26.5658 88.6156 25.9052 89.3234C25.1974 90.0783 24.1593 90.0783 23.3099 89.3234C22.6965 88.7571 22.555 88.1437 22.4134 87.7662L23.2156 87.4831C23.3099 88.1909 23.4515 88.5212 23.829 88.8043C24.3008 89.229 24.8671 89.1346 25.1502 88.8043C25.4805 88.474 25.3861 88.1909 25.0086 87.2C24.584 86.1147 24.584 85.5013 25.103 84.9351C25.7636 84.1801 26.7545 84.3217 27.4623 84.9351C27.7454 85.2182 28.0757 85.5485 28.3117 86.3035L27.5567 86.681Z" fill="#1E1E1E"/>
<path d="M28.7363 86.8225L29.3969 87.3416L30.1991 86.3035L31.4731 86.1619L31.5675 86.2091L30.2463 87.955L30.9541 88.5212L30.5766 89.0403L29.8216 88.474L27.7454 91.2108C27.6982 91.3052 27.4151 91.6355 27.8398 91.9186C28.1229 92.1074 28.5004 92.2017 28.8307 92.2489L28.3117 92.9567C27.9814 92.9095 27.5095 92.7208 27.2264 92.4849C27.0376 92.3433 26.2355 91.6355 26.8961 90.6918L29.0195 87.8606L28.3588 87.3887L28.7363 86.8225Z" fill="#1E1E1E"/>
<path d="M34.3986 93.6173L31.4731 91.8714C30.8125 92.9567 30.6709 93.9004 31.5675 94.4195C32.1337 94.7498 32.6056 94.6554 32.8415 94.6082L33.0774 95.3632C32.6056 95.4576 31.9922 95.552 31.0956 95.0329C29.9632 94.3723 29.68 92.9567 30.6238 91.3996C32.1337 88.8515 33.738 89.5593 34.2099 89.7952C35.3896 90.503 35.4367 91.8714 34.7289 93.1455L34.3986 93.6173ZM33.8796 92.532C34.3986 91.6827 34.4458 90.8333 33.7852 90.4558C33.3606 90.2199 32.8887 90.2671 32.5112 90.5502C32.1337 90.8333 31.945 91.1636 31.8506 91.3052L33.8796 92.532Z" fill="#1E1E1E"/>
<path d="M38.2207 89.7952L39.1173 89.8424L39.2588 89.8896L35.8142 97.345L34.9177 96.9203L38.2207 89.7952Z" fill="#1E1E1E"/>
<path d="M40.7688 90.8805L41.6653 90.8333L41.8069 90.8805L38.9757 98.619L38.032 98.2887L40.7688 90.8805Z" fill="#1E1E1E"/>
<path d="M41.9012 94.042L42.7034 94.2779L43.0809 93.0039L44.2133 92.3905L44.3077 92.4377L43.6943 94.561L44.5908 94.797L44.4021 95.4104L43.4584 95.1273L42.5146 98.4303C42.4674 98.5247 42.3731 98.9493 42.8449 99.0437C43.1752 99.1381 43.5527 99.0437 43.883 98.9965L43.6471 99.8459C43.3168 99.9403 42.7977 99.8931 42.4674 99.7987C42.2315 99.7043 41.2406 99.374 41.5237 98.2416L42.5146 94.8442L41.7125 94.6082L41.9012 94.042Z" fill="#1E1E1E"/>
<path d="M49.2623 95.2216L50.2533 95.3632L49.5455 101.073L48.5546 100.931L49.2623 95.2216ZM49.3567 93.0983L50.6307 93.2398L50.4892 94.2779L49.2152 94.1364L49.3567 93.0983Z" fill="#1E1E1E"/>
<path d="M51.9519 95.7407L52.8484 95.4104V96.5429C52.8484 96.59 52.8956 96.6372 52.9428 96.6372C52.99 96.6372 53.0843 96.5429 53.1315 96.4957L53.3675 96.2126C53.6978 95.7407 54.1696 95.5048 54.783 95.5048C55.0662 95.5048 55.3021 95.5991 55.538 95.7407C55.7739 95.8823 55.9627 96.1654 55.9627 97.0147L55.9155 101.403H54.9246L54.9718 97.0147C54.9718 96.8732 54.9718 96.2597 54.4055 96.2597C53.8865 96.2597 53.4618 96.7788 53.4146 96.8732C53.0843 97.2978 52.99 97.4866 52.99 97.4866L52.9428 101.403H51.9519V95.7407Z" fill="#1E1E1E"/>
<path d="M61.8138 100.837L60.0679 92.9095L61.7666 92.532C64.3618 91.9658 65.7774 93.2398 66.3437 95.7879C66.438 96.3069 66.5796 97.2978 66.2965 98.2416C66.1077 98.9494 65.6359 99.9874 63.5125 100.412L61.8138 100.837ZM61.3891 93.6645L62.7103 99.5628L63.5125 99.374C65.3999 98.9494 65.4943 97.3922 65.164 95.8823C65.0225 95.1745 64.6922 94.2779 64.0315 93.7589C63.4653 93.3342 62.8991 93.287 61.9082 93.5229L61.3891 93.6645Z" fill="#1E1E1E"/>
<path d="M72.1004 94.8442L68.939 96.071C69.4108 97.2978 70.0714 97.9585 71.0152 97.581C71.6286 97.345 71.8173 96.9203 71.9117 96.6844L72.6195 96.9675C72.3836 97.3922 72.1004 97.9585 71.1567 98.3359C69.9299 98.8078 68.6558 98.1944 67.9952 96.4957C66.91 93.7589 68.4671 92.9095 68.939 92.7208C70.213 92.2017 71.3455 93.0511 71.9117 94.3251L72.1004 94.8442ZM70.9208 94.561C70.5433 93.6173 69.9299 93.0983 69.2221 93.3814C68.7974 93.5701 68.5143 93.9476 68.5143 94.4195C68.5143 94.8913 68.6558 95.2216 68.703 95.4104L70.9208 94.561Z" fill="#1E1E1E"/>
<path d="M77.6683 95.1745L77.1493 94.2307C77.1493 94.1835 77.0549 94.1364 77.0077 94.1364C76.9605 94.1364 76.9605 94.1835 76.9134 94.2307C76.8662 94.4195 76.8662 94.7498 76.819 94.9857C76.6774 95.4576 76.4415 95.8823 76.0168 96.071C75.4506 96.3541 74.79 96.3069 74.3181 95.3632L72.1476 91.4939L72.9969 91.0221L75.0259 94.6554C75.1675 94.8913 75.4978 95.5519 76.0168 95.2688C76.4415 95.0329 76.4887 94.4195 76.6302 93.4758L74.7428 90.0784L75.5921 89.6065L78.2818 94.4667L77.6683 95.1745Z" fill="#1E1E1E"/>
<path d="M76.5359 89.5121L77.1965 89.0403L76.4415 87.955L76.6774 86.681L76.7718 86.6338L78.0458 88.4268L78.8008 87.9078L79.1783 88.4268L78.3761 88.9931L80.358 91.7771C80.4051 91.8714 80.6411 92.2017 81.0658 91.9186C81.3489 91.7299 81.5376 91.3524 81.6792 91.1165L82.1982 91.8242C82.0567 92.1546 81.7264 92.532 81.4432 92.7208C81.2073 92.8623 80.3108 93.4286 79.6502 92.4849L77.574 89.6065L76.9134 90.0784L76.5359 89.5121Z" fill="#1E1E1E"/>
<path d="M82.3869 85.8316C81.8679 85.8788 81.4904 85.926 81.0657 86.3035C80.5938 86.681 80.6882 87.1528 80.9242 87.4359C81.2073 87.7662 81.632 87.7191 82.0094 87.6247L83.0003 87.3887C83.3306 87.2944 84.1328 87.1056 84.7934 87.8134C85.454 88.5684 85.3125 89.6537 84.5103 90.3615C83.8969 90.9277 83.2835 91.0221 82.8588 91.0693L82.67 90.2671C83.3778 90.2199 83.7081 90.1255 84.0856 89.8424C84.5575 89.4177 84.5575 88.8515 84.2272 88.5212C83.8969 88.1437 83.6609 88.1909 82.6229 88.474C81.4904 88.7571 80.877 88.71 80.4051 88.1437C79.7445 87.3888 79.9804 86.3978 80.6882 85.8316C81.0185 85.5485 81.3488 85.3126 82.151 85.171L82.3869 85.8316Z" fill="#1E1E1E"/>
<path d="M85.8316 82.9532C85.5956 82.8589 84.935 82.5758 84.5104 83.0476C84.0385 83.5667 84.2272 84.416 85.0766 85.2182C85.4541 85.5485 85.9259 85.926 86.3034 86.1147C86.7281 86.3035 87.3415 86.3978 87.7662 85.926C88.1909 85.5013 88.0021 84.9351 87.6246 84.4632L88.5212 84.0857C89.0874 84.8879 89.0874 85.7844 88.3796 86.4922C86.8697 88.0965 84.935 86.3978 84.6991 86.1619C84.2744 85.7844 83.6138 85.171 83.4251 84.1801C83.2363 83.3307 83.6138 82.7645 83.8497 82.4814C83.9913 82.2926 84.6047 81.7736 85.3597 81.868C85.69 81.9152 85.7844 81.9151 86.0675 82.0095L85.8316 82.9532Z" fill="#1E1E1E"/>
<path d="M84.2272 79.1784L84.4631 78.1403L87.2471 80.1221C87.2943 80.1693 87.3414 80.1693 87.3886 80.1221C87.4358 80.0749 87.3414 79.8861 87.2471 79.6974C86.964 78.9896 87.1527 78.4706 87.4358 78.0459C87.9077 77.3853 88.5683 77.4325 89.2289 77.9043L92.9094 80.4996L92.3432 81.3017L88.7098 78.7065C88.3795 78.4706 88.0492 78.4234 87.8133 78.7537C87.6718 78.9424 87.6246 79.1784 87.6718 79.4143C87.6718 79.7918 87.8605 80.2636 88.0021 80.6411L91.2107 82.9061L90.6445 83.7082L84.2272 79.1784Z" fill="#1E1E1E"/>
<path d="M87.2472 74.6013L87.3416 73.7048L87.3887 73.5632L94.561 77.574L94.0892 78.4234L87.2472 74.6013Z" fill="#1E1E1E"/>
<path d="M96.0237 71.5814C96.3068 71.6758 96.6372 71.8173 96.7787 71.3926L97.4865 71.723C97.2506 72.1476 97.109 72.4779 96.6843 72.6195C96.59 72.6667 96.3068 72.7139 96.0237 72.6667H95.9765C95.9765 72.761 96.1181 73.0913 96.1653 73.1385C96.4484 73.9879 96.3068 74.4126 96.1181 74.8844C95.7878 75.6394 94.9384 75.9225 94.2778 75.5922C93.6172 75.3091 93.2397 74.7901 93.0982 74.1766C92.9094 73.4217 93.0982 72.5251 93.4757 71.6758L92.7679 71.3926C92.532 71.2983 92.0601 71.0623 91.6826 71.9117C91.4467 72.4307 91.4939 73.0913 91.5882 73.6576L90.7389 73.752C90.6917 72.9498 90.5973 72.3364 90.9748 71.487C91.1164 71.1095 91.4467 70.6377 91.8713 70.4017C92.3432 70.1658 92.7679 70.213 93.2869 70.4489L96.0237 71.5814ZM94.0419 71.8173C93.57 72.9498 93.57 74.1294 94.5138 74.5069C94.9384 74.6957 95.4575 74.5541 95.6934 74.0823C95.9294 73.516 95.6934 72.8082 95.5047 72.4307L94.0419 71.8173Z" fill="#1E1E1E"/>
<path d="M92.6263 68.4199L92.5319 67.429L93.6172 67.7121C93.6644 67.7121 93.7115 67.7121 93.7587 67.6649C93.7587 67.6177 93.7115 67.5234 93.6644 67.429L93.4284 67.1459C93.0981 66.674 92.9566 66.155 93.0981 65.5887C93.1925 65.3528 93.2869 65.1169 93.5228 64.9281C93.7115 64.7394 94.0418 64.645 94.844 64.881L99.0908 66.0606L98.8076 67.0043L94.6081 65.8247C94.4665 65.7775 93.8531 65.6359 93.7115 66.155C93.57 66.674 93.9947 67.1931 94.0419 67.2874C94.3722 67.7593 94.5137 67.8537 94.5137 67.8537L98.2886 68.939L98.0055 69.8827L92.6263 68.4199Z" fill="#1E1E1E"/>
<path d="M91.9186 58.8411L99.893 59.9736L100.129 60.8701L98.8549 60.7286C98.8077 60.7286 98.7606 60.7286 98.7606 60.7758C98.7606 60.823 98.8077 60.8701 98.9493 60.9173C99.0437 60.9645 99.6571 61.5307 99.7987 61.861C99.8458 62.0026 99.893 62.2385 99.8458 62.4745C99.6571 63.6541 98.3359 64.1732 96.4956 63.89C95.2688 63.7013 93.6645 62.9935 93.8532 61.6251C93.9476 60.9645 94.2779 60.7758 94.7497 60.4926C94.7969 60.4455 94.8441 60.4455 94.8913 60.3983C94.9385 60.3983 95.08 60.3511 95.08 60.3039C95.08 60.2567 95.0329 60.2095 94.9857 60.2095L92.1545 59.7848L91.9186 58.8411ZM99.0437 62.1442C99.1852 61.2476 98.0056 60.6342 97.0619 60.4926C95.7878 60.3039 94.7969 60.7286 94.7025 61.4836C94.561 62.3329 95.5047 62.7576 96.8731 62.9463C97.345 63.0407 98.9021 63.1823 99.0437 62.1442Z" fill="#1E1E1E"/>
<path d="M22.7438 31.7091L15.2412 28.7364C15.194 28.7364 15.1468 28.7364 15.1468 28.7836C15.0996 28.8307 15.0996 28.8779 15.194 28.9251L21.4226 33.5022L20.8564 34.2571L14.0144 29.2082L15.0525 27.7926L21.4698 30.2935C21.517 30.2935 21.6113 30.2935 21.6113 30.2935C21.6585 30.2463 21.6585 30.1519 21.6113 30.1048L17.3646 24.7727L18.4499 23.31L25.2918 28.3589L24.7256 29.1139L18.497 24.5368C18.4499 24.4896 18.4027 24.4896 18.3555 24.5368C18.3083 24.584 18.3083 24.6312 18.3555 24.6784L23.3572 30.9069L22.7438 31.7091Z" fill="#1E1E1E"/>
<path d="M28.7365 23.31C28.9252 23.5459 29.2083 23.829 29.5858 23.4515L30.1521 24.0649C29.7746 24.3952 29.4914 24.584 29.0196 24.5368C28.878 24.5368 28.5949 24.4896 28.4062 24.3009H28.359C28.359 24.3952 28.3118 24.7727 28.3118 24.8199C28.2174 25.7165 27.8871 26.0939 27.5096 26.4714C26.8962 27.0377 25.9525 26.9433 25.4334 26.3771C24.9144 25.8108 24.82 25.1502 24.9616 24.4896C25.1031 23.6875 25.7166 22.9325 26.4244 22.2719L25.9053 21.7056C25.7637 21.5169 25.3391 21.0922 24.6313 21.7056C24.2066 22.1303 23.9235 22.7437 23.7819 23.3571L22.9326 23.074C23.2157 22.2719 23.4516 21.7056 24.1594 21.045C24.4897 20.7619 25.0088 20.4316 25.4806 20.4316C26.0469 20.3844 26.4244 20.6203 26.849 21.0922L28.7365 23.31ZM26.7075 22.6965C25.7637 23.5459 25.2447 24.6784 25.9525 25.4805C26.2828 25.858 26.849 25.9524 27.2737 25.5749C27.7927 25.103 27.7927 24.3481 27.8399 23.9234L26.7075 22.6965Z" fill="#1E1E1E"/>
<path d="M29.4914 13.8255L34.2572 20.8563L33.7382 21.6584L32.936 20.5732C32.8888 20.526 32.8416 20.526 32.8416 20.526C32.7944 20.5732 32.8416 20.6203 32.8416 20.7619C32.8416 20.8563 32.8888 21.7528 32.7001 22.0831C32.6057 22.2247 32.4641 22.4606 32.2754 22.555C31.2373 23.2628 29.8689 22.555 28.7836 20.9507C28.0758 19.8654 27.5096 18.1195 28.6892 17.3173C29.2555 16.9398 29.6801 17.0342 30.1992 17.2229C30.2464 17.2229 30.2936 17.2701 30.3879 17.2701C30.4351 17.2701 30.5295 17.3645 30.6239 17.3173C30.6711 17.2701 30.6711 17.2229 30.6239 17.1758L28.9252 14.6749L29.4914 13.8255ZM31.9451 21.7056C32.7472 21.1866 32.3698 19.8654 31.8035 19.016C31.0485 17.9307 30.0105 17.4117 29.3498 17.8836C28.5949 18.4026 28.9252 19.4407 29.7273 20.6203C30.0105 21.045 31.0014 22.3662 31.9451 21.7056Z" fill="#1E1E1E"/>
<path d="M38.0793 15.8074L34.8235 17.3645C35.3897 18.5913 36.1447 19.252 37.1356 18.7801C37.7962 18.4498 37.9378 18.0251 38.0322 17.7892L38.8343 18.0251C38.6456 18.497 38.4096 19.1104 37.3716 19.5823C36.0975 20.1957 34.7291 19.6294 33.8798 17.9307C32.5114 15.1468 34.0685 14.1087 34.5404 13.8727C35.8616 13.2121 37.0884 14.0143 37.7962 15.3355L38.0793 15.8074ZM36.8525 15.6658C36.3806 14.7221 35.72 14.203 34.9651 14.5805C34.4932 14.8165 34.3045 15.2411 34.3045 15.7602C34.3516 16.232 34.4932 16.6095 34.5876 16.7983L36.8525 15.6658Z" fill="#1E1E1E"/>
<path d="M41.3823 9.01256L42.7035 8.63507L42.9867 9.72035L41.6655 10.0978L41.3823 9.01256ZM42.1373 11.1359L43.1282 10.8528L44.7326 16.7039L43.7416 16.987L42.1373 11.1359Z" fill="#1E1E1E"/>
<path d="M45.4876 10.4753L46.3841 9.95628L46.5729 11.1359C46.5729 11.1831 46.6201 11.2303 46.6673 11.2303C46.7144 11.2303 46.8088 11.1359 46.856 11.0416L47.0447 10.7113C47.3279 10.1922 47.7525 9.81472 48.3659 9.72035C48.6491 9.67316 48.9322 9.72035 49.1681 9.81472C49.4512 9.95628 49.6872 10.1922 49.8287 11.0416L50.5365 15.6186L49.5456 15.7602L48.8378 11.1831C48.7906 11.0416 48.6963 10.381 48.13 10.4753C47.611 10.5697 47.2335 11.1831 47.1863 11.2775C46.9032 11.7965 46.856 11.9853 46.856 11.9853L47.5166 16.0433L46.4785 16.1848L45.4876 10.4753Z" fill="#1E1E1E"/>
<path d="M59.7377 9.34286C59.6434 8.96537 59.4074 8.02165 58.4637 7.92727C58.1806 7.88009 57.284 7.92728 56.765 9.29567C56.4819 10.0035 56.3875 11.1831 56.3875 11.1831C56.2931 12.0797 56.3403 12.9762 56.6234 13.7312C56.9537 14.6277 57.6615 14.7693 57.8975 14.7693C58.5109 14.8165 58.9827 14.4861 59.1243 14.3918C59.6434 13.9199 59.6905 13.4481 59.7377 12.8818L58.0862 12.7403L58.1806 11.655L60.9646 11.8909L60.5871 15.9961L60.1624 15.9489L59.9265 15.3827C59.8321 15.1468 59.7849 15.0524 59.6905 15.0524C59.6434 15.0524 59.5962 15.0524 59.549 15.0996C59.5018 15.1468 59.4074 15.1939 59.3602 15.2411C59.1243 15.4299 58.5109 15.8545 57.6143 15.8074C57.284 15.7602 56.4819 15.713 55.8685 14.7693C55.1607 13.7312 55.1135 12.0797 55.2079 11.1359C55.3022 10.145 55.5382 8.91818 56.1516 8.06883C56.9537 6.98355 57.9918 6.84199 58.5109 6.88918C59.9737 7.03074 60.7286 8.06883 60.8702 9.15411L59.7377 9.34286Z" fill="#1E1E1E"/>
<path d="M67.1931 14.439L63.7013 13.5424C63.371 14.8636 63.5126 15.8545 64.5507 16.0905C65.2585 16.2792 65.636 16.0433 65.8719 15.9017L66.2966 16.6095C65.8247 16.8455 65.2585 17.1286 64.1732 16.8455C62.8048 16.5152 62.1442 15.1468 62.6161 13.3065C63.371 10.3338 65.2113 10.5225 65.7775 10.6641C67.1931 11.0416 67.6178 12.41 67.2875 13.8727L67.1931 14.439ZM66.3438 13.4952C66.6269 12.5043 66.4381 11.6078 65.636 11.4191C65.1641 11.2775 64.6922 11.4662 64.4091 11.8909C64.126 12.2684 63.9845 12.6459 63.9373 12.8818L66.3438 13.4952Z" fill="#1E1E1E"/>
<path d="M69.7412 12.2684H70.7793L70.0715 14.0615C70.0243 14.1087 70.0243 14.203 70.0715 14.203L70.213 14.2502C70.3074 14.203 70.6849 13.9199 70.7321 13.8727C71.8645 13.0706 72.6667 13.0706 72.8555 13.0706L72.242 14.6749C72.1477 14.6277 72.0061 14.5333 71.9117 14.4862C71.2511 14.203 70.4962 14.439 69.8827 14.8636L68.6087 18.0723L67.6178 17.6948L69.7412 12.2684Z" fill="#1E1E1E"/>
<path d="M74.6486 14.203L75.5923 14.3918L74.8373 15.6186V15.713C74.9317 15.713 74.9317 15.713 75.0261 15.713C75.8282 15.4299 75.9226 15.3827 76.3001 15.3355C76.536 15.2883 76.9135 15.2883 77.3382 15.5242C78.1404 15.9961 77.8573 16.7511 77.6213 17.2701V17.3173H77.6685C77.7629 17.3173 77.8573 17.2701 77.9516 17.2229C79.1313 16.8926 79.6503 16.8926 80.1694 17.2229C80.3109 17.3173 80.6412 17.5532 80.6884 18.0251C80.6884 18.3082 80.6412 18.497 80.1694 19.2991L77.9044 23.074L77.0551 22.555L79.2728 18.8745C79.5088 18.4498 79.8391 17.9307 79.32 17.6476C78.9425 17.4117 78.2819 17.6476 77.2438 18.0251L75.1676 21.4697L74.3183 20.9507L76.6304 17.0814C77.0551 16.3736 76.8192 16.1849 76.6304 16.0433C76.4417 15.9489 76.2529 15.9017 75.6867 15.9961C75.4508 16.0433 75.3564 16.0905 74.507 16.4208L72.478 19.771L71.6287 19.252L74.6486 14.203Z" fill="#1E1E1E"/>
<path d="M82.9533 25.7165C82.7645 25.9524 82.4814 26.2355 82.9061 26.5658L82.3398 27.1792C81.9623 26.8017 81.7264 26.5658 81.7264 26.0939C81.7264 25.9524 81.7264 25.6693 81.9152 25.4333V25.3862C81.8208 25.3862 81.4433 25.3862 81.3961 25.3862C80.4524 25.3862 80.0749 25.103 79.6974 24.7255C79.0368 24.1593 79.084 23.2156 79.603 22.6494C80.1221 22.0831 80.7355 21.8944 81.3961 21.9887C82.1983 22.0831 83.0005 22.555 83.7554 23.2156L84.2745 22.6494C84.416 22.4606 84.8407 22.0359 84.1329 21.3753C83.661 20.9507 83.0005 20.8091 82.387 20.6675L82.5758 19.8182C83.4251 20.0069 83.9914 20.1485 84.7463 20.8091C85.0766 21.0922 85.4069 21.5641 85.5013 22.0359C85.5957 22.555 85.4069 22.9797 84.9823 23.4515L82.9533 25.7165ZM83.3307 23.6874C82.387 22.8381 81.2074 22.4606 80.4996 23.2156C80.1693 23.5931 80.1221 24.1593 80.5468 24.5368C81.0658 25.0087 81.8208 24.9143 82.2455 24.9143L83.3307 23.6874Z" fill="#1E1E1E"/>
<path d="M87.5775 24.0649L88.4741 24.5368L87.5775 25.2918C87.5303 25.339 87.5303 25.3862 87.5303 25.4333C87.5775 25.4805 87.6719 25.4805 87.7663 25.4805L88.1438 25.4333C88.7572 25.3862 89.2762 25.5749 89.7009 26.0468C89.8897 26.2827 89.984 26.5186 90.0312 26.8017C90.0784 27.0849 89.984 27.4152 89.3234 27.9814L85.7845 30.9541L85.1238 30.152L88.6628 27.1792C88.8044 27.0849 89.2762 26.6602 88.8987 26.1883C88.5684 25.7636 87.8135 25.8108 87.7191 25.8108C87.1057 25.858 86.9169 25.858 86.9169 25.858L83.7555 28.5004L83.0948 27.6983L87.5775 24.0649Z" fill="#1E1E1E"/>
<path d="M85.7373 32.3225L85.8316 32.5113C85.7844 32.6056 85.6901 32.8416 85.8788 33.1719C86.1619 33.6437 86.5866 33.5494 87.7663 33.2662L91.494 28.5948L92.0602 29.5385L90.1728 31.8035C90.0784 31.8978 89.6537 32.3697 89.5593 32.4641C89.4178 32.6056 89.2762 32.7944 89.2762 32.8416L89.3234 32.8887C89.8896 32.7 90.1728 32.6056 90.5974 32.4641L93.3814 31.7091L93.9005 32.5584L87.8134 34.1156C86.0204 34.5875 85.5013 34.3987 84.9351 33.5022C84.7935 33.2662 84.7463 33.1247 84.652 32.8887L85.7373 32.3225Z" fill="#1E1E1E"/>
<path d="M98.0529 45.3459L99.8931 45.5818L98.5719 46.903L98.9022 48.7905L97.2507 47.8939L95.552 48.7905L95.8823 46.9502L94.5139 45.629L96.3542 45.3459L97.2035 43.6472L98.0529 45.3459Z" fill="#1E1E1E"/>
<path d="M12.6931 45.3459L14.5334 45.5818L13.2122 46.903L13.5425 48.7905L11.891 47.8939L10.1923 48.7905L10.5226 46.9502L9.15416 45.629L10.9944 45.3459L11.8438 43.6472L12.6931 45.3459Z" fill="#1E1E1E"/>
<path d="M21.5641 66.2022C26.3771 79.7446 39.3061 89.4178 54.5 89.4178C69.6939 89.4178 82.6229 79.7446 87.4359 66.2022H21.5641Z" fill="#F3D04A"/>
<path d="M21.5641 42.7506H87.3887C82.5758 29.2554 69.6939 19.5822 54.5 19.5822C39.3061 19.5822 26.4242 29.2554 21.5641 42.7506Z" fill="#1E1E1E"/>
<path d="M19.5823 54.5C19.5823 58.6052 20.2901 62.5216 21.6113 66.2022H87.436C88.7572 62.5216 89.465 58.6052 89.465 54.5C89.465 50.3948 88.7572 46.4312 87.436 42.7506H21.5641C20.2901 46.4312 19.5823 50.3948 19.5823 54.5Z" fill="#C74C44"/>
</svg>
