<svg width="120" height="120" viewBox="0 0 120 120" fill="none" xmlns="http://www.w3.org/2000/svg">
<path d="M59.9789 120C26.9104 120 0 93.0475 0 59.9789C0 26.9104 26.9104 0 59.9789 0C93.0475 0 120 26.9104 120 59.9789C120 93.0475 93.0475 120 59.9789 120ZM59.9789 0.843585C27.3743 0.843585 0.843585 27.3743 0.843585 59.9789C0.843585 92.5835 27.3743 119.156 59.9789 119.156C92.5835 119.156 119.156 92.5835 119.156 59.9789C119.156 27.3743 92.5835 0.843585 59.9789 0.843585Z" fill="#333333"/>
<path d="M69.5958 30.7487C69.638 30.7487 69.5958 30.7909 69.5958 30.7487V30.7487Z" fill="#333333"/>
<path d="M56.1828 27.29C53.9895 27.6696 51.9227 28.5554 50.0246 29.7364C48.2953 30.7909 46.1863 32.4359 45.2584 34.2917C45.1318 34.5448 45.3849 34.6714 45.5536 34.5026C47.0299 33.1951 48.2109 31.7188 49.8981 30.6221C51.754 29.3989 53.8629 28.5975 56.0562 28.1757C60.4007 27.29 65.4622 28.3445 69.2162 30.6221C69.2162 30.6221 69.2584 30.6221 69.2162 30.58C65.42 27.6274 60.9912 26.4886 56.1828 27.29Z" fill="#333333"/>
<path d="M75.5009 32.0984C75.5431 32.0984 75.5009 32.1406 75.5009 32.0984V32.0984Z" fill="#333333"/>
<path d="M75.6696 32.5202C75.6696 32.478 75.5852 32.5202 75.6274 32.5624C75.7118 32.8155 75.8383 33.0685 75.9227 33.3216C75.9227 33.3638 76.007 33.3216 75.9649 33.2794C75.8805 33.0264 75.7961 32.7733 75.6696 32.5202Z" fill="#333333"/>
<path d="M64.7874 57.1951C63.6063 57.1107 62.2988 57.9543 61.7083 59.3884C61.6661 59.4728 61.7504 59.5571 61.7926 59.4728C62.7627 58.587 63.6907 57.9543 64.9139 58.0808C65.4622 58.123 65.9684 58.4605 66.4323 58.7979C66.9807 59.1775 67.065 59.6415 67.6555 59.7258C67.7399 59.7258 67.8242 59.6415 67.7821 59.5149C67.6977 57.8699 65.7153 57.2794 64.7874 57.1951Z" fill="#333333"/>
<path d="M65.0826 57.659C65.9684 57.5325 66.6011 58.587 66.6011 59.4728C66.6011 60.3163 65.9684 61.0334 65.2513 61.0334C64.6608 61.0334 64.0281 60.6116 63.9438 59.4306C63.8594 58.587 64.3656 57.7856 65.0826 57.659Z" fill="#333333"/>
<path d="M50.2355 57.1529C51.4587 57.0685 52.8506 57.9121 53.5255 59.3462C53.5677 59.4306 53.5255 59.5149 53.4411 59.4306C52.3866 58.5448 51.4165 57.9121 50.1511 58.0387C49.6028 58.0808 49.0967 58.4183 48.5905 58.7557C48.0422 59.1353 47.9578 59.5993 47.3673 59.6837C47.283 59.6837 47.1986 59.5993 47.1986 59.4728C47.2408 57.8278 49.2232 57.2373 50.2355 57.1529Z" fill="#333333"/>
<path d="M50.9104 57.7012C50.0246 57.7012 49.4763 58.8401 49.6028 59.7258C49.6872 60.5694 50.362 61.2021 51.1213 61.1177C51.7118 61.0334 52.3023 60.5272 52.2601 59.304C52.2179 58.4605 51.6274 57.7012 50.9104 57.7012Z" fill="#333333"/>
<path d="M61.3286 69.3427C59.9367 69.9332 58.6714 70.2285 57.3638 69.3427C56.0984 68.4991 56.9842 67.2337 57.4903 66.3058C58.2917 64.8295 58.2917 63.3954 57.4903 61.9613C57.4482 61.877 57.2794 61.9613 57.2794 62.0457C57.406 63.4376 57.3216 64.9139 56.8155 66.2636C56.4359 67.1916 55.9297 67.993 56.4359 68.9631C57.1529 70.355 60.4007 70.8612 61.5395 69.4692C61.5395 69.3427 61.4552 69.3005 61.3286 69.3427Z" fill="#333333"/>
<path d="M41.9262 48.0844C41.9684 48.0844 41.9684 48.0844 41.9262 48.0844V48.0844Z" fill="#333333"/>
<path d="M41.9262 48.0844C41.9684 48.0844 41.9684 48.0844 41.9262 48.0844V48.0844Z" fill="#333333"/>
<path d="M75.5009 66.9385C75.4587 66.6432 74.6995 66.8541 74.6995 67.1072C74.7838 76.1336 72.6749 79.1705 69.3427 81.8278C68.2039 82.7135 66.7698 83.5571 65.5888 84.1898C62.5097 85.8348 62.7206 85.877 59.4306 86.0035C52.5132 86.2988 46.9033 79.6766 45.4692 77.9051C43.2759 75.2478 43.1072 72.8436 43.1916 70.5237C43.3603 66.1371 45.3427 61.877 45.0053 58.2496C44.7944 56.0141 44.8787 53.9895 42.9385 49.3497C42.8541 49.181 42.0949 49.8559 42.1793 49.9824C42.9807 52.3023 44.246 53.4411 44.2039 58.7135C44.1617 63.5641 41.884 71.1564 42.5167 73.645C43.3181 76.5975 44.5413 78.9596 50.4042 83.768C52.935 85.8348 55.5923 86.7206 59.4728 86.7627C62.8893 86.8049 63.6063 86.0457 66.0527 84.8225C67.8243 83.8946 76.8084 80.0562 75.5009 66.9385Z" fill="#333333"/>
<path d="M69.5958 35.9789C69.5536 35.8946 69.4692 35.9789 69.4271 36.0211C69.2162 36.8647 69.1318 37.7504 68.8366 38.594C68.4148 39.775 67.6134 40.7873 66.7698 41.7153C65.2091 43.4025 63.0158 44.3304 60.9069 45.0053C56.3937 46.4815 51.4587 46.1019 46.9033 47.4095C43.7399 48.3374 40.3656 50.4464 39.0158 53.6098C37.7926 56.4358 38.0457 60.1898 40.9561 61.8348C40.9982 61.8348 40.9982 61.7926 40.9982 61.7926C38.2566 58.2074 39.0158 53.5677 42.3902 50.7417C45.8489 47.8735 50.6995 47.4938 54.9596 46.9877C58.7557 46.5237 62.7206 45.891 65.884 43.6134C67.9508 42.0527 70.4394 38.6784 69.5958 35.9789Z" fill="#333333"/>
<path d="M68.1195 36.9069C68.1617 36.7803 67.993 36.8225 67.9508 36.9069C64.4921 45.5958 76.8928 51.3322 74.2777 60.0633C74.1933 60.4007 74.6151 60.4007 74.7417 60.1054C78.0738 51.2478 66.2636 45.8067 68.1195 36.9069Z" fill="#333333"/>
<path d="M78.2847 57.3638C77.2302 56.6889 75.4165 56.478 74.9104 57.7012C74.8682 57.7856 75.0369 57.9965 75.0791 57.9543C76.3023 57.1107 76.8928 57.2794 78.0316 57.7856C79.1705 58.2917 79.297 59.8102 79.4657 60.9912C79.6766 62.341 78.4956 64.8717 77.4411 65.6731C76.5975 66.348 76.1758 66.9807 75.3322 66.8541C75.29 66.8541 75.2056 66.8963 75.1634 66.9385C75.0369 68.6678 75.29 68.0351 76.4288 67.4446C78.116 66.5167 79.6766 64.8717 79.8875 62.341C80.0984 60.4429 79.8453 58.4183 78.2847 57.3638Z" fill="#333333"/>
<path d="M65.7997 22.9033C62.341 22.1863 58.7135 22.1863 55.2127 22.6503C48.5061 23.5782 41.884 26.7838 37.7083 32.1828C26.6995 46.4394 33.1951 65.42 37.0334 81.0264C37.9192 84.5272 38.6362 88.0703 39.0158 91.6555C39.2689 93.8067 39.2267 95.9156 39.1424 98.0246L39.1845 97.9824C39.6063 97.4763 40.0703 97.0123 40.6186 96.5483C40.703 96.464 40.7873 96.4218 40.8717 96.3796C40.9139 96.3796 40.9139 96.3374 40.9561 96.3374C40.7452 93.8067 40.3234 91.3181 39.8594 88.9561C38.9736 84.3163 37.7926 79.761 36.5694 75.2056C34.1652 66.348 31.6344 57.406 32.478 48.1687C33.2373 39.9438 36.949 32.1828 44.0352 27.6274C50.4042 23.536 58.5026 22.6081 65.7997 24.2531C68.1195 24.7592 70.9033 25.645 71.8313 28.0492C71.9156 28.3023 72.2953 28.007 72.2531 27.7961C71.7048 24.6327 68.5835 23.4517 65.7997 22.9033Z" fill="#333333"/>
<path d="M84.8647 35.8102C83.8946 32.8155 82.3339 29.4833 79.5079 27.7961C77.1459 26.3199 74.0668 26.362 71.9578 28.2179C71.9156 28.2601 71.9156 28.3866 72.0422 28.3445C74.9526 26.9525 78.6221 28.2179 80.7733 30.4112C83.304 32.9842 84.232 36.9069 85.1599 40.2812C87.1845 47.9578 87.8172 55.9719 87.1845 63.9016C86.5518 71.8313 84.4429 79.5079 83.2619 87.3111C82.6713 91.1072 82.4183 94.9877 82.4183 98.826C82.4183 99.4165 82.4183 99.9649 82.4605 100.555C82.5026 100.555 82.5448 100.598 82.587 100.64C82.9244 101.062 83.1775 101.483 83.4306 101.947C83.3462 100.302 83.3462 98.6573 83.3884 97.0545C83.5149 92.7944 84.2742 88.5343 85.0334 84.3585C86.5097 76.0914 88.1547 67.7399 88.3234 59.304C88.4921 51.3743 87.3111 43.3603 84.8647 35.8102Z" fill="#333333"/>
<path d="M42.4745 42.2214C42.3058 41.167 41.2513 40.0703 40.1125 40.239C39.1845 40.3656 38.341 41.2935 38.7627 42.2636C38.8049 42.348 38.8471 42.3902 38.9315 42.3902C38.9315 42.8541 39.2267 43.2759 39.4798 43.6555C39.8172 44.1195 40.3656 44.4148 40.9561 44.4148C42.1371 44.3726 42.6432 43.2759 42.4745 42.2214ZM40.4921 43.4446C40.1125 43.2337 39.8594 42.8963 39.6063 42.5167C39.4798 42.3058 39.4376 42.1371 39.2689 42.0527C39.2689 42.0105 39.2689 41.9684 39.2689 41.9262C39.1424 41.5888 39.3111 41.2513 39.6063 41.0404C39.9859 40.7452 40.5765 40.9982 40.8717 41.2513C41.3779 41.5888 41.6731 42.0949 41.7575 42.6854C41.884 43.529 41.2091 43.8243 40.4921 43.4446Z" fill="#333333"/>
<path d="M46.5237 38.2566C46.5659 38.1301 46.4394 38.0457 46.355 38.0035C44.8787 37.7504 43.6134 36.9069 42.8963 35.5993C42.7698 35.3884 42.4745 35.5149 42.3902 35.6837C41.5466 37.1178 40.8295 38.6362 40.5765 40.3234C40.5765 40.3656 40.6186 40.3656 40.6186 40.3234C41.2091 38.9736 41.7996 37.6239 42.5589 36.3585C43.2759 37.5395 44.3304 38.2988 45.7223 38.5518C45.891 38.594 45.9332 39.2689 45.9332 39.2689C46.0598 40.1125 47.0721 41.5888 45.2584 41.9684C44.2039 42.1793 43.065 42.1793 42.1371 42.7276C42.0949 42.7698 42.0527 42.8963 42.1371 42.8963C42.8541 43.1072 43.4446 42.8541 44.1617 42.7276C44.9631 42.5589 45.7223 42.5167 46.3972 42.0105C47.536 41.2091 46.3128 39.2267 46.5237 38.2566Z" fill="#333333"/>
<path d="M39.9016 43.4446C38.9315 44.5835 38.6362 46.355 38.0457 47.7469C37.5817 48.8436 37.2021 47.8735 36.8225 47.283C36.5272 46.7768 36.0633 46.3972 35.6415 46.1019C35.304 45.8489 34.8822 45.7223 34.4605 45.5958C34.2917 45.5536 34.123 45.5114 33.9965 45.5114C33.0685 45.4271 33.8699 44.6678 34.2917 44.4148C35.8102 43.4868 37.4552 43.2759 39.1002 42.7698C39.1002 42.7698 39.1424 42.7276 39.1002 42.7276C37.1177 42.348 34.7979 43.4025 33.1951 44.4991C32.7733 44.7944 32.2671 45.0896 32.4359 45.638C32.5624 46.1863 33.7434 46.1863 34.123 46.2706C35.5993 46.6503 36.0211 47.8735 36.7381 48.9701C37.0334 49.3919 37.6239 49.4341 38.0035 49.2232C38.594 48.9279 38.7206 47.8313 38.8893 47.283C39.2689 46.0598 40.1125 44.7522 40.0703 43.4446C40.0703 43.4025 39.9859 43.4025 39.9016 43.4446Z" fill="#333333"/>
<path d="M67.7821 33.8699C65.9684 36.3163 62.7627 34.5026 60.4851 33.9543C58.587 33.4482 56.5624 33.4482 54.6221 33.6591C52.8084 33.8699 51.0369 34.4183 49.3919 35.1775C47.9578 35.8524 46.0598 36.8225 45.3005 38.2988C45.2584 38.3831 45.3005 38.5097 45.4271 38.4675C46.2706 38.1301 46.9455 37.5395 47.6626 37.0334C48.6327 36.4007 49.645 35.8946 50.7417 35.4728C53.0193 34.5448 55.5079 34.2917 57.9543 34.4605C60.232 34.6292 62.2988 35.7258 64.5765 35.8946C65.9684 35.9789 67.3603 35.1353 67.7821 33.8699Z" fill="#333333"/>
<path d="M79.6766 48.8436C79.2548 46.9877 78.5378 45.2162 77.652 43.5712C75.6274 39.8172 70.819 36.232 72.3796 31.4657C72.4218 31.297 72.2109 31.297 72.1265 31.4236C70.4815 35.4306 73.5185 38.7627 75.7118 41.7996C77.0193 43.6134 77.9473 45.5958 78.6643 47.6626C79.0439 48.7592 79.297 49.8981 79.4657 51.0369C79.6344 52.007 79.5079 53.1037 79.8875 54.0316C79.9297 54.116 80.0562 54.0316 80.0562 53.9895C80.5624 52.4288 80.0141 50.4042 79.6766 48.8436Z" fill="#333333"/>
<path d="M84.4851 54.9596C83.9367 46.9033 80.5624 39.1002 75.5431 32.8576C75.5009 32.8155 75.4587 32.8998 75.4587 32.942C80.4359 39.4798 83.1353 47.0721 83.9367 55.2127C84.3585 59.7258 84.1055 64.3234 83.4306 68.7944C82.7557 73.1388 81.659 77.3989 81.0685 81.7856C81.0685 81.9543 81.2794 81.8699 81.2794 81.7856C82.5448 77.5255 83.2619 73.1388 83.8102 68.7522C84.4429 64.1125 84.7803 59.5571 84.4851 54.9596Z" fill="#333333"/>
<path d="M42.1371 81.1951C42.1371 81.1529 42.0949 81.1951 42.0949 81.2373C42.6854 85.7926 43.2759 90.3902 44.3726 94.8612C44.4148 94.9877 44.5835 94.9033 44.5835 94.819C44.5413 90.1793 43.529 85.5817 42.1371 81.1951Z" fill="#333333"/>
<path d="M78.3269 82.3339C77.3989 86.594 76.2601 91.4868 77.1459 95.7047C77.188 95.8313 77.3568 95.7469 77.3989 95.6626L78.3269 82.3339Z" fill="#333333"/>
<path d="M52.0492 52.3866C51.3743 51.4587 49.8137 52.2601 49.0967 52.5554C48.2531 52.935 47.1986 53.5677 46.6924 54.58V54.6221C47.4938 54.3269 48.2109 53.7786 49.0967 53.5255C50.0246 53.2724 51.0791 53.8629 51.8805 53.3146C52.1336 53.1037 52.3023 52.6819 52.0492 52.3866Z" fill="#333333"/>
<path d="M66.5167 73.9402C65.2935 74.4886 64.1968 75.2478 63.0158 75.7961C61.6239 76.3866 60.1476 76.5975 58.7135 76.3867C54.9174 75.8805 53.8629 74.2355 51.5852 72.6327L51.5431 72.6749C52.935 75.1634 55.9719 77.3568 58.7135 77.6942C61.3708 78.0316 65.0404 75.9649 66.6011 74.0668C66.6011 73.9824 66.5589 73.9402 66.5167 73.9402Z" fill="#333333"/>
<path d="M54.2004 84.9912C53.8629 85.3708 54.0316 85.1599 54.116 85.5395C54.2847 86.0879 54.3269 86.6784 54.3691 87.2267C54.4534 87.8594 54.4113 88.4499 54.2425 89.0826C54.116 89.5466 53.6942 89.9684 53.8629 90.4323C53.8629 90.4745 53.9895 90.4323 54.0738 90.4323C55.4657 90.5589 55.3392 85.7083 54.2004 84.9912Z" fill="#333333"/>
<path d="M64.6608 89.3357C64.2812 88.6186 63.9438 88.3656 63.8172 87.6063C63.6907 86.6784 63.9438 85.7504 64.5765 84.9069C64.5765 84.9069 64.5765 84.9069 64.5343 84.9069C63.0158 85.3287 62.5518 88.0703 64.1547 89.9684C64.3656 90.1371 64.7452 89.5044 64.6608 89.3357Z" fill="#333333"/>
<path d="M64.2812 89.2513C63.6485 90.8541 61.6661 93.0896 60.4429 93.7223C56.478 95.8313 56.1828 91.3181 54.0316 90.2636C53.9895 90.2636 53.9895 90.2636 53.9895 90.3058C55.0439 92.1617 56.3093 95.3673 59.3884 94.819C61.1599 94.5237 64.4921 92.0351 64.4921 89.2935C64.4921 89.2091 64.3234 89.167 64.2812 89.2513Z" fill="#333333"/>
<path d="M58.8401 94.3972C57.9543 95.8313 57.5747 97.8137 56.7311 99.2478C55.297 101.652 52.7241 99.8383 51.3322 98.362C50.3199 97.2232 48.1265 94.355 49.3497 92.7944C50.362 91.529 52.5554 90.6432 54.0738 90.5589C54.1582 90.5589 54.2425 90.4323 54.1582 90.3902C52.6397 88.9982 50.1933 90.8963 49.1388 92.0351C47.2408 94.0598 48.9279 96.464 50.2777 98.3199C51.5852 100.134 53.3989 101.989 55.8032 101.062C58.4183 100.049 58.6714 96.8014 59.5149 94.5659C59.7258 94.0598 59.051 94.0598 58.8401 94.3972Z" fill="#333333"/>
<path d="M70.2285 92.8787C69.4271 90.6432 66.9807 89.2935 64.6608 89.3779C64.6186 89.3779 64.5343 89.5044 64.5765 89.5466C65.9262 90.5167 67.529 90.7276 68.7522 92.0351C70.6081 94.0176 68.6678 96.4218 67.1916 97.8559C65.7153 99.2478 63.4376 101.694 61.5817 99.7118C60.3585 98.4042 60.696 95.5782 59.4728 94.2707C59.4306 94.2285 58.9244 95.0299 58.9666 95.1142C59.5149 97.181 59.6837 99.8383 61.6661 101.104C63.6485 102.369 66.3902 99.4587 67.6133 98.2777C69.0053 96.9279 70.9877 94.9877 70.2285 92.8787Z" fill="#333333"/>
<path d="M57.3216 98.9947C57.1107 98.9525 56.942 99.29 57.1529 99.3743C57.6169 99.6696 57.8278 100.429 57.5325 100.893C57.2373 101.399 56.1828 101.357 55.8032 101.019H55.761C55.9719 101.441 56.225 101.821 56.7311 101.863C57.2373 101.905 57.7434 101.652 58.0808 101.272C58.7979 100.471 58.3339 99.2478 57.3216 98.9947Z" fill="#333333"/>
<path d="M60.696 99.5852C60.6538 99.5852 60.5694 99.7118 60.6538 99.7118C60.696 99.6696 60.7381 99.5852 60.696 99.5852Z" fill="#333333"/>
<path d="M60.8647 99.8805C60.8225 99.8805 60.7381 100.007 60.8225 100.007C60.9069 99.9649 60.949 99.8805 60.8647 99.8805Z" fill="#333333"/>
<path d="M61.9613 100.598C61.6661 100.893 61.7926 101.441 60.696 101.357C60.4851 101.357 60.2742 100.977 60.2742 100.851C60.1476 100.429 60.5272 100.134 60.9069 100.049C61.0334 100.007 61.0756 99.8383 60.9069 99.8383C60.0633 99.8805 59.6415 100.808 60.0211 101.525C60.5694 102.496 61.9192 101.483 62.4253 100.977C62.7206 100.682 62.2566 100.26 61.9613 100.598Z" fill="#333333"/>
<path d="M64.0703 101.441C64.0281 101.188 63.8594 100.766 63.5641 100.724C63.4798 100.724 63.3533 100.808 63.3111 100.893C63.2689 101.104 63.3111 101.23 63.3533 101.399C63.3954 101.61 63.3533 101.821 63.2689 102.032C63.1424 102.369 62.8893 102.58 62.5097 102.58C62.1301 102.58 61.8348 102.327 61.7083 101.989C61.6661 101.821 61.6661 101.652 61.7504 101.483C61.7926 101.357 61.9192 101.272 61.9613 101.146C61.9613 101.104 61.9613 101.104 61.9192 101.104C61.4552 100.977 61.2021 101.863 61.2021 102.158C61.1599 102.791 61.6661 103.213 62.2566 103.339C62.9315 103.466 63.6907 103.044 63.9859 102.411C64.1125 102.074 64.1547 101.736 64.0703 101.441Z" fill="#333333"/>
<path d="M65.7575 99.5009C65.6731 99.5009 65.5888 99.5852 65.5888 99.6696C65.6309 100.007 65.884 100.302 66.0105 100.64C66.1793 101.188 66.0527 101.736 65.6309 102.074C64.9139 102.664 63.5641 101.905 63.9859 100.977C63.9859 100.977 63.9859 100.977 63.9438 100.977C63.6485 101.399 63.5641 101.989 63.9016 102.411C64.2812 102.96 64.9561 103.044 65.5466 102.833C66.2214 102.622 66.6432 101.863 66.6854 101.188C66.6854 100.598 66.348 99.5852 65.7575 99.5009Z" fill="#333333"/>
<path d="M69.0053 98.5729C68.8366 98.109 68.1195 97.4341 67.6134 97.6872C67.5712 97.7294 67.529 97.7715 67.529 97.8559C67.6555 98.109 67.9086 98.1933 68.0773 98.362C68.4148 98.6995 68.4569 99.29 68.246 99.6696C67.7399 100.64 66.4323 100.134 66.0105 99.3743C65.9684 99.3322 65.884 99.3743 65.884 99.4165C65.9684 100.893 67.6555 101.23 68.5835 100.26C69.0896 99.8383 69.2162 99.1634 69.0053 98.5729Z" fill="#333333"/>
<path d="M69.4692 95.6626C69.2162 95.7891 69.2162 96.2109 69.5536 96.1265C70.4815 95.8313 71.2408 97.0123 70.6503 97.7715C70.0176 98.5729 68.71 98.1511 68.1617 97.4763H68.1195C68.4148 98.1933 68.7944 98.6151 69.5958 98.7417C70.3128 98.8682 70.9877 98.362 71.3251 97.7715C72.0422 96.5483 70.7768 95.1142 69.4692 95.6626Z" fill="#333333"/>
<path d="M71.283 92.7522C70.6924 92.6678 69.9754 92.7522 69.6801 93.3427C69.4271 93.8067 70.4815 93.7223 70.6503 93.6801C71.4095 93.5114 72.8858 93.9754 72.3374 95.0299C71.8735 95.8735 70.6081 95.3251 69.8067 95.4517C69.7645 95.4517 69.7223 95.8735 69.7645 95.9156C70.8612 96.5483 72.3796 96.3374 73.0545 95.1564C73.7715 93.8489 72.4218 92.8787 71.283 92.7522Z" fill="#333333"/>
<path d="M49.0545 95.3673L49.0123 95.3251C48.9279 95.1986 48.8014 95.1564 48.6749 95.2408C48.2109 95.4095 47.7891 95.8735 47.3251 95.9578C47.1142 96 46.9455 95.7469 46.7768 95.536C46.6924 95.4095 46.6924 95.1986 46.6924 95.0299C46.7346 94.1019 48 93.8067 48.7592 93.7645V93.7223C48.1687 93.8067 47.5782 93.7223 47.0299 94.0598C46.6081 94.355 46.355 94.7768 46.355 95.283C46.355 95.4939 46.3972 95.6626 46.5237 95.8313C46.6924 96.0844 46.819 96.3796 47.1142 96.3374C47.3251 96.2953 47.536 96.2531 47.7469 96.2531C47.9578 96.2109 48.2109 95.7891 48.3796 95.8313C48.6749 95.9156 48.8858 95.7891 49.0545 95.536C49.0545 95.536 49.0967 95.4517 49.0545 95.3673Z" fill="#333333"/>
<path d="M49.4763 97.2232C49.2654 97.3919 49.1388 97.6028 48.8436 97.645C48.5483 97.7294 48.2531 97.6028 48 97.4341C47.3251 96.8858 47.7891 95.8735 48.5905 95.8313C48.6327 95.8313 48.6327 95.7891 48.5905 95.7891C47.6204 95.6626 47.0721 96.6749 47.4095 97.4763C47.6204 97.9403 48.0844 98.1933 48.5483 98.2355C49.0123 98.2355 49.6028 98.0246 49.8137 97.6028C50.0668 97.2654 49.8137 96.9701 49.4763 97.2232Z" fill="#333333"/>
<path d="M51.0369 99.3743C50.5308 99.8383 49.6028 100.555 49.0967 99.7118C48.6327 98.9947 49.3497 98.0668 49.8137 97.5606C49.0545 98.1933 48.2531 99.0369 48.8014 100.091C49.0545 100.513 49.5606 100.64 50.0246 100.555C50.5729 100.471 50.9947 100.049 51.3743 99.6696C51.6274 99.3743 51.29 99.1213 51.0369 99.3743Z" fill="#333333"/>
<path d="M53.1459 100.766C52.7663 101.399 52.2179 101.61 51.5009 101.315C50.6995 100.977 50.9525 100.007 51.5431 99.5852V99.5431C51.0791 99.5009 50.7417 99.7961 50.5729 100.176C50.3199 100.724 50.4464 101.272 50.826 101.694C51.7118 102.791 53.3146 101.863 53.7364 100.851C53.9051 100.513 53.3146 100.471 53.1459 100.766Z" fill="#333333"/>
<path d="M55.8453 100.808C55.8032 100.724 55.6766 100.808 55.6766 100.893C55.9297 101.821 55.6344 103.128 54.4112 103.086C53.9051 103.086 53.5255 102.917 53.3146 102.453C53.1037 102.032 53.2302 101.483 53.5677 101.188C53.652 101.104 53.6098 100.977 53.4833 101.019C52.935 101.272 52.6397 101.821 52.6819 102.411C52.7241 103.213 53.2724 103.719 53.9895 103.888C54.7065 104.056 55.4657 103.508 55.8453 102.96C56.3093 102.327 56.2671 101.441 55.8453 100.808Z" fill="#333333"/>
<path d="M60.5272 100.091C60.0211 100.134 59.5149 100.049 59.2619 99.5852C58.9244 98.9947 59.3884 98.4042 59.9789 98.3199C60.1898 98.2777 60.4007 97.8137 60.1054 97.8137C59.304 97.8137 58.4605 98.7838 58.7979 99.5852C59.0088 100.218 59.9789 100.64 60.5272 100.091Z" fill="#333333"/>
<path d="M58.9244 99.29C58.7979 99.3743 58.587 99.4587 58.4605 99.5009C58.3761 99.5009 58.2917 99.5009 58.2074 99.5009C58.0808 99.4587 57.9965 99.5431 57.8699 99.4587H57.8278C57.8699 99.5852 57.9121 99.754 58.0387 99.8383C58.1652 99.8805 58.3339 99.9227 58.5026 99.9227C58.8401 99.8805 59.051 99.6696 59.0932 99.3743C59.0932 99.2478 58.9666 99.2478 58.9244 99.29Z" fill="#333333"/>
<path d="M61.413 102.833C61.2865 101.905 60.1476 101.483 59.3462 101.821C59.304 101.821 59.304 101.905 59.3462 101.863C59.9789 101.694 60.5694 102.032 60.8225 102.58C61.2443 103.381 60.4851 104.225 59.6415 104.098C59.4306 104.056 59.2197 104.478 59.5149 104.52C60.4851 104.731 61.5817 103.845 61.413 102.833Z" fill="#333333"/>
<path d="M60.9912 104.436C60.4851 104.267 59.5993 104.394 59.2619 104.815C59.4306 105.026 59.6837 104.942 59.9367 104.942C60.3585 104.942 60.7803 105.069 61.0756 105.322C61.4552 105.659 61.2443 106.165 60.949 106.46C60.6116 106.798 60.0633 106.84 59.6415 106.882C59.4306 106.924 59.304 107.051 59.2619 107.22C59.1353 107.641 59.8946 107.557 60.1054 107.515C60.4851 107.473 60.8225 107.346 61.1599 107.135C61.7083 106.84 62.0035 106.25 62.0457 105.617C62.0457 105.069 61.5395 104.605 60.9912 104.436Z" fill="#333333"/>
<path d="M61.413 107.304C60.9069 107.051 60.1476 107.262 59.6415 107.431C59.5571 107.431 59.5571 107.599 59.6415 107.557C60.4007 107.473 61.5396 107.431 61.7083 108.443C61.7926 108.991 61.3708 109.413 60.8647 109.54C60.4007 109.666 59.9789 109.371 59.5571 109.497C59.4728 109.54 59.3462 109.624 59.4306 109.75C59.6837 110.257 60.696 110.088 61.1599 109.919C61.7083 109.708 62.0457 109.202 62.1722 108.654C62.2144 108.105 61.9192 107.557 61.413 107.304Z" fill="#333333"/>
<path d="M59.4728 109.835C60.1476 109.877 61.0334 109.497 61.4552 110.299C61.7083 110.805 61.3286 111.353 60.949 111.649C60.4851 111.986 59.8946 111.986 59.3462 112.112C59.2619 112.112 59.2197 112.281 59.304 112.281C60.3163 112.239 61.8348 111.817 61.7926 110.51C61.7926 109.286 60.2742 109.244 59.4728 109.835Z" fill="#333333"/>
<path d="M61.2865 112.155C60.7381 111.817 60.0211 112.112 59.4306 112.239V112.281C60.1898 112.112 61.5817 112.112 61.7083 113.167C61.7926 113.842 60.9912 114.179 60.4851 114.264C60.1054 114.306 59.7258 114.179 59.3462 114.264C59.304 114.264 59.2197 114.348 59.304 114.39C59.7258 114.643 60.5694 114.559 61.0334 114.348C61.4974 114.137 61.877 113.757 61.9613 113.251C62.0035 112.787 61.6661 112.408 61.2865 112.155Z" fill="#333333"/>
<path d="M62.8471 52.1336C63.522 51.29 65.167 52.007 65.9262 52.3023C66.8541 52.6397 67.9086 53.188 68.4569 54.0738V54.116C67.6134 53.8629 66.8541 53.3568 65.9684 53.1459C64.9982 52.935 63.9016 53.4411 63.058 52.935C62.7627 52.8084 62.6362 52.3866 62.8471 52.1336Z" fill="#333333"/>
<path d="M58.8823 116.12C58.8401 116.077 58.8401 115.993 58.8823 115.951C59.1353 115.74 59.4306 115.74 59.7258 115.782C59.768 115.36 59.768 114.938 59.8102 114.517C59.6415 114.559 59.4728 114.559 59.304 114.601C59.304 114.601 59.304 114.601 59.304 114.559C59.4306 114.475 59.6415 114.39 59.8102 114.348C59.8524 112.787 59.8102 111.227 59.768 109.75C59.7258 106.545 59.5993 103.381 59.0932 100.218H59.051C59.1353 103.424 59.2197 106.629 59.1353 109.835C59.0931 111.564 58.9244 113.251 58.8401 114.981C58.7557 116.373 58.5448 117.68 58.7135 119.072C58.8401 119.072 58.9244 119.072 59.051 119.072C59.3462 118.186 59.5571 117.216 59.6415 116.246C59.3884 116.246 59.1353 116.246 58.8823 116.12Z" fill="#333333"/>
<path d="M60.7803 114.475C61.4552 114.559 62.2144 115.613 61.2443 115.951C60.7381 116.12 60.232 115.866 59.7258 115.782C59.7258 115.951 59.6837 116.12 59.6837 116.288C59.7258 116.288 59.768 116.288 59.8102 116.288C60.1898 116.33 60.5272 116.415 60.9069 116.373C61.3708 116.33 61.9613 116.035 62.0457 115.529C62.2566 114.179 60.8225 114.011 59.8102 114.306C59.8102 114.348 59.8102 114.432 59.8102 114.475C60.1054 114.475 60.4429 114.39 60.7803 114.475Z" fill="#333333"/>
<path d="M59.304 114.601C59.4728 114.601 59.6415 114.559 59.8102 114.517C59.8102 114.475 59.8102 114.39 59.8102 114.348C59.5993 114.432 59.4306 114.475 59.304 114.601C59.2619 114.559 59.2619 114.601 59.304 114.601Z" fill="#333333"/>
<path d="M58.8823 115.951C58.8401 115.993 58.7979 116.077 58.8823 116.12C59.1353 116.246 59.3884 116.246 59.6837 116.288C59.6837 116.12 59.7258 115.951 59.7258 115.782C59.4306 115.74 59.1353 115.74 58.8823 115.951Z" fill="#333333"/>
<path d="M34.5026 112.239C34.8401 109.371 35.304 106.587 36.2742 103.888C37.2443 101.272 38.7627 98.9526 40.9982 97.2654C43.2337 95.536 45.9332 94.1863 48.464 93.8067C49.0545 93.7223 49.6872 92.2882 48.8014 92.4991C43.529 93.7645 38.4253 97.0123 36.0211 101.905C34.8401 104.309 34.2496 106.967 33.8278 109.582C33.659 110.636 33.5325 111.649 33.406 112.703C33.7434 112.872 34.0808 113.04 34.4183 113.209C34.4605 112.914 34.5026 112.576 34.5026 112.239Z" fill="#333333"/>
<path d="M83.8102 101.821C81.2794 97.0123 76.7241 93.8067 69.9754 92.246C69.0896 92.0351 69.4692 93.2584 70.0598 93.3427C73.4763 93.8489 74.6151 93.8067 78.7065 97.3076C80.8155 99.1213 82.5448 101.23 83.5993 103.803C84.6538 106.46 85.2021 109.286 85.6239 112.112C85.6661 112.45 85.7083 112.83 85.7504 113.209C86.0879 113.04 86.4253 112.872 86.7627 112.703C86.6362 111.606 86.4675 110.51 86.2566 109.455C85.7083 106.798 85.0334 104.183 83.8102 101.821Z" fill="#333333"/>
<path d="M60.6116 116.373C61.3708 116.457 62.2144 117.511 61.1177 117.849C60.5694 118.018 59.9789 117.765 59.4306 117.68C59.4306 117.849 59.3884 118.018 59.3884 118.186C59.4306 118.186 59.4728 118.186 59.5149 118.186C59.9367 118.228 60.3163 118.313 60.7381 118.271C61.2443 118.228 61.9192 117.933 62.0457 117.427C62.2988 116.077 60.6538 115.909 59.5149 116.204C59.5149 116.246 59.5149 116.33 59.5149 116.373C59.8524 116.373 60.232 116.33 60.6116 116.373Z" fill="#333333"/>
<path d="M60.7803 118.271C61.0756 118.313 61.4552 118.566 61.5817 118.903C61.7083 118.903 61.877 118.903 62.0035 118.946C61.8348 118.018 60.6538 117.933 59.768 118.186C59.768 118.228 59.768 118.313 59.768 118.355C60.1054 118.271 60.4429 118.228 60.7803 118.271Z" fill="#333333"/>
</svg>
