<svg width="120" height="120" viewBox="0 0 120 120" fill="none" xmlns="http://www.w3.org/2000/svg">
<path d="M48.2953 51.4165C49.0967 51.9649 50.0246 52.2601 50.9947 52.0492L51.0369 52.0914C50.1511 52.8928 48.6327 52.6397 48.1265 51.5009C48.0844 51.4165 48.2109 51.3322 48.2953 51.4165Z" fill="#333333"/>
<path d="M47.7047 52.3445C47.9156 52.471 48.0844 52.5975 48.3374 52.6397C48.5483 52.6819 48.717 52.6819 48.9279 52.7241C49.3076 52.8084 49.9824 52.7241 50.3199 52.5132C50.3199 52.5132 50.362 52.5132 50.362 52.5554C50.2355 52.8084 50.1511 53.1459 49.9402 53.3146C49.6872 53.4833 49.2232 53.6942 48.8858 53.6098C48.2953 53.4411 47.7047 53.0615 47.5782 52.4288C47.536 52.3445 47.6626 52.3023 47.7047 52.3445Z" fill="#333333"/>
<path d="M73.4341 51.1213C72.6327 51.6696 71.7047 51.9649 70.7346 51.754L70.6924 51.7961C71.5782 52.5975 73.0967 52.3445 73.6028 51.2056C73.645 51.1213 73.5185 51.0369 73.4341 51.1213Z" fill="#333333"/>
<path d="M74.0246 52.0492C73.8137 52.1758 73.645 52.3023 73.3919 52.3445C73.181 52.3866 73.0123 52.3867 72.8014 52.4288C72.4218 52.5132 71.7469 52.4288 71.4095 52.2179C71.4095 52.2179 71.3673 52.2179 71.3673 52.2601C71.4939 52.5132 71.5782 52.8506 71.7891 53.0193C72.0422 53.1881 72.5061 53.3989 72.8436 53.3146C73.4341 53.1459 74.0246 52.7663 74.1511 52.1336C74.2355 52.0492 74.109 52.007 74.0246 52.0492Z" fill="#333333"/>
<path d="M67.065 26.7838C66.9807 26.6995 66.8541 26.826 66.8541 26.8682C66.5589 27.5431 66.6011 28.3023 66.5167 29.0193C66.3902 30.0316 66.0527 30.9596 65.6731 31.8875C64.8717 33.7434 63.5642 35.4728 61.8348 36.5694C60.1055 37.6661 57.9965 38.8893 56.0141 38.9736C53.7786 39.058 51.6274 39.2267 49.5185 40.0703C41.7997 43.1072 38.8471 51.2056 39.6063 58.7979H39.6485C39.6485 54.2847 40.5765 49.181 43.4446 45.5536C44.6678 43.993 46.3972 42.6432 48.1265 41.7153C50.0668 40.6608 52.2601 40.3656 54.4534 40.1547C58.3761 39.7329 61.7504 38.3831 64.4077 35.4728C65.5466 34.2074 66.4323 32.6467 66.9385 31.0439C67.2337 29.9473 67.8664 27.754 67.065 26.7838Z" fill="#333333"/>
<path d="M75.0791 41.5044C74.2777 40.5765 69.9332 38.4675 69.0896 37.6661C66.1793 34.8823 67.6134 31.5501 67.4446 28.9772C67.4446 28.8928 67.3181 28.935 67.2759 28.9772C66.1793 31.0439 65.6731 33.8699 66.4745 36.1476C67.4446 38.9736 69.9332 39.6485 72.3374 40.7452C77.4411 43.0228 79.5501 49.3076 78.4112 54.7065C78.3691 54.833 78.5378 54.7909 78.58 54.7065C80.2671 49.9824 78.2425 45.0475 75.0791 41.5044Z" fill="#333333"/>
<path d="M53.4411 82.2917C52.5975 81.1107 51.3743 80.3515 50.3199 79.3814C49.0967 78.2425 47.9156 76.9772 46.9033 75.6274C45.7645 74.109 44.8787 72.6327 44.4148 70.7768C43.9508 68.9209 44.0773 67.0229 44.3304 65.167C44.7944 61.5817 45.3005 57.9543 45.3849 54.2847C45.4271 52.5132 45.3849 50.6995 45.174 48.9279C45.0053 47.536 44.8787 45.5536 43.993 44.3726C43.9508 44.3304 43.9086 44.3726 43.9086 44.4148C43.5712 46.1019 44.0351 48.0844 44.1617 49.8137C44.3304 51.8383 44.4569 53.8207 44.4148 55.8453C44.3726 57.7434 44.3726 59.6837 44.0773 61.5395C43.7399 63.4376 43.2759 65.2935 43.1072 67.1916C42.812 70.3972 44.0351 73.3919 45.8067 76.007C46.6924 77.3146 47.9156 78.4112 49.0967 79.4236C50.362 80.5202 51.7118 81.8278 53.3146 82.4605C53.3989 82.4605 53.5255 82.3761 53.4411 82.2917Z" fill="#333333"/>
<path d="M49.181 79.3814C49.2232 79.3814 49.181 79.4236 49.181 79.3814V79.3814Z" fill="#333333"/>
<path d="M51.7961 81.1107H51.6696C51.6696 81.1107 51.6274 81.1529 51.6696 81.1529L51.7961 81.1107Z" fill="#333333"/>
<path d="M78.0316 65.6731C77.9895 65.5888 77.8629 65.6731 77.8629 65.7575C77.7364 67.2337 78.0316 68.71 77.7786 70.2285C77.4833 71.9578 76.7241 73.5606 75.8383 74.9947C74.1511 77.7364 71.6204 79.8032 69.0896 81.7012C66.348 83.768 63.3954 85.1599 59.8946 84.6116C56.5202 84.0633 53.7786 81.8278 50.7417 80.4359C50.6995 80.4359 50.6573 80.478 50.6573 80.5202C53.1459 82.9244 56.6046 84.7803 60.0211 85.3708C63.4798 85.9613 66.6854 84.4429 69.3849 82.4183C72.1687 80.3515 74.6995 77.8207 76.471 74.826C77.2724 73.4763 77.7786 72.0422 78.1582 70.5237C78.4534 69.1318 78.7909 66.9385 78.0316 65.6731Z" fill="#333333"/>
<path d="M81.1951 54.4956C80.4359 53.9473 78.4956 53.4833 78.0738 54.7065C78.0738 54.7487 78.0738 54.833 78.1582 54.833C78.58 54.9174 78.9174 54.6643 79.3814 54.58C80.4358 54.4112 81.2373 55.1283 81.7434 55.8875C82.5026 57.0264 82.5026 58.6292 82.2917 59.9367C82.0808 61.2865 81.406 62.594 80.5624 63.6485C80.225 64.1125 79.761 64.4499 79.3392 64.8295C78.833 65.2513 78.2003 65.5466 77.7786 66.0527C79.0018 66.3058 80.5624 64.703 81.2794 63.8594C82.3761 62.5097 83.0088 60.8647 83.0931 59.1775C83.2197 57.4482 82.6714 55.5079 81.1951 54.4956Z" fill="#333333"/>
<path d="M63.1845 64.1547C61.9192 64.9139 60.7381 65.3357 59.5149 64.1547C58.3339 63.0158 59.1353 61.3708 59.6415 60.1054C60.3585 58.1652 60.4007 56.225 59.6415 54.3269C59.5993 54.2003 59.4306 54.3269 59.4306 54.4534C59.5571 56.3093 59.4728 58.2496 59.0088 60.0211C58.6714 61.2443 58.2074 62.2988 58.6292 63.6063C59.2619 65.4622 62.2988 66.1371 63.3111 64.2812C63.3533 64.1547 63.2689 64.0703 63.1845 64.1547Z" fill="#333333"/>
<path d="M70.1019 69.5536C67.4868 71.6204 65.2091 73.6028 61.7926 74.109C60.1054 74.362 58.2917 74.0246 56.6889 73.4763C55.9297 73.2232 55.2127 72.9279 54.5378 72.5483C53.8629 72.1687 53.2302 71.6204 52.4288 71.4939C52.7241 72.9279 54.7909 74.0246 56.0141 74.5729C57.7434 75.3743 59.768 75.5431 61.6661 75.4165C64.9982 75.1634 70.0176 72.464 70.2285 69.638C70.2285 69.5536 70.1441 69.4692 70.1019 69.5536Z" fill="#333333"/>
<path d="M52.3445 51.5431C53.7364 51.3322 55.297 51.8805 56.1828 52.9772C56.225 53.0193 56.1828 53.1037 56.0984 53.0615C54.833 52.471 53.7364 52.0492 52.3023 52.2601C51.6696 52.3445 51.1213 52.6819 50.6151 53.0193C50.0246 53.3989 49.9824 53.7786 49.3076 53.9051C49.2232 53.9051 49.0967 53.8207 49.0967 53.7364C49.0545 52.3866 51.2478 51.6696 52.3445 51.5431Z" fill="#333333"/>
<path d="M53.5255 51.8805C52.4288 51.754 51.6696 52.8928 51.6696 53.8629C51.7118 54.7909 52.4288 55.5501 53.3568 55.5923C54.0738 55.5923 54.8752 55.1283 54.9596 53.8207C55.0018 52.8928 54.4113 52.007 53.5255 51.8805Z" fill="#333333"/>
<path d="M69.0053 51.2478C67.6134 51.0369 66.0527 51.5852 65.167 52.6819C65.1248 52.7241 65.167 52.8084 65.2513 52.7663C66.5167 52.1757 67.6134 51.754 69.0475 51.9649C69.6801 52.0492 70.2285 52.3866 70.7346 52.7241C71.3251 53.1037 71.3673 53.4833 72.0422 53.6098C72.1265 53.6098 72.2531 53.5255 72.2531 53.4411C72.2953 52.0914 70.1019 51.3743 69.0053 51.2478Z" fill="#333333"/>
<path d="M68.4148 51.5852C69.5114 51.4587 70.2707 52.5975 70.2707 53.5677C70.2285 54.4956 69.5114 55.2548 68.5835 55.297C67.8664 55.297 67.065 54.833 66.9807 53.5255C66.9385 52.5975 67.5712 51.7118 68.4148 51.5852Z" fill="#333333"/>
<path d="M54.116 44.2039C53.3146 43.3181 52.1757 43.8243 51.2056 44.1195C49.8559 44.5413 48.717 45.3849 47.8735 46.4815C48.9279 45.8067 50.0246 45.3427 51.2056 45.0475C52.2601 44.7944 53.1037 44.9631 54.0316 44.4148C54.116 44.4148 54.1582 44.2882 54.116 44.2039Z" fill="#333333"/>
<path d="M66.8963 43.8243C67.6977 42.9385 68.8366 43.4446 69.8067 43.7399C71.1564 44.1617 72.2952 45.0053 73.1388 46.1019C72.0844 45.4271 70.9877 44.9631 69.8067 44.6678C68.7522 44.4148 67.9086 44.5835 66.9807 44.0352C66.8963 43.993 66.8541 43.8664 66.8963 43.8243Z" fill="#333333"/>
<path d="M63.9859 20.1195C61.3708 18.6432 58.1652 18.0949 55.2127 18.0527C49.2232 17.9684 43.3603 20.3726 38.8049 24.1687C28.6397 32.6889 26.2777 47.536 28.6397 59.9367C29.4411 64.1125 30.7487 68.2039 32.3093 72.1687C33.9121 76.2179 36.232 80.0984 37.3708 84.3163C38.4675 88.3234 37.7083 93.0896 33.4903 94.8612C29.3146 96.5905 25.3076 93.8067 22.3972 91.1072C22.1863 90.9385 21.8489 91.2337 21.9754 91.4868C24.7592 96.8014 32.3937 98.362 36.696 93.9754C38.7627 91.8664 39.2267 88.703 38.9736 85.9192C38.6362 82.4183 36.8225 79.1705 35.3884 76.0492C29.4833 63.058 25.8559 47.4517 32.4359 33.9965C35.6415 27.4587 41.167 22.4394 48.1687 20.2882C51.5852 19.2337 55.2548 19.0228 58.7557 19.6977C62.3831 20.4148 67.065 22.4394 66.7276 26.8682C66.6854 27.4587 67.4446 27.29 67.5712 26.8682C68.4569 23.8735 66.3902 21.4692 63.9859 20.1195Z" fill="#333333"/>
<path d="M98.109 95.9156C95.8735 97.9402 93.5958 99.3322 90.4745 98.8682C87.3533 98.4042 84.949 95.7891 83.6837 93.0475C80.3093 85.8348 84.5272 77.7786 87.1845 71.0721C92.2461 58.2074 94.1441 42.6011 85.7083 30.6643C83.304 27.2478 80.0562 23.8735 75.9227 22.6924C72.6327 21.7645 68.2039 22.8612 67.0228 26.4042C66.8963 26.826 67.4025 26.826 67.5712 26.5729C72.6749 20.0773 80.8998 26.1933 84.4429 31.0439C88.4499 36.6116 90.2214 43.6134 90.2636 50.4042C90.3058 58.2917 87.9438 65.884 84.949 73.0967C82.2917 79.5501 79.297 86.7627 82.123 93.6801C83.5571 97.181 86.8049 100.007 90.6011 100.344C93.4693 100.598 97.8137 99.2056 98.3199 95.9578C98.362 95.8313 98.1933 95.8735 98.109 95.9156Z" fill="#333333"/>
<path d="M25.645 99.0791C25.1388 98.0668 24.1265 96.8014 23.536 95.4939C22.9033 94.0176 22.7346 92.4991 22.2707 91.0229C22.2285 90.8541 21.9332 91.0229 21.9332 91.1494C21.7223 92.6678 22.1019 94.2706 22.6081 95.6626C23.1142 97.0123 23.9156 98.9947 25.3076 99.6274C25.3919 99.7118 25.6872 99.2056 25.645 99.0791Z" fill="#333333"/>
<path d="M25.2232 98.7417C23.8313 99.3743 22.5659 99.5431 21.3849 99.5852C20.246 99.5852 19.1494 99.4165 18.6011 99.5431C18.5589 99.5431 19.1072 101.399 25.5606 99.6696C25.8137 99.5852 25.5606 98.5729 25.2232 98.7417Z" fill="#333333"/>
<path d="M98.3199 96.0422C98.3199 95.9578 98.2355 96 98.1933 96.0422C97.6872 97.0967 97.4763 98.2777 97.0123 99.3743C96.5061 100.513 95.536 101.399 95.0721 102.58C95.0299 102.664 95.1142 102.707 95.1564 102.664C96.2953 102.158 96.9279 100.935 97.4763 99.8805C98.0246 98.826 98.6995 97.2232 98.3199 96.0422Z" fill="#333333"/>
<path d="M101.23 99.4165C100.176 99.8383 99.3743 100.64 98.3199 101.062C97.645 101.357 96.9279 101.568 96.1687 101.736C95.7469 101.821 95.6626 101.905 95.3673 102.074C95.2408 102.158 95.0721 102.58 95.1986 102.664C96.0844 103.086 97.6872 102.158 98.4464 101.863C99.5431 101.399 100.851 100.64 101.315 99.5009C101.357 99.4587 101.272 99.3743 101.23 99.4165Z" fill="#333333"/>
<path d="M55.9719 83.3462C55.8032 83.2197 55.4236 83.4306 55.5079 83.6837C55.8875 84.949 56.5202 86.0457 56.7733 87.3533C57.0685 88.7874 56.8576 90.3058 56.3937 91.6555C55.9297 93.0475 55.0018 94.1863 53.8629 95.0721C53.0193 95.7469 51.8383 95.9156 51.0791 96.6749C51.0369 96.717 51.0369 96.8014 51.0791 96.8436C52.007 97.181 53.3989 96.1265 54.116 95.6204C55.3392 94.7768 56.3093 93.5536 56.9842 92.246C58.3339 89.7153 58.4605 85.1178 55.9719 83.3462Z" fill="#333333"/>
<path d="M69.3427 95.283C68.4148 94.2707 67.6977 93.0896 67.1916 91.7821C66.6011 90.3058 66.4745 88.703 66.5167 87.1002C66.5589 85.7083 67.1494 84.4429 67.2759 83.0931C65.3779 85.1599 65.4622 88.9561 66.1371 91.4868C66.4745 92.7944 67.1072 94.0176 67.9086 95.1142C68.5835 96 69.7223 97.7715 70.9877 97.6028C71.1142 97.6028 71.1986 97.4763 71.1986 97.3497C71.0721 96.5062 69.9332 95.9156 69.3427 95.283Z" fill="#333333"/>
<path d="M70.4816 97.645C69.0053 101.736 64.9561 104.731 60.5694 104.394C56.0984 104.056 53.0615 100.387 51.6274 96.4218C51.5852 96.2531 51.29 96.4218 51.29 96.5483C51.29 101.525 56.1406 105.364 60.8647 105.575C65.6731 105.786 70.2707 102.285 71.3251 97.6028C71.4095 97.0967 70.6081 97.3076 70.4816 97.645Z" fill="#333333"/>
<path d="M62.8471 98.826C62.3831 99.5431 61.2021 99.9227 60.5272 99.2478C60.8647 99.8383 61.2865 100.134 61.9613 100.049C62.594 99.9649 63.0158 99.4165 63.0158 98.826C63.0158 98.7417 62.8893 98.7838 62.8471 98.826Z" fill="#333333"/>
<path d="M74.1511 97.6028C74.0668 97.4763 73.8559 97.645 73.8981 97.7715C74.1933 98.6995 73.7715 99.2478 72.6749 99.4165C72.5483 99.4165 72.3796 99.6274 72.5061 99.7118C73.5606 100.471 72.6327 101.947 71.536 101.23C71.3251 101.104 71.0299 101.483 71.1986 101.652C71.9156 102.411 71.9156 104.689 69.8489 103.93C69.6801 103.888 69.5114 104.056 69.5536 104.225C70.0598 105.659 68.4991 106.671 67.3603 105.786C67.2337 105.701 67.0229 105.828 67.065 105.996C67.4446 108.148 64.4921 108.359 64.1547 106.418C64.1125 106.165 63.775 106.376 63.7329 106.545C63.3954 108.443 61.1599 108.359 60.5272 106.84C60.4429 106.671 60.1898 106.798 60.1054 106.882C59.0931 108.527 56.9842 107.431 57.3216 105.743C57.3638 105.49 57.0685 105.533 56.942 105.617C55.5501 106.967 53.7786 105.364 54.5378 103.803C54.6643 103.55 54.3269 103.508 54.2004 103.634C52.7663 105.026 50.6995 103.086 52.007 101.568C52.1336 101.441 52.0492 101.23 51.8805 101.272C50.826 101.568 49.7294 100.387 50.6151 99.5431C50.7417 99.4587 50.8682 99.3743 50.9525 99.2478C51.1213 99.0369 50.9525 98.6995 50.6995 98.8682C50.6573 98.9104 50.6151 98.9104 50.6151 98.9526C49.5185 99.6696 49.3076 99.0369 50.0246 97.0967C50.4464 96.9279 50.8682 96.8436 51.29 96.8858C51.29 96.8858 51.3322 96.8858 51.29 96.8436C50.0246 96.5483 48.8436 97.0967 48.717 98.4886C48.6327 99.3322 49.3497 99.754 50.0246 99.6696C49.645 100.64 50.3199 101.821 51.5431 101.652C50.5729 103.297 52.3445 105.069 53.9895 104.225C53.652 105.87 55.3814 107.051 56.8155 106.207C56.7733 108.063 59.1353 108.823 60.2742 107.388C61.2443 108.865 63.2267 108.612 63.9438 107.135C64.7874 108.865 67.3603 108.232 67.4446 106.292C68.7944 107.051 70.3972 105.87 70.0176 104.351C71.4939 104.52 72.5905 103.213 72.0422 101.905C73.1388 101.947 73.8981 100.64 73.0967 99.7118C74.0668 99.5852 74.7417 98.5308 74.1511 97.6028Z" fill="#333333"/>
<path d="M18.6011 99.5009C18.3058 100.218 18.348 101.062 18.5589 101.863C19.065 102.327 19.529 102.833 20.0352 103.297C19.4868 101.947 18.6011 99.5009 18.6011 99.5009Z" fill="#333333"/>
<path d="M101.357 99.5009C101.272 99.3743 101.062 99.4165 100.977 99.5431C100.64 100.134 100.682 100.682 100.598 101.357C100.513 101.905 100.429 102.453 100.302 103.002C100.682 102.622 101.062 102.285 101.441 101.905C101.568 101.104 101.779 100.134 101.357 99.5009Z" fill="#333333"/>
<path d="M37.2865 104.731C40.9561 100.555 45.9754 98.2355 51.3322 97.181C51.8383 97.0967 52.1336 96.1687 51.4587 96.2109C45.891 96.6749 40.5765 99.6274 36.7803 103.677C34.7135 105.87 33.1529 108.443 32.0141 111.185C31.9297 111.353 31.8453 111.564 31.761 111.775C31.8032 111.817 31.8453 111.817 31.8875 111.859C31.9297 111.859 32.0141 111.859 32.0562 111.859C32.0984 111.859 32.0984 111.902 32.0562 111.944C32.3515 112.112 32.6046 112.239 32.8998 112.366C32.942 112.281 32.942 112.197 32.9842 112.07C33.9121 109.371 35.4306 106.882 37.2865 104.731Z" fill="#333333"/>
<path d="M31.761 111.733C31.761 111.733 31.761 111.775 31.7188 111.775C31.761 111.775 31.8032 111.775 31.8453 111.775C31.8453 111.817 31.8032 111.775 31.761 111.733Z" fill="#333333"/>
<path d="M32.0562 111.817C32.0141 111.817 31.9297 111.817 31.8875 111.817C31.9719 111.859 32.0141 111.902 32.0984 111.944C32.0984 111.859 32.0984 111.817 32.0562 111.817Z" fill="#333333"/>
<path d="M83.5149 103.972C81.7434 101.947 79.5923 100.26 77.2724 98.9526C75.1213 97.6872 72.464 96.5483 69.9332 96.6327C69.7645 96.6327 69.638 96.9279 69.8067 97.0123C71.8735 98.109 74.1933 98.7417 76.2601 99.8383C78.5378 101.062 80.6046 102.707 82.3761 104.605C84.1055 106.46 85.4974 108.612 86.594 110.889C86.8049 111.353 87.0158 111.859 87.2267 112.323C87.5641 112.155 87.8594 111.986 88.1968 111.817C88.1125 111.522 87.9859 111.269 87.9016 110.974C86.8471 108.401 85.3287 106.039 83.5149 103.972Z" fill="#333333"/>
<path d="M42.4323 114.77C42.5589 115.318 42.6854 115.866 42.7276 116.415C42.812 116.457 42.9385 116.457 43.0228 116.499C42.7698 115.951 42.5589 115.36 42.4323 114.77C42.4323 114.728 42.4323 114.728 42.4323 114.77Z" fill="#333333"/>
<path d="M42.4323 114.77C42.4323 114.685 42.3902 114.643 42.3902 114.559C42.2214 115.107 42.0949 115.613 41.9262 116.162C42.1793 116.246 42.4323 116.33 42.6854 116.415C42.5589 115.824 42.4745 115.276 42.4323 114.77Z" fill="#333333"/>
<path d="M42.4323 114.77C42.5167 115.318 42.5589 115.866 42.6432 116.373C42.6854 116.373 42.6854 116.373 42.7276 116.373C42.6854 115.824 42.5589 115.318 42.4323 114.77Z" fill="#333333"/>
<path d="M42.7276 116.71C42.7276 116.626 42.7276 116.499 42.7276 116.415C42.6854 116.415 42.6854 116.415 42.6432 116.415C42.6854 116.499 42.6854 116.583 42.7276 116.71Z" fill="#333333"/>
<path d="M79.1705 115.993C79.1283 116.12 79.0861 116.246 79.0861 116.373L79.1705 115.993Z" fill="#333333"/>
<path d="M80.1406 64.8717C79.9719 64.4077 79.761 63.9438 79.5923 63.4798C79.5501 63.4376 79.5079 63.4798 79.5079 63.522C79.5501 63.9859 79.6344 64.4499 79.7188 64.9139C79.8032 65.3357 79.8032 65.7575 80.1406 66.0527C80.225 66.1371 80.3515 66.0105 80.3515 65.9262C80.3937 65.5466 80.2671 65.2513 80.1406 64.8717Z" fill="#333333"/>
<path d="M81.4482 65.7575C80.942 65.42 80.225 65.5044 79.7188 65.6731C79.1705 65.884 79.0018 66.2214 78.8752 66.6432C78.6221 67.1072 78.58 67.6977 78.833 68.246C79.297 69.3005 80.942 69.4692 81.7434 68.71C82.587 67.8664 82.4605 66.4323 81.4482 65.7575ZM81.5747 68.2882C81.0685 69.0896 79.8453 68.7944 79.297 68.246C78.9596 67.9086 78.9174 67.4025 79.0439 66.9807C79.1705 66.7276 79.5501 66.4745 79.761 66.3058C80.1406 66.0105 80.6046 65.9684 81.0685 66.1371C81.8699 66.4745 81.9965 67.6133 81.5747 68.2882Z" fill="#333333"/>
<path d="M63.3533 26.2777C62.5097 31.7188 57.0264 34.0387 52.4288 35.5571C50.0668 36.3163 47.7469 37.1178 45.638 38.4253C43.7821 39.5641 42.2214 41.0826 40.9139 42.812C38.2144 46.3972 36.8225 50.9104 36.6116 55.3392C36.4851 57.8699 36.8225 60.4007 37.3286 62.8471C37.9192 65.5466 38.9736 67.8243 40.239 70.2707C40.2812 70.3128 40.3656 70.2707 40.3234 70.2285C39.3533 67.8243 38.594 65.1248 38.0035 62.594C37.3708 59.8946 37.1599 57.1107 37.3286 54.3691C37.6661 49.6028 39.5641 44.9631 42.9385 41.5466C46.6924 37.7504 51.8383 36.7381 56.5202 34.587C59.9367 33.0264 63.3533 30.1582 63.6907 26.1933C63.775 25.9402 63.3954 26.0668 63.3533 26.2777Z" fill="#333333"/>
<path d="M60.8225 21.7645C60.8225 21.7223 60.7381 21.7645 60.7381 21.8067C60.9069 28.4288 52.1757 29.8629 47.6204 32.1406C43.2337 34.2917 39.2689 37.7083 36.5272 41.7575C29.8207 51.5852 33.0685 65.1248 39.058 74.4886C39.1002 74.5729 39.1845 74.4886 39.1845 74.4042C36.8647 68.4569 34.123 62.8471 33.5747 56.3937C33.0685 50.2777 34.8401 44.4148 38.8471 39.7329C42.3058 35.6837 47.0721 32.9842 51.9227 31.0018C55.9297 29.3989 61.413 27.0369 60.8225 21.7645Z" fill="#333333"/>
<path d="M43.6977 82.4605C43.1916 81.0264 42.2636 78.7909 40.9139 77.9473C40.8717 77.9473 40.8717 77.9895 40.8717 77.9895C41.0404 78.6643 41.4622 79.2548 41.7575 79.8875C42.1371 80.6467 42.3902 81.406 42.6854 82.2074C43.2759 83.8524 43.5712 85.6239 43.6977 87.3533C43.993 90.9807 42.8963 94.9455 40.9561 98.0246C40.9139 98.109 40.9982 98.1511 41.0826 98.0668C43.4446 94.9033 44.6257 91.4446 44.6257 87.522C44.6257 85.7504 44.246 84.0633 43.6977 82.4605Z" fill="#333333"/>
<path d="M47.4939 81.7012C47.4939 81.659 47.4517 81.6169 47.3673 81.4903C47.283 81.3216 47.0299 81.5325 47.1142 81.6591C48.5483 84.9912 48.8014 88.6608 47.9578 92.1617C47.9578 92.246 48.0422 92.246 48.0844 92.1617C49.4763 88.7873 49.2654 84.9912 47.4939 81.7012Z" fill="#333333"/>
<path d="M78.7909 40.9982C77.3146 39.0158 75.2478 37.7083 73.4341 36.1054C71.4517 34.3339 69.7223 31.3392 71.3673 28.7663C71.4095 28.6819 71.3251 28.6819 71.283 28.7241C68.1195 32.8998 73.3497 36.8647 76.0914 39.3111C78.0316 41.0404 79.5923 43.1916 80.7311 45.5114C81.9543 47.9578 82.2074 50.4042 82.4183 53.0615C82.4183 53.1459 82.5448 53.0615 82.5448 53.0193C82.9244 48.8436 81.2373 44.2882 78.7909 40.9982Z" fill="#333333"/>
<path d="M85.2021 49.2232C86.8049 55.1283 86.2566 61.413 84.5694 67.2337C84.5694 67.3181 84.6538 67.2759 84.6538 67.2337C85.9192 64.4077 86.5097 61.3287 86.6362 58.2496C86.7627 55.0861 86.1722 52.1757 85.2021 49.2232Z" fill="#333333"/>
<path d="M72.6327 88.3656C72.3796 86.1301 72.6749 83.768 73.645 81.7012C72.717 83.768 72.2531 85.8348 72.3374 88.1125C72.4218 90.0949 73.0123 92.7522 74.4464 94.2285C74.4886 94.2707 74.5729 94.1863 74.5308 94.1441C73.8137 92.2039 72.8858 90.5167 72.6327 88.3656Z" fill="#333333"/>
<path d="M80.4359 96C78.8752 93.2162 77.7364 90.4323 77.5255 87.1845C77.3146 83.8946 78.0738 80.3515 79.8453 77.5677C76.5554 82.9666 75.9649 91.0228 80.3515 96.1265C80.3515 96.1687 80.478 96.0844 80.4359 96Z" fill="#333333"/>
<path d="M55.2127 21.1318C54.3269 21.9754 53.5677 22.9033 52.5554 23.6626C51.5009 24.4218 50.2777 24.9701 49.0967 25.5185C46.6924 26.5729 44.2882 27.4587 42.0949 28.935C38.3831 31.3814 35.8102 34.8401 34.123 38.9315C34.0808 39.0158 34.2074 39.0158 34.2496 38.9315C36.232 34.5448 39.8172 30.8752 43.993 28.5554C46.3128 27.29 48.8858 26.5729 51.2056 25.2654C52.7241 24.4218 54.7909 23.0299 55.2548 21.2162C55.3392 21.0896 55.2548 21.0896 55.2127 21.1318Z" fill="#333333"/>
<path d="M74.3199 25.6028C74.0668 33.5747 84.1055 36.4429 84.7803 44.1195C84.7803 44.2039 84.9069 44.1617 84.9069 44.0773C85.2443 36.0211 73.8981 33.6591 74.3199 25.6028Z" fill="#333333"/>
<path d="M59.9789 120C26.9104 120 0 93.0475 0 59.9789C0 26.9104 26.9104 0 59.9789 0C93.0475 0 120 26.9104 120 59.9789C120 93.0475 93.0475 120 59.9789 120ZM59.9789 0.843585C27.3743 0.843585 0.843585 27.3743 0.843585 59.9789C0.843585 92.5835 27.3743 119.156 59.9789 119.156C92.5835 119.156 119.156 92.5835 119.156 59.9789C119.156 27.3743 92.5835 0.843585 59.9789 0.843585Z" fill="#333333"/>
</svg>
