<svg width="21" height="36" viewBox="0 0 21 36" fill="none" xmlns="http://www.w3.org/2000/svg">
<path d="M16.0631 4.80265C16.3813 5.20088 16.6179 5.50354 16.8626 5.80619C17.866 7.0646 18.8776 8.31504 19.8647 9.58142C20.0034 9.7646 20.1095 10.0274 20.1095 10.2504C20.1176 17.9442 20.1176 25.646 20.1176 33.3398C20.1176 34.7018 19.31 35.7053 18.0292 35.9602C17.8334 36 17.6213 36 17.4173 36C12.5062 36 7.60326 36 2.69214 36C1.1258 36 0 34.9088 0 33.3717C0 25.646 0 17.9283 0.00815801 10.2027C0.00815801 9.99557 0.106054 9.7646 0.236582 9.59734C1.37055 8.15575 2.52082 6.73009 3.66295 5.29646C3.769 5.16106 3.87505 5.02566 4.04637 4.81062C3.41005 4.81062 2.86346 4.81062 2.30872 4.81062C1.80292 4.81062 1.74581 4.7469 1.74581 4.26106C1.74581 3.02655 1.74581 1.79204 1.74581 0.557522C1.74581 0.0716814 1.81108 0.0079646 2.30872 0.0079646C7.50537 0 12.6939 0 17.8905 0C18.4779 0 18.5105 0.0318584 18.5105 0.613274C18.5105 1.84779 18.5024 3.0823 18.5187 4.31681C18.5187 4.68319 18.3718 4.81858 18.0129 4.81062C17.401 4.79469 16.7892 4.80265 16.0631 4.80265ZM19.4242 21.9584C19.4242 18.1115 19.4324 14.2646 19.4161 10.4097C19.4161 10.1947 19.3263 9.93982 19.1958 9.7646C17.9476 8.17965 16.675 6.60265 15.4186 5.0177C15.2636 4.81858 15.1005 4.73097 14.8394 4.73097C11.6333 4.73894 8.42722 4.73894 5.21297 4.73097C4.95191 4.73097 4.79691 4.81858 4.63375 5.0177C3.38557 6.59469 2.12108 8.15575 0.881065 9.73274C0.734221 9.91593 0.636325 10.1788 0.636325 10.4097C0.628167 18.0717 0.628166 25.7257 0.628166 33.3796C0.628166 34.5823 1.40318 35.3389 2.64319 35.3389C7.55431 35.3389 12.4573 35.3389 17.3684 35.3389C18.6737 35.3389 19.4242 34.6062 19.4242 33.3398C19.4242 29.5487 19.4242 25.7496 19.4242 21.9584ZM17.8334 2.00708C17.8334 1.67257 17.8089 1.36195 17.8416 1.06726C17.8742 0.724779 17.7274 0.653097 17.401 0.653097C12.5633 0.661062 7.72563 0.661062 2.89609 0.661062C2.74925 0.661062 2.61056 0.661062 2.4474 0.661062C2.4474 1.13894 2.4474 1.56106 2.4474 2.01504C7.56247 2.00708 12.6612 2.00708 17.8334 2.00708ZM2.46372 2.79558C2.46372 3.27345 2.46372 3.69558 2.46372 4.1177C7.59511 4.1177 12.6939 4.1177 17.8008 4.1177C17.8008 3.65575 17.8008 3.23363 17.8008 2.79558C12.6694 2.79558 7.57879 2.79558 2.46372 2.79558Z" fill="#828282"/>
<path d="M16.7076 20.4371C16.7076 23.2247 16.7076 26.0123 16.7076 28.7999C16.7076 29.3814 16.675 29.4053 16.0794 29.4053C12.0249 29.4053 7.97853 29.4053 3.924 29.4053C3.39373 29.4053 3.34478 29.3575 3.34478 28.8318C3.34478 23.2486 3.34478 17.6575 3.34478 12.0743C3.34478 11.5327 3.40189 11.4769 3.94848 11.4769C7.98669 11.4769 12.0249 11.4769 16.0631 11.4769C16.6668 11.4769 16.7076 11.5247 16.7076 12.1141C16.7076 14.8938 16.7076 17.6654 16.7076 20.4371ZM15.9897 28.7283C15.9897 23.2008 15.9897 17.7053 15.9897 12.1858C12.0004 12.1858 8.04379 12.1858 4.06269 12.1858C4.06269 17.7132 4.06269 23.2088 4.06269 28.7283C8.04379 28.7283 12.0004 28.7283 15.9897 28.7283Z" fill="#828282"/>
<path d="M14.3418 20.469C14.3418 22.4601 14.3418 24.4513 14.3418 26.4424C14.3418 26.9283 14.252 27.0318 13.7462 27.0318C11.2744 27.0398 8.80249 27.0398 6.33061 27.0318C5.85745 27.0318 5.79219 26.9601 5.79219 26.4982C5.79219 22.4681 5.79219 18.43 5.79219 14.3999C5.79219 13.9221 5.84929 13.8663 6.33061 13.8663C8.81881 13.8663 11.307 13.8663 13.787 13.8663C14.2765 13.8663 14.3418 13.938 14.3418 14.4238C14.3418 16.4389 14.3418 18.4539 14.3418 20.469ZM13.6239 14.5274C13.4444 14.5274 13.3057 14.5274 13.1752 14.5274C11.0949 14.5274 9.0146 14.5353 6.93431 14.5194C6.5672 14.5194 6.45298 14.5991 6.45298 14.9814C6.4693 18.6292 6.46114 22.2769 6.46114 25.9247C6.46114 26.0681 6.47746 26.2035 6.47746 26.3468C8.88407 26.3468 11.2417 26.3468 13.6157 26.3468C13.6239 22.4044 13.6239 18.4937 13.6239 14.5274Z" fill="#828282"/>
</svg>
