<?xml version="1.0" encoding="utf-8"?>
<!-- Generator: Adobe Illustrator 15.0.2, SVG Export Plug-In . SVG Version: 6.00 Build 0)  -->
<!DOCTYPE svg PUBLIC "-//W3C//DTD SVG 1.1//EN" "http://www.w3.org/Graphics/SVG/1.1/DTD/svg11.dtd">
<svg version="1.1" id="Layer_1" xmlns="http://www.w3.org/2000/svg" xmlns:xlink="http://www.w3.org/1999/xlink" x="0px" y="0px"
	 width="69px" height="69px" viewBox="0 0 69 69" enable-background="new 0 0 69 69" xml:space="preserve">
<g>
	<path fill="#234D7D" d="M49.273,12.592H9.046c-0.641,0-1.158-0.518-1.158-1.159s0.518-1.159,1.158-1.159h40.228
		c0.643,0,1.158,0.518,1.158,1.159S49.914,12.592,49.273,12.592z"/>
	<path fill="#234D7D" d="M29.161,51.082c-0.112,0-0.229-0.012-0.334-0.049l-15.898-4.818c-0.492-0.148-0.826-0.598-0.826-1.109
		V11.434c0-0.641,0.519-1.159,1.158-1.159h31.792c0.646,0,1.158,0.518,1.158,1.159v33.672c0,0.512-0.326,0.961-0.82,1.107
		l-15.897,4.82C29.39,51.07,29.271,51.082,29.161,51.082z M14.421,44.244l14.74,4.473l14.733-4.473V12.592H14.421V44.244z"/>
	<path fill="#234D7D" d="M29.161,12.592c-0.643,0-1.16-0.518-1.16-1.159V3.457c0-0.641,0.518-1.159,1.16-1.159
		c0.641,0,1.158,0.518,1.158,1.159v7.977C30.319,12.075,29.802,12.592,29.161,12.592z"/>
	<path fill="#234D7D" d="M18.61,19.137h-4.658c-0.643,0-1.159-0.518-1.159-1.159s0.517-1.159,1.159-1.159h4.658
		c0.641,0,1.158,0.518,1.158,1.159C19.769,18.62,19.251,19.137,18.61,19.137z"/>
	<path fill="#234D7D" d="M45.053,25.983H13.952c-0.643,0-1.159-0.518-1.159-1.159c0-0.641,0.517-1.159,1.159-1.159h31.101
		c0.646,0,1.158,0.518,1.158,1.159C46.211,25.465,45.699,25.983,45.053,25.983z"/>
	<path fill="#234D7D" d="M18.61,31.832h-4.658c-0.643,0-1.159-0.518-1.159-1.159s0.517-1.157,1.159-1.157h4.658
		c0.641,0,1.158,0.518,1.158,1.157C19.769,31.314,19.251,31.832,18.61,31.832z"/>
	<path fill="#234D7D" d="M18.61,38.117h-4.658c-0.643,0-1.159-0.518-1.159-1.158s0.517-1.158,1.159-1.158h4.658
		c0.641,0,1.158,0.518,1.158,1.158S19.251,38.117,18.61,38.117z"/>
	<path fill="#234D7D" d="M47.34,65.873H34.614c-1.77,0-3.434-0.689-4.678-1.936C28.692,62.688,28,61.023,28,59.254v-9.33
		c0-0.643,0.519-1.158,1.16-1.158c0.641,0,1.157,0.518,1.157,1.158v9.33c0,1.15,0.443,2.23,1.258,3.043
		c0.814,0.814,1.886,1.258,3.037,1.258h12.726c1.055,0,2.053-0.412,2.797-1.158c0.754-0.752,1.16-1.744,1.16-2.805V42.898
		c0-1.404,0.553-2.734,1.553-3.734c0.998-0.998,2.322-1.541,3.734-1.541h5.674c0.643,0,1.16,0.52,1.16,1.16
		c0,0.639-0.518,1.158-1.16,1.158h-5.674c-0.787,0-1.533,0.309-2.096,0.863c-0.561,0.564-0.869,1.305-0.869,2.094v16.695
		c0,1.684-0.652,3.26-1.842,4.441C50.594,65.221,49.016,65.873,47.34,65.873z"/>
</g>
</svg>
