<?xml version="1.0" encoding="utf-8"?>
<!-- Generator: Adobe Illustrator 15.0.2, SVG Export Plug-In . SVG Version: 6.00 Build 0)  -->
<!DOCTYPE svg PUBLIC "-//W3C//DTD SVG 1.1//EN" "http://www.w3.org/Graphics/SVG/1.1/DTD/svg11.dtd">
<svg version="1.1" id="Layer_1" xmlns="http://www.w3.org/2000/svg" xmlns:xlink="http://www.w3.org/1999/xlink" x="0px" y="0px"
	 width="69px" height="69px" viewBox="0 0 69 69" enable-background="new 0 0 69 69" xml:space="preserve">
<path fill="#FFFFFF" d="M59.156,59.154c-5.059,5.059-13.234,5.113-18.225,0.123l-30.21-30.21c-4.99-4.99-4.935-13.166,0.123-18.225
	c5.058-5.058,13.234-5.113,18.224-0.123l30.211,30.212C64.27,45.922,64.214,54.098,59.156,59.154L59.156,59.154z M27.563,12.225
	C23.625,8.286,17.314,8.11,13.064,11.66l1.456,1.456l-1.505,1.505l-1.446-1.449c-3.457,4.25-3.247,10.485,0.657,14.39l7.583,7.584
	l15.337-15.337L27.563,12.225L27.563,12.225z M36.63,21.295L21.292,36.632L33.37,48.706l15.337-15.337L36.63,21.295L36.63,21.295z
	 M57.773,42.438l-7.584-7.584L34.854,50.189l7.583,7.584c3.904,3.904,10.141,4.113,14.391,0.66l-1.449-1.449l1.505-1.506
	l1.459,1.455C61.889,52.686,61.713,46.375,57.773,42.438L57.773,42.438z M44.654,35.893l-8.762,8.762
	c-1.375,1.379-3.6,1.392-4.957,0.033l-5.625-5.621c-1.357-1.36-1.341-3.584,0.034-4.959l8.762-8.762
	c1.375-1.376,3.599-1.392,4.956-0.034l5.625,5.625C46.046,32.293,46.029,34.517,44.654,35.893L44.654,35.893z M43.184,32.44
	l-5.625-5.625c-0.537-0.54-1.422-0.533-1.968,0.013l-8.762,8.766c-0.546,0.545-0.552,1.428-0.012,1.967l5.625,5.623
	c0.537,0.539,1.419,0.532,1.968-0.014l8.762-8.762C43.717,33.863,43.723,32.978,43.184,32.44L43.184,32.44z M18.974,32.817
	l-1.487-1.486l1.607-1.604l1.483,1.483L18.974,32.817L18.974,32.817z M22.082,29.705l-1.486-1.483l1.505-1.505l1.487,1.483
	L22.082,29.705L22.082,29.705z M25.092,26.695l-1.486-1.483l1.606-1.604l1.483,1.483L25.092,26.695L25.092,26.695z M28.201,23.587
	l-1.483-1.483l1.505-1.506l1.483,1.483L28.201,23.587L28.201,23.587z M31.211,20.576l-1.483-1.483l1.604-1.606l1.483,1.486
	L31.211,20.576L31.211,20.576z M12.935,26.778l-1.484-1.483l1.604-1.606l1.483,1.486L12.935,26.778L12.935,26.778z M16.043,23.67
	l-1.483-1.486l1.505-1.506l1.483,1.487L16.043,23.67L16.043,23.67z M19.054,20.659l-1.483-1.486l1.604-1.604l1.486,1.483
	L19.054,20.659L19.054,20.659z M22.163,17.548l-1.483-1.483l1.505-1.505l1.483,1.486L22.163,17.548L22.163,17.548z M25.172,14.541
	l-1.483-1.486l1.604-1.604l1.487,1.483L25.172,14.541L25.172,14.541z M17.607,28.24l-1.483-1.483l1.505-1.505l1.483,1.483
	L17.607,28.24L17.607,28.24z M20.617,25.233l-1.483-1.486l1.505-1.505l1.483,1.486L20.617,25.233L20.617,25.233z M23.726,22.121
	l-1.483-1.482l1.505-1.506l1.483,1.483L23.726,22.121L23.726,22.121z M26.736,19.111l-1.484-1.483l1.505-1.505l1.483,1.483
	L26.736,19.111L26.736,19.111z M11.572,22.205l-1.487-1.487l1.505-1.505l1.484,1.487L11.572,22.205L11.572,22.205z M14.579,19.194
	l-1.483-1.483l1.505-1.505l1.483,1.483L14.579,19.194L14.579,19.194z M17.69,16.086L16.204,14.6l1.505-1.505l1.487,1.486
	L17.69,16.086L17.69,16.086z M20.7,13.076l-1.486-1.487l1.505-1.505l1.483,1.486L20.7,13.076L20.7,13.076z M38.668,52.512
	l-1.482-1.482l1.604-1.606l1.482,1.486L38.668,52.512L38.668,52.512z M41.777,49.402l-1.483-1.485l1.505-1.505l1.483,1.486
	L41.777,49.402L41.777,49.402z M44.787,46.395l-1.482-1.486l1.604-1.604l1.486,1.482L44.787,46.395L44.787,46.395z M47.896,43.281
	l-1.484-1.483l1.506-1.505l1.482,1.486L47.896,43.281L47.896,43.281z M50.906,40.273l-1.483-1.485l1.604-1.604l1.486,1.483
	L50.906,40.273L50.906,40.273z M44.707,58.551l-1.486-1.486l1.606-1.604l1.483,1.482L44.707,58.551L44.707,58.551z M47.814,55.439
	l-1.482-1.484l1.502-1.505l1.486,1.483L47.814,55.439L47.814,55.439z M50.826,52.43l-1.486-1.484l1.605-1.604l1.484,1.483
	L50.826,52.43L50.826,52.43z M53.936,49.32l-1.483-1.483l1.505-1.505l1.482,1.482L53.936,49.32L53.936,49.32z M56.943,46.311
	l-1.482-1.483l1.604-1.606l1.483,1.486L56.943,46.311L56.943,46.311z M43.242,53.875l-1.483-1.482l1.505-1.506l1.483,1.483
	L43.242,53.875L43.242,53.875z M46.252,50.868l-1.482-1.486l1.504-1.505l1.483,1.486L46.252,50.868L46.252,50.868z M49.361,47.757
	l-1.483-1.483l1.505-1.506l1.483,1.483L49.361,47.757L49.361,47.757z M52.371,44.746l-1.482-1.482l1.504-1.506l1.483,1.482
	L52.371,44.746L52.371,44.746z M49.281,59.914l-1.487-1.482l1.505-1.506l1.487,1.483L49.281,59.914L49.281,59.914z M52.291,56.904
	l-1.486-1.484l1.506-1.505l1.485,1.483L52.291,56.904L52.291,56.904z M55.398,53.795l-1.482-1.486l1.505-1.502l1.483,1.483
	L55.398,53.795L55.398,53.795z M58.41,50.785l-1.487-1.482l1.507-1.506l1.485,1.482L58.41,50.785L58.41,50.785z M33.466,41.089
	l-4.556-4.553l7.624-7.623l4.556,4.552L33.466,41.089L33.466,41.089z M36.516,31.901l-4.613,4.613l1.582,1.586l4.613-4.617
	L36.516,31.901L36.516,31.901z M59.279,29.067l-30.212,30.21c-4.99,4.99-13.166,4.936-18.224-0.123
	c-5.058-5.057-5.113-13.232-0.122-18.223l30.21-30.211c4.99-4.99,13.166-4.935,18.226,0.123
	C64.214,15.901,64.27,24.077,59.279,29.067L59.279,29.067z M12.226,42.438c-3.938,3.938-4.114,10.248-0.567,14.498l1.514,1.498
	c4.25,3.455,10.486,3.244,14.39-0.66l7.583-7.584L19.809,34.853L12.226,42.438L12.226,42.438z M21.292,33.369L36.63,48.706
	l12.077-12.074L33.37,21.295L21.292,33.369L21.292,33.369z M58.432,13.172l-1.496-1.512c-4.25-3.55-10.56-3.374-14.498,0.564
	l-7.583,7.584l15.335,15.338l7.584-7.584C61.68,23.657,61.889,17.422,58.432,13.172L58.432,13.172z"/>
</svg>
