<svg width="108" height="36" viewBox="0 0 108 36" fill="none" xmlns="http://www.w3.org/2000/svg">
<path d="M27.0323 17.0233H31.7612C31.7612 18.8372 32.6787 19.6047 34.1609 19.6047C35.7137 19.6047 36.4901 18.6977 36.4901 17.5814C36.4901 13.814 27.5264 13.3954 27.5264 6.48839C27.5264 3.00002 29.9967 0.488387 34.2315 0.488387C38.4663 0.488387 41.0072 3.00002 41.0072 7.18606H36.2078C36.2078 5.72095 35.502 4.9535 34.1609 4.9535C32.9611 4.9535 32.2553 5.58141 32.2553 6.62792C32.2553 10.1861 41.3601 10.3954 41.3601 17.6512C41.3601 21.3489 38.6781 24.0698 34.1609 24.0698C29.7849 24.0698 27.0323 21.5582 27.0323 17.0233Z" fill="white"/>
<path d="M67.5455 0.976737L62.3932 23.6512H57.4525L55.8292 16.0465C55.2645 13.6046 54.9116 10.4651 54.7705 8.65116H54.6293C54.4881 10.4651 54.1352 13.6046 53.5706 16.0465L51.9472 23.6512H47.0066L41.7837 0.976737H46.5831L48.4182 11.7209C48.7005 13.3953 49.124 16.186 49.3358 18.0698H49.4769C49.6887 16.186 50.1827 13.3953 50.3945 11.7209L52.2296 1.32557H57.0996L58.9347 11.7209C59.217 13.3953 59.6405 16.186 59.8523 18.0698H59.9934C60.2052 16.186 60.6992 13.3953 60.911 11.7209L62.7461 0.976737H67.5455Z" fill="white"/>
<path d="M74.3918 0.976737H69.7335V23.6512H74.3918V0.976737Z" fill="white"/>
<path d="M77.0033 17.0233H81.8028C81.8028 18.8372 82.7203 19.6047 84.2025 19.6047C85.7553 19.6047 86.5317 18.6977 86.5317 17.5814C86.5317 13.814 77.5679 13.3954 77.5679 6.48839C77.5679 3.00002 80.0383 0.488387 84.2731 0.488387C88.5079 0.488387 91.0488 3.00002 91.0488 7.18606H86.2493C86.2493 5.72095 85.5435 4.9535 84.2025 4.9535C83.0026 4.9535 82.2968 5.58141 82.2968 6.62792C82.2968 10.1861 91.4017 10.3954 91.4017 17.6512C91.4017 21.3489 88.7197 24.0698 84.2025 24.0698C79.7559 24.0698 77.0033 21.5582 77.0033 17.0233Z" fill="white"/>
<path d="M92.6721 17.0233H97.4716C97.4716 18.8372 98.3892 19.6047 99.8713 19.6047C101.424 19.6047 102.201 18.6977 102.201 17.5814C102.201 13.814 93.2368 13.3954 93.2368 6.48839C93.2368 3.00002 95.7071 0.488387 99.9419 0.488387C104.177 0.488387 106.718 3.00002 106.718 7.18606H101.918C101.918 5.72095 101.212 4.9535 99.8713 4.9535C98.6715 4.9535 97.9657 5.58141 97.9657 6.62792C97.9657 10.1861 107.071 10.3954 107.071 17.6512C107.071 21.3489 104.388 24.0698 99.8713 24.0698C95.4248 24.0698 92.6721 21.5582 92.6721 17.0233Z" fill="white"/>
<path d="M31.6906 30.3488C31.6906 32.0232 30.7731 33 29.1497 33H28.1616V35.8605H26.9618V27.7674H29.1497C30.7731 27.7674 31.6906 28.7442 31.6906 30.3488ZM30.4908 30.3488C30.4908 29.3721 30.0673 28.8139 29.1497 28.8139H28.1616V31.8139H29.1497C30.0673 31.8837 30.4908 31.3953 30.4908 30.3488Z" fill="white"/>
<path d="M37.6194 27.7674V35.8605H36.4195V32.3023H34.0904V35.8605H32.8905V27.7674H34.0904V31.186H36.4195V27.7674H37.6194Z" fill="white"/>
<path d="M42.4894 34.2558H40.3014L39.9485 35.8605H38.6781L40.7249 27.7674H41.9954L44.0422 35.8605H42.8423L42.4894 34.2558ZM42.2777 33.1395L41.7836 30.9767C41.6425 30.4186 41.5719 29.6511 41.5013 29.2325C41.4307 29.6511 41.3601 30.4186 41.219 30.9767L40.7249 33.1395H42.2777Z" fill="white"/>
<path d="M47.1478 32.9302H46.442V35.8605H45.2421V27.7674H47.3595C48.9123 27.7674 49.8298 28.6744 49.8298 30.2791C49.8298 31.5349 49.2652 32.3721 48.3476 32.7209L50.1121 35.7907H48.7711L47.1478 32.9302ZM46.442 31.8139H47.3595C48.2065 31.8139 48.63 31.2558 48.63 30.3488C48.63 29.3721 48.2065 28.8837 47.3595 28.8837H46.442V31.8139Z" fill="white"/>
<path d="M57.8054 27.7674V35.8605H56.6761V32.7209C56.6761 31.8139 56.7467 30.9767 56.7467 30.1395H56.6761C56.4644 30.7674 56.182 31.5349 55.8997 32.2325L55.1939 34.0465H53.994L53.2882 32.2325C53.0059 31.4651 52.7236 30.7674 52.5119 30.1395H52.4413C52.5119 30.9767 52.5119 31.8139 52.5119 32.7209V35.8605H51.3826V27.7674H52.5824L53.994 31.0465C54.2058 31.5349 54.4881 32.3023 54.5587 32.6511H54.6293C54.7704 32.3023 55.0528 31.5349 55.1939 31.0465L56.6055 27.7674H57.8054Z" fill="white"/>
<path d="M62.6755 34.2558H60.4875L60.1346 35.8605H58.8641L60.9109 27.7674H62.1814L64.2282 35.8605H63.0284L62.6755 34.2558ZM62.4637 33.1395L61.9697 30.9767C61.8285 30.4186 61.7579 29.6511 61.6873 29.2325H61.6168C61.5462 29.6511 61.4756 30.4186 61.3344 30.9767L60.8404 33.1395H62.4637Z" fill="white"/>
<path d="M65.0752 33.4884V30.1395C65.0752 28.4651 65.9928 27.6279 67.4044 27.6279C68.8866 27.6279 69.7335 28.5349 69.8041 30.1395H68.6042C68.5337 29.1628 68.1102 28.7442 67.3338 28.7442C66.628 28.7442 66.2045 29.1628 66.2045 30.1395V33.4884C66.2045 34.4651 66.628 34.8837 67.4044 34.8837C68.1807 34.8837 68.6042 34.4651 68.6748 33.4884H69.8747C69.8041 35.093 68.8866 35.9302 67.4044 35.9302C65.9928 36 65.0752 35.093 65.0752 33.4884Z" fill="white"/>
<path d="M75.4505 34.7442V35.8605H71.2863V27.7674H75.3094V28.8837H72.4861V31.186H75.0976V32.3023H72.4861V34.7442H75.4505Z" fill="white"/>
<path d="M76.7915 33.3488V27.7674H77.9914V33.3488C77.9914 34.3256 78.4149 34.8139 79.1913 34.8139C79.8971 34.8139 80.3911 34.3256 80.3911 33.3488V27.7674H81.591V33.3488C81.591 35.0232 80.6735 35.9302 79.1913 35.9302C77.7091 36 76.7915 35.0232 76.7915 33.3488Z" fill="white"/>
<path d="M87.3786 28.8837H85.6141V35.8605H84.4143V28.8837H82.7203V27.7674H87.3786V28.8837Z" fill="white"/>
<path d="M89.7078 27.7674H88.5079V35.8605H89.7078V27.7674Z" fill="white"/>
<path d="M91.3311 33.4884V30.1395C91.3311 28.4651 92.2487 27.6279 93.6603 27.6279C95.1425 27.6279 95.9894 28.5349 96.06 30.1395H94.8601C94.7896 29.1628 94.3661 28.7442 93.5897 28.7442C92.8839 28.7442 92.4604 29.1628 92.4604 30.1395V33.4884C92.4604 34.4651 92.8839 34.8837 93.6603 34.8837C94.4367 34.8837 94.8601 34.4651 94.9307 33.4884H96.1306C96.06 35.093 95.1425 35.9302 93.6603 35.9302C92.2487 36 91.3311 35.093 91.3311 33.4884Z" fill="white"/>
<path d="M100.365 34.2558H98.1774L97.8245 35.8605H96.5541L98.6009 27.7674H99.8714L101.918 35.8605H100.718L100.365 34.2558ZM100.154 33.1395L99.6596 30.9767C99.5185 30.4186 99.4479 29.6511 99.3773 29.2325H99.3067C99.2361 29.6511 99.1656 30.4186 99.0244 30.9767L98.5303 33.1395H100.154Z" fill="white"/>
<path d="M107 34.7442V35.8605H103.118V27.7674H104.318V34.7442H107Z" fill="white"/>
<path d="M9.52836 17.9302C11.2929 13.814 14.8219 10.6047 19.1273 9.2093V0C9.81069 1.88372 2.39974 8.86047 0 17.9302H9.52836Z" fill="white"/>
<path d="M9.66952 17.7209C7.83443 21.7674 4.30541 24.9767 0 26.3721V35.5814C9.31662 33.6977 16.7982 26.7209 19.1273 17.6511H9.66952V17.7209Z" fill="white"/>
</svg>
