<svg width="18" height="36" viewBox="0 0 18 36" fill="none" xmlns="http://www.w3.org/2000/svg">
<path d="M3.45484 15.4949C3.45484 14.8342 3.45484 14.2372 3.45484 13.5765C3.28289 13.5765 3.11876 13.5685 2.95463 13.5765C2.60292 13.6004 2.45442 13.4412 2.46224 13.083C2.47005 12.4223 2.46224 11.7536 2.46224 11.0929C2.46224 11.0054 2.4466 10.9178 2.43879 10.7905C1.78226 10.7905 1.14919 10.7825 0.516107 10.7984C0.156582 10.8064 -0.0075496 10.679 0.000266172 10.289C0.0237135 9.59645 0.00808195 8.91188 0.00808195 8.21936C0.00808195 7.72583 0.0471608 7.68603 0.555186 7.68603C2.05582 7.68603 3.54863 7.68603 5.04926 7.68603C5.18994 7.68603 5.33063 7.68603 5.5182 7.68603C5.52602 7.51887 5.54165 7.38355 5.54165 7.24027C5.54165 6.14974 5.54165 5.06717 5.54165 3.97664C5.54947 2.79855 5.94026 1.7717 6.77654 0.935891C8.05833 -0.345681 9.96538 -0.30588 11.2081 1.02345C12.0053 1.87518 12.3257 2.91795 12.3336 4.07216C12.3414 5.12289 12.3336 6.16566 12.3336 7.21639C12.3336 7.35967 12.3492 7.50295 12.357 7.68603C12.529 7.68603 12.6696 7.68603 12.8103 7.68603C14.35 7.68603 15.8819 7.69399 17.4216 7.67807C17.789 7.67807 17.9453 7.79747 17.9297 8.18752C17.914 8.88004 17.9218 9.56461 17.9218 10.2571C17.9218 10.7427 17.8671 10.7905 17.3747 10.7905C16.7417 10.7905 16.1008 10.7905 15.4052 10.7905C15.4052 11.3238 15.4052 11.8332 15.4052 12.3427C15.4052 12.5815 15.3895 12.8203 15.4052 13.0591C15.4286 13.4332 15.2723 13.6004 14.8971 13.5765C14.7174 13.5606 14.5376 13.5765 14.3422 13.5765C14.3422 14.2292 14.3422 14.8342 14.3422 15.4949C14.8346 15.4949 15.3114 15.4949 15.7881 15.4949C16.3899 15.4949 16.9839 15.5028 17.5858 15.4949C17.8593 15.4949 17.9922 15.6143 17.9922 15.9008C17.9922 16.7764 17.9844 17.652 17.9922 18.5276C17.9922 18.8779 17.8046 18.9416 17.5154 18.9416C16.4603 18.9336 15.4052 18.9416 14.35 18.9416C14.225 18.9416 14.0999 18.9416 13.9436 18.9416C13.9827 19.5067 14.225 19.9047 14.6236 20.1833C15.0456 20.4858 15.5146 20.7246 15.9679 20.9873C16.2649 21.1545 16.5697 21.2977 16.8589 21.4808C17.617 21.9744 18 22.651 18 23.5982C17.9844 27.5384 17.9922 31.4787 17.9922 35.4189C17.9922 35.9443 17.9453 36 17.4451 36C11.8021 36 6.16691 36 0.523923 36C0.0706081 36 0.0158977 35.9363 0.0158977 35.4667C0.0158977 31.4628 0.0158977 27.4509 0.0158977 23.447C0.0158977 22.6112 0.391055 21.9823 1.0554 21.5604C1.63376 21.1863 2.26684 20.8918 2.86866 20.5495C3.47047 20.2152 3.96286 19.7853 4.07229 18.9734C3.92379 18.9655 3.79092 18.9495 3.65805 18.9416C2.61855 18.9416 1.57124 18.9416 0.531739 18.9416C0.0706082 18.9416 0.0237135 18.8858 0.0237135 18.4082C0.0237135 17.6282 0.0237135 16.8401 0.0237135 16.06C0.0237135 15.5347 0.0549766 15.5028 0.586449 15.5028C1.51653 15.4949 2.47005 15.4949 3.45484 15.4949ZM0.609897 33.2617C6.17473 33.2617 11.7005 33.2617 17.2497 33.2617C17.2497 30.1175 17.2497 26.9972 17.2497 23.8609C11.6927 23.8609 6.1591 23.8609 0.609897 23.8609C0.609897 26.9892 0.609897 30.1016 0.609897 33.2617ZM13.1386 18.9893C13.0839 18.9654 13.0761 18.9575 13.0604 18.9575C10.3405 18.9495 7.62065 18.9416 4.90076 18.9495C4.80697 18.9495 4.65847 19.0928 4.63502 19.1883C4.50215 19.8968 4.11136 20.4381 3.533 20.8122C2.99371 21.1624 2.41534 21.4331 1.86824 21.7674C1.54779 21.9584 1.22734 22.1734 0.953791 22.436C0.781844 22.6032 0.69587 22.8659 0.539555 23.1445C6.1591 23.1445 11.6614 23.1445 17.195 23.1445C17.0777 22.5077 16.6557 22.1734 16.1789 21.8948C15.6943 21.6162 15.1863 21.3694 14.6939 21.0987C13.8733 20.6291 13.248 20.0003 13.1386 18.9893ZM0.648976 18.249C6.20599 18.249 11.6927 18.249 17.1793 18.249C17.1793 17.5406 17.1793 16.856 17.1793 16.1635C17.0308 16.1555 16.9136 16.1476 16.8042 16.1476C12.5446 16.1476 8.2928 16.1476 4.03321 16.1476C3.03279 16.1476 2.02455 16.1476 1.02413 16.1476C0.867817 16.1476 0.656791 16.0839 0.656791 16.3625C0.648976 16.9914 0.648976 17.6122 0.648976 18.249ZM11.5676 7.67011C11.5676 6.22934 11.5989 4.84429 11.552 3.45127C11.5285 2.76671 11.2237 2.14582 10.7782 1.62046C9.76999 0.410526 8.15212 0.362766 7.07354 1.50106C6.61241 1.98662 6.25289 2.57567 6.21381 3.24431C6.12002 4.69304 6.12002 6.14974 6.08094 7.60643C6.08094 7.62235 6.1122 7.64623 6.13565 7.67011C7.93328 7.67011 9.73872 7.67011 11.5676 7.67011ZM17.2497 10.0979C17.2497 9.49297 17.2497 8.9278 17.2497 8.37856C11.7005 8.37856 6.19036 8.37856 0.672423 8.37856C0.672423 8.9676 0.672423 9.51685 0.672423 10.0979C6.20599 10.0979 11.7161 10.0979 17.2497 10.0979ZM14.7174 10.8223C10.8486 10.8223 7.0032 10.8223 3.16566 10.8223C3.16566 11.5307 3.16566 12.2074 3.16566 12.876C7.03447 12.876 10.872 12.876 14.7174 12.876C14.7174 12.1755 14.7174 11.5069 14.7174 10.8223ZM0.602081 35.2916C6.18255 35.2916 11.7161 35.2916 17.2575 35.2916C17.2575 34.8378 17.2575 34.4159 17.2575 33.9861C11.7005 33.9861 6.1591 33.9861 0.602081 33.9861C0.602081 34.4239 0.602081 34.8458 0.602081 35.2916ZM4.15044 15.463C7.3471 15.463 10.5047 15.463 13.6466 15.463C13.6466 14.8262 13.6466 14.2212 13.6466 13.6083C10.4656 13.6083 7.30802 13.6083 4.127 13.6083C4.127 14.1496 4.127 14.667 4.127 15.1765C4.13481 15.264 4.14263 15.3595 4.15044 15.463Z" fill="#828282"/>
<path d="M5.72923 30.7702C4.58031 30.7702 3.79092 30.0459 3.83781 29.027C3.83781 28.9713 3.82999 28.9155 3.85344 28.8678C4.36928 27.8807 4.86949 26.8857 5.4166 25.9146C5.5651 25.6519 5.8621 25.6917 6.04967 25.9305C6.26852 26.2091 6.47173 26.4957 6.65149 26.8061C6.90159 27.2519 7.13607 27.7136 7.35491 28.1753C8.02707 29.616 7.30802 30.7702 5.72923 30.7702ZM5.76831 26.5753C5.70578 26.5673 5.64325 26.5673 5.58073 26.5594C5.22902 27.3156 4.8226 28.0559 4.53341 28.8439C4.29894 29.4568 4.68973 29.9742 5.33062 30.0618C5.48694 30.0857 5.64325 30.0857 5.79957 30.0777C6.66712 30.0459 7.07354 29.4966 6.76091 28.6688C6.48736 27.9524 6.10439 27.2758 5.76831 26.5753Z" fill="#828282"/>
</svg>
