<svg width="120" height="120" viewBox="0 0 120 120" fill="none" xmlns="http://www.w3.org/2000/svg">
<path d="M80.1406 40.0281C76.5132 33.0264 68.0351 30.9596 60.7381 31.1283C53.2302 31.297 44.7944 33.0685 39.8594 39.2689C37.9192 41.7153 36.6116 44.9631 36.696 48.1265C36.7803 52.2601 40.0281 55.0861 41.167 58.9244C41.9262 61.4552 42.2636 63.1424 41.0826 65.2091C41.0404 65.2935 41.8418 65.5466 41.884 65.4622C42.8541 62.3831 42.7276 60.5272 41.2513 57.4903C40.4077 55.761 39.9016 54.9596 38.9315 53.3146C37.8348 51.4165 37.4552 49.2654 37.6239 47.0721C38.3831 38.0035 47.7048 33.9121 55.5079 32.6889C63.8594 31.4236 73.8137 32.2671 79.0018 39.6907C81.7012 43.5712 80.942 48.3796 80.0141 52.8084C79.2548 56.6046 77.7364 60.9912 79.8032 64.6186L80.0562 65.0404C80.0984 65.1248 80.225 65.0404 80.1828 64.9561C79.1705 60.4007 80.0562 56.0562 81.0685 51.5431C81.9965 47.536 82.0387 43.6555 80.1406 40.0281Z" fill="#333333"/>
<path d="M81.0685 67.1494C79.7188 64.9561 79.3814 62.594 79.5501 59.8524C79.5501 59.8524 79.5501 59.8524 79.5079 59.8524C77.3989 64.1547 81.0685 67.1072 81.5325 71.1142C82.1652 76.9772 77.5677 79.7188 74.7838 82.123C74.6573 82.2496 74.3199 82.9666 74.4886 82.8401C78.4956 80.0562 82.123 77.0193 82.5448 73.4763C82.7557 71.0721 82.2917 69.1318 81.0685 67.1494Z" fill="#333333"/>
<path d="M49.0123 83.6415C44.6257 81.1107 41.42 79.3814 40.1547 73.8559C39.058 69.2584 43.9508 63.6485 41.884 61.877C41.884 61.877 42.0949 63.058 39.8172 68.4991C38.8893 70.6924 38.5097 72.5061 39.1424 74.826C40.703 80.1828 45.1318 82.4605 48.9701 83.8102C49.0123 83.8102 49.0967 83.6837 49.0123 83.6415Z" fill="#333333"/>
<path d="M76.2179 80.7311C76.2179 80.7311 66.4323 88.1547 59.9789 88.0703C54.3269 87.9859 51.5431 83.8102 45.174 82.3761C45.1318 82.3761 45.5114 82.4183 45.5536 82.4183C50.4464 85.0756 54.7909 89.167 60.6116 89.0826C65.5466 88.9982 76.6819 82.4605 80.0984 77.7786C80.8998 76.6819 76.2179 80.7311 76.2179 80.7311Z" fill="#333333"/>
<path d="M82.6292 60.9912C82.587 59.8524 82.123 58.5026 81.2794 58.2074C80.8998 58.0808 80.5624 58.123 80.1828 58.2917C79.7188 58.5026 79.6766 59.1775 79.3814 59.5993C79.3392 59.6415 79.3814 59.8102 79.4236 59.768C79.5501 59.6837 79.6766 59.5993 79.761 59.4728C80.1406 58.9244 80.478 58.8401 80.9842 59.0932C81.9121 59.5571 81.8278 61.1178 81.9965 62.2988C81.9965 62.1722 81.7434 65.5466 80.225 64.6608C80.0141 64.5343 79.8032 64.7874 79.761 64.9982C79.7188 65.167 79.7188 65.3357 79.8453 65.4622C81.8278 66.9807 82.6713 63.058 82.6292 60.9912Z" fill="#333333"/>
<path d="M38.8471 60.9912C38.8893 59.8524 39.3533 58.5026 40.1968 58.2074C40.5765 58.0808 40.9139 58.123 41.2935 58.2917C41.7575 58.5026 41.7997 59.1775 42.0949 59.5993C42.1371 59.6415 42.0949 59.8102 42.0527 59.768C41.9262 59.6837 41.7996 59.5993 41.7153 59.4728C41.3357 58.9244 40.9982 58.8401 40.4921 59.0932C39.5641 59.5571 39.6485 61.1178 39.4798 62.2988C39.4798 62.1722 39.7329 65.5466 41.2513 64.6608C41.4622 64.5343 41.6731 64.7874 41.7153 64.9982C41.7575 65.167 41.7575 65.3357 41.6309 65.4622C39.6485 66.9807 38.7627 63.058 38.8471 60.9912Z" fill="#333333"/>
<path d="M70.0176 36.1898C70.0598 36.1898 70.0176 36.232 70.0176 36.1898V36.1898Z" fill="#333333"/>
<path d="M70.1863 36.3585C70.1441 36.4007 70.1441 36.3585 70.1863 36.3585V36.3585Z" fill="#333333"/>
<path d="M70.1863 35.2197C70.1441 35.1353 70.0176 35.2197 70.0176 35.304C69.9754 36.5694 70.3128 37.7926 70.1863 39.1002C70.0598 40.6186 69.5536 42.0527 68.8366 43.3603C67.3603 46.1441 64.7452 47.7469 61.8348 48.5483C58.8823 49.3497 55.6766 48.7171 53.188 46.9877C49.9402 44.71 49.5606 38.9736 54.4534 38.7206C54.4956 38.7206 54.4956 38.6784 54.4534 38.6784C51.4587 37.9613 49.5606 41.5888 50.362 44.1195C51.5852 48 55.7188 49.5606 59.4728 49.645C63.1002 49.7294 66.348 47.9156 68.4569 45.0475C69.5114 43.6555 70.1441 41.9684 70.4816 40.2812C70.819 38.8049 70.9877 36.5272 70.1863 35.2197Z" fill="#333333"/>
<path d="M78.7065 51.5431C77.5255 51.2056 76.3445 51.1634 75.1635 50.6573C73.5185 49.8981 72.4218 48.4218 71.6626 46.8612C70.1019 43.5712 71.3251 36.7381 70.2285 35.9789H70.1863C70.3972 39.1845 69.5114 43.9086 71.2408 47.7047C72.3374 50.1511 75.7961 53.1459 78.6643 51.6696C78.7065 51.6274 78.7909 51.5431 78.7065 51.5431Z" fill="#333333"/>
<path d="M55.0018 48.7592C54.833 49.181 54.1582 49.4341 53.3146 49.7294C52.0492 50.1511 50.6573 50.1933 49.3497 50.109C48.2953 50.0246 47.283 49.6872 46.3128 49.2232C45.8067 48.9701 45.3427 48.6327 44.9209 48.2531C43.1916 46.6503 44.7522 44.3304 46.4394 45.0053C45.7645 44.4148 44.5413 44.3304 44.0352 45.2584C43.1916 46.7768 43.9508 48.2531 45.2584 49.181C48 51.1213 53.3989 51.4165 55.8875 48.9279C55.9719 48.8436 55.0439 48.6749 55.0018 48.7592Z" fill="#333333"/>
<path d="M48.2109 50.2355C47.4517 51.2478 46.0176 51.8383 44.7522 52.1757C42.6432 52.8084 40.0703 51.4165 40.1547 48.9701H40.1125C39.775 51.0369 41.2513 52.3866 43.1916 52.7241C45.2584 53.1037 47.7047 51.754 49.0967 50.3199C49.1388 50.3199 48.2953 50.1933 48.2109 50.2355Z" fill="#333333"/>
<path d="M61.2443 67.0228C61.2443 66.7698 61.2865 66.3058 61.0334 66.348C60.5694 66.4745 60.1054 66.8541 59.6415 66.6432C58.8401 66.1793 58.5026 65.2513 59.3884 64.703C60.8647 64.5343 61.6239 63.2267 60.7381 60.1054C60.6538 59.8946 59.8946 60.1054 59.9367 60.3163C60.1476 61.3708 60.4851 62.5097 59.4306 63.522C58.3339 63.6907 57.7856 64.3234 57.7434 65.5888C57.7856 68.4569 61.2443 68.246 61.2443 67.0228Z" fill="#333333"/>
<path d="M66.9807 59.7258C66.9807 59.768 66.9807 59.768 66.9807 59.7258C67.8664 59.6415 68.3304 59.4728 69.5536 59.6415C70.9455 59.8524 71.8313 60.7803 71.8735 60.1476C71.9156 58.9666 67.1916 58.123 66.9807 59.7258Z" fill="#333333"/>
<path d="M59.2619 71.8735C56.3515 72.2952 54.116 74.5729 54.116 76.8506C53.7364 79.297 56.0562 81.8699 59.1353 82.3761C63.2267 83.051 66.8963 80.2671 67.065 77.1037C67.3181 73.645 63.3533 71.3251 59.2619 71.8735ZM58.9666 81.2373C56.2671 80.6046 55.0439 78.833 54.833 76.8506C55.1705 74.7838 56.7311 72.9701 59.5571 72.5905C63.058 72.1265 66.0105 74.2355 66.3058 76.935C66.6432 80.225 62.5518 82.0808 58.9666 81.2373Z" fill="#333333"/>
<path d="M64.5343 82.587C64.4077 81.4482 63.6485 77.4411 62.594 77.3989C62.4675 77.3989 62.2988 77.4833 62.341 77.5677C62.9736 79.8032 62.8893 81.1529 63.058 81.9121C63.3111 83.2619 62.9315 83.9789 61.3708 84.0633C58.9666 84.232 58.6714 83.3462 58.587 81.7856C58.5026 80.3515 59.2619 78.9174 59.2197 77.4411C59.2197 77.1881 58.8823 77.2724 58.7557 77.3989C57.406 79.0861 57.0685 81.1951 57.2794 83.304C57.4903 85.4974 59.5149 85.8348 61.2021 85.8348C63.8594 85.8348 64.7452 84.3585 64.5343 82.587Z" fill="#333333"/>
<path d="M51.5852 74.0246C51.5852 74.0246 51.3743 74.3199 51.3743 74.362C51.5009 75.29 53.0193 76.5975 54.3691 76.8084C54.58 76.8506 54.833 76.0914 54.6643 76.007C53.0193 75.5852 51.7961 74.4042 51.5852 74.0246Z" fill="#333333"/>
<path d="M69.891 74.2777C69.891 74.1933 69.638 73.9402 69.5958 74.0246C68.6257 75.2056 68.0351 75.8383 66.6011 75.9649C66.5589 75.9649 66.6432 76.6397 66.6432 76.6819C66.812 77.188 69.8067 75.9649 69.891 74.2777Z" fill="#333333"/>
<path d="M67.4446 86.8893C67.3603 86.8893 67.2759 86.9736 67.3181 87.0158C67.6555 87.8172 67.993 88.4077 67.7821 89.3357C67.4025 90.9385 65.2935 90.6011 64.5765 89.4622C64.5343 89.2513 64.4499 89.0404 64.3656 88.8295C64.1547 88.4921 63.6907 88.8295 63.775 89.167C63.8172 89.2935 63.8594 89.4622 63.9016 89.5888C64.0703 90.5589 63.4376 91.6134 62.2144 91.4446C61.1178 91.3181 60.4851 90.0527 60.4429 89.0404C60.4429 88.5765 59.6837 88.7873 59.6415 89.167C59.6415 89.2091 59.6415 89.2091 59.6415 89.2513C59.6415 89.2513 59.6415 89.2513 59.6415 89.2935C59.6415 89.4622 59.6415 89.6309 59.6415 89.7996C59.4728 90.9807 57.9965 91.6555 57.0264 90.7276C56.3937 90.1371 56.2671 88.9561 56.7311 88.2812C56.942 87.9859 56.6889 87.6485 56.3515 87.8594C55.761 88.1547 55.297 88.5343 54.833 88.9982C54.2847 89.5888 52.7241 91.2337 51.8805 89.42C51.4587 88.4921 52.3023 87.4376 52.8506 86.7627C53.1037 86.4253 52.6819 86.1301 52.4288 86.3831C51.5009 87.3111 50.4042 88.4077 48.9701 87.775C47.9156 87.3111 48.3796 86.0035 49.2232 85.5817C49.645 85.3708 50.109 85.2443 50.5308 85.1178C50.6151 85.1178 50.6573 84.9912 50.5308 84.9912C49.0545 85.0756 47.1564 85.7504 47.7047 87.5642C47.9578 88.3656 48.9279 88.6186 49.645 88.703C50.2355 88.7452 50.7838 88.5343 51.29 88.1968C50.9104 89.0404 50.826 89.9684 51.6274 90.5589C53.188 91.6977 54.4112 90.2214 55.5501 89.167C55.297 90.2636 55.6344 91.4868 56.8155 91.9508C58.0808 92.4148 59.2197 91.8242 59.8524 90.8541C60.3163 91.8664 61.3708 92.5413 62.6784 92.2882C63.5642 92.1195 64.1968 91.4025 64.4499 90.5589C65.2513 91.4446 66.5167 91.8243 67.6134 90.9807C68.8787 90.0949 69.5114 87.2267 67.4446 86.8893Z" fill="#333333"/>
<path d="M72 86.5518C71.6626 86.341 71.1564 86.1722 70.819 86.0035C70.3972 85.7926 69.9332 85.4974 69.4692 85.2865C69.3005 85.4552 69.1318 85.5817 68.8787 85.6661H68.7944C68.71 85.7083 68.6678 85.7504 68.5835 85.7926C68.7944 86.0035 69.0474 86.1722 69.3427 86.1722C71.9578 86.5097 71.1142 87.9859 71.1142 88.1125C69.4692 88.9561 68.3304 87.3533 67.7399 86.5097C67.6555 86.4253 67.5712 86.5518 67.5712 86.6362C67.6134 88.3234 70.6081 90.6011 72 88.703C72.2531 88.4499 73.2232 87.2689 72 86.5518Z" fill="#333333"/>
<path d="M65.5466 93.9754C64.5343 93.9754 63.522 94.9877 63.9859 95.9156C64.0281 96.1687 64.1125 96.4218 64.2812 96.6327C65.0826 97.6028 66.6011 97.0545 67.1494 96.1687C67.6977 95.1986 66.6432 93.9332 65.5466 93.9754ZM66.348 95.8313C66.0949 96.1687 65.4622 96.2109 65.0826 95.9578C64.7452 95.7048 64.6186 95.0299 64.8717 94.6503C64.9982 94.5659 65.1248 94.4816 65.2935 94.4816C66.0949 94.3128 66.812 95.2408 66.348 95.8313Z" fill="#333333"/>
<path d="M83.7258 119.62C83.6837 119.62 83.6837 119.62 83.7258 119.62V119.62Z" fill="#333333"/>
<path d="M53.0193 60.1898C52.1336 60.1476 51.6274 59.9789 50.4464 60.232C49.0545 60.5272 48.2531 61.4974 48.1687 60.8647C48.0844 59.6837 52.7663 58.5448 53.0193 60.1898Z" fill="#333333"/>
<path d="M68.9209 59.5149C68.6257 59.4728 68.1195 59.6837 68.1195 59.9367C68.1195 59.9789 67.6555 60.4429 67.993 61.4552C67.993 61.5817 68.0351 61.7504 68.1195 61.877C68.1195 61.877 68.1195 61.9192 68.1617 61.9192C68.5835 62.7206 69.5536 62.7627 70.1019 62.0879C70.1863 62.0035 70.2707 61.9192 70.3128 61.7926C70.7346 61.0756 70.355 60.1898 69.7223 59.8524C69.4692 59.6415 69.2162 59.5149 68.9209 59.5149Z" fill="#333333"/>
<path d="M67.8243 54.833C68.4991 54.4112 69.4271 54.6221 70.1441 54.7909C71.0299 55.0018 71.7891 55.4236 72.5061 56.0141C72.5483 56.0562 72.5062 56.0984 72.464 56.0562C71.7469 55.6766 70.9455 55.3814 70.1441 55.1705C69.3849 55.0018 68.6257 55.1283 67.8664 54.9174C67.8242 54.9174 67.7821 54.833 67.8243 54.833Z" fill="#333333"/>
<path d="M51.8383 54.833C51.1634 54.4112 50.2355 54.6221 49.5185 54.7909C48.6327 55.0018 47.8735 55.4236 47.1564 56.0141C47.1142 56.0562 47.1564 56.0984 47.1986 56.0562C47.9156 55.6766 48.717 55.3814 49.5185 55.1705C50.2777 55.0018 51.0369 55.1283 51.7961 54.9174C51.8383 54.9174 51.8805 54.833 51.8383 54.833Z" fill="#333333"/>
<path d="M65.884 101.779C64.8717 101.779 63.8594 102.791 64.3234 103.719C64.3656 103.972 64.4499 104.225 64.6186 104.436C65.42 105.406 66.9385 104.858 67.4868 103.972C68.0351 103.002 66.9807 101.736 65.884 101.779ZM66.6854 103.634C66.4323 103.972 65.7997 104.014 65.42 103.761C65.0826 103.508 64.9561 102.833 65.2091 102.453C65.3357 102.369 65.4622 102.285 65.6309 102.285C66.4323 102.116 67.1494 103.044 66.6854 103.634Z" fill="#333333"/>
<path d="M66.3058 110.383C65.2935 110.383 64.2812 111.395 64.7452 112.323C64.7873 112.576 64.8717 112.83 65.0404 113.04C65.8418 114.011 67.3603 113.462 67.9086 112.576C68.4569 111.606 67.4025 110.341 66.3058 110.383ZM67.1072 112.239C66.8541 112.576 66.2214 112.619 65.8418 112.366C65.5044 112.112 65.3779 111.438 65.6309 111.058C65.7575 110.974 65.884 110.889 66.0527 110.889C66.8541 110.721 67.5712 111.649 67.1072 112.239Z" fill="#333333"/>
<path d="M51.6696 59.9367C51.4165 59.8102 50.8682 59.8524 50.7417 60.1054C50.7417 60.1476 50.1511 60.4429 50.1511 61.4974C50.109 61.6239 50.109 61.7926 50.1511 61.9192V61.9613C50.2777 62.8471 51.2478 63.1845 51.9649 62.6784C52.0914 62.6362 52.1757 62.5518 52.2601 62.4675C52.8506 61.9192 52.8084 60.9912 52.3023 60.4429C52.1336 60.232 51.9227 60.0633 51.6696 59.9367Z" fill="#333333"/>
<path d="M32.6468 106.756C33.3216 103.255 34.3761 99.754 36.1476 96.5483C39.1424 91.0228 44.7944 86.6362 51.5009 85.4552C51.5009 85.4552 51.1213 85.0334 51.0791 85.0334C44.1617 85.0334 39.1424 90.0527 35.8524 95.2408C33.9121 98.2777 32.8155 101.736 32.0562 105.153C31.6344 107.051 31.3814 108.991 31.1283 110.889C31.1283 111.016 31.0861 111.142 31.0861 111.269C31.3392 111.438 31.6344 111.564 31.8875 111.733C32.0984 110.046 32.3093 108.401 32.6468 106.756Z" fill="#333333"/>
<path d="M70.1019 113.8C70.0598 112.155 69.9332 110.467 69.8489 108.822C69.638 105.701 69.4271 102.538 69.2162 99.4165C69.0475 96.9279 68.8787 94.2707 67.529 92.0773C67.2337 91.6134 66.6854 91.0229 66.0105 90.5589C65.9684 90.6011 65.884 90.6432 65.8418 90.6854C65.6309 90.8541 65.42 90.9385 65.167 91.0229C66.0949 91.6977 66.7276 92.6678 67.2759 93.638C68.6257 96.0844 68.246 99.5009 68.3304 102.2C68.4148 105.026 68.5413 107.852 68.6678 110.678C68.71 111.986 68.7944 113.336 68.9209 114.643C69.0053 115.782 68.8787 117.09 69.3849 118.144C69.5958 118.102 69.8067 118.06 70.0176 118.06C70.0176 118.018 70.0598 118.018 70.0598 117.975C70.3972 116.626 70.1441 115.107 70.1019 113.8Z" fill="#333333"/>
<path d="M87.9016 104.9C87.1424 101.441 86.0457 98.0246 84.1054 94.9877C80.8155 89.7997 76.5975 85.2021 69.6801 85.2021L69.2583 85.6239C75.9649 86.8049 80.8155 90.812 83.8102 96.2953C85.5395 99.5009 86.6362 103.002 87.3111 106.503C87.6485 108.19 87.9016 109.919 88.1125 111.649C88.3656 111.522 88.6608 111.353 88.9139 111.185C88.8717 110.974 88.8717 110.805 88.8295 110.594C88.5765 108.738 88.3234 106.798 87.9016 104.9Z" fill="#333333"/>
<path d="M42.0527 103.339C41.2935 107.178 40.1125 111.227 39.7329 115.276C40.0281 115.402 40.3234 115.487 40.6186 115.571C41.5044 111.606 41.6309 107.388 42.0527 103.339C42.0949 103.297 42.0527 103.297 42.0527 103.339Z" fill="#333333"/>
<path d="M78.6221 104.9C78.58 104.9 78.6221 104.858 78.6221 104.9C79.1705 108.401 79.4657 111.902 79.8032 115.402C80.0141 115.318 80.225 115.276 80.3937 115.192C80.5624 111.606 79.8875 108.232 78.6221 104.9Z" fill="#333333"/>
<path d="M59.9789 120C26.9104 120 0 93.0475 0 59.9789C0 26.9104 26.9104 0 59.9789 0C93.0475 0 120 26.9104 120 59.9789C120 93.0475 93.0475 120 59.9789 120ZM59.9789 0.843585C27.3743 0.843585 0.843585 27.3743 0.843585 59.9789C0.843585 92.5835 27.3743 119.156 59.9789 119.156C92.5835 119.156 119.156 92.5835 119.156 59.9789C119.156 27.3743 92.5835 0.843585 59.9789 0.843585Z" fill="#333333"/>
</svg>
