<?xml version="1.0" encoding="utf-8"?>
<!-- Generator: Adobe Illustrator 15.0.2, SVG Export Plug-In . SVG Version: 6.00 Build 0)  -->
<!DOCTYPE svg PUBLIC "-//W3C//DTD SVG 1.1//EN" "http://www.w3.org/Graphics/SVG/1.1/DTD/svg11.dtd">
<svg version="1.1" id="Layer_1" xmlns="http://www.w3.org/2000/svg" xmlns:xlink="http://www.w3.org/1999/xlink" x="0px" y="0px"
	 width="69px" height="69px" viewBox="0 0 69 69" enable-background="new 0 0 69 69" xml:space="preserve">
<path fill="#234D7D" d="M59.824,61.999H18.451c-3.057,0-5.669-1.892-6.702-4.55c-1.934-0.73-3.417-2.235-4.133-4.074
	c-2.77-1.048-4.617-3.68-4.617-6.604V16.071c0-3.899,3.221-7.072,7.178-7.072h10.344c2.729,0,5.039,1.058,7.063,3.229l2.418,2.554
	c0.536,0.385,1.055,0.836,1.554,1.354H51.55c2.968,0,5.64,1.823,6.699,4.549c1.864,0.709,3.394,2.168,4.14,4.074
	c2.691,1.018,4.613,3.596,4.613,6.606v23.563C67.001,58.828,63.781,61.999,59.824,61.999L59.824,61.999z M20.521,10.911H10.177
	c-2.888,0-5.237,2.315-5.237,5.16v30.703c0,1.687,0.845,3.24,2.199,4.197c0-0.041,0-0.08,0-0.121v-30.7
	c0-3.901,3.217-7.071,7.174-7.071h10.344c0.385,0,0.759,0.021,1.129,0.064C24.228,11.623,22.543,10.911,20.521,10.911L20.521,10.911
	z M28.705,16.215c-1.218-0.833-2.538-1.228-4.049-1.228H14.313c-2.887,0-5.237,2.316-5.237,5.163v30.7
	c0,1.69,0.849,3.244,2.202,4.197c0-0.039-0.003-0.08-0.003-0.119v-30.7c0-3.902,3.22-7.072,7.177-7.072h10.344
	c0.284,0,0.562,0.012,0.836,0.037L28.705,16.215L28.705,16.215z M51.549,18.047h-18.48c0.003,0.047,0.003,0.096-0.003,0.143
	c0.946,0.502,1.835,1.193,2.67,2.069c0.097-0.028,0.195-0.046,0.297-0.046h19.654c0.041,0,0.08,0.003,0.121,0.003
	C54.84,18.88,53.264,18.047,51.549,18.047L51.549,18.047z M55.688,22.125h-18.18l2.051,2.168h20.267c0.04,0,0.083,0,0.122,0.003
	C58.979,22.958,57.4,22.125,55.688,22.125L55.688,22.125z M65.061,31.364c0-2.847-2.35-5.163-5.235-5.163H39.137
	c-0.27,0-0.525-0.108-0.707-0.302l-3.997-4.219c-1.659-1.786-3.451-2.616-5.638-2.616H18.451c-2.887,0-5.237,2.316-5.237,5.163
	v8.422c1.311-1.379,3.174-2.242,5.237-2.242h41.373c2.063,0,3.926,0.863,5.236,2.242V31.364L65.061,31.364z M65.061,37.48
	c0-2.848-2.35-5.161-5.235-5.161H18.451c-2.887,0-5.237,2.313-5.237,5.161v17.445c0,2.848,2.351,5.159,5.237,5.159h41.373
	c2.887,0,5.236-2.313,5.236-5.159V37.48L65.061,37.48z M59.824,38.438H48.447c-0.537,0-0.973-0.43-0.973-0.957
	c0-0.526,0.436-0.955,0.973-0.955h11.377c0.535,0,0.968,0.429,0.968,0.955C60.792,38.008,60.359,38.438,59.824,38.438L59.824,38.438
	z M59.824,42.514H48.447c-0.537,0-0.973-0.429-0.973-0.957c0-0.527,0.436-0.955,0.973-0.955h11.377c0.535,0,0.968,0.428,0.968,0.955
	C60.792,42.085,60.359,42.514,59.824,42.514L59.824,42.514z"/>
<g>
	<path fill="#234D7D" d="M28.022,56.023c0.083,0.25,0.135,0.448,0.156,0.594c0.021,0.146-0.007,0.255-0.083,0.328
		c-0.077,0.072-0.212,0.117-0.406,0.135s-0.461,0.026-0.801,0.026c-0.354,0-0.63-0.005-0.828-0.016s-0.349-0.031-0.453-0.063
		s-0.177-0.074-0.219-0.13c-0.042-0.056-0.076-0.129-0.104-0.219l-0.905-2.706h-5.059l-0.854,2.633
		c-0.028,0.098-0.064,0.179-0.109,0.245c-0.045,0.065-0.118,0.118-0.219,0.156s-0.243,0.063-0.427,0.078
		c-0.184,0.014-0.425,0.021-0.723,0.021c-0.319,0-0.569-0.011-0.75-0.031c-0.181-0.021-0.306-0.071-0.375-0.151
		c-0.069-0.079-0.093-0.192-0.073-0.338c0.021-0.146,0.073-0.34,0.156-0.583l4.153-11.949c0.042-0.117,0.09-0.213,0.146-0.286
		c0.055-0.072,0.144-0.128,0.265-0.166c0.122-0.038,0.29-0.063,0.505-0.073c0.215-0.011,0.5-0.016,0.854-0.016
		c0.41,0,0.735,0.005,0.979,0.016c0.243,0.011,0.432,0.035,0.567,0.073s0.232,0.095,0.292,0.171
		c0.059,0.077,0.109,0.181,0.151,0.313L28.022,56.023z M21.839,46.146h-0.01l-1.905,5.725h3.82L21.839,46.146z"/>
	<path fill="#234D7D" d="M36.563,44.699c0,0.201-0.009,0.373-0.026,0.516c-0.018,0.142-0.043,0.257-0.078,0.343
		c-0.034,0.087-0.078,0.151-0.13,0.193c-0.052,0.041-0.109,0.063-0.172,0.063h-3.372v10.855c0,0.069-0.023,0.132-0.068,0.188
		c-0.045,0.056-0.12,0.101-0.224,0.136c-0.104,0.034-0.245,0.063-0.422,0.083c-0.177,0.021-0.397,0.031-0.661,0.031
		c-0.264,0-0.484-0.011-0.661-0.031s-0.317-0.049-0.421-0.083c-0.104-0.035-0.179-0.08-0.224-0.136
		c-0.045-0.056-0.067-0.118-0.067-0.188V45.813h-3.373c-0.069,0-0.128-0.021-0.177-0.063c-0.049-0.042-0.09-0.106-0.125-0.193
		c-0.035-0.086-0.061-0.201-0.078-0.343c-0.018-0.143-0.026-0.314-0.026-0.516c0-0.208,0.008-0.385,0.026-0.531
		c0.017-0.146,0.043-0.262,0.078-0.349c0.035-0.086,0.076-0.148,0.125-0.187c0.048-0.038,0.107-0.058,0.177-0.058h9.493
		c0.063,0,0.12,0.02,0.172,0.058s0.096,0.101,0.13,0.187c0.035,0.087,0.061,0.203,0.078,0.349
		C36.555,44.314,36.563,44.491,36.563,44.699z"/>
	<path fill="#234D7D" d="M46.363,55.004c0,0.174-0.005,0.321-0.016,0.442c-0.01,0.121-0.025,0.226-0.047,0.313
		c-0.021,0.087-0.049,0.161-0.083,0.224c-0.035,0.063-0.09,0.134-0.167,0.213c-0.076,0.08-0.224,0.183-0.442,0.308
		c-0.218,0.125-0.485,0.244-0.801,0.358c-0.316,0.115-0.677,0.21-1.083,0.287c-0.405,0.076-0.845,0.114-1.316,0.114
		c-0.923,0-1.756-0.143-2.498-0.427s-1.374-0.71-1.895-1.275s-0.92-1.271-1.197-2.118s-0.416-1.832-0.416-2.956
		c0-1.145,0.152-2.161,0.458-3.05c0.306-0.888,0.732-1.634,1.28-2.237c0.548-0.604,1.206-1.062,1.973-1.374s1.611-0.469,2.534-0.469
		c0.375,0,0.735,0.031,1.083,0.094c0.347,0.063,0.667,0.145,0.962,0.245s0.561,0.217,0.797,0.349c0.235,0.132,0.4,0.244,0.494,0.338
		s0.158,0.172,0.192,0.234c0.035,0.063,0.063,0.143,0.084,0.239c0.021,0.098,0.036,0.212,0.047,0.344
		c0.01,0.132,0.016,0.295,0.016,0.489c0,0.208-0.008,0.385-0.021,0.53s-0.038,0.264-0.072,0.354
		c-0.035,0.09-0.077,0.155-0.125,0.197c-0.049,0.042-0.104,0.063-0.167,0.063c-0.104,0-0.235-0.061-0.396-0.182
		c-0.159-0.122-0.366-0.257-0.619-0.406c-0.254-0.149-0.556-0.284-0.905-0.406c-0.351-0.121-0.769-0.182-1.255-0.182
		c-0.534,0-1.011,0.109-1.431,0.327c-0.42,0.219-0.777,0.531-1.072,0.938c-0.295,0.405-0.519,0.896-0.671,1.473
		c-0.153,0.576-0.229,1.225-0.229,1.946c0,0.791,0.081,1.477,0.244,2.056s0.396,1.057,0.698,1.432
		c0.302,0.374,0.666,0.653,1.093,0.838c0.427,0.184,0.907,0.275,1.441,0.275c0.485,0,0.905-0.058,1.26-0.172
		c0.354-0.114,0.657-0.241,0.91-0.38c0.254-0.139,0.462-0.264,0.625-0.375c0.163-0.11,0.289-0.166,0.38-0.166
		c0.069,0,0.125,0.014,0.166,0.041c0.042,0.028,0.076,0.084,0.104,0.167c0.027,0.083,0.049,0.199,0.063,0.349
		S46.363,54.754,46.363,55.004z"/>
</g>
</svg>
