<?xml version="1.0" encoding="utf-8"?>
<!-- Generator: Adobe Illustrator 15.0.2, SVG Export Plug-In . SVG Version: 6.00 Build 0)  -->
<!DOCTYPE svg PUBLIC "-//W3C//DTD SVG 1.1//EN" "http://www.w3.org/Graphics/SVG/1.1/DTD/svg11.dtd">
<svg version="1.1" id="Layer_1" xmlns="http://www.w3.org/2000/svg" xmlns:xlink="http://www.w3.org/1999/xlink" x="0px" y="0px"
	 width="69px" height="69px" viewBox="0 0 69 69" enable-background="new 0 0 69 69" xml:space="preserve">
<g>
	<path id="SVGID_1_" fill="#234D7D" d="M52.384,19.136c1.371,0.788,2.446,2.74,2.446,4.45v34.706c0,2.598-2.115,4.713-4.715,4.713
		H18.707c-2.601,0-4.713-2.115-4.713-4.713V23.586c0-1.71,1.072-3.662,2.444-4.45l1.346-0.766V15.75H15.09
		c-0.604,0-1.096-0.488-1.096-1.093c0-0.608,0.491-1.096,1.096-1.096h0.09V8.859c0-1.604,1.304-2.907,2.903-2.907h32.653
		c1.604,0,2.906,1.304,2.906,2.907v4.702h0.091c0.605,0,1.097,0.486,1.097,1.096c0,0.604-0.489,1.093-1.097,1.093h-2.695v2.621
		L52.384,19.136L52.384,19.136z M16.187,58.292c0,1.391,1.13,2.523,2.521,2.523h31.41c1.391,0,2.521-1.133,2.521-2.523v-2.521
		H16.187V58.292L16.187,58.292z M16.187,53.582h36.451V32.379H16.187V53.582L16.187,53.582z M51.45,13.563V8.86
		c0-0.39-0.324-0.714-0.714-0.714h-4.35v2.127c0,0.604-0.487,1.097-1.092,1.097s-1.097-0.491-1.097-1.097V8.146h-5.065v2.127
		c0,0.604-0.486,1.097-1.096,1.097c-0.605,0-1.092-0.491-1.092-1.097V8.146h-5.066v2.127c0,0.604-0.491,1.097-1.097,1.097
		c-0.605,0-1.097-0.491-1.097-1.097V8.146h-5.06v2.127c0,0.604-0.491,1.097-1.097,1.097c-0.604,0-1.097-0.491-1.097-1.097V8.146
		h-4.349c-0.386,0-0.711,0.324-0.711,0.714v4.703H51.45L51.45,13.563z M49.398,19.954c-0.34-0.192-0.553-0.555-0.553-0.948v-3.254
		H19.974v3.254c0,0.393-0.208,0.756-0.548,0.948l-1.897,1.085c-0.703,0.404-1.342,1.618-1.342,2.548v6.6h36.451v-6.6
		c0-0.93-0.639-2.144-1.341-2.548L49.398,19.954L49.398,19.954z M40.966,49.621H27.859c-3.664,0-6.641-2.98-6.641-6.642
		s2.978-6.641,6.641-6.641h13.107c3.663,0,6.642,2.979,6.642,6.641S44.629,49.621,40.966,49.621L40.966,49.621z M33.316,38.527
		h-5.458c-2.454,0-4.449,1.995-4.449,4.452c0,2.452,1.995,4.448,4.449,4.448h5.458V38.527L33.316,38.527z M40.966,38.527h-5.458v8.9
		h5.458c2.452,0,4.448-1.996,4.448-4.448C45.414,40.522,43.418,38.527,40.966,38.527L40.966,38.527z M45.562,20.098H32.023
		c-0.605,0-1.097-0.488-1.097-1.094c0-0.605,0.491-1.097,1.097-1.097h13.539c0.604,0,1.096,0.491,1.096,1.097
		C46.657,19.61,46.167,20.098,45.562,20.098L45.562,20.098z M27.642,20.098h-4.38c-0.605,0-1.097-0.488-1.097-1.094
		c0-0.605,0.491-1.097,1.097-1.097h4.38c0.605,0,1.097,0.491,1.097,1.097C28.738,19.61,28.247,20.098,27.642,20.098L27.642,20.098z"
		/>
</g>
</svg>
