<?xml version="1.0" encoding="utf-8"?>
<!-- Generator: Adobe Illustrator 15.0.2, SVG Export Plug-In . SVG Version: 6.00 Build 0)  -->
<!DOCTYPE svg PUBLIC "-//W3C//DTD SVG 1.1//EN" "http://www.w3.org/Graphics/SVG/1.1/DTD/svg11.dtd">
<svg version="1.1" id="Layer_1" xmlns="http://www.w3.org/2000/svg" xmlns:xlink="http://www.w3.org/1999/xlink" x="0px" y="0px"
	 width="69px" height="69px" viewBox="0 0 69 69" enable-background="new 0 0 69 69" xml:space="preserve">
<g>
	<path fill="#FFFFFF" d="M48.441,12.259H8.213c-0.641,0-1.158-0.518-1.158-1.159c0-0.641,0.518-1.159,1.158-1.159h40.229
		c0.641,0,1.158,0.518,1.158,1.159C49.6,11.741,49.082,12.259,48.441,12.259z"/>
	<path fill="#FFFFFF" d="M28.328,50.749c-0.112,0-0.229-0.013-0.334-0.05l-15.898-4.818c-0.493-0.148-0.826-0.598-0.826-1.109V11.1
		c0-0.641,0.518-1.159,1.158-1.159H44.22c0.647,0,1.159,0.518,1.159,1.159v33.671c0,0.512-0.327,0.961-0.82,1.109L28.66,50.699
		C28.556,50.736,28.438,50.749,28.328,50.749z M13.588,43.91l14.74,4.473l14.734-4.473V12.259H13.588V43.91z"/>
	<path fill="#FFFFFF" d="M28.328,12.259c-0.643,0-1.16-0.518-1.16-1.159V3.123c0-0.641,0.518-1.159,1.16-1.159
		c0.641,0,1.158,0.518,1.158,1.159V11.1C29.486,11.741,28.969,12.259,28.328,12.259z"/>
	<path fill="#FFFFFF" d="M17.777,18.803h-4.658c-0.643,0-1.159-0.518-1.159-1.159c0-0.641,0.517-1.159,1.159-1.159h4.658
		c0.641,0,1.158,0.518,1.158,1.159C18.936,18.286,18.418,18.803,17.777,18.803z"/>
	<path fill="#FFFFFF" d="M44.22,25.65H13.119c-0.643,0-1.159-0.518-1.159-1.159s0.517-1.159,1.159-1.159H44.22
		c0.647,0,1.159,0.518,1.159,1.159S44.867,25.65,44.22,25.65z"/>
	<path fill="#FFFFFF" d="M17.777,31.498h-4.658c-0.643,0-1.159-0.518-1.159-1.159c0-0.641,0.517-1.158,1.159-1.158h4.658
		c0.641,0,1.158,0.518,1.158,1.158C18.936,30.98,18.418,31.498,17.777,31.498z"/>
	<path fill="#FFFFFF" d="M17.777,37.783h-4.658c-0.643,0-1.159-0.518-1.159-1.158s0.517-1.158,1.159-1.158h4.658
		c0.641,0,1.158,0.518,1.158,1.158S18.418,37.783,17.777,37.783z"/>
	<path fill="#FFFFFF" d="M46.507,65.539H33.781c-1.77,0-3.434-0.689-4.677-1.935c-1.245-1.251-1.937-2.915-1.937-4.684v-9.329
		c0-0.643,0.518-1.159,1.16-1.159c0.641,0,1.158,0.517,1.158,1.159v9.329c0,1.151,0.443,2.23,1.257,3.044s1.886,1.257,3.038,1.257
		h12.726c1.054,0,2.052-0.413,2.797-1.158c0.753-0.752,1.159-1.744,1.159-2.804V42.565c0-1.404,0.554-2.735,1.553-3.734
		c0.999-0.998,2.323-1.541,3.734-1.541h5.675c0.643,0,1.159,0.519,1.159,1.159s-0.517,1.158-1.159,1.158H55.75
		c-0.788,0-1.534,0.309-2.095,0.863c-0.562,0.566-0.87,1.306-0.87,2.095V59.26c0,1.683-0.653,3.26-1.841,4.442
		C49.761,64.886,48.183,65.539,46.507,65.539z"/>
</g>
</svg>
