<svg width="32" height="32" viewBox="0 0 32 32" fill="none" xmlns="http://www.w3.org/2000/svg">
<path d="M25.0385 8.00395L23.7234 7.23415L15.0646 22.0263L8.90409 16.208L7.85781 17.3158L15.4116 24.4499L25.0385 8.00395Z" fill="#009055"/>
<path fill-rule="evenodd" clip-rule="evenodd" d="M32 16C32 24.8366 24.8366 32 16 32C7.16344 32 0 24.8366 0 16C0 7.16344 7.16344 0 16 0C24.8366 0 32 7.16344 32 16ZM30.4762 16C30.4762 23.995 23.995 30.4762 16 30.4762C8.00502 30.4762 1.52381 23.995 1.52381 16C1.52381 8.00502 8.00502 1.52381 16 1.52381C23.995 1.52381 30.4762 8.00502 30.4762 16Z" fill="#009055"/>
</svg>
