<svg width="228" height="150" viewBox="0 0 228 150" fill="none" xmlns="http://www.w3.org/2000/svg">
<path d="M36.4184 29C36.4184 33.0972 33.097 36.4186 28.9998 36.4186C24.9026 36.4186 21.5812 33.0972 21.5812 29C21.5812 24.9028 24.9026 21.5814 28.9998 21.5814C33.097 21.5814 36.4184 24.9028 36.4184 29Z" fill="#009055"/>
<path d="M36.4184 7.4186C36.4184 11.5158 33.097 14.8372 28.9998 14.8372C24.9026 14.8372 21.5812 11.5158 21.5812 7.4186C21.5812 3.32142 24.9026 0 28.9998 0C33.097 0 36.4184 3.32142 36.4184 7.4186Z" fill="#009055"/>
<path d="M36.4184 50.5814C36.4184 54.6786 33.097 58 28.9998 58C24.9026 58 21.5812 54.6786 21.5812 50.5814C21.5812 46.4842 24.9026 43.1628 28.9998 43.1628C33.097 43.1628 36.4184 46.4842 36.4184 50.5814Z" fill="#009055"/>
<path d="M14.8372 29C14.8372 33.0972 11.5158 36.4186 7.4186 36.4186C3.32142 36.4186 0 33.0972 0 29C0 24.9028 3.32142 21.5814 7.4186 21.5814C11.5158 21.5814 14.8372 24.9028 14.8372 29Z" fill="#009055"/>
<path d="M14.8372 7.4186C14.8372 11.5158 11.5158 14.8372 7.4186 14.8372C3.32142 14.8372 0 11.5158 0 7.4186C0 3.32142 3.32142 0 7.4186 0C11.5158 0 14.8372 3.32142 14.8372 7.4186Z" fill="#009055"/>
<path d="M14.8372 50.5814C14.8372 54.6786 11.5158 58 7.4186 58C3.32142 58 0 54.6786 0 50.5814C0 46.4842 3.32142 43.1628 7.4186 43.1628C11.5158 43.1628 14.8372 46.4842 14.8372 50.5814Z" fill="#009055"/>
<path d="M57.9999 29C57.9999 33.0972 54.6785 36.4186 50.5813 36.4186C46.4841 36.4186 43.1627 33.0972 43.1627 29C43.1627 24.9028 46.4841 21.5814 50.5813 21.5814C54.6785 21.5814 57.9999 24.9028 57.9999 29Z" fill="#009055"/>
<path d="M57.9999 7.4186C57.9999 11.5158 54.6785 14.8372 50.5813 14.8372C46.4841 14.8372 43.1627 11.5158 43.1627 7.4186C43.1627 3.32142 46.4841 0 50.5813 0C54.6785 0 57.9999 3.32142 57.9999 7.4186Z" fill="#009055"/>
<path d="M57.9999 50.5814C57.9999 54.6786 54.6785 58 50.5813 58C46.4841 58 43.1627 54.6786 43.1627 50.5814C43.1627 46.4842 46.4841 43.1628 50.5813 43.1628C54.6785 43.1628 57.9999 46.4842 57.9999 50.5814Z" fill="#009055"/>
<rect x="78" width="150" height="150" fill="#009055"/>
<path d="M137.492 149.416C132.015 149.416 127.127 147.925 122.828 144.944C118.599 141.893 115.305 137.595 112.948 132.048C110.591 126.432 109.412 119.949 109.412 112.6C109.412 105.251 110.591 98.8026 112.948 93.2559C115.305 87.6399 118.599 83.3413 122.828 80.3599C127.127 77.3093 132.015 75.7839 137.492 75.7839C143.039 75.7839 147.927 77.3093 152.156 80.3599C156.385 83.3413 159.679 87.6399 162.036 93.2559C164.393 98.8026 165.572 105.251 165.572 112.6C165.572 119.949 164.393 126.432 162.036 132.048C159.679 137.595 156.385 141.893 152.156 144.944C147.927 147.925 143.039 149.416 137.492 149.416ZM137.492 146.192C142.345 146.192 146.644 144.84 150.388 142.136C154.132 139.432 157.009 135.549 159.02 130.488C161.1 125.427 162.14 119.464 162.14 112.6C162.14 105.736 161.1 99.7733 159.02 94.7119C157.009 89.6506 154.132 85.7679 150.388 83.0639C146.644 80.3599 142.345 79.0079 137.492 79.0079C132.639 79.0079 128.34 80.3599 124.596 83.0639C120.921 85.7679 118.044 89.6506 115.964 94.7119C113.953 99.7733 112.948 105.736 112.948 112.6C112.948 119.464 113.953 125.427 115.964 130.488C118.044 135.549 120.921 139.432 124.596 142.136C128.34 144.84 132.639 146.192 137.492 146.192Z" fill="white"/>
<path d="M196.721 108.336C205.041 108.336 211.35 110.173 215.649 113.848C220.017 117.523 222.201 122.515 222.201 128.824C222.201 134.995 220.052 139.987 215.753 143.8C211.524 147.544 205.492 149.416 197.657 149.416C192.318 149.416 187.361 148.515 182.785 146.712C178.209 144.84 174.742 142.379 172.385 139.328L174.257 136.832C176.476 139.605 179.63 141.859 183.721 143.592C187.881 145.325 192.492 146.192 197.553 146.192C204.417 146.192 209.652 144.632 213.257 141.512C216.932 138.392 218.769 134.163 218.769 128.824C218.769 123.347 216.897 119.083 213.153 116.032C209.409 112.981 203.793 111.456 196.305 111.456H192.249V108.96L214.921 79.4239H174.777V76.1999H219.497V78.6959L196.721 108.336Z" fill="white"/>
<path d="M103.84 24.152C103.637 24.8347 103.307 25.3573 102.848 25.72C102.389 26.0827 101.824 26.264 101.152 26.264C100.16 26.264 99.3867 25.8853 98.832 25.128C98.2773 24.3813 98 23.3093 98 21.912V16.392H109.2V21.608C109.2 22.9093 108.949 23.9227 108.448 24.648C107.947 25.3733 107.232 25.736 106.304 25.736C105.749 25.736 105.259 25.5973 104.832 25.32C104.416 25.0427 104.085 24.6533 103.84 24.152ZM104.56 18.968V21.384C104.56 21.9493 104.672 22.376 104.896 22.664C105.131 22.952 105.472 23.096 105.92 23.096C106.357 23.096 106.693 22.9467 106.928 22.648C107.163 22.36 107.28 21.9387 107.28 21.384V18.968H104.56ZM99.92 21.816C99.92 23.032 100.4 23.64 101.36 23.64C102.288 23.64 102.752 23.032 102.752 21.816V18.968H99.92V21.816ZM102.272 36.4899C102.24 36.4899 102.016 36.4739 101.6 36.4419V29.9299C101.067 30.0472 100.645 30.3245 100.336 30.7619C100.027 31.1992 99.872 31.7432 99.872 32.3939C99.872 32.8419 99.936 33.2365 100.064 33.5779C100.203 33.9299 100.416 34.2552 100.704 34.5539L99.264 35.8819C98.336 35.0712 97.872 33.8872 97.872 32.3299C97.872 31.3592 98.0587 30.5005 98.432 29.7539C98.816 29.0072 99.344 28.4312 100.016 28.0259C100.688 27.6205 101.451 27.4179 102.304 27.4179C103.147 27.4179 103.904 27.6152 104.576 28.0099C105.259 28.4152 105.787 28.9645 106.16 29.6579C106.544 30.3619 106.736 31.1459 106.736 32.0099C106.736 32.8525 106.555 33.6152 106.192 34.2979C105.829 34.9805 105.307 35.5139 104.624 35.8979C103.952 36.2925 103.168 36.4899 102.272 36.4899ZM104.848 32.0259C104.848 31.4605 104.688 30.9859 104.368 30.6019C104.048 30.2179 103.611 29.9832 103.056 29.8979V34.1379C103.6 34.0525 104.032 33.8179 104.352 33.4339C104.683 33.0499 104.848 32.5805 104.848 32.0259ZM106.608 46.1471H98V43.6511H101.2C100.837 42.9258 100.656 42.1258 100.656 41.2511C100.656 40.0885 100.917 39.2085 101.44 38.6111C101.973 38.0245 102.795 37.7311 103.904 37.7311H106.608V40.2271H104.064C103.541 40.2271 103.163 40.3605 102.928 40.6271C102.693 40.9045 102.576 41.2991 102.576 41.8111C102.576 42.4618 102.715 43.0751 102.992 43.6511H106.608V46.1471ZM106.608 48.5278V51.0238H98V48.5278H106.608ZM107.808 49.7758C107.808 49.3171 107.941 48.9438 108.208 48.6558C108.475 48.3678 108.805 48.2238 109.2 48.2238C109.595 48.2238 109.925 48.3678 110.192 48.6558C110.459 48.9438 110.592 49.3171 110.592 49.7758C110.592 50.2344 110.464 50.6078 110.208 50.8958C109.952 51.1838 109.632 51.3278 109.248 51.3278C108.832 51.3278 108.485 51.1838 108.208 50.8958C107.941 50.6078 107.808 50.2344 107.808 49.7758ZM106.736 58.4908C106.736 59.2908 106.549 60.0161 106.176 60.6667C105.813 61.3281 105.296 61.8454 104.624 62.2188C103.963 62.5921 103.189 62.7788 102.304 62.7788C101.419 62.7788 100.64 62.5921 99.968 62.2188C99.3067 61.8454 98.7893 61.3281 98.416 60.6667C98.0533 60.0161 97.872 59.2908 97.872 58.4908C97.872 57.3921 98.2187 56.5281 98.912 55.8988H94.896V53.4028H106.608V55.7868H105.616C106.363 56.4054 106.736 57.3068 106.736 58.4908ZM99.92 58.0588C99.92 58.6988 100.133 59.2214 100.56 59.6268C100.997 60.0428 101.579 60.2508 102.304 60.2508C103.029 60.2508 103.605 60.0428 104.032 59.6268C104.469 59.2214 104.688 58.6988 104.688 58.0588C104.688 57.4188 104.469 56.8908 104.032 56.4748C103.605 56.0694 103.029 55.8668 102.304 55.8668C101.579 55.8668 100.997 56.0694 100.56 56.4748C100.133 56.8908 99.92 57.4188 99.92 58.0588Z" fill="white"/>
</svg>
