<svg width="102" height="278" viewBox="0 0 102 278" fill="none" xmlns="http://www.w3.org/2000/svg">
<path d="M36.4184 249C36.4184 253.097 33.097 256.419 28.9998 256.419C24.9026 256.419 21.5812 253.097 21.5812 249C21.5812 244.903 24.9026 241.581 28.9998 241.581C33.097 241.581 36.4184 244.903 36.4184 249Z" fill="#009055"/>
<path d="M36.4184 227.419C36.4184 231.516 33.097 234.837 28.9998 234.837C24.9026 234.837 21.5812 231.516 21.5812 227.419C21.5812 223.321 24.9026 220 28.9998 220C33.097 220 36.4184 223.321 36.4184 227.419Z" fill="#009055"/>
<path d="M36.4184 270.581C36.4184 274.679 33.097 278 28.9998 278C24.9026 278 21.5812 274.679 21.5812 270.581C21.5812 266.484 24.9026 263.163 28.9998 263.163C33.097 263.163 36.4184 266.484 36.4184 270.581Z" fill="#009055"/>
<path d="M14.8372 249C14.8372 253.097 11.5158 256.419 7.4186 256.419C3.32142 256.419 0 253.097 0 249C0 244.903 3.32142 241.581 7.4186 241.581C11.5158 241.581 14.8372 244.903 14.8372 249Z" fill="#009055"/>
<path d="M14.8372 227.419C14.8372 231.516 11.5158 234.837 7.4186 234.837C3.32142 234.837 0 231.516 0 227.419C0 223.321 3.32142 220 7.4186 220C11.5158 220 14.8372 223.321 14.8372 227.419Z" fill="#009055"/>
<path d="M14.8372 270.581C14.8372 274.679 11.5158 278 7.4186 278C3.32142 278 0 274.679 0 270.581C0 266.484 3.32142 263.163 7.4186 263.163C11.5158 263.163 14.8372 266.484 14.8372 270.581Z" fill="#009055"/>
<path d="M57.9999 249C57.9999 253.097 54.6785 256.419 50.5813 256.419C46.4841 256.419 43.1627 253.097 43.1627 249C43.1627 244.903 46.4841 241.581 50.5813 241.581C54.6785 241.581 57.9999 244.903 57.9999 249Z" fill="#009055"/>
<path d="M57.9999 227.419C57.9999 231.516 54.6785 234.837 50.5813 234.837C46.4841 234.837 43.1627 231.516 43.1627 227.419C43.1627 223.321 46.4841 220 50.5813 220C54.6785 220 57.9999 223.321 57.9999 227.419Z" fill="#009055"/>
<path d="M57.9999 270.581C57.9999 274.679 54.6785 278 50.5813 278C46.4841 278 43.1627 274.679 43.1627 270.581C43.1627 266.484 46.4841 263.163 50.5813 263.163C54.6785 263.163 57.9999 266.484 57.9999 270.581Z" fill="#009055"/>
<rect width="102" height="200" fill="#009055"/>
<path d="M44.872 25.232C44.872 24.3253 45.0587 23.5093 45.432 22.784C45.816 22.0693 46.344 21.5093 47.016 21.104C47.688 20.6987 48.4507 20.496 49.304 20.496C50.1573 20.496 50.92 20.6987 51.592 21.104C52.264 21.5093 52.7867 22.0693 53.16 22.784C53.544 23.5093 53.736 24.3253 53.736 25.232C53.736 26.1387 53.544 26.9493 53.16 27.664C52.7867 28.3787 52.264 28.9387 51.592 29.344C50.92 29.7493 50.1573 29.952 49.304 29.952C48.4507 29.952 47.688 29.7493 47.016 29.344C46.344 28.9387 45.816 28.3787 45.432 27.664C45.0587 26.9493 44.872 26.1387 44.872 25.232ZM46.92 25.232C46.92 25.872 47.1333 26.3947 47.56 26.8C47.9973 27.216 48.5787 27.424 49.304 27.424C50.0293 27.424 50.6053 27.216 51.032 26.8C51.4693 26.3947 51.688 25.872 51.688 25.232C51.688 24.592 51.4693 24.064 51.032 23.648C50.6053 23.232 50.0293 23.024 49.304 23.024C48.5787 23.024 47.9973 23.232 47.56 23.648C47.1333 24.064 46.92 24.592 46.92 25.232ZM44.872 35.7648C44.872 34.8474 45.0587 34.0208 45.432 33.2848C45.816 32.5594 46.344 31.9888 47.016 31.5728C47.688 31.1674 48.4507 30.9648 49.304 30.9648C50.1573 30.9648 50.92 31.1674 51.592 31.5728C52.264 31.9888 52.7867 32.5594 53.16 33.2848C53.544 34.0208 53.736 34.8474 53.736 35.7648C53.736 36.6714 53.544 37.4608 53.16 38.1328C52.7867 38.8154 52.248 39.3114 51.544 39.6208L50.504 37.6848C51.2933 37.2368 51.688 36.5914 51.688 35.7488C51.688 35.0981 51.4747 34.5594 51.048 34.1328C50.6213 33.7061 50.04 33.4928 49.304 33.4928C48.568 33.4928 47.9867 33.7061 47.56 34.1328C47.1333 34.5594 46.92 35.0981 46.92 35.7488C46.92 36.6021 47.3147 37.2474 48.104 37.6848L47.048 39.6208C46.3653 39.3114 45.832 38.8154 45.448 38.1328C45.064 37.4608 44.872 36.6714 44.872 35.7648ZM53.608 41.1375V43.6175H50.248V47.3615H53.608V49.8575H45V47.3615H48.216V43.6175H45V41.1375H53.608ZM44.872 56.2789C44.872 55.3722 45.0587 54.5562 45.432 53.8309C45.816 53.1162 46.344 52.5562 47.016 52.1509C47.688 51.7455 48.4507 51.5429 49.304 51.5429C50.1573 51.5429 50.92 51.7455 51.592 52.1509C52.264 52.5562 52.7867 53.1162 53.16 53.8309C53.544 54.5562 53.736 55.3722 53.736 56.2789C53.736 57.1855 53.544 57.9962 53.16 58.7109C52.7867 59.4255 52.264 59.9855 51.592 60.3909C50.92 60.7962 50.1573 60.9989 49.304 60.9989C48.4507 60.9989 47.688 60.7962 47.016 60.3909C46.344 59.9855 45.816 59.4255 45.432 58.7109C45.0587 57.9962 44.872 57.1855 44.872 56.2789ZM46.92 56.2789C46.92 56.9189 47.1333 57.4415 47.56 57.8469C47.9973 58.2629 48.5787 58.4709 49.304 58.4709C50.0293 58.4709 50.6053 58.2629 51.032 57.8469C51.4693 57.4415 51.688 56.9189 51.688 56.2789C51.688 55.6389 51.4693 55.1109 51.032 54.6949C50.6053 54.2789 50.0293 54.0709 49.304 54.0709C48.5787 54.0709 47.9973 54.2789 47.56 54.6949C47.1333 55.1109 46.92 55.6389 46.92 56.2789ZM49.496 69.2916C49.1547 70.305 48.472 70.8116 47.448 70.8116C46.6693 70.8116 46.0667 70.5183 45.64 69.9316C45.2133 69.345 45 68.4703 45 67.3076V62.7156H53.608V67.1156C53.608 68.193 53.4107 69.0356 53.016 69.6436C52.632 70.2516 52.088 70.5556 51.384 70.5556C50.9573 70.5556 50.5787 70.4436 50.248 70.2196C49.928 70.0063 49.6773 69.697 49.496 69.2916ZM50.072 65.0036V66.8916C50.072 67.7663 50.3813 68.2036 51 68.2036C51.608 68.2036 51.912 67.7663 51.912 66.8916V65.0036H50.072ZM46.696 67.0996C46.696 68.017 47.0107 68.4756 47.64 68.4756C47.9707 68.4756 48.2107 68.369 48.36 68.1556C48.52 67.9423 48.6 67.6063 48.6 67.1476V65.0036H46.696V67.0996ZM53.608 72.6688V75.1488H50.248V78.8928H53.608V81.3888H45L45 78.8928H48.216V75.1488H45V72.6688H53.608ZM53.608 83.7621V86.2581H45V83.7621H53.608ZM54.808 85.0101C54.808 84.5515 54.9413 84.1781 55.208 83.8901C55.4747 83.6021 55.8053 83.4581 56.2 83.4581C56.5947 83.4581 56.9253 83.6021 57.192 83.8901C57.4587 84.1781 57.592 84.5515 57.592 85.0101C57.592 85.4688 57.464 85.8421 57.208 86.1301C56.952 86.4181 56.632 86.5621 56.248 86.5621C55.832 86.5621 55.4853 86.4181 55.208 86.1301C54.9413 85.8421 54.808 85.4688 54.808 85.0101ZM44.872 97.2804C44.872 96.363 45.0587 95.5364 45.432 94.8004C45.816 94.075 46.344 93.5044 47.016 93.0884C47.688 92.683 48.4507 92.4804 49.304 92.4804C50.1573 92.4804 50.92 92.683 51.592 93.0884C52.264 93.5044 52.7867 94.075 53.16 94.8004C53.544 95.5364 53.736 96.363 53.736 97.2804C53.736 98.187 53.544 98.9764 53.16 99.6484C52.7867 100.331 52.248 100.827 51.544 101.136L50.504 99.2004C51.2933 98.7524 51.688 98.107 51.688 97.2644C51.688 96.6137 51.4747 96.075 51.048 95.6484C50.6213 95.2217 50.04 95.0084 49.304 95.0084C48.568 95.0084 47.9867 95.2217 47.56 95.6484C47.1333 96.075 46.92 96.6137 46.92 97.2644C46.92 98.1177 47.3147 98.763 48.104 99.2004L47.048 101.136C46.3653 100.827 45.832 100.331 45.448 99.6484C45.064 98.9764 44.872 98.187 44.872 97.2804ZM53.608 102.653V105.133H48.488L53.608 109.325V111.613H45V109.133H50.12L45 104.957V102.653H53.608ZM45 122.413H50.152L45.832 119.837V118.781L50.168 116.269H45V114.013H53.608V116.621L48.632 119.373L53.608 122.301V124.637L45 124.669V122.413ZM53.608 135.619H45V133.123H51.56V129.539H45V127.059H53.608L53.608 135.619ZM51.56 145.245V142.333H45V139.853H51.56V136.941H53.608V145.245H51.56ZM44.872 150.248C44.872 149.341 45.0587 148.525 45.432 147.8C45.816 147.085 46.344 146.525 47.016 146.12C47.688 145.714 48.4507 145.512 49.304 145.512C50.1573 145.512 50.92 145.714 51.592 146.12C52.264 146.525 52.7867 147.085 53.16 147.8C53.544 148.525 53.736 149.341 53.736 150.248C53.736 151.154 53.544 151.965 53.16 152.68C52.7867 153.394 52.264 153.954 51.592 154.36C50.92 154.765 50.1573 154.968 49.304 154.968C48.4507 154.968 47.688 154.765 47.016 154.36C46.344 153.954 45.816 153.394 45.432 152.68C45.0587 151.965 44.872 151.154 44.872 150.248ZM46.92 150.248C46.92 150.888 47.1333 151.41 47.56 151.816C47.9973 152.232 48.5787 152.44 49.304 152.44C50.0293 152.44 50.6053 152.232 51.032 151.816C51.4693 151.41 51.688 150.888 51.688 150.248C51.688 149.608 51.4693 149.08 51.032 148.664C50.6053 148.248 50.0293 148.04 49.304 148.04C48.5787 148.04 47.9973 148.248 47.56 148.664C47.1333 149.08 46.92 149.608 46.92 150.248ZM45 165.084H50.152L45.832 162.508V161.452L50.168 158.94H45V156.684H53.608V159.292L48.632 162.044L53.608 164.972V167.308L45 167.34V165.084ZM53.608 169.731V172.211H48.488L53.608 176.403V178.691H45V176.211H50.12L45 172.035V169.731H53.608Z" fill="white"/>
</svg>
