<svg width="228" height="150" viewBox="0 0 228 150" fill="none" xmlns="http://www.w3.org/2000/svg">
<path d="M206.418 29C206.418 33.0972 203.097 36.4186 199 36.4186C194.903 36.4186 191.581 33.0972 191.581 29C191.581 24.9028 194.903 21.5814 199 21.5814C203.097 21.5814 206.418 24.9028 206.418 29Z" fill="#009055"/>
<path d="M206.418 7.4186C206.418 11.5158 203.097 14.8372 199 14.8372C194.903 14.8372 191.581 11.5158 191.581 7.4186C191.581 3.32142 194.903 0 199 0C203.097 0 206.418 3.32142 206.418 7.4186Z" fill="#009055"/>
<path d="M206.418 50.5814C206.418 54.6786 203.097 58 199 58C194.903 58 191.581 54.6786 191.581 50.5814C191.581 46.4842 194.903 43.1628 199 43.1628C203.097 43.1628 206.418 46.4842 206.418 50.5814Z" fill="#009055"/>
<path d="M184.837 29C184.837 33.0972 181.516 36.4186 177.419 36.4186C173.321 36.4186 170 33.0972 170 29C170 24.9028 173.321 21.5814 177.419 21.5814C181.516 21.5814 184.837 24.9028 184.837 29Z" fill="#009055"/>
<path d="M184.837 7.4186C184.837 11.5158 181.516 14.8372 177.419 14.8372C173.321 14.8372 170 11.5158 170 7.4186C170 3.32142 173.321 0 177.419 0C181.516 0 184.837 3.32142 184.837 7.4186Z" fill="#009055"/>
<path d="M184.837 50.5814C184.837 54.6786 181.516 58 177.419 58C173.321 58 170 54.6786 170 50.5814C170 46.4842 173.321 43.1628 177.419 43.1628C181.516 43.1628 184.837 46.4842 184.837 50.5814Z" fill="#009055"/>
<path d="M228 29C228 33.0972 224.678 36.4186 220.581 36.4186C216.484 36.4186 213.163 33.0972 213.163 29C213.163 24.9028 216.484 21.5814 220.581 21.5814C224.678 21.5814 228 24.9028 228 29Z" fill="#009055"/>
<path d="M228 7.4186C228 11.5158 224.678 14.8372 220.581 14.8372C216.484 14.8372 213.163 11.5158 213.163 7.4186C213.163 3.32142 216.484 0 220.581 0C224.678 0 228 3.32142 228 7.4186Z" fill="#009055"/>
<path d="M228 50.5814C228 54.6786 224.678 58 220.581 58C216.484 58 213.163 54.6786 213.163 50.5814C213.163 46.4842 216.484 43.1628 220.581 43.1628C224.678 43.1628 228 46.4842 228 50.5814Z" fill="#009055"/>
<rect width="150" height="150" fill="#009055"/>
<path d="M79.9067 149.416C74.4293 149.416 69.5413 147.925 65.2427 144.944C61.0133 141.893 57.72 137.595 55.3627 132.048C53.0053 126.432 51.8267 119.949 51.8267 112.6C51.8267 105.251 53.0053 98.8027 55.3627 93.256C57.72 87.64 61.0133 83.3413 65.2427 80.36C69.5413 77.3093 74.4293 75.784 79.9067 75.784C85.4533 75.784 90.3413 77.3093 94.5707 80.36C98.8 83.3413 102.093 87.64 104.451 93.256C106.808 98.8027 107.987 105.251 107.987 112.6C107.987 119.949 106.808 126.432 104.451 132.048C102.093 137.595 98.8 141.893 94.5707 144.944C90.3413 147.925 85.4533 149.416 79.9067 149.416ZM79.9067 146.192C84.76 146.192 89.0587 144.84 92.8027 142.136C96.5467 139.432 99.424 135.549 101.435 130.488C103.515 125.427 104.555 119.464 104.555 112.6C104.555 105.736 103.515 99.7733 101.435 94.712C99.424 89.6507 96.5467 85.768 92.8027 83.064C89.0587 80.36 84.76 79.008 79.9067 79.008C75.0533 79.008 70.7547 80.36 67.0107 83.064C63.336 85.768 60.4587 89.6507 58.3787 94.712C56.368 99.7733 55.3627 105.736 55.3627 112.6C55.3627 119.464 56.368 125.427 58.3787 130.488C60.4587 135.549 63.336 139.432 67.0107 142.136C70.7547 144.84 75.0533 146.192 79.9067 146.192Z" fill="white"/>
<path d="M136.722 76.2V149H133.29V79.424H114.986V76.2H136.722Z" fill="white"/>
<path d="M27.2 21.24C27.2 22.232 27.0347 23.0907 26.704 23.816C26.3733 24.552 25.904 25.1173 25.296 25.512C24.688 25.9067 23.968 26.104 23.136 26.104C22.3147 26.104 21.5947 25.9067 20.976 25.512C20.368 25.1173 19.8987 24.552 19.568 23.816C19.248 23.0907 19.088 22.232 19.088 21.24V18.984H16V16.392H27.2V21.24ZM21.2 21.096C21.2 21.8747 21.3653 22.4667 21.696 22.872C22.0373 23.2773 22.5173 23.48 23.136 23.48C23.7653 23.48 24.2453 23.2773 24.576 22.872C24.9173 22.4667 25.088 21.8747 25.088 21.096V18.984H21.2V21.096ZM24.736 30.8878C24.736 32.2211 24.416 33.2451 23.776 33.9598C23.1467 34.6744 22.192 35.0318 20.912 35.0318H16V32.6958H17.072C16.272 32.2264 15.872 31.3518 15.872 30.0718C15.872 29.4104 15.984 28.8344 16.208 28.3438C16.432 27.8638 16.7413 27.4958 17.136 27.2398C17.5307 26.9838 17.9787 26.8558 18.48 26.8558C19.28 26.8558 19.9093 27.1544 20.368 27.7518C20.8267 28.3598 21.056 29.2931 21.056 30.5518V32.5358C21.6 32.5358 22.016 32.3704 22.304 32.0398C22.6027 31.7091 22.752 31.2131 22.752 30.5518C22.752 30.0931 22.6773 29.6398 22.528 29.1918C22.3893 28.7544 22.1973 28.3811 21.952 28.0718L23.696 27.1758C24.0267 27.6451 24.2827 28.2051 24.464 28.8558C24.6453 29.5171 24.736 30.1944 24.736 30.8878ZM17.552 30.6958C17.552 31.1224 17.648 31.5011 17.84 31.8318C18.0427 32.1624 18.336 32.3971 18.72 32.5358H19.6V30.8238C19.6 29.7998 19.264 29.2878 18.592 29.2878C18.272 29.2878 18.016 29.4104 17.824 29.6558C17.6427 29.9118 17.552 30.2584 17.552 30.6958ZM24.608 37.2V39.68H21.248V43.424H24.608V45.92H16V43.424H19.216V39.68H16L16 37.2H24.608ZM15.872 52.3414C15.872 51.4347 16.0587 50.6187 16.432 49.8934C16.816 49.1787 17.344 48.6187 18.016 48.2134C18.688 47.808 19.4507 47.6054 20.304 47.6054C21.1573 47.6054 21.92 47.808 22.592 48.2134C23.264 48.6187 23.7867 49.1787 24.16 49.8934C24.544 50.6187 24.736 51.4347 24.736 52.3414C24.736 53.248 24.544 54.0587 24.16 54.7734C23.7867 55.488 23.264 56.048 22.592 56.4534C21.92 56.8587 21.1573 57.0614 20.304 57.0614C19.4507 57.0614 18.688 56.8587 18.016 56.4534C17.344 56.048 16.816 55.488 16.432 54.7734C16.0587 54.0587 15.872 53.248 15.872 52.3414ZM17.92 52.3414C17.92 52.9814 18.1333 53.504 18.56 53.9094C18.9973 54.3254 19.5787 54.5334 20.304 54.5334C21.0293 54.5334 21.6053 54.3254 22.032 53.9094C22.4693 53.504 22.688 52.9814 22.688 52.3414C22.688 51.7014 22.4693 51.1734 22.032 50.7574C21.6053 50.3414 21.0293 50.1334 20.304 50.1334C19.5787 50.1334 18.9973 50.3414 18.56 50.7574C18.1333 51.1734 17.92 51.7014 17.92 52.3414ZM19.264 62.5701V61.2741H16V58.7781H24.608L24.608 61.2741H21.264V62.6181L24.608 64.9541V67.6101L20.48 64.6021L16 67.8181V64.8741L19.264 62.5701Z" fill="white"/>
</svg>
