<svg width="102" height="278" viewBox="0 0 102 278" fill="none" xmlns="http://www.w3.org/2000/svg">
<path d="M36.4184 249C36.4184 253.097 33.097 256.419 28.9998 256.419C24.9026 256.419 21.5812 253.097 21.5812 249C21.5812 244.903 24.9026 241.581 28.9998 241.581C33.097 241.581 36.4184 244.903 36.4184 249Z" fill="#009055"/>
<path d="M36.4184 227.419C36.4184 231.516 33.097 234.837 28.9998 234.837C24.9026 234.837 21.5812 231.516 21.5812 227.419C21.5812 223.321 24.9026 220 28.9998 220C33.097 220 36.4184 223.321 36.4184 227.419Z" fill="#009055"/>
<path d="M36.4184 270.581C36.4184 274.679 33.097 278 28.9998 278C24.9026 278 21.5812 274.679 21.5812 270.581C21.5812 266.484 24.9026 263.163 28.9998 263.163C33.097 263.163 36.4184 266.484 36.4184 270.581Z" fill="#009055"/>
<path d="M14.8372 249C14.8372 253.097 11.5158 256.419 7.4186 256.419C3.32142 256.419 0 253.097 0 249C0 244.903 3.32142 241.581 7.4186 241.581C11.5158 241.581 14.8372 244.903 14.8372 249Z" fill="#009055"/>
<path d="M14.8372 227.419C14.8372 231.516 11.5158 234.837 7.4186 234.837C3.32142 234.837 0 231.516 0 227.419C0 223.321 3.32142 220 7.4186 220C11.5158 220 14.8372 223.321 14.8372 227.419Z" fill="#009055"/>
<path d="M14.8372 270.581C14.8372 274.679 11.5158 278 7.4186 278C3.32142 278 0 274.679 0 270.581C0 266.484 3.32142 263.163 7.4186 263.163C11.5158 263.163 14.8372 266.484 14.8372 270.581Z" fill="#009055"/>
<path d="M57.9999 249C57.9999 253.097 54.6785 256.419 50.5813 256.419C46.4841 256.419 43.1627 253.097 43.1627 249C43.1627 244.903 46.4841 241.581 50.5813 241.581C54.6785 241.581 57.9999 244.903 57.9999 249Z" fill="#009055"/>
<path d="M57.9999 227.419C57.9999 231.516 54.6785 234.837 50.5813 234.837C46.4841 234.837 43.1627 231.516 43.1627 227.419C43.1627 223.321 46.4841 220 50.5813 220C54.6785 220 57.9999 223.321 57.9999 227.419Z" fill="#009055"/>
<path d="M57.9999 270.581C57.9999 274.679 54.6785 278 50.5813 278C46.4841 278 43.1627 274.679 43.1627 270.581C43.1627 266.484 46.4841 263.163 50.5813 263.163C54.6785 263.163 57.9999 266.484 57.9999 270.581Z" fill="#009055"/>
<rect width="102" height="200" fill="#009055"/>
<path d="M44.872 16.232C44.872 15.3253 45.0587 14.5093 45.432 13.784C45.816 13.0693 46.344 12.5093 47.016 12.104C47.688 11.6987 48.4507 11.496 49.304 11.496C50.1573 11.496 50.92 11.6987 51.592 12.104C52.264 12.5093 52.7867 13.0693 53.16 13.784C53.544 14.5093 53.736 15.3253 53.736 16.232C53.736 17.1387 53.544 17.9493 53.16 18.664C52.7867 19.3787 52.264 19.9387 51.592 20.344C50.92 20.7493 50.1573 20.952 49.304 20.952C48.4507 20.952 47.688 20.7493 47.016 20.344C46.344 19.9387 45.816 19.3787 45.432 18.664C45.0587 17.9493 44.872 17.1387 44.872 16.232ZM46.92 16.232C46.92 16.872 47.1333 17.3947 47.56 17.8C47.9973 18.216 48.5787 18.424 49.304 18.424C50.0293 18.424 50.6053 18.216 51.032 17.8C51.4693 17.3947 51.688 16.872 51.688 16.232C51.688 15.592 51.4693 15.064 51.032 14.648C50.6053 14.232 50.0293 14.024 49.304 14.024C48.5787 14.024 47.9973 14.232 47.56 14.648C47.1333 15.064 46.92 15.592 46.92 16.232ZM44.872 26.4448C44.872 25.5274 45.0587 24.7008 45.432 23.9648C45.816 23.2394 46.344 22.6688 47.016 22.2528C47.688 21.8474 48.4507 21.6448 49.304 21.6448C50.1573 21.6448 50.92 21.8474 51.592 22.2528C52.264 22.6688 52.7867 23.2394 53.16 23.9648C53.544 24.7008 53.736 25.5274 53.736 26.4448C53.736 27.3514 53.544 28.1408 53.16 28.8128C52.7867 29.4954 52.248 29.9914 51.544 30.3008L50.504 28.3648C51.2933 27.9168 51.688 27.2714 51.688 26.4288C51.688 25.7781 51.4747 25.2394 51.048 24.8128C50.6213 24.3861 50.04 24.1728 49.304 24.1728C48.568 24.1728 47.9867 24.3861 47.56 24.8128C47.1333 25.2394 46.92 25.7781 46.92 26.4288C46.92 27.2821 47.3147 27.9274 48.104 28.3648L47.048 30.3008C46.3653 29.9914 45.832 29.4954 45.448 28.8128C45.064 28.1408 44.872 27.3514 44.872 26.4448ZM53.608 31.4975V33.9775H50.248V37.7215H53.608V40.2175H45V37.7215H48.216V33.9775H45V31.4975H53.608ZM44.872 46.3189C44.872 45.4122 45.0587 44.5962 45.432 43.8709C45.816 43.1562 46.344 42.5962 47.016 42.1909C47.688 41.7855 48.4507 41.5829 49.304 41.5829C50.1573 41.5829 50.92 41.7855 51.592 42.1909C52.264 42.5962 52.7867 43.1562 53.16 43.8709C53.544 44.5962 53.736 45.4122 53.736 46.3189C53.736 47.2255 53.544 48.0362 53.16 48.7509C52.7867 49.4655 52.264 50.0255 51.592 50.4309C50.92 50.8362 50.1573 51.0389 49.304 51.0389C48.4507 51.0389 47.688 50.8362 47.016 50.4309C46.344 50.0255 45.816 49.4655 45.432 48.7509C45.0587 48.0362 44.872 47.2255 44.872 46.3189ZM46.92 46.3189C46.92 46.9589 47.1333 47.4815 47.56 47.8869C47.9973 48.3029 48.5787 48.5109 49.304 48.5109C50.0293 48.5109 50.6053 48.3029 51.032 47.8869C51.4693 47.4815 51.688 46.9589 51.688 46.3189C51.688 45.6789 51.4693 45.1509 51.032 44.7349C50.6053 44.3189 50.0293 44.1109 49.304 44.1109C48.5787 44.1109 47.9973 44.3189 47.56 44.7349C47.1333 45.1509 46.92 45.6789 46.92 46.3189ZM49.496 59.0116C49.1547 60.025 48.472 60.5316 47.448 60.5316C46.6693 60.5316 46.0667 60.2383 45.64 59.6516C45.2133 59.065 45 58.1903 45 57.0276V52.4356H53.608V56.8356C53.608 57.913 53.4107 58.7556 53.016 59.3636C52.632 59.9716 52.088 60.2756 51.384 60.2756C50.9573 60.2756 50.5787 60.1636 50.248 59.9396C49.928 59.7263 49.6773 59.417 49.496 59.0116ZM50.072 54.7236V56.6116C50.072 57.4863 50.3813 57.9236 51 57.9236C51.608 57.9236 51.912 57.4863 51.912 56.6116V54.7236H50.072ZM46.696 56.8196C46.696 57.737 47.0107 58.1956 47.64 58.1956C47.9707 58.1956 48.2107 58.089 48.36 57.8756C48.52 57.6623 48.6 57.3263 48.6 56.8676V54.7236H46.696V56.8196ZM53.608 62.0688V64.5488H50.248V68.2928H53.608V70.7888H45L45 68.2928H48.216V64.5488H45V62.0688H53.608ZM50.856 77.3861C50.8453 78.5061 50.5947 79.3541 50.104 79.9301C49.6133 80.5061 48.9093 80.7941 47.992 80.7941C47.032 80.7941 46.2907 80.4688 45.768 79.8181C45.2453 79.1675 44.984 78.2448 44.984 77.0501L45 72.8581H53.608V75.3381H50.856V77.3861ZM53.608 81.7221V84.2021H45V81.7221H53.608ZM46.76 76.8261C46.7493 77.3061 46.8507 77.6741 47.064 77.9301C47.2773 78.1861 47.5973 78.3141 48.024 78.3141C48.44 78.3141 48.744 78.1861 48.936 77.9301C49.128 77.6848 49.2293 77.3168 49.24 76.8261L49.256 75.3381H46.76V76.8261ZM49.272 94.6561C49.24 94.6561 49.016 94.6401 48.6 94.6081V88.0961C48.0667 88.2135 47.6453 88.4908 47.336 88.9281C47.0267 89.3655 46.872 89.9095 46.872 90.5601C46.872 91.0081 46.936 91.4028 47.064 91.7441C47.2027 92.0961 47.416 92.4215 47.704 92.7201L46.264 94.0481C45.336 93.2375 44.872 92.0535 44.872 90.4961C44.872 89.5255 45.0587 88.6668 45.432 87.9201C45.816 87.1735 46.344 86.5975 47.016 86.1921C47.688 85.7868 48.4507 85.5841 49.304 85.5841C50.1467 85.5841 50.904 85.7815 51.576 86.1761C52.2587 86.5815 52.7867 87.1308 53.16 87.8241C53.544 88.5281 53.736 89.3121 53.736 90.1761C53.736 91.0188 53.5547 91.7815 53.192 92.4641C52.8293 93.1468 52.3067 93.6801 51.624 94.0641C50.952 94.4588 50.168 94.6561 49.272 94.6561ZM51.848 90.1921C51.848 89.6268 51.688 89.1521 51.368 88.7681C51.048 88.3841 50.6107 88.1495 50.056 88.0641V92.3041C50.6 92.2188 51.032 91.9841 51.352 91.6001C51.6827 91.2161 51.848 90.7468 51.848 90.1921ZM44.872 104.557C44.872 103.639 45.0587 102.813 45.432 102.077C45.816 101.351 46.344 100.781 47.016 100.365C47.688 99.9593 48.4507 99.7566 49.304 99.7566C50.1573 99.7566 50.92 99.9593 51.592 100.365C52.264 100.781 52.7867 101.351 53.16 102.077C53.544 102.813 53.736 103.639 53.736 104.557C53.736 105.463 53.544 106.253 53.16 106.925C52.7867 107.607 52.248 108.103 51.544 108.413L50.504 106.477C51.2933 106.029 51.688 105.383 51.688 104.541C51.688 103.89 51.4747 103.351 51.048 102.925C50.6213 102.498 50.04 102.285 49.304 102.285C48.568 102.285 47.9867 102.498 47.56 102.925C47.1333 103.351 46.92 103.89 46.92 104.541C46.92 105.394 47.3147 106.039 48.104 106.477L47.048 108.413C46.3653 108.103 45.832 107.607 45.448 106.925C45.064 106.253 44.872 105.463 44.872 104.557ZM53.608 109.609V112.089H48.488L53.608 116.281V118.569H45V116.089H50.12L45 111.913V109.609H53.608ZM45 129.049H50.152L45.832 126.473V125.417L50.168 122.905H45V120.649H53.608V123.257L48.632 126.009L53.608 128.937V131.273L45 131.305V129.049ZM53.608 141.936H45V139.44H51.56V135.856H45V133.376H53.608V141.936ZM51.56 151.241V148.329H45V145.849H51.56V142.937H53.608V151.241H51.56ZM44.872 155.924C44.872 155.017 45.0587 154.201 45.432 153.476C45.816 152.761 46.344 152.201 47.016 151.796C47.688 151.391 48.4507 151.188 49.304 151.188C50.1573 151.188 50.92 151.391 51.592 151.796C52.264 152.201 52.7867 152.761 53.16 153.476C53.544 154.201 53.736 155.017 53.736 155.924C53.736 156.831 53.544 157.641 53.16 158.356C52.7867 159.071 52.264 159.631 51.592 160.036C50.92 160.441 50.1573 160.644 49.304 160.644C48.4507 160.644 47.688 160.441 47.016 160.036C46.344 159.631 45.816 159.071 45.432 158.356C45.0587 157.641 44.872 156.831 44.872 155.924ZM46.92 155.924C46.92 156.564 47.1333 157.087 47.56 157.492C47.9973 157.908 48.5787 158.116 49.304 158.116C50.0293 158.116 50.6053 157.908 51.032 157.492C51.4693 157.087 51.688 156.564 51.688 155.924C51.688 155.284 51.4693 154.756 51.032 154.34C50.6053 153.924 50.0293 153.716 49.304 153.716C48.5787 153.716 47.9973 153.924 47.56 154.34C47.1333 154.756 46.92 155.284 46.92 155.924ZM45 170.441H50.152L45.832 167.865V166.809L50.168 164.297H45V162.041H53.608V164.649L48.632 167.401L53.608 170.329V172.665L45 172.697V170.441ZM50.856 179.296C50.8453 180.416 50.5947 181.264 50.104 181.84C49.6133 182.416 48.9093 182.704 47.992 182.704C47.032 182.704 46.2907 182.378 45.768 181.728C45.2453 181.077 44.984 180.154 44.984 178.96L45 174.768H53.608V177.248H50.856V179.296ZM53.608 183.632V186.112H45V183.632H53.608ZM46.76 178.736C46.7493 179.216 46.8507 179.584 47.064 179.84C47.2773 180.096 47.5973 180.224 48.024 180.224C48.44 180.224 48.744 180.096 48.936 179.84C49.128 179.594 49.2293 179.226 49.24 178.736L49.256 177.248H46.76V178.736Z" fill="white"/>
</svg>
