<svg width="228" height="150" viewBox="0 0 228 150" fill="none" xmlns="http://www.w3.org/2000/svg">
<path d="M206.418 29C206.418 33.0972 203.097 36.4186 199 36.4186C194.903 36.4186 191.581 33.0972 191.581 29C191.581 24.9028 194.903 21.5814 199 21.5814C203.097 21.5814 206.418 24.9028 206.418 29Z" fill="#009055"/>
<path d="M206.418 7.4186C206.418 11.5158 203.097 14.8372 199 14.8372C194.903 14.8372 191.581 11.5158 191.581 7.4186C191.581 3.32142 194.903 0 199 0C203.097 0 206.418 3.32142 206.418 7.4186Z" fill="#009055"/>
<path d="M206.418 50.5814C206.418 54.6786 203.097 58 199 58C194.903 58 191.581 54.6786 191.581 50.5814C191.581 46.4842 194.903 43.1628 199 43.1628C203.097 43.1628 206.418 46.4842 206.418 50.5814Z" fill="#009055"/>
<path d="M184.837 29C184.837 33.0972 181.516 36.4186 177.419 36.4186C173.321 36.4186 170 33.0972 170 29C170 24.9028 173.321 21.5814 177.419 21.5814C181.516 21.5814 184.837 24.9028 184.837 29Z" fill="#009055"/>
<path d="M184.837 7.4186C184.837 11.5158 181.516 14.8372 177.419 14.8372C173.321 14.8372 170 11.5158 170 7.4186C170 3.32142 173.321 0 177.419 0C181.516 0 184.837 3.32142 184.837 7.4186Z" fill="#009055"/>
<path d="M184.837 50.5814C184.837 54.6786 181.516 58 177.419 58C173.321 58 170 54.6786 170 50.5814C170 46.4842 173.321 43.1628 177.419 43.1628C181.516 43.1628 184.837 46.4842 184.837 50.5814Z" fill="#009055"/>
<path d="M228 29C228 33.0972 224.678 36.4186 220.581 36.4186C216.484 36.4186 213.163 33.0972 213.163 29C213.163 24.9028 216.484 21.5814 220.581 21.5814C224.678 21.5814 228 24.9028 228 29Z" fill="#009055"/>
<path d="M228 7.4186C228 11.5158 224.678 14.8372 220.581 14.8372C216.484 14.8372 213.163 11.5158 213.163 7.4186C213.163 3.32142 216.484 0 220.581 0C224.678 0 228 3.32142 228 7.4186Z" fill="#009055"/>
<path d="M228 50.5814C228 54.6786 224.678 58 220.581 58C216.484 58 213.163 54.6786 213.163 50.5814C213.163 46.4842 216.484 43.1628 220.581 43.1628C224.678 43.1628 228 46.4842 228 50.5814Z" fill="#009055"/>
<rect width="150" height="150" fill="#009055"/>
<path d="M79.9067 149.416C74.4293 149.416 69.5413 147.925 65.2427 144.944C61.0133 141.893 57.72 137.595 55.3627 132.048C53.0053 126.432 51.8267 119.949 51.8267 112.6C51.8267 105.251 53.0053 98.8027 55.3627 93.256C57.72 87.64 61.0133 83.3413 65.2427 80.36C69.5413 77.3093 74.4293 75.784 79.9067 75.784C85.4533 75.784 90.3413 77.3093 94.5707 80.36C98.8 83.3413 102.093 87.64 104.451 93.256C106.808 98.8027 107.987 105.251 107.987 112.6C107.987 119.949 106.808 126.432 104.451 132.048C102.093 137.595 98.8 141.893 94.5707 144.944C90.3413 147.925 85.4533 149.416 79.9067 149.416ZM79.9067 146.192C84.76 146.192 89.0587 144.84 92.8027 142.136C96.5467 139.432 99.424 135.549 101.435 130.488C103.515 125.427 104.555 119.464 104.555 112.6C104.555 105.736 103.515 99.7733 101.435 94.712C99.424 89.6507 96.5467 85.768 92.8027 83.064C89.0587 80.36 84.76 79.008 79.9067 79.008C75.0533 79.008 70.7547 80.36 67.0107 83.064C63.336 85.768 60.4587 89.6507 58.3787 94.712C56.368 99.7733 55.3627 105.736 55.3627 112.6C55.3627 119.464 56.368 125.427 58.3787 130.488C60.4587 135.549 63.336 139.432 67.0107 142.136C70.7547 144.84 75.0533 146.192 79.9067 146.192Z" fill="white"/>
<path d="M136.722 76.2V149H133.29V79.424H114.986V76.2H136.722Z" fill="white"/>
<path d="M27.2 26.504L18.336 21.736C17.4827 21.2773 16.8373 20.7227 16.4 20.072C15.9627 19.432 15.744 18.7333 15.744 17.976C15.744 17.3893 15.872 16.7813 16.128 16.152L18.096 16.776C17.9573 17.224 17.888 17.5973 17.888 17.896C17.888 18.216 17.9627 18.504 18.112 18.76C18.272 19.016 18.5173 19.2507 18.848 19.464L18.976 19.56L27.2 15.144V17.912L21.184 20.888L27.2 23.96V26.504ZM22.56 34.6976V31.7856H16V29.3056H22.56V26.3936H24.608V34.6976H22.56ZM24.736 41.1001C24.736 41.9001 24.5493 42.6255 24.176 43.2761C23.8133 43.9375 23.296 44.4548 22.624 44.8281C21.9627 45.2015 21.1893 45.3881 20.304 45.3881C19.4187 45.3881 18.64 45.2015 17.968 44.8281C17.3067 44.4548 16.7893 43.9375 16.416 43.2761C16.0533 42.6255 15.872 41.9001 15.872 41.1001C15.872 40.0015 16.2187 39.1375 16.912 38.5081H12.896V36.0121H24.608V38.3961H23.616C24.3627 39.0148 24.736 39.9161 24.736 41.1001ZM17.92 40.6681C17.92 41.3081 18.1333 41.8308 18.56 42.2361C18.9973 42.6521 19.5787 42.8601 20.304 42.8601C21.0293 42.8601 21.6053 42.6521 22.032 42.2361C22.4693 41.8308 22.688 41.3081 22.688 40.6681C22.688 40.0281 22.4693 39.5001 22.032 39.0841C21.6053 38.6788 21.0293 38.4761 20.304 38.4761C19.5787 38.4761 18.9973 38.6788 18.56 39.0841C18.1333 39.5001 17.92 40.0281 17.92 40.6681ZM15.872 51.1695C15.872 50.2628 16.0587 49.4468 16.432 48.7215C16.816 48.0068 17.344 47.4468 18.016 47.0415C18.688 46.6362 19.4507 46.4335 20.304 46.4335C21.1573 46.4335 21.92 46.6362 22.592 47.0415C23.264 47.4468 23.7867 48.0068 24.16 48.7215C24.544 49.4468 24.736 50.2628 24.736 51.1695C24.736 52.0762 24.544 52.8868 24.16 53.6015C23.7867 54.3162 23.264 54.8762 22.592 55.2815C21.92 55.6868 21.1573 55.8895 20.304 55.8895C19.4507 55.8895 18.688 55.6868 18.016 55.2815C17.344 54.8762 16.816 54.3162 16.432 53.6015C16.0587 52.8868 15.872 52.0762 15.872 51.1695ZM17.92 51.1695C17.92 51.8095 18.1333 52.3322 18.56 52.7375C18.9973 53.1535 19.5787 53.3615 20.304 53.3615C21.0293 53.3615 21.6053 53.1535 22.032 52.7375C22.4693 52.3322 22.688 51.8095 22.688 51.1695C22.688 50.5295 22.4693 50.0015 22.032 49.5855C21.6053 49.1695 21.0293 48.9615 20.304 48.9615C19.5787 48.9615 18.9973 49.1695 18.56 49.5855C18.1333 50.0015 17.92 50.5295 17.92 51.1695Z" fill="white"/>
</svg>
