<svg width="228" height="150" viewBox="0 0 228 150" fill="none" xmlns="http://www.w3.org/2000/svg">
<path d="M206.418 29C206.418 33.0972 203.097 36.4186 199 36.4186C194.903 36.4186 191.581 33.0972 191.581 29C191.581 24.9028 194.903 21.5814 199 21.5814C203.097 21.5814 206.418 24.9028 206.418 29Z" fill="#009055"/>
<path d="M206.418 7.4186C206.418 11.5158 203.097 14.8372 199 14.8372C194.903 14.8372 191.581 11.5158 191.581 7.4186C191.581 3.32142 194.903 0 199 0C203.097 0 206.418 3.32142 206.418 7.4186Z" fill="#009055"/>
<path d="M206.418 50.5814C206.418 54.6786 203.097 58 199 58C194.903 58 191.581 54.6786 191.581 50.5814C191.581 46.4842 194.903 43.1628 199 43.1628C203.097 43.1628 206.418 46.4842 206.418 50.5814Z" fill="#009055"/>
<path d="M184.837 29C184.837 33.0972 181.516 36.4186 177.419 36.4186C173.321 36.4186 170 33.0972 170 29C170 24.9028 173.321 21.5814 177.419 21.5814C181.516 21.5814 184.837 24.9028 184.837 29Z" fill="#009055"/>
<path d="M184.837 7.4186C184.837 11.5158 181.516 14.8372 177.419 14.8372C173.321 14.8372 170 11.5158 170 7.4186C170 3.32142 173.321 0 177.419 0C181.516 0 184.837 3.32142 184.837 7.4186Z" fill="#009055"/>
<path d="M184.837 50.5814C184.837 54.6786 181.516 58 177.419 58C173.321 58 170 54.6786 170 50.5814C170 46.4842 173.321 43.1628 177.419 43.1628C181.516 43.1628 184.837 46.4842 184.837 50.5814Z" fill="#009055"/>
<path d="M228 29C228 33.0972 224.678 36.4186 220.581 36.4186C216.484 36.4186 213.163 33.0972 213.163 29C213.163 24.9028 216.484 21.5814 220.581 21.5814C224.678 21.5814 228 24.9028 228 29Z" fill="#009055"/>
<path d="M228 7.4186C228 11.5158 224.678 14.8372 220.581 14.8372C216.484 14.8372 213.163 11.5158 213.163 7.4186C213.163 3.32142 216.484 0 220.581 0C224.678 0 228 3.32142 228 7.4186Z" fill="#009055"/>
<path d="M228 50.5814C228 54.6786 224.678 58 220.581 58C216.484 58 213.163 54.6786 213.163 50.5814C213.163 46.4842 216.484 43.1628 220.581 43.1628C224.678 43.1628 228 46.4842 228 50.5814Z" fill="#009055"/>
<rect width="150" height="150" fill="#009055"/>
<path d="M57.9689 149.416C52.4916 149.416 47.6036 147.925 43.3049 144.944C39.0756 141.893 35.7822 137.595 33.4249 132.048C31.0676 126.432 29.8889 119.949 29.8889 112.6C29.8889 105.251 31.0676 98.8026 33.4249 93.2559C35.7822 87.6399 39.0756 83.3413 43.3049 80.3599C47.6036 77.3093 52.4916 75.7839 57.9689 75.7839C63.5156 75.7839 68.4036 77.3093 72.6329 80.3599C76.8623 83.3413 80.1556 87.6399 82.5129 93.2559C84.8702 98.8026 86.0489 105.251 86.0489 112.6C86.0489 119.949 84.8702 126.432 82.5129 132.048C80.1556 137.595 76.8623 141.893 72.6329 144.944C68.4036 147.925 63.5156 149.416 57.9689 149.416ZM57.9689 146.192C62.8223 146.192 67.1209 144.84 70.8649 142.136C74.6089 139.432 77.4862 135.549 79.4969 130.488C81.5769 125.427 82.6169 119.464 82.6169 112.6C82.6169 105.736 81.5769 99.7733 79.4969 94.7119C77.4862 89.6506 74.6089 85.7679 70.8649 83.0639C67.1209 80.3599 62.8223 79.0079 57.9689 79.0079C53.1156 79.0079 48.8169 80.3599 45.0729 83.0639C41.3983 85.7679 38.5209 89.6506 36.4409 94.7119C34.4302 99.7733 33.4249 105.736 33.4249 112.6C33.4249 119.464 34.4302 125.427 36.4409 130.488C38.5209 135.549 41.3983 139.432 45.0729 142.136C48.8169 144.84 53.1156 146.192 57.9689 146.192Z" fill="white"/>
<path d="M145.672 145.776V149H96.3758V146.504L127.576 115.096C131.805 110.867 134.648 107.261 136.104 104.28C137.629 101.229 138.392 98.1093 138.392 94.9199C138.392 89.9973 136.693 86.1146 133.296 83.2719C129.968 80.4293 125.184 79.0079 118.944 79.0079C114.09 79.0079 109.861 79.7359 106.256 81.1919C102.72 82.5786 99.6691 84.7626 97.1038 87.7439L94.7118 85.4559C100.328 79.0079 108.44 75.7839 119.048 75.7839C126.05 75.7839 131.597 77.4826 135.688 80.8799C139.778 84.2773 141.824 88.8879 141.824 94.7119C141.824 98.3866 140.992 101.923 139.328 105.32C137.664 108.717 134.578 112.669 130.072 117.176L101.68 145.776H145.672Z" fill="white"/>
<path d="M19.808 21.736C19.808 20.5733 20.0587 19.5227 20.56 18.584C21.0613 17.656 21.7493 16.9253 22.624 16.392C23.5093 15.8693 24.5013 15.608 25.6 15.608C26.6987 15.608 27.6853 15.8693 28.56 16.392C29.4453 16.9253 30.1387 17.656 30.64 18.584C31.1413 19.5227 31.392 20.5733 31.392 21.736C31.392 22.8987 31.1413 23.944 30.64 24.872C30.1387 25.8 29.4453 26.5307 28.56 27.064C27.6853 27.5973 26.6987 27.864 25.6 27.864C24.5013 27.864 23.5093 27.5973 22.624 27.064C21.7493 26.5307 21.0613 25.8 20.56 24.872C20.0587 23.944 19.808 22.8987 19.808 21.736ZM22.016 21.736C22.016 22.3973 22.1653 22.9947 22.464 23.528C22.7733 24.0613 23.2 24.4773 23.744 24.776C24.288 25.0853 24.9067 25.24 25.6 25.24C26.2933 25.24 26.912 25.0853 27.456 24.776C28 24.4773 28.4213 24.0613 28.72 23.528C29.0293 22.9947 29.184 22.3973 29.184 21.736C29.184 21.0747 29.0293 20.4773 28.72 19.944C28.4213 19.4107 28 18.9893 27.456 18.68C26.912 18.3813 26.2933 18.232 25.6 18.232C24.9067 18.232 24.288 18.3813 23.744 18.68C23.2 18.9893 22.7733 19.4107 22.464 19.944C22.1653 20.4773 22.016 21.0747 22.016 21.736ZM28.016 34.6448C28.016 35.4661 27.8453 36.1861 27.504 36.8048C27.1733 37.4234 26.704 37.8981 26.096 38.2288C25.488 38.5701 24.784 38.7408 23.984 38.7408C23.1627 38.7408 22.432 38.5381 21.792 38.1328C21.1627 37.7381 20.672 37.1834 20.32 36.4688C19.9787 35.7541 19.808 34.9434 19.808 34.0368C19.808 32.5328 20.288 31.3488 21.248 30.4848C22.2187 29.6314 23.6373 29.2048 25.504 29.2048C27.232 29.2048 28.608 29.5781 29.632 30.3248C30.6667 31.0821 31.344 32.2394 31.664 33.7968L32.48 37.8928L30.336 38.2288L29.616 34.6128C29.424 33.6314 29.104 32.9008 28.656 32.4208C28.208 31.9514 27.5733 31.6741 26.752 31.5888C27.1573 31.9621 27.4667 32.4101 27.68 32.9328C27.904 33.4554 28.016 34.0261 28.016 34.6448ZM21.744 34.0528C21.744 34.6928 21.952 35.2048 22.368 35.5888C22.784 35.9834 23.312 36.1808 23.952 36.1808C24.6027 36.1808 25.12 35.9834 25.504 35.5888C25.888 35.2048 26.08 34.6928 26.08 34.0528C26.08 33.4021 25.888 32.8794 25.504 32.4848C25.12 32.0901 24.6027 31.8928 23.952 31.8928C23.3013 31.8928 22.768 32.0954 22.352 32.5008C21.9467 32.9061 21.744 33.4234 21.744 34.0528ZM24.272 48.8024C24.24 48.8024 24.016 48.7864 23.6 48.7544V42.2424C23.0667 42.3597 22.6453 42.637 22.336 43.0744C22.0267 43.5117 21.872 44.0557 21.872 44.7064C21.872 45.1544 21.936 45.549 22.064 45.8904C22.2027 46.2424 22.416 46.5677 22.704 46.8664L21.264 48.1944C20.336 47.3837 19.872 46.1997 19.872 44.6424C19.872 43.6717 20.0587 42.813 20.432 42.0664C20.816 41.3197 21.344 40.7437 22.016 40.3384C22.688 39.933 23.4507 39.7304 24.304 39.7304C25.1467 39.7304 25.904 39.9277 26.576 40.3224C27.2587 40.7277 27.7867 41.277 28.16 41.9704C28.544 42.6744 28.736 43.4584 28.736 44.3224C28.736 45.165 28.5547 45.9277 28.192 46.6104C27.8293 47.293 27.3067 47.8264 26.624 48.2104C25.952 48.605 25.168 48.8024 24.272 48.8024ZM26.848 44.3384C26.848 43.773 26.688 43.2984 26.368 42.9144C26.048 42.5304 25.6107 42.2957 25.056 42.2104V46.4504C25.6 46.365 26.032 46.1304 26.352 45.7464C26.6827 45.3624 26.848 44.893 26.848 44.3384ZM22.048 60.2855H18.144V57.9655H20V51.9175H18.144V49.5975H22.048V49.9495C22.0587 50.4828 22.3733 50.8508 22.992 51.0535C23.6107 51.2562 24.4907 51.3842 25.632 51.4375L28.608 51.5495L28.608 59.0535H22.048V60.2855ZM25.456 53.6935C24.5813 53.6615 23.8667 53.5922 23.312 53.4855C22.7573 53.3895 22.336 53.2028 22.048 52.9255L22.048 56.5575H26.56L26.56 53.7415L25.456 53.6935Z" fill="white"/>
</svg>
