<svg width="128" height="128" viewBox="0 0 128 128" fill="none" xmlns="http://www.w3.org/2000/svg">
<circle cx="64" cy="64" r="64" fill="#C4C4C4" fill-opacity="0.2"/>
<circle cx="64" cy="64" r="64" fill="url(#paint0_radial)"/>
<path d="M63.9999 42.1884C64.8202 42.1884 65.4061 41.4861 65.4061 40.7838V30.2496C65.4061 29.5474 64.8202 28.8451 63.9999 28.8451C63.1797 28.8451 62.5937 29.5474 62.5937 30.2496V40.6668C62.5937 41.4861 63.1797 42.1884 63.9999 42.1884Z" fill="#647580"/>
<path d="M80.8743 46.7532C81.1087 46.8702 81.343 46.9873 81.5774 46.9873C82.0461 46.9873 82.5149 46.7532 82.8664 46.285L88.1397 37.2724C88.4912 36.5701 88.2568 35.7508 87.5537 35.2826C86.8506 34.8145 86.0304 35.1656 85.5616 35.8679L80.4056 44.7634C79.9368 45.3486 80.1712 46.285 80.8743 46.7532Z" fill="#647580"/>
<path d="M93.2957 59.043C93.5301 59.5112 93.9988 59.7453 94.5847 59.7453C94.8191 59.7453 95.0535 59.6283 95.2878 59.5112L104.311 54.2441C105.014 53.893 105.248 52.9566 104.897 52.2543C104.545 51.5521 103.608 51.318 102.905 51.6691L93.8816 56.9362C93.0613 57.4044 92.827 58.3408 93.2957 59.043Z" fill="#647580"/>
<path d="M33.5323 59.7453C34.0011 59.7453 34.4698 59.5112 34.8214 59.043C35.1729 58.3408 34.9385 57.5214 34.2354 57.0532L25.2123 51.7862C24.5092 51.435 23.689 51.6691 23.2202 52.3714C22.8687 53.0737 23.103 53.893 23.8061 54.3612L32.8292 59.6283C33.0636 59.6283 33.298 59.7453 33.5323 59.7453Z" fill="#647580"/>
<path d="M45.1335 46.1679C45.3678 46.6361 45.8366 46.8702 46.4225 46.8702C46.6568 46.8702 46.8912 46.7532 47.1256 46.6361C47.8287 46.285 48.063 45.3486 47.7115 44.6463L42.4383 35.6338C42.0867 34.9315 41.1492 34.6974 40.4461 35.0485C39.743 35.3997 39.5087 36.3361 39.8602 37.0383L45.1335 46.1679Z" fill="#647580"/>
<path d="M72.7887 43.3588C72.9059 43.3588 73.023 43.3588 73.1402 43.3588C73.7261 43.3588 74.3121 42.8906 74.5464 42.3054L75.9526 37.2724C76.187 36.4531 75.7183 35.7508 74.898 35.5167C74.0777 35.2826 73.3746 35.7508 73.1402 36.5701L71.734 41.6031C71.4997 42.3054 71.9684 43.1247 72.7887 43.3588Z" fill="#647580"/>
<path d="M87.9053 52.0203C88.1397 52.2543 88.6084 52.4884 88.9599 52.4884C89.3115 52.4884 89.663 52.3714 90.0146 52.0203L93.7645 48.2748C94.3504 47.6895 94.3504 46.7532 93.7645 46.285C93.1785 45.6998 92.2411 45.6998 91.7723 46.285L88.0225 50.0305C87.3194 50.6157 87.3194 51.435 87.9053 52.0203Z" fill="#647580"/>
<path d="M102.67 64.076L97.6315 65.4806C96.8112 65.7147 96.4597 66.417 96.5768 67.2363C96.694 67.9386 97.2799 68.2897 97.983 68.2897C98.1002 68.2897 98.2174 68.2897 98.3346 68.2897L103.373 66.8851C104.194 66.651 104.545 65.9488 104.428 65.1294C104.311 64.3101 103.491 63.8419 102.67 64.076Z" fill="#647580"/>
<path d="M25.3295 64.076C24.5092 63.8419 23.8061 64.3101 23.5718 65.1294C23.3374 65.9488 23.8061 66.651 24.6264 66.8851L29.6653 68.2897C29.7825 68.2897 29.8997 68.2897 30.0168 68.2897C30.7199 68.2897 31.1887 67.8215 31.423 67.2363C31.6574 66.417 31.1887 65.7147 30.3684 65.4806L25.3295 64.076Z" fill="#647580"/>
<path d="M38.1025 52.0203C38.3368 52.2543 38.8056 52.4884 39.1571 52.4884C39.5087 52.4884 39.8602 52.3714 40.2118 52.0203C40.7977 51.435 40.7977 50.4987 40.2118 50.0305L36.4619 46.285C35.876 45.6998 34.9385 45.6998 34.4698 46.285C33.8839 46.8702 33.8839 47.8066 34.4698 48.2748L38.1025 52.0203Z" fill="#647580"/>
<path d="M53.4535 42.3054C53.5706 43.0077 54.1566 43.3588 54.8597 43.3588C54.9768 43.3588 55.094 43.3588 55.2112 43.3588C56.0315 43.1247 56.383 42.4225 56.2659 41.6031L54.8597 36.5701C54.6253 35.7508 53.9222 35.3997 53.1019 35.5167C52.2816 35.7508 51.9301 36.4531 52.0473 37.2724L53.4535 42.3054Z" fill="#647580"/>
<path d="M109.467 74.4931H93.0614C92.3583 59.1601 79.5853 46.8702 63.9999 46.8702C48.4146 46.8702 35.7588 59.1601 34.9385 74.4931H18.5329C17.8298 74.4931 17.1267 75.0784 17.1267 75.8977C17.1267 76.717 17.8298 77.3023 18.5329 77.3023H109.467C110.287 77.3023 110.873 76.6 110.873 75.8977C110.873 75.0784 110.287 74.4931 109.467 74.4931ZM37.8681 74.4931C38.5712 60.6817 50.0552 49.7964 63.9999 49.7964C77.9447 49.7964 89.4287 60.7987 90.1318 74.4931H37.8681Z" fill="#647580"/>
<path d="M98.3346 79.292H96.1081C95.7566 79.292 95.5222 79.4091 95.2878 79.5261C95.0535 79.4091 94.7019 79.292 94.4675 79.292H89.7802C89.4287 79.292 89.0771 79.4091 88.8428 79.6432C88.6084 79.4091 88.2568 79.292 87.9053 79.292H29.3138C28.4935 79.292 27.9076 79.9943 27.9076 80.6966C27.9076 81.3989 28.6107 82.1012 29.3138 82.1012H87.9053C88.2568 82.1012 88.6084 81.9841 88.8428 81.75C89.0771 81.9841 89.4287 82.1012 89.7802 82.1012H94.4675C94.8191 82.1012 95.0535 81.9841 95.2878 81.8671C95.5222 81.9841 95.8737 82.1012 96.1081 82.1012H98.3346C99.1549 82.1012 99.7408 81.3989 99.7408 80.6966C99.7408 79.9943 99.0377 79.292 98.3346 79.292Z" fill="#647580"/>
<path d="M84.507 84.7932H47.4771C47.2428 84.7932 47.1256 84.7932 46.8912 84.9103C46.774 84.7932 46.5397 84.7932 46.3053 84.7932H43.3757C43.1414 84.7932 43.0242 84.7932 42.7898 84.9103C42.6726 84.7932 42.4383 84.7932 42.2039 84.7932H39.5087C38.6884 84.7932 38.1025 85.4955 38.1025 86.1978C38.1025 86.9001 38.8056 87.6023 39.5087 87.6023H42.2039C42.4383 87.6023 42.5554 87.6023 42.7898 87.4853C42.907 87.6023 43.1414 87.6023 43.3757 87.6023H46.3053C46.5397 87.6023 46.6568 87.6023 46.8912 87.4853C47.0084 87.6023 47.2428 87.6023 47.4771 87.6023H84.507C85.3273 87.6023 85.9132 86.9001 85.9132 86.1978C85.9132 85.4955 85.3273 84.7932 84.507 84.7932Z" fill="#647580"/>
<path d="M80.4056 90.2944H77.5932C77.476 90.2944 77.3588 90.2944 77.2416 90.2944C77.1245 90.2944 77.0073 90.2944 76.8901 90.2944H74.7808C74.6636 90.2944 74.5464 90.2944 74.3121 90.4114C74.1949 90.4114 74.0777 90.2944 73.8433 90.2944H46.6568C45.8366 90.2944 45.2507 90.9967 45.2507 91.6989C45.2507 92.4012 45.9538 93.1035 46.6568 93.1035H73.8433C73.9605 93.1035 74.0777 93.1035 74.3121 92.9865C74.4292 92.9865 74.5464 93.1035 74.7808 93.1035H76.8901C77.0073 93.1035 77.1245 93.1035 77.2416 93.1035C77.3588 93.1035 77.476 93.1035 77.5932 93.1035H80.4056C81.2259 93.1035 81.8118 92.4012 81.8118 91.6989C81.8118 90.9967 81.2259 90.2944 80.4056 90.2944Z" fill="#647580"/>
<path d="M73.9605 95.4444H57.0861C56.969 95.4444 56.969 95.4444 56.8518 95.4444C56.7346 95.4444 56.7346 95.4444 56.6174 95.4444H55.3284C55.2112 95.4444 55.2112 95.4444 55.094 95.4444C54.9768 95.4444 54.9768 95.4444 54.8597 95.4444H53.1019C52.2816 95.4444 51.6957 96.1467 51.6957 96.849C51.6957 97.5513 52.3988 98.2535 53.1019 98.2535H54.8597C54.9768 98.2535 54.9768 98.2535 55.094 98.2535C55.2112 98.2535 55.2112 98.2535 55.3284 98.2535H56.6174C56.7346 98.2535 56.7346 98.2535 56.8518 98.2535C56.969 98.2535 56.969 98.2535 57.0861 98.2535H73.9605C74.7808 98.2535 75.3667 97.5513 75.3667 96.849C75.3667 96.1467 74.7808 95.4444 73.9605 95.4444Z" fill="#647580"/>
<defs>
<radialGradient id="paint0_radial" cx="0" cy="0" r="1" gradientUnits="userSpaceOnUse" gradientTransform="translate(64 64) rotate(90) scale(64)">
<stop offset="0.223958" stop-color="white"/>
<stop offset="1" stop-color="white" stop-opacity="0"/>
</radialGradient>
</defs>
</svg>
