<svg width="128" height="128" viewBox="0 0 128 128" fill="none" xmlns="http://www.w3.org/2000/svg">
<circle cx="64" cy="64" r="64" fill="#C4C4C4" fill-opacity="0.2"/>
<circle cx="64" cy="64" r="64" fill="url(#paint0_radial)"/>
<path d="M69.3265 30.014C68.8549 29.6616 68.1475 29.8965 67.7937 30.4838C67.44 31.071 67.6758 31.7757 68.2654 32.1281C70.9771 33.655 73.3351 36.004 74.8679 38.7054C75.2216 39.2927 75.929 39.4101 76.5185 39.1752C77.108 38.8229 77.2259 38.1181 76.9901 37.5309C75.1037 34.3597 72.5098 31.7757 69.3265 30.014Z" fill="#647580"/>
<path d="M83.4747 70.5349V43.5209C83.4747 32.4804 74.5142 23.4366 63.5493 23.4366C52.5844 23.4366 43.6238 32.4804 43.6238 43.6384V69.8302L45.9819 68.7731V43.6384C45.864 33.7724 53.7634 25.7857 63.5493 25.7857C73.3351 25.7857 81.1167 33.7724 81.1167 43.6384V69.4778L83.4747 70.5349Z" fill="#647580"/>
<path d="M51.7591 79.931C51.2875 79.4612 50.5801 79.4612 50.1084 79.931C48.222 81.8103 47.3967 83.807 47.3967 85.9211L42.7985 96.6092C42.5627 97.1965 42.7985 97.9012 43.388 98.1361C43.9775 98.371 44.685 98.1361 44.9208 97.5488L48.4578 89.4446C48.8115 90.0319 49.2831 90.6192 49.7547 91.2064V97.079C49.7547 97.6663 50.2263 98.2535 50.9338 98.2535C51.6412 98.2535 52.1128 97.7837 52.1128 97.079V90.6192C52.1128 90.2668 51.9949 89.9145 51.7591 89.797C51.7591 89.797 49.8726 88.0352 49.7547 85.8036C49.7547 84.3942 50.3442 82.9848 51.7591 81.5754C52.2307 81.1056 52.2307 80.2834 51.7591 79.931Z" fill="#647580"/>
<path d="M41.9732 73.4712L32.541 96.6092C32.3052 97.1965 32.541 97.9012 33.1306 98.1361C33.7201 98.371 34.4275 98.1361 34.6633 97.5488L43.9775 74.7632L52.5844 71.1221C53.5276 74.6457 58.0079 77.2296 63.5493 77.2296C68.8549 77.2296 73.2172 74.7632 74.3963 71.4745L83.0031 75.5853L92.4353 97.5488C92.6711 98.1361 93.3785 98.371 93.968 98.1361C94.5575 97.9012 94.7933 97.1965 94.5575 96.6092L84.8895 74.1759C84.7716 73.941 84.5358 73.7061 84.3 73.5886L73.9247 68.6557L72.5098 67.9509C71.3308 67.4811 70.5055 66.4241 70.2697 65.1321L69.4444 61.6085C70.7413 60.7864 71.9203 59.7293 72.8635 58.5548V65.4844C72.9814 65.7194 73.2172 65.8368 73.453 65.9543H73.5709L75.2216 66.7764V50.5681C75.2216 46.5747 72.274 43.286 68.737 43.1686C64.1388 42.4639 63.5493 34.4771 63.4314 34.3597C63.4314 33.7724 62.8419 33.1852 62.1345 33.3026C61.5449 33.3026 60.9554 33.8899 61.0733 34.5946C61.1912 35.5342 61.3091 36.4738 61.5449 37.4134H58.1258C54.5887 37.4134 51.6412 40.7021 51.6412 44.578V66.1892L53.1739 65.6019C53.5276 65.4845 53.8813 65.1321 53.9992 64.7797V58.3199C54.8245 59.4944 56.0035 60.434 57.1826 61.2562L56.3573 64.7797C56.1214 66.0717 55.1782 67.2462 53.8813 67.716L52.9381 68.0684C52.8202 68.0684 52.8202 68.0684 52.7023 68.1858L42.5627 72.7665C42.3269 72.8839 42.0911 73.1188 41.9732 73.4712ZM54.1171 51.5077V44.6955C54.1171 41.9941 56.0035 39.7625 58.2437 39.7625H62.3703C63.4314 42.3464 65.1999 45.0478 68.5012 45.5176H68.6191C70.9771 45.5176 72.8635 47.7492 72.8635 50.5681V51.5077C72.8635 56.6756 68.6191 60.9038 63.4314 60.9038C58.2437 60.9038 54.1171 56.6756 54.1171 51.5077ZM54.9424 70.0651C56.9468 69.2429 58.3616 67.5986 58.8332 65.4844L59.5406 62.4307C62.0165 63.3703 64.7283 63.3703 67.3221 62.5481L68.0296 65.6019C68.5012 67.5986 69.7981 69.2429 71.6845 70.0651L72.3919 70.4174C71.8024 72.8839 68.0296 74.8806 63.6672 74.8806C59.1869 74.8806 55.414 72.7665 54.9424 70.1825V70.0651Z" fill="#647580"/>
<path d="M56.4752 89.4446C55.8856 89.4446 55.2961 89.9145 55.2961 90.6192C55.2961 91.2064 55.7677 91.7937 56.4752 91.7937H70.5055C71.095 91.7937 71.6845 91.3239 71.6845 90.6192C71.6845 90.0319 71.2129 89.4446 70.5055 89.4446H56.4752Z" fill="#647580"/>
<path d="M75.3395 89.797C75.1037 90.0319 74.9858 90.3843 74.9858 90.6192V97.079C74.9858 97.6663 75.4574 98.2535 76.1648 98.2535C76.7543 98.2535 77.3438 97.7837 77.3438 97.079V91.2064C77.9333 90.6192 78.4049 89.9145 78.7586 89.0923L82.4136 97.5488C82.6494 98.1361 83.3568 98.371 83.9463 98.1361C84.5358 97.9012 84.7716 97.1965 84.5358 96.6092L79.5839 85.0989C79.3481 83.1022 78.4049 81.223 76.8722 79.8136C76.4006 79.3438 75.6932 79.3438 75.2216 79.8136C74.75 80.2834 74.75 80.9881 75.2216 81.4579C76.6364 82.8673 77.2259 84.2768 77.2259 85.6862C77.2259 88.0352 75.3395 89.797 75.3395 89.797Z" fill="#647580"/>
<defs>
<radialGradient id="paint0_radial" cx="0" cy="0" r="1" gradientUnits="userSpaceOnUse" gradientTransform="translate(64 64) rotate(90) scale(64)">
<stop offset="0.223958" stop-color="white"/>
<stop offset="1" stop-color="white" stop-opacity="0"/>
</radialGradient>
</defs>
</svg>
