<svg width="128" height="128" viewBox="0 0 128 128" fill="none" xmlns="http://www.w3.org/2000/svg">
<circle cx="64" cy="64" r="64" fill="#C4C4C4" fill-opacity="0.2"/>
<circle cx="64" cy="64" r="64" fill="url(#paint0_radial)"/>
<path d="M58.4927 71.031C55.4141 71.031 52.3356 69.8592 49.9674 67.5155L31.4958 49.235C26.7595 44.5476 26.7595 37.0479 31.4958 32.3606C36.2321 27.6733 43.8102 27.6733 48.5465 32.3606L67.0181 50.6411C71.7544 55.3285 71.7544 62.8282 67.0181 67.5155C64.6499 69.8592 61.5713 71.031 58.4927 71.031ZM40.0212 31.1888C37.5346 31.1888 35.0481 32.1262 33.1535 34.0011C29.3645 37.751 29.3645 43.8445 33.1535 47.5944L51.6251 65.875C55.4141 69.6248 61.5713 69.6248 65.3604 65.875C69.1494 62.1251 69.1494 56.0316 65.3604 52.2817L46.8888 34.0011C44.9943 32.1262 42.5077 31.1888 40.0212 31.1888Z" fill="#647580"/>
<path d="M63.4659 64C63.229 64 62.9922 63.8828 62.7554 63.7657C62.2818 63.4141 62.1634 62.5938 62.5186 62.1251C63.9395 60.133 63.7027 57.3206 62.045 55.5628L58.1375 51.6958C57.6639 51.2271 57.6639 50.524 58.1375 50.0552C58.6112 49.5865 59.3216 49.5865 59.7952 50.0552L63.7027 53.9223C66.1892 56.3831 66.5445 60.6017 64.4131 63.5313C64.1763 63.8828 63.8211 64 63.4659 64Z" fill="#647580"/>
<path d="M39.5475 50.1724C39.1923 50.1724 38.9555 50.0552 38.7187 49.8209L34.8112 45.9538C33.3903 44.5476 32.6799 42.6727 32.6799 40.7978C32.6799 39.04 33.1535 37.5166 34.1008 36.3448C34.456 35.8761 35.2849 35.7589 35.7585 36.1104C36.2321 36.462 36.3505 37.2823 35.9953 37.751C35.4033 38.5713 35.0481 39.5088 35.0481 40.7978C35.0481 42.0868 35.5217 43.3758 36.4689 44.3133L40.3764 48.1803C40.85 48.649 40.85 49.3521 40.3764 49.8209C40.1396 50.0552 39.9028 50.1724 39.5475 50.1724Z" fill="#647580"/>
<path d="M74.833 99.155C72.8201 99.155 70.8071 98.6862 69.031 97.6316C66.3076 96.1082 64.4131 93.6473 63.5843 90.6006C62.7554 87.671 63.229 84.5071 64.7683 81.8119L77.3195 60.3673C78.8588 57.6721 81.3454 55.7972 84.424 54.9769C87.3842 54.1566 90.5812 54.6254 93.3046 56.1488C96.0279 57.6721 97.9224 60.133 98.7513 63.1797C99.5802 66.1093 99.1065 69.2733 97.5672 71.9685L84.8976 93.413C83.3583 96.1082 80.8718 97.9831 77.7932 98.8034C76.8459 99.0378 75.7802 99.155 74.833 99.155ZM87.3842 56.969C86.5553 56.969 85.7265 57.0862 85.016 57.3206C82.6479 57.9065 80.635 59.4299 79.3325 61.5392L66.7813 83.1009C65.5972 85.2102 65.242 87.671 65.834 90.0147C66.426 92.3583 67.9653 94.3504 70.0967 95.6395C72.228 96.8113 74.7146 97.1628 77.0827 96.5769C79.4509 95.991 81.4638 94.4676 82.7663 92.3583L95.3175 70.9138C96.5016 68.8045 96.8568 66.3437 96.2647 64C95.6727 61.6564 94.1334 59.6642 92.0021 58.3752C90.5812 57.3206 88.9235 56.969 87.3842 56.969Z" fill="#647580"/>
<path d="M74.833 94.4676C74.1225 94.4676 73.6489 93.9989 73.6489 93.2958C73.6489 92.5927 74.1225 92.124 74.833 92.124C76.4907 92.124 77.9116 91.3037 78.7404 89.8975L82.6479 84.3899C83.0031 83.804 83.7135 83.6868 84.3056 84.1555C84.8976 84.5071 85.016 85.2102 84.5424 85.7961L80.7534 91.1865C79.5693 93.1786 77.2011 94.4676 74.833 94.4676Z" fill="#647580"/>
<path d="M78.8588 69.8592C78.622 69.8592 78.3852 69.742 78.2668 69.6248C77.6748 69.2733 77.5564 68.5702 77.9116 67.9842L81.4638 62.5938C82.6479 60.4845 84.7792 59.1955 87.1474 59.1955C87.8578 59.1955 88.3314 59.6642 88.3314 60.3673C88.3314 61.0704 87.8578 61.5392 87.1474 61.5392C85.6081 61.5392 84.3056 62.3595 83.4767 63.7657L79.9245 69.1561C79.5693 69.6248 79.2141 69.8592 78.8588 69.8592Z" fill="#647580"/>
<path d="M89.5155 82.7493C89.2787 82.7493 89.1603 82.7493 88.9235 82.6321L72.3464 73.2575C71.7544 72.9059 71.636 72.2028 71.8728 71.6169C72.1096 71.031 72.9385 70.9138 73.5305 71.1482L90.1076 80.5228C90.6996 80.8744 90.818 81.5775 90.5812 82.1634C90.3444 82.515 89.8707 82.7493 89.5155 82.7493Z" fill="#647580"/>
<path d="M42.1525 58.1409C41.7973 58.1409 41.5605 58.0237 41.3237 57.7893C40.85 57.3206 40.85 56.6175 41.3237 56.1488L55.5326 42.0868C56.0062 41.6181 56.7166 41.6181 57.1903 42.0868C57.6639 42.5555 57.6639 43.2586 57.1903 43.7273L42.9814 57.7893C42.7445 58.0237 42.5077 58.1409 42.1525 58.1409Z" fill="#647580"/>
<defs>
<radialGradient id="paint0_radial" cx="0" cy="0" r="1" gradientUnits="userSpaceOnUse" gradientTransform="translate(64 64) rotate(90) scale(64)">
<stop offset="0.223958" stop-color="white"/>
<stop offset="1" stop-color="white" stop-opacity="0"/>
</radialGradient>
</defs>
</svg>
