<svg width="128" height="128" viewBox="0 0 128 128" fill="none" xmlns="http://www.w3.org/2000/svg">
<circle cx="64" cy="64" r="64" fill="#C4C4C4" fill-opacity="0.2"/>
<circle cx="64" cy="64" r="64" fill="url(#paint0_radial)"/>
<path d="M63.2849 96.1243C63.8139 96.1243 64.3429 96.5501 64.3429 97.1889C64.3429 97.7213 63.9197 98.2536 63.2849 98.2536C44.7701 98.1471 29.7466 83.029 29.7466 64.3975C29.7466 45.7661 44.7701 30.6479 63.2849 30.6479C63.8139 30.6479 64.3429 31.0738 64.3429 31.7126C64.3429 32.3514 63.9197 32.7773 63.2849 32.7773C45.9338 32.6708 31.7568 46.9372 31.7568 64.3975C31.7568 81.8579 45.9338 96.1243 63.2849 96.1243Z" fill="#647580"/>
<path d="M73.1493 33.1446C73.361 32.3494 72.8921 31.5322 72.102 31.3191C71.3118 31.1061 70.4997 31.5779 70.288 32.3731C70.0762 33.1682 70.5452 33.9855 71.3353 34.1985C72.1254 34.4115 72.9376 33.9397 73.1493 33.1446Z" fill="#647580"/>
<path d="M80.8729 36.8061C81.282 36.0932 81.0393 35.1817 80.3308 34.7701C79.6224 34.3585 78.7165 34.6027 78.3075 35.3156C77.8985 36.0285 78.1412 36.9401 78.8496 37.3517C79.5581 37.7633 80.4639 37.519 80.8729 36.8061Z" fill="#647580"/>
<path d="M87.4074 42.3094C87.9858 41.7274 87.9858 40.7836 87.4074 40.2015C86.829 39.6195 85.8911 39.6195 85.3127 40.2015C84.7343 40.7836 84.7343 41.7274 85.3127 42.3094C85.8911 42.8915 86.829 42.8915 87.4074 42.3094Z" fill="#647580"/>
<path d="M92.1532 49.3231C92.8617 48.9115 93.1044 47.9999 92.6954 47.287C92.2863 46.5741 91.3805 46.3299 90.6721 46.7415C89.9636 47.1531 89.7209 48.0647 90.1299 48.7775C90.539 49.4904 91.4448 49.7347 92.1532 49.3231Z" fill="#647580"/>
<path d="M95.1015 57.431C95.8916 57.218 96.3605 56.4007 96.1488 55.6056C95.9371 54.8105 95.1249 54.3386 94.3348 54.5516C93.5447 54.7647 93.0757 55.582 93.2875 56.3771C93.4992 57.1722 94.3113 57.6441 95.1015 57.431Z" fill="#647580"/>
<path d="M95.871 65.8881C96.6891 65.8881 97.3522 65.2207 97.3522 64.3975C97.3522 63.5743 96.6891 62.907 95.871 62.907C95.053 62.907 94.3898 63.5743 94.3898 64.3975C94.3898 65.2207 95.053 65.8881 95.871 65.8881Z" fill="#647580"/>
<path d="M96.1777 73.3017C96.3895 72.5066 95.9205 71.6893 95.1304 71.4763C94.3403 71.2632 93.5281 71.7351 93.3164 72.5302C93.1047 73.3253 93.5736 74.1426 94.3637 74.3556C95.1539 74.5687 95.966 74.0968 96.1777 73.3017Z" fill="#647580"/>
<path d="M92.7422 81.5796C93.1512 80.8667 92.9085 79.9551 92.2001 79.5435C91.4917 79.1319 90.5858 79.3762 90.1768 80.0891C89.7678 80.8019 90.0105 81.7135 90.7189 82.1251C91.4273 82.5367 92.3332 82.2925 92.7422 81.5796Z" fill="#647580"/>
<path d="M87.413 88.6187C87.9914 88.0366 87.9914 87.0929 87.413 86.5108C86.8345 85.9287 85.8967 85.9287 85.3183 86.5108C84.7398 87.0929 84.7398 88.0366 85.3183 88.6187C85.8967 89.2008 86.8345 89.2008 87.413 88.6187Z" fill="#647580"/>
<path d="M80.2906 94.0091C80.999 93.5975 81.2418 92.686 80.8327 91.9731C80.4237 91.2602 79.5179 91.0159 78.8094 91.4275C78.101 91.8391 77.8583 92.7507 78.2673 93.4636C78.6763 94.1765 79.5822 94.4207 80.2906 94.0091Z" fill="#647580"/>
<path d="M72.1234 97.4501C72.9136 97.2371 73.3825 96.4198 73.1708 95.6247C72.9591 94.8296 72.1469 94.3577 71.3568 94.5708C70.5666 94.7838 70.0977 95.6011 70.3094 96.3962C70.5211 97.1913 71.3333 97.6632 72.1234 97.4501Z" fill="#647580"/>
<path d="M64.3429 37.7811C63.8139 37.7811 63.2849 38.207 63.2849 38.8458V63.4393C63.2849 63.5458 63.2849 63.6523 63.3907 63.7587C63.3907 63.8652 63.2849 63.9717 63.2849 64.0781V88.6717C63.2849 89.204 63.7081 89.7363 64.3429 89.7363C64.8719 89.7363 65.4009 89.3105 65.4009 88.6717V38.8458C65.2951 38.3135 64.8719 37.7811 64.3429 37.7811Z" fill="#647580"/>
<defs>
<radialGradient id="paint0_radial" cx="0" cy="0" r="1" gradientUnits="userSpaceOnUse" gradientTransform="translate(64 64) rotate(90) scale(64)">
<stop offset="0.223958" stop-color="white"/>
<stop offset="1" stop-color="white" stop-opacity="0"/>
</radialGradient>
</defs>
</svg>
