<svg width="105" height="20" viewBox="0 0 105 20" fill="none" xmlns="http://www.w3.org/2000/svg">
<path d="M3.92499 0.132412C7.28709 0.0954607 10.6461 0.0831435 14.0082 0.0800642C15.6663 0.0985399 17.6456 0.535797 18.4563 2.16781C19.3282 4.11392 18.8234 6.63277 17.1959 8.03076C16.529 8.61582 15.6938 8.93915 14.8984 9.30558C15.9569 9.88141 17.1347 10.5065 17.5875 11.7074C18.3493 13.7551 17.7191 16.2463 16.0457 17.6597C14.2254 19.2209 11.7321 19.6273 9.41325 19.6827C6.27448 19.7197 3.13571 19.7413 0 19.7166C1.2757 13.1824 2.5361 6.64508 3.92499 0.132412ZM7.65725 3.88605C7.36968 5.16087 7.08823 6.44185 6.94751 7.74131C8.84117 7.67356 10.8113 8.02768 12.6469 7.44262C14.1336 7.05155 14.4824 4.57273 12.9467 4.02462C11.2243 3.59044 9.41325 3.85834 7.65725 3.88605ZM6.14905 11.5442C5.82477 13.0069 5.48214 14.4665 5.27411 15.9537C7.23508 15.9168 9.22664 16.1385 11.1692 15.7905C12.4572 15.5627 13.4484 14.1955 13.0231 12.896C12.8824 11.9106 11.8209 11.5473 10.9612 11.5165C9.35818 11.4426 7.75209 11.4949 6.14905 11.5442Z" fill="#009055"/>
<path d="M23.2442 3.21785C23.4277 2.13394 23.6755 1.06235 23.957 0C25.3183 0.0215549 26.6797 0 28.0441 0C27.8483 1.07467 27.625 2.14318 27.3864 3.20861C26.0036 3.24556 24.6239 3.25172 23.2442 3.21785Z" fill="#009055"/>
<path d="M96.693 4.55424C98.8804 4.32329 101.352 4.46186 103.117 5.94299C104.577 7.14699 105.051 9.14852 104.996 10.9715C104.977 13.7028 103.668 16.4187 101.453 18.0199C99.1557 19.692 96.1026 20.0368 93.389 19.4056C91.633 19.0114 90.0484 17.7151 89.5405 15.9476C88.5218 12.5912 89.6354 8.62504 92.3275 6.36793C93.5634 5.34869 95.1145 4.75439 96.693 4.55424ZM96.7144 7.39333C94.7015 8.02766 93.854 10.2694 93.591 12.1939C93.3676 13.6812 93.334 15.6027 94.732 16.5388C96.0903 17.2686 97.9198 16.9606 98.9721 15.8275C100.064 14.7066 100.462 13.1054 100.639 11.5935C100.713 10.4911 100.792 9.25937 100.129 8.31096C99.3974 7.23629 97.8769 7.03922 96.7144 7.39333Z" fill="#009055"/>
<path d="M48.2778 5.13009C50.5783 4.59738 53.1144 4.46805 55.3446 5.37028C56.7794 5.95226 57.5473 7.60583 57.223 9.10852C56.7519 11.6859 56.1125 14.2294 55.6138 16.8006C55.4395 17.6628 55.4762 18.5434 55.5221 19.4149C54.2158 19.4241 52.9064 19.4518 51.6001 19.4241C51.5236 18.9807 51.4472 18.5373 51.3707 18.0969C50.0369 19.1439 48.4675 19.9814 46.736 19.9968C45.2736 20.0307 43.5146 19.809 42.6244 18.4911C41.5077 16.6374 42.092 13.9461 43.9276 12.7852C46.1884 11.2733 49.0212 11.458 51.5695 10.8853C52.9156 10.7128 53.4173 8.84062 52.5668 7.87681C51.6215 7.31638 50.4223 7.43647 49.4525 7.86757C48.6908 8.2648 48.3206 9.09928 47.8679 9.78596C46.4759 9.83215 45.0809 9.84139 43.689 9.79212C44.2825 7.55348 46.0232 5.6936 48.2778 5.13009ZM47.8036 13.9091C46.7023 14.3125 45.9344 15.7906 46.7176 16.819C48.1279 17.5919 50.0736 17.2378 51.0739 15.9538C51.8479 15.0762 52.1416 13.9091 52.4108 12.7975C50.869 13.127 49.2721 13.3117 47.8036 13.9091Z" fill="#009055"/>
<path d="M61.668 5.25635C63.0232 5.19168 64.3846 5.18552 65.7429 5.22247C65.5471 7.00538 65.0546 8.73593 64.8006 10.5096C66.4893 10.5743 68.1841 10.5342 69.8759 10.5065C70.3134 8.74825 70.6468 6.96842 71.0292 5.19784C72.412 5.15473 73.7917 5.15165 75.1745 5.17013C74.22 9.85679 73.2104 14.5342 72.2499 19.2209C70.8854 19.3625 69.5118 19.3564 68.1444 19.341C68.4136 17.3148 68.9795 15.3441 69.2824 13.321C67.5692 13.3148 65.8591 13.3117 64.149 13.361C63.7115 15.3564 63.32 17.361 62.8825 19.3594C61.5089 19.3964 60.1353 19.3964 58.7617 19.3964C59.6948 14.6759 60.7227 9.9738 61.668 5.25635Z" fill="#009055"/>
<path d="M78.6711 5.1886C82.2595 4.99152 85.8541 5.09622 89.4457 5.05619C89.2499 5.97073 89.0449 6.88528 88.8308 7.79674C86.6495 7.88604 84.4683 7.77519 82.2901 7.91068C81.4366 11.6612 80.6718 15.4303 79.8978 19.1962C78.5242 19.2547 77.1476 19.2517 75.7709 19.2209C76.6673 14.5311 77.7258 9.87218 78.6711 5.1886Z" fill="#009055"/>
<path d="M22.7728 5.51805C24.1403 5.44107 25.5108 5.43491 26.8814 5.48726C26.0615 10.1986 25.0122 14.8729 24.0546 19.5596C22.6841 19.6519 21.3105 19.6519 19.94 19.615C20.8394 14.9099 21.8489 10.2232 22.7728 5.51805Z" fill="#009055"/>
<path d="M29.0719 5.47187C33.5812 5.30251 38.0997 5.37641 42.6151 5.34562C42.4377 6.26325 42.2511 7.17779 42.0431 8.08618C40.4829 8.11697 38.9227 8.09234 37.3655 8.1724C36.5518 11.9507 35.8328 15.7474 35.016 19.5257C33.6394 19.538 32.2627 19.5442 30.883 19.5257C31.608 15.732 32.4922 11.9691 33.1652 8.16624C31.6447 8.13545 30.1212 8.16316 28.6008 8.13545C28.7385 7.24554 28.9006 6.3587 29.0719 5.47187Z" fill="#009055"/>
</svg>
