<svg width="46" height="46" viewBox="0 0 46 46" fill="none" xmlns="http://www.w3.org/2000/svg">
<path d="M43.6833 12.1296C43.6833 11.6901 44.0334 11.3385 44.4711 11.3385C44.9088 11.3385 45.259 11.6901 45.0839 12.1296V41.5748C45.0839 43.6843 43.4206 45.3543 41.3196 45.3543H3.76407C1.66306 45.3543 -0.000244141 43.6843 -0.000244141 41.5748V12.1296C-0.000244141 11.6901 0.349924 11.3385 0.787634 11.3385C1.22535 11.3385 1.57551 11.6901 1.57551 12.1296V41.5748C1.57551 42.8053 2.62602 43.8601 3.85161 43.8601H21.7977V42.1022L21.7526 42.0857C20.7624 41.7239 18.4296 40.8716 15.7573 40.8716C9.87133 40.8716 5.11103 42.0725 4.12548 42.3211C4.01168 42.3498 3.94821 42.3659 3.93915 42.3659H3.76407C3.6359 42.3659 3.55464 42.3188 3.45161 42.259C3.4139 42.2372 3.37327 42.2136 3.32635 42.1901C3.15127 42.0143 3.06373 41.8385 3.06373 41.5748V8.35001C3.06373 7.99843 3.23881 7.73474 3.58898 7.64684C3.85161 7.55895 9.01659 6.06471 15.8449 6.06471C19.6967 6.06471 22.8482 7.55895 22.9358 7.64684C23.1984 7.82263 23.3735 8.08632 23.3735 8.35001V37.2679C25.6496 35.9494 30.9897 32.961 36.1546 31.203V1.93359C31.6363 3.73382 27.2943 6.30097 25.8241 7.17017C25.4998 7.36192 25.3152 7.47105 25.2994 7.47105C24.9492 7.64684 24.5115 7.55895 24.2489 7.20736C24.0738 6.85578 24.1614 6.41629 24.5115 6.15261C24.5263 6.15261 24.7104 6.0451 25.0352 5.85539C26.6366 4.92024 31.6582 1.98764 36.6799 0.0877643C36.9425 -0.000131927 37.2051 -0.00013192 37.3802 0.175661C37.6429 0.351453 37.7304 0.527246 37.7304 0.790934V31.8183C37.7304 32.1699 37.5553 32.4336 37.2051 32.5215C30.6395 34.8068 23.1984 39.2016 23.1109 39.2895C22.8482 39.3774 22.5856 39.4653 22.323 39.2895C22.1479 39.2016 21.9728 38.9379 21.9728 38.6742V8.96529L21.9277 8.9488C20.9375 8.58703 18.6047 7.73474 15.9324 7.73474C10.5923 7.73474 6.1277 8.7016 4.63949 9.05318V40.6958C6.47787 40.2563 10.7674 39.3774 15.9324 39.3774C19.1715 39.3774 21.8853 40.4321 22.7607 40.7837C23.8112 40.4321 27.0503 39.3774 30.2893 39.3774C35.2792 39.3774 39.1311 40.1685 40.7944 40.6079V8.96529C40.5317 8.96529 40.1816 8.87739 39.8314 8.78949C39.3937 8.7016 39.1311 8.35001 39.2186 7.91053C39.3062 7.47105 39.6563 7.20736 40.094 7.29526C41.057 7.47105 41.6698 7.64684 41.6698 7.64684C42.02 7.64684 42.2826 7.99843 42.2826 8.35001V41.5748C42.2826 41.8385 42.1075 42.0143 41.9324 42.1901C41.8985 42.2014 41.866 42.2128 41.8346 42.2238C41.6231 42.2977 41.4608 42.3545 41.2321 42.278C41.2321 42.278 36.7674 40.7837 30.2018 40.7837C27.6394 40.7837 25.077 41.5927 23.7876 41.9997C23.6673 42.0377 23.5581 42.0722 23.461 42.1022V43.8601H41.4072C42.6328 43.8601 43.6833 42.8053 43.6833 41.5748V12.1296Z" fill="#353738"/>
<path d="M26.4375 12.8328C26.525 12.8328 26.7001 12.8328 26.7876 12.7449C26.8098 12.7449 27.1065 12.5987 27.5729 12.3687C28.9501 11.6897 31.8062 10.2817 33.4408 9.75647C33.8785 9.66858 34.0536 9.22909 33.9661 8.78961C33.8785 8.35013 33.4408 8.17434 33.0031 8.26223C31.2721 8.797 28.326 10.2468 26.8986 10.9493C26.4491 11.1705 26.1502 11.3176 26.0873 11.3386C25.7371 11.5144 25.562 11.9539 25.7371 12.3934C25.9122 12.7449 26.1748 12.8328 26.4375 12.8328Z" fill="#353738"/>
<path d="M25.7371 21.5346C25.9122 21.7983 26.1748 21.974 26.4375 21.974C26.525 21.974 26.7001 21.974 26.7876 21.8862C26.8098 21.8862 27.1065 21.7398 27.573 21.5099C28.9502 20.8309 31.8062 19.4229 33.4408 18.8977C33.8785 18.8098 34.0536 18.3703 33.9661 17.9308C33.8785 17.4913 33.4408 17.3155 33.0031 17.4034C31.2721 17.9382 28.326 19.388 26.8986 20.0905C26.4491 20.3117 26.1502 20.4588 26.0873 20.4798C25.7371 20.6556 25.562 21.183 25.7371 21.5346Z" fill="#353738"/>
<path d="M25.7371 16.964C25.9122 17.2277 26.1748 17.4035 26.4375 17.4035C26.525 17.4035 26.7001 17.4035 26.7876 17.3156C26.8098 17.3156 27.1067 17.1692 27.5735 16.9391C28.9507 16.2601 31.8062 14.8523 33.4408 14.3271C33.8785 14.2392 34.0536 13.7997 33.9661 13.3602C33.8785 12.9207 33.4408 12.745 33.0031 12.8328C31.2722 13.3676 28.326 14.8174 26.8986 15.5199C26.4491 15.7411 26.1502 15.8882 26.0873 15.9092C25.7371 16.1729 25.562 16.6124 25.7371 16.964Z" fill="#353738"/>
<path d="M26.4375 26.4568C26.1748 26.4568 25.9122 26.281 25.7371 26.0173C25.562 25.6657 25.7371 25.2262 26.0873 24.9625C26.1502 24.9415 26.4491 24.7944 26.8986 24.5732C28.326 23.8708 31.2721 22.4209 33.0031 21.8862C33.4408 21.7983 33.8785 21.9741 33.9661 22.4135C34.0536 22.853 33.8785 23.2925 33.4408 23.3804C31.8062 23.9056 28.9507 25.3134 27.5735 25.9924C27.1068 26.2224 26.8098 26.3689 26.7876 26.3689C26.7001 26.4568 26.525 26.4568 26.4375 26.4568Z" fill="#353738"/>
<path d="M18.296 14.0634C13.6563 13.0086 8.40379 14.3271 8.14116 14.415C7.70345 14.5029 7.52837 14.9424 7.61591 15.3818C7.70345 15.7334 8.05362 15.9092 8.31625 15.9092H8.49133C8.49937 15.9092 8.5495 15.8981 8.63717 15.8786C9.5041 15.6863 14.0422 14.6796 17.8583 15.5576C18.296 15.6455 18.6462 15.3818 18.7338 15.0302C18.9964 14.5029 18.7338 14.1513 18.296 14.0634Z" fill="#353738"/>
<path d="M8.14116 18.8977C8.40379 18.8098 13.6563 17.4913 18.296 18.5461C18.7338 18.634 18.9964 19.0735 18.7338 19.513C18.6462 19.8645 18.296 20.1282 17.8583 20.0403C14.0422 19.1623 9.5041 20.169 8.63717 20.3614C8.5495 20.3808 8.49937 20.3919 8.49133 20.3919H8.31625C8.05362 20.3919 7.70345 20.2161 7.61591 19.8645C7.52837 19.4251 7.70345 18.9856 8.14116 18.8977Z" fill="#353738"/>
<path d="M25.7371 30.5879C25.9122 30.8516 26.1748 31.0274 26.4375 31.0274C26.525 31.0274 26.7001 31.0274 26.7876 30.9395C26.8098 30.9395 27.1065 30.7932 27.573 30.5632C28.9502 29.8842 31.8062 28.4762 33.4408 27.951C33.8785 27.8631 34.0536 27.4236 33.9661 26.9841C33.8785 26.5447 33.4408 26.3689 33.0031 26.4568C31.2721 26.9915 28.326 28.4414 26.8986 29.1438C26.4491 29.365 26.1502 29.5121 26.0873 29.5331C25.7371 29.7089 25.562 30.2363 25.7371 30.5879Z" fill="#353738"/>
<path d="M8.14116 23.4683C8.40379 23.3804 13.6563 22.0619 18.296 23.1167C18.7338 23.2046 18.9964 23.6441 18.7338 24.0836C18.6462 24.4351 18.296 24.6988 17.8583 24.6109C14.0422 23.7329 9.5041 24.7396 8.63717 24.9319C8.5495 24.9514 8.49937 24.9625 8.49133 24.9625H8.31625C8.05362 24.9625 7.70345 24.7867 7.61591 24.4351C7.52837 23.9957 7.70345 23.5562 8.14116 23.4683Z" fill="#353738"/>
<path d="M18.296 32.17C13.6563 31.1153 8.40379 32.4337 8.14116 32.5216C7.70345 32.6095 7.52837 33.049 7.61591 33.4885C7.70345 33.8401 8.05362 34.0158 8.31625 34.0158H8.49133C8.49937 34.0158 8.5495 34.0047 8.63717 33.9853C9.5041 33.7929 14.0422 32.7862 17.8583 33.6643C18.296 33.7522 18.6462 33.4885 18.7338 33.1369C18.9964 32.6974 18.7338 32.2579 18.296 32.17Z" fill="#353738"/>
<path d="M8.14116 27.951C8.40379 27.8631 13.6563 26.5447 18.296 27.5994C18.7338 27.6873 18.9964 28.1268 18.7338 28.5663C18.6462 28.9179 18.296 29.1815 17.8583 29.0936C14.0422 28.2156 9.5041 29.2223 8.63717 29.4147C8.5495 29.4341 8.49937 29.4452 8.49133 29.4452H8.31625C8.05362 29.4452 7.70345 29.2694 7.61591 28.9179C7.52837 28.4784 7.70345 28.0389 8.14116 27.951Z" fill="#353738"/>
</svg>
