<svg width="58" height="58" viewBox="0 0 58 58" fill="none" xmlns="http://www.w3.org/2000/svg">
<path d="M36.4184 29C36.4184 33.0972 33.097 36.4186 28.9998 36.4186C24.9026 36.4186 21.5812 33.0972 21.5812 29C21.5812 24.9028 24.9026 21.5814 28.9998 21.5814C33.097 21.5814 36.4184 24.9028 36.4184 29Z" fill="#009055"/>
<path d="M36.4184 7.4186C36.4184 11.5158 33.097 14.8372 28.9998 14.8372C24.9026 14.8372 21.5812 11.5158 21.5812 7.4186C21.5812 3.32142 24.9026 0 28.9998 0C33.097 0 36.4184 3.32142 36.4184 7.4186Z" fill="#009055"/>
<path d="M36.4184 50.5814C36.4184 54.6786 33.097 58 28.9998 58C24.9026 58 21.5812 54.6786 21.5812 50.5814C21.5812 46.4842 24.9026 43.1628 28.9998 43.1628C33.097 43.1628 36.4184 46.4842 36.4184 50.5814Z" fill="#009055"/>
<path d="M14.8372 29C14.8372 33.0972 11.5158 36.4186 7.4186 36.4186C3.32142 36.4186 0 33.0972 0 29C0 24.9028 3.32142 21.5814 7.4186 21.5814C11.5158 21.5814 14.8372 24.9028 14.8372 29Z" fill="#009055"/>
<path d="M14.8372 7.4186C14.8372 11.5158 11.5158 14.8372 7.4186 14.8372C3.32142 14.8372 0 11.5158 0 7.4186C0 3.32142 3.32142 0 7.4186 0C11.5158 0 14.8372 3.32142 14.8372 7.4186Z" fill="#009055"/>
<path d="M14.8372 50.5814C14.8372 54.6786 11.5158 58 7.4186 58C3.32142 58 0 54.6786 0 50.5814C0 46.4842 3.32142 43.1628 7.4186 43.1628C11.5158 43.1628 14.8372 46.4842 14.8372 50.5814Z" fill="#009055"/>
<path d="M57.9999 29C57.9999 33.0972 54.6785 36.4186 50.5813 36.4186C46.4841 36.4186 43.1627 33.0972 43.1627 29C43.1627 24.9028 46.4841 21.5814 50.5813 21.5814C54.6785 21.5814 57.9999 24.9028 57.9999 29Z" fill="#009055"/>
<path d="M57.9999 7.4186C57.9999 11.5158 54.6785 14.8372 50.5813 14.8372C46.4841 14.8372 43.1627 11.5158 43.1627 7.4186C43.1627 3.32142 46.4841 0 50.5813 0C54.6785 0 57.9999 3.32142 57.9999 7.4186Z" fill="#009055"/>
<path d="M57.9999 50.5814C57.9999 54.6786 54.6785 58 50.5813 58C46.4841 58 43.1627 54.6786 43.1627 50.5814C43.1627 46.4842 46.4841 43.1628 50.5813 43.1628C54.6785 43.1628 57.9999 46.4842 57.9999 50.5814Z" fill="#009055"/>
</svg>
