<svg width="40" height="40" viewBox="0 0 40 40" fill="none" xmlns="http://www.w3.org/2000/svg">
<g opacity="0.6">
<circle cx="20" cy="20" r="19.5" stroke="#A00067"/>
<path d="M13.0004 15.425C13.0837 13.4417 13.7504 11.9583 15.0004 10.975C16.2671 9.99167 17.9421 9.5 20.0254 9.5C22.1087 9.5 23.7671 9.95 25.0004 10.85C26.2504 11.7333 26.8754 12.9333 26.8754 14.45C26.8754 15.3167 26.6504 16.0417 26.2004 16.625C25.7671 17.1917 25.1671 17.5417 24.4004 17.675C25.3504 17.8917 26.0837 18.3333 26.6004 19C27.1337 19.6667 27.4004 20.5 27.4004 21.5C27.4004 22.3 27.2587 23.025 26.9754 23.675C26.6921 24.325 26.3087 24.8667 25.8254 25.3C25.3587 25.7333 24.8004 26.1 24.1504 26.4C23.5171 26.6833 22.8587 26.8917 22.1754 27.025C21.4921 27.1583 20.7837 27.225 20.0504 27.225C17.8337 27.225 16.0171 26.7 14.6004 25.65C13.2004 24.6 12.5004 23.025 12.5004 20.925C12.5004 20.7417 12.5087 20.5833 12.5254 20.45H17.2254V20.7C17.2254 22.3167 18.0921 23.125 19.8254 23.125C20.6087 23.125 21.2171 22.9667 21.6504 22.65C22.0837 22.3333 22.3004 21.8833 22.3004 21.3C22.3004 20.0833 21.4004 19.475 19.6004 19.475C19.5837 19.475 19.5337 19.4833 19.4504 19.5C19.3837 19.5 19.2837 19.5 19.1504 19.5C19.0171 19.5 18.8754 19.5 18.7254 19.5H18.5254V16.275C18.7254 16.2917 19.0004 16.3 19.3504 16.3C19.9837 16.3 20.4171 16.2917 20.6504 16.275C21.1337 16.2417 21.5171 16.1 21.8004 15.85C22.1004 15.5833 22.2504 15.2583 22.2504 14.875C22.2504 14.4083 22.0504 14.0333 21.6504 13.75C21.2504 13.4667 20.7087 13.325 20.0254 13.325C18.4754 13.325 17.6921 14.025 17.6754 15.425H13.0004Z" fill="#A00067"/>
</g>
</svg>
