<?xml version="1.0" encoding="utf-8"?>
<!-- Generator: Adobe Illustrator 21.1.0, SVG Export Plug-In . SVG Version: 6.00 Build 0)  -->
<svg version="1.1" id="Layer_1" xmlns="http://www.w3.org/2000/svg" xmlns:xlink="http://www.w3.org/1999/xlink" x="0px" y="0px"
	 viewBox="0 0 86 86" style="enable-background:new 0 0 86 86;" xml:space="preserve">
<style type="text/css">
	.st0{fill:#A00067;}
	.st1{enable-background:new    ;}
</style>
<g>
	<g>
		<g>
			<path class="st0" d="M46.5,31.5c0.2,0.3,0.5,0.5,0.8,0.5c0.1,0,0.3,0,0.4-0.1c0.1,0,5.1-2.6,7.6-3.4c0.5-0.1,0.7-0.6,0.6-1.1
				s-0.6-0.7-1.1-0.6c-2.6,0.8-7.6,3.4-7.9,3.5C46.5,30.6,46.3,31.1,46.5,31.5z"/>
			<path class="st0" d="M47.3,21.7c0.1,0,0.3,0,0.4-0.1c0.1,0,5.1-2.6,7.6-3.4c0.5-0.1,0.7-0.6,0.6-1.1s-0.6-0.7-1.1-0.6
				c-2.6,0.8-7.6,3.4-7.9,3.5c-0.4,0.2-0.6,0.7-0.4,1.2C46.6,21.5,47,21.7,47.3,21.7z"/>
			<path class="st0" d="M67.9,19.9c-0.5,0-0.9,0.4-0.9,0.9v33.5c0,1.4-1.2,2.6-2.6,2.6H43.8v-2c1.3-0.4,4.5-1.5,7.7-1.5
				c7.5,0,12.6,1.7,12.6,1.7c0.3,0.1,0.5,0,0.8-0.1c0.2-0.2,0.4-0.4,0.4-0.7V16.5c0-0.4-0.3-0.8-0.7-0.8c0,0-0.7-0.2-1.8-0.4
				c-0.5-0.1-0.9,0.2-1,0.7s0.2,0.9,0.7,1c0.4,0.1,0.8,0.2,1.1,0.2v36c-1.9-0.5-6.3-1.4-12-1.4c-3.7,0-7.4,1.2-8.6,1.6
				c-1-0.4-4.1-1.6-7.8-1.6c-5.9,0-10.8,1-12.9,1.5v-36c1.7-0.4,6.8-1.5,12.9-1.5c3.1,0,5.8,1,6.9,1.4V51c0,0.3,0.2,0.6,0.4,0.7
				c0.3,0.2,0.6,0.1,0.9,0c0.1-0.1,8.6-5.1,16.1-7.7c0.4-0.1,0.6-0.4,0.6-0.8V8c0-0.3-0.1-0.5-0.4-0.7c-0.2-0.2-0.5-0.2-0.8-0.1
				C52,9.8,45.1,14.1,45,14.1c-0.4,0.3-0.5,0.8-0.3,1.2c0.3,0.4,0.8,0.5,1.2,0.3c0.1,0,6.1-3.8,12.4-6.3v33.3
				c-5.9,2-12,5.4-14.6,6.9V16.6c0-0.3-0.2-0.6-0.5-0.8c-0.1-0.1-3.7-1.8-8.1-1.8c-7.8,0-13.7,1.7-14,1.8c-0.4,0.1-0.6,0.4-0.6,0.8
				v37.7c0,0.3,0.1,0.5,0.3,0.7c0.2,0.1,0.3,0.2,0.5,0.2c0.1,0,0.2,0,0.2,0c0.1,0,6-1.7,13.5-1.7c3.1,0,5.8,1,6.9,1.4v2H21.3
				c-1.4,0-2.6-1.2-2.6-2.6V20.8c0-0.5-0.4-0.9-0.9-0.9s-0.9,0.4-0.9,0.9v33.5c0,2.4,1.9,4.3,4.3,4.3h42.9c2.4,0,4.3-1.9,4.3-4.3
				V20.8C68.7,20.3,68.4,19.9,67.9,19.9z"/>
			<path class="st0" d="M46.5,26.3c0.2,0.3,0.5,0.5,0.8,0.5c0.1,0,0.3,0,0.4-0.1c0.1,0,5.1-2.6,7.6-3.4c0.5-0.1,0.7-0.6,0.6-1.1
				s-0.6-0.7-1.1-0.6c-2.6,0.8-7.6,3.4-7.9,3.5C46.5,25.4,46.3,25.9,46.5,26.3z"/>
			<path class="st0" d="M46.5,36.7c0.2,0.3,0.5,0.5,0.8,0.5c0.1,0,0.3,0,0.4-0.1c0.1,0,5.1-2.6,7.6-3.4c0.5-0.1,0.7-0.6,0.6-1.1
				s-0.6-0.7-1.1-0.6c-2.6,0.8-7.6,3.4-7.9,3.5C46.5,35.7,46.3,36.2,46.5,36.7z"/>
			<path class="st0" d="M38,23c-5.3-1.2-11.3,0.3-11.6,0.4c-0.5,0.1-0.7,0.6-0.6,1.1c0.1,0.4,0.5,0.6,0.8,0.6c0.1,0,0.1,0,0.2,0
				s5.9-1.5,10.7-0.4c0.5,0.1,0.9-0.2,1-0.6C38.8,23.6,38.5,23.1,38,23z"/>
			<path class="st0" d="M38,28.2c-5.3-1.2-11.3,0.3-11.6,0.4c-0.5,0.1-0.7,0.6-0.6,1.1c0.1,0.4,0.5,0.6,0.8,0.6c0.1,0,0.1,0,0.2,0
				s5.9-1.5,10.7-0.4c0.5,0.1,0.9-0.2,1-0.6C38.8,28.7,38.5,28.3,38,28.2z"/>
			<path class="st0" d="M46.5,41.8c0.2,0.3,0.5,0.5,0.8,0.5c0.1,0,0.3,0,0.4-0.1c0.1,0,5.1-2.6,7.6-3.4c0.5-0.1,0.7-0.6,0.6-1.1
				s-0.6-0.7-1.1-0.6c-2.6,0.8-7.6,3.4-7.9,3.5C46.5,40.9,46.3,41.4,46.5,41.8z"/>
			<path class="st0" d="M38,33.3c-5.3-1.2-11.3,0.3-11.6,0.4c-0.5,0.1-0.7,0.6-0.6,1.1c0.1,0.4,0.5,0.6,0.8,0.6c0.1,0,0.1,0,0.2,0
				s5.9-1.5,10.7-0.4c0.5,0.1,0.9-0.2,1-0.6C38.8,33.9,38.5,33.4,38,33.3z"/>
			<path class="st0" d="M38,43.6c-5.3-1.2-11.3,0.3-11.6,0.4c-0.5,0.1-0.7,0.6-0.6,1.1c0.1,0.4,0.5,0.6,0.8,0.6c0.1,0,0.1,0,0.2,0
				s5.9-1.5,10.7-0.4c0.5,0.1,0.9-0.2,1-0.6C38.8,44.2,38.5,43.7,38,43.6z"/>
			<path class="st0" d="M38,38.5c-5.3-1.2-11.3,0.3-11.6,0.4c-0.5,0.1-0.7,0.6-0.6,1.1c0.1,0.4,0.5,0.6,0.8,0.6c0.1,0,0.1,0,0.2,0
				s5.9-1.5,10.7-0.4c0.5,0.1,0.9-0.2,1-0.6C38.8,39,38.5,38.6,38,38.5z"/>
		</g>
	</g>
</g>
<g class="st1">
	<path class="st0" d="M16.5,73.6h-1.8V69c0-0.5,0-1,0.1-1.4h0c-0.1,0.2-0.2,0.4-0.4,0.7l-3.5,5.3H9v-8.4h1.8v4.6c0,0.6,0,1,0,1.2h0
		c0,0,0.2-0.3,0.4-0.7l3.3-5.1h2V73.6z"/>
	<path class="st0" d="M24.1,73.6h-1.9v-2.5h-2.1v2.5h-1.9v-6h1.9v2.2h2.1v-2.2h1.9V73.6z"/>
	<path class="st0" d="M30.2,73.4c-0.4,0.2-1,0.4-1.8,0.4c-0.9,0-1.7-0.3-2.2-0.8s-0.9-1.3-0.9-2.2c0-1,0.3-1.8,0.9-2.4
		s1.4-0.9,2.5-0.9c0.7,0,1.2,0.1,1.5,0.3v1.6c-0.4-0.3-0.8-0.4-1.3-0.4c-0.5,0-1,0.2-1.3,0.5s-0.5,0.7-0.5,1.3
		c0,0.5,0.1,0.9,0.4,1.3s0.7,0.5,1.2,0.5c0.5,0,0.9-0.1,1.4-0.4V73.4z"/>
	<path class="st0" d="M35.9,69h-1.6v4.6h-1.9V69h-1.6v-1.4h5.1V69z"/>
	<path class="st0" d="M38.7,72.9L38.7,72.9l0,3.5h-1.9v-8.8h1.9v0.9h0c0.5-0.7,1.1-1,1.9-1c0.8,0,1.4,0.3,1.8,0.8s0.6,1.3,0.6,2.2
		c0,1-0.2,1.8-0.7,2.4s-1.2,0.9-2,0.9C39.7,73.7,39.1,73.5,38.7,72.9z M38.7,70.4v0.5c0,0.4,0.1,0.8,0.3,1s0.5,0.4,0.9,0.4
		c0.4,0,0.7-0.2,1-0.5s0.3-0.8,0.3-1.4c0-1.1-0.4-1.6-1.2-1.6c-0.4,0-0.7,0.1-0.9,0.4S38.7,70,38.7,70.4z"/>
	<path class="st0" d="M50,67.6l-2.4,6.5c-0.6,1.6-1.5,2.3-2.6,2.3c-0.4,0-0.8-0.1-1.1-0.2v-1.5c0.2,0.1,0.5,0.2,0.8,0.2
		c0.5,0,0.8-0.2,1-0.7l0.3-0.7l-2.4-6h2.1l1.1,3.7c0.1,0.2,0.1,0.5,0.2,0.8h0c0-0.2,0.1-0.5,0.2-0.8l1.1-3.7H50z"/>
	<path class="st0" d="M56.7,73.6h-2.2l-1.9-2.9h0v2.9h-1.9v-6h1.9v2.8h0l1.8-2.8h2.2l-2.2,2.9L56.7,73.6z"/>
	<path class="st0" d="M64.2,75.8h-1.5v-2.2h-5.2v-6h1.9v4.7h2.1v-4.7h1.9v4.7h1V75.8z"/>
	<path class="st0" d="M71.2,73.6h-1.7v-3.9c-0.2,0.3-0.3,0.6-0.5,0.9l-2,3.1h-1.8v-6H67v3.8c0.1-0.3,0.3-0.5,0.4-0.7l2-3.1h1.8V73.6
		z"/>
	<path class="st0" d="M78.1,73.6h-1.8v-2.2h-0.4c-0.3,0-0.6,0.3-0.9,0.9l-0.6,1.4h-2.1l0.9-1.7c0.3-0.5,0.6-0.8,1.1-1
		c-1-0.2-1.5-0.7-1.5-1.6c0-1.2,0.9-1.8,2.6-1.8h2.8V73.6z M76.2,70.2v-1.5h-0.7c-0.6,0-1,0.2-1,0.7c0,0.5,0.3,0.7,1,0.7H76.2z"/>
</g>
</svg>
