<?xml version="1.0" encoding="utf-8"?>
<!-- Generator: Adobe Illustrator 21.1.0, SVG Export Plug-In . SVG Version: 6.00 Build 0)  -->
<svg version="1.1" id="Layer_1" xmlns="http://www.w3.org/2000/svg" xmlns:xlink="http://www.w3.org/1999/xlink" x="0px" y="0px"
	 viewBox="0 0 161.9 23.7" style="enable-background:new 0 0 161.9 23.7;" xml:space="preserve">
<g>
	<path d="M0,3.5V0h18.8v3.5h-7.4v19.7H7.4V3.5H0z"/>
	<path d="M16.6,14.8c0-2.6,0.8-4.8,2.3-6.4C20.4,6.8,22.5,6,25.1,6s4.7,0.8,6.2,2.5c1.5,1.6,2.3,3.8,2.3,6.4c0,2.6-0.8,4.8-2.3,6.4
		c-1.5,1.6-3.6,2.5-6.2,2.5s-4.7-0.8-6.2-2.5C17.4,19.6,16.6,17.5,16.6,14.8z M20.4,14.8c0,1.6,0.4,3,1.2,4.2c0.8,1.2,2,1.8,3.6,1.8
		s2.8-0.6,3.6-1.8c0.8-1.2,1.2-2.6,1.2-4.2c0-1.6-0.4-3-1.2-4.2c-0.8-1.2-2-1.8-3.6-1.8s-2.8,0.6-3.6,1.8
		C20.8,11.8,20.4,13.2,20.4,14.8z"/>
	<path d="M36.7,23.3V6.4h3.5v2.5L40.3,9c0.6-0.9,1.3-1.7,2.2-2.2c0.9-0.5,1.9-0.8,3-0.8c1.9,0,3.3,0.5,4.4,1.5
		c1.1,1,1.6,2.4,1.6,4.3v11.6h-3.7V12.7c0-1.3-0.3-2.3-0.8-2.9c-0.5-0.6-1.4-0.9-2.5-0.9c-1.2,0-2.2,0.4-2.9,1.3
		c-0.7,0.8-1.1,1.9-1.1,3.1v9.9H36.7z"/>
	<path d="M54.5,17.8h3.7c0.2,2,1.4,2.9,3.8,2.9c0.4,0,0.8,0,1.2-0.1c0.4-0.1,0.8-0.2,1.2-0.3c0.4-0.1,0.8-0.4,1-0.7
		c0.2-0.3,0.3-0.6,0.3-1.1c0-0.3-0.1-0.6-0.2-0.9c-0.1-0.2-0.3-0.4-0.5-0.6c-0.2-0.2-0.4-0.3-0.7-0.4c-0.2-0.1-0.5-0.2-0.9-0.3
		c-0.4-0.1-0.7-0.2-1-0.2c-0.3-0.1-0.7-0.2-1.1-0.3c-0.5-0.1-0.9-0.2-1.1-0.3c-0.8-0.3-1.4-0.5-2-0.6c-0.6-0.2-1.1-0.4-1.7-0.8
		c-0.6-0.4-1-0.8-1.3-1.4c-0.3-0.6-0.4-1.3-0.4-2.1c0-0.9,0.2-1.6,0.7-2.3c0.4-0.7,1-1.2,1.7-1.5c0.7-0.4,1.5-0.6,2.2-0.8
		C60.3,6,61.1,6,61.9,6c1.9,0,3.5,0.4,4.8,1.3c1.3,0.8,2.1,2.1,2.3,3.9h-3.9c-0.3-1.5-1.4-2.2-3.4-2.2c-0.5,0-0.9,0-1.3,0.1
		c-0.4,0.1-0.8,0.2-1.2,0.5c-0.4,0.3-0.6,0.6-0.6,1.1c0,0.3,0.1,0.5,0.2,0.7c0.1,0.2,0.3,0.4,0.5,0.6c0.2,0.2,0.5,0.3,0.7,0.4
		c0.2,0.1,0.5,0.2,0.9,0.3c0.4,0.1,0.7,0.2,1,0.2c0.3,0.1,0.7,0.2,1.2,0.3c0.5,0.1,0.8,0.2,1.1,0.3c0.8,0.3,1.5,0.5,2,0.6
		c0.6,0.1,1.1,0.4,1.7,0.8c0.6,0.4,1,0.8,1.3,1.4c0.3,0.6,0.4,1.3,0.4,2.1c0,1.3-0.4,2.3-1.2,3.2c-0.8,0.9-1.7,1.4-2.8,1.8
		c-1.1,0.3-2.3,0.5-3.5,0.5c-2.2,0-4-0.5-5.4-1.5C55.2,21.2,54.5,19.8,54.5,17.8z"/>
	<path d="M72.4,3.5V0h3.7v3.5H72.4z M72.4,23.3V6.4h3.7v16.8H72.4z"/>
	<path d="M80.2,23.3V0H84v23.3H80.2z"/>
	<path d="M87.2,14.8c0-2.6,0.8-4.8,2.3-6.4C91,6.8,93.1,6,95.7,6s4.7,0.8,6.2,2.5c1.5,1.6,2.3,3.8,2.3,6.4c0,2.6-0.8,4.8-2.3,6.4
		c-1.5,1.6-3.6,2.5-6.2,2.5s-4.7-0.8-6.2-2.5C88,19.6,87.2,17.5,87.2,14.8z M90.9,14.8c0,1.6,0.4,3,1.2,4.2c0.8,1.2,2,1.8,3.6,1.8
		s2.8-0.6,3.6-1.8c0.8-1.2,1.2-2.6,1.2-4.2c0-1.6-0.4-3-1.2-4.2c-0.8-1.2-2-1.8-3.6-1.8s-2.8,0.6-3.6,1.8
		C91.3,11.8,90.9,13.2,90.9,14.8z"/>
	<path d="M105.6,9.2V6.4h2.8v-5h3.7v5h3.4v2.8h-3.4v9c0,0.9,0.1,1.5,0.3,1.8c0.2,0.3,0.7,0.5,1.5,0.5c0.7,0,1.2,0,1.6-0.1v2.9
		c-0.2,0-0.4,0-0.7,0.1c-0.3,0-0.6,0.1-0.9,0.1c-0.3,0-0.5,0-0.8,0c-1.8,0-3-0.3-3.7-1c-0.6-0.7-0.9-1.8-1-3.3V9.2H105.6z"/>
	<path d="M118.1,23.3V6.4h3.5v3.3h0.1c0.2-0.9,0.8-1.8,1.8-2.6s2-1.2,3.1-1.2c0.3,0,0.8,0,1.4,0.1v3.6c-0.9-0.1-1.4-0.2-1.6-0.2
		c-1.3,0-2.4,0.5-3.3,1.5c-0.9,1-1.3,2.4-1.3,4.2v8H118.1z"/>
	<path d="M128.2,14.9c0-2.5,0.7-4.6,2.2-6.3c1.5-1.7,3.5-2.6,5.9-2.6c2.6,0,4.6,1,6.2,3c1.3,1.6,1.9,3.5,1.9,5.5
		c0,0.4,0,0.9-0.1,1.4h-12.4c0,1.4,0.4,2.6,1.2,3.6c0.8,1,1.9,1.4,3.4,1.4c2.1,0,3.5-0.9,4.1-2.8h3.5c-0.4,1.8-1.3,3.2-2.7,4.2
		s-3,1.5-4.9,1.5c-2.6,0-4.6-0.8-6.1-2.4C128.9,19.6,128.2,17.5,128.2,14.9z M131.9,13.3h8.7c-0.1-1.2-0.5-2.3-1.3-3.2
		c-0.8-0.9-1.8-1.3-3-1.3c-1.3,0-2.3,0.4-3.1,1.3C132.4,11,132,12.1,131.9,13.3z"/>
	<path d="M147.1,23.3V6.4h3.5v2.5l0.1,0.1c0.6-0.9,1.3-1.7,2.2-2.2c0.9-0.5,1.9-0.8,3-0.8c1.9,0,3.3,0.5,4.4,1.5
		c1.1,1,1.6,2.4,1.6,4.3v11.6h-3.7V12.7c0-1.3-0.3-2.3-0.8-2.9c-0.5-0.6-1.4-0.9-2.5-0.9c-1.2,0-2.2,0.4-2.9,1.3s-1.1,1.9-1.1,3.1
		v9.9H147.1z"/>
</g>
</svg>
