<svg width="134" height="19" viewBox="0 0 134 19" fill="none" xmlns="http://www.w3.org/2000/svg">
<path d="M0 0H12.1435V2.23043H7.35217V14.9522H4.7087V2.23043H0V0Z" fill="black"/>
<path d="M18.5043 15.2826C17.5957 15.2826 16.8522 15.1174 16.1913 14.8696C15.5304 14.6217 14.9522 14.2087 14.4565 13.713C13.9609 13.2174 13.6304 12.6391 13.3826 11.8957C13.1348 11.2348 13.0522 10.4087 13.0522 9.58261C13.0522 8.75652 13.1348 8.01304 13.3826 7.26957C13.6304 6.6087 13.9609 5.94783 14.4565 5.45217C14.9522 4.95652 15.5304 4.54348 16.1913 4.29565C16.8522 4.04783 17.6783 3.88261 18.5043 3.88261C19.413 3.88261 20.1565 4.04783 20.8174 4.29565C21.4783 4.54348 22.0565 4.95652 22.5522 5.45217C23.0478 5.94783 23.3783 6.52609 23.6261 7.26957C23.8739 8.01304 23.9565 8.75652 23.9565 9.58261C23.9565 10.4087 23.8739 11.1522 23.6261 11.8957C23.3783 12.5565 23.0478 13.2174 22.5522 13.713C22.0565 14.2087 21.4783 14.6217 20.8174 14.8696C20.1565 15.1174 19.413 15.2826 18.5043 15.2826ZM18.5043 13.3826C19 13.3826 19.4957 13.3 19.9087 13.0522C20.3217 12.8043 20.6522 12.5565 20.9 12.1435C21.1478 11.813 21.313 11.4 21.4783 10.9043C21.5609 10.4087 21.6435 9.99565 21.6435 9.5C21.6435 9.00435 21.5609 8.5913 21.4783 8.09565C21.3957 7.6 21.1478 7.18696 20.9 6.85652C20.6522 6.6087 20.3217 6.27826 19.9087 6.03043C19.4957 5.78261 19.0826 5.7 18.5043 5.7C17.9261 5.7 17.513 5.78261 17.1 6.03043C16.687 6.27826 16.3565 6.52609 16.1087 6.93913C15.8609 7.26956 15.6957 7.68261 15.5304 8.17826C15.4478 8.67391 15.3652 9.08696 15.3652 9.58261C15.3652 10.0783 15.4478 10.4913 15.5304 10.987C15.613 11.4826 15.8609 11.813 16.1087 12.2261C16.3565 12.5565 16.687 12.887 17.1 13.1348C17.513 13.3 18.0087 13.3826 18.5043 13.3826Z" fill="black"/>
<path d="M26.0217 4.13043H28.4174V8.5913H33.8696V4.13043H36.2652V14.9522H33.8696V10.4087H28.5V14.9522H26.1043V4.13043H26.0217Z" fill="black"/>
<path d="M38.6609 7.10435C38.8261 5.94783 39.3217 5.20435 40.1478 4.62609C40.8913 4.13043 41.9652 3.88261 43.2043 3.88261C43.7826 3.88261 44.4435 3.96522 44.9391 4.13043C45.5174 4.29565 46.013 4.46087 46.4261 4.7087C46.8391 4.95652 47.1696 5.28696 47.4174 5.7C47.6652 6.11304 47.7478 6.52609 47.7478 7.02174C47.7478 7.6 47.5826 8.09565 47.3348 8.5087C47.0043 8.92174 46.5913 9.16957 46.0956 9.33478C46.6739 9.41739 47.1696 9.74783 47.5826 10.1609C47.9957 10.6565 48.1609 11.2348 48.1609 11.8957C48.1609 12.4739 47.9957 13.0522 47.7478 13.4652C47.5 13.8783 47.087 14.2087 46.6739 14.4565C46.2609 14.7043 45.7652 14.8696 45.187 15.0348C44.6087 15.1174 44.113 15.2 43.5348 15.2C41.9652 15.2 40.7261 14.9522 39.8174 14.3739C38.9087 13.7957 38.3304 12.887 38.0826 11.4826H40.4783C40.5609 11.813 40.6435 12.1435 40.8087 12.3913C40.9739 12.6391 41.1391 12.8043 41.387 12.9696C41.6348 13.1348 41.8826 13.2174 42.213 13.3C42.5435 13.3826 42.7913 13.3826 43.1217 13.3826C43.8652 13.3826 44.5261 13.2174 45.0217 12.9696C45.5174 12.7217 45.7652 12.2261 45.7652 11.6478C45.7652 11.1522 45.6 10.7391 45.2696 10.5739C44.9391 10.3261 44.4435 10.2435 43.7826 10.2435H42.0478V8.34348H43.7826C44.2783 8.34348 44.6913 8.26087 45.0217 8.09565C45.3522 7.93043 45.4348 7.6 45.4348 7.10435C45.4348 6.6087 45.187 6.19565 44.7739 6.03043C44.3609 5.86522 43.7826 5.7 43.1217 5.7C42.4609 5.7 41.8826 5.78261 41.5522 6.03043C41.2217 6.27826 40.9739 6.6087 40.8913 7.10435H38.6609Z" fill="black"/>
<path d="M50.2261 4.13043H52.6217V11.5652H52.7043L57.4957 4.13043H60.4696V14.9522H58.0739V7.43478H57.9913L53.1174 14.9522H50.2261V4.13043Z" fill="black"/>
<path d="M62.6174 13.3C62.9478 13.3 63.3609 13.1348 63.6913 12.887C64.0217 12.6391 64.2696 12.3087 64.4348 11.813C64.5174 11.5652 64.6 11.3174 64.6 10.987C64.6826 10.7391 64.6826 10.4913 64.7652 10.1609C64.7652 9.83043 64.8478 9.5 64.8478 9.16957C64.8478 8.83913 64.8478 8.42609 64.9304 7.93043C64.9304 7.43478 64.9304 6.93913 64.9304 6.27826C64.9304 5.7 64.9304 4.95652 64.9304 4.13043H73.9348V14.9522H71.5391V5.86522H67.3261C67.3261 6.77391 67.3261 7.6 67.3261 8.26087C67.3261 8.92174 67.2435 9.58261 67.2435 10.0783C67.2435 10.5739 67.1609 11.0696 67.0783 11.4826C66.9957 11.8957 66.913 12.2261 66.8304 12.5565C66.7478 12.887 66.5826 13.2174 66.5 13.5478C66.3348 13.8783 66.1696 14.1261 65.8391 14.2913C65.5913 14.5391 65.1783 14.7043 64.6826 14.787C64.187 14.9522 63.5261 14.9522 62.7826 14.9522C62.5348 14.9522 62.3696 14.9522 62.2043 14.9522C62.0391 14.9522 61.8739 14.9522 61.7087 14.8696V13.2174C61.8739 13.2174 62.0391 13.3 62.1217 13.3C62.287 13.3 62.4522 13.3 62.6174 13.3Z" fill="black"/>
<path d="M81.4522 15.2826C80.5435 15.2826 79.8 15.1174 79.1391 14.8696C78.4783 14.6217 77.9 14.2087 77.4043 13.713C76.9087 13.2174 76.5783 12.6391 76.3304 11.8957C76.0826 11.2348 76 10.4087 76 9.58261C76 8.75652 76.0826 8.01304 76.3304 7.26957C76.5783 6.6087 76.9087 5.94783 77.4043 5.45217C77.9 4.95652 78.4783 4.54348 79.1391 4.29565C79.8 4.04783 80.6261 3.88261 81.4522 3.88261C82.3609 3.88261 83.1043 4.04783 83.7652 4.29565C84.4261 4.54348 85.0043 4.95652 85.5 5.45217C85.9957 5.94783 86.3261 6.52609 86.5739 7.26957C86.8217 8.01304 86.9043 8.75652 86.9043 9.58261C86.9043 10.4087 86.8217 11.1522 86.5739 11.8957C86.3261 12.5565 85.9957 13.2174 85.5 13.713C85.0043 14.2087 84.4261 14.6217 83.7652 14.8696C83.1043 15.1174 82.3609 15.2826 81.4522 15.2826ZM81.4522 13.3826C81.9478 13.3826 82.4435 13.3 82.8565 13.0522C83.2696 12.8043 83.6 12.5565 83.8478 12.1435C84.0956 11.813 84.2609 11.4 84.4261 10.9043C84.5087 10.4087 84.5913 9.99565 84.5913 9.5C84.5913 9.00435 84.5087 8.5913 84.4261 8.09565C84.3435 7.6 84.0956 7.18696 83.8478 6.85652C83.6 6.52609 83.2696 6.19565 82.8565 5.94783C82.4435 5.7 82.0304 5.61739 81.4522 5.61739C80.9565 5.61739 80.4609 5.7 80.0478 5.94783C79.6348 6.19565 79.3043 6.44348 79.0565 6.85652C78.8087 7.18696 78.6435 7.6 78.4783 8.09565C78.3957 8.5913 78.313 9.00435 78.313 9.5C78.313 9.99565 78.3957 10.4087 78.4783 10.9043C78.5609 11.4 78.8087 11.7304 79.0565 12.1435C79.3043 12.4739 79.6348 12.8043 80.0478 13.0522C80.4609 13.3 80.9565 13.3826 81.4522 13.3826Z" fill="black"/>
<path d="M94.0087 5.94783V15.0348H91.613V5.94783H87.8957V4.13043H97.6435V5.94783H94.0087Z" fill="black"/>
<path d="M99.1304 4.13043H101.361V5.61739H101.443C101.774 4.95652 102.27 4.54348 102.848 4.29565C103.426 4.04783 104.087 3.88261 104.83 3.88261C105.657 3.88261 106.4 4.04783 107.061 4.29565C107.722 4.62609 108.217 5.03913 108.63 5.53478C109.043 6.03043 109.374 6.6913 109.539 7.35217C109.787 8.01304 109.87 8.83913 109.87 9.58261C109.87 10.3261 109.787 10.987 109.622 11.7304C109.457 12.4739 109.126 13.0522 108.796 13.5478C108.383 14.0435 107.887 14.4565 107.309 14.787C106.73 15.1174 106.07 15.2826 105.243 15.2826C104.913 15.2826 104.583 15.2826 104.17 15.2C103.839 15.1174 103.509 15.0348 103.178 14.8696C102.848 14.7043 102.6 14.5391 102.27 14.3739C101.939 14.2087 101.774 13.8783 101.609 13.6304H101.526V19H99.1304V4.13043ZM107.474 9.58261C107.474 9.08696 107.391 8.5913 107.309 8.17826C107.143 7.68261 106.978 7.26956 106.73 6.93913C106.483 6.6087 106.152 6.27826 105.822 6.11304C105.409 5.86522 104.996 5.78261 104.5 5.78261C103.509 5.78261 102.765 6.11304 102.187 6.85652C101.691 7.51739 101.443 8.5087 101.443 9.66522C101.443 10.2435 101.526 10.7391 101.609 11.1522C101.774 11.6478 101.939 12.0609 102.187 12.3913C102.435 12.7217 102.765 12.9696 103.178 13.2174C103.509 13.3826 104.004 13.5478 104.5 13.5478C105.078 13.5478 105.491 13.4652 105.904 13.2174C106.317 12.9696 106.565 12.7217 106.813 12.3087C107.061 11.9783 107.226 11.5652 107.309 11.0696C107.391 10.4913 107.474 10.0783 107.474 9.58261Z" fill="black"/>
<path d="M113.752 10.1609C113.752 10.5739 113.835 10.987 113.917 11.4C114 11.813 114.248 12.1435 114.413 12.3913C114.661 12.7217 114.991 12.887 115.322 13.1348C115.652 13.3 116.148 13.3826 116.643 13.3826C117.304 13.3826 117.883 13.2174 118.296 12.9696C118.709 12.6391 119.039 12.2261 119.287 11.6478H121.517C121.352 12.2261 121.187 12.7217 120.857 13.2174C120.526 13.713 120.196 14.0435 119.783 14.3739C119.37 14.7043 118.874 14.9522 118.296 15.1174C117.717 15.2826 117.222 15.3652 116.643 15.3652C115.817 15.3652 115.074 15.2 114.413 14.9522C113.752 14.7043 113.174 14.2913 112.761 13.7957C112.265 13.3 111.935 12.7217 111.77 11.9783C111.522 11.3174 111.439 10.4913 111.439 9.66522C111.439 8.92174 111.522 8.17826 111.77 7.43478C112.017 6.77391 112.348 6.11304 112.843 5.61739C113.339 5.12174 113.835 4.7087 114.496 4.37826C115.157 4.04783 115.9 3.88261 116.643 3.88261C117.47 3.88261 118.296 4.04783 118.957 4.37826C119.617 4.7087 120.196 5.20435 120.609 5.78261C121.022 6.36087 121.352 7.02174 121.6 7.84783C121.765 8.5913 121.848 9.41739 121.765 10.2435H113.752V10.1609ZM119.287 8.5913C119.287 8.17826 119.204 7.84783 119.039 7.51739C118.874 7.18696 118.709 6.85652 118.461 6.6087C118.213 6.36087 117.965 6.11304 117.635 5.94783C117.304 5.78261 116.974 5.7 116.561 5.7C116.148 5.7 115.735 5.78261 115.404 5.94783C115.074 6.11304 114.743 6.27826 114.496 6.52609C114.248 6.77391 114.083 7.10435 113.917 7.43478C113.752 7.76522 113.67 8.17826 113.67 8.5913H119.287Z" fill="black"/>
<path d="M123.583 4.13043H125.978V8.5913H131.348V4.13043H133.743V14.9522H131.348V10.4087H125.978V14.9522H123.583V4.13043Z" fill="black"/>
</svg>
