<svg width="128" height="128" viewBox="0 0 128 128" fill="none" xmlns="http://www.w3.org/2000/svg">
<circle cx="64" cy="64" r="63.5" stroke="#768187"/>
<path d="M64 95C64.6 95 65 95.4 65 96C65 96.6 64.6 97 64 97C45.8 97 31 82.2 31 64C31 45.8 45.8 31 64 31C64.6 31 65 31.4 65 32C65 32.6 64.6 33 64 33C46.9 33 33 46.9 33 64C33 81.1 46.9 95 64 95ZM80 65C80.6 65 81 65.4 81 66C81 66.6 80.6 67 80 67H62C61.4 67 61 66.6 61 66V42C61 41.4 61.4 41 62 41C62.6 41 63 41.4 63 42V65H80ZM71.9 34.5C71.1 34.3 70.6 33.5 70.8 32.7C71 31.9 71.8 31.4 72.6 31.6C73.4 31.8 73.9 32.6 73.7 33.4C73.5 34.3 72.7 34.8 71.9 34.5ZM79.3 37.6C78.6 37.2 78.3 36.3 78.8 35.6C79.2 34.9 80.1 34.6 80.8 35.1C81.5 35.6 81.8 36.4 81.3 37.1C80.9 37.8 80 38 79.3 37.6ZM85.6 42.4C85 41.8 85 40.9 85.6 40.3C86.2 39.7 87.1 39.7 87.7 40.3C88.3 40.9 88.3 41.8 87.7 42.4C87.1 43 86.2 43 85.6 42.4ZM90.4 48.8C90 48.1 90.2 47.2 90.9 46.8C91.6 46.4 92.5 46.6 92.9 47.3C93.3 48 93.1 48.9 92.4 49.3C91.7 49.7 90.8 49.5 90.4 48.8ZM93.5 56.1C93.3 55.3 93.8 54.5 94.6 54.3C95.4 54.1 96.2 54.6 96.4 55.4C96.6 56.2 96.1 57 95.3 57.2C94.5 57.4 93.7 56.9 93.5 56.1ZM94.5 64C94.5 63.2 95.2 62.5 96 62.5C96.8 62.5 97.5 63.2 97.5 64C97.5 64.8 96.8 65.5 96 65.5C95.2 65.5 94.5 64.8 94.5 64ZM93.5 71.9C93.7 71.1 94.5 70.6 95.3 70.8C96.1 71 96.6 71.8 96.4 72.6C96.2 73.4 95.4 73.9 94.6 73.7C93.7 73.5 93.2 72.7 93.5 71.9ZM90.4 79.3C90.8 78.6 91.7 78.3 92.4 78.8C93.1 79.3 93.4 80.1 92.9 80.8C92.4 81.5 91.6 81.8 90.9 81.3C90.2 80.8 90 80 90.4 79.3ZM85.6 85.6C86.2 85 87.1 85 87.7 85.6C88.3 86.2 88.3 87.1 87.7 87.7C87.1 88.3 86.2 88.3 85.6 87.7C85 87.1 85 86.2 85.6 85.6ZM79.3 90.4C80 90 80.9 90.2 81.3 90.9C81.7 91.6 81.5 92.5 80.8 92.9C80.1 93.3 79.2 93.1 78.8 92.4C78.3 91.7 78.5 90.8 79.3 90.4ZM71.9 93.5C72.7 93.3 73.5 93.8 73.7 94.6C73.9 95.4 73.4 96.2 72.6 96.4C71.8 96.6 71 96.1 70.8 95.3C70.6 94.5 71.1 93.7 71.9 93.5Z" fill="#768187"/>
</svg>
