<svg width="128" height="128" viewBox="0 0 128 128" fill="none" xmlns="http://www.w3.org/2000/svg">
<circle cx="64" cy="64" r="63.5" stroke="#768187"/>
<path d="M57.4608 54.3763C58.1914 54.3763 58.7837 53.7701 58.7837 53.0222C58.7837 52.2744 58.1914 51.6682 57.4608 51.6682C56.7302 51.6682 56.1379 52.2744 56.1379 53.0222C56.1379 53.7701 56.7302 54.3763 57.4608 54.3763Z" fill="#768187"/>
<path d="M69.5392 54.3763C70.2698 54.3763 70.8621 53.7701 70.8621 53.0222C70.8621 52.2744 70.2698 51.6682 69.5392 51.6682C68.8086 51.6682 68.2163 52.2744 68.2163 53.0222C68.2163 53.7701 68.8086 54.3763 69.5392 54.3763Z" fill="#768187"/>
<path d="M60.9693 62.324C60.9693 61.9708 61.1994 61.7353 61.5445 61.7353C61.8896 61.7353 62.1196 61.9708 62.1196 62.324C62.1196 62.8539 62.7523 63.3248 63.5 63.3248C64.2477 63.3248 64.8804 62.8539 64.8804 62.324C64.8804 61.9708 65.1105 61.7353 65.4556 61.7353C65.8007 61.7353 66.0307 61.9708 66.0307 62.324C66.0307 63.5015 64.8804 64.5023 63.5 64.5023C62.1196 64.5023 60.9693 63.5015 60.9693 62.324Z" fill="#768187"/>
<path d="M62.1196 58.674V55.7304C62.1196 55.3771 62.3497 55.1417 62.6948 55.1417C63.0399 55.1417 63.2699 55.3771 63.2699 55.7304V58.1441H64.3628C64.7079 58.1441 64.9379 58.3796 64.9379 58.7328C64.9379 59.0861 64.7079 59.3216 64.3628 59.3216H62.7523C62.3497 59.2627 62.1196 59.0272 62.1196 58.674Z" fill="#768187"/>
<path d="M92.9673 85.2586C92.1555 82.1397 89.533 79.8483 86.3484 79.4028C86.1611 79.3391 85.9738 79.3391 85.7864 79.3391H85.5991L84.7874 79.2118C84.9122 74.8836 83.8507 70.2371 82.9141 66.9909C83.8507 62.5354 84.4127 58.2708 84.4751 54.3245C84.7249 44.4586 82.3521 36.375 77.7314 31.5376C74.2346 27.8459 69.4266 26 63.4946 26C57.5626 26 52.7545 27.8459 49.2578 31.5376C44.6371 36.375 42.2018 44.4586 42.514 54.3881C42.6389 58.3345 43.1384 62.599 44.0751 67.0546C43.2633 69.7279 42.0145 74.629 42.2018 79.2755L41.3901 79.3391H41.2027C41.0154 79.3391 40.8281 79.4028 40.7032 79.4028C37.4562 79.8483 34.8336 82.2034 34.0219 85.2586C32.6482 90.6689 32.8979 96.9703 33.3975 101.362C33.4599 101.68 33.7097 101.935 34.0219 101.935H93.0297C93.3419 101.935 93.6541 101.68 93.6541 101.362C94.0912 96.9703 94.341 90.6053 92.9673 85.2586ZM45.3864 67.2455C45.4488 67.1182 45.4488 66.9909 45.3864 66.9273C44.4497 62.4717 43.8877 58.2072 43.8253 54.3245C43.5755 44.8405 45.8235 37.0752 50.1944 32.4924C53.4414 29.0552 57.9372 27.3367 63.4946 27.3367C69.0519 27.3367 73.5478 29.0552 76.7948 32.4924C81.1657 37.0752 83.4136 44.8405 83.1639 54.3245C83.039 58.2072 82.5394 62.4717 81.6028 66.9273C81.6028 67.0546 81.6028 67.1819 81.6028 67.2455C82.4146 69.9189 83.7883 75.1382 83.4761 79.7847C83.3512 82.0761 82.7892 83.9856 81.8526 85.4496C80.7286 87.1681 79.1051 88.3775 76.9196 88.8867C76.8572 88.8867 76.7948 88.8867 76.7323 88.9504C76.2328 89.0777 75.6708 89.1413 75.1088 89.205C75.1713 88.1229 75.2337 86.0224 75.1713 83.731C75.1088 81.8851 74.9215 80.3575 74.6717 79.2118C74.6717 79.1482 74.6717 79.1482 74.6717 79.0845V79.0209C74.6717 78.8936 74.6093 78.8299 74.6093 78.7663C74.5468 78.7026 74.4844 78.639 74.422 78.5753C74.422 78.5753 74.3595 78.5753 74.3595 78.5117C74.2971 78.5117 74.2971 78.448 74.2346 78.448C74.1722 78.448 74.1722 78.3844 74.1098 78.3844C73.9224 78.3207 73.7351 78.3207 73.4853 78.2571C73.298 78.1934 73.1731 78.1298 72.9858 78.0661C72.5487 77.8752 72.174 77.6842 71.7994 77.4933C71.6745 77.4296 71.6121 77.366 71.4247 77.2387C71.1125 76.9841 70.8003 76.7931 70.5505 76.4749C70.4881 76.4112 70.3632 76.2839 70.3008 76.2203L69.9886 75.8383C69.9261 75.711 69.8012 75.5837 69.7388 75.5201C69.6139 75.3291 69.4266 75.0745 69.3017 74.8199C69.3017 74.8199 69.3017 74.8199 69.3017 74.7563C69.1144 74.3744 68.9895 73.9925 68.8646 73.6106V73.5469C68.8646 73.4833 68.8022 73.356 68.8022 73.2923C68.8022 73.2923 68.8022 73.2923 68.8022 73.2287C68.8022 73.165 68.8022 73.1014 68.7397 72.9741C68.6773 72.7831 68.6773 72.5922 68.6773 72.4012V72.083C68.6773 72.0193 68.6773 71.9557 68.6773 71.8284C68.6773 71.4465 68.6773 71.0646 68.6773 70.6827C68.6773 70.4917 68.6773 70.3008 68.6773 70.1098C68.6773 70.0462 68.6773 69.9189 68.6773 69.8552C68.7397 69.7916 68.7397 69.7915 68.8022 69.7279C69.1768 69.4733 69.489 69.155 69.8637 68.9004C70.3632 68.4549 70.8628 68.0093 71.2999 67.5638C71.6745 67.1819 72.0492 66.7363 72.4238 66.2908C72.5487 66.1635 72.6736 65.9725 72.7985 65.8452C73.0482 65.527 73.298 65.2724 73.4853 64.9541C73.6102 64.7632 73.7351 64.5722 73.9224 64.3813C74.1097 64.1267 74.2971 63.8084 74.4844 63.5538C74.6093 63.3628 74.7342 63.1082 74.9215 62.8536C75.1088 62.599 75.2337 62.2808 75.421 62.0262C75.5459 61.7716 75.6708 61.517 75.7957 61.2624C75.9206 61.0078 76.0455 60.6895 76.2328 60.4349C76.3577 60.1803 76.4826 59.9257 76.6074 59.6711C76.7323 59.4165 76.8572 59.0983 76.9821 58.8437C77.107 58.5891 77.1694 58.2708 77.2943 58.0162C77.4192 57.7616 77.4816 57.4434 77.6065 57.1887C77.669 56.9341 77.7938 56.6159 77.8563 56.3613C77.9187 56.1703 77.9812 56.043 77.9812 55.8521C78.106 55.9157 78.2309 55.9157 78.3558 55.9157C78.4807 55.9157 78.6056 55.9157 78.7305 55.9157C78.7929 55.9157 78.7929 55.9157 78.8554 55.9157C78.9178 55.9157 78.9802 55.9157 79.0427 55.9157C79.1676 55.9157 79.23 55.9157 79.3549 55.8521C79.4173 55.8521 79.4798 55.8521 79.5422 55.7884C79.6671 55.7248 79.792 55.7248 79.8544 55.6611C79.9169 55.6611 79.9793 55.5975 79.9793 55.5975C80.1666 55.5338 80.2915 55.4065 80.4164 55.2792C80.6662 55.0883 80.8535 54.8973 81.0408 54.6427C81.6028 53.9426 82.0399 52.9242 82.1648 51.9058C82.2272 51.5239 82.2272 51.2056 82.2272 50.8873C82.1648 49.8689 81.8526 48.8505 81.353 48.1504C80.8535 47.5139 80.2291 47.0683 79.4798 47.0047C79.2924 47.0047 79.0427 47.0047 78.8554 47.0047C78.8554 46.7501 78.8554 46.4955 78.7929 46.3045C78.7305 45.7953 78.7305 45.3498 78.668 44.9042V44.7769C78.6056 44.3313 78.5431 43.8858 78.4807 43.4402C78.4183 42.9947 78.2934 42.5491 78.1685 42.1036C78.1685 41.7217 78.1685 41.3398 78.1685 40.9579C78.1685 40.576 77.8563 40.3214 77.5441 40.3214C77.1694 40.3214 76.9196 40.6396 76.9196 40.9579C76.9196 41.3398 76.9196 41.7217 76.9196 42.1036C76.7948 45.4134 75.8581 46.1772 75.6708 46.3045H71.5496C71.4872 45.859 71.4247 45.4134 71.2999 44.9678C70.5506 42.0399 68.3026 40.4487 68.1777 40.385C67.928 40.1941 67.5533 40.2577 67.366 40.4487C67.1162 40.6396 67.1162 41.0215 67.2411 41.2761C68.1777 42.8037 67.6158 45.2861 67.3036 46.3045H62.0584C61.9335 44.0767 60.4974 41.0215 60.3725 40.6396C60.2476 40.3214 59.9354 40.1941 59.6232 40.2577C59.311 40.3214 59.1236 40.6396 59.1236 40.9579C59.311 42.9947 58.5617 45.3498 58.2494 46.3045H51.3808L50.8188 40.8306C50.8188 40.7669 50.8188 40.7033 50.7564 40.6396C50.6315 40.4487 50.4442 40.3214 50.2568 40.2577C50.2568 40.2577 50.2568 40.2577 50.1944 40.2577C49.8822 40.2577 49.6324 40.4487 49.57 40.7033C49.3202 41.5307 49.0704 42.3582 48.9456 43.2493C48.8831 43.6312 48.8207 44.0131 48.7582 44.395C48.6334 45.2225 48.5085 46.1136 48.5085 47.0047V47.0683C48.3211 47.0683 48.0714 47.0683 47.884 47.0683C47.1347 47.1956 46.5103 47.5775 46.0108 48.214C45.3239 49.1688 45.0117 50.5691 45.199 51.9694C45.3864 53.3697 46.0732 54.6427 47.0099 55.3429C47.1347 55.4702 47.3221 55.5338 47.447 55.6611C47.5094 55.6611 47.5718 55.7248 47.6343 55.7248C47.7592 55.7884 47.8216 55.7884 47.9465 55.8521C48.0089 55.8521 48.0714 55.9157 48.1338 55.9157C48.2587 55.9157 48.3211 55.9794 48.446 55.9794C48.5085 55.9794 48.5709 55.9794 48.6334 55.9794C48.6958 55.9794 48.6958 55.9794 48.7582 55.9794C48.8831 55.9794 49.008 55.9794 49.1329 55.9794C49.2578 55.9794 49.3827 55.9157 49.5075 55.9157C49.57 56.1067 49.6324 56.234 49.6949 56.4249C49.7573 56.6795 49.8198 56.9341 49.9446 57.1887C50.0695 57.507 50.132 57.8253 50.2568 58.0799C50.3193 58.3345 50.4442 58.5891 50.5691 58.8437C50.6939 59.1619 50.8188 59.4165 50.9437 59.7348C51.0686 59.9894 51.131 60.244 51.2559 60.4349C51.3808 60.7532 51.5681 61.0078 51.693 61.326C51.8179 61.5806 51.9428 61.7716 52.0677 62.0262C52.255 62.3444 52.3799 62.599 52.5672 62.9173C52.6921 63.1082 52.817 63.3628 52.9419 63.5538C53.1292 63.8721 53.3165 64.1267 53.5038 64.4449C53.6287 64.6359 53.7536 64.8268 53.8785 65.0178C54.1283 65.336 54.3156 65.5906 54.5654 65.9089C54.6902 66.0362 54.8151 66.2271 54.94 66.3544C55.3147 66.8 55.6893 67.2455 56.064 67.6274C56.5011 68.1366 57.0006 68.5822 57.5001 69.0277C57.8748 69.346 58.2494 69.6642 58.6865 69.9825C58.6865 70.0462 58.6865 70.1735 58.6865 70.2371C58.6865 70.4281 58.6865 70.619 58.6865 70.81C58.6865 71.1919 58.6865 71.5738 58.6865 71.9557C58.6865 73.1014 58.3119 74.2471 57.7499 75.2655C57.6875 75.3928 57.5626 75.5837 57.4377 75.711C56.8757 76.4749 56.1889 77.1114 55.3771 77.6206C55.0025 77.8115 54.6902 78.0025 54.3156 78.1298C54.0034 78.2571 53.6287 78.3844 53.1916 78.448C53.1916 78.448 53.1916 78.448 53.1292 78.448C52.9419 78.5117 52.817 78.5753 52.6921 78.7026C52.3174 78.8936 52.3174 79.0209 52.3174 79.2118C52.0677 80.4212 51.8803 81.8851 51.8179 83.7947C51.7555 86.0224 51.8179 88.1866 51.8803 89.2686C49.6324 89.0777 47.8216 88.3138 46.4479 87.1045C44.6995 85.5132 43.7004 83.0945 43.5131 79.8483C43.2009 75.1382 44.5122 69.9825 45.3864 67.2455ZM49.6324 51.2693V51.2056C49.57 50.951 49.57 50.6327 49.57 50.3781C49.57 50.2508 49.57 50.1235 49.57 49.9962V49.8053C49.57 49.4234 49.5075 48.9778 49.5075 48.5959C49.5075 48.3413 49.5075 48.0867 49.5075 47.8321V47.5139C49.5075 47.3229 49.5075 47.132 49.5075 46.941C49.5075 46.3682 49.57 45.7953 49.6324 45.2861C49.6324 45.1588 49.6324 45.0952 49.6949 44.9678L49.8822 46.941C49.9446 47.2593 50.1944 47.5139 50.5066 47.5139H58.3743C58.6241 47.5139 58.8739 47.3229 58.9988 47.132C59.0612 47.0683 59.6232 45.6044 59.9354 43.8221C60.31 44.9042 60.5598 46.0499 60.4349 46.8137C60.4349 47.0047 60.4974 47.1956 60.6222 47.3229C60.7471 47.4502 60.9345 47.5775 61.1218 47.5775H67.4909C67.7407 47.5775 67.9904 47.3866 68.1153 47.132C68.1777 47.0047 68.8022 45.0952 68.7397 43.122C69.3641 44.0767 69.9886 45.3498 69.9886 46.941C69.9886 47.3229 70.3008 47.5775 70.613 47.5775H75.4835C75.5459 47.5775 75.6084 47.5775 75.6708 47.5775C75.6708 47.5775 75.7332 47.5775 75.7957 47.5139C75.8581 47.4502 75.983 47.4502 76.1079 47.3229C76.1703 47.3229 76.1703 47.2593 76.2328 47.1956L76.2952 47.132C76.3577 47.0683 76.3577 47.0683 76.4201 47.0047C76.4825 46.941 76.4826 46.941 76.545 46.8774C76.6074 46.8137 76.6074 46.8137 76.6699 46.7501C76.7323 46.6864 76.7323 46.6228 76.7948 46.5591C76.8572 46.4955 76.8572 46.4318 76.9196 46.3682C76.9821 46.3045 76.9821 46.2409 77.0445 46.1772C77.107 46.0499 77.1694 45.9226 77.2319 45.859C77.2319 45.7953 77.2943 45.7953 77.2943 45.7317C77.2943 45.9226 77.3567 46.1772 77.3567 46.3682C77.3567 46.6228 77.3567 46.8137 77.4192 47.0683C77.4192 47.3229 77.4816 47.5775 77.4816 47.8321C77.4816 48.0867 77.4816 48.3413 77.4816 48.5959C77.4816 48.9778 77.4816 49.4234 77.4192 49.8053V49.9962C77.4192 50.1235 77.4192 50.2508 77.4192 50.3781C77.4192 50.6327 77.3567 50.951 77.3567 51.2056V51.4602L77.2943 51.9694V52.0967C77.2943 52.0967 77.2943 52.0967 77.2943 52.1604C77.2943 52.224 77.2943 52.3513 77.2319 52.415V52.6059C77.2319 52.7969 77.1694 53.0515 77.107 53.2424C77.0445 53.6243 76.9821 53.9426 76.8572 54.3881C76.8572 54.5154 76.7948 54.5791 76.7948 54.7064C75.983 58.0799 74.4844 61.326 72.4863 64.063C71.7994 64.9541 71.1125 65.8452 70.3632 66.6727C69.9261 67.1182 69.489 67.5638 68.9895 67.9457C68.6773 68.2639 68.2402 68.5185 67.8655 68.8368C67.8031 68.9004 67.7407 68.9641 67.6158 69.0277C66.0547 70.1098 64.6185 70.7463 63.4946 70.7463C63.2448 70.7463 62.9326 70.6827 62.6204 70.619C61.6838 70.4281 60.5598 69.8552 59.4358 69.0277C59.3734 68.9641 59.311 68.9004 59.2485 68.8368C58.8739 68.5822 58.4992 68.2639 58.1246 67.9457C57.6875 67.5638 57.1879 67.1182 56.7508 66.6727C53.6912 63.4902 51.3808 59.2256 50.3193 54.7064C50.3193 54.5791 50.2568 54.5154 50.2568 54.3245C50.1944 53.9426 50.0695 53.6243 50.0071 53.2424C49.9446 53.0515 49.9446 52.7969 49.8822 52.6059V52.415C49.8822 52.3513 49.8822 52.224 49.8198 52.1604C49.8198 52.1604 49.8198 52.1604 49.8198 52.0967L49.6324 51.2693ZM59.6232 71.9557C59.6232 71.5738 59.6232 71.1282 59.6232 70.7463C59.6232 70.7463 59.6856 70.7463 59.6856 70.81C59.9978 71.0009 60.31 71.1282 60.5598 71.3192C60.6222 71.3192 60.6222 71.3828 60.6847 71.3828C60.9345 71.5101 61.2467 71.6374 61.4964 71.7011C61.5589 71.7011 61.6213 71.7647 61.6213 71.7647C61.8711 71.8284 62.1833 71.892 62.4331 71.9557C62.4955 71.9557 62.558 71.9557 62.6204 71.9557C62.8702 72.0193 63.1824 72.0193 63.4321 72.0193C63.6819 72.0193 63.9941 72.0193 64.3063 71.9557C64.3688 71.9557 64.3688 71.9557 64.4312 71.9557C64.5561 71.9557 64.681 71.892 64.7434 71.892C64.9308 71.8284 65.0556 71.8284 65.243 71.7647C65.3054 71.7647 65.4303 71.7011 65.4927 71.6374C65.6176 71.5738 65.7425 71.5101 65.8674 71.4465C65.9923 71.3828 66.0547 71.3828 66.1796 71.3192C66.3045 71.2555 66.4294 71.1919 66.4918 71.1282C66.5543 71.1282 66.5543 71.0646 66.6167 71.0646C66.7416 71.0009 66.8665 70.9373 66.9913 70.8736C67.0538 70.81 67.1162 70.81 67.1787 70.7463C67.1787 71.1282 67.1787 71.5101 67.1787 71.892C67.1787 72.0193 67.1787 72.1466 67.1787 72.2739C67.1787 72.2739 67.1787 72.2739 67.1787 72.3376C67.1787 72.3376 67.1787 72.3376 67.1787 72.4012C67.1787 72.4649 67.1787 72.4649 67.1787 72.4649C67.1787 72.5922 67.1787 72.6558 67.2411 72.7831C67.2411 72.9741 67.3036 73.165 67.366 73.2923C67.366 73.356 67.366 73.4196 67.4284 73.4833C67.4284 73.5469 67.4284 73.6106 67.4909 73.6742C67.4909 73.7379 67.5533 73.8015 67.5533 73.9288V73.9925C67.6782 74.3744 67.8031 74.6926 67.9904 75.0745C68.0529 75.1382 68.0529 75.2655 68.1153 75.3291V75.3928C68.1777 75.5201 68.2402 75.5837 68.3026 75.711C68.3026 75.711 68.3026 75.7747 68.3651 75.7747C68.4275 75.8383 68.49 75.902 68.49 75.9656C68.6148 76.2203 68.8022 76.4112 68.9895 76.6022C69.0519 76.6658 69.1144 76.7295 69.1144 76.7931C69.1768 76.8568 69.2393 76.9204 69.2393 76.9204C69.3642 77.0477 69.489 77.2387 69.5515 77.2387C69.8637 77.5569 70.2383 77.8752 70.5505 78.1298C70.6754 78.2571 70.8628 78.3207 70.9876 78.448C70.9876 78.448 70.9876 78.448 71.0501 78.448C71.4247 78.7026 71.9243 78.9572 72.3614 79.0845C72.5487 79.1482 72.736 79.2118 72.9234 79.2755C69.6764 85.004 64.681 88.6321 63.3697 89.5869C62.0584 88.6958 57.1255 85.004 53.8161 79.2755H53.8785C54.0658 79.2118 54.1907 79.1482 54.378 79.0845C54.7527 78.9572 55.1898 78.7663 55.6269 78.5117C56.6259 77.9388 57.4377 77.175 58.0621 76.2203C58.187 76.0293 58.3119 75.8383 58.4368 75.6474C59.2485 74.6926 59.6232 73.356 59.6232 71.9557ZM78.106 54.5154C78.1685 54.1972 78.2309 53.8153 78.2934 53.497C78.3558 53.2424 78.3558 53.0515 78.4183 52.7969L78.4807 52.5423C78.4807 52.3513 78.5431 52.224 78.5431 51.9694L78.668 51.142C78.668 50.951 78.7305 50.6964 78.7305 50.5691C78.7305 50.4418 78.7305 50.2508 78.7305 50.1235V49.9326C78.7305 49.487 78.7929 49.1051 78.7929 48.6596C78.7929 48.5323 78.7929 48.4686 78.7929 48.3413C78.9178 48.3413 79.0427 48.3413 79.23 48.3413C79.7295 48.405 80.0418 48.7232 80.2291 48.9778C80.354 49.1688 80.4788 49.3597 80.5413 49.5507C80.7286 49.9962 80.7911 50.4418 80.8535 50.951C80.8535 51.2056 80.8535 51.4602 80.7911 51.7148C80.6662 52.7969 80.1666 53.7516 79.4798 54.2608C79.23 54.4518 78.7929 54.7064 78.3558 54.6427C78.2934 54.5791 78.2309 54.5154 78.106 54.5154ZM48.1963 49.8689V50.0599C48.1963 50.1872 48.1963 50.3781 48.1963 50.5054C48.1963 50.6964 48.1963 50.951 48.2587 51.142C48.2587 51.3966 48.3211 51.6512 48.3211 51.7785V52.0331C48.3211 52.224 48.3836 52.3513 48.3836 52.5423L48.446 52.7969C48.5085 53.0515 48.5085 53.3061 48.5709 53.497C48.6334 53.8789 48.6958 54.1972 48.7582 54.5154C48.6958 54.5154 48.6334 54.5791 48.5085 54.5791C48.0089 54.6427 47.6343 54.4518 47.3845 54.1972C46.6976 53.688 46.2606 52.7332 46.0732 51.6512C45.9483 50.5691 46.1357 49.5507 46.6352 48.8505C46.8225 48.5959 47.1347 48.2777 47.6343 48.214C47.7592 48.214 47.884 48.214 48.0089 48.214H48.0714C48.0714 48.3413 48.0714 48.405 48.0714 48.5323C48.1963 48.9778 48.1963 49.4234 48.1963 49.8689ZM92.4053 100.598H82.8517V95.761C82.8517 95.3791 82.5394 95.1245 82.2272 95.1245C81.915 95.1245 81.6028 95.4427 81.6028 95.761V100.598H45.3864V95.761C45.3864 95.3791 45.0742 95.1245 44.7619 95.1245C44.4497 95.1245 44.1375 95.4427 44.1375 95.761V100.598H34.5839C34.1468 96.3975 33.9594 90.5416 35.2707 85.5769C35.9576 82.9672 38.1431 81.0577 40.8905 80.6758C41.0154 80.6758 41.1403 80.6121 41.2652 80.6121H41.3276C41.3901 80.6121 41.4525 80.6121 41.5774 80.6121L42.3267 80.5485C42.3267 80.6758 42.3267 80.7394 42.3891 80.8667C42.3891 81.0577 42.4516 81.2486 42.4516 81.3759C42.4516 81.5669 42.514 81.7578 42.5765 82.0124C42.6389 82.2034 42.6389 82.3307 42.7014 82.5217C42.7638 82.7126 42.7638 82.9036 42.8262 83.0945C42.8887 83.2855 42.8887 83.4128 42.9511 83.6037C43.0136 83.7947 43.076 83.9856 43.1384 84.1129C43.2009 84.2402 43.2633 84.4312 43.3258 84.5585C43.3882 84.7494 43.4507 84.8767 43.5131 85.0677C43.5755 85.195 43.638 85.3223 43.7004 85.5132C43.7629 85.6405 43.8878 85.8315 43.9502 85.9588C44.0126 86.0861 44.0751 86.2134 44.2 86.3407C44.2624 86.468 44.3873 86.5953 44.5122 86.7862C44.5746 86.9135 44.6995 87.0408 44.7619 87.1045C44.8868 87.2318 44.9493 87.3591 45.0742 87.4864C45.199 87.6137 45.2615 87.6773 45.3864 87.8046C45.5112 87.9319 45.6361 88.0592 45.761 88.1229C45.8859 88.1865 45.9483 88.3139 46.0732 88.3775C46.1981 88.5048 46.323 88.5685 46.5103 88.6958C46.6352 88.7594 46.7601 88.8867 46.8225 88.9504C46.9474 89.014 47.1347 89.1413 47.2596 89.205C47.3845 89.2686 47.5094 89.3323 47.6343 89.3959C47.8216 89.4596 47.9465 89.5232 48.1338 89.6505C48.2587 89.7142 48.3836 89.7778 48.5085 89.8415C48.6958 89.9051 48.8831 89.9688 49.0704 90.0324C49.1953 90.0961 49.3202 90.0961 49.4451 90.1597C49.6324 90.2234 49.8822 90.287 50.0695 90.287C50.1944 90.287 50.3193 90.3507 50.4442 90.3507C50.6939 90.4143 50.9437 90.4143 51.1935 90.478C51.3184 90.478 51.4433 90.5416 51.5057 90.5416C51.8803 90.6053 52.255 90.6053 52.6297 90.6053C52.6921 90.6053 52.817 90.6053 52.8794 90.5416C52.9419 90.478 53.0667 90.478 53.1292 90.4143C53.2541 90.287 53.3165 90.0961 53.3165 89.9051C53.3165 89.9051 53.1292 86.9772 53.2541 83.8583C53.3165 82.8399 53.379 81.9488 53.4414 81.1213C57.3753 87.4864 62.9951 91.0508 63.2448 91.2418C63.3697 91.3054 63.4946 91.3691 63.557 91.3691C63.6819 91.3691 63.8068 91.3054 63.8692 91.2418C64.119 91.0508 69.7388 87.4864 73.6727 81.1213C73.6727 81.185 73.6727 81.2486 73.6727 81.3123C73.6727 81.3759 73.6727 81.5032 73.6727 81.5669C73.6727 81.7579 73.7351 81.9488 73.7351 82.2034C73.7351 82.3944 73.7351 82.5216 73.7975 82.7126C73.7975 83.0945 73.86 83.4764 73.86 83.922C73.9849 87.0408 73.7975 89.9688 73.7975 89.9688C73.7975 90.1597 73.86 90.3507 73.9849 90.478C74.1097 90.6053 74.2971 90.6689 74.4844 90.6689C74.8591 90.6689 75.2337 90.6053 75.6084 90.6053C75.7332 90.6053 75.8581 90.5416 75.983 90.5416C76.2328 90.478 76.4826 90.478 76.6699 90.4143C76.7948 90.4143 76.9196 90.3507 77.107 90.287C77.2943 90.2234 77.4816 90.2234 77.6689 90.1597C77.7938 90.0961 77.9187 90.0961 78.106 90.0324C78.2934 89.9688 78.4807 89.9051 78.6056 89.8415C78.7305 89.7778 78.8554 89.7142 78.9802 89.6505C79.1676 89.5869 79.2924 89.5232 79.4798 89.4596C79.6047 89.3959 79.7295 89.3323 79.8544 89.2686C79.9793 89.205 80.1666 89.0777 80.2915 89.014C80.4164 88.9504 80.5413 88.8231 80.6662 88.7594C80.7911 88.6321 80.9159 88.5685 81.0408 88.4412C81.1657 88.3775 81.2282 88.2502 81.353 88.1865C81.4779 88.0592 81.6028 87.9956 81.7277 87.8683C81.8526 87.741 81.915 87.6773 82.0399 87.55C82.1648 87.4227 82.2897 87.2954 82.3521 87.1681C82.4146 87.0408 82.5394 86.9135 82.6019 86.7862C82.7268 86.6589 82.7892 86.5316 82.9141 86.4043C82.9765 86.277 83.039 86.1497 83.1639 86.0224C83.2263 85.8951 83.3512 85.7042 83.4136 85.5769C83.4761 85.4496 83.5385 85.3223 83.601 85.1313C83.6634 84.9404 83.7258 84.8131 83.7883 84.6221C83.8507 84.4948 83.9132 84.3039 83.9756 84.1766C84.038 83.9856 84.1005 83.8583 84.1629 83.6674C84.2254 83.5401 84.2254 83.3491 84.2878 83.1582C84.3503 82.9672 84.4127 82.7763 84.4127 82.5853C84.4751 82.3943 84.4751 82.267 84.5376 82.0761C84.6 81.8851 84.6 81.6942 84.6625 81.4396C84.6625 81.2486 84.7249 81.0577 84.7249 80.9304C84.7249 80.8031 84.7249 80.7394 84.7874 80.6121L85.5367 80.6758C85.5991 80.6758 85.6615 80.6758 85.7864 80.6758H85.8489C85.9738 80.6758 86.0986 80.6758 86.286 80.7394C89.0334 81.1213 91.2189 83.0309 91.8433 85.6405C92.9673 90.5416 92.78 96.3975 92.4053 100.598Z" fill="#768187"/>
</svg>
