<svg width="128" height="128" viewBox="0 0 128 128" fill="none" xmlns="http://www.w3.org/2000/svg">
<circle cx="64" cy="64" r="63.5" stroke="#768187"/>
<path d="M76.2244 63.1167C78.8818 63.1167 81.028 60.9958 81.028 58.4709C81.028 55.946 78.8818 53.8251 76.2244 53.8251C73.5671 53.8251 71.4208 55.946 71.4208 58.4709C71.4208 60.9958 73.6693 63.1167 76.2244 63.1167ZM76.2244 55.037C78.0641 55.037 79.5972 56.5519 79.5972 58.4709C79.5972 60.3898 78.0641 61.9047 76.2244 61.9047C74.3848 61.9047 72.8517 60.3898 72.8517 58.4709C72.8517 56.5519 74.3848 55.037 76.2244 55.037Z" fill="#768187"/>
<path d="M71.523 65.3386C67.9459 65.3386 65.0842 68.1665 65.0842 71.7013C65.0842 75.2362 67.9459 78.064 71.523 78.064C75.1002 78.064 77.9619 75.2362 77.9619 71.7013C77.9619 68.1665 74.998 65.3386 71.523 65.3386ZM71.523 76.8521C68.6613 76.8521 66.4128 74.5292 66.4128 71.8023C66.4128 68.9744 68.7635 66.7525 71.523 66.7525C74.3848 66.7525 76.6333 69.0754 76.6333 71.8023C76.6333 74.5292 74.2826 76.8521 71.523 76.8521Z" fill="#768187"/>
<path d="M63.9599 52.7141C63.9599 54.936 65.7996 56.7539 68.0481 56.7539C70.2966 56.7539 72.1363 54.936 72.1363 52.7141C72.1363 50.4922 70.2966 48.6743 68.0481 48.6743C65.7996 48.6743 63.9599 50.4922 63.9599 52.7141ZM68.0481 49.9872C69.5812 49.9872 70.8076 51.1992 70.8076 52.7141C70.8076 54.229 69.5812 55.441 68.0481 55.441C66.515 55.441 65.2886 54.229 65.2886 52.7141C65.2886 51.1992 66.515 49.9872 68.0481 49.9872Z" fill="#768187"/>
<path d="M88.2846 31H47.3006C44.4389 31 41.4749 31 38.6132 31C38.2044 31.101 38 31.505 38 31.909L45.9719 96.9503C45.9719 97.3542 46.2786 97.6572 46.6874 97.6572H80.2104C80.517 97.6572 80.8236 97.3542 80.9258 96.9503L85.014 64.4296L89 31.909C89.1022 31.404 88.6934 31 88.2846 31ZM79.5972 96.1423H47.4028L46.6874 89.8805H80.4148L79.5972 96.1423ZM80.6192 88.3656H46.483L40.6573 40.7966C43.7234 41.9075 53.4329 44.7354 66.9238 44.7354C72.7495 44.7354 79.2906 44.2304 86.2405 42.7155L80.6192 88.3656ZM86.3427 41.3016C61.9158 46.5534 43.3146 40.2916 40.4529 39.2817L39.6353 32.5149H87.4669L86.3427 41.3016Z" fill="#768187"/>
</svg>
