<svg width="128" height="128" viewBox="0 0 128 128" fill="none" xmlns="http://www.w3.org/2000/svg">
<circle cx="64" cy="64" r="63.5" stroke="#768187"/>
<path d="M86.7361 72.4207L77.2516 56.016C77.2516 56.016 77.2516 56.016 77.2516 55.9421L67.8405 39.6851C64.9731 34.808 59.7529 32 54.3857 32C51.7389 32 49.092 32.6651 46.7393 34.0691C39.3134 38.2811 36.8136 47.7397 41.0779 55.1292L50.489 71.3862V71.4601C50.489 71.534 50.5625 71.534 50.5625 71.6079C50.5625 71.6818 50.636 71.6818 50.636 71.7557L59.9735 87.8648C62.4733 92.2246 66.076 94.5893 69.8992 95.4021C73.7224 96.1411 77.6927 95.3282 81.0013 93.407C84.3099 91.4857 87.0302 88.5299 88.2801 84.8351C89.53 81.0665 89.2359 76.7805 86.7361 72.4207ZM42.3278 54.3903C38.5046 47.7397 40.7838 39.1678 47.401 35.3253C49.6067 34.0691 51.9594 33.4779 54.3122 33.4779C59.1648 33.4779 63.8703 35.9903 66.5171 40.498L75.5605 56.0899L51.5183 70.13L42.3278 54.3903ZM86.8832 84.2439C85.7803 87.4953 83.354 90.2295 80.266 92.003C77.2516 93.7764 73.5754 94.5154 70.1933 93.7764C66.8112 93.1114 63.5762 90.9684 61.2234 86.9781L52.2535 71.3862L76.3693 57.3461L85.4862 73.0858C87.7655 77.15 87.986 80.9926 86.8832 84.2439Z" fill="#768187"/>
<path d="M74.2375 64.5139C74.0904 64.2922 73.8699 64.1444 73.5758 64.1444C73.1346 64.1444 72.8405 64.5139 72.8405 64.8834C72.8405 65.0312 72.8405 65.1051 72.9141 65.2529C74.8992 68.9476 77.546 72.3468 78.943 75.4504C79.6782 77.0022 80.0459 78.4062 79.8988 79.7363C79.7518 81.0665 79.1636 82.3227 77.7666 83.5789C77.4725 83.8745 77.399 84.3178 77.6931 84.6134C77.9872 84.909 78.4283 84.9829 78.7224 84.6873C80.34 83.2094 81.1487 81.5098 81.2958 79.8841C81.4428 78.1845 81.0017 76.485 80.1929 74.8593C78.8695 71.3862 76.1491 67.987 74.2375 64.5139Z" fill="#768187"/>
</svg>
