<svg width="38" height="38" viewBox="0 0 38 38" fill="none" xmlns="http://www.w3.org/2000/svg">
<path d="M35.9903 9.96331C35.9903 9.6023 36.2779 9.3135 36.6375 9.3135C36.997 9.3135 37.2847 9.6023 37.1409 9.96331V34.1505C37.1409 35.8833 35.7746 37.2551 34.0487 37.2551H3.19953C1.4737 37.2551 0.107422 35.8833 0.107422 34.1505V9.96331C0.107422 9.6023 0.39506 9.3135 0.754608 9.3135C1.11416 9.3135 1.40179 9.6023 1.40179 9.96331V34.1505C1.40179 35.1613 2.26471 36.0277 3.27144 36.0277H18.0129V34.5837L17.9758 34.5701C17.1625 34.273 15.2463 33.5729 13.0511 33.5729C8.21622 33.5729 4.30597 34.5593 3.49641 34.7635C3.40293 34.7871 3.3508 34.8003 3.34335 34.8003H3.19953C3.09425 34.8003 3.02751 34.7616 2.94288 34.7125C2.9119 34.6946 2.87852 34.6752 2.83999 34.6559C2.69617 34.5115 2.62426 34.3671 2.62426 34.1505V6.85869C2.62426 6.56988 2.76808 6.35328 3.05571 6.28108C3.27144 6.20888 7.51411 4.98147 13.1231 4.98147C16.2871 4.98147 18.8758 6.20888 18.9477 6.28108C19.1635 6.42548 19.3073 6.64208 19.3073 6.85869V30.6126C21.1769 29.5296 25.5634 27.0748 29.8061 25.6308V1.58805C26.0946 3.06681 22.5279 5.17554 21.3203 5.88953C21.0539 6.04704 20.9023 6.13668 20.8893 6.13668C20.6016 6.28108 20.2421 6.20888 20.0264 5.92008C19.8826 5.63128 19.9545 5.27027 20.2421 5.05367C20.2542 5.05367 20.4054 4.96536 20.6723 4.80953C21.9876 4.04137 26.1126 1.63245 30.2375 0.0718393C30.4533 -0.00036123 30.669 -0.000361223 30.8128 0.14404C31.0285 0.288441 31.1004 0.432842 31.1004 0.649443V26.1362C31.1004 26.425 30.9566 26.6416 30.669 26.7138C25.2758 28.591 19.1635 32.2011 19.0915 32.2733C18.8758 32.3455 18.6601 32.4177 18.4444 32.2733C18.3005 32.2011 18.1567 31.9845 18.1567 31.7679V7.36409L18.1196 7.35054C17.3063 7.05338 15.3901 6.35328 13.195 6.35328C8.80848 6.35328 5.14109 7.14749 3.91863 7.43629V33.4285C5.42873 33.0675 8.9523 32.3455 13.195 32.3455C15.8556 32.3455 18.0848 33.2119 18.8039 33.5007C19.6668 33.2119 22.3275 32.3455 24.9881 32.3455C29.087 32.3455 32.251 32.9953 33.6173 33.3563V7.36409C33.4016 7.36409 33.1139 7.29189 32.8263 7.21969C32.4667 7.14749 32.251 6.85869 32.3229 6.49768C32.3948 6.13668 32.6825 5.92008 33.042 5.99228C33.833 6.13668 34.3364 6.28108 34.3364 6.28108C34.624 6.28108 34.8397 6.56988 34.8397 6.85869V34.1505C34.8397 34.3671 34.6959 34.5115 34.5521 34.6559C34.5242 34.6652 34.4976 34.6745 34.4718 34.6835C34.298 34.7443 34.1647 34.7909 33.9768 34.7281C33.9768 34.7281 30.3094 33.5007 24.9162 33.5007C22.8114 33.5007 20.7066 34.1651 19.6474 34.4995C19.5486 34.5307 19.4589 34.559 19.3792 34.5837V36.0277H34.1207C35.1274 36.0277 35.9903 35.1613 35.9903 34.1505V9.96331Z" fill="#768187"/>
<path d="M21.8241 10.541C21.896 10.541 22.0398 10.541 22.1117 10.4688C22.1299 10.4688 22.3737 10.3486 22.7568 10.1598C23.8881 9.60203 26.2342 8.4454 27.5769 8.01399C27.9364 7.94179 28.0802 7.58079 28.0083 7.21979C27.9364 6.85878 27.5769 6.71438 27.2173 6.78658C25.7955 7.22586 23.3754 8.41679 22.2029 8.99379C21.8337 9.17548 21.5881 9.29631 21.5365 9.3136C21.2488 9.458 21.105 9.81901 21.2488 10.18C21.3927 10.4688 21.6084 10.541 21.8241 10.541Z" fill="#768187"/>
<path d="M21.2488 17.6889C21.3927 17.9055 21.6084 18.0499 21.8241 18.0499C21.896 18.0499 22.0398 18.0499 22.1117 17.9777C22.1299 17.9777 22.3737 17.8575 22.7569 17.6686C23.8882 17.1108 26.2342 15.9542 27.5769 15.5228C27.9364 15.4506 28.0802 15.0896 28.0083 14.7286C27.9364 14.3676 27.5769 14.2232 27.2173 14.2954C25.7955 14.7347 23.3754 15.9256 22.2029 16.5026C21.8337 16.6843 21.5881 16.8052 21.5365 16.8225C21.2488 16.9669 21.105 17.4001 21.2488 17.6889Z" fill="#768187"/>
<path d="M21.2488 13.9344C21.3927 14.151 21.6084 14.2954 21.8241 14.2954C21.896 14.2954 22.0398 14.2954 22.1117 14.2232C22.1299 14.2232 22.3739 14.103 22.7572 13.914C23.8886 13.3562 26.2342 12.1998 27.5769 11.7684C27.9364 11.6962 28.0802 11.3352 28.0083 10.9742C27.9364 10.6132 27.5769 10.4688 27.2173 10.541C25.7955 10.9803 23.3754 12.1712 22.2029 12.7482C21.8337 12.9299 21.5881 13.0507 21.5365 13.068C21.2488 13.2846 21.105 13.6456 21.2488 13.9344Z" fill="#768187"/>
<path d="M21.8241 21.7321C21.6084 21.7321 21.3927 21.5877 21.2488 21.3711C21.105 21.0823 21.2488 20.7213 21.5365 20.5047C21.5881 20.4874 21.8337 20.3666 22.2029 20.1849C23.3754 19.6079 25.7955 18.4169 27.2173 17.9777C27.5769 17.9055 27.9364 18.0499 28.0083 18.4109C28.0802 18.7719 27.9364 19.1329 27.5769 19.2051C26.2342 19.6365 23.8886 20.7929 22.7573 21.3506C22.3739 21.5396 22.1299 21.6599 22.1117 21.6599C22.0398 21.7321 21.896 21.7321 21.8241 21.7321Z" fill="#768187"/>
<path d="M15.1365 11.5518C11.3253 10.6854 7.01074 11.7684 6.79501 11.8406C6.43546 11.9128 6.29164 12.2738 6.36355 12.6348C6.43546 12.9236 6.7231 13.068 6.93883 13.068H7.08265C7.08925 13.068 7.13042 13.0589 7.20244 13.0429C7.91456 12.8849 11.6423 12.058 14.777 12.7792C15.1365 12.8514 15.4242 12.6348 15.4961 12.346C15.7118 11.9128 15.4961 11.624 15.1365 11.5518Z" fill="#768187"/>
<path d="M6.79501 15.5228C7.01074 15.4506 11.3253 14.3676 15.1365 15.234C15.4961 15.3062 15.7118 15.6672 15.4961 16.0283C15.4242 16.3171 15.1365 16.5337 14.777 16.4615C11.6423 15.7402 7.91456 16.5672 7.20244 16.7251C7.13042 16.7411 7.08925 16.7503 7.08265 16.7503H6.93883C6.7231 16.7503 6.43546 16.6059 6.36355 16.3171C6.29164 15.956 6.43546 15.595 6.79501 15.5228Z" fill="#768187"/>
<path d="M21.2488 25.1255C21.3927 25.3421 21.6084 25.4865 21.8241 25.4865C21.896 25.4865 22.0398 25.4865 22.1117 25.4143C22.1299 25.4143 22.3737 25.2941 22.7569 25.1052C23.8882 24.5475 26.2342 23.3909 27.5769 22.9595C27.9364 22.8873 28.0802 22.5263 28.0083 22.1653C27.9364 21.8043 27.5769 21.6599 27.2173 21.7321C25.7955 22.1714 23.3754 23.3623 22.2029 23.9393C21.8337 24.121 21.5881 24.2418 21.5365 24.2591C21.2488 24.4035 21.105 24.8367 21.2488 25.1255Z" fill="#768187"/>
<path d="M6.79501 19.2773C7.01074 19.2051 11.3253 18.1221 15.1365 18.9885C15.4961 19.0607 15.7118 19.4217 15.4961 19.7827C15.4242 20.0715 15.1365 20.2881 14.777 20.2159C11.6423 19.4946 7.91456 20.3216 7.20244 20.4796C7.13042 20.4955 7.08925 20.5047 7.08265 20.5047H6.93883C6.7231 20.5047 6.43546 20.3603 6.36355 20.0715C6.29164 19.7105 6.43546 19.3495 6.79501 19.2773Z" fill="#768187"/>
<path d="M15.1365 26.4251C11.3253 25.5587 7.01074 26.6417 6.79501 26.7139C6.43546 26.7861 6.29164 27.1471 6.36355 27.5081C6.43546 27.7969 6.7231 27.9413 6.93883 27.9413H7.08265C7.08925 27.9413 7.13042 27.9322 7.20244 27.9162C7.91456 27.7582 11.6423 26.9313 14.777 27.6525C15.1365 27.7247 15.4242 27.5081 15.4961 27.2193C15.7118 26.8583 15.4961 26.4973 15.1365 26.4251Z" fill="#768187"/>
<path d="M6.79501 22.9595C7.01074 22.8873 11.3253 21.8043 15.1365 22.6707C15.4961 22.7429 15.7118 23.1039 15.4961 23.4649C15.4242 23.7537 15.1365 23.9703 14.777 23.8981C11.6423 23.1768 7.91456 24.0038 7.20244 24.1618C7.13042 24.1778 7.08925 24.1869 7.08265 24.1869H6.93883C6.7231 24.1869 6.43546 24.0425 6.36355 23.7537C6.29164 23.3927 6.43546 23.0317 6.79501 22.9595Z" fill="#768187"/>
</svg>
