<svg width="122" height="30" viewBox="0 0 122 30" fill="none" xmlns="http://www.w3.org/2000/svg">
<path d="M7.54718 0C14.637 0 21.7521 0.0252679 28.8673 0C28.8673 9.77868 28.7911 19.5574 28.7657 29.336C26.9615 29.336 25.1573 29.3108 23.3531 29.336C23.3785 20.9471 23.4039 12.5581 23.4039 4.1692C19.8463 4.21974 16.2887 4.0176 12.7311 4.19447C12.5024 7.35296 12.5786 10.5367 12.3753 13.7205C12.3753 17.5359 12.3499 21.5788 10.5711 25.0658C9.63091 27.0367 7.80129 28.4769 5.71756 29.0834C3.88794 29.6898 1.90585 29.5887 0 29.5129C0.0254114 28.0979 0 26.7082 0.0254114 25.2932C2.0075 25.3437 4.31993 25.0405 5.5905 23.3223C7.29306 20.9218 7.16601 17.8391 7.3693 15.0344C7.42012 10.0314 7.44553 5.00304 7.54718 0Z" fill="#4E1F75"/>
<path d="M33.111 6.99923C37.2785 5.96325 41.6746 5.40735 45.9183 6.317C47.9767 6.72128 49.9842 7.8078 51.0514 9.65236C51.9154 11.0168 52.0933 12.6592 52.0933 14.2511C52.0933 19.3047 52.0679 24.333 51.9662 29.3866C50.3145 29.3866 48.6374 29.3613 46.9856 29.3866C46.9856 28.8054 46.9856 28.199 46.9602 27.6178C44.1141 29.4877 40.6074 30.4226 37.2276 29.8161C35.1439 29.4624 33.2889 28.199 32.0945 26.5061C30.824 24.6615 30.7223 22.2358 31.256 20.1133C31.8404 17.8897 33.7971 16.2726 35.9063 15.464C39.4384 14.0742 43.3264 14.15 47.0619 13.8468C47.0873 12.5329 46.3757 11.1684 45.0544 10.7641C42.5132 9.90504 39.718 10.2083 37.1514 10.7894C35.7792 11.0674 34.4832 11.7243 33.0602 11.7496C33.111 10.1325 33.111 8.56584 33.111 6.99923ZM42.4116 18.2687C40.709 18.4709 38.9048 18.673 37.4563 19.6837C35.8808 20.7197 35.7284 23.2465 37.0752 24.5352C38.2187 25.4195 39.7434 25.4701 41.1156 25.4195C43.301 25.369 45.2576 24.2825 47.011 23.1202C47.0364 21.3767 47.0364 19.6584 47.011 17.915C45.5118 18.0666 43.9617 18.1424 42.4116 18.2687Z" fill="#4E1F75"/>
<path d="M85.3568 6.46861C88.1012 5.66004 91.0997 5.6095 93.8188 6.46861C96.2583 7.25192 98.3166 9.17228 99.206 11.5727C100.121 13.8974 99.9683 16.4494 99.9937 18.9004C94.2508 18.8752 88.5078 18.8499 82.7648 18.9257C82.7394 21.4272 84.1624 23.954 86.5511 24.8889C90.4645 26.4303 94.9369 25.2932 98.3674 23.1202C98.7232 22.918 99.1297 22.9433 99.5109 22.8675C99.4855 24.5352 99.4855 26.2281 99.4855 27.8958C95.0893 29.7404 90.0579 30.6247 85.4076 29.235C82.1804 28.3506 79.3343 25.9502 78.2924 22.7411C77.3014 19.6585 77.3268 16.2726 78.3432 13.2151C79.4105 10.0314 82.1295 7.47933 85.3568 6.46861ZM87.2372 10.2588C84.9756 10.7642 83.2984 12.6845 82.7902 14.8828C84.4928 15.0344 86.1699 15.0344 87.8725 14.9586C90.2358 14.9334 92.599 14.9334 94.9623 14.9334C94.9623 13.2657 94.2253 11.4717 92.6752 10.6884C91.0235 9.85451 89.016 9.90505 87.2372 10.2588Z" fill="#4E1F75"/>
<path d="M57.4297 7.68145C60.225 5.78636 63.7825 5.66002 67.0352 5.81163C69.1698 5.9885 71.406 6.34225 73.1848 7.60565C75.9292 9.47547 76.0054 14.2006 73.2102 16.0451C72.7019 16.3736 72.1429 16.6263 71.5838 16.879C72.829 17.4349 74.125 18.1424 74.8365 19.3552C75.6751 20.8208 75.7513 22.6148 75.5226 24.2572C75.2685 26.0512 73.9725 27.5673 72.397 28.4011C70.0083 29.6898 67.1877 29.9425 64.5195 29.9425C61.9021 29.8667 59.0814 29.5129 57.0231 27.7442C55.473 26.4302 54.7615 24.4088 54.6345 22.4379C56.4387 22.4379 58.2175 22.4632 60.0217 22.4379C60.2504 23.6508 60.784 25.0405 62.08 25.4701C64.1383 26.1776 66.4762 26.0007 68.4582 25.1668C70.5928 24.2572 70.4911 20.9218 68.6107 19.7848C67.0352 18.8246 65.1039 19.052 63.3506 19.052C63.376 17.7886 63.376 16.4999 63.3506 15.2366C64.9515 15.2113 66.6286 15.3629 68.1787 14.8323C70.11 14.1753 70.0337 10.9915 68.1279 10.3346C66.2729 9.70288 64.1637 9.67761 62.2579 10.1577C60.9873 10.4862 60.3266 11.7243 60.0725 12.9119C58.3191 12.8866 56.5911 12.8866 54.8377 12.9119C54.9394 10.9157 55.7017 8.86904 57.4297 7.68145Z" fill="#4E1F75"/>
<path d="M104.72 7.70669C106.092 6.74651 107.795 6.31696 109.472 6.29169C113.64 6.29169 117.833 6.29169 122 6.29169C121.797 11.977 121.924 17.6622 121.822 23.3475C121.822 25.3437 121.771 27.3399 121.797 29.3107C120.043 29.3107 118.315 29.3107 116.562 29.3107C116.765 26.4807 116.638 23.6507 116.689 20.8207C115.723 20.7702 114.758 20.6944 113.792 20.7955C113.36 20.7702 113.233 21.225 113.004 21.503C111.378 24.1056 109.752 26.7082 108.125 29.3107C106.22 29.336 104.288 29.336 102.382 29.336C104.314 26.4555 106.296 23.5749 108.049 20.5933C106.524 20.467 105.025 19.8353 104.009 18.673C102.205 16.7779 101.823 13.9479 102.357 11.4716C102.637 9.9808 103.45 8.59107 104.72 7.70669ZM110.107 10.3851C109.04 10.5872 107.871 11.0421 107.388 12.078C106.88 13.3162 107.007 14.9333 108.075 15.843C109.091 16.7021 110.489 16.7526 111.759 16.8284C113.386 16.8537 115.037 16.8537 116.664 16.8031C116.689 14.5796 116.714 12.3813 116.689 10.1577C114.504 10.1829 112.267 9.9808 110.107 10.3851Z" fill="#4E1F75"/>
</svg>
