<svg width="160" height="59" viewBox="0 0 160 59" fill="none" xmlns="http://www.w3.org/2000/svg">
<path d="M48.2605 0H0.794678V59H48.2605V0Z" fill="white"/>
<path d="M31.4633 51.4975L31.7522 52.8086H30.5602L30.8853 51.4975C31.0298 50.9512 31.102 50.4049 31.1743 49.8586C31.2465 50.4049 31.3188 50.9512 31.4633 51.4975ZM37.243 52.2988H36.4121V54.3019H37.243C37.8571 54.3019 38.146 53.9741 38.146 53.2821C38.146 52.663 37.9654 52.2988 37.243 52.2988ZM37.9654 50.0772C37.9654 49.4944 37.7126 49.2395 37.1707 49.2395H36.4121V50.9877H37.2068C37.7848 50.9877 37.9654 50.6599 37.9654 50.0772ZM48.2605 0V59H0.794678V0H48.2605ZM4.11801 44.5414H37.3513C41.5416 44.5414 44.9372 41.1179 44.9372 36.8932V3.38704H11.7039C7.51359 3.38704 4.11801 6.48272 4.11801 10.7074V44.5414ZM8.56116 53.3185C8.56116 51.6068 7.54971 51.1698 6.32152 50.8056C5.63518 50.587 5.45457 50.4049 5.45457 49.8586C5.45457 49.3852 5.74355 49.1302 6.32152 49.1302C6.79113 49.0938 7.26073 49.2395 7.65808 49.4944L8.23605 48.2562C7.62196 47.8556 6.93562 47.6735 6.21315 47.7099C4.80435 47.7099 3.82902 48.4019 3.82902 50.0043C3.82902 51.5704 4.62373 52.0438 5.85192 52.4444C6.53826 52.663 6.86337 52.8451 6.86337 53.4642C6.86337 54.0469 6.53826 54.3747 5.77968 54.3747C5.16558 54.3747 4.55149 54.1562 4.08189 53.792L3.54004 55.1031C4.04576 55.5037 4.94884 55.8315 5.96029 55.8315C7.91094 55.7951 8.56116 54.8117 8.56116 53.3185ZM14.1964 55.0667L13.51 53.8284C13.1849 54.1926 12.7514 54.3747 12.2457 54.3747C11.3426 54.3747 10.9453 53.8648 10.9453 51.6796C10.9453 49.6401 11.1982 49.1302 12.2096 49.1302C12.6431 49.1302 13.0766 49.2759 13.4017 49.6037L14.0519 48.329C13.6545 47.9648 12.9682 47.7099 12.1374 47.7099C10.2228 47.7099 9.17525 48.766 9.17525 51.7889C9.17525 54.5932 10.1145 55.8315 12.1735 55.8315C12.9321 55.8315 13.6545 55.5765 14.1964 55.0667ZM19.9038 47.8556H18.2783V50.8056H16.4721V47.8556H14.8466V55.6494H16.4721V52.2259H18.2783V55.613H19.8677L19.9038 47.8556ZM27.3091 55.6858L28.7901 47.892H27.1646L26.7311 50.5142C26.5505 51.716 26.4783 52.8815 26.4421 53.6099C26.3699 52.7722 26.2254 51.5704 26.0809 50.6963L25.5391 47.892H24.1664L23.6245 50.7327C23.4439 51.6796 23.2994 52.663 23.2272 53.6463C23.191 52.6265 23.0827 51.6068 22.9021 50.587L22.4325 47.9284H20.7347L22.2157 55.7222H23.9135L24.5276 52.4444C24.636 51.7525 24.7443 51.0241 24.7805 50.2957H24.8166C24.8527 51.0241 24.9611 51.716 25.0695 52.4444L25.6835 55.7222H27.3091V55.6858ZM34.1003 55.6858L32.0774 47.892H30.4157L28.2844 55.6858H29.9461L30.3073 54.1198H32.0774L32.4386 55.6858H34.1003ZM39.88 53.3914C39.88 52.2623 39.3381 51.6796 38.6156 51.534C39.3742 51.2062 39.591 50.7327 39.591 49.8951C39.591 48.5111 38.8324 47.892 37.6403 47.892H34.8227V55.6858H37.532C39.1214 55.6494 39.88 54.9574 39.88 53.3914ZM45.1539 54.229H42.4447V52.2988H44.5037V50.9148H42.4447V49.2759H44.9733V47.8556H40.8192V55.6494H45.1539V54.229ZM41.65 37.1117C41.7222 34.708 40.4941 33.4698 38.0377 30.9932C38.0377 30.9932 21.8545 14.75 21.4571 14.3494C21.1681 14.058 21.2043 13.5846 21.4933 13.2932C21.6378 13.1475 21.8184 13.0747 21.999 13.0747C22.3602 13.0747 37.4236 13.0747 37.4236 13.0747C39.4104 13.0747 41.65 11.108 41.65 8.85V6.73765H11.7761C9.21138 6.73765 7.47747 8.99568 7.44134 10.8167C7.3691 13.2204 8.59728 14.4951 11.0537 16.9716C11.0537 16.9716 27.2368 33.2148 27.6342 33.6154C27.9232 33.9068 27.9232 34.3802 27.6342 34.6716C27.4897 34.8173 27.3091 34.8901 27.0924 34.8901C26.7311 34.8901 11.6678 34.8901 11.6678 34.8901C9.68098 34.8901 7.44134 36.8568 7.44134 39.1512V41.2636H37.2791C39.8438 41.1907 41.5777 38.9327 41.65 37.1117Z" fill="#D0D0D0"/>
<path d="M57.219 16.7162H59.6754C61.915 16.7162 62.9987 17.8088 62.9987 20.9773C62.9987 24.0366 62.0956 25.2749 59.7115 25.2749H57.219V16.7162ZM59.6754 24.0002C60.9758 24.0002 61.3732 23.3446 61.3732 20.9409C61.3732 18.6465 60.9758 17.9909 59.6754 17.9909H58.7V24.0002H59.6754Z" fill="#A7A7A7"/>
<path d="M64.4436 19.0107H65.5634L65.7079 19.8119C66.1414 19.2656 66.6833 18.9014 67.3335 18.9014C67.4418 18.9014 67.5863 18.9014 67.6947 18.9378L67.478 20.3946C67.3335 20.3218 67.1529 20.2854 66.9722 20.2854C66.5388 20.2854 66.1414 20.431 65.8524 20.7588V25.2749H64.4436V19.0107Z" fill="#A7A7A7"/>
<path d="M67.8031 24.4008C67.8031 23.8545 68.2366 23.4175 68.7784 23.4175C69.3203 23.4175 69.7537 23.8545 69.7537 24.4008C69.7537 24.9471 69.3203 25.3842 68.7784 25.3842C68.2366 25.3842 67.8031 24.9471 67.8031 24.4008C67.8031 24.4373 67.8031 24.4373 67.8031 24.4008Z" fill="#A7A7A7"/>
<path d="M74.1247 16.7162H75.6779L76.3643 20.3218C76.6172 21.6693 76.7255 23.0168 76.7978 23.5267H76.8339C76.9061 22.9076 77.0145 21.7786 77.3035 20.4674L78.0621 16.7162H79.507L80.2656 20.5039C80.4462 21.5236 80.6268 22.6891 80.6991 23.5631C80.7713 22.7619 80.8797 21.5965 81.1325 20.3218L81.7828 16.7526H83.2638L81.5299 25.3113H79.9044L79.1458 21.4144C78.9652 20.4674 78.8568 19.3749 78.7845 18.8286H78.7484C78.7123 19.302 78.5678 20.5039 78.3872 21.3779L77.5925 25.3113H75.8586L74.1247 16.7162Z" fill="#A7A7A7"/>
<path d="M84.6726 20.067L83.8779 19.9213V19.0108H86.0814V25.2386H84.7087V20.067H84.6726ZM84.4559 17.1898C84.4559 16.6799 84.8532 16.2793 85.359 16.2793C85.8647 16.2793 86.262 16.6799 86.262 17.1898C86.262 17.6997 85.8647 18.1003 85.359 18.1003C84.8532 18.0639 84.4559 17.6632 84.4559 17.1898Z" fill="#A7A7A7"/>
<path d="M87.6347 23.6361V16.2793H89.0435V23.8182C89.0435 24.2188 89.1519 24.2916 89.477 24.2916C89.5492 24.2916 89.6215 24.2916 89.6576 24.2916L89.8382 25.2386C89.5492 25.3478 89.2602 25.3842 88.9713 25.3842C87.8876 25.3842 87.6347 24.8744 87.6347 23.6361Z" fill="#A7A7A7"/>
<path d="M90.8135 23.6361V16.2793H92.2224V23.8182C92.2224 24.2188 92.3307 24.2916 92.6558 24.2916C92.7281 24.2916 92.8003 24.2916 92.8365 24.2916L93.0171 25.2386C92.7281 25.3478 92.4391 25.3842 92.1501 25.3842C91.0664 25.3842 90.8135 24.8744 90.8135 23.6361Z" fill="#A7A7A7"/>
<path d="M94.0646 19.0108H95.1845L95.3289 19.6663C95.8347 19.1929 96.3765 18.8287 97.0629 18.8287C97.677 18.8287 98.1465 19.0836 98.3633 19.6299C98.9051 19.1565 99.447 18.8287 100.133 18.8287C101.036 18.8287 101.614 19.2657 101.614 20.4311V25.2386H100.206V20.8318C100.206 20.1762 100.025 20.0305 99.6276 20.0305C99.2664 20.0305 98.869 20.249 98.5439 20.5404V25.275H97.1351V20.8318C97.1351 20.1762 96.9545 20.0305 96.5571 20.0305C96.1959 20.0305 95.8347 20.2855 95.4734 20.5768V25.2386H94.0646V19.0108Z" fill="#A7A7A7"/>
<path d="M102.806 23.4539C102.806 22.0336 103.637 21.378 105.588 21.378H106.021V21.0138C106.021 20.3583 105.949 19.9941 105.227 19.9941C104.613 19.9941 104.035 20.249 103.529 20.5768L103.023 19.5934C103.71 19.12 104.54 18.865 105.407 18.865C106.78 18.865 107.43 19.4113 107.43 20.8317V25.2749H106.347L106.166 24.7286C105.805 25.1657 105.263 25.4206 104.685 25.457C103.421 25.4206 102.806 24.6922 102.806 23.4539ZM106.021 23.891V22.2885H105.805C104.468 22.2885 104.251 22.6527 104.251 23.4175C104.251 24.1459 104.468 24.3644 104.974 24.3644C105.407 24.4008 105.769 24.1095 106.021 23.891Z" fill="#A7A7A7"/>
<path d="M108.947 19.0107H110.067L110.212 19.8119C110.645 19.2656 111.187 18.9014 111.837 18.9014C111.946 18.9014 112.09 18.9014 112.198 18.9378L111.982 20.3946C111.837 20.3218 111.657 20.2854 111.476 20.2854C111.043 20.2854 110.645 20.431 110.32 20.7588V25.2749H108.911L108.947 19.0107Z" fill="#A7A7A7"/>
<path d="M116.172 24.5829L116.714 23.4539C117.328 23.9273 117.906 24.1458 118.665 24.1458C119.64 24.1458 120.037 23.6724 120.037 22.944C120.037 22.0699 119.568 21.815 118.665 21.5236C117.256 21.0137 116.497 20.4674 116.497 18.9014C116.497 17.2989 117.509 16.5341 119.026 16.5341C120.001 16.5341 120.615 16.7526 121.193 17.1168L120.651 18.2458C120.218 17.9181 119.676 17.7724 119.134 17.7724C118.412 17.7724 117.978 18.1002 117.978 18.7921C117.978 19.5205 118.231 19.7391 119.134 20.0668C120.471 20.5403 121.554 21.0137 121.554 22.7983C121.554 24.2551 120.868 25.3841 118.773 25.3841C117.725 25.4205 116.75 25.0563 116.172 24.5829Z" fill="#A7A7A7"/>
<path d="M122.71 22.1427C122.71 19.8119 123.613 18.865 125.239 18.865C125.925 18.8285 126.575 19.0835 127.081 19.5934L126.359 20.5403C126.034 20.2125 125.745 20.0304 125.311 20.0304C124.516 20.0304 124.227 20.3582 124.227 22.1427C124.227 23.9273 124.516 24.3279 125.383 24.3279C125.889 24.3279 126.142 24.1094 126.467 23.8181L127.153 24.7285C126.684 25.2384 125.997 25.4934 125.311 25.4569C123.541 25.4205 122.71 24.3643 122.71 22.1427Z" fill="#A7A7A7"/>
<path d="M128.165 16.2793H129.574V19.5935C130.043 19.1565 130.549 18.8651 131.271 18.8651C132.247 18.8651 132.825 19.3386 132.825 20.504V25.275H131.416V20.8318C131.416 20.1762 131.199 20.0305 130.766 20.0305C130.332 20.0305 129.935 20.249 129.574 20.5768V25.2386H128.165V16.2793Z" fill="#A7A7A7"/>
<path d="M133.728 19.0108H135.173L135.787 21.7423C135.931 22.3978 136.04 23.3811 136.076 23.6361C136.148 23.0534 136.256 22.4707 136.365 21.8879L137.051 19.0472H138.388L139.074 21.9244C139.219 22.5435 139.363 23.454 139.399 23.6725C139.435 23.4176 139.544 22.4342 139.688 21.7787L140.302 19.0472H141.711L140.049 25.275H138.713L137.99 22.2886C137.846 21.7058 137.738 20.941 137.665 20.5404C137.593 20.941 137.521 21.6694 137.34 22.2886L136.618 25.2386H135.317L133.728 19.0108Z" fill="#A7A7A7"/>
<path d="M142.434 23.4539C142.434 22.0336 143.264 21.378 145.215 21.378H145.649V21.0138C145.649 20.3583 145.576 19.9941 144.854 19.9941C144.24 19.9941 143.662 20.249 143.156 20.5768L142.65 19.5934C143.337 19.12 144.167 18.865 145.034 18.865C146.407 18.865 147.057 19.4113 147.057 20.8317V25.2749H145.974L145.793 24.7286C145.432 25.1657 144.89 25.4206 144.312 25.457C143.012 25.4206 142.434 24.6922 142.434 23.4539ZM145.612 23.891V22.2885H145.396C144.059 22.2885 143.842 22.6527 143.842 23.4175C143.842 24.1459 144.059 24.3644 144.565 24.3644C145.034 24.4008 145.396 24.1095 145.612 23.891Z" fill="#A7A7A7"/>
<path d="M149.839 24.6923L149.694 25.275H148.574V16.2793H149.983V19.5571C150.381 19.12 150.922 18.8651 151.5 18.8651C152.765 18.8651 153.596 19.5571 153.596 22.07C153.596 24.5466 152.909 25.4571 151.464 25.4571C150.85 25.4207 150.236 25.1293 149.839 24.6923ZM152.078 22.1429C152.078 20.3947 151.862 20.0305 151.103 20.0305C150.597 20.0305 150.272 20.249 149.947 20.5768V23.8182C150.236 24.1095 150.634 24.2916 151.031 24.2916C151.789 24.2552 152.078 23.9274 152.078 22.1429Z" fill="#A7A7A7"/>
<path d="M154.643 22.1428C154.643 19.7755 155.582 18.865 157.136 18.865C158.797 18.865 159.592 19.812 159.592 22.07V22.5434H156.124C156.16 23.9638 156.522 24.2916 157.389 24.2916C158.039 24.2916 158.4 24.0366 158.797 23.7453L159.448 24.6922C158.87 25.2021 158.147 25.457 157.389 25.4206C155.582 25.4206 154.643 24.4737 154.643 22.1428ZM156.124 21.5237H158.147C158.147 20.3218 157.93 19.8848 157.136 19.8848C156.558 19.9212 156.233 20.2126 156.124 21.5237Z" fill="#A7A7A7"/>
<path d="M57.1829 29.937H59.9282V30.7382H58.1221V32.1222H59.567V32.9234H58.1221V35.3636H57.1829V29.937Z" fill="#A7A7A7"/>
<path d="M60.5784 31.3936H61.3009L61.4093 31.9035C61.626 31.5393 62.0233 31.3572 62.4568 31.3208C62.5291 31.3208 62.6013 31.3208 62.6736 31.3572L62.5291 32.2677C62.4207 32.2313 62.3123 32.1949 62.204 32.1949C61.9511 32.1949 61.6621 32.3041 61.4815 32.4862V35.3634H60.5784V31.3936Z" fill="#A7A7A7"/>
<path d="M63.1432 33.3967C63.1432 31.9035 63.7573 31.3208 64.8048 31.3208C65.8163 31.3208 66.4665 31.9035 66.4665 33.3967C66.4665 34.8899 65.8163 35.4726 64.8048 35.4726C63.7934 35.4726 63.1432 34.8535 63.1432 33.3967ZM65.5273 33.3967C65.5273 32.2677 65.3106 31.9763 64.8048 31.9763C64.2991 31.9763 64.0824 32.2677 64.0824 33.3967C64.0824 34.5257 64.2991 34.8171 64.8048 34.8171C65.3106 34.8171 65.5273 34.4893 65.5273 33.3967Z" fill="#A7A7A7"/>
<path d="M67.3335 31.3936H68.0559L68.1643 31.8307C68.4894 31.5393 68.8145 31.3208 69.2841 31.3208C69.6815 31.3208 69.9705 31.4665 70.115 31.8307C70.4401 31.5393 70.8013 31.3208 71.2348 31.3208C71.8128 31.3208 72.174 31.6121 72.174 32.3405V35.3998H71.2709V32.559C71.2709 32.1584 71.1625 32.0492 70.9097 32.0492C70.6568 32.0856 70.404 32.1949 70.2233 32.3769V35.3634H69.3203V32.5226C69.3203 32.122 69.2119 32.0128 68.959 32.0128C68.7423 32.0128 68.4894 32.1584 68.2727 32.3769V35.3634H67.3696V31.3936H67.3335Z" fill="#A7A7A7"/>
<path d="M75.4612 29.937H76.3643L77.6647 32.7049C77.8453 33.1419 78.0259 33.5426 78.1704 34.016C78.0982 33.5061 78.0621 33.0327 78.0621 32.5228V29.9734H78.929V35.4H77.9537L76.7255 32.8142C76.5088 32.3771 76.3281 31.9037 76.1837 31.4302C76.2559 31.9765 76.292 32.4864 76.292 33.0327V35.4364H75.4251L75.4612 29.937Z" fill="#A7A7A7"/>
<path d="M79.9043 34.2344C79.9043 33.3239 80.4462 32.9233 81.6744 32.9233H81.9633V32.7048C81.9633 32.3042 81.9272 32.0492 81.4576 32.0492C81.0603 32.0857 80.699 32.1949 80.3739 32.4134L80.0488 31.7579C80.4823 31.4665 81.0241 31.2844 81.566 31.2844C82.4329 31.2844 82.8664 31.6122 82.8664 32.5227V35.3634H82.1801L82.0717 35.0357C81.8188 35.327 81.4937 35.4727 81.1325 35.4727C80.3017 35.4727 79.9043 34.9992 79.9043 34.2344ZM81.9633 34.4894V33.506H81.8188C80.9519 33.506 80.8074 33.7245 80.8074 34.2344C80.8074 34.7079 80.9519 34.8536 81.277 34.8536C81.566 34.8171 81.7827 34.7079 81.9633 34.4894Z" fill="#A7A7A7"/>
<path d="M83.5889 31.3936H84.0224V30.4103L84.8893 30.2282V31.3936H85.6479V32.0856H84.8893V34.38C84.8893 34.6714 84.9977 34.7806 85.1783 34.7806C85.3228 34.7806 85.4312 34.7442 85.5757 34.6714L85.7202 35.2905C85.5034 35.3998 85.2867 35.4726 85.0338 35.4726C84.4197 35.4726 83.9863 35.2541 83.9863 34.5621V32.0856H83.5528L83.5889 31.3936Z" fill="#A7A7A7"/>
<path d="M86.4065 34.38V31.3936H87.3096V34.1615C87.3096 34.5985 87.4541 34.7078 87.743 34.7078C88.032 34.7078 88.2488 34.5621 88.5016 34.3436V31.3571H89.3686V35.3269H88.6461L88.5378 34.8898C88.2126 35.2176 87.9237 35.4361 87.4179 35.4361C86.8761 35.4726 86.4065 35.1448 86.4065 34.38Z" fill="#A7A7A7"/>
<path d="M90.4523 31.3936H91.1748L91.2831 31.9035C91.4999 31.5393 91.8972 31.3572 92.3307 31.3208C92.403 31.3208 92.4752 31.3208 92.5475 31.3572L92.403 32.2677C92.2946 32.2313 92.1862 32.1949 92.0779 32.1949C91.825 32.1949 91.536 32.3041 91.3554 32.4862V35.3634H90.4523V31.3936Z" fill="#A7A7A7"/>
<path d="M93.017 33.3967C93.017 31.9035 93.6311 31.3208 94.6065 31.3208C95.654 31.3208 96.1597 31.9035 96.1597 33.3603V33.6516H93.9562C93.9924 34.5621 94.2091 34.7806 94.7509 34.7806C95.0761 34.7806 95.4012 34.635 95.654 34.4165L96.0875 35.0356C95.7263 35.3634 95.2567 35.509 94.7871 35.509C93.595 35.4726 93.017 34.8535 93.017 33.3967ZM93.9562 32.9961H95.2567C95.2567 32.2313 95.1122 31.9399 94.6065 31.9399C94.2091 31.9763 93.9924 32.1584 93.9562 32.9961Z" fill="#A7A7A7"/>
<path d="M96.9183 34.8171C96.9183 34.4894 97.2073 34.198 97.5324 34.198C97.8575 34.198 98.1465 34.4894 98.1465 34.8171C98.1465 35.1449 97.8575 35.4363 97.5324 35.4363C97.2073 35.4727 96.9183 35.1813 96.9183 34.8171Z" fill="#A7A7A7"/>
<path d="M104.143 29.937V30.7382H102.301V32.1222H103.746V32.9234H102.301V35.3636H101.362V29.937H104.143Z" fill="#A7A7A7"/>
<path d="M104.685 33.3967C104.685 31.9035 105.335 31.3208 106.346 31.3208C107.358 31.3208 108.008 31.9035 108.008 33.3967C108.008 34.8899 107.358 35.4726 106.346 35.4726C105.335 35.4726 104.685 34.8535 104.685 33.3967ZM107.033 33.3967C107.033 32.2677 106.816 31.9763 106.31 31.9763C105.805 31.9763 105.588 32.2677 105.588 33.3967C105.588 34.5257 105.805 34.8171 106.31 34.8171C106.816 34.8171 107.069 34.4893 107.033 33.3967Z" fill="#A7A7A7"/>
<path d="M108.875 31.3936H109.598L109.706 31.9035C109.923 31.5393 110.32 31.3572 110.717 31.3208C110.79 31.3208 110.862 31.3208 110.934 31.3572L110.79 32.2677C110.681 32.2313 110.573 32.1949 110.465 32.1949C110.212 32.1949 109.923 32.3041 109.742 32.4862V35.3634H108.839L108.875 31.3936Z" fill="#A7A7A7"/>
<path d="M113.896 29.937H114.835V32.0858H116.425V29.937H117.364V35.3636H116.425V32.887H114.835V35.3636H113.896V29.937Z" fill="#A7A7A7"/>
<path d="M118.376 33.3967C118.376 31.9035 118.99 31.3208 119.965 31.3208C121.013 31.3208 121.518 31.9035 121.518 33.3603V33.6516H119.315C119.351 34.5621 119.568 34.7806 120.109 34.7806C120.435 34.7806 120.76 34.635 121.013 34.4165L121.446 35.0356C121.085 35.3634 120.615 35.509 120.146 35.509C118.953 35.4726 118.376 34.8535 118.376 33.3967ZM119.315 32.9961H120.615C120.615 32.2313 120.471 31.9399 119.965 31.9399C119.568 31.9763 119.387 32.1584 119.315 32.9961Z" fill="#A7A7A7"/>
<path d="M122.205 34.2344C122.205 33.3239 122.746 32.9233 123.975 32.9233H124.264V32.7048C124.264 32.3042 124.227 32.0492 123.758 32.0492C123.361 32.0857 122.999 32.1949 122.674 32.4134L122.349 31.7579C122.783 31.4665 123.324 31.2844 123.866 31.2844C124.733 31.2844 125.167 31.6122 125.167 32.5227V35.3634H124.48L124.372 35.0357C124.119 35.327 123.794 35.4727 123.433 35.4727C122.602 35.4727 122.205 34.9992 122.205 34.2344ZM124.227 34.4894V33.506H124.083C123.216 33.506 123.072 33.7245 123.072 34.2344C123.072 34.7079 123.216 34.8536 123.541 34.8536C123.83 34.8171 124.083 34.7079 124.227 34.4894Z" fill="#A7A7A7"/>
<path d="M126.178 34.3437V29.6455H127.081V34.4529C127.081 34.7079 127.153 34.7443 127.37 34.7443C127.406 34.7443 127.442 34.7443 127.479 34.7443L127.587 35.3634C127.406 35.4363 127.226 35.4727 127.009 35.4727C126.359 35.4727 126.178 35.1085 126.178 34.3437Z" fill="#A7A7A7"/>
<path d="M127.912 31.3936H128.345V30.4103L129.212 30.2282V31.3936H129.971V32.0856H129.212V34.38C129.212 34.6714 129.321 34.7806 129.501 34.7806C129.646 34.7806 129.754 34.7442 129.899 34.6714L130.043 35.3269C129.827 35.4362 129.61 35.509 129.357 35.509C128.743 35.509 128.309 35.2905 128.309 34.5985V32.122H127.876L127.912 31.3936Z" fill="#A7A7A7"/>
<path d="M130.766 29.6455H131.669V31.7579C131.958 31.4665 132.355 31.2844 132.753 31.2844C133.367 31.2844 133.728 31.5758 133.728 32.3042V35.3634H132.825V32.5591C132.825 32.1585 132.68 32.0492 132.391 32.0492C132.102 32.0857 131.849 32.1949 131.633 32.4134V35.3999H130.766V29.6455Z" fill="#A7A7A7"/>
<path d="M134.739 34.8172C134.739 34.4894 134.992 34.1981 135.317 34.1616C135.642 34.1616 135.931 34.4166 135.967 34.7444C135.967 34.7808 135.967 34.7808 135.967 34.8172C135.967 35.145 135.678 35.4363 135.317 35.3999C134.992 35.3999 134.739 35.145 134.739 34.8172Z" fill="#A7A7A7"/>
</svg>
