<svg width="162" height="331" viewBox="0 0 162 331" fill="none" xmlns="http://www.w3.org/2000/svg">
<path d="M81.1236 109.591C80.3816 110.086 78.6503 110.333 76.6717 110.333C71.9725 110.333 68.2626 107.365 68.2626 101.675C68.2626 96.4798 71.9725 92.7691 77.1664 92.7691C79.3923 92.7691 80.629 93.2638 81.1236 93.5112L80.629 95.2429C79.887 94.7481 78.6504 94.5007 77.1664 94.5007C73.2091 94.5007 70.4885 96.9746 70.4885 101.428C70.4885 105.633 72.9618 108.107 76.9191 108.107C78.1557 108.107 79.6397 107.859 80.3816 107.365L81.1236 109.591Z" fill="#4E1F75"/>
<path d="M85.8228 93.2637V100.438H93.9846V93.2637H96.2106V110.086H93.9846V102.17H85.8228V110.086H83.5968V93.2637H85.8228Z" fill="#4E1F75"/>
<path fill-rule="evenodd" clip-rule="evenodd" d="M120.682 16.6801L90.0135 36.9656L89.5468 36.26L120.215 15.9745L120.682 16.6801ZM43.7796 21.4284L64.0605 36.2715L63.5608 36.9542L43.2799 22.1111L43.7796 21.4284Z" fill="#4E1F75"/>
<path d="M80.629 54.9193C79.8871 55.4141 78.1558 55.6615 76.1771 55.6615C71.4779 55.6615 67.768 52.6929 67.768 47.003C67.768 41.808 71.4779 38.0972 76.6718 38.0972C78.8978 38.0972 80.1344 38.592 80.629 38.8393L80.1344 40.571C79.3924 40.0763 78.1558 39.8289 76.6718 39.8289C72.7145 39.8289 69.9939 42.3027 69.9939 46.7556C69.9939 50.9612 72.4672 53.435 76.4245 53.435C77.6611 53.435 79.1451 53.1876 79.8871 52.6929L80.629 54.9193Z" fill="#4E1F75"/>
<path fill-rule="evenodd" clip-rule="evenodd" d="M73.2809 87.8213V60.8565H74.1269V87.8213H73.2809ZM78.0841 60.8565V87.8213H77.2381V60.8565H78.0841Z" fill="#4E1F75"/>
<path d="M126.137 136.061C125.396 136.556 123.664 136.803 121.686 136.803C116.986 136.803 113.276 133.835 113.276 128.145C113.276 122.95 116.986 119.239 122.18 119.239C124.406 119.239 125.643 119.734 126.137 119.981L125.643 121.713C124.901 121.218 123.664 120.971 122.18 120.971C118.223 120.971 115.502 123.445 115.502 127.898C115.502 132.103 117.976 134.577 121.933 134.577C123.17 134.577 124.654 134.33 125.396 133.835L126.137 136.061Z" fill="#4E1F75"/>
<path d="M131.084 119.486V126.661H139.246V119.486H141.472V136.309H139.246V128.392H131.084V136.309H128.858V119.486H131.084Z" fill="#4E1F75"/>
<path d="M145.182 142.741V141.751L146.418 140.514C149.139 137.793 150.375 136.556 150.375 134.824C150.375 133.835 149.881 132.598 148.15 132.598C147.16 132.598 146.418 133.093 145.924 133.587L145.429 132.598C146.171 131.856 147.16 131.608 148.397 131.608C150.623 131.608 151.612 133.093 151.612 134.824C151.612 136.803 150.128 138.535 147.902 140.762L146.913 141.504H151.859V142.741H145.182Z" fill="#4E1F75"/>
<path fill-rule="evenodd" clip-rule="evenodd" d="M118.542 168.469V141.504H119.388V168.469H118.542ZM123.345 141.504V168.469H122.499V141.504H123.345Z" fill="#4E1F75"/>
<path d="M126.137 191.475C125.396 191.97 123.664 192.217 121.686 192.217C116.986 192.217 113.276 189.249 113.276 183.559C113.276 178.364 116.986 174.653 122.18 174.653C124.406 174.653 125.643 175.148 126.137 175.395L125.643 177.127C124.901 176.632 123.664 176.385 122.18 176.385C118.223 176.385 115.502 178.859 115.502 183.312C115.502 187.517 117.976 189.991 121.933 189.991C123.17 189.991 124.654 189.744 125.396 189.249L126.137 191.475Z" fill="#4E1F75"/>
<path d="M130.837 175.148V182.322H138.998V175.148H141.224V191.97H138.998V184.054H130.837V191.97H128.611V175.148H130.837Z" fill="#4E1F75"/>
<path d="M82.6076 227.346C81.8656 227.841 80.1343 228.088 78.1556 228.088C73.4564 228.088 69.7465 225.12 69.7465 219.43C69.7465 214.235 73.4564 210.524 78.6503 210.524C80.8763 210.524 82.1129 211.019 82.6076 211.266L82.1129 212.998C81.3709 212.503 80.1343 212.256 78.6503 212.256C74.693 212.256 71.9724 214.729 71.9724 219.182C71.9724 223.388 74.4457 225.862 78.403 225.862C79.6396 225.862 81.1236 225.614 81.8656 225.12L82.6076 227.346Z" fill="#4E1F75"/>
<path d="M83.5969 292.161C82.8549 292.655 81.1236 292.903 79.145 292.903C74.4458 292.903 70.7358 289.934 70.7358 284.244C70.7358 279.049 74.4458 275.338 79.6397 275.338C81.8656 275.338 83.1022 275.833 83.5969 276.081L83.1022 277.812C82.3603 277.318 81.1236 277.07 79.6397 277.07C75.6824 277.07 72.9618 279.544 72.9618 283.997C72.9618 288.202 75.4351 290.676 79.3923 290.676C80.629 290.676 82.1129 290.429 82.8549 289.934L83.5969 292.161Z" fill="#4E1F75"/>
<path d="M148.644 258.764C148.644 264.701 145.182 267.67 140.73 267.67C136.278 267.67 133.063 264.206 133.063 259.011C133.063 253.569 136.278 250.105 140.977 250.105C145.676 250.353 148.644 253.816 148.644 258.764ZM135.536 259.259C135.536 262.969 137.515 266.185 140.977 266.185C144.44 266.185 146.418 262.969 146.418 259.259C146.418 255.795 144.687 252.332 140.977 252.332C137.267 252.084 135.536 255.548 135.536 259.259Z" fill="#4E1F75"/>
<path d="M34.3786 283.997C34.3786 289.934 30.916 292.903 26.4641 292.903C22.0122 292.903 18.7969 289.439 18.7969 284.244C18.7969 278.802 22.0122 275.338 26.7114 275.338C31.4107 275.338 34.3786 279.049 34.3786 283.997ZM21.2702 284.244C21.2702 287.955 23.2488 291.171 26.7114 291.171C30.174 291.171 32.1526 287.955 32.1526 284.244C32.1526 280.781 30.4213 277.318 26.7114 277.318C23.2488 277.07 21.2702 280.534 21.2702 284.244Z" fill="#4E1F75"/>
<path d="M138.998 330.258C138.256 330.753 136.525 331 134.547 331C129.847 331 126.137 328.031 126.137 322.341C126.137 317.146 129.847 313.436 135.041 313.436C137.267 313.436 138.504 313.93 138.998 314.178L138.504 315.91C137.762 315.415 136.525 315.167 135.041 315.167C131.084 315.167 128.363 317.641 128.363 322.094C128.363 326.3 130.837 328.773 134.794 328.773C136.031 328.773 137.514 328.526 138.256 328.031L138.998 330.258Z" fill="#4E1F75"/>
<path d="M143.698 313.93V321.104H151.859V313.93H154.085V330.752H151.859V322.836H143.698V330.752H141.472V313.93H143.698Z" fill="#4E1F75"/>
<path d="M2.22595 230.067V237.241H10.3878V230.067H12.6137V246.889H10.3878V238.973H2.22595V246.889H0V230.067H2.22595Z" fill="#4E1F75"/>
<path d="M15.5816 251.59C16.0763 251.837 17.0656 252.332 18.0549 252.332C20.0335 252.332 20.5282 251.095 20.5282 250.105C20.5282 248.621 19.0442 247.879 17.8076 247.879H16.8182V246.889H17.5602C18.5495 246.889 20.0335 246.395 20.0335 245.158C20.0335 244.168 19.5389 243.426 18.0549 243.426C17.0656 243.426 16.3236 243.921 15.8289 244.168L15.3343 243.179C16.3236 242.684 17.3129 242.189 18.5495 242.189C20.7755 242.189 21.7648 243.426 21.7648 244.663C21.7648 245.9 21.0228 246.642 19.7862 247.137C21.0228 247.384 22.2595 248.374 22.2595 249.858C22.2595 251.59 21.0228 253.074 18.3022 253.074C17.0656 253.074 16.0763 252.579 15.5816 252.332V251.59Z" fill="#4E1F75"/>
<path d="M36.3573 246.395C35.6153 246.889 33.884 247.137 31.9053 247.137C27.2061 247.137 23.4962 244.168 23.4962 238.478C23.4962 233.283 27.2061 229.572 32.4 229.572C34.626 229.572 35.8626 230.067 36.3573 230.315L35.8626 232.046C35.1206 231.551 33.884 231.304 32.4 231.304C28.4427 231.304 25.7221 233.778 25.7221 238.231C25.7221 242.436 28.1954 244.91 32.1527 244.91C33.3893 244.91 34.8733 244.663 35.6153 244.168L36.3573 246.395Z" fill="#4E1F75"/>
<path d="M5.68859 3.21589V10.39H13.8504V3.21589H16.0764V20.038H13.8504V12.1217H5.68859V20.038H3.46263V3.21589H5.68859Z" fill="#4E1F75"/>
<path d="M19.0442 24.7383C19.5389 24.9857 20.5282 25.4805 21.5175 25.4805C23.4961 25.4805 23.9908 24.2436 23.9908 23.254C23.9908 21.7697 22.5068 21.0276 21.2702 21.0276H20.2809V20.038H21.0229C22.0122 20.038 23.4961 19.5433 23.4961 18.3064C23.4961 17.3168 23.0015 16.5747 21.5175 16.5747C20.5282 16.5747 19.7862 17.0694 19.2916 17.3168L19.0442 16.0799C19.5389 15.5851 20.7755 15.3377 21.7649 15.3377C23.9908 15.3377 24.9801 16.5747 24.9801 17.8116C24.9801 19.0485 24.2381 19.7907 23.0015 20.2854C24.2381 20.5328 25.4748 21.5223 25.4748 23.0067C25.4748 24.7383 24.2381 26.2226 21.5175 26.2226C20.2809 26.2226 19.2916 25.7279 18.7969 25.4805L19.0442 24.7383Z" fill="#4E1F75"/>
<path d="M39.8199 19.5433C39.0779 20.0381 37.3466 20.2855 35.368 20.2855C30.6687 20.2855 26.9588 17.3169 26.9588 11.627C26.9588 6.43195 30.6687 2.72119 35.8626 2.72119C38.0886 2.72119 39.3252 3.21596 39.8199 3.46334L39.3252 5.19503C38.5832 4.70026 37.3466 4.45288 35.8626 4.45288C31.9054 4.45288 29.1848 6.92672 29.1848 11.3796C29.1848 15.5852 31.6581 18.059 35.6153 18.059C36.8519 18.059 38.3359 17.8116 39.0779 17.3169L39.8199 19.5433Z" fill="#4E1F75"/>
<path d="M5.68859 173.169V180.343H13.8504V173.169H16.0764V189.991H13.8504V182.075H5.68859V189.991H3.46263V173.169H5.68859Z" fill="#4E1F75"/>
<path d="M18.7969 196.423V195.434L19.7862 194.444C22.5068 191.723 23.7435 190.486 23.7435 188.754C23.7435 187.765 23.2488 186.528 21.5175 186.528C20.5282 186.528 19.7862 187.022 19.2916 187.517L18.7969 186.528C19.7862 185.786 20.7755 185.291 22.0122 185.291C24.2381 185.291 25.2274 186.775 25.2274 188.507C25.2274 190.486 23.7435 192.218 21.5175 194.444L20.5282 195.186H25.4748V196.423H18.7969Z" fill="#4E1F75"/>
<path d="M40.3145 189.744C39.5725 190.238 37.8412 190.486 35.8626 190.486C31.1633 190.486 27.4534 187.517 27.4534 181.827C27.4534 176.632 31.1633 172.922 36.3572 172.922C38.5832 172.922 39.8198 173.416 40.3145 173.664L39.5725 175.395C38.8305 174.901 37.5939 174.653 36.1099 174.653C32.1526 174.653 29.432 177.127 29.432 181.58C29.432 185.786 31.9053 188.259 35.8626 188.259C37.0992 188.259 38.5832 188.012 39.3252 187.517L40.3145 189.744Z" fill="#4E1F75"/>
<path d="M5.19396 119.486V126.661H13.3558V119.486H15.5817V136.309H13.3558V128.392H5.19396V136.309H3.21534V119.486H5.19396Z" fill="#4E1F75"/>
<path d="M18.5496 142.741V141.751L19.7863 140.514C22.5069 137.793 23.7435 136.556 23.7435 134.824C23.7435 133.835 23.2489 132.598 21.5176 132.598C20.5282 132.598 19.7863 133.093 19.2916 133.587L18.7969 132.598C19.5389 131.856 20.5282 131.608 21.7649 131.608C23.9908 131.608 24.9802 133.093 24.9802 134.824C24.9802 136.803 23.4962 138.535 21.2702 140.762L20.2809 141.504H25.2275V142.741H18.5496Z" fill="#4E1F75"/>
<path d="M39.8199 136.061C39.0779 136.556 37.3466 136.803 35.368 136.803C30.6687 136.803 26.9588 133.835 26.9588 128.145C26.9588 122.95 30.6687 119.239 35.8626 119.239C38.0886 119.239 39.3252 119.734 39.8199 119.981L39.3252 121.713C38.5832 121.218 37.3466 120.971 35.8626 120.971C31.9054 120.971 29.1848 123.445 29.1848 127.898C29.1848 132.103 31.6581 134.577 35.6153 134.577C36.8519 134.577 38.3359 134.33 39.0779 133.835L39.8199 136.061Z" fill="#4E1F75"/>
<path d="M136.031 16.8221C135.289 17.3169 133.557 17.5643 131.579 17.5643C126.879 17.5643 123.17 14.5957 123.17 8.90583C123.17 3.71076 126.879 0 132.073 0C134.299 0 135.536 0.494768 136.031 0.742152L135.536 2.72123C134.794 2.22646 133.557 1.97907 132.073 1.97907C128.116 1.97907 125.395 4.45291 125.395 8.90583C125.395 13.1114 127.869 15.5852 131.826 15.5852C133.063 15.5852 134.547 15.3378 135.289 14.843L136.031 16.8221Z" fill="#4E1F75"/>
<path d="M140.977 0.494696V7.66884H149.139V0.494696H151.365V17.5642H149.139V9.40053H140.977V17.5642H138.751V0.494696H140.977Z" fill="#4E1F75"/>
<path d="M155.57 22.0172C156.064 22.2645 157.054 22.7593 158.043 22.7593C160.021 22.7593 160.516 21.5224 160.516 20.5328C160.516 19.0485 159.032 18.3064 157.796 18.3064H157.054V17.3169H157.796C158.785 17.3169 160.269 16.8221 160.269 15.5852C160.269 14.5956 159.774 13.8535 158.29 13.8535C157.301 13.8535 156.559 14.3482 156.064 14.5956L155.57 13.6061C156.064 13.1113 157.301 12.6166 158.29 12.6166C160.516 12.6166 161.505 13.8535 161.505 15.0904C161.505 16.3273 160.763 17.0695 159.527 17.5642C160.763 17.8116 162 18.8012 162 20.2855C162 22.0172 160.763 23.5015 158.043 23.5015C156.806 23.5015 155.817 23.0067 155.322 22.7593L155.57 22.0172Z" fill="#4E1F75"/>
<path fill-rule="evenodd" clip-rule="evenodd" d="M66.5339 108.448L46.253 123.291L45.7533 122.609L66.0342 107.765L66.5339 108.448ZM34.945 167.479V140.267H35.791V167.479H34.945ZM45.7947 191.164L67.0649 210.707L66.4925 211.33L45.2223 191.787L45.7947 191.164ZM111.315 194.032L88.8083 212.091L88.2789 211.431L110.786 193.372L111.315 194.032ZM41.1599 234.617L67.1294 225.217L67.4173 226.012L41.4479 235.413L41.1599 234.617ZM88.0145 226.733L130.06 251.224L129.635 251.955L87.5887 227.464L88.0145 226.733ZM88.6465 278.652L130.198 263.561L130.486 264.356L88.9353 279.447L88.6465 278.652ZM65.7894 282.441H38.8306V281.595H65.7894V282.441ZM65.7894 286.399H38.8306V285.553H65.7894V286.399ZM88.5326 291.315L124.148 315.311L123.675 316.013L88.0599 292.017L88.5326 291.315Z" fill="#4E1F75"/>
</svg>
