<svg width="352" height="347" viewBox="0 0 352 347" fill="none" xmlns="http://www.w3.org/2000/svg">
<rect opacity="0.2" x="236.295" y="230.902" width="115.705" height="115.705" fill="#4E1F75"/>
<path d="M306.876 276.209C322.19 276.209 333.469 279.262 340.713 285.367C348.059 291.472 351.733 299.647 351.733 309.891C351.733 316.513 350.077 322.566 346.766 328.051C343.455 333.431 338.384 337.777 331.555 341.089C324.829 344.296 316.499 345.9 306.566 345.9C298.908 345.9 291.355 344.917 283.904 342.951C276.558 340.882 270.297 337.984 265.124 334.259L275.057 315.013C279.196 318.117 283.956 320.549 289.337 322.308C294.718 323.963 300.254 324.791 305.945 324.791C312.257 324.791 317.224 323.549 320.845 321.066C324.467 318.583 326.278 315.116 326.278 310.667C326.278 306.01 324.363 302.492 320.535 300.112C316.81 297.732 310.291 296.542 300.978 296.542H273.195L278.782 235.388H345.058V255.566H299.736L298.029 276.209H306.876Z" fill="white"/>
<path opacity="0.2" d="M337.598 208.097H319.904V230.913H295.38V208.097H236.865V191.178L288.085 122.264H314.471L266.976 187.609H296.156V167.276H319.904V187.609H337.598V208.097Z" fill="#4E1F75"/>
<rect opacity="0.2" x="120.968" y="115.516" width="115.705" height="115.705" fill="#4E1F75"/>
<path d="M207.052 164.238C216.572 165.79 223.867 169.36 228.937 174.947C234.008 180.431 236.543 187.261 236.543 195.435C236.543 201.747 234.887 207.594 231.576 212.975C228.265 218.252 223.194 222.494 216.365 225.702C209.639 228.91 201.361 230.514 191.531 230.514C183.874 230.514 176.32 229.531 168.87 227.565C161.523 225.495 155.263 222.598 150.089 218.873L159.867 199.626C164.006 202.73 168.766 205.162 174.147 206.921C179.631 208.577 185.219 209.405 190.91 209.405C197.222 209.405 202.189 208.215 205.811 205.835C209.432 203.351 211.243 199.885 211.243 195.435C211.243 186.537 204.465 182.087 190.91 182.087H179.424V165.479L201.775 140.179H155.521V120.002H231.576V136.299L207.052 164.238Z" fill="white"/>
<path opacity="0.2" d="M203.346 95.058V115.546H121.238V99.2488L163.145 59.6693C167.595 55.4268 170.596 51.8052 172.148 48.8044C173.7 45.7001 174.476 42.6476 174.476 39.6468C174.476 35.3008 172.976 31.9896 169.975 29.7131C167.078 27.3332 162.783 26.1432 157.092 26.1432C152.332 26.1432 148.038 27.0745 144.209 28.9371C140.381 30.6961 137.173 33.3865 134.586 37.0081L116.271 25.2119C120.513 18.8999 126.36 13.9848 133.81 10.4666C141.26 6.845 149.797 5.03418 159.42 5.03418C167.491 5.03418 174.528 6.37936 180.529 9.06973C186.634 11.6566 191.343 15.3817 194.654 20.2451C198.069 25.005 199.776 30.6444 199.776 37.1634C199.776 43.0615 198.534 48.5974 196.051 53.7712C193.567 58.945 188.756 64.8431 181.616 71.4655L156.626 95.058H203.346Z" fill="#4E1F75"/>
<rect opacity="0.2" width="115.705" height="115.705" fill="#4E1F75"/>
<path d="M115.961 4.48584V113.135H90.8163V24.6636H69.0864V4.48584H115.961Z" fill="white"/>
</svg>
