<svg width="320" height="100" viewBox="0 0 320 100" fill="none" xmlns="http://www.w3.org/2000/svg">
<rect opacity="0.2" x="251.193" width="68.8072" height="68.8072" fill="#4E1F75"/>
<path d="M293.166 26.9435C302.273 26.9435 308.98 28.7588 313.288 32.3893C317.657 36.0199 319.841 40.8811 319.841 46.9731C319.841 50.9113 318.856 54.5111 316.887 57.7725C314.918 60.9723 311.903 63.5568 307.842 65.5259C303.842 67.4335 298.888 68.3873 292.981 68.3873C288.427 68.3873 283.935 67.8027 279.505 66.6335C275.136 65.4028 271.413 63.6798 268.336 61.4646L274.244 50.0191C276.705 51.8651 279.536 53.3112 282.735 54.3573C285.935 55.3419 289.227 55.8341 292.612 55.8341C296.365 55.8341 299.319 55.0957 301.473 53.6189C303.627 52.142 304.703 50.0806 304.703 47.4346C304.703 44.6655 303.565 42.5734 301.288 41.1581C299.073 39.7428 295.196 39.0351 289.658 39.0351H273.136L276.459 2.66797H315.872V14.6673H288.92L287.904 26.9435H293.166Z" fill="white"/>
<path opacity="0.2" d="M250.497 86.35H239.975V100H225.391V86.35H190.593V76.2286L221.053 35H236.744L208.499 74.0929H225.852V61.9286H239.975V74.0929H250.497V86.35Z" fill="#4E1F75"/>
<rect opacity="0.2" x="121.672" width="68.8072" height="68.8072" fill="#4E1F75"/>
<path d="M172.864 28.9739C178.525 29.8969 182.863 32.0199 185.879 35.3428C188.894 38.6041 190.401 42.6654 190.401 47.5267C190.401 51.2803 189.417 54.757 187.448 57.9568C185.479 61.0951 182.463 63.6181 178.402 65.5256C174.402 67.4332 169.48 68.387 163.634 68.387C159.08 68.387 154.588 67.8024 150.158 66.6333C145.789 65.4026 142.066 63.6796 138.989 61.4643L144.804 50.0188C147.265 51.8649 150.096 53.311 153.296 54.357C156.557 55.3416 159.88 55.8339 163.265 55.8339C167.018 55.8339 169.972 55.1262 172.126 53.7109C174.279 52.2341 175.356 50.1727 175.356 47.5267C175.356 42.2347 171.326 39.5887 163.265 39.5887H156.434V29.7123L169.726 14.667H142.22V2.66772H187.448V12.3595L172.864 28.9739Z" fill="white"/>
<path opacity="0.2" d="M120.926 87.764V100H72.0976V90.2669L97.0192 66.6292C99.6652 64.0955 101.45 61.9326 102.373 60.1405C103.296 58.2865 103.757 56.4635 103.757 54.6713C103.757 52.0758 102.865 50.0983 101.081 48.7388C99.3576 47.3174 96.8039 46.6067 93.4194 46.6067C90.5888 46.6067 88.0351 47.1629 85.7583 48.2753C83.4816 49.3258 81.574 50.9326 80.0356 53.0955L69.1439 46.0506C71.6669 42.2809 75.1436 39.3455 79.5741 37.2444C84.0046 35.0815 89.0812 34 94.804 34C99.6037 34 103.788 34.8034 107.357 36.4101C110.988 37.9551 113.787 40.1798 115.757 43.0843C117.787 45.927 118.803 49.2949 118.803 53.1882C118.803 56.7107 118.064 60.0169 116.587 63.1067C115.11 66.1966 112.249 69.7191 108.003 73.6742L93.1425 87.764H120.926Z" fill="#4E1F75"/>
<rect opacity="0.2" width="68.8072" height="68.8072" fill="#4E1F75"/>
<path d="M68.9595 2.66748V67.2791H54.0066V14.6668H41.0842V2.66748H68.9595Z" fill="white"/>
</svg>
