<svg width="146" height="79" viewBox="0 0 146 79" fill="none" xmlns="http://www.w3.org/2000/svg">
<path d="M39.0615 1.32016C44.3956 -0.779778 50.6106 -0.340255 55.6511 2.39455C62.649 6.00839 67.3959 12.7477 70.5768 19.7312C71.5556 20.2196 72.9747 20.4149 73.2194 21.6847C73.513 22.9056 72.779 23.9799 72.2896 25.0543C73.4641 29.9379 74.296 34.9192 74.4428 39.9492C74.1003 45.7607 73.1705 51.621 71.4087 57.1883C68.4236 65.1485 63.2852 72.7669 55.6021 76.7714C51.4425 79.1155 46.4509 79.4085 41.8019 78.5783C34.9018 77.3574 28.3932 74.0366 23.4506 69.153C20.7591 66.5159 19.3399 62.9509 17.2356 59.9231C15.6207 57.8231 13.7611 56.0162 11.8525 54.2093C8.37803 50.8884 3.9737 48.7397 0.645996 45.2723C1.47792 43.8073 2.35879 42.3422 3.19072 40.8283C3.63115 40.926 4.56095 41.1701 5.00138 41.2678C7.44823 40.4864 9.89507 39.412 11.4611 37.2633C12.293 37.8493 13.4185 38.24 13.7121 39.3632C15.0334 42.3422 16.1101 45.4188 17.0399 48.5443C16.942 44.784 15.6696 41.1213 15.8164 37.4098C16.3547 37.4098 17.3824 37.4098 17.9207 37.4098C18.6548 29.8402 20.025 22.1242 23.8421 15.4825C27.1698 9.32922 32.2592 3.71311 39.0615 1.32016ZM35.6848 6.05723C31.1337 8.45018 27.9038 12.6012 24.9187 16.6546C21.3463 22.9544 18.8016 29.9379 18.508 37.2144C19.1931 38.0935 19.8293 38.9237 20.5144 39.8027C21.6399 39.5586 22.7655 39.3632 23.8421 39.119C24.2336 39.3632 25.0166 39.8516 25.4081 40.0957C26.7294 40.2911 28.0017 40.6818 29.2251 41.1701C29.323 41.9515 29.4209 42.7329 29.5188 43.5143C28.7847 44.1491 27.9038 44.7351 27.4145 45.5653C25.2613 49.1304 23.5485 52.9395 22.2272 56.8464C25.7017 65.295 32.5529 73.011 41.6551 75.3552C44.3466 75.697 47.0871 75.5993 49.8276 75.4528C56.5319 74.1831 61.9639 69.446 65.9278 64.0741C70.9194 57.0417 73.3662 48.4955 73.6109 39.9492C73.8067 34.8703 72.3875 29.9867 71.3598 25.0543C70.9194 25.0543 69.9896 25.0055 69.5002 24.9567C67.5427 23.1497 69.4513 20.6103 68.2768 18.5592C64.4597 11.5268 58.1958 5.4712 50.2191 3.51777C45.2275 2.10153 40.0402 3.66428 35.6848 6.05723ZM21.3952 65.295C24.1846 69.4949 28.3932 72.8645 33.0422 74.818C27.9038 70.7158 24.2336 65.1485 21.4442 59.2394C20.8569 61.2416 19.8293 63.4881 21.3952 65.295Z" fill="#CDCDCD"/>
<path d="M77.2812 13.6756C79.3854 13.0896 81.5876 13.5291 83.7408 13.6756C83.2025 14.3105 82.6642 14.9942 82.1259 15.629C82.028 16.6057 81.9791 17.5336 81.8812 18.5103C80.9025 17.9731 79.9238 17.4359 78.945 16.8988C78.8961 16.4104 78.8471 15.4337 78.7982 14.9453C78.4067 15.3848 78.0152 15.8244 77.6727 16.2639C80.4621 18.608 84.377 20.9033 87.9983 18.9987C89.5154 18.1196 92.4516 17.0941 91.2771 14.7988C91.0324 15.336 90.592 16.4592 90.3473 16.9964C89.5154 17.4848 88.6345 17.9243 87.8026 18.3638C87.8026 17.7778 87.8026 16.5569 87.8026 15.9709C87.1664 15.1895 86.6281 14.3105 86.1387 13.4314C88.7324 13.3337 91.6197 12.8454 93.8708 14.457C93.8708 18.1685 90.1026 19.5847 87.3622 21.001C85.7962 21.0498 84.2791 20.9033 82.7621 21.294C80.6578 20.1219 78.4067 19.0964 76.6939 17.4359C75.4705 16.4104 75.6662 14.2128 77.2812 13.6756Z" fill="#CDCDCD"/>
<path d="M94.0176 16.8012C97.3453 15.7268 100.918 16.1663 104.392 16.264C106.741 17.6314 103.511 19.4383 102.288 20.2197C103.022 22.5638 103.658 24.9567 104.245 27.3497C104.979 28.0334 105.713 28.7171 106.448 29.4496C104.392 29.5473 102.288 29.5473 100.233 29.4496C100.771 28.8148 101.358 28.1799 101.945 27.4962C101.505 25.3963 101.113 23.3452 100.82 21.2452C98.7155 22.2708 96.2687 23.2963 95.6325 25.7869C96.024 26.1288 96.8559 26.8613 97.2474 27.2032C97.7857 29.1566 95.8282 29.5961 94.4091 29.5961C93.0388 25.0544 96.4644 21.0987 97.7857 16.9965L97.0027 16.85C96.5623 17.5825 96.0729 18.3151 95.6325 19.0476C95.1431 18.5593 94.4091 17.3872 94.0176 16.8012ZM96.6112 22.515C98.2261 21.7336 99.7432 20.8057 101.211 19.829C100.33 19.243 99.7432 18.4128 99.156 17.5825C97.8347 18.9499 97.3453 20.8545 96.6112 22.515Z" fill="#CDCDCD"/>
<path d="M105.224 16.3127C109.677 16.3616 114.326 15.5314 118.633 16.8011C117.556 18.1685 114.816 19.0964 116.284 21.1963C113.886 21.2451 114.963 18.7545 115.354 17.2894C114.816 17.2894 113.69 17.3383 113.103 17.3871C113.005 20.708 113.054 23.9799 113.005 27.3008C113.739 27.9845 114.424 28.717 115.158 29.4007C112.956 29.6937 110.754 29.7914 108.601 29.1565C109.286 28.3752 110.95 28.0822 110.754 26.7636C110.852 23.6381 110.803 20.4638 110.754 17.3383C110.265 17.3383 109.237 17.2894 108.699 17.2894C108.992 18.7545 109.482 20.2684 108.748 21.6847C108.405 20.8056 108.062 19.9754 107.622 19.1452C106.839 18.2662 106.056 17.2894 105.224 16.3127Z" fill="#CDCDCD"/>
<path d="M118.731 16.2639C120.395 16.6057 123.575 15.1406 124.163 17.1917C123.527 18.0708 122.744 18.8033 122.009 19.6335C123.722 19.8289 125.141 20.6591 126.218 22.1242C124.701 21.7335 123.429 20.8056 122.205 19.9265C122.107 20.8544 121.275 22.8567 122.988 22.8079C124.016 23.0032 125.044 23.2962 125.827 23.9799C123.624 25.445 121.031 24.4683 119.122 23.052C119.563 21.9776 120.003 20.9033 120.444 19.8289L121.031 20.5126C121.373 19.2917 121.716 18.0708 121.569 16.8011C120.933 17.5824 120.346 18.3638 119.709 19.1452C119.514 18.4126 118.975 16.9476 118.731 16.2639Z" fill="#CDCDCD"/>
<path d="M124.701 16.7035C126.414 16.264 128.176 16.1663 129.937 16.1174C128.469 20.0243 128.665 24.273 128.176 28.3752C125.924 29.6449 123.282 29.7426 120.786 29.4496C119.269 29.1078 119.416 27.545 119.367 26.3241C119.856 26.2753 120.884 26.1776 121.373 26.0799C121.471 26.959 121.618 27.838 121.716 28.6682C123.184 28.6194 124.652 28.5217 126.12 28.4241C126.561 26.666 126.463 24.859 125.924 23.101C126.756 20.9033 127.197 18.022 124.701 16.7035Z" fill="#CDCDCD"/>
<path d="M129.986 16.7523C132.873 15.9709 136.25 15.6779 138.893 17.2895C141.78 18.9011 141.584 24.0777 138.208 24.9079C136.69 25.2009 133.95 25.0544 133.901 23.0033C133.461 21.6847 134.439 20.9033 135.369 20.2196C135.565 20.8545 135.956 22.0754 136.152 22.6614C138.795 22.7103 138.256 20.0731 137.963 18.2662C136.642 17.6314 135.222 17.2407 133.754 17.3872C133.51 20.7568 133.51 24.0777 133.754 27.4473C134.488 28.0822 135.222 28.7171 135.908 29.3519C133.656 29.7426 131.356 29.7915 129.154 29.2054C129.693 28.8147 130.72 27.9845 131.21 27.545C130.72 23.98 132.384 19.7801 129.986 16.7523Z" fill="#CDCDCD"/>
<path d="M78.994 19.9265C80.0216 20.4149 81.0004 20.9521 81.9791 21.4404C81.9791 23.4427 81.9791 25.4938 81.9791 27.4961C82.86 28.0333 83.7408 28.5216 84.6217 29.0588C81.9791 30.0844 78.8471 30.2797 76.3024 28.9611C77.1833 28.4239 78.0642 27.8868 78.945 27.3496C78.9939 24.9078 78.994 22.4172 78.994 19.9265Z" fill="#CDCDCD"/>
<path d="M87.8026 21.3917C88.7324 20.9033 89.6622 20.4638 90.5431 19.9754C90.592 22.4172 90.592 24.9078 90.592 27.3496C91.5218 27.9356 92.4516 28.5217 93.3325 29.1565C90.7388 30.1821 87.7537 30.0844 85.16 29.2054C86.0409 28.5705 86.9217 27.9845 87.8026 27.3496C87.8026 25.3474 87.8026 23.3939 87.8026 21.3917Z" fill="#CDCDCD"/>
<path d="M86.1877 39.5097C88.6834 36.5307 92.892 37.6539 96.2687 37.4586C99.2049 37.2144 102.337 39.7539 101.799 42.8794C101.554 46.3955 95.8772 47.4699 94.458 44.2468C94.8006 43.3189 95.0942 42.391 95.4367 41.4631C96.2687 42.5863 97.4432 43.5142 98.9113 43.5631C98.9602 42.4398 99.107 41.3166 98.9113 40.1934C98.324 38.6306 96.5134 38.4841 95.1921 37.9469C94.2133 41.4631 94.3112 45.077 94.7516 48.6908C95.4367 49.2768 96.024 49.9605 96.5134 50.7419C94.458 50.8396 92.4026 50.7419 90.3473 50.5466C91.0324 49.9117 91.7175 49.2768 92.4026 48.642C93.0878 45.1258 92.7452 41.6096 92.3048 38.0934C89.5154 37.9958 86.8728 40.5352 88.292 43.3677C88.6834 43.4165 89.5154 43.5142 89.9558 43.5631C90.2984 43.0259 90.9345 41.9515 91.2771 41.4143C92.3537 42.5375 92.6963 43.9049 92.4516 45.4188C90.8367 45.956 89.0749 46.2002 87.3621 46.1025C85.3068 44.4909 84.4749 41.5608 86.1877 39.5097Z" fill="#CDCDCD"/>
<path d="M102.679 38.1423C106.399 37.6051 110.167 37.8492 113.935 37.9469C114.18 39.8027 112.565 40.7794 111.292 41.8049C111.831 44.1491 112.369 46.4932 112.956 48.7885C113.445 49.4233 114.522 49.8628 114.473 50.7907C112.711 51.5233 110.754 50.9861 108.894 51.0349C109.433 50.3512 110.02 49.7163 110.607 49.0326C110.265 46.9815 109.873 44.8816 109.531 42.8305C107.573 43.9537 104.735 44.7351 104.441 47.3722C106.056 48.1536 105.665 49.814 105.518 51.2791C104.392 51.1814 102.582 51.0837 102.63 49.521C102.533 46.4443 104.441 43.856 105.126 40.9259C104.245 40.0469 103.462 39.119 102.679 38.1423ZM105.175 38.6306C104.735 39.6073 105.077 39.9492 106.203 39.6562C106.594 38.6306 106.252 38.2888 105.175 38.6306ZM105.371 44.2467C107.279 42.977 109.237 41.7073 111.341 40.7794C110.754 40.8771 109.531 41.0724 108.943 41.1212C108.796 40.6817 108.503 39.7538 108.307 39.3143C106.105 39.2655 106.399 42.8305 105.371 44.2467Z" fill="#CDCDCD"/>
<path d="M115.109 37.947C117.801 37.8981 120.59 37.6051 123.233 38.1423C126.12 38.826 127.099 42.5864 125.729 44.9793C123.918 47.2746 119.612 46.7862 118.682 43.8561L119.758 43.4654C119.318 43.5142 118.437 43.6119 117.997 43.6607C119.514 44.9793 119.073 47.0304 119.367 48.7885C119.905 49.6187 120.688 50.3024 121.373 51.0838C119.416 51.0838 117.214 51.621 115.501 50.8396C115.746 50.0582 116.235 49.3745 116.822 48.8862C116.529 45.2235 118.339 40.6818 115.109 37.947ZM119.416 38.533C119.22 39.7539 119.024 41.0236 118.878 42.2445C119.122 42.4887 119.416 42.684 119.709 42.8794C121.129 41.0236 122.058 45.3212 123.429 43.4166C125.092 40.8283 122.058 38.1423 119.416 38.533Z" fill="#CDCDCD"/>
<path d="M127.637 38.4353C128.518 37.6051 129.839 37.9469 130.916 37.8493C135.81 37.9469 140.752 37.7516 145.646 37.9469C145.548 39.412 144.814 40.5352 143.493 41.2189C143.591 40.6329 143.737 39.412 143.835 38.826C143.15 38.8748 142.416 38.9725 141.731 39.0213C142.025 39.2167 142.71 39.6562 143.003 39.8515C143.052 43.6607 144.276 47.3234 143.786 51.1326C138.795 51.0349 133.803 50.8884 128.763 50.7907C128.469 46.9327 129.007 43.0747 130.671 39.5097C131.356 36.726 129.301 40.0957 128.42 40.3399C128.273 39.9492 127.833 38.9236 127.637 38.4353ZM133.069 39.0213C132.629 39.5097 131.699 40.4864 131.259 40.9748C132.776 41.0724 134.342 41.2678 135.859 41.5119C135.271 40.6329 134.684 39.705 134.146 38.826C133.852 38.7771 133.314 38.9236 133.069 39.0213ZM137.963 38.8748C137.669 39.4608 137.131 40.6329 136.837 41.2678C138.061 41.1213 139.333 41.2678 140.557 41.2189C140.214 40.6817 139.578 39.5097 139.235 38.9725C138.893 38.9236 138.257 38.8748 137.963 38.8748ZM130.476 48.8373C131.356 49.3745 132.139 50.0582 133.167 50.3512C133.852 50.107 134.537 49.7164 135.125 49.228C135.076 46.7862 135.076 44.3444 135.173 41.9026C133.852 41.7561 132.58 41.6096 131.307 41.4143C130.378 43.8072 130.28 46.3467 130.476 48.8373ZM137.18 42.0491C137.278 44.8816 137.082 47.7141 137.816 50.4489C138.746 50.3024 139.676 50.2047 140.605 50.0582C141.976 47.4211 141.437 44.2468 140.41 41.5608C139.578 41.7073 137.963 41.9515 137.18 42.0491Z" fill="#CDCDCD"/>
<path d="M30.6443 11.5757C33.0422 11.5757 35.3912 11.5757 37.7891 11.5757C37.887 14.8965 37.6423 18.2662 37.887 21.587C38.7678 23.6381 40.8232 24.9567 42.9764 25.4451C43.0743 20.8057 42.9764 16.1663 43.0253 11.5269C45.4233 11.5269 47.7722 11.5269 50.1701 11.5269C50.1701 19.0476 50.1701 26.5683 50.1701 34.089C50.0233 35.9447 51.1489 37.654 52.8617 38.3377C58.1468 41.1702 64.3618 43.1236 67.7874 48.3979C70.3811 51.914 70.3811 57.7255 66.515 60.3626C61.3767 64.0253 54.7702 65.0997 50.1212 69.5437C49.9744 66.0764 47.0382 63.6834 43.9062 62.6579C39.0615 60.7533 32.7486 59.7278 30.4975 54.4047C29.8613 50.7908 30.3996 46.6398 33.0422 43.9538C34.755 41.7562 37.5444 40.8771 40.2359 40.5841C45.5701 40.5841 50.5127 43.2213 54.134 46.9816C52.2744 42.2934 47.6254 39.4609 43.0253 37.8493C42.7807 35.5541 43.7594 32.7216 41.9487 30.817C40.8721 29.4984 39.3061 28.8636 37.838 28.1799C37.7402 31.3542 37.7891 34.4797 37.7891 37.654C35.2444 38.0935 32.7975 39.0702 30.5954 40.4865C30.6443 30.817 30.5954 21.1963 30.6443 11.5757ZM41.8998 51.7187C42.536 55.9674 46.6956 58.165 50.1212 60.0208C50.1212 56.3581 50.1212 52.6466 50.1212 48.9839C48.9467 48.1048 47.7233 46.7374 46.1084 47.0793C43.7105 47.177 42.2424 49.5699 41.8998 51.7187ZM57.4128 47.0305C57.217 51.4257 57.3149 55.8209 57.3639 60.1673C58.783 59.044 60.4958 57.9697 60.8873 56.0651C61.9639 52.6954 59.7618 49.3257 57.4128 47.0305Z" fill="#CDCDCD"/>
</svg>
