<svg width="62" height="62" viewBox="0 0 62 62" fill="none" xmlns="http://www.w3.org/2000/svg">
<circle cx="31" cy="31" r="30.5" fill="white" stroke="#004494"/>
<path d="M35.6191 27.8184C35.6191 28.7038 35.349 29.4655 34.8086 30.1035C34.2682 30.735 33.487 31.194 32.4648 31.4805V31.5391C34.8477 31.8385 36.0391 32.9648 36.0391 34.918C36.0391 36.2461 35.5117 37.291 34.457 38.0527C33.4089 38.8145 31.9505 39.1953 30.082 39.1953C29.3138 39.1953 28.6009 39.14 27.9434 39.0293C27.2923 38.9186 26.5859 38.7168 25.8242 38.4238V35.2207C26.4492 35.5397 27.084 35.7773 27.7285 35.9336C28.3796 36.0833 28.9785 36.1582 29.5254 36.1582C30.3717 36.1582 30.987 36.041 31.3711 35.8066C31.7617 35.5658 31.957 35.1914 31.957 34.6836C31.957 34.293 31.8561 33.9935 31.6543 33.7852C31.4525 33.5703 31.127 33.4108 30.6777 33.3066C30.2285 33.196 29.6426 33.1406 28.9199 33.1406H28.041V30.2402H28.9395C30.8991 30.2402 31.8789 29.7389 31.8789 28.7363C31.8789 28.3587 31.7324 28.0788 31.4395 27.8965C31.153 27.7142 30.7656 27.623 30.2773 27.623C29.3659 27.623 28.4219 27.929 27.4453 28.541L25.8438 25.9629C26.599 25.4421 27.3704 25.071 28.1582 24.8496C28.9525 24.6283 29.8607 24.5176 30.8828 24.5176C32.3607 24.5176 33.5195 24.8105 34.3594 25.3965C35.1992 25.9824 35.6191 26.7897 35.6191 27.8184Z" fill="#004494"/>
</svg>
