<svg width="794" height="62" viewBox="0 0 794 62" fill="none" xmlns="http://www.w3.org/2000/svg">
<line x1="4.37114e-08" y1="30.5" x2="794" y2="30.5001" stroke="#004494"/>
<circle cx="790.5" cy="30.5" r="3.5" fill="#004494"/>
<circle cx="703" cy="31" r="30.5" fill="white" stroke="#004494"/>
<path d="M708.557 36.2363H706.984V39H703.176V36.2363H697.482V33.4043L703.42 24.7227H706.984V33.3555H708.557V36.2363ZM703.176 33.3555V31.6953C703.176 31.3828 703.186 30.9629 703.205 30.4355C703.231 29.9017 703.251 29.6217 703.264 29.5957H703.156C702.935 30.097 702.684 30.5658 702.404 31.002L700.822 33.3555H703.176Z" fill="#004494"/>
<circle cx="600.5" cy="30.5" r="3.5" fill="#004494"/>
<circle cx="499" cy="31" r="30.5" fill="white" stroke="#004494"/>
<path d="M503.619 27.8184C503.619 28.7038 503.349 29.4655 502.809 30.1035C502.268 30.735 501.487 31.194 500.465 31.4805V31.5391C502.848 31.8385 504.039 32.9648 504.039 34.918C504.039 36.2461 503.512 37.291 502.457 38.0527C501.409 38.8145 499.951 39.1953 498.082 39.1953C497.314 39.1953 496.601 39.14 495.943 39.0293C495.292 38.9186 494.586 38.7168 493.824 38.4238V35.2207C494.449 35.5397 495.084 35.7773 495.729 35.9336C496.38 36.0833 496.979 36.1582 497.525 36.1582C498.372 36.1582 498.987 36.041 499.371 35.8066C499.762 35.5658 499.957 35.1914 499.957 34.6836C499.957 34.293 499.856 33.9935 499.654 33.7852C499.452 33.5703 499.127 33.4108 498.678 33.3066C498.229 33.196 497.643 33.1406 496.92 33.1406H496.041V30.2402H496.939C498.899 30.2402 499.879 29.7389 499.879 28.7363C499.879 28.3587 499.732 28.0788 499.439 27.8965C499.153 27.7142 498.766 27.623 498.277 27.623C497.366 27.623 496.422 27.929 495.445 28.541L493.844 25.9629C494.599 25.4421 495.37 25.071 496.158 24.8496C496.952 24.6283 497.861 24.5176 498.883 24.5176C500.361 24.5176 501.52 24.8105 502.359 25.3965C503.199 25.9824 503.619 26.7897 503.619 27.8184Z" fill="#004494"/>
<circle cx="396.5" cy="30.5" r="3.5" fill="#004494"/>
<circle cx="295" cy="31" r="30.5" fill="white" stroke="#004494"/>
<path d="M300.098 39H289.736V36.4609L293.223 32.9355C294.219 31.8939 294.87 31.1842 295.176 30.8066C295.482 30.4225 295.693 30.0938 295.811 29.8203C295.934 29.5469 295.996 29.2604 295.996 28.9609C295.996 28.5898 295.876 28.2969 295.635 28.082C295.394 27.8672 295.055 27.7598 294.619 27.7598C294.17 27.7598 293.714 27.89 293.252 28.1504C292.796 28.4043 292.279 28.7819 291.699 29.2832L289.58 26.8027C290.316 26.1452 290.934 25.6764 291.436 25.3965C291.937 25.11 292.48 24.8919 293.066 24.7422C293.659 24.5924 294.323 24.5176 295.059 24.5176C295.983 24.5176 296.807 24.6803 297.529 25.0059C298.258 25.3314 298.822 25.7969 299.219 26.4023C299.622 27.0013 299.824 27.6751 299.824 28.4238C299.824 28.9837 299.753 29.5013 299.609 29.9766C299.473 30.4518 299.258 30.9206 298.965 31.3828C298.672 31.8385 298.281 32.3203 297.793 32.8281C297.311 33.3359 296.279 34.2995 294.697 35.7188V35.8164H300.098V39Z" fill="#004494"/>
<circle cx="193.5" cy="30.5" r="3.5" fill="#004494"/>
<circle cx="91" cy="31" r="30.5" fill="white" stroke="#004494"/>
<path d="M94.3398 39H90.4238V31.4414C90.4238 30.5234 90.4434 29.6836 90.4824 28.9219C90.2415 29.2148 89.9421 29.5208 89.584 29.8398L87.9629 31.1777L85.9609 28.7168L90.8633 24.7227H94.3398V39Z" fill="#004494"/>
<circle cx="3.5" cy="30.5" r="3.5" fill="#004494"/>
</svg>
