<svg width="20" height="36" viewBox="0 0 20 36" fill="none" xmlns="http://www.w3.org/2000/svg">
<path d="M15.9692 4.80265C16.2855 5.20088 16.5207 5.50354 16.764 5.80619C17.7616 7.0646 18.7672 8.31504 19.7486 9.58142C19.8865 9.7646 19.9919 10.0274 19.9919 10.2504C20 17.9442 20 25.646 20 33.3398C20 34.7018 19.1971 35.7053 17.9238 35.9602C17.7291 36 17.5182 36 17.3155 36C12.4331 36 7.5588 36 2.6764 36C1.11922 36 0 34.9088 0 33.3717C0 25.646 0 17.9283 0.0081103 10.2027C0.0081103 9.99558 0.105434 9.7646 0.235199 9.59734C1.36253 8.15575 2.50608 6.73009 3.64152 5.29646C3.74696 5.16106 3.85239 5.02566 4.02271 4.81062C3.39011 4.81062 2.84672 4.81062 2.29521 4.81062C1.79238 4.81062 1.7356 4.7469 1.7356 4.26106C1.7356 3.02655 1.7356 1.79204 1.7356 0.557522C1.7356 0.0716814 1.80049 0.0079646 2.29521 0.0079646C7.46148 0 12.6196 0 17.7859 0C18.3698 0 18.4023 0.0318584 18.4023 0.613274C18.4023 1.84779 18.3942 3.0823 18.4104 4.31681C18.4104 4.68319 18.2644 4.81858 17.9075 4.81062C17.2993 4.79469 16.691 4.80265 15.9692 4.80265ZM19.3106 21.9584C19.3106 18.1115 19.3187 14.2646 19.3025 10.4097C19.3025 10.1947 19.2133 9.93982 19.0835 9.7646C17.8427 8.17965 16.5775 6.60266 15.3285 5.0177C15.1744 4.81858 15.0122 4.73097 14.7526 4.73097C11.5653 4.73894 8.37794 4.73894 5.18248 4.73097C4.92295 4.73097 4.76886 4.81858 4.60665 5.0177C3.36577 6.59469 2.10868 8.15575 0.875912 9.73274C0.729927 9.91593 0.632603 10.1788 0.632603 10.4097C0.624493 18.0717 0.624493 25.7257 0.624493 33.3796C0.624493 34.5823 1.39497 35.3389 2.62774 35.3389C7.51014 35.3389 12.3844 35.3389 17.2668 35.3389C18.5645 35.3389 19.3106 34.6062 19.3106 33.3398C19.3106 29.5487 19.3106 25.7496 19.3106 21.9584ZM17.7291 2.00708C17.7291 1.67257 17.7048 1.36195 17.7372 1.06726C17.7697 0.724779 17.6237 0.653097 17.2993 0.653097C12.4899 0.661062 7.68045 0.661062 2.87916 0.661062C2.73317 0.661062 2.5953 0.661062 2.43309 0.661062C2.43309 1.13894 2.43309 1.56106 2.43309 2.01504C7.51825 2.00708 12.5872 2.00708 17.7291 2.00708ZM2.44931 2.79558C2.44931 3.27345 2.44931 3.69558 2.44931 4.1177C7.55069 4.1177 12.6196 4.1177 17.6967 4.1177C17.6967 3.65575 17.6967 3.23363 17.6967 2.79558C12.5953 2.79558 7.53447 2.79558 2.44931 2.79558Z" fill="white"/>
<path d="M16.6099 20.4371C16.6099 23.2247 16.6099 26.0123 16.6099 28.7999C16.6099 29.3814 16.5775 29.4053 15.9854 29.4053C11.9546 29.4053 7.93187 29.4053 3.90105 29.4053C3.37388 29.4053 3.32522 29.3575 3.32522 28.8318C3.32522 23.2486 3.32522 17.6575 3.32522 12.0743C3.32522 11.5327 3.38199 11.4769 3.92538 11.4769C7.93998 11.4769 11.9546 11.4769 15.9692 11.4769C16.5693 11.4769 16.6099 11.5247 16.6099 12.1141C16.6099 14.8938 16.6099 17.6654 16.6099 20.4371ZM15.8962 28.7283C15.8962 23.2008 15.8962 17.7053 15.8962 12.1858C11.9302 12.1858 7.99675 12.1858 4.03893 12.1858C4.03893 17.7132 4.03893 23.2088 4.03893 28.7283C7.99675 28.7283 11.9302 28.7283 15.8962 28.7283Z" fill="white"/>
<path d="M14.2579 20.469C14.2579 22.4601 14.2579 24.4513 14.2579 26.4424C14.2579 26.9283 14.1687 27.0318 13.6659 27.0318C11.2084 27.0398 8.75101 27.0398 6.29359 27.0318C5.82319 27.0318 5.75831 26.9601 5.75831 26.4982C5.75831 22.4681 5.75831 18.43 5.75831 14.3999C5.75831 13.9221 5.81508 13.8663 6.29359 13.8663C8.76723 13.8663 11.2409 13.8663 13.7064 13.8663C14.193 13.8663 14.2579 13.938 14.2579 14.4238C14.2579 16.4389 14.2579 18.4539 14.2579 20.469ZM13.5442 14.5274C13.3658 14.5274 13.2279 14.5274 13.0981 14.5274C11.03 14.5274 8.96188 14.5353 6.89375 14.5194C6.52879 14.5194 6.41525 14.5991 6.41525 14.9814C6.43147 18.6291 6.42336 22.2769 6.42336 25.9247C6.42336 26.0681 6.43958 26.2035 6.43958 26.3468C8.83212 26.3468 11.176 26.3468 13.5361 26.3468C13.5442 22.4044 13.5442 18.4937 13.5442 14.5274Z" fill="white"/>
</svg>
