<?xml version="1.0" encoding="utf-8"?>
<!-- Generator: Adobe Illustrator 21.1.0, SVG Export Plug-In . SVG Version: 6.00 Build 0)  -->
<svg version="1.1" id="Слой_1" xmlns="http://www.w3.org/2000/svg" xmlns:xlink="http://www.w3.org/1999/xlink" x="0px" y="0px"
	 viewBox="0 0 140 100" style="enable-background:new 0 0 140 100;" xml:space="preserve">
<style type="text/css">
	.st0{fill:none;}
	.st1{fill:#2C3245;}
</style>
<g>
	<rect class="st0" width="140" height="100"/>
	<g>
		<polygon class="st1" points="10.9,79 10.9,92.1 20.5,92.1 20.5,89.8 13.8,89.8 13.8,86.7 19.5,86.7 19.5,84.4 13.8,84.4 
			13.8,81.4 20.3,81.4 20.3,79 		"/>
		<polygon class="st1" points="31.9,79 31.9,87.5 25.7,79 23.1,79 23.1,92.1 25.8,92.1 25.8,83.5 32.1,92.1 34.5,92.1 34.5,79 		"/>
		<path class="st1" d="M49.3,91.3c-1.3,0.7-3.2,1.1-4.8,1.1c-4.6,0-7.7-2.5-7.7-6.8c0-4,2.6-6.8,7.6-6.8c1.8,0,3.4,0.4,4.7,1v2.4
			c-1.3-0.7-2.9-1-4.4-1c-3.3,0-4.8,1.7-4.8,4.4c0,2.9,1.8,4.5,4.8,4.5c0.7,0,1.4-0.1,2-0.2v-3h-3.3l0.2-2.2h5.8V91.3z"/>
		<polygon class="st1" points="61.8,89.8 61.8,92.1 52.2,92.1 52.2,79 61.6,79 61.6,81.4 55.1,81.4 55.1,84.4 60.8,84.4 60.8,86.7 
			55.1,86.7 55.1,89.8 		"/>
		<polygon class="st1" points="73.4,89.8 73.4,92.1 64.4,92.1 64.4,79 67.3,79 67.3,89.8 		"/>
		<polygon class="st1" points="86.7,79 86.7,92.1 83.8,92.1 83.8,86.7 78.4,86.7 78.4,92.1 75.5,92.1 75.5,79 78.4,79 78.4,84.2 
			83.8,84.2 83.8,79 		"/>
		<path class="st1" d="M97.7,90H92l-0.7,2.1h-2.8L93.3,79h3.2l4.8,13.1h-3L97.7,90z M97,87.9l-2-6.2l-2.2,6.2H97z"/>
		<path class="st1" d="M108,87.3h-1.8v4.8h-2.9V79h5.6c3,0,4.5,2,4.6,4c0,1.9-1,3.1-2.8,3.7l3.3,5.3h-3.3L108,87.3z M106.2,85.1h2.3
			c1.3,0,2.1-0.8,2.1-1.9c0-1.2-0.8-1.9-2.1-1.9h-2.3V85.1z"/>
		<path class="st1" d="M128.1,85.6c0,3.9-2.2,6.6-6.4,6.6h-5.5V79h5.4C125.9,79,128.1,81.6,128.1,85.6 M125.1,85.6
			c0-2.7-1.2-4.2-3.8-4.2h-2.1v8.4h2.1C124,89.8,125.1,88.1,125.1,85.6"/>
		<path class="st1" d="M45.7,21l0.3,0.5l0.4-0.4c0.5-0.6,1.1-1.2,1.6-1.8c1.4-1.4,2.9-2.6,4.4-3.7c1.6-1.1,3.3-2,5.1-2.7
			c1.8-0.7,3.7-1.3,5.5-1.7c1.9-0.4,3.8-0.6,5.7-0.6c3.9,0,7.7,0.8,11.3,2.3c3.5,1.5,6.8,3.7,9.5,6.4c0.6,0.6,1.1,1.2,1.6,1.8
			l0.4,0.4l0.3-0.5c0.2-0.3,0.4-0.6,0.5-1l0.1-0.2l-0.2-0.2c-0.5-0.5-1-1.1-1.5-1.6c-1.5-1.4-3-2.7-4.7-3.8c-1.7-1.1-3.5-2-5.4-2.8
			C76.9,9.8,72.8,9,68.7,9c-2,0-4.1,0.2-6,0.6c-2,0.4-4,1-5.8,1.7c-1.9,0.8-3.7,1.7-5.4,2.8c-1.7,1.1-3.3,2.4-4.8,3.8
			c-0.5,0.5-1,1-1.5,1.6L45,19.8l0.1,0.2C45.3,20.3,45.5,20.7,45.7,21"/>
		<path class="st1" d="M96.3,51.2L96.3,51.2l-0.1,0.1c-0.1,0.2-0.2,0.5-0.3,0.7c-1.5,3.5-3.7,6.7-6.4,9.4c-1.4,1.3-2.8,2.5-4.4,3.6
			c-1.6,1-3.2,1.9-5,2.6c-0.7,0.3-1.5,0.6-2.2,0.8c0,0-0.2,0.1-0.4,0.1c-0.3-1.2-0.9-3.5-1-3.7c-0.2-1.2-0.4-2.4-0.4-3.6
			c-0.1-1.2,0-2.6,0.1-4c0.2-2.1,0.5-4.1,0.8-5.9c0-0.3,0.1-0.6,0.1-0.9c0.1-0.6,0.2-1,0.2-1.4c0.1-0.5,0.1-0.9,0.1-1.3
			c0-0.4,0-0.8,0-1.1c0-0.4-0.1-0.7-0.2-0.9c0-0.1-0.1-0.2-0.1-0.2l0,0c0-0.1-0.1-0.1,0-0.2c0,0,0,0,0.1-0.1c0,0,0.1,0,0.2,0
			c0.1,0,0.2,0.1,0.3,0.3c0.2,0.3,0.3,0.7,0.3,1c0.1,0.4,0.1,0.8,0.1,1.2c0,0.2,0,0.4,0,0.7c0,0.2,0,0.5,0,0.7c0,0.5-0.1,1-0.1,1.5
			c-0.1,1.1-0.2,2.4-0.4,3.7c-0.1,1-0.2,2-0.3,3.1c-0.1,1.4-0.2,2.7-0.2,3.9c0,1.1,0.2,4,0.4,4.5c0.1-0.4,0.3-1.7,0.4-2.4
			c0.9-5.1,2.9-16.9,2.8-19.4C80.5,40.5,79,40,78,39.7c0,0-0.1,0-0.1,0c-1.3,2.3-7.4,5.9-12.5,8.2c-1.4,0.6-2.7,2.5-2.4,5.3
			c0,0.4,0.1,0.9,0.1,1.3c0.3,2.4-0.3,8.8-1.6,14.2c-0.3-0.1-0.7-0.2-0.7-0.2l0,0c1.3-5.2,0.9-10.2,0.3-12.8c-0.7-2.9-1.1-4.6-1-6.5
			c0-2.8,0.6-5.2,1.4-6.2l0,0l0,0c0,0,2,1.9,8.2-0.3c2.1-0.7,5.2-2.7,6.1-3.2c0.3-0.2,0.6-0.5,0.8-0.7c0.3-0.4,0.5-0.8,0.6-1.4
			c0-0.2,0.1-0.4,0.1-0.6l0-0.1c0.1-0.5,0-1,0-1.4c-0.1-0.5-0.2-1-0.4-1.4c-0.8-1.5-1-2.1-1.1-3c0-0.1,0-0.3,0-0.4
			c-0.2-0.1-0.4-0.3-0.6-0.4c-1.6-1-2.9-3.9-3.4-5.2c-0.7-1.7-1.9-3.4-3.9-4.5c-0.4-0.2-0.8-0.4-1.2-0.5c-0.2,0-0.3-0.1-0.3-0.2
			c0-0.1,0.1-0.2,0.3-0.2c4,0.4,5,3.1,6.3,5.9c0.6,1.2,1.2,2.6,1.9,3.6c0.2,0.2,0.4,0.4,0.6,0.6c0.1,0.1,0.5,0.4,0.9,0.6l-0.5-0.6v0
			c0-0.5-0.2-1.1-0.4-1.6c-0.2-0.4-0.3-0.6-0.4-0.8c0-0.2,0-0.5,0.1-0.8c0.1-0.5,0.5-1.3,0.3-2.6c-0.3-3.1-1.7-7.6-6-7.6
			c-0.6,0-1.4,0.4-2,0.9c-0.5,0.4-1.1,1-1.4,1.4c-0.2,0.2-0.3,0.3-0.4,0.2c-0.1-0.1,0-0.2,0.1-0.4c0.4-0.8,1.7-1.9,1.7-1.9
			c-1.9,0.1-3.3,1-4.4,3.1c-0.9,1.7-1.1,3.4-1.2,5.1c-0.1,0.5-0.1,1-0.2,1.5c0.2-0.4,0.4-1,0.7-1.6l0-0.1c0.2-0.5,0.4-1,0.5-1.4
			c0.1-0.4,0.2-0.7,0.3-1c0-0.1,0.1-0.1,0.1-0.1c0,0,0.1,0,0.1,0.1c0,0.2,0,0.6,0,1.1c0,0.3-0.2,0.9-0.4,1.5
			c-0.3,0.7-0.7,1.4-1.2,2.1c-0.7,0.9-1.2,1.9-1.4,2.9c0.1-0.4,0.3-0.8,0.5-1c0.2-0.4,0.5-0.8,0.8-1.3c0.4-0.6,0.9-1.1,1.3-1.6
			c0.1-0.2,0.3-0.3,0.4-0.5c0.3-0.3,0.5-0.6,0.8-0.9c0.1-0.1,0.2-0.2,0.2-0.3c0-0.1,0.1-0.1,0.1-0.2c0.1-0.1,0.2-0.3,0.3-0.4
			c0.1-0.1,0.2-0.2,0.2-0.4c0.3-0.4,0.6-0.8,0.9-1.2c0.1-0.1,0.2-0.2,0.3-0.2c0,0,0.1,0,0.1,0c0.1,0,0.1,0.2-0.1,0.4
			c-0.2,0.3-0.4,0.6-0.6,1c-0.1,0.2-0.2,0.4-0.3,0.6c-0.1,0.2-0.2,0.3-0.3,0.5l-0.1,0.1c-0.1,0.1-0.2,0.2-0.2,0.4
			c-0.2,0.3-0.4,0.6-0.7,1c-0.2,0.3-0.4,0.6-0.7,1c-0.3,0.4-0.6,0.8-0.9,1.3c-1,1.5-1.8,2.8-1.8,4.4c0,0.8,0.2,1.6,0.4,2.4
			c0.2,0.6,0.3,1.2,0.4,1.8c0.1,0.5,0.1,1,0.1,1.4c0,0.2,0,0.4-0.1,0.6c0,0.2-0.1,0.4-0.1,0.6c-0.1,0.4-0.3,0.7-0.5,1
			c-0.2,0.2-0.4,0.4-0.7,0.6c-0.1,0.1-0.2,0.1-0.3,0.1c-0.1,0-0.1,0-0.1,0c0-0.1,0-0.2,0.2-0.3c0.2-0.2,0.4-0.4,0.5-0.6
			c0.1-0.1,0.1-0.2,0.2-0.4c0-0.1,0-0.1,0.1-0.2c-0.2,0.1-0.5,0.2-0.7,0.2l-0.1,0c-2,1-3.9,1.9-1.7,12.3c1,4.4,1.4,11.4,1.1,16.4
			c-0.5-0.2-0.9-0.3-1.4-0.5c-1.8-0.7-3.5-1.6-5-2.6c-1.6-1-3.1-2.2-4.4-3.6c-2.7-2.6-4.9-5.9-6.4-9.3c-0.1-0.2-0.2-0.4-0.3-0.7
			l0-0.1l-0.1-0.1c-0.7-0.5-1.4-1.1-2.3-2l-0.8-0.8l0.3,1.1c0.3,1.2,0.7,2.3,1.1,3.4c1.5,3.8,3.9,7.3,6.7,10.2
			c1.5,1.5,3.1,2.8,4.7,3.9c1.7,1.2,3.6,2.1,5.4,2.9c1.9,0.8,3.9,1.4,5.9,1.8c2,0.4,4.1,0.6,6.2,0.6c4.1,0,8.3-0.9,12.1-2.4
			c3.8-1.6,7.3-3.9,10.2-6.9c2.9-2.9,5.2-6.4,6.8-10.2c0.4-1.1,0.8-2.3,1.2-3.5l0.3-1.1l-0.8,0.8C97.7,50.1,97,50.8,96.3,51.2
			 M69.9,18.7L69.9,18.7c0.4,0,0.9,0.2,1.5,0.5c0.3,0.2,0.6,0.4,0.8,0.7c0,0,0,0,0.1,0.1c0,0,0.1,0.1,0.1,0.2
			c0.1,0.1,0.1,0.2,0.2,0.2l0.1,0.1l0.1,0.2c0,0.1,0.1,0.1,0.1,0.2c0.2,0.4,0.3,0.8,0.4,1.2c0.1,0.4,0.2,0.8,0.2,1.1
			c0.1,0.7,0.2,1.2,0.3,1.5c0,0.1,0,0.1,0,0.2c0,0,0,0,0,0c0,0-0.1,0-0.1-0.1c-0.2-0.3-0.4-0.8-0.6-1.5L73.1,23
			c-0.2-0.6-0.4-1.3-0.7-1.9c0-0.1-0.1-0.1-0.1-0.2c0,0,0,0,0-0.1l-0.1-0.1l-0.1-0.1c0-0.1-0.1-0.1-0.1-0.2l0,0c0,0-0.1-0.1-0.1-0.1
			c0,0,0,0-0.1-0.1c-0.2-0.2-0.4-0.5-0.7-0.6c-0.5-0.4-1-0.6-1.3-0.7c-0.1,0-0.2-0.1-0.1-0.2C69.7,18.7,69.8,18.7,69.9,18.7
			 M75.2,37.1L75.2,37.1L75.2,37.1c0.1-0.1,0.1-0.1,0.1-0.2c0,0,0,0,0,0c0,0,0,0,0-0.1c0,0,0-0.1,0-0.1c0,0,0-0.1,0-0.1
			c0,0,0-0.1,0-0.1l0-0.1c0-0.1,0.1-0.1,0.1-0.1c0.1,0,0.1,0,0.1,0.1l0,0.2c0,0.1,0,0.1,0,0.2l0,0c0,0.1,0,0.1,0,0.2c0,0,0,0,0,0.1
			c0,0.1,0,0.2,0,0.2c-0.1,0.4-0.2,0.7-0.5,1c-0.3,0.3-0.6,0.6-1,0.8c-0.4,0.2-0.7,0.2-0.8,0.2h0c0,0-0.1,0-0.1-0.1
			c0,0,0-0.1,0.1-0.1c0.1-0.1,0.4-0.2,0.6-0.4c0.3-0.2,0.5-0.5,0.8-0.7C74.9,37.6,75.1,37.3,75.2,37.1 M73.2,37.1
			c0.1-0.2,0.2-0.4,0.3-0.6c0.1-0.2,0.1-0.5,0.2-0.7c0.1-0.4,0.1-0.9,0-1.4c0-0.3-0.1-0.7-0.2-1c0-0.1,0-0.1,0.1-0.2
			c0.1,0,0.1,0,0.2,0.1c0.2,0.3,0.3,0.7,0.4,1c0.1,0.4,0.2,0.9,0.1,1.6c0,0.3-0.1,0.6-0.3,0.9c-0.1,0.3-0.3,0.5-0.5,0.7
			c-0.2,0.2-0.4,0.3-0.6,0.4C72.9,38,72.7,38,72.6,38c0,0,0,0,0,0c0,0-0.1,0-0.1-0.1c0-0.1,0-0.1,0.1-0.1
			C72.8,37.6,73,37.4,73.2,37.1 M70.8,26.6c0,0.1,0,0.1,0,0.2c0,0.3-0.3,0.5-0.6,0.5c0,0,0,0,0,0c-0.1,0-0.3-0.1-0.4-0.2
			c-0.1-0.1-0.2-0.2-0.1-0.4c0,0,0,0,0,0c-0.1,0-0.3,0.2-0.5,0.2c0,0,0,0-0.1,0c0,0-0.1,0-0.1-0.1c0,0,0-0.1,0-0.1
			c0.1-0.1,0.3-0.3,0.5-0.4c0.2-0.1,0.5-0.2,0.8-0.2c0.3,0,0.5,0,0.8,0.2c0,0,0.1,0,0.1,0.1c0.1,0.1,0.2,0.1,0.4,0.2
			c0.1,0,0.1,0.1,0.1,0.2c0,0.1-0.1,0.1-0.1,0.1c-0.2,0-0.3,0.1-0.5,0.3c-0.2,0.2-0.5,0.3-0.8,0.4c0,0-0.1,0-0.1,0
			c-0.3,0-0.5-0.1-0.8-0.2c-0.1,0-0.1-0.1-0.1-0.1c0,0,0-0.1,0.1-0.1c0,0,0,0,0,0l0,0c0.1,0,0.4,0.1,0.6,0.1c0.3,0,0.6-0.1,0.9-0.4
			c0,0,0,0,0.1-0.1c0,0,0.1-0.1,0.1-0.1C71.1,26.7,71,26.7,70.8,26.6 M69.1,25.8c0.4-0.2,1.5-0.5,1.8-0.5c0.3,0,0.7,0.3,0.7,0.3
			l0.1,0.1l0.1,0.1l-0.1,0l-0.1,0l-0.4-0.1c0,0-0.1,0-0.1,0c-0.1,0-0.2,0-0.3,0.1c-0.3,0.1-1.2,0.5-1.4,0.5c0,0-0.1,0-0.1,0
			c0,0-0.1,0-0.1,0c-0.1,0-0.1-0.1-0.1-0.2C69,25.9,69.1,25.8,69.1,25.8 M67.1,30C67.1,30,67.1,30,67.1,30
			C67.1,29.9,67.1,29.9,67.1,30c0.1-0.1,0.1-0.1,0.2-0.1h0h0c0.2,0,0.3,0.1,0.4,0.2l0,0c0.1,0.1,0.2,0.1,0.3,0.1
			c0.1,0,0.2-0.1,0.3-0.1l0,0l0,0c0.1-0.1,0.2-0.1,0.3-0.1c0,0,0,0,0,0l0,0c0,0,0,0,0.1,0c0,0,0,0,0,0c0,0,0,0,0.1,0h0h0
			c0,0,0,0,0,0c0,0,0,0,0,0l0,0c0,0,0.1,0,0.1,0.1c0,0,0,0,0,0c0,0,0,0,0,0c0,0,0,0,0,0c0,0,0,0,0,0h0v0l0,0c0,0,0,0,0,0
			c0,0,0,0,0,0c0,0,0,0,0,0c0,0.1-0.1,0.1-0.2,0.1l0,0c0,0,0,0,0,0l0,0l0,0c0,0,0,0,0,0c-0.1,0-0.1,0-0.1,0.1l0,0l0,0l0,0
			c0,0,0,0,0,0c0,0,0,0,0,0l0,0l0,0c0,0,0,0,0,0c0,0,0,0,0,0c0,0-0.1,0-0.1,0c0,0,0,0-0.1,0l0,0v0c0,0,0,0,0,0l0,0l0,0c0,0,0,0,0,0
			l0,0l0,0l0,0c0,0,0,0,0,0l0,0c0,0,0,0-0.1,0h0c0,0,0,0-0.1,0l0,0h0c0,0-0.1,0-0.1,0c0,0-0.1,0-0.1,0c-0.1,0-0.1,0-0.2-0.1l0,0l0,0
			l0,0l0,0c-0.1,0-0.1-0.1-0.2-0.1c0,0-0.1,0-0.1,0c0,0,0,0,0,0c0,0-0.1,0-0.1-0.1c0,0,0,0,0-0.1C67,30.1,67,30.1,67.1,30
			C67,30,67,30,67.1,30 M67.3,31.1C67.4,31.1,67.4,31.1,67.3,31.1c0.2,0,0.3,0,0.3,0.1c0.1,0,0.2,0.1,0.3,0.1c0,0,0.1,0,0.1,0
			c0.1,0,0.2,0,0.3-0.1c0.1,0,0.2,0,0.3,0c0.1,0,0.1,0,0.2,0l0.1,0c0.1,0,0.3,0,0.5,0c0.1,0,0.2,0,0.2,0c0,0,0,0,0.1,0
			c0.1,0,0.1-0.1,0.2-0.1c0,0,0.1,0,0.1,0c0.1,0.1,0.1,0.1,0,0.1c0,0-0.1,0.1-0.1,0.1l0,0l0,0c-0.1,0-0.2,0.1-0.3,0.1
			c-0.1,0-0.1,0-0.1,0.1c0,0,0,0,0,0c-0.3,0.3-0.9,0.5-1.3,0.5h0c-0.2,0-0.9,0-1-0.4c0,0,0,0,0,0c0,0,0,0,0,0l0,0l0,0l0,0
			c0.3,0.1,0.6,0.2,0.9,0.2c0.4,0,0.7-0.1,0.9-0.3c0,0-0.1,0-0.2,0c-0.1,0-0.3,0-0.4,0c-0.1,0-0.3,0-0.4,0c-0.1,0-0.2,0-0.3,0
			c-0.1,0-0.3,0-0.5,0c-0.3,0-0.7,0-1-0.2l0,0c0,0-0.1,0-0.1-0.1c0,0-0.1-0.1,0-0.1c0,0,0-0.1,0.1-0.1c0,0,0.1,0,0.1,0.1
			c0.1,0,0.2,0.1,0.3,0.1c0.1,0,0.3,0,0.4,0C67.1,31.1,67.2,31.1,67.3,31.1 M68.7,32.4C68.7,32.5,68.7,32.5,68.7,32.4
			c-0.1,0.1-0.1,0.1-0.2,0.2c-0.1,0.1-0.3,0.1-0.4,0.1c0,0,0,0,0,0c0,0,0,0,0,0c0,0-0.1,0-0.2,0c-0.2,0-0.3-0.1-0.4-0.2l0,0l0,0l0,0
			l0,0c0,0,0,0,0,0c0,0,0,0,0,0l0,0h0c0.1,0,0.2,0,0.3,0c0.1,0,0.2,0,0.2,0h0c0.1,0,0.2,0,0.3,0c0.1,0,0.1,0,0.2,0c0,0,0,0,0,0h0
			C68.7,32.3,68.7,32.3,68.7,32.4C68.7,32.4,68.7,32.4,68.7,32.4C68.7,32.4,68.7,32.4,68.7,32.4 M66.8,26.9
			C66.8,26.9,66.8,27,66.8,26.9c-0.1,0.1-0.1,0.1-0.2,0c-0.1-0.1-0.4-0.2-0.5-0.2c0,0,0,0,0,0c0,0.1,0,0.3-0.1,0.4
			c-0.1,0.1-0.2,0.2-0.4,0.2c0,0,0,0,0,0c-0.3,0-0.5-0.2-0.6-0.5c0-0.1,0-0.1,0-0.2c-0.1,0-0.3,0.1-0.5,0.2c0,0,0.1,0.1,0.1,0.1
			c0,0,0,0,0.1,0.1c0.3,0.3,0.6,0.4,0.9,0.4c0.2,0,0.5-0.1,0.6-0.1l0,0c0,0,0,0,0,0c0,0,0.1,0,0.1,0.1c0,0.1,0,0.1-0.1,0.1
			c-0.2,0.1-0.5,0.2-0.8,0.2c0,0-0.1,0-0.1,0c-0.3,0-0.6-0.2-0.8-0.4c-0.2-0.1-0.3-0.3-0.5-0.3c-0.1,0-0.1-0.1-0.1-0.1
			c0-0.1,0-0.2,0.1-0.2c0.1,0,0.2-0.1,0.4-0.2c0,0,0.1-0.1,0.1-0.1c0.3-0.1,0.5-0.2,0.8-0.2c0.3,0,0.6,0.1,0.8,0.2
			c0.2,0.1,0.3,0.2,0.5,0.4C66.8,26.8,66.8,26.9,66.8,26.9 M64.1,25.6L64.1,25.6c0.1-0.1,0.6-0.4,0.8-0.4c0.2,0,1.4,0.4,1.8,0.5
			c0.1,0,0.1,0.1,0.1,0.2c0,0.1,0,0.1-0.1,0.2c0,0-0.1,0-0.1,0c0,0-0.1,0-0.1,0c-0.2,0-1.1-0.4-1.4-0.5c-0.1,0-0.2-0.1-0.3-0.1
			c0,0-0.1,0-0.1,0l-0.4,0.1L64.1,25.6L64,25.7L64.1,25.6z M63.6,27.3L63.6,27.3c0-0.2,0-0.3,0.1-0.3h0c0.1,0,0.1,0.1,0.1,0.3
			c0,0.5,0.1,1,0.2,1.5c0.1,0.6,0.3,1.2,0.5,1.7c0.1,0.3,0.3,0.6,0.5,0.9c0.2,0.3,0.4,0.6,0.6,0.9l0.2,0.2c0.1,0.1,0.1,0.2,0.2,0.2
			c0.1,0.1,0.2,0.3,0.4,0.4c0.1,0.2,0.3,0.3,0.4,0.4c0.1,0.1,0.3,0.2,0.5,0.3c0.2,0.1,0.4,0.1,0.6,0.2c0.2,0,0.4,0.1,0.6,0l0.1,0
			l0.1,0c0.1,0,0.1,0,0.2,0c0,0,0.1,0,0.1,0c0.2-0.1,0.4-0.1,0.5-0.2c0.3-0.2,0.6-0.4,0.9-0.7c0.1-0.1,0.2-0.3,0.4-0.4l0.2-0.3
			c0,0,0.1-0.1,0.1-0.1c0.4-0.5,0.7-1,1-1.6c0.2-0.4,0.4-0.9,0.5-1.4c0-0.1,0.1-0.2,0.1-0.2c0.1,0,0.1,0.1,0.1,0.2
			c-0.1,0.5-0.2,1-0.4,1.4c-0.2,0.5-0.4,0.9-0.6,1.3c-0.1,0.3-0.2,1.3-0.3,2.6c0,0.6,0,1.2,0.1,1.7c0.1,0.5,0.2,0.9,0.2,1.1
			c0,0.1,0,0.1-0.1,0.1c0,0-0.1,0-0.1-0.1c-0.1-0.1-0.2-0.4-0.4-0.9C71.1,36.4,71,36.2,71,36c-0.1-0.4-0.2-0.8-0.2-1.3
			c0-0.3,0-0.5,0-0.8c0,0-0.1-0.1-0.1-0.1c-0.1,0-0.2,0-0.3,0.2c-0.1,0.1-0.1,0.1-0.2,0.2c-0.3,0.3-0.6,0.4-1,0.6
			c-0.2,0.1-0.4,0.1-0.6,0.1c-0.2,0-0.4,0-0.7,0c-0.5-0.1-0.8-0.3-1.1-0.4c-0.2-0.2-0.5-0.3-0.7-0.5c-0.1,0-0.1-0.1-0.2-0.2
			c0,0,0,0,0,0c0,0,0,0,0,0c0,0.4,0,0.7,0,1.1c0,0.4-0.1,0.9-0.2,1.3c-0.1,0.2-0.1,0.4-0.2,0.6c-0.1,0.4-0.3,0.7-0.4,0.9
			c0,0-0.1,0.1-0.1,0.1c0,0,0,0,0,0c0,0-0.1-0.1-0.1-0.1c0-0.2,0.1-0.6,0.2-1.1c0.1-0.5,0.1-1.1,0.1-1.7c0-1-0.1-1.9-0.2-2.3
			c-0.2-0.3-0.3-0.5-0.4-0.7c-0.2-0.3-0.3-0.7-0.4-1c-0.2-0.6-0.4-1.2-0.4-1.9C63.6,28.3,63.6,27.8,63.6,27.3 M61.8,33.1
			c0,0,0.1,0,0.1,0c0.2,0.2,0.4,0.5,0.7,0.9c0.3,0.5,0.5,1,0.7,1.6c0.1,0.5,0.1,1.1,0,1.6l0,0.2l-0.1,0.3c0,0,0,0.1,0,0.1l0,0.1
			c0,0.1,0,0.1-0.1,0.2l-0.1,0.2c0,0.1-0.1,0.1-0.1,0.1c0,0,0,0,0,0c-0.1,0-0.1-0.1-0.1-0.2l0-0.2c0,0,0-0.1,0-0.1c0,0,0-0.1,0-0.1
			c0,0,0,0,0-0.1c0,0,0-0.1,0-0.1l0-0.4l0-0.1c0-0.5,0-0.9-0.1-1.4c-0.1-0.5-0.2-1-0.4-1.5c-0.1-0.3-0.2-0.5-0.3-0.8
			c0-0.1-0.1-0.2-0.1-0.3C61.7,33.2,61.7,33.1,61.8,33.1 M60.2,68.4c0.1,0,0.2,0.1,0.2,0.1L60.2,68.4C60.3,68.4,60.2,68.4,60.2,68.4
			 M65.9,50.1c1-1.2,4-2.7,6.2-3.9c0.6-0.3,1.2-0.6,1.6-0.9c0.1,0,0.1,0,0.2,0c0,0.1,0,0.2,0,0.2c-1.3,1.1-5.6,4-6.7,5.4
			c-1.4,1.7-2,4.1-2.1,5.8c0,0.1-0.1,0.1-0.1,0.1h0c-0.1,0-0.1,0-0.1-0.1C64.6,52.8,64.8,51.5,65.9,50.1"/>
		<path class="st1" d="M55.5,52.6c0.1,0,0.3,0.4,0,0.4c0,0-3.8,0.6-6.9,0.3c-2.9-0.3-4.2-1.1-4.8-1.3c-0.9-0.3-0.7,0.3-0.4,0.5
			c0.4,0.5,0.9,0.9,1.4,1.3c1.9,1.4,4.4,2.7,12.3,2.5c0.2,0,0.3,0.2,0.1,0.3c-1.1,0.5-3.9,0.4-4.7,0.3c-1-0.1-0.6,0.4-0.3,0.6
			c0.3,0.2,0.6,0.3,0.9,0.5c1.9,0.9,4.2,1,5.1,0.9c0,0,0.2,0,0.3,0c-0.2-3.3-0.7-5.5-1.1-7.3c-1.6-7.2-1.2-9.7-0.4-11.3
			c0.6-1.2,2.8-1.9,3.2-2c0-0.4,0-0.9-0.1-1.3c-0.2-0.7-0.5-1.2-1.1-1.6c-1.9-1.3-6-3.2-9.2-7c-1.7-2-3.5-4.6-4.4-6.3
			c-0.4-0.7-0.7-1.4-1-2c-2-4.5-2.5-9.2-2.7-10.1c-0.1-0.5-0.2-0.6-0.4-0.5c-0.1,0.1-0.2,0.3-0.3,0.5c-0.2,0.5-0.3,1.1-0.4,1.7
			c-0.3,2.5-0.2,7,1.7,11.9c2.2,5.6,7,11.5,11.8,14.8c0.4,0.2,0.2,0.6-0.1,0.5c-6-2.4-10.4-9.4-11.7-11.6
			c-2.8-4.8-3.4-10.9-3.6-11.9c-0.2-1-0.6-0.4-0.7-0.1c-0.8,2.7-0.5,6.5,0.1,9.3c1.9,8.6,9.5,14.6,16,17.5c0.3,0.1,0.1,0.5-0.1,0.5
			c-5-1-10.1-5.7-11.7-7.3c-3.8-4.1-5.5-9.7-5.8-10.7c-0.1-0.2-0.1-0.3-0.2-0.4c-0.3-0.4-0.5,0.1-0.5,0.4c-0.2,1.1-0.2,2.2,0,3.4
			c0.5,5.3,4,9,5.2,10.1c5.5,5.1,12.5,7.2,12.6,7.2c0.1,0,0.2,0.4-0.2,0.4c-9.5-0.9-16.6-10-17.7-12.3c-0.2-0.4-0.4-0.9-0.5-0.8
			c-0.4,0.2-0.4,2.9,0.3,4.6c1.7,4.1,5.4,9,18.2,11.1c0.3,0,0.3,0.4,0.1,0.4c-6.7,0.1-12.2-2.2-15.5-5c-0.7-0.6-0.7-0.1-0.6,0.3
			C38.1,47.2,44.5,53.2,55.5,52.6"/>
		<path class="st1" d="M84,48.7c12.7-2,16.5-7,18.2-11.1c0.7-1.7,0.7-4.4,0.3-4.6c-0.2-0.1-0.4,0.4-0.5,0.8
			c-1,2.2-8.2,11.4-17.7,12.3c-0.4,0-0.3-0.4-0.2-0.4c0.1,0,7.1-2.1,12.6-7.2c1.2-1.1,4.7-4.8,5.2-10.1c0.1-1.2,0.1-2.4,0-3.4
			c0-0.3-0.3-0.8-0.5-0.4c-0.1,0.1-0.1,0.2-0.2,0.4c-0.3,0.9-2.1,6.6-5.8,10.7c-1.5,1.7-6.6,6.4-11.7,7.3c-0.2,0-0.4-0.4-0.1-0.5
			c6.5-2.9,14.1-8.9,16-17.5c0.6-2.7,1-6.5,0.1-9.3c-0.1-0.4-0.5-0.9-0.7,0.1c-0.2,1-0.8,7-3.6,11.9c-1.3,2.2-5.7,9.3-11.7,11.6
			c-0.3,0.1-0.4-0.3-0.1-0.5c4.8-3.3,9.6-9.2,11.8-14.8c1.9-4.9,2-9.4,1.7-11.9c-0.1-0.6-0.2-1.2-0.4-1.7c-0.1-0.2-0.2-0.4-0.3-0.5
			c-0.1-0.1-0.3,0-0.4,0.5c-0.2,0.9-0.7,5.6-2.7,10.1c-0.3,0.7-0.7,1.3-1,2c-0.9,1.7-2.7,4.4-4.4,6.3c-2.6,3.1-6.2,4.6-8.4,6.1
			c-0.6,0.4-1,1.1-1.1,1.8c-0.1,0.7-0.3,1.5-0.9,2c0.6,0,2.3,0.6,3.1,1.6c1.3,1.8,1.3,4.3,0.1,11.5c-0.3,1.8-1.3,7.3-1.3,7.3
			s0.2,0,0.4,0.1c1,0,3,0,4.8-0.9c0.3-0.1,0.6-0.3,0.9-0.5c0.3-0.2,0.7-0.7-0.3-0.6c-0.8,0.1-3.6,0.2-4.7-0.3
			c-0.3-0.1-0.2-0.4,0.1-0.3c7.9,0.1,10.4-1.1,12.3-2.5c0.5-0.4,1-0.8,1.4-1.3c0.3-0.3,0.5-0.9-0.4-0.5c-0.5,0.2-1.9,1-4.8,1.3
			C86,53.7,82.2,53,82.2,53c-0.3-0.1-0.1-0.4,0-0.4c11,0.6,17.3-5.4,17.8-8.2c0.1-0.4,0.1-0.9-0.6-0.3c-3.4,2.9-8.8,5.1-15.5,5
			C83.7,49.1,83.7,48.8,84,48.7"/>
	</g>
</g>
</svg>
