<svg width="338" height="438" viewBox="0 0 338 438" fill="none" xmlns="http://www.w3.org/2000/svg">
<path d="M283.137 151.935H338L328.775 260.022H292.119L283.137 151.935ZM310.568 324.146C302.477 324.146 295.841 321.717 290.662 316.86C285.484 311.84 282.894 305.767 282.894 298.643C282.894 291.356 285.484 285.364 290.662 280.668C295.841 275.972 302.477 273.624 310.568 273.624C318.66 273.624 325.215 275.972 330.232 280.668C335.411 285.364 338 291.356 338 298.643C338 305.767 335.411 311.84 330.232 316.86C325.053 321.717 318.499 324.146 310.568 324.146Z" fill="#F57416" fill-opacity="0.4"/>
<path d="M61.9659 424.979C88.3333 430.816 113.108 427.043 142.189 435.828C155.402 439.838 167.671 432.349 188.14 431.524C227.957 429.991 265.237 419.79 243.706 416.252C227.78 413.599 171.27 409.118 156.641 410.533C139.593 412.184 133.105 408.351 117.001 406.346C105.44 404.931 86.2688 402.042 74.9432 405.757C70.932 407.054 34.0649 418.788 61.9659 424.979Z" fill="#DCE4E8"/>
<path d="M175.281 137.245C170.68 138.955 167.082 141.962 163.13 145.558C157.939 150.276 157.703 144.084 156.818 139.839C156.228 136.891 155.697 134.12 154.341 131.407C156.936 132.056 159.472 132.763 162.009 133.471C166.315 134.709 170.798 135.888 175.281 137.245Z" fill="white"/>
<path d="M202.946 149.332C198.05 151.809 194.451 156.172 190.322 159.769C188.199 157.174 187.432 153.578 185.957 150.629C184.011 146.797 181.297 143.613 180.766 139.367C180.884 139.308 181.002 139.249 181.12 139.249C181.179 139.19 181.179 139.19 181.238 139.19C188.022 141.49 194.628 144.143 200.527 147.74C201.353 148.212 202.12 148.801 202.946 149.332Z" fill="white"/>
<path d="M295.025 174.627C292.607 175.099 289.186 174.273 286.649 174.332C283.464 174.391 280.278 174.686 277.152 175.158C272.905 175.806 267.891 177.045 264.352 179.757C264.234 179.698 264.116 179.639 263.998 179.58C264.411 172.092 263.939 164.78 262.11 158.294C265.001 155.936 267.537 153.164 269.779 150.157C276.798 152.811 282.225 156.997 287.475 162.304C289.834 164.662 292.017 167.139 294.376 169.438C294.907 169.91 296.5 171.03 296.795 171.679C297.739 173.92 296.854 174.273 295.025 174.627Z" fill="#B6E07B"/>
<path d="M283.641 212.421C282.166 213.837 271.961 209.414 269.602 209.061C266.299 208.589 262.7 208.353 259.574 209.532C259.279 209.178 258.925 209.061 258.512 209.061C260.872 201.336 262.759 192.787 263.644 184.296C268.54 187.362 270.959 191.902 274.557 196.501C275.973 198.388 286.708 209.532 283.641 212.421Z" fill="#B6E07B"/>
<path d="M263.585 243.318C261.756 250.394 258.512 245.913 254.383 244.026C251.197 242.611 247.953 241.667 244.532 241.431C244.473 241.313 244.473 241.195 244.473 241.136C249.369 235.181 254.265 227.634 255.149 220.087C255.857 218.023 256.565 215.841 257.155 213.601C261.284 221.738 265.826 234.827 263.585 243.318Z" fill="#B6E07B"/>
<path d="M241.937 260.18C241.642 263.895 240.226 271.384 237.041 274.685C233.973 268.789 227.544 262.185 220.76 262.185C225.361 259.001 229.844 255.581 234.091 251.926C234.15 251.749 234.209 251.631 234.268 251.454C236.746 249.508 239.105 247.267 241.406 244.791C242.055 249.803 242.291 255.169 241.937 260.18Z" fill="#B6E07B"/>
<path d="M93.288 227.162C92.1672 226.809 90.9875 226.455 89.8667 226.16C82.4343 224.273 74.9429 222.799 67.3925 221.502C68.9852 218.318 71.5216 215.547 74.0581 213.129C75.8867 211.419 79.5439 207.292 82.1984 206.702C85.6786 205.995 88.1561 211.773 89.3359 214.308C91.2235 218.436 92.0493 222.858 93.288 227.162Z" fill="white"/>
<path d="M121.661 236.537C118.594 235.889 115.586 235.122 112.636 234.297C107.15 232.705 101.959 230.346 96.6505 228.341C96.7095 228.223 96.7095 228.046 96.6505 227.87C96.6505 227.811 96.5916 227.752 96.5916 227.693C98.4792 225.629 100.485 223.742 102.726 221.914C104.968 220.145 108.507 216.608 111.397 215.9C119.184 213.954 121.248 230.877 121.661 236.537Z" fill="white"/>
<path d="M153.809 239.072C144.194 239.721 134.461 238.954 125.023 237.185C125.023 237.126 125.082 237.067 125.082 237.067V236.949C130.214 232.232 135.051 226.277 141.068 222.739C145.433 220.145 147.497 225.157 149.503 228.518C151.39 231.82 153.16 235.298 153.809 239.072Z" fill="white"/>
<path d="M214.92 276.749C213.917 280.818 212.442 284.768 210.967 288.66C209.847 287.068 208.903 285.299 207.487 283.943C205.6 282.233 203.535 280.523 201.353 279.108C199.288 277.81 196.81 276.513 194.333 276.218C199.583 274.273 204.656 271.855 209.375 269.261C211.557 268.022 213.74 266.784 215.863 265.369C217.102 268.376 215.569 274.273 214.92 276.749Z" fill="#B6E07B"/>
<path d="M247.481 374.507C240.757 375.097 233.56 374.331 226.777 372.856C228.428 371.441 230.139 369.967 231.791 368.552C233.678 366.96 236.982 363.128 239.341 362.597C243.942 361.477 246.833 370.675 247.481 374.507Z" fill="#B6E07B"/>
<path d="M222.766 371.795C220.819 371.323 218.932 370.733 217.103 370.144C212.679 368.67 208.668 366.665 204.952 364.247C205.011 364.188 205.011 364.07 205.07 364.011C209.376 361.122 214.095 357.879 218.991 356.346C220.819 355.757 221.291 355.639 222.412 357.466C223.238 358.823 223.474 360.651 223.71 362.184C224.182 365.485 223.769 368.669 222.766 371.795Z" fill="#B6E07B"/>
<path d="M201.884 362.008C196.339 357.763 191.502 352.574 187.137 346.854C189.968 345.144 193.036 343.965 196.103 342.668C198.994 341.489 201.766 339.72 204.892 339.248C205.718 347.09 203.477 354.402 201.884 362.008Z" fill="#B6E07B"/>
<path d="M250.018 375.922C227.484 392.49 202.238 400.745 173.983 393.138C173.983 393.138 173.983 393.138 173.924 393.138C174.16 392.254 174.337 391.429 174.573 390.485C177.699 375.981 180.235 360.945 180.648 346.087C189.85 358.115 200.114 368.198 214.743 373.268C224.063 376.452 238.574 379.99 248.838 376.216C249.192 376.275 249.605 376.157 250.018 375.922Z" fill="#69BFB2"/>
<path d="M176.283 346.205C176.047 360.71 173.747 375.274 170.68 389.424C168.556 399.448 169.323 412.302 162.185 420.32C162.008 420.202 144.489 426.629 144.312 426.511C142.955 425.509 143.604 423.386 144.902 420.91C145.256 420.261 137.057 421.912 137.411 421.205C139.534 417.49 152.04 414.483 150.27 412.655C146.672 408.941 141.481 401.57 138.649 397.207C137.293 395.085 136.29 392.844 135.464 390.604C135.405 390.132 135.287 389.719 134.992 389.424C134.343 387.597 133.694 385.769 133.046 383.941C132.161 373.446 139.121 363.658 142.189 353.222C143.84 347.561 143.899 342.55 142.484 337.715C145.315 339.72 148.323 341.312 151.391 342.314C158.823 344.731 167.966 347.149 176.283 346.205Z" fill="#69BFB2"/>
<path d="M132.751 389.071C120.718 390.427 108.566 387.42 97.2405 382.938C99.0692 383.233 100.721 383.351 102.078 383.587C110.985 384.884 122.31 384.707 130.922 382.172C131.04 384.354 131.571 386.535 132.633 388.54C132.692 388.658 132.751 388.894 132.751 389.071Z" fill="#B6E07B"/>
<path d="M134.52 365.781C134.048 367.078 133.517 368.434 133.105 369.731C131.984 373.092 131.099 376.571 130.922 379.873C130.804 379.873 130.627 379.932 130.45 379.991C123.785 382.88 113.639 382.172 106.501 382.113C103.552 382.113 98.9508 382.467 94.7037 381.937C92.9931 381.229 91.2235 380.463 89.5128 379.696C84.027 375.333 80.3698 369.318 77.9513 362.714C77.5974 361.889 77.3614 361.005 77.0665 360.12C88.451 368.08 102.844 368.375 116.293 367.667C119.596 367.491 128.916 367.726 134.52 365.781Z" fill="#B6E07B"/>
<path d="M140.124 345.38C140.183 347.503 139.947 349.802 139.239 352.456C138.354 355.817 137.115 359.06 135.818 362.362C130.922 365.958 119.832 365.133 114.523 365.428C101.251 366.076 88.2737 365.369 76.5942 358.824C75.1785 354.048 74.2347 349.095 73.7628 344.083C83.9086 349.036 96.4139 349.92 107.445 350.156C118.593 350.333 130.037 350.451 140.124 345.38Z" fill="#B6E07B"/>
<path d="M139.947 343.022C130.037 348.388 118.535 348.27 107.504 348.093C96.4732 347.916 84.0268 347.916 73.704 343.494C73.2321 338.777 73.0552 333.942 73.0552 329.225C82.9651 331.996 94.2317 333.588 104.437 333.824C114.7 334.119 122.369 330.876 131.689 327.81C133.34 329.873 135.287 331.465 136.939 333.411C138.413 336.713 139.534 339.72 139.947 343.022Z" fill="#B6E07B"/>
<path d="M130.568 326.1C121.72 328.989 114.346 332.232 104.496 332.114C94.2907 332.055 83.26 330.404 73.1142 328.753C73.1142 326.807 73.1732 324.861 73.2322 322.975C73.3501 319.319 73.5861 315.663 74.117 312.066C84.7937 315.781 96.3553 319.201 107.799 318.67C113.226 318.375 123.313 314.012 128.091 317.255C128.267 317.373 128.385 317.373 128.562 317.373C128.503 317.786 128.503 318.199 128.68 318.493C128.916 321.147 129.27 323.741 130.568 326.1Z" fill="#B6E07B"/>
<path d="M115.939 299.802C104.26 304.578 90.2208 300.687 78.6593 296.795C83.4963 288.776 92.5804 284.413 102.372 289.602C107.15 292.137 111.81 295.734 115.939 299.802Z" fill="#B6E07B"/>
<path d="M127.677 314.485C124.197 313.011 117.236 315.074 114.582 315.487C100.838 317.669 87.5068 314.956 74.2346 311.006C74.7065 307.881 75.4144 304.756 76.4172 301.749C76.8301 300.392 77.4199 299.095 78.0688 297.916C90.2202 302.692 105.026 307.173 117.531 301.513C121.484 305.522 124.905 310.003 127.677 314.485Z" fill="#B6E07B"/>
<path d="M38.4888 216.254C32.708 215.547 26.9862 215.429 22.1492 216.667C20.7335 217.021 19.6718 217.492 18.8459 218.141C19.3178 214.721 19.7308 211.36 21.2054 208.117C22.1492 206.113 24.4498 200.275 26.8093 199.862C28.7558 199.509 31.8822 205.228 32.944 206.761C35.0085 209.65 36.3062 213.483 38.4888 216.254Z" fill="white"/>
<path d="M64.7973 221.03C64.2074 220.912 63.6175 220.853 62.9687 220.735C59.0755 220.086 55.2413 219.438 51.3482 218.907C48.3988 218.082 45.2724 217.315 42.0871 216.784C42.0281 216.725 42.0281 216.666 42.0281 216.608C42.0871 216.49 42.1461 216.431 42.2051 216.313C42.5 216.077 42.736 215.723 42.854 215.369C44.5646 212.716 46.3932 210.122 48.4578 207.704C49.7555 206.171 53.6487 201.041 55.8312 201.867C57.7778 202.574 60.7272 208.942 61.553 210.534C63.2636 213.895 64.1484 217.374 64.7973 221.03Z" fill="white"/>
<path d="M40.0229 117.198C38.4892 119.911 37.8993 123.271 37.4274 126.22C37.2505 127.576 37.1325 128.991 37.0145 130.406C36.8965 131.349 36.8965 132.47 36.6016 133.354C36.2477 134.651 36.3067 134.946 35.1269 134.71C32.4135 134.062 29.5231 128.637 28.1074 126.514C26.9276 124.687 24.6861 121.797 23.9783 119.144C28.7563 119.557 36.0707 117.493 39.1381 117.198C39.433 117.198 39.7279 117.198 40.0229 117.198Z" fill="white"/>
<path d="M61.0807 116.609C57.7775 120.087 56.1258 126.338 54.2382 129.934C53.2944 131.821 52.5276 134.003 50.1681 132.234C48.9293 131.291 47.9855 128.932 47.2777 127.635C45.567 124.392 43.9744 121.149 43.1486 117.67C43.3255 117.375 43.5025 117.198 43.7384 116.903C49.5192 116.55 55.3 116.432 61.0807 116.609Z" fill="white"/>
<path d="M86.6224 118.672C82.3163 122.033 81.0186 128.754 76.3586 132.056C71.2857 135.653 67.4515 123.035 64.974 117.315C65.151 117.139 65.3869 116.962 65.5639 116.844C66.9796 116.962 68.3953 117.021 69.811 117.139C73.1733 117.492 76.5945 117.964 79.9568 118.554C82.1983 118.495 84.4399 118.613 86.6224 118.672Z" fill="white"/>
<path d="M114.523 123.094C113.698 123.743 112.931 124.392 112.164 125.099C109.981 127.163 105.616 135.771 103.021 136.007C98.5968 136.42 93.17 125.158 90.9874 119.91C91.1644 119.851 91.3413 119.851 91.5183 119.851C91.6363 119.792 91.6953 119.792 91.8132 119.733C93.8188 120.205 95.7654 120.618 97.712 120.854C103.139 121.62 108.92 122.741 114.523 123.094Z" fill="white"/>
<path d="M147.321 129.698C142.661 132.234 138.945 136.42 134.697 139.663C131.984 141.727 131.984 142.198 129.624 138.955C128.504 137.481 127.678 135.83 126.793 134.179C124.964 130.759 123.313 127.457 121.189 124.273C129.978 125.865 138.709 127.634 147.321 129.698Z" fill="white"/>
<path d="M205.895 151.867C200.173 154.108 196.221 159.768 191.443 163.483C190.676 164.131 189.732 164.19 188.965 163.483C185.308 160.181 184.305 154.815 182.477 150.511C181.12 147.209 179.173 143.435 179.645 139.78C175.339 141.49 171.446 142.61 167.848 146.03C165.193 148.565 162.834 150.747 159.412 152.162C158.646 152.516 157.879 151.926 157.466 151.336C153.101 145.735 154.163 137.952 153.632 131.289C153.514 131.348 153.455 131.407 153.278 131.407C145.02 133.117 139.888 141.431 132.514 145.145C131.806 145.499 131.04 145.44 130.45 144.851C124.846 139.426 122.427 132.115 120.54 124.745C120.363 124.627 120.186 124.45 119.95 124.332C111.633 124.804 108.742 143.907 99.5992 138.542C93.5235 135.004 91.9898 126.513 90.1612 120.087C83.4956 122.504 80.7232 138.601 72.583 135.358C66.8612 133.058 65.6814 123.86 64.3247 117.787C60.9624 120.853 59.4288 126.042 57.4822 129.992C56.8923 131.23 56.1255 133.058 55.0637 134.473C53.648 141.313 53.2351 149.391 50.2267 155.641C47.9262 160.299 43.2072 163.247 40.8477 167.846C32.7664 184.001 38.1343 201.513 43.6791 210.652C45.0948 207.055 45.9206 206.289 48.5161 203.282C50.1087 201.395 53.0581 197.386 56.0665 198.211C58.7209 198.919 61.6113 204.697 62.791 206.702C64.9146 210.298 66.6252 214.19 67.0381 218.317C68.0999 215.664 69.9875 213.364 72.1111 211.183C74.4116 208.824 79.0716 203.753 82.6108 203.282C86.0911 202.869 88.3326 206.819 90.0433 209.355C93.1696 214.19 95.1162 220.086 96.178 225.805C98.5374 222.032 101.959 218.848 105.38 216.135C107.739 214.308 111.22 211.006 114.523 211.713C118.416 212.598 120.481 218.376 121.838 221.56C123.548 225.746 124.669 230.168 124.905 234.649C126.851 230.817 130.45 227.692 133.576 224.862C136.053 222.562 139.416 217.727 143.073 217.433C146.907 217.079 150.446 222.444 152.511 224.921C155.637 228.753 158.115 232.881 159 237.892C159.059 238.128 159.059 238.364 159 238.6C174.218 236.713 188.611 231.053 199.701 219.791C216.158 203.164 224.417 169.261 205.895 151.867Z" fill="#F7D2B7"/>
<path d="M297.266 137.776C293.609 139.25 289.598 139.427 285.823 140.488C281.34 141.785 277.093 143.672 272.846 145.5C274.792 142.257 276.385 138.837 277.565 135.3C279.157 130.7 280.16 125.983 280.632 121.325C287.828 124.863 292.783 131.231 297.266 137.776Z" fill="#B6E07B"/>
<path d="M230.67 60.0052C225.243 59.1208 219.522 58.9439 213.564 59.4156C210.438 59.7104 206.426 60.2411 202.415 61.3024C198.994 60.1821 195.986 58.2953 192.918 56.3496C200.882 50.9841 200.351 33.2955 199.171 25.6895C206.191 29.8757 212.62 35.654 218.873 40.9016C224.359 45.5006 230.316 52.5171 230.67 60.0052Z" fill="#B6E07B"/>
<path d="M195.337 45.7365C194.039 50.5714 192.505 52.812 189.261 53.4605C188.966 53.5195 188.789 53.6374 188.612 53.7553C187.55 53.1657 186.489 52.6351 185.427 52.1634C179.174 49.5101 172.45 47.8002 165.784 46.562C167.377 44.8521 167.377 41.1375 167.436 39.0739C167.613 32.4112 166.079 24.982 162.481 19.2627C169.146 20.1471 174.514 24.5103 180.059 28.107C186.312 32.0574 190.913 35.4772 193.803 42.5526C194.157 43.555 194.393 44.6163 195.337 45.7365Z" fill="#B6E07B"/>
<path d="M130.922 39.1332C131.394 33.5906 129.506 27.3405 127.324 22.5645C134.225 23.272 140.891 26.8098 146.731 30.4066C151.686 33.4727 160.18 39.3101 160.888 45.796C150.742 44.322 140.301 43.8503 129.919 43.9092C130.686 42.3762 130.922 40.7252 130.922 39.1332Z" fill="#B6E07B"/>
<path d="M69.7518 84.5331C69.6929 84.651 69.6339 84.8279 69.6339 84.8869C69.6339 84.8869 69.6339 84.9458 69.5749 84.9458C69.5749 84.9458 69.5749 84.9458 69.5749 85.0048C69.4569 85.1817 69.3389 85.3586 69.162 85.4765C68.2772 86.4199 67.0974 86.5968 65.8587 86.3609C63.2042 86.4788 60.6088 85.7123 58.9571 83.5307C58.4263 82.8232 58.6622 81.526 59.3111 80.9364C61.6706 78.8138 65.3278 79.7572 67.8642 81.526C69.221 81.644 69.9878 82.9411 69.8108 84.1793C69.8108 84.2972 69.8108 84.4152 69.7518 84.5331ZM112.518 85.0637C110.748 89.1321 102.667 89.1321 99.8944 86.243C98.9506 85.2406 99.3046 83.4128 100.72 83.0591C102.136 82.7053 103.375 82.2925 104.672 82.2336C106.619 81.8798 108.861 81.9388 110.748 81.9388C112.4 82.0567 113.108 83.7076 112.518 85.0637ZM241.877 129.285C239.872 130.936 237.453 131.997 234.858 132.469C230.375 133.825 225.479 134.12 220.406 133.059C209.257 130.7 201.058 121.325 197.047 111.007C195.218 107.292 194.097 103.283 193.979 99.2735C193.213 67.3163 251.197 60.2408 257.804 92.1392C260.753 106.703 253.734 121.974 241.877 129.285ZM266.829 86.3609C255.857 72.269 240.58 63.3069 222.588 62.7762C213.268 62.4814 190.794 63.071 186.96 74.0969C186.96 74.2148 186.783 74.1558 186.783 74.0379C187.668 67.67 193.508 64.0734 200.055 61.9507C197.224 61.3611 194.687 60.2408 191.797 58.8847C185.898 56.1135 180.176 54.2267 173.865 52.7527C160.475 49.6277 146.907 48.8612 133.222 48.5664C105.911 47.9768 79.5438 52.222 56.0078 66.8446C43.9743 74.2737 36.6009 85.5354 29.2274 97.3278C26.809 101.219 25.2163 105.406 24.0366 109.828C22.7978 114.486 21.6181 115.724 26.691 115.252C30.4662 114.898 34.3004 114.545 38.0756 114.25C40.966 113.778 43.9153 113.424 46.9827 113.306C56.9516 112.835 66.9794 113.365 76.8893 114.368C96.2962 116.313 115.644 119.615 134.697 123.625C140.714 124.922 146.73 126.278 152.688 127.811C153.042 127.811 153.278 127.87 153.573 128.047C162.539 130.346 171.446 133 180.235 136.007C180.353 135.948 180.471 135.948 180.648 135.948C181.415 135.83 181.828 136.184 182.064 136.655C183.952 137.304 185.898 137.952 187.727 138.719C197.165 142.198 207.016 146.561 212.855 155.169C225.715 174.096 218.282 203.164 204.184 219.202C191.207 233.883 174.632 239.721 156.935 241.136C156.463 241.312 155.874 241.312 155.402 241.254C145.433 241.902 135.169 241.195 125.023 239.897C107.917 237.716 92.462 229.933 75.5326 226.513C66.5665 224.685 57.4824 223.388 48.4574 221.796C44.8591 221.148 41.2019 220.322 37.5447 219.674C34.3004 219.379 31.0561 219.261 27.8117 219.261C24.2135 219.32 19.1406 220.912 19.0816 225.747C19.0816 227.633 21.2641 230.758 22.2669 232.409C25.1573 236.89 29.2274 240.369 33.4156 243.612C35.3621 245.145 37.3677 246.678 39.3733 248.152C42.8536 250.746 46.3928 253.282 50.05 255.64C52.6455 257.35 55.2999 258.942 58.0723 260.475C67.3334 265.605 77.8921 271.737 88.5099 272.621C88.8638 272.68 88.8638 273.093 88.5099 273.093C84.5577 273.565 80.6055 273.152 76.7124 272.208C76.8893 274.98 72.5832 277.987 70.9316 279.579C69.8108 280.64 68.6311 281.642 67.5693 282.704C67.5103 282.939 67.3923 283.234 67.0974 283.411C66.8615 283.588 66.6255 283.765 66.3896 283.942C66.0356 284.355 65.6227 284.767 65.3278 285.239C63.2632 288.128 61.7885 291.43 60.0189 294.555C59.783 295.027 59.0751 294.732 59.1931 294.201C60.0189 291.371 61.0217 288.482 62.2604 285.77C56.4207 288.364 49.1652 286.713 43.0305 285.947C35.5391 285.062 28.1657 284.355 22.8568 278.753C24.4495 284.885 25.8062 291.194 27.6938 297.208C30.3482 305.699 38.6654 319.732 49.4602 318.199C49.8731 318.14 50.286 318.258 50.5809 318.376C51.0528 314.956 51.7607 311.536 52.8814 308.057C52.9404 307.939 53.1174 307.939 53.0584 308.116C52.4095 320.793 51.6427 333.057 55.005 345.498C57.9543 356.406 63.0273 367.137 68.6901 376.925C68.7491 377.043 68.867 377.16 68.926 377.337C72.2883 383.175 76.0045 389.189 80.0747 394.79C81.7853 397.207 83.6139 399.566 85.4425 401.806C88.3329 405.285 90.5744 405.285 92.2851 403.634C92.462 403.457 92.639 403.222 92.8159 403.045C94.4676 400.981 95.5294 397.266 96.1782 393.788C96.2962 393.198 96.4142 392.549 96.4732 391.96C96.4732 391.96 96.4732 391.96 96.4732 391.901C96.5322 391.665 96.5322 391.429 96.5911 391.193C96.5911 391.075 96.6501 390.957 96.6501 390.84C96.7091 390.604 96.7091 390.368 96.7091 390.191C96.7091 390.132 96.7091 390.073 96.7091 390.014C96.7091 389.837 96.7681 389.719 96.7681 389.542C96.7681 389.366 96.8271 389.248 96.8271 389.071C96.8271 388.894 96.8271 388.776 96.8861 388.658C96.8861 388.422 96.9451 388.245 96.9451 388.068C96.9451 387.95 96.9451 387.833 96.9451 387.715C96.9451 387.538 96.9451 387.42 96.9451 387.302C96.9451 387.125 96.9451 387.007 96.9451 386.83C97.0041 386.653 97.0041 386.535 97.063 386.417C92.639 384.708 88.5099 382.939 84.6757 379.047C79.3078 373.623 76.0635 366.194 74.0579 359C69.3389 342.491 68.926 322.267 72.9962 305.581C76.2995 292.02 85.5015 281.171 101.015 286.89C106.914 289.072 112.577 294.968 117.119 299.154C117.237 299.272 117.296 299.331 117.414 299.449C117.886 299.567 118.24 299.92 118.299 300.333C122.664 304.52 126.439 309.177 128.68 314.72H128.739C128.857 314.897 128.916 315.133 129.034 315.31C129.152 315.486 129.329 315.663 129.447 315.84C129.506 315.899 129.506 315.958 129.506 315.958C129.683 315.899 129.919 315.84 130.155 315.84C133.753 316.135 137.116 317.255 140.714 317.373C145.197 317.491 149.798 316.312 154.222 315.604C161.3 314.484 168.143 312.008 175.162 311.123C175.221 311.123 175.28 311.182 175.221 311.241C162.952 320.498 145.905 322.031 131.217 319.496C133.753 323.8 138.944 330.05 141.422 332.408C145.551 336.418 150.565 338.423 156.11 339.897C165.135 342.255 176.342 345.38 184.718 339.72C197.991 330.64 196.575 303.222 185.603 289.484C181.297 285.357 175.87 282.586 169.795 280.64C163.542 280.286 157.348 278.635 151.508 275.216C151.449 275.157 151.508 275.039 151.567 275.039C172.213 279.873 190.676 275.805 208.903 265.428C212.973 263.069 216.867 260.534 220.701 257.822C225.774 252.692 231.496 248.152 236.568 243.081C243.057 236.478 247.599 228.989 251.079 220.499C251.964 217.846 252.79 215.133 253.439 212.303C255.503 203.518 256.27 194.497 256.506 185.476C256.683 178.4 257.686 169.497 255.208 162.599C249.428 165.134 243.411 165.37 236.509 165.782C235.33 165.9 234.74 164.014 235.861 163.483C242.349 160.653 249.31 161.596 255.68 158.058L255.739 157.999C256.152 157.764 256.565 157.528 256.978 157.292C260.871 154.698 264.116 151.337 266.888 147.445C266.829 147.268 266.947 147.033 266.947 146.856C267.655 146.089 268.304 145.264 268.953 144.438C269.188 144.143 269.306 143.79 269.424 143.495C269.66 143.141 269.837 142.728 270.073 142.375C270.486 141.608 270.899 140.842 271.253 140.075C271.43 139.662 271.607 139.309 271.784 138.896C272.492 137.363 273.141 135.771 273.672 134.238C279.393 117.964 277.506 100.04 266.829 86.3609Z" fill="#69BFB2"/>
<path d="M235.979 75.3345C222.707 72.6812 202.887 78.0468 197.755 92.0207C194.275 101.396 199.642 111.773 205.954 118.495C210.673 123.506 220.701 129.52 229.549 129.992C233.265 129.579 236.981 128.282 240.285 126.336C240.462 126.16 240.639 125.983 240.816 125.747C241.17 125.393 241.524 125.216 241.936 125.275C243.529 124.155 245.004 122.917 246.302 121.443C259.928 106.643 257.745 79.6977 235.979 75.3345Z" fill="#FFDB26"/>
<path d="M176.696 344.731C176.224 344.731 175.752 344.731 175.221 344.731C172.213 344.436 169.205 344.613 166.137 344.141C162.952 343.67 159.826 343.021 156.699 342.255C151.98 341.075 146.022 340.25 142.778 336.24C142.365 335.769 141.716 336.063 141.539 336.594C141.421 336.594 141.244 336.653 141.244 336.771C139.947 343.847 149.916 348.387 155.284 349.743C159.767 350.922 164.545 351.158 169.205 350.627C172.213 350.274 177.05 350.038 178.289 346.795C178.643 345.792 177.699 344.672 176.696 344.731Z" fill="#53A6A3"/>
<path d="M205.836 395.38C196.811 396.205 187.609 390.899 184.719 382.113C183.126 377.22 183.303 371.795 183.657 366.665C183.952 361.772 184.778 356.76 188.14 353.045C188.494 352.632 188.553 352.161 188.435 351.748C188.789 351.158 188.553 350.274 187.963 349.979C187.727 349.861 187.491 349.743 187.255 349.625C187.255 349.508 187.255 349.449 187.255 349.331C187.078 347.857 186.193 346.383 184.837 346.559C184.483 346.265 184.129 345.911 183.775 345.616C183.657 345.498 183.48 345.38 183.303 345.321C183.008 344.673 182.241 344.378 181.533 344.437C181.12 344.142 180.531 344.201 180.413 344.791C180.413 344.909 180.354 345.026 180.354 345.085C180.177 345.321 180.059 345.616 180.059 346.029C180.059 346.618 180 347.149 180 347.739C179.705 350.51 179.764 353.281 179.646 356.052C179.469 360.356 178.997 364.661 178.407 368.965C177.286 376.984 176.107 385.297 173.688 393.08C173.216 394.495 175.045 395.851 176.224 395.203C180.354 395.203 184.306 396.264 188.258 397.267C192.387 399.448 196.929 400.745 201.53 399.094C203.064 399.035 204.597 398.859 206.131 398.505C207.96 398.092 207.606 395.262 205.836 395.38Z" fill="#53A6A3"/>
<path d="M185.909 208.47C186.495 202.507 178.981 196.887 169.125 195.919C159.268 194.95 150.803 198.998 150.216 204.962C149.63 210.925 157.144 216.544 167 217.513C176.856 218.482 185.322 214.433 185.909 208.47Z" fill="#FCACAC"/>
<path d="M77.5761 187.24C78.4753 181.316 71.2664 175.31 61.4747 173.825C51.6829 172.34 43.0162 175.939 42.117 181.863C41.2178 187.787 48.4267 193.794 58.2185 195.279C68.0102 196.763 76.6769 193.165 77.5761 187.24Z" fill="#FCACAC"/>
<path d="M205.483 150.746C205.129 150.511 204.657 150.805 204.657 151.218C202.475 150.334 199.997 152.397 200.882 154.756C199.643 155.404 198.464 156.112 197.343 157.055C195.455 158.706 193.627 161.536 191.267 162.598C186.312 164.779 185.014 155.404 183.953 152.161C183.009 149.213 181.475 146.501 180.472 143.612C180.531 142.963 180.354 142.315 179.941 141.843C179.882 141.725 179.882 141.548 179.882 141.43C180.413 141.077 180.649 140.369 180.059 139.838C179.882 139.662 179.705 139.544 179.529 139.426C179.529 139.367 179.529 139.308 179.47 139.249C179.47 139.19 179.352 139.19 179.352 139.249C179.352 139.308 179.352 139.308 179.352 139.367C178.88 139.131 178.408 139.013 177.818 139.131C177.169 139.308 176.52 140.015 176.579 140.723C176.579 140.782 176.579 140.841 176.579 140.9C176.579 140.959 176.638 141.018 176.638 141.136C173.512 141.548 170.385 143.789 167.79 145.381C165.431 146.796 160.476 151.926 157.998 150.452C155.403 148.919 154.754 142.551 154.223 139.897C153.928 138.482 153.633 137.067 153.279 135.593C153.338 135.475 153.456 135.357 153.515 135.239C154.164 133.765 153.397 131.82 152.099 131.171C152.04 131.053 152.04 130.935 151.981 130.817C151.804 130.287 150.92 130.346 150.979 130.935C150.566 130.935 150.094 131.053 149.681 131.407C146.142 133.942 142.543 136.124 138.886 138.541C135.76 140.664 132.987 144.791 129.212 142.845C127.03 141.725 125.083 137.775 123.726 135.357C124.139 135.063 124.434 134.532 124.257 133.824C124.021 132.999 123.844 132.173 123.608 131.407C123.372 129.874 123.019 128.282 122.488 126.867C122.311 126.395 122.016 126.041 121.662 125.864C121.839 124.567 120.482 123.093 119.007 123.978C113.875 127.162 110.69 134.237 105.322 136.596C96.0613 140.723 93.9967 128.341 90.6934 121.619C90.1035 120.381 88.0979 120.145 87.2131 121.148C84.6177 124.214 80.0167 131.702 75.9465 133.412C74.8848 133.353 73.705 133.294 72.3483 133.058C71.5225 132.94 70.7556 132.763 70.1068 132.645C67.0984 130.11 65.8007 124.449 64.267 120.912C64.267 120.912 64.267 120.912 64.326 120.912C64.6209 120.853 65.0338 120.676 65.0928 120.322V120.204C65.1518 119.968 65.0928 119.615 64.9159 119.438C64.6799 119.261 64.503 119.143 64.267 118.966C64.09 118.848 63.8541 118.907 63.7361 119.084C63.6771 119.025 63.6181 118.907 63.5592 118.789C63.5002 118.73 63.4412 118.789 63.4412 118.848C63.5002 119.025 63.5002 119.143 63.5592 119.32L63.5002 119.379C63.5002 119.438 63.5002 119.438 63.5002 119.438C63.4412 119.438 63.3822 119.438 63.3822 119.497C62.4974 118.907 61.1407 119.084 60.6688 120.086C59.3121 122.916 57.8374 125.452 56.5986 128.046C54.2391 130.581 53.1184 135.534 52.2925 137.893C52.1746 138.246 52.6465 138.541 52.8824 138.246C53.7672 137.244 56.3627 133.117 57.4245 132.763C61.7305 131.23 59.548 132.645 62.1435 134.414C65.0928 136.419 66.1546 140.133 70.1658 141.077C76.0645 142.433 82.3172 137.893 86.5643 133.471C89.3367 138.895 94.0557 144.673 100.131 145.027C108.095 145.44 113.934 137.185 118.3 131.112C119.066 137.244 123.195 144.378 126.971 147.15C130.864 150.039 134.521 148.152 138.119 145.558C141.6 143.081 147.675 141.254 151.215 138.129C151.392 144.025 152.04 150.511 156.287 153.694C159.119 155.817 162.068 153.989 164.841 152.574C167.967 150.982 172.214 149.626 175.694 147.798C175.753 149.036 176.048 150.275 176.52 151.513C176.874 153.164 177.287 154.756 177.877 156.289C179.175 159.473 181.77 161.89 183.363 164.897C183.54 165.251 183.894 165.428 184.248 165.546C184.542 165.841 184.837 166.194 185.191 166.489C191.385 171.206 198.346 162.834 203.89 163.659C211.146 180.109 205.542 201.925 194.629 215.192C185.899 225.805 173.866 229.519 162.54 235.887C161.773 232.29 159.355 228.753 156.7 226.276C153.279 223.151 148.678 221.442 145.493 218.081C145.139 217.727 144.667 218.199 144.844 218.611C146.437 222.149 149.091 224.566 151.686 227.338C154.695 230.581 156.523 233.823 158.175 237.892C158.234 238.069 158.352 238.246 158.47 238.364C158.293 238.481 158.116 238.599 157.939 238.717C157.703 238.894 157.821 239.307 158.116 239.189C158.352 239.13 158.647 239.012 158.883 238.953C159.827 239.779 161.183 239.661 161.95 238.835C191.857 235.592 216.514 209.001 215.983 180.876C216.396 180.64 216.75 180.227 216.986 179.697C220.938 170.322 213.387 155.876 205.483 150.746Z" fill="#DEAC95"/>
<path d="M59.607 201.571C59.4301 201.453 59.2531 201.63 59.3121 201.807C61.0817 207.055 64.7979 211.949 65.3288 217.55C65.5648 219.968 69.399 220.027 69.163 217.55C68.5731 211.123 64.9749 205.168 59.607 201.571Z" fill="#AB998F"/>
<path d="M99.3051 222.503C99.4231 213.717 90.9879 208.588 84.8532 203.812C84.6762 203.694 84.3813 203.871 84.4993 204.047C85.3251 205.168 86.3279 206.288 87.3896 207.408C88.8053 209.767 89.9851 212.302 91.4598 214.661C93.6423 218.022 94.5861 220.97 94.3502 224.979C94.2322 227.043 97.0636 227.102 97.7125 225.451C97.9484 224.862 98.0664 224.331 98.1844 223.741C98.7742 223.682 99.3051 223.27 99.3051 222.503Z" fill="#AB998F"/>
<path d="M124.493 221.383C122.664 217.904 120.364 215.31 116.766 213.6C116.589 213.423 116.412 213.246 116.176 213.128C115.94 212.951 115.763 213.187 115.704 213.423C115.291 216.607 117.532 219.142 119.066 221.678C121.367 225.452 122.31 229.815 122.428 234.178C122.487 236.949 126.852 237.008 126.793 234.178C126.793 234.119 126.793 234.001 126.793 233.942C127.324 233.647 127.796 233.117 127.914 232.527C128.327 228.871 126.145 224.508 124.493 221.383Z" fill="#AB998F"/>
<path d="M53.4724 148.86C54.2983 145.263 54.7702 141.431 54.6522 137.127C54.6522 136.773 54.1213 136.714 54.0623 137.068C51.5848 153.223 40.0233 162.657 35.7172 177.457C31.6471 191.372 37.7228 198.742 40.9671 211.595C41.439 213.482 43.6805 213.128 44.3294 211.713C45.0372 211.242 45.5091 210.357 45.0372 209.414C36.4841 192.02 40.3772 179.815 48.6355 163.777C51.2899 158.53 52.7646 153.931 53.4724 148.86Z" fill="white"/>
<path d="M196.929 59.9453C162.894 40.8417 126.498 43.7308 89.5133 51.7496C73.0558 55.3463 58.3089 61.7731 45.3907 72.74C32.1775 83.9428 27.8714 97.2681 22.7395 112.893C21.7367 113.247 21.5597 114.308 21.9726 115.192C21.9136 115.428 21.8547 115.605 21.7367 115.841C21.6777 116.077 21.9726 116.254 22.1496 116.077C22.2086 116.018 22.2676 115.9 22.3855 115.782C22.7984 116.136 23.3293 116.372 23.9782 116.254C62.0251 108.471 100.485 119.733 138.178 124.273C138.237 124.273 138.237 124.214 138.178 124.155C104.437 114.308 65.2104 106.997 29.759 111.773C29.641 111.714 29.523 111.655 29.464 111.537C29.1691 111.065 29.2871 110.063 29.3461 109.532C29.405 108.294 29.641 107.056 29.759 105.877C35.0089 97.5629 39.3149 88.5418 46.7474 81.4074C59.3117 69.3202 74.6484 62.5986 91.4009 58.943C108.92 55.1104 126.734 52.1034 144.726 52.3392C159.295 52.5751 182.713 54.3439 196.045 61.4193C196.988 61.891 197.873 60.476 196.929 59.9453Z" fill="white"/>
<path d="M133.459 239.544C116.943 239.72 103.198 232.291 87.6847 227.81C74.1766 223.918 60.0786 222.326 46.3345 219.614C41.2616 218.612 15.3071 215.958 18.2565 227.869C18.3155 228.105 18.6694 228.105 18.7284 227.869C22.4446 212.361 118.181 241.961 133.459 240.428C133.99 240.31 133.99 239.544 133.459 239.544Z" fill="white"/>
<path d="M62.0843 282.821C50.3458 289.307 32.8855 285.534 22.6217 277.986C22.2678 277.691 21.9138 278.222 22.0318 278.576C25.2171 285.298 34.2422 288.364 41.1437 289.425C48.2812 290.486 59.0759 291.961 64.5618 286.064C66.0954 284.295 64.1489 281.701 62.0843 282.821Z" fill="white"/>
<path d="M86.9182 404.046C80.8425 392.077 73.2921 381.7 68.0422 371.204C59.725 354.636 55.1829 337.007 52.9414 318.61C52.9414 318.375 52.6465 318.375 52.5875 318.61C51.5257 335.061 55.3599 350.391 62.0255 365.485C65.5647 373.563 70.1657 380.815 74.7078 388.362C78.0111 393.964 80.0166 401.334 85.2665 405.343C86.0334 406.051 87.508 405.225 86.9182 404.046Z" fill="white"/>
<path d="M139.24 419.377C142.838 418.964 145.669 417.195 148.029 417.431C163.837 418.728 154.104 410.533 150.624 407.584C145.079 402.809 136.939 392.667 133.046 383.941C133.046 383.882 136.172 392.136 136.172 392.195C140.419 404.695 145.197 408.705 149.739 413.127C150.565 413.893 138.001 419.495 139.24 419.377Z" fill="white"/>
<path d="M244.296 375.51C231.614 375.982 221.586 377.161 209.788 371.619C198.168 366.135 189.084 356.288 181.651 345.97C181.592 345.852 181.416 345.911 181.475 346.029C189.202 373.211 227.485 384.237 250.962 376.159C252.731 375.569 246.125 375.451 244.296 375.51Z" fill="white"/>
<path d="M257.097 167.904C254.265 199.862 249.252 221.56 231.614 242.491C215.924 260.946 193.39 273.623 169.265 276.866C168.852 276.925 172.45 277.338 172.804 277.396C196.458 279.755 219.109 263.953 233.974 247.09C253.558 224.92 258.041 204.579 259.633 175.275C259.751 173.683 257.215 166.312 257.097 167.904Z" fill="white"/>
<path d="M251.906 68.8485C251.198 68.3179 250.373 68.9665 250.196 69.674C247.482 67.9052 244.592 66.1363 241.465 64.3085C240.404 63.7189 239.165 65.1929 240.168 66.0184C247.836 72.3863 255.504 76.7494 261.403 85.3578C268.128 95.2045 270.31 105.759 270.015 117.846C269.425 141.313 258.454 155.11 235.921 163.128C235.803 163.187 235.862 163.423 235.98 163.423C237.218 163.246 238.398 163.069 239.578 162.834C239.578 162.952 239.637 163.069 239.755 163.011C240.168 162.834 240.581 162.657 240.993 162.539C244.71 161.713 249.429 161.419 252.614 159.768C258.1 157.763 261.816 154.461 266.181 149.037C272.493 141.313 276.563 130.699 277.92 120.912C280.81 99.2139 268.6 81.5843 251.906 68.8485Z" fill="white"/>
<path d="M170.739 312.892C164.958 313.54 160.534 317.078 155.166 318.965C146.79 321.913 138.886 319.79 130.451 318.788C129.802 318.729 129.507 319.79 130.097 320.026C144.844 326.512 158.411 324.508 171.329 315.014C172.096 314.425 171.978 312.774 170.739 312.892Z" fill="white"/>
<path d="M189.674 289.661C189.143 288.423 187.197 288.835 187.551 290.251C190.795 302.397 193.862 318.493 188.671 330.639C182.36 345.321 163.897 343.611 151.214 339.366C151.155 339.366 151.155 339.425 151.155 339.484C162.068 346.441 180.177 348.446 188.848 336.948C197.873 324.802 195.042 302.574 189.674 289.661Z" fill="white"/>
<path d="M116.943 300.687C104.26 304.283 90.8112 300.628 78.3058 297.562C78.2468 297.562 78.2468 297.62 78.2468 297.679C89.9263 307.055 107.092 310.298 119.951 304.047C121.721 303.163 118.889 300.156 116.943 300.687Z" fill="#73BA6E"/>
<path d="M128.091 315.722C119.655 314.247 111.043 317.667 102.372 317.255C92.875 316.783 83.673 313.599 74.353 312.007C74.235 312.007 74.176 312.125 74.294 312.184C81.4905 315.545 89.7487 320.969 97.712 321.972C108.271 323.328 118.535 320.498 128.798 319.672C130.45 319.613 129.742 316.016 128.091 315.722Z" fill="#73BA6E"/>
<path d="M131.099 327.16C121.366 329.931 113.344 333.41 102.903 333.292C92.7576 333.174 82.9066 330.639 72.8788 329.342C72.8198 329.342 72.8198 329.401 72.8788 329.46C81.7859 334.236 93.0525 337.715 103.139 337.95C114.052 338.186 124.906 334.531 134.521 330.757C136.231 330.049 132.869 326.629 131.099 327.16Z" fill="#73BA6E"/>
<path d="M140.302 345.32C137.824 346.028 137.647 345.969 136.527 346.913C136.35 346.795 136.173 346.795 135.937 346.854C135.288 347.148 134.462 347.266 133.754 347.325C133.4 347.325 133.282 347.62 133.282 347.915C133.046 347.974 132.869 348.033 132.633 348.092C130.864 348.21 129.212 348.328 128.445 348.328C123.136 348.681 117.945 349.33 112.637 349.507C100.19 349.861 85.2664 349.035 73.9998 343.493C73.5279 343.257 72.997 343.846 73.4099 344.2C82.7889 352.219 96.474 355.167 108.39 354.696C117.945 354.342 133.754 354.696 141.305 346.913C141.953 346.264 141.246 345.085 140.302 345.32Z" fill="#73BA6E"/>
<path d="M134.462 366.075C134.403 365.249 133.931 364.483 132.869 364.483C129.743 364.483 127.443 365.308 124.375 366.016C118.3 367.431 113.168 367.49 107.033 367.018C102.845 366.723 98.7157 366.606 94.6456 366.193C88.8648 364.955 83.32 363.068 77.7162 360.591C77.5982 360.532 77.5392 360.65 77.5392 360.709C77.5392 360.709 77.4802 360.709 77.4802 360.65C77.4212 360.591 77.3622 360.709 77.4212 360.709C81.4324 365.898 89.3367 370.202 95.5304 371.087C108.39 373.976 122.252 372.325 133.813 369.259C135.583 368.846 135.937 366.782 134.462 366.075Z" fill="#73BA6E"/>
<path d="M130.628 381.406C124.611 381.995 118.712 384.236 112.636 383.941C107.564 383.705 102.786 381.877 97.7716 383.528C97.6536 383.587 97.6536 383.705 97.7716 383.705C102.668 384.884 107.681 386.123 112.636 387.007C118.594 388.009 125.142 387.656 131.335 385.12C133.164 384.413 132.633 381.229 130.628 381.406Z" fill="#73BA6E"/>
<path d="M202.651 360.828C202.356 360.592 202.12 360.297 201.884 360.061C201.412 356.936 197.814 353.988 195.867 351.924C193.744 349.684 191.207 347.679 188.081 347.207C187.904 346.971 187.668 346.795 187.491 346.559C187.314 346.382 187.078 346.618 187.137 346.795C187.196 346.913 187.255 346.971 187.255 347.089C187.078 347.148 186.96 347.384 187.137 347.502C187.373 347.738 187.609 348.033 187.845 348.269C190.205 352.809 194.039 356.759 197.814 360.297C198.345 360.946 198.876 361.535 199.643 361.948C199.997 362.243 200.291 362.538 200.645 362.833C202.061 364.012 204.067 362.007 202.651 360.828Z" fill="#73BA6E"/>
<path d="M223.238 371.028C221.409 367.726 219.522 366.488 215.746 365.368C212.679 364.424 208.963 363.658 205.778 364.13C205.542 364.188 205.424 364.483 205.542 364.66C207.193 367.078 210.143 367.962 212.738 368.965C214.39 369.613 216.041 370.026 217.693 370.674C219.168 371.205 220.937 371.264 222.353 371.854C222.884 372.149 223.533 371.618 223.238 371.028Z" fill="#73BA6E"/>
<path d="M248.071 372.973C244.709 370.615 240.049 371.617 236.215 371.264C233.855 371.028 228.606 370.084 227.249 372.856C227.19 373.032 227.249 373.268 227.485 373.268C230.316 373.15 233.678 374.33 236.51 374.742C239.577 375.155 243.588 374.448 246.361 375.981C248.307 377.042 249.841 374.212 248.071 372.973Z" fill="#73BA6E"/>
<path d="M214.449 264.897C211.263 267.55 207.37 269.496 203.713 271.442C200.882 272.916 196.929 273.741 194.688 276.159C194.629 276.277 194.629 276.395 194.747 276.395C198.286 277.81 203.005 275.628 206.308 274.272C210.261 272.621 213.387 269.968 216.336 266.843C217.575 265.545 215.746 263.776 214.449 264.897Z" fill="#73BA6E"/>
<path d="M239.872 244.26C235.153 247.326 231.85 252.633 227.839 256.878C227.603 256.701 227.308 256.642 227.013 256.878C226.01 257.527 225.243 258.588 224.358 259.413C223.473 260.239 222.471 260.946 221.586 261.713C221.291 261.831 221.055 262.008 220.76 262.126C220.701 262.126 220.701 262.244 220.76 262.244C224.948 262.715 228.546 259.944 231.732 257.527C235.566 254.578 240.167 251.1 242.173 246.618C242.88 245.144 241.465 243.198 239.872 244.26Z" fill="#73BA6E"/>
<path d="M258.984 214.367C258.395 213.247 256.684 213.365 256.094 214.367C254.973 216.254 254.973 217.787 254.619 220.027C254.088 223.152 253.027 226.101 251.552 228.931C249.251 233.53 245.948 237.481 243.589 242.08C243.471 242.316 243.707 242.61 243.943 242.434C248.956 239.25 252.732 234.473 255.681 229.344C258.159 225.098 261.285 219.025 258.984 214.367Z" fill="#73BA6E"/>
<path d="M262.111 184.591C261.639 186.477 261.934 188.246 261.816 190.133C261.639 192.727 261.049 195.44 260.518 197.975C259.634 201.985 257.451 205.876 258.277 210.004C258.277 210.122 258.454 210.122 258.513 210.063C264.765 204.225 265.414 192.963 265.591 185.003C265.591 183.058 262.583 182.645 262.111 184.591Z" fill="#73BA6E"/>
<path d="M278.745 123.27C279.807 126.926 278.096 131.112 277.152 134.65C276.149 138.365 275.029 141.962 273.023 145.323C272.905 145.499 273.141 145.617 273.259 145.499C278.627 139.898 282.756 130.523 282.579 122.74C282.579 119.85 277.919 120.499 278.745 123.27Z" fill="#73BA6E"/>
<path d="M268.422 148.977C265.296 152.338 261.403 155.699 261.226 160.593C261.049 167.02 262.642 174.037 263.762 180.346C263.821 180.582 264.234 180.582 264.234 180.346C265.237 175.157 265.65 170.263 265.473 164.956C265.237 158.765 268.835 156.466 272.021 151.749C273.436 149.567 270.192 147.091 268.422 148.977Z" fill="#73BA6E"/>
<path d="M94.1144 410.887C93.5245 412.007 92.1678 412.184 90.7521 412.302C89.2774 412.479 87.8617 412.538 86.387 412.715C83.5556 413.127 80.7832 413.776 78.0698 414.66C78.7776 413.127 80.1343 412.007 81.845 411.476C83.1427 411.064 82.6118 409.118 81.3141 409.472C79.1315 410.002 77.008 410.415 74.7665 410.71C76.4181 407.467 80.8422 406.759 84.2635 406.405C85.5612 406.229 86.269 405.108 85.7381 403.929C85.9741 403.87 84.0275 397.089 85.8561 399.33C88.7465 402.809 90.5161 405.285 92.2268 403.575C92.4037 403.634 92.5807 403.634 92.7577 403.693C92.7577 404.283 92.8166 404.872 92.8756 405.403C93.1706 407.29 94.1734 409.059 94.1144 410.887Z" fill="#69BFB2"/>
<path d="M257.746 92.1973C251.139 60.358 193.154 67.3744 193.921 99.3317C194.039 103.341 195.16 107.292 196.989 111.065C201 121.383 209.258 130.758 220.348 133.117C225.48 134.178 230.317 133.883 234.8 132.527C237.395 132.055 239.814 131.053 241.819 129.343C253.735 121.973 260.754 106.702 257.746 92.1973ZM246.361 121.383C245.004 122.857 243.53 124.096 241.996 125.216C241.642 125.157 241.229 125.334 240.875 125.688C240.698 125.864 240.521 126.041 240.344 126.277C237.041 128.223 233.325 129.52 229.609 129.933C220.761 129.52 210.733 123.447 206.014 118.435C199.643 111.714 194.334 101.336 197.814 91.9615C202.946 78.0465 222.766 72.681 236.038 75.2753C257.746 79.6974 259.928 106.643 246.361 121.383Z" fill="#1D3855"/>
<path d="M223.592 106.821C223.002 108.472 222.412 109.769 221.704 110.771C220.584 112.953 219.522 113.778 218.637 113.189C218.46 113.248 218.283 113.248 218.106 113.189C217.339 113.071 216.808 112.009 216.513 110.417C216.396 110.182 216.337 109.946 216.219 109.592C214.449 101.809 218.696 86.4783 222.471 86.2424C223.356 86.1835 224.064 86.95 224.595 88.2472C225.067 89.0727 225.362 90.4288 225.48 92.1977C225.834 96.3252 225.362 101.927 223.592 106.821Z" fill="#1D3855"/>
<path d="M82.4936 174.154C82.0807 175.156 80.1931 177.869 80.3111 176.807C81.1369 171.324 80.547 163.659 79.0134 158.234C77.3617 152.574 73.8225 147.798 67.3928 151.807C59.2526 156.937 58.5447 164.425 54.0027 171.854C53.9437 171.913 53.8257 171.913 53.7667 171.795C52.1151 158.175 61.73 140.074 73.3506 140.192C78.4825 140.251 82.6706 143.907 84.4992 148.329C87.0946 154.52 84.8531 168.14 82.4936 174.154Z" fill="#1D3855"/>
<path d="M184.07 196.972C183.775 197.621 182.773 197.267 182.773 196.619C183.068 187.303 183.009 179.638 176.756 171.501C171.388 164.484 166.433 167.138 160.239 172.267C156.169 175.628 152.807 181.23 148.855 186.536C148.796 186.654 148.855 184.59 148.855 184.472C150.801 175.864 152.866 167.315 160.239 161.89C165.43 157.999 171.683 156.878 177.877 160.357C189.556 166.961 188.612 186.654 184.07 196.972Z" fill="#1D3855"/>
<path d="M69.8113 84.179C69.8113 84.2969 69.7523 84.4148 69.7523 84.5328C69.6933 84.6507 69.6343 84.8276 69.6343 84.8865C69.6343 84.8865 69.6343 84.9455 69.5753 84.9455C69.5753 84.9455 69.5753 84.9455 69.5753 85.0045C69.4574 85.1813 69.3394 85.3582 69.1624 85.4762C68.2776 86.4196 67.0979 86.5965 65.8591 86.3606C63.2047 86.4785 60.6092 85.712 58.9576 83.5304C58.4267 82.8228 58.6627 81.5256 59.3115 80.936C61.671 78.8133 65.3282 79.7567 67.8647 81.5256C69.1624 81.6435 69.9883 82.9407 69.8113 84.179Z" fill="#1D3855"/>
<path d="M112.518 85.0633C110.749 89.1318 102.667 89.1318 99.8949 86.2426C98.9511 85.2402 99.305 83.4123 100.721 83.0586C102.136 82.7048 103.375 82.292 104.673 82.2331C106.619 81.8793 108.861 81.9383 110.749 81.9383C112.4 82.0562 113.108 83.7072 112.518 85.0633Z" fill="#1D3855"/>
<path d="M299.863 169.792C297.149 166.018 294.259 162.186 291.074 158.707C288.478 155.877 285.647 153.224 282.579 150.983C279.925 149.037 276.917 147.976 274.026 146.679C278.745 145.323 283.405 143.79 288.183 142.905C292.371 142.08 296.56 141.785 300.394 139.721C301.102 139.309 301.337 138.306 300.925 137.599C296.088 129.639 290.838 121.443 282.226 117.198C281.754 116.962 281.282 116.903 280.869 116.962C281.046 104.226 276.858 91.7264 268.128 81.6439C258.749 70.736 247.423 63.7785 234.623 60.8304C234.682 60.7125 234.682 60.5946 234.682 60.4177C234.682 52.7526 229.786 45.3824 224.3 40.3707C217.457 34.1207 208.019 26.8095 198.758 25.0996C198.699 25.0996 198.64 25.1585 198.581 25.1585C198.404 25.2175 198.227 25.3354 198.227 25.5713C198.109 28.1066 197.814 34.1797 196.753 40.0169C193.803 33.7669 189.733 29.6396 183.54 26.043C176.815 22.0925 169.854 17.9652 161.832 18.4369C161.773 18.3779 161.773 18.319 161.714 18.26C161.419 17.8473 160.652 18.0831 160.829 18.6138C162.54 24.2151 163.661 29.5217 163.838 35.3589C163.897 36.2433 163.956 39.7221 163.72 41.9626C161.36 36.3023 155.461 31.6443 150.801 28.5193C144.018 24.0382 134.993 19.6161 126.617 21.0312C126.499 20.8543 126.263 20.9722 126.204 21.1491C125.909 21.2081 125.673 21.267 125.378 21.326C124.788 21.4439 124.965 22.2104 125.437 22.3284C126.971 25.925 126.794 29.4627 127.265 33.2363C127.442 34.7103 127.619 36.1844 127.737 37.5995C127.383 39.7221 126.853 41.7268 126.145 43.9084C124.198 43.9673 122.252 43.9673 120.246 44.0263C93.7606 44.7928 63.5 51.9272 43.6212 70.5591C35.245 78.46 26.3379 91.4316 22.3858 102.222C21.088 105.818 17.2539 114.663 20.3212 117.846C20.9701 118.554 22.0318 118.908 23.2706 119.085C23.6245 121.561 25.1582 124.273 26.102 126.16C27.9306 129.698 30.467 134.12 33.8293 136.36C36.4248 138.07 38.1944 136.773 39.0202 134.002C40.4949 129.285 39.905 123.684 42.2055 119.262C42.3235 122.445 43.9162 125.983 44.978 128.577C45.9807 131.172 47.6914 135.476 50.7587 136.419C50.3458 137.54 50.0509 138.778 49.8739 140.075C49.52 143.082 48.8121 148.271 47.5144 151.926C46.3347 155.346 42.3825 157.587 40.6719 160.653C37.7815 165.252 36.2478 168.73 34.4192 173.978C31.0569 183.53 32.1777 193.082 34.8321 202.28C35.186 203.931 35.6579 205.582 36.1298 207.233C34.7731 205.346 33.4164 203.518 32.0597 201.631C30.644 199.744 29.3463 196.855 26.5739 197.799C23.3885 198.86 21.442 203.341 20.0852 206.053C17.9617 210.475 17.2538 214.662 17.5488 219.438C14.3045 223.506 17.3128 230.404 20.5571 235.121C27.3997 245.027 39.6691 252.928 49.8149 259.178C57.0114 263.6 65.2697 268.73 73.8818 271.442C71.4633 274.567 68.5729 277.102 65.9775 280.109C65.6236 280.463 65.3286 280.817 65.0927 281.23C59.5479 283.529 50.6997 282.822 44.86 282.527C36.8377 282.114 29.9951 279.107 22.3858 276.925C22.2678 276.866 22.1498 276.866 22.0318 276.807C21.9139 276.748 21.8549 276.984 21.9728 277.043C22.0318 277.102 22.0908 277.102 22.2088 277.161C21.9139 277.279 21.7959 277.633 22.0318 277.869C22.0318 277.928 22.0908 277.928 22.0908 277.928C20.0852 287.185 24.0374 300.392 28.9334 307.998C33.1215 314.543 41.3797 323.918 50.2868 321.324C47.6324 348.977 62.1433 374.92 77.834 397.561C78.1289 397.974 78.4828 398.505 78.8368 399.035C79.1907 399.802 79.7216 400.509 80.2525 401.217C80.7244 401.924 81.2552 402.691 81.7861 403.398C76.8312 404.165 71.5813 406.288 71.8173 412.184C71.8173 412.773 72.3481 413.54 73.056 413.422C74.2357 413.245 75.3565 413.068 76.5363 412.832C75.8874 413.835 75.4745 414.955 75.2975 416.193C75.1795 417.019 75.8284 417.962 76.7722 417.667C81.0193 416.193 85.3254 415.427 89.8084 415.25C92.6398 415.132 96.0611 414.955 97.5948 412.066C98.2436 410.769 98.1257 409.53 97.8307 408.174C97.5358 406.641 97.5948 405.285 97.8307 403.988C99.2464 401.04 99.9543 397.384 100.367 394.023L101.783 388.717C111.87 393.316 123.313 395.262 133.754 392.667C134.167 394.023 134.639 395.38 135.288 396.677C137.234 400.922 140.42 404.637 143.428 408.174C144.726 409.707 146.377 411.594 148.206 413.54C143.015 414.365 138.06 416.37 135.347 421.205C134.757 422.207 135.76 423.622 136.939 423.268C139.122 422.561 141.363 422.089 143.605 421.853C142.366 423.504 141.717 425.568 141.835 427.809C141.894 428.811 143.015 429.577 143.9 428.988C146.023 427.573 148.265 426.57 150.684 425.981C152.984 425.45 155.402 425.45 157.703 424.802C161.419 423.74 164.133 421.146 166.374 418.021C170.267 412.596 172.981 405.285 173.571 398.269C182.773 399.448 190.618 401.394 200.056 400.509C207.901 399.802 215.511 397.856 222.825 394.967C234.682 390.191 249.134 384 255.268 372.09C255.268 372.031 255.209 372.031 255.209 372.031C254.56 372.561 253.853 373.092 253.204 373.623C252.496 373.8 251.788 373.917 251.08 374.035C250.549 370.498 249.311 367.314 247.187 364.366C245.83 362.479 243.766 359.413 241.288 359C239.224 358.646 237.631 360.356 236.215 361.594C232.971 364.425 229.963 367.55 227.013 370.793C227.839 367.314 228.016 363.717 227.19 360.12C226.6 357.585 225.303 352.868 222.412 352.043C219.581 351.276 216.101 354.165 213.918 355.521C211.264 357.113 208.668 358.882 206.368 360.946C208.786 353.34 209.258 344.672 207.96 337.066C207.842 336.418 207.076 335.887 206.427 335.946C202.474 336.123 199.289 337.951 195.868 339.779C192.447 341.606 189.202 343.257 186.489 345.911C185.958 345.144 185.427 344.496 184.896 343.729C186.253 343.022 187.551 342.137 188.789 341.076C193.449 337.007 195.986 331.347 196.989 325.156C200.646 308.175 194.747 285.357 178.467 280.227C182.655 279.697 186.843 278.753 190.913 277.456C195.75 277.515 199.584 280.699 203.123 283.824C206.073 286.477 207.783 290.251 210.674 292.668C211.618 293.435 212.797 293.14 213.21 292.02C216.455 283.234 220.643 273.506 219.168 263.895C226.187 264.602 232.676 271.265 235.154 277.633C235.507 278.635 236.51 279.166 237.513 278.635C241.701 276.336 243.648 270.145 244.769 265.782C246.597 258.588 245.889 250.569 245.122 243.258C248.78 244.319 252.319 245.676 255.563 247.857C257.097 248.918 259.397 251.985 261.285 252.456C263.939 253.105 265.768 250.216 266.653 248.034C270.959 237.598 265.591 221.089 260.695 211.242C268.128 212.126 274.675 215.015 282.049 216.431C286.473 217.315 287.947 215.192 287.534 210.77C286.886 203.636 281.105 198.742 277.271 193.2C274.085 188.66 271.549 184.119 267.066 181.23C268.835 180.7 270.664 179.638 272.198 179.285C277.801 177.752 283.877 177.398 289.658 177.516C292.725 177.575 302.34 181.053 302.871 175.275C302.753 173.153 300.866 171.266 299.863 169.792ZM280.633 121.325C287.829 124.863 292.784 131.29 297.267 137.776C293.61 139.309 289.599 139.426 285.824 140.488C281.341 141.726 277.094 143.672 272.847 145.5C274.793 142.257 276.386 138.837 277.566 135.299C279.217 130.7 280.22 125.983 280.633 121.325ZM199.171 25.7481C206.191 29.9344 212.62 35.7127 218.873 40.9603C224.359 45.5593 230.317 52.5758 230.671 60.0639C225.244 59.1795 219.522 59.0026 213.564 59.4743C210.438 59.7691 206.427 60.2997 202.416 61.3611C198.994 60.2408 195.986 58.354 192.919 56.4083C200.941 51.0427 200.351 33.2953 199.171 25.7481ZM162.422 19.3213C169.088 20.2057 174.514 24.5689 180.059 28.1066C186.312 32.0571 190.913 35.4768 193.803 42.5522C194.157 43.5546 194.452 44.557 195.396 45.6772C194.098 50.5121 192.565 52.6937 189.32 53.4012C189.025 53.4602 188.789 53.5781 188.671 53.696C187.61 53.1064 186.548 52.5758 185.486 52.1041C179.233 49.4508 172.509 47.7409 165.843 46.5027C167.436 44.7928 167.436 41.0782 167.495 39.0145C167.613 32.4698 166.02 25.0406 162.422 19.3213ZM127.324 22.5642C134.226 23.2717 140.892 26.8684 146.731 30.4061C151.686 33.4132 160.18 39.3094 160.888 45.7951C150.742 44.3211 140.302 43.8494 129.92 43.9084C130.687 42.3754 130.923 40.7834 130.923 39.1914C131.395 33.5901 129.507 27.3401 127.324 22.5642ZM37.4276 126.219C37.2506 127.575 37.1326 128.99 37.0147 130.405C36.8967 131.349 36.8967 132.469 36.6017 133.353C36.2478 134.651 36.3068 134.945 35.1271 134.71C32.4136 134.061 29.5232 128.636 28.1075 126.514C26.9278 124.686 24.6863 121.797 23.9784 119.144C28.7564 119.556 36.0709 117.493 39.1382 117.198C39.4331 117.139 39.7281 117.139 40.023 117.139C38.4893 119.91 37.8995 123.212 37.4276 126.219ZM50.1689 132.233C48.9301 131.231 47.9863 128.931 47.2785 127.634C45.5678 124.391 43.9752 121.148 43.1493 117.67C43.3263 117.375 43.5033 117.139 43.7392 116.903C49.461 116.549 55.2418 116.431 61.0226 116.608C57.7193 120.087 56.0676 126.337 54.18 129.934C53.2362 131.82 52.5284 134.002 50.1689 132.233ZM40.9078 167.905C43.2673 163.247 47.9863 160.299 50.2278 155.7C53.2952 149.391 53.6491 141.372 55.0648 134.533C56.1266 133.118 56.9524 131.29 57.4833 130.052C59.3709 126.101 60.9636 120.912 64.3259 117.846C65.6826 123.92 66.8033 133.118 72.5841 135.417C80.7244 138.66 83.4968 122.563 90.1624 120.146C91.991 126.573 93.5246 135.063 99.6003 138.601C108.743 143.967 111.634 124.863 119.951 124.391C120.128 124.509 120.305 124.686 120.541 124.804C122.429 132.174 124.847 139.485 130.451 144.91C131.041 145.441 131.808 145.5 132.515 145.205C139.889 141.49 144.962 133.118 153.279 131.467C153.397 131.408 153.515 131.349 153.633 131.349C154.164 138.011 153.161 145.794 157.467 151.396C157.88 151.985 158.647 152.516 159.414 152.221C162.835 150.865 165.194 148.624 167.849 146.089C171.447 142.669 175.34 141.549 179.646 139.839C179.174 143.495 181.121 147.268 182.478 150.57C184.306 154.933 185.309 160.299 188.966 163.542C189.733 164.249 190.677 164.19 191.503 163.542C196.281 159.827 200.233 154.167 205.955 151.926C224.477 169.32 216.219 203.282 199.82 219.909C188.671 231.171 174.337 236.831 159.119 238.718C159.119 238.482 159.119 238.246 159.119 238.011C158.234 233.058 155.756 228.871 152.63 225.039C150.566 222.563 147.026 217.197 143.192 217.551C139.535 217.905 136.173 222.739 133.695 224.98C130.569 227.81 127.03 230.935 125.024 234.768C124.729 230.287 123.667 225.864 121.957 221.678C120.6 218.494 118.535 212.716 114.642 211.89C111.339 211.124 107.859 214.485 105.499 216.313C102.078 219.025 98.6566 222.209 96.2971 225.982C95.1763 220.263 93.2887 214.367 90.1624 209.532C88.5107 206.997 86.2102 203.046 82.7299 203.459C79.1907 203.872 74.5307 208.942 72.2302 211.36C70.1066 213.541 68.16 215.841 67.1572 218.494C66.6853 214.367 65.0337 210.475 62.8512 206.879C61.6714 204.933 58.781 199.096 56.1266 198.388C53.1182 197.563 50.1689 201.572 48.5762 203.459C45.9807 206.466 45.1549 207.174 43.7392 210.829C38.1944 201.631 32.8265 184.061 40.9078 167.905ZM65.0337 117.316C65.2107 117.139 65.4466 116.962 65.6236 116.844C67.0393 116.962 68.455 117.021 69.9297 117.139C73.2919 117.493 76.7132 117.964 80.0755 118.554C82.258 118.495 84.4996 118.554 86.6821 118.672C82.376 122.033 81.0783 128.754 76.4183 132.056C71.3454 135.712 67.4522 123.035 65.0337 117.316ZM90.9882 119.91C91.1652 119.851 91.3421 119.851 91.5191 119.851C91.637 119.792 91.696 119.792 91.814 119.733C93.8196 120.205 95.7662 120.618 97.7128 120.853C103.199 121.62 108.92 122.74 114.524 123.035C113.698 123.684 112.932 124.332 112.165 125.04C109.982 127.044 105.617 135.712 103.022 135.948C98.6566 136.419 93.2297 125.158 90.9882 119.91ZM121.19 124.214C129.92 125.806 138.65 127.634 147.321 129.698C142.661 132.233 138.945 136.419 134.698 139.662C131.984 141.726 131.984 142.198 129.625 138.896C128.504 137.422 127.619 135.771 126.794 134.12C124.965 130.759 123.313 127.398 121.19 124.214ZM154.341 131.408C156.936 132.056 159.473 132.764 162.009 133.471C166.315 134.71 170.798 135.889 175.281 137.245C170.68 139.014 167.082 141.962 163.13 145.558C157.939 150.275 157.703 144.025 156.818 139.78C156.169 136.832 155.638 134.061 154.341 131.408ZM180.767 139.309C180.885 139.25 181.003 139.191 181.121 139.191C181.121 139.132 181.18 139.132 181.239 139.132C188.023 141.431 194.629 144.084 200.528 147.681C201.354 148.212 202.18 148.801 202.946 149.332C198.05 151.808 194.452 156.172 190.382 159.768C188.258 157.174 187.492 153.577 186.017 150.629C184.011 146.797 181.298 143.613 180.767 139.309ZM153.81 239.072C144.195 239.72 134.462 238.954 125.024 237.185C125.024 237.126 125.083 237.067 125.083 237.067V236.949C130.215 232.232 135.052 226.277 141.069 222.739C145.434 220.145 147.498 225.157 149.504 228.518C151.391 231.82 153.161 235.298 153.81 239.072ZM96.651 227.81C96.651 227.751 96.592 227.692 96.592 227.633C98.4796 225.57 100.485 223.683 102.727 221.855C104.968 220.086 108.507 216.548 111.398 215.841C119.184 213.954 121.249 230.876 121.662 236.537C118.594 235.888 115.586 235.121 112.637 234.296C107.151 232.704 101.96 230.346 96.651 228.341C96.651 228.164 96.651 227.987 96.651 227.81ZM93.2887 227.162C92.1679 226.808 91.0472 226.454 89.8674 226.159C82.435 224.272 74.9436 222.798 67.3932 221.501C68.9859 218.317 71.5223 215.546 74.0588 213.129C75.8874 211.419 79.5446 207.291 82.1991 206.702C85.6793 205.935 88.1568 211.773 89.3365 214.308C91.2241 218.435 92.05 222.857 93.2887 227.162ZM64.7978 221.03C64.2079 220.912 63.618 220.853 62.9691 220.735C59.076 220.086 55.2418 219.438 51.3486 218.907C48.3992 218.081 45.2729 217.315 42.0876 216.784C42.0286 216.725 42.0286 216.666 42.0286 216.607C42.0876 216.49 42.1466 216.431 42.2055 216.313C42.5005 216.077 42.7364 215.723 42.8544 215.369C44.565 212.716 46.3937 210.122 48.4582 207.704C49.7559 206.171 53.6491 201.042 55.8317 201.867C57.7782 202.575 60.7276 208.942 61.5534 210.534C63.2641 213.895 64.1489 217.374 64.7978 221.03ZM21.206 208.117C22.1498 206.112 24.4503 200.275 26.8098 199.862C28.7564 199.509 31.8238 205.228 32.9445 206.761C34.9501 209.591 36.2478 213.424 38.4893 216.195C32.7086 215.428 26.9868 215.369 22.1498 216.607C20.7341 216.961 19.6723 217.433 18.8465 218.081C19.3184 214.721 19.7313 211.36 21.206 208.117ZM97.2409 382.939C99.0695 383.233 100.78 383.351 102.078 383.587C110.985 384.884 122.311 384.707 130.923 382.172C131.041 384.354 131.572 386.535 132.633 388.54C132.692 388.717 132.692 388.894 132.751 389.071C120.718 390.368 108.566 387.361 97.2409 382.939ZM117.592 301.453C121.485 305.522 124.965 310.062 127.737 314.543C124.257 313.069 117.297 315.133 114.642 315.545C100.898 317.727 87.5669 315.015 74.2947 311.064C74.7666 307.939 75.4745 304.814 76.4773 301.807C76.8902 300.451 77.4801 299.154 78.1289 297.975C90.2803 302.633 105.086 307.114 117.592 301.453ZM78.7188 296.795C83.5558 288.777 92.6398 284.413 102.432 289.602C107.21 292.137 111.811 295.734 115.999 299.803C104.26 304.578 90.2803 300.746 78.7188 296.795ZM107.8 318.611C113.226 318.316 123.313 313.953 128.091 317.196C128.268 317.314 128.386 317.314 128.563 317.314C128.504 317.727 128.563 318.14 128.681 318.434C128.858 321.088 129.271 323.741 130.569 326.041C121.721 328.93 114.347 332.173 104.496 332.055C94.2915 331.996 83.2608 330.345 73.115 328.694C73.115 326.748 73.174 324.802 73.233 322.916C73.3509 319.26 73.5869 315.604 74.1178 312.008C84.7945 315.722 96.356 319.142 107.8 318.611ZM104.496 333.764C114.76 334.059 122.429 330.816 131.749 327.75C133.4 329.814 135.347 331.406 136.998 333.352C138.414 336.713 139.535 339.72 139.948 343.022C130.038 348.387 118.535 348.269 107.505 348.092C96.474 347.915 84.0277 347.915 73.7049 343.493C73.233 338.776 73.056 333.941 73.056 329.224C83.0249 331.937 94.2915 333.529 104.496 333.764ZM107.505 350.097C118.594 350.392 130.038 350.451 140.125 345.38C140.125 347.503 139.948 349.802 139.24 352.455C138.355 355.816 137.116 359.059 135.819 362.361C130.923 365.958 119.833 365.132 114.524 365.427C101.252 366.076 88.2748 365.368 76.5952 358.823C75.1795 354.047 74.2357 349.095 73.7638 344.083C83.9097 348.977 96.474 349.802 107.505 350.097ZM116.353 367.668C119.597 367.491 128.976 367.785 134.521 365.781C134.049 367.078 133.518 368.434 133.105 369.731C131.984 373.092 131.1 376.512 130.923 379.873C130.805 379.873 130.628 379.873 130.451 379.991C123.785 382.88 113.639 382.172 106.502 382.113C103.553 382.113 98.9515 382.467 94.6454 381.936C92.9348 381.229 91.1651 380.462 89.4545 379.696C83.9687 375.333 80.3115 369.318 77.893 362.715C77.539 361.889 77.3031 361.005 77.0082 360.12C88.4517 368.08 102.845 368.375 116.353 367.668ZM170.739 389.483C168.734 399.035 162.599 415.957 163.248 415.721C163.248 415.721 163.248 415.721 163.248 415.78C160.534 419.908 157.526 421.677 152.689 422.502C149.799 423.033 147.203 423.858 144.726 425.155C145.257 423.563 146.318 422.325 147.911 421.382C149.091 420.733 148.56 418.846 147.262 418.846C144.903 418.905 142.602 419.082 140.302 419.495C143.782 416.842 148.737 416.37 153.102 415.78C153.987 415.662 154.223 414.955 154.046 414.306C154.282 414.247 150.684 411.417 148.796 409.471C145.198 405.757 141.54 401.63 138.709 397.266C137.352 395.144 136.35 392.903 135.524 390.663C135.524 390.191 135.347 389.778 135.052 389.483C134.403 387.656 133.813 385.828 133.105 384C132.22 373.505 139.181 363.717 142.248 353.281C143.9 347.621 143.959 342.609 142.543 337.774C145.375 339.779 148.383 341.371 151.45 342.373C158.883 344.79 168.026 347.267 176.402 346.264C176.048 360.71 173.748 375.274 170.739 389.483ZM231.791 368.493C233.679 366.901 236.982 363.069 239.342 362.538C243.943 361.477 246.833 370.616 247.482 374.448C240.757 375.038 233.561 374.271 226.777 372.797C228.429 371.441 230.14 369.967 231.791 368.493ZM218.991 356.347C220.82 355.757 221.292 355.639 222.412 357.467C223.238 358.823 223.474 360.651 223.71 362.184C224.182 365.486 223.71 368.67 222.766 371.795C220.82 371.264 218.932 370.734 217.103 370.144C212.679 368.67 208.668 366.665 204.952 364.248C205.011 364.189 205.011 364.071 205.07 364.012C209.435 361.123 214.095 357.88 218.991 356.347ZM196.104 342.668C198.994 341.488 201.767 339.72 204.893 339.248C205.719 347.09 203.536 354.401 201.885 362.007C196.34 357.762 191.503 352.573 187.138 346.854C189.91 345.144 193.036 343.965 196.104 342.668ZM214.744 373.269C224.064 376.453 238.575 379.991 248.839 376.217C249.252 376.276 249.664 376.158 250.018 375.922C227.485 392.49 202.18 400.745 173.984 393.139C174.219 392.255 174.396 391.429 174.632 390.486C177.759 375.981 180.295 360.946 180.708 346.088C189.851 358.116 200.115 368.198 214.744 373.269ZM214.921 276.748C213.918 280.817 212.384 284.767 210.969 288.659C209.848 287.067 208.904 285.298 207.488 283.942C205.601 282.232 203.536 280.522 201.354 279.166C199.289 277.869 196.812 276.572 194.334 276.277C199.584 274.331 204.657 271.914 209.376 269.319C211.559 268.081 213.741 266.784 215.865 265.428C217.103 268.376 215.57 274.272 214.921 276.748ZM241.937 260.18C241.642 263.895 240.226 271.383 237.041 274.685C233.974 268.789 227.544 262.185 220.761 262.185C225.362 259.001 229.845 255.581 234.092 251.867C234.151 251.69 234.21 251.572 234.269 251.395C236.746 249.449 239.106 247.209 241.406 244.732C242.114 249.803 242.291 255.168 241.937 260.18ZM236.569 243.022C231.496 248.152 225.775 252.692 220.702 257.763C216.867 260.475 212.974 263.01 208.904 265.369C190.677 275.687 172.214 279.755 151.568 274.98C151.509 274.98 151.45 275.098 151.509 275.156C157.349 278.635 163.543 280.286 169.795 280.581C175.871 282.527 181.357 285.298 185.604 289.425C196.576 303.163 198.05 330.581 184.719 339.661C176.284 345.38 165.076 342.255 156.11 339.838C150.566 338.364 145.552 336.359 141.422 332.349C138.945 329.991 133.695 323.741 131.218 319.437C145.906 321.913 162.953 320.38 175.222 311.182C175.281 311.123 175.222 311.064 175.163 311.064C168.203 312.008 161.301 314.425 154.223 315.545C149.799 316.312 145.198 317.432 140.715 317.314C137.116 317.196 133.754 316.135 130.156 315.781C129.92 315.781 129.684 315.84 129.507 315.899C129.507 315.899 129.507 315.781 129.448 315.781C129.33 315.604 129.153 315.427 129.035 315.251C128.917 315.074 128.858 314.838 128.74 314.661C128.681 314.661 128.681 314.661 128.681 314.661C126.499 309.06 122.723 304.461 118.299 300.274C118.181 299.861 117.886 299.508 117.415 299.39C117.297 299.272 117.238 299.213 117.12 299.095C112.578 294.909 106.915 289.013 101.016 286.831C85.5024 281.053 76.2413 291.961 72.997 305.522C68.9859 322.208 69.3398 342.432 74.0588 358.941C76.1233 366.135 79.3087 373.564 84.6765 378.988C88.5107 382.88 92.6398 384.649 97.0639 386.358C97.0049 386.476 97.0049 386.653 96.9459 386.771C96.9459 386.948 96.9459 387.066 96.9459 387.243C96.9459 387.361 96.9459 387.538 96.9459 387.656C96.9459 387.773 96.9459 387.891 96.9459 388.009C96.9459 388.186 96.8869 388.422 96.8869 388.599C96.8869 388.717 96.8869 388.894 96.8279 389.012C96.8279 389.189 96.769 389.307 96.769 389.483C96.769 389.66 96.71 389.778 96.71 389.955C96.71 390.014 96.71 390.073 96.71 390.132C96.71 390.368 96.651 390.604 96.651 390.781C96.651 390.898 96.592 391.016 96.592 391.134C96.533 391.37 96.533 391.606 96.474 391.842C96.474 391.842 96.474 391.842 96.474 391.901C96.415 392.49 96.2971 393.08 96.1791 393.729C96.1791 393.847 96.1201 393.906 96.1201 394.023C94.7634 395.851 93.8196 398.269 93.2887 399.979C92.9938 400.981 92.8168 401.983 92.8168 402.986C92.6398 403.221 92.4629 403.398 92.2859 403.575C92.4629 403.634 92.6398 403.634 92.8168 403.693C92.8168 404.283 92.8758 404.872 92.9348 405.403C93.2297 407.231 94.2325 409 94.1735 410.828C93.5836 411.948 92.2269 412.125 90.8112 412.243C89.3365 412.42 87.9208 412.478 86.4462 412.655C83.6148 413.068 80.8423 413.717 78.1289 414.601C78.8368 413.068 80.1935 411.948 81.9041 411.417C83.2018 411.004 82.671 409.059 81.3732 409.412C79.1907 409.943 77.0671 410.356 74.8256 410.651C76.4773 407.408 80.9013 406.7 84.3226 406.346C85.6203 406.17 86.3282 405.049 85.7973 403.87C86.0332 403.811 83.4378 399.802 80.0755 394.731C76.3003 389.012 71.6403 381.877 68.9269 377.278C68.8679 377.16 68.7499 376.983 68.6909 376.866C63.0281 367.019 58.0142 356.347 55.0058 345.439C51.6435 332.998 52.4104 320.734 53.0592 308.057C53.0592 307.939 52.8823 307.88 52.8823 307.998C51.8205 311.477 51.0537 314.897 50.5818 318.316C50.2868 318.14 49.8739 318.022 49.461 318.14C38.7253 319.673 30.3491 305.64 27.6946 297.149C25.807 291.076 24.5093 284.826 22.8577 278.694C28.1665 284.355 35.54 285.003 43.0314 285.888C49.1661 286.654 56.4215 288.305 62.2613 285.711C60.9636 288.423 60.0198 291.312 59.1939 294.142C59.076 294.614 59.7838 294.968 60.0198 294.496C61.7894 291.43 63.2641 288.069 65.3286 285.18C65.6826 284.767 66.0365 284.355 66.3904 283.883C66.6264 283.706 66.8623 283.529 67.0983 283.352C67.3932 283.116 67.5112 282.88 67.5702 282.645C68.6909 281.524 69.8117 280.522 70.9324 279.52C72.6431 277.928 76.8902 274.921 76.7132 272.149C80.6064 273.093 84.5586 273.506 88.5107 273.034C88.8646 272.975 88.8646 272.562 88.5107 272.562C77.834 271.678 67.2752 265.487 58.0732 260.416C55.3598 258.883 52.6463 257.291 50.0509 255.581C46.3937 253.223 42.8544 250.687 39.3742 248.093C37.3686 246.619 35.422 245.086 33.4164 243.553C29.2873 240.31 25.1582 236.831 22.2678 232.35C21.206 230.699 19.0825 227.574 19.0825 225.688C19.1415 220.794 24.2144 219.261 27.8126 219.202C30.9979 219.143 34.3012 219.32 37.5455 219.614C41.2028 220.263 44.86 221.089 48.4582 221.737C57.4833 223.329 66.5084 224.626 75.5335 226.454C92.4629 229.815 107.918 237.598 125.024 239.838C135.17 241.136 145.493 241.843 155.402 241.195C155.874 241.312 156.405 241.253 156.936 241.077C174.632 239.661 191.149 233.824 204.185 219.143C218.283 203.164 225.657 174.037 212.856 155.11C207.017 146.502 197.107 142.198 187.728 138.66C185.84 137.893 183.952 137.304 182.065 136.596C181.829 136.125 181.357 135.771 180.649 135.889C180.472 135.889 180.413 135.948 180.236 135.948C171.447 132.941 162.54 130.287 153.574 127.988C153.279 127.811 153.043 127.752 152.689 127.752C146.731 126.278 140.715 124.863 134.698 123.566C115.645 119.497 96.2971 116.196 76.8902 114.309C66.9213 113.306 56.9524 112.776 46.9835 113.247C43.9162 113.365 40.9668 113.778 38.0764 114.191C34.3012 114.486 30.526 114.839 26.6918 115.193C21.6189 115.606 22.7987 114.427 24.0374 109.769C25.2172 105.347 26.8688 101.16 29.2283 97.2688C36.6017 85.4764 43.9752 74.2147 56.0086 66.7855C79.6036 52.1041 105.912 47.9178 133.223 48.5074C146.908 48.8022 160.534 49.5687 173.866 52.6937C180.236 54.2267 185.899 56.0545 191.798 58.8257C194.688 60.1818 197.225 61.3611 200.056 61.8917C193.508 64.0143 187.61 67.611 186.784 73.9789C186.784 74.0968 186.902 74.0968 186.961 74.0378C190.795 63.012 213.269 62.4224 222.589 62.7172C240.58 63.3068 255.858 72.21 266.83 86.3019C277.507 99.981 279.394 117.905 273.731 134.179C273.2 135.771 272.552 137.304 271.844 138.837C271.667 139.25 271.49 139.603 271.313 140.016C270.959 140.783 270.546 141.549 270.133 142.316C269.897 142.669 269.72 143.082 269.484 143.436C269.366 143.79 269.248 144.084 269.012 144.379C268.363 145.205 267.656 146.03 267.007 146.797C267.007 146.974 266.948 147.209 266.948 147.386C264.175 151.219 260.872 154.639 257.038 157.233C256.625 157.469 256.212 157.705 255.799 157.94L255.74 157.999C249.37 161.537 242.409 160.594 235.92 163.424C234.8 163.955 235.39 165.841 236.569 165.723C243.471 165.311 249.488 165.016 255.268 162.539C257.746 169.438 256.684 178.341 256.566 185.417C256.271 194.438 255.504 203.4 253.499 212.244C252.85 215.074 252.024 217.846 251.139 220.44C247.541 228.871 242.999 236.419 236.569 243.022ZM263.586 243.317C261.757 250.393 258.572 245.911 254.383 244.025C251.198 242.61 247.954 241.666 244.592 241.43C244.533 241.312 244.533 241.195 244.533 241.136C249.429 235.18 254.324 227.633 255.209 220.086C255.976 218.023 256.625 215.841 257.215 213.6C261.285 221.737 265.827 234.827 263.586 243.317ZM274.498 196.501C275.973 198.388 286.709 209.532 283.641 212.421C282.167 213.836 271.962 209.414 269.543 209.06C266.24 208.53 262.642 208.353 259.515 209.532C259.22 209.178 258.867 209.06 258.454 209.06C260.813 201.336 262.76 192.787 263.586 184.296C268.422 187.362 270.9 191.902 274.498 196.501ZM295.026 174.627C292.607 175.157 289.186 174.273 286.65 174.332C283.464 174.391 280.279 174.686 277.153 175.157C272.906 175.806 267.892 177.044 264.293 179.756C264.175 179.697 264.057 179.638 263.939 179.579C264.352 172.091 263.88 164.78 262.052 158.294C264.942 155.936 267.479 153.165 269.72 150.158C276.74 152.811 282.167 156.997 287.416 162.304C289.776 164.662 291.958 167.08 294.318 169.438C294.849 169.969 296.442 171.03 296.736 171.679C297.739 173.919 296.854 174.273 295.026 174.627Z" fill="#1D3855"/>
<path d="M138.414 182.291C138.591 189.602 136.172 192.137 132.869 197.09C131.217 199.507 127.442 202.22 125.142 203.635C119.892 206.937 114.996 207.762 107.681 206.229C103.257 205.345 94.999 201.512 93.4653 196.854C93.4064 196.677 93.2884 196.265 93.1704 195.793C92.9345 194.673 93.1114 193.552 93.7603 192.609C94.881 190.899 95.7658 189.307 96.0608 186.831C96.9456 179.637 95.4709 178.104 94.2912 173.446C93.7603 170.911 94.5271 167.55 95.4119 168.435C100.839 173.741 105.676 177.809 113.993 179.814C122.369 181.819 131.217 181.642 136.113 177.633C137.588 176.453 138.237 178.93 138.414 182.291Z" fill="#AD153C"/>
<path d="M123.136 189.603C121.544 189.013 120.364 189.956 119.892 191.136C119.538 192.02 120.246 193.553 119.774 194.32C119.243 195.145 117.946 195.44 117.179 194.497C117.002 194.261 116.589 193.258 117.887 192.138C118.24 191.843 118.535 191.607 118.771 191.254C119.243 190.546 119.184 189.662 118.476 189.013C117.828 188.364 116.353 188.07 115.409 188.128C112.814 188.305 110.808 190.31 109.628 191.843C109.215 192.433 107.8 194.673 108.213 195.676C107.918 196.324 105.912 198.388 105.499 198.978C105.086 199.567 109.451 198.683 109.451 199.449C109.451 200.924 111.044 201.513 112.46 201.749C114.347 202.044 117.769 201.985 119.774 200.865C121.78 200.865 123.726 200.452 124.965 197.327C126.322 193.966 126.971 191.077 123.136 189.603Z" fill="#630313"/>
<path d="M123.962 197.681C125.791 199.155 123.549 201.1 122.723 201.572C118.358 204.284 114.878 204.402 109.097 203.813C99.836 202.928 99.2462 198.801 99.1282 197.975C99.0102 197.15 99.3641 196.501 100.013 195.912C100.721 195.263 101.37 194.85 103.493 194.496C105.086 194.202 107.622 194.261 108.92 194.496C110.159 194.732 111.693 195.145 112.046 196.03C112.164 196.324 111.103 196.324 110.69 196.442C108.33 197.268 108.389 198.211 107.917 198.919C107.858 198.978 111.398 197.091 117.945 197.032C119.125 196.973 121.307 197.091 122.487 197.15C123.313 197.445 123.549 197.327 123.962 197.681Z" fill="#FF6666"/>
<path d="M124.965 182.999C114.878 184.001 108.92 181.407 104.083 178.105C103.316 177.633 103.08 177.633 103.021 178.105C102.373 181.76 105.322 182.94 107.387 184.119C113.875 187.716 124.493 186.713 125.909 183.411C126.322 182.586 125.496 182.822 124.965 182.999Z" fill="white"/>
<path d="M139.181 280.993C133.223 278.753 129.389 286.595 130.746 292.019C130.628 293.14 130.628 294.26 130.864 295.262C132.339 301.395 139.948 302.102 143.841 297.798C148.265 292.786 145.257 283.234 139.181 280.993Z" fill="#8AD4B4"/>
<path d="M167.849 292.432C166.669 291.429 165.076 290.899 163.543 291.076C162.599 291.135 161.773 291.429 161.124 292.019C157.998 294.378 159.119 300.097 163.13 300.922C164.31 301.158 165.489 300.922 166.433 300.333C167.495 300.097 168.439 299.507 169.029 298.446C170.149 296.441 169.501 293.847 167.849 292.432Z" fill="#8AD4B4"/>
<path d="M163.424 362.361C161.301 357.82 155.933 356.405 151.627 358.764C150.034 359.648 148.736 361.004 147.734 362.655C146.554 363.54 145.61 364.719 144.961 366.134C143.074 370.262 144.784 375.392 148.559 377.868C152.807 380.639 157.231 378.045 160.357 374.861C163.601 371.5 165.43 366.783 163.424 362.361Z" fill="#8AD4B4"/>
<path d="M162.422 388.363C161.596 387.007 160.239 386.24 158.647 386.24C157.88 386.24 157.054 386.476 156.405 386.83C155.461 387.42 154.871 388.245 154.518 389.306C154.282 389.896 154.341 390.604 154.577 391.252C154.046 393.139 155.638 395.203 157.585 395.144C159.001 395.085 160.357 394.554 161.36 393.552C162.717 392.314 163.425 390.132 162.422 388.363Z" fill="#8AD4B4"/>
<path d="M68.0423 312.537C65.8598 309.412 61.6717 309.943 59.6071 312.891C59.3712 313.245 59.0762 313.658 58.8993 314.129C56.0089 317.019 55.9499 322.443 59.0762 325.391C65.3879 331.347 71.2276 317.137 68.0423 312.537Z" fill="#8AD4B4"/>
<path d="M47.6911 299.389C47.6911 299.095 47.6321 298.741 47.5731 298.387C47.3372 297.503 46.7473 296.736 45.9805 296.205C45.8035 296.029 45.5676 295.852 45.3906 295.675C44.3878 294.908 42.6182 295.262 41.7924 296.146C41.4384 296.559 41.0845 296.972 40.7306 297.444C40.3767 297.503 40.0817 297.797 40.0817 298.269C40.0817 298.446 40.0817 298.564 40.0817 298.741C39.6098 299.979 39.5508 301.276 40.2587 302.574C40.5536 303.045 40.9075 303.458 41.3205 303.753C41.4974 303.989 41.6744 304.166 41.8513 304.342C42.6772 305.168 44.3288 305.522 45.3316 304.814C46.8653 303.694 47.7501 302.22 47.8091 300.274C47.8091 299.92 47.7501 299.625 47.6911 299.389Z" fill="#8AD4B4"/>
<path d="M88.7472 387.891C88.7472 385.591 87.3315 383.174 85.031 382.525C84.6181 382.407 84.2051 382.407 83.7332 382.466C83.3793 382.23 82.9664 382.112 82.4945 382.112C81.2558 382.112 80.253 383.174 80.253 384.353C80.253 385.178 80.4299 386.004 80.7249 386.77C80.5479 388.598 81.3148 390.603 82.7305 391.782C83.7922 392.667 84.854 392.785 86.0927 392.195C87.1545 391.723 87.8624 390.957 88.2753 390.131C88.7472 389.542 88.9831 388.775 88.7472 387.891Z" fill="#8AD4B4"/>
<path d="M234.859 206.348C233.266 205.464 231.673 205.169 230.081 205.228C228.252 204.461 226.07 205.641 224.418 206.879C221.174 209.296 217.87 211.891 215.57 215.311C214.508 216.903 213.682 218.73 213.151 220.617C210.674 225.865 209.494 232.469 215.157 235.417C216.632 236.184 218.106 236.478 219.522 236.361C226.188 239.309 233.148 234.179 236.451 228.224C240.227 221.502 243.176 211.006 234.859 206.348Z" fill="#8AD4B4"/>
<path d="M238.221 183.471C237.985 181.584 236.038 180.346 234.268 180.287C230.788 180.11 228.488 184.296 230.493 187.185C230.611 187.303 230.67 187.48 230.788 187.598C230.965 187.893 231.201 188.188 231.437 188.424C232.145 189.072 233.089 189.485 234.032 189.485C235.094 189.485 235.979 188.836 236.628 188.07C237.69 186.773 238.457 185.122 238.221 183.471Z" fill="#8AD4B4"/>
<path d="M87.98 248.211C84.4407 243.611 76.7724 239.425 70.8146 241.43C69.281 241.548 67.8063 242.019 66.7445 243.199C64.503 245.616 65.0929 249.331 66.3316 252.102C68.6911 257.645 74.6488 261.418 80.7245 261.123C87.6261 260.711 92.758 254.461 87.98 248.211Z" fill="#8AD4B4"/>
<path d="M99.3639 259.767C97.8892 259.59 96.4735 260.534 96.1786 262.008C96.1196 262.185 96.0016 262.362 96.0016 262.598C95.1168 264.308 96.5915 265.958 98.1252 266.548C99.1869 266.961 100.544 266.312 101.075 265.369C101.428 264.72 101.605 264.131 101.723 263.423C102.136 261.654 101.134 260.003 99.3639 259.767Z" fill="#8AD4B4"/>
<path d="M167.613 94.7915C163.661 89.9565 156.995 91.0178 151.745 93.4353C149.445 94.1429 147.321 95.4401 145.492 97.209C143.782 98.86 142.602 100.806 142.012 102.869C141.009 105.523 140.891 108.53 142.366 111.36C145.256 117.08 152.158 117.846 157.29 115.193C166.315 112.657 174.16 102.869 167.613 94.7915Z" fill="#8AD4B4"/>
<path d="M148.442 75.9829C147.498 74.2729 145.492 73.3295 143.605 73.3885C141.481 72.6809 138.886 74.9215 138.355 76.8673C137.529 79.9924 139.888 83.3533 143.192 83.4712C143.959 83.4712 144.725 83.3533 145.433 82.9995C145.61 82.9406 145.787 82.9406 145.905 82.8816C146.731 82.6457 147.38 81.9971 147.734 81.2896C148.913 79.8155 149.444 77.8107 148.442 75.9829Z" fill="#8AD4B4"/>
<path d="M108.154 59.9451C106.62 58.9427 103.73 58.8248 101.134 59.4734C98.1259 59.5913 95.0585 62.0678 94.7046 63.7777C94.1147 66.4311 97.9489 68.2589 102.373 67.3155C103.376 67.0797 104.379 66.7259 105.322 66.2542C105.558 66.1952 105.735 66.0773 105.971 66.0183C107.092 65.5466 107.8 64.898 108.154 64.2494C109.451 62.7164 109.805 61.0654 108.154 59.9451Z" fill="#8AD4B4"/>
<path d="M260.695 133.176C259.928 130.051 257.038 128.047 253.853 128.282C250.608 128.518 248.19 130.7 246.597 133.412C245.24 135.712 244.297 138.542 245.122 141.136C246.243 144.615 250.018 145.854 253.204 144.497C258.041 144.674 261.757 137.422 260.695 133.176Z" fill="#8AD4B4"/>
<path d="M263.055 115.428C262.76 115.016 262.465 114.603 262.111 114.249C261.226 113.365 259.869 113.129 258.69 113.6C257.628 114.072 256.684 115.192 256.802 116.431C256.861 116.902 256.861 117.433 257.038 117.905C257.628 119.792 259.634 120.853 261.462 120.027C263.232 119.32 264.117 117.079 263.055 115.428Z" fill="#8AD4B4"/>
<path d="M191.444 120.087C191.09 119.084 190.441 118.495 189.557 118.141C188.908 117.787 188.141 117.728 187.433 117.846C186.489 117.905 185.546 118.259 184.838 118.79C183.776 119.615 183.127 120.559 183.304 121.974C183.422 122.917 184.071 123.86 184.897 124.332C185.074 124.686 185.369 124.981 185.722 125.158C188.318 126.514 191.208 124.509 191.562 121.797C191.68 121.325 191.68 120.676 191.444 120.087Z" fill="#8AD4B4"/>
<path d="M85.0889 96.3245C84.735 95.6759 84.2041 95.0863 83.4963 94.5556C80.37 92.374 75.533 94.2019 72.7606 96.2066C71.1679 97.3859 69.9292 99.0958 70.2831 101.16C70.696 103.518 72.7016 104.403 74.7072 105.228C78.3054 106.702 83.0244 107.174 85.7378 103.813C87.5074 101.69 87.2125 98.0934 85.0889 96.3245Z" fill="#8AD4B4"/>
<path d="M184.365 244.201C180.118 243.021 175.399 244.613 172.981 248.387C172.273 249.507 171.801 250.805 171.624 252.102C170.149 254.106 169.441 256.465 170.975 258.883C173.275 262.479 179.115 262.538 182.831 261.536C186.607 260.533 191.738 257.467 192.446 253.281C193.154 248.977 188.022 245.262 184.365 244.201Z" fill="#8AD4B4"/>
<path d="M203.89 382.466C203.713 381.759 203.418 381.169 203.005 380.638C202.474 378.869 200.882 377.572 198.994 377.572C198.109 377.572 197.224 377.808 196.458 378.28C195.042 378.516 193.685 379.341 192.859 380.638C191.208 383.174 191.974 386.594 194.688 388.068C195.337 388.422 196.045 388.598 196.752 388.657C198.227 389.601 199.997 389.955 201.589 388.952C203.595 387.537 204.48 384.825 203.89 382.466Z" fill="#8AD4B4"/>
<path d="M215.569 384.943C215.451 383.941 215.333 383.115 214.921 382.172C214.331 380.992 212.738 380.639 211.617 381.11C210.379 381.641 209.789 382.938 210.084 384.235C210.261 384.943 210.614 385.592 211.027 386.181C211.617 387.066 212.738 387.655 213.8 387.302C214.213 387.184 214.567 386.948 214.862 386.653C215.274 386.299 215.687 385.474 215.569 384.943Z" fill="#8AD4B4"/>
<path d="M192.034 368.434C192.034 368.08 191.916 367.667 191.739 367.372C191.444 366.842 190.972 366.606 190.441 366.37C189.084 365.839 187.433 366.37 186.902 367.726C186.548 368.61 186.666 369.554 187.256 370.261C187.669 370.792 188.141 371.028 188.73 371.264C188.966 371.264 189.143 371.323 189.379 371.323C189.674 371.323 190.028 371.264 190.264 371.146C190.736 370.969 191.149 370.615 191.385 370.202C191.444 370.085 191.503 369.967 191.562 369.79C191.857 369.436 192.093 368.905 192.034 368.434Z" fill="#8AD4B4"/>
<path d="M16.1916 297.502C15.3658 296.028 14.068 294.908 13.1832 293.493C12.2394 291.901 11.5316 290.191 11.0597 288.422C10.1159 284.884 10.4108 281.582 10.7647 278.045C10.8237 277.514 10.1159 277.455 9.87991 277.809C7.75636 281.111 7.52041 285.474 8.22826 289.248C8.93611 292.785 11.0007 297.62 14.304 299.448C15.5427 300.096 16.9584 298.74 16.1916 297.502Z" fill="#D5DDE0"/>
<path d="M8.75919 303.339C6.57666 300.273 4.57108 297.384 3.39134 293.788C2.09361 289.778 1.73969 285.71 1.56272 281.582C1.56272 281.17 0.972849 281.111 0.854874 281.465C-1.26867 288.894 0.500949 299.802 6.8716 304.813C7.87438 305.58 9.70299 304.578 8.75919 303.339Z" fill="#D5DDE0"/>
<path d="M264.765 372.678C264.706 370.851 262.11 370.91 261.933 372.678C261.58 376.039 261.049 379.223 259.456 382.289C257.981 385.119 255.858 387.478 253.852 389.954C253.321 390.603 253.97 391.487 254.737 391.133C261.108 388.067 265.06 379.518 264.765 372.678Z" fill="#D5DDE0"/>
<path d="M272.433 375.45C272.315 374.152 270.605 373.858 270.133 375.155C269.366 377.395 269.13 379.754 268.304 381.935C267.419 384.353 266.181 386.534 265.06 388.834C264.765 389.424 265.473 389.954 265.945 389.541C269.779 386.534 272.905 380.343 272.433 375.45Z" fill="#D5DDE0"/>
<g style="mix-blend-mode:multiply">
<ellipse cx="12.1236" cy="52.018" rx="7.59551" ry="7.6" fill="#5F5C58"/>
</g>
<g style="mix-blend-mode:multiply">
<ellipse cx="42.4287" cy="22.7994" rx="22.7865" ry="22.7994" fill="#FFE500"/>
</g>
<g style="mix-blend-mode:multiply">
<ellipse cx="68.4963" cy="13.3" rx="13.2921" ry="13.3" fill="#F57416"/>
</g>
</svg>
