<svg width="421" height="433" viewBox="0 0 421 433" fill="none" xmlns="http://www.w3.org/2000/svg">
<g opacity="0.15">
<path d="M376.796 328.494C373.503 333.001 373.329 333.174 369.862 337.855C372.463 334.735 374.716 331.614 376.796 328.494Z" fill="white"/>
<path d="M265.507 421.582C263.254 422.275 261 423.142 258.573 423.835C261.347 423.489 264.12 422.969 265.507 421.582Z" fill="white"/>
<path d="M377.143 328.147C376.97 328.147 376.97 328.147 377.143 328.147V328.147Z" fill="white"/>
<path d="M98.9198 51.4843L93.7194 55.2979C94.7595 54.7779 95.7995 54.0845 96.8396 53.3911C97.533 52.6977 98.2264 52.0043 98.9198 51.4843Z" fill="white"/>
<path d="M223.384 3.987C225.81 3.987 228.237 3.81365 230.664 3.81365C228.064 3.46696 225.29 2.94691 223.384 3.987Z" fill="white"/>
<path d="M304.337 85.4605C277.121 65.6988 244.879 55.4713 211.769 55.4713C203.275 55.4713 194.608 56.1647 186.114 57.5515C99.6132 71.5926 40.6749 153.239 54.5428 239.74C68.5839 326.241 150.231 385.179 236.731 371.311C278.681 364.55 315.431 341.842 340.22 307.346C365.009 272.849 375.063 230.899 368.302 188.949C361.542 146.999 338.833 110.249 304.337 85.4605Z" fill="white"/>
<path d="M415.8 191.549C415.626 191.029 415.28 190.509 415.106 190.163C412.679 177.508 408.866 165.2 403.492 153.759C410.252 164.16 415.973 175.428 421 187.736C415.106 172.134 407.479 157.226 398.118 143.532C394.998 137.985 391.704 132.784 387.891 127.584C390.837 130.878 393.958 134.345 397.078 137.465C394.824 133.304 392.571 129.317 390.144 125.504C391.184 126.891 392.224 128.451 393.091 130.011C385.464 113.889 371.769 97.4215 360.848 84.0737L366.915 84.5937C365.182 82.8602 363.275 81.1268 361.368 79.3933C367.436 82.3402 373.503 85.1138 379.57 87.5406C369.862 81.4735 359.808 75.4063 349.234 70.0325C338.313 62.5786 326.525 57.0314 314.218 53.0444C306.417 48.0173 294.976 45.0704 287.176 44.0303C285.789 43.3369 284.402 42.6436 281.628 41.2568C287.002 41.9502 292.376 42.8169 297.576 43.857C303.47 46.2839 309.364 48.8841 316.298 50.0975C312.311 48.1907 308.324 46.6306 304.164 45.2438C332.593 51.6576 357.728 63.2719 382.17 81.4735C344.554 51.3109 297.75 34.8429 247.306 34.6696C276.948 27.909 304.684 41.9502 334.846 50.0975C302.257 30.5092 264.467 22.7086 226.157 25.3088C228.931 24.442 231.704 23.5753 234.478 22.8819C234.824 22.8819 234.998 22.8819 235.345 22.8819C235.171 22.8819 234.998 22.8819 234.824 22.8819C236.211 22.5352 237.598 22.1885 239.158 22.0152C237.078 22.1885 235.171 22.3619 233.091 22.7086C231.531 22.5352 230.144 22.5352 228.931 22.8819C229.797 22.8819 230.491 22.8819 231.358 22.8819C230.144 23.0553 229.104 23.2286 227.891 23.2286C228.237 23.0553 228.584 22.8819 228.931 22.7086C211.596 22.3619 194.608 24.0953 177.966 28.2557C178.833 27.5623 179.7 26.8689 180.393 26.1755C176.406 27.7356 176.406 27.7356 172.419 29.2958C172.766 28.9491 173.113 28.7757 173.459 28.6024C171.899 29.2958 170.512 29.9892 168.952 30.6826C155.951 34.6696 143.123 40.2167 130.469 47.6706C132.549 45.9372 134.456 44.377 136.19 43.6836C130.816 42.9903 127.522 47.6706 123.882 51.831C122.668 52.8711 121.628 53.7378 119.895 54.9513C120.588 54.6046 121.282 54.2579 121.975 53.9112C119.548 56.5114 116.775 58.4182 113.308 58.0715L117.295 56.5114C113.308 58.0715 109.321 59.6316 105.16 61.3651C117.295 56.5114 126.309 42.9903 138.443 38.1365C136.19 39.0033 133.936 39.87 131.683 40.7367C166.699 21.8418 206.915 15.0813 245.572 15.6013C241.412 14.9079 241.412 14.9079 237.251 14.2145C255.973 7.974 270.707 19.7616 285.269 12.8277C264.294 9.36078 244.359 1.38678 221.477 6.93391C221.823 5.37378 222.517 4.50704 223.557 3.987C200.502 4.50704 180.567 6.06717 158.898 15.0813C163.058 15.7746 172.419 12.6544 176.58 13.3478C146.59 17.3348 120.762 38.8299 96.8396 53.3911C93.3727 57.2048 90.9458 62.9252 85.052 62.9252C87.1321 60.8451 89.2123 58.9383 91.4658 56.8581C92.1592 56.338 92.8526 55.818 93.7194 55.1246C93.026 55.6446 92.3326 56.1647 91.6392 56.5114C105.854 43.6836 121.628 32.5894 137.923 23.0553C133.936 24.6154 133.936 24.6154 129.949 26.1755C143.123 11.2676 162.192 13.6945 171.379 0C151.097 7.974 129.429 11.6143 112.441 28.429C111.921 26.8689 112.094 25.8288 112.614 24.7887C92.8526 37.2698 76.2112 49.2308 61.9967 68.4724C65.9837 66.9122 72.5709 59.2849 76.5579 57.7248C52.4626 76.7931 41.195 109.209 27.8472 134.518C27.5005 136.771 27.3272 139.025 26.9805 141.278C26.2871 143.012 25.767 144.745 25.0736 146.652C24.2069 147.866 22.8201 149.079 20.9133 149.772C20.5666 150.813 20.2199 151.679 19.8732 152.719C12.5926 169.361 8.08555 190.336 4.44525 207.151L1.15164 201.95C-3.18205 235.233 5.13864 264.529 19.0065 291.224C21.26 298.852 23.6869 306.306 26.1137 313.239C25.767 312.893 25.4203 312.719 25.0736 312.373C25.767 314.106 26.6338 315.84 27.5005 317.4V317.573L21.9534 314.8C22.8201 316.88 23.8602 318.96 24.9003 321.04C22.9935 319.827 21.26 318.613 19.3532 317.573C21.6067 319.48 23.8602 321.387 26.1137 323.294C29.5807 329.881 33.3943 336.121 37.5547 341.669C29.9274 335.775 22.8201 329.361 15.7129 322.254C22.9935 330.228 30.9675 337.508 39.4615 344.269C61.9967 372.524 93.1993 390.033 125.789 403.9C116.255 402.687 110.707 399.913 101.173 398.7C106.027 402.167 111.054 404.767 116.081 406.847C110.361 406.501 104.64 406.327 98.9198 406.327C120.588 410.141 143.644 412.914 166.525 412.394C166.179 412.221 165.659 412.221 165.312 412.048C170.166 412.394 174.499 411.354 179.18 410.314C181.953 410.314 184.727 410.141 187.501 409.968C185.767 409.968 183.86 409.794 182.127 409.621C187.501 408.234 193.048 407.194 199.635 408.581C195.648 409.101 191.661 409.621 187.674 409.968C192.181 410.141 196.861 409.968 201.542 408.927C201.888 408.927 202.235 409.101 202.582 409.101C190.794 411.181 178.833 412.221 166.872 412.394C175.713 415.688 190.274 413.955 199.288 411.874C200.848 412.048 202.235 412.221 205.355 412.394C167.912 421.408 134.456 421.582 98.7464 412.394C143.297 425.569 192.181 423.662 239.505 406.154C213.676 422.275 183.34 419.675 152.484 423.142C189.061 428.862 226.85 422.449 262.213 406.847C264.64 405.114 266.894 403.38 269.321 401.647C274.694 399.567 279.895 397.313 285.095 394.886C285.442 394.886 285.789 394.713 286.135 394.713C278.335 399.22 270.187 403.207 262.04 406.847C258.4 409.621 254.759 412.394 250.946 414.301C265.16 407.714 279.375 399.567 293.416 390.379C301.91 385.699 310.057 380.325 317.685 374.258C313.178 378.592 309.017 383.445 305.55 388.992C285.615 401.647 263.427 411.181 240.718 418.288C244.879 417.595 244.879 417.595 249.039 416.901C233.611 427.996 215.583 422.275 204.315 432.676C225.29 429.383 246.785 430.076 266.547 418.462C266.72 419.848 266.374 420.888 265.68 421.582C287.176 414.128 305.377 406.674 322.712 392.286C318.551 392.979 310.751 398.527 306.59 399.22C325.312 390.553 339.006 375.125 351.661 359.87C351.661 360.39 351.488 360.737 351.314 361.257C357.208 354.67 362.755 347.909 367.782 340.802C367.436 341.495 367.089 342.189 366.742 342.709L370.382 337.855C369.689 338.548 369.169 339.242 368.476 339.935C371.076 336.121 373.503 332.481 375.93 328.494C376.45 328.321 376.97 328.147 377.49 328.147C401.065 293.478 408.346 252.741 400.892 214.085C401.932 215.645 402.798 217.031 403.492 218.418C403.665 216.685 403.839 214.951 404.012 213.218C405.225 219.978 406.092 227.086 406.265 234.02C406.439 232.113 406.612 230.033 406.612 228.126C411.119 284.29 383.037 336.815 345.94 378.418C349.234 375.645 349.234 375.645 352.528 372.871C344.727 390.726 326.005 395.233 321.672 410.141C338.14 396.273 357.555 385.526 368.649 365.07C369.516 366.284 369.862 367.324 369.516 368.364C384.424 350.683 396.385 334.388 404.012 312.893C400.718 315.666 396.905 324.507 393.438 327.281C410.426 302.145 411.293 270.076 416.146 243.554C415.453 238.18 412.333 232.633 417.88 227.952C418.573 215.298 417.706 202.99 415.626 191.029C415.28 191.029 415.453 191.376 415.8 191.549ZM357.035 340.455C356.341 340.975 355.648 341.668 354.954 342.189L357.035 340.455C354.434 344.269 351.661 347.909 348.887 351.376C351.141 346.522 352.874 341.322 357.555 339.588C357.381 339.935 357.208 340.108 357.035 340.455ZM344.554 310.293C318.898 345.829 280.935 369.231 237.598 376.338C228.757 377.725 219.917 378.418 211.249 378.418C132.203 378.418 62.3434 321.04 49.3423 240.433C34.9545 151.159 95.9729 66.7389 185.247 52.351C228.584 45.4171 271.921 55.6446 307.457 81.3001C342.993 106.956 366.395 144.919 373.503 188.256C380.437 231.419 370.209 274.756 344.554 310.293ZM55.9295 335.428C51.2491 332.134 47.2622 328.494 45.702 322.947C48.9956 327.107 52.2892 331.268 55.9295 335.428ZM67.0238 346.696C68.4106 347.909 69.624 349.122 71.0108 350.336C69.2773 349.122 67.7172 347.736 65.9837 346.522C66.5038 346.522 66.8505 346.696 67.0238 346.696ZM336.58 82.5135C347.674 87.1939 356.861 94.4745 365.355 102.969C356.688 95.3413 347.154 88.4074 336.58 82.5135ZM289.082 47.3239C287.176 46.9772 285.269 46.6306 283.535 46.4572C283.362 46.2839 283.189 46.1105 283.015 45.9372C285.095 46.2839 287.176 46.8039 289.082 47.3239ZM156.645 41.0834C153.004 42.4702 149.191 43.857 145.55 45.2438C148.671 44.0303 151.791 42.8169 154.911 41.4301C155.431 41.4301 156.125 41.2568 156.645 41.0834ZM124.922 52.5244C131.336 49.5775 137.75 46.6306 144.51 44.377C138.963 47.844 133.589 51.4843 128.216 55.2979C126.655 56.1647 125.095 57.0314 123.535 57.8982C126.135 52.8711 129.776 51.4843 133.589 49.9242C129.602 51.4843 125.615 53.0444 121.455 54.7779C122.495 54.4312 123.709 53.5645 124.922 52.5244ZM171.726 408.927C169.646 408.927 167.739 408.927 165.659 409.274C159.938 409.448 154.391 409.274 148.671 409.101C151.964 408.407 155.258 407.367 158.551 406.154C147.457 400.433 131.336 406.847 122.842 395.233C127.869 395.926 132.896 396.62 137.75 397.313C143.817 398.527 149.884 399.74 156.125 400.433C158.725 400.087 161.498 399.913 164.099 399.74C166.352 399.74 168.779 399.74 171.032 399.74C174.846 399.913 178.66 400.78 182.3 402.34C173.459 402.167 164.619 401.474 155.951 400.433C151.444 400.953 147.11 401.3 142.777 401.127C162.885 403.207 184.38 403.38 206.222 401.474C206.049 401.474 206.049 401.647 205.875 401.647C202.062 402.514 198.248 402.687 194.434 402.514C194.261 402.514 194.088 402.514 193.914 402.514C196.688 403.034 199.462 403.207 202.235 403.034C202.408 403.034 202.408 403.034 202.582 402.86H202.408C202.755 402.86 203.275 402.687 203.622 402.687C203.449 402.86 203.102 403.034 202.928 403.207C203.275 403.034 203.622 402.86 203.969 402.687C206.742 402.34 209.689 401.82 212.463 401.127L212.116 400.78C212.289 400.78 212.289 400.78 212.463 400.78C212.809 400.78 212.983 400.953 213.329 400.953C213.849 400.78 214.543 400.607 215.063 400.433C218.703 400.087 222.517 399.567 226.157 399.047C225.984 399.22 225.637 399.393 225.464 399.393C222.343 399.913 219.397 400.607 216.276 401.474C215.236 401.3 214.369 401.127 213.329 400.78C212.983 400.78 212.809 400.953 212.463 400.953L213.503 402.167C211.249 402.86 208.996 403.727 206.569 404.594C204.315 405.114 202.062 405.634 199.288 405.46L202.582 402.687H202.408C192.354 406.501 181.953 408.234 171.726 408.927ZM307.631 387.606C308.497 386.739 309.364 386.046 311.271 384.485C311.097 384.832 310.751 385.179 310.404 385.525C321.498 375.471 331.379 364.204 340.74 352.243L338.14 355.71C339.353 354.15 340.047 353.109 340.74 352.243C343.514 348.776 346.114 345.309 348.714 341.669C348.194 347.736 344.9 350.509 341.607 353.283C344.9 350.509 348.194 347.736 351.488 344.962C348.194 347.736 344.38 356.576 340.913 359.35C341.26 359.35 341.433 359.177 341.78 359.003C331.899 369.924 320.285 379.458 307.631 387.606Z" fill="white"/>
</g>
<path d="M244.421 344.962H195.256V157.895C177.293 174.853 156.123 187.395 131.745 195.52V150.476C144.575 146.236 158.514 138.228 173.561 126.452C188.608 114.558 198.93 100.721 204.529 84.9404H244.421V344.962Z" fill="#00B0F0"/>
</svg>
