<?xml version="1.0" encoding="utf-8"?>
<!-- Generator: Adobe Illustrator 21.1.0, SVG Export Plug-In . SVG Version: 6.00 Build 0)  -->
<svg version="1.1" id="Layer_1" xmlns="http://www.w3.org/2000/svg" xmlns:xlink="http://www.w3.org/1999/xlink" x="0px" y="0px"
	 viewBox="0 0 178.8 35.7" style="enable-background:new 0 0 178.8 35.7;" xml:space="preserve">
<style type="text/css">
	.st0{fill:#FFFFFF;}
</style>
<g>
	<g>
		<path class="st0" d="M11.3,3.4l6.2,31.8h-5.4l-1-5.4H6l-0.9,5.4H0L6,3.4H11.3z M9.1,16.4l-0.6-4.8H8.4l-0.5,4.8l-1.1,8.5h3.6
			L9.1,16.4z"/>
		<path class="st0" d="M24,3.4v14.2h0.1l4.2-14.2h5.2l-4.8,14.7l5.4,17.1h-5.4L24,19h-0.1v16.2h-5.1V3.4H24z"/>
		<path class="st0" d="M47.5,3.4v5.9h-4v25.9h-5.1V9.3h-4V3.4H47.5z"/>
		<path class="st0" d="M54.3,3.4v12.9l-0.5,6.2H54l5.5-19.1h5.1v31.8h-5.1V21.1l0.5-5h-0.2l-5.5,19.1h-5.1V3.4H54.3z"/>
		<path class="st0" d="M67.4,35.2V3.4h5c2,0,3.7,0.1,5.3,1.7c1.7,1.7,2.6,4.5,2.6,7.2c0,2.8-0.9,5-2.8,6.6c2.1,1.3,3.2,4.6,3.2,7.4
			c0,6.3-3.8,8.9-8.4,8.9C72.3,35.2,67.4,35.2,67.4,35.2z M72.5,8.7v7.8c1.9,0,3-1.6,3-4C75.6,10.1,74.5,8.6,72.5,8.7z M72.5,21.4
			V30c2.1,0.1,3.3-1.7,3.3-4.4C75.8,23.1,74.5,21.3,72.5,21.4z"/>
		<path class="st0" d="M102.4,32.5v2.7h-4.8v-2.7c-3.7-0.2-7.8-3.6-7.8-13.5c0-10,4.1-13.4,7.8-13.5v-2h4.8v2
			c3.7,0.2,7.8,3.5,7.8,13.5C110.2,28.9,106.1,32.3,102.4,32.5z M97.6,10.8c-1.8,0.5-2.8,4.6-2.8,8.2c0,4.1,1,7.7,2.8,8.2V10.8z
			 M102.4,10.8v16.4c1.8-0.5,2.8-4.1,2.8-8.2C105.2,15.3,104.2,11.3,102.4,10.8z"/>
		<path class="st0" d="M126.9,35.2h-5.1V9.3h-3.5V23c0,7.7-2,12.2-7.5,12.2h-0.6v-5.9h0.1c2.5,0,3-2.1,3-5.9v-20H127L126.9,35.2
			L126.9,35.2z"/>
		<path class="st0" d="M147.1,19.3c0,11.9-4.5,16.4-9.1,16.4s-9.1-4.5-9.1-16.4s4.5-16.4,9.1-16.4C142.5,2.9,147.1,7.4,147.1,19.3z
			 M138,29.9c3.4,0,3.6-8.1,3.6-10.6c0-2.8-0.2-10.6-3.6-10.6c-3.4,0-3.6,7.8-3.6,10.6C134.4,21.9,134.6,29.9,138,29.9z"/>
		<path class="st0" d="M149,35.2V3.4h5.3c1.1,0,8.8-0.8,8.8,9.4c0,5.9-3.1,9.7-7.8,9.4l-1.1-0.1v13.1C154.2,35.2,149,35.2,149,35.2z
			 M154.1,17c2.5,0.1,3.9-1,3.9-4.3c0-2.3-0.7-4.1-2.9-4.1h-1V17z"/>
		<path class="st0" d="M172.4,3.4l6.2,31.8h-5.4l-1-5.4H167l-0.9,5.4H161l6-31.8C167,3.4,172.4,3.4,172.4,3.4z M170.2,16.4l-0.6-4.8
			h-0.1l-0.5,4.8l-1.1,8.5h3.6L170.2,16.4z"/>
	</g>
</g>
</svg>
