<?xml version="1.0" encoding="utf-8"?>
<!-- Generator: Adobe Illustrator 16.0.0, SVG Export Plug-In . SVG Version: 6.00 Build 0)  -->
<!DOCTYPE svg PUBLIC "-//W3C//DTD SVG 1.1//EN" "http://www.w3.org/Graphics/SVG/1.1/DTD/svg11.dtd">
<svg
          version="1.1"
          id="Слой_1"
          xmlns="http://www.w3.org/2000/svg"
          xmlns:xlink="http://www.w3.org/1999/xlink"
          x="0px"
          y="0px"
          viewBox="0 0 446 273"
          style="enable-background:new 0 0 446 273;"
          xml:space="preserve"
        >
          <style type="text/css">
            .st0 {
              display: none;
              fill: red;
            }
          </style>
          <g>
            <path
              class="st0"
              d="M446,273c-148.67,0-297.33,0-446,0C0,182,0,91,0,0c148.67,0,297.33,0,446,0C446,91,446,182,446,273z
               M218.69,190.25c-0.14,1.86-0.23,3.05-0.33,4.25c-0.51,6.16-0.79,12.31,0.76,18.37c1.75,6.83,6.01,10.54,12.56,10.87
              c0.88,0.04,1.78-0.52,2.67-0.8c-0.33-0.9-0.59-1.82-1.01-2.67c-0.21-0.42-0.65-0.76-1.05-1.05c-3.23-2.39-4.26-5.73-3.73-9.49
              c0.52-3.69,1.03-7.46,2.21-10.97c7.73-22.92,20.28-43.17,34.97-62.18c3.68-4.77,7.83-9.21,13.23-12.03
              c8.41-4.4,11.55-1.54,12.63,5.95c1.22,8.51,0.37,16.98-1.27,25.32c-4.3,21.87-14.12,41.14-28.35,58.2
              c-5.15,6.18-11.04,11.6-18.12,15.55c-8.48,4.73-17.36,6.7-26.89,3.38c-1.17-0.41-2.42-0.83-3.63-0.82
              c-1.09,0.01-3.08,0.57-3.09,0.94c-0.04,1.26,0.23,3.05,1.09,3.72c1.44,1.12,3.37,1.87,5.2,2.18c10.46,1.78,20.58,0.56,30.24-3.95
              c11.33-5.29,20.42-13.42,28.55-22.71c14.98-17.12,24.49-37.18,31.03-58.74c3.35-11.05,5.3-22.35,4.01-33.97
              c-0.96-8.66-6.29-12.73-14.84-11.28c-2.2,0.37-4.38,1.05-6.45,1.87c-6.05,2.42-11.14,6.35-15.79,10.8
              c-12.54,12.01-22.9,25.74-31.76,40.64c-0.5,0.85-1.05,1.68-1.57,2.51c-0.22-1.13,0.01-2,0.26-2.86c2.9-9.96,7.08-19.39,12.19-28.39
              c8.87-15.64,17.09-31.7,28.54-45.73c12.27-15.04,27.35-24.85,47.36-25.92c11.9-0.64,23.74-2.08,35.29-5.29
              c7.44-2.07,14.27-5.39,20.72-9.69c6.73-4.48,7.83-11.14,8.04-18.28c0.06-2.2-1.16-3.06-3.29-2.33c-1.95,0.66-3.83,1.63-5.62,2.66
              c-7.05,4.07-14.46,7.12-22.46,8.81c-8.71,1.85-17.44,3.68-26.05,5.97c-16.4,4.35-31.57,11.32-44.07,23.05
              c-6.91,6.48-13.6,13.28-19.7,20.53c-22.46,26.68-39.4,56.45-49.28,90.05c-0.41,1.39-1.14,2.83-2.1,3.9
              c-11.94,13.44-25.75,24.37-42.6,31.08c-5.56,2.21-11.37,3.24-17.37,2.85c-6.6-0.42-11.06-4.23-12.4-10.68
              c-1.48-7.12-0.11-14.06,1.48-20.98c0.41-1.79,1.34-2.75,3.03-3.54c17.48-8.1,31.59-20.33,42.76-35.89
              c2.31-3.22,3.82-7.22,4.9-11.08c2.2-7.83-3.84-15.71-12.08-14.53c-6.52,0.94-12.54,2.86-17.81,6.66
              c-15.91,11.46-26.32,27.16-33.74,44.97c-4.35,10.45-5.37,21.37-3.35,32.57c2.41,13.36,10.58,20.38,24.15,20.54
              c6.85,0.09,13.41-1.33,19.78-3.73c12.88-4.86,24.05-12.5,34.39-21.44C213.41,195.27,215.76,192.96,218.69,190.25z M58.49,164.03
              c-0.3-0.11-0.61-0.21-0.91-0.32c2.18-5.8,4.03-11.75,6.61-17.36c8.13-17.66,18-34.37,28.71-50.56c5.73-8.66,12.5-16.46,20.89-22.7
              c8.1-6.03,17.07-10.02,27.16-11.25c10.74-1.32,21.54-2.27,32.23-3.93c11.06-1.72,21.33-5.66,30.5-12.39
              c6.2-4.55,6.79-11.04,7.13-17.73c0.09-1.84-1.17-2.84-2.99-2.22c-1.88,0.63-3.74,1.44-5.44,2.44c-7.39,4.34-15.17,7.58-23.61,9.23
              c-5.97,1.16-11.9,2.49-17.84,3.8c-24.07,5.31-44.99,16.24-61.78,34.59c-12.91,14.12-24.61,29.14-34.31,45.67
              C52.21,142.8,41.78,165.21,37.42,190c-1.35,7.66-1.78,15.41,0.2,23.05c1.77,6.85,6.16,10.5,12.68,10.71
              c0.82,0.03,2.1-0.25,2.38-0.79c0.29-0.56-0.32-1.64-0.67-2.43c-0.19-0.43-0.62-0.8-1.02-1.08c-3.53-2.52-4.47-6.08-3.98-10.14
              c0.29-2.39,0.68-4.78,1.22-7.12c2.06-8.83,5.82-17,10.02-24.95c8.5-16.08,17.51-31.87,30.08-45.2c3.24-3.43,7.32-6.36,11.54-8.51
              c5.23-2.67,8.39-0.77,9.75,4.9c1.92,7.95,0.98,15.95-0.24,23.83c-3.28,21.19-12.29,39.96-25.09,56.99
              c-6,7.98-12.9,15.09-21.64,20.11c-8.58,4.93-17.62,6.94-27.33,3.54c-1.17-0.41-2.43-0.83-3.64-0.81c-1.1,0.02-2.19,0.62-3.29,0.96
              c0.41,1.26,0.44,3.01,1.31,3.67c1.45,1.12,3.37,1.88,5.2,2.2c7.13,1.25,14.25,1.09,21.3-0.73c11.55-2.99,21.01-9.51,29.54-17.55
              c18.81-17.74,30.28-39.89,38.17-64.12c3.81-11.71,6.03-23.69,5.01-36.09c-0.78-9.49-6.27-13.74-15.57-12.03
              c-1.79,0.33-3.56,0.88-5.26,1.53c-6.02,2.29-11.09,6.1-15.72,10.45c-12.54,11.77-22.79,25.38-31.71,40.04
              C59.92,161.62,59.21,162.83,58.49,164.03z M335.17,229.65c1.57-0.15,3.15-0.22,4.71-0.45c7.71-1.14,14.42-4.71,20.59-9.16
              c15.64-11.31,27.84-25.96,39.09-41.44c1.09-1.51,1.27-3.88,1.33-5.87c0.04-1.47-1.1-2.03-2.34-0.71c-0.68,0.73-1.32,1.5-1.94,2.28
              c-8.33,10.5-16.39,21.22-26.18,30.49c-5.05,4.79-10.27,9.36-16.59,12.28c-3.71,1.71-7.81,2.98-11.85,3.48
              c-6.6,0.82-10.44-2.64-11.63-9.22c-0.99-5.53-0.28-10.96,0.76-16.36c2.09-10.74,6.76-20.51,11.93-30.03
              c2.38-4.38,5.15-8.56,7.67-12.87c2.4-4.11,0.69-9.22-3.98-12.15c-3.97-2.49-7.38-1.78-10.21,2.54
              c-12.23,18.71-20.56,38.97-23.13,61.26c-0.52,4.54,0.42,9.51,1.8,13.94C317.69,225.6,324.82,229.49,335.17,229.65z M351.56,103.24
              c0,5.06,1.82,7.86,5.83,8.98c6.97,1.95,14.3-2.19,16.22-9.18c1.24-4.51-0.5-9.4-3.96-11.07C361.69,88.1,351.55,94.42,351.56,103.24
              z"
            />
            <path
              d="M218.69,190.25c-2.93,2.71-5.28,5.02-7.77,7.17c-10.34,8.93-21.51,16.58-34.39,21.44c-6.36,2.4-12.93,3.82-19.78,3.73
              c-13.57-0.17-21.74-7.18-24.15-20.54c-2.02-11.21-1.01-22.12,3.35-32.57c7.42-17.82,17.83-33.52,33.74-44.97
              c5.28-3.8,11.29-5.72,17.81-6.66c8.24-1.19,14.28,6.7,12.08,14.53c-1.08,3.86-2.59,7.86-4.9,11.08
              c-11.17,15.56-25.28,27.79-42.76,35.89c-1.69,0.78-2.62,1.74-3.03,3.54c-1.59,6.92-2.96,13.86-1.48,20.98
              c1.34,6.44,5.81,10.26,12.4,10.68c6,0.38,11.81-0.64,17.37-2.85c16.85-6.71,30.66-17.64,42.6-31.08c0.96-1.08,1.69-2.51,2.1-3.9
              c9.87-33.61,26.82-63.38,49.28-90.05c6.1-7.24,12.79-14.04,19.7-20.53c12.5-11.72,27.68-18.69,44.07-23.05
              c8.61-2.29,17.33-4.12,26.05-5.97c8-1.69,15.41-4.74,22.46-8.81c1.79-1.04,3.67-2,5.62-2.66c2.14-0.73,3.36,0.13,3.29,2.33
              c-0.21,7.14-1.32,13.8-8.04,18.28c-6.46,4.3-13.28,7.62-20.72,9.69c-11.54,3.21-23.38,4.65-35.29,5.29
              c-20.01,1.07-35.1,10.88-47.36,25.92c-11.44,14.03-19.66,30.09-28.54,45.73c-5.1,9-9.29,18.42-12.19,28.39
              c-0.25,0.86-0.47,1.73-0.26,2.86c0.52-0.84,1.06-1.66,1.57-2.51c8.86-14.9,19.22-28.63,31.76-40.64c4.65-4.46,9.74-8.38,15.79-10.8
              c2.07-0.83,4.26-1.5,6.45-1.87c8.55-1.44,13.88,2.63,14.84,11.28c1.29,11.62-0.66,22.92-4.01,33.97
              c-6.54,21.56-16.05,41.62-31.03,58.74c-8.13,9.29-17.22,17.42-28.55,22.71c-9.66,4.51-19.78,5.73-30.24,3.95
              c-1.83-0.31-3.76-1.06-5.2-2.18c-0.86-0.67-1.13-2.45-1.09-3.72c0.01-0.37,2.01-0.93,3.09-0.94c1.21-0.01,2.46,0.42,3.63,0.82
              c9.53,3.32,18.41,1.35,26.89-3.38c7.08-3.94,12.97-9.37,18.12-15.55c14.22-17.06,24.04-36.32,28.35-58.2
              c1.64-8.34,2.5-16.81,1.27-25.32c-1.08-7.5-4.22-10.35-12.63-5.95c-5.4,2.82-9.55,7.26-13.23,12.03
              c-14.69,19.01-27.25,39.26-34.97,62.18c-1.18,3.51-1.69,7.28-2.21,10.97c-0.53,3.77,0.49,7.11,3.73,9.49
              c0.4,0.29,0.84,0.63,1.05,1.05c0.42,0.85,0.68,1.78,1.01,2.67c-0.89,0.28-1.8,0.84-2.67,0.8c-6.56-0.33-10.81-4.03-12.56-10.87
              c-1.55-6.06-1.28-12.22-0.76-18.37C218.47,193.3,218.55,192.11,218.69,190.25z M152.48,171.91c0.18,0.15,0.37,0.3,0.55,0.45
              c0.46-0.15,0.94-0.25,1.37-0.47c12.77-6.64,23.16-15.97,30.76-28.17c1.68-2.7,2.51-6.18,2.89-9.39c0.56-4.82-3.44-7.27-7.66-4.81
              c-2.18,1.27-4.16,3.08-5.83,5.01c-7.9,9.14-13.93,19.5-19.24,30.29C154.19,167.09,153.41,169.54,152.48,171.91z"
            />
            <path
              d="M58.49,164.03c0.72-1.2,1.43-2.41,2.15-3.61c8.92-14.65,19.17-28.26,31.71-40.04c4.63-4.35,9.7-8.16,15.72-10.45
              c1.7-0.65,3.47-1.2,5.26-1.53c9.3-1.71,14.78,2.54,15.57,12.03c1.02,12.4-1.19,24.38-5.01,36.09
              c-7.89,24.23-19.36,46.38-38.17,64.12c-8.53,8.04-17.99,14.56-29.54,17.55c-7.05,1.82-14.17,1.98-21.3,0.73
              c-1.83-0.32-3.75-1.09-5.2-2.2c-0.87-0.67-0.9-2.41-1.31-3.67c1.1-0.34,2.19-0.95,3.29-0.96c1.21-0.02,2.47,0.4,3.64,0.81
              c9.71,3.4,18.75,1.39,27.33-3.54c8.74-5.02,15.64-12.13,21.64-20.11c12.8-17.03,21.81-35.8,25.09-56.99
              c1.22-7.88,2.16-15.88,0.24-23.83c-1.37-5.66-4.52-7.56-9.75-4.9c-4.21,2.15-8.3,5.08-11.54,8.51
              c-12.57,13.33-21.58,29.13-30.08,45.2c-4.2,7.95-7.96,16.13-10.02,24.95c-0.55,2.34-0.94,4.73-1.22,7.12
              c-0.48,4.06,0.45,7.62,3.98,10.14c0.4,0.28,0.83,0.65,1.02,1.08c0.35,0.79,0.96,1.88,0.67,2.43c-0.28,0.54-1.55,0.82-2.38,0.79
              c-6.52-0.21-10.91-3.86-12.68-10.71c-1.98-7.65-1.55-15.4-0.2-23.05c4.36-24.79,14.79-47.2,27.41-68.71
              c9.7-16.53,21.4-31.55,34.31-45.67c16.79-18.36,37.71-29.28,61.78-34.59c5.94-1.31,11.87-2.63,17.84-3.8
              c8.44-1.65,16.23-4.89,23.61-9.23c1.71-1,3.56-1.81,5.44-2.44c1.83-0.61,3.09,0.39,2.99,2.22c-0.34,6.69-0.93,13.18-7.13,17.73
              c-9.17,6.73-19.43,10.67-30.5,12.39c-10.69,1.66-21.48,2.61-32.23,3.93c-10.08,1.24-19.06,5.23-27.16,11.25
              c-8.39,6.24-15.16,14.04-20.89,22.7c-10.71,16.2-20.58,32.9-28.71,50.56c-2.58,5.61-4.43,11.57-6.61,17.36
              C57.89,163.82,58.19,163.93,58.49,164.03z"
            />
            <path
              d="M335.17,229.65c-10.36-0.16-17.49-4.04-19.96-11.99c-1.38-4.43-2.32-9.41-1.8-13.94c2.57-22.3,10.91-42.56,23.13-61.26
              c2.82-4.32,6.24-5.03,10.21-2.54c4.67,2.94,6.38,8.04,3.98,12.15c-2.52,4.31-5.29,8.49-7.67,12.87
              c-5.18,9.52-9.85,19.28-11.93,30.03c-1.05,5.39-1.76,10.83-0.76,16.36c1.19,6.59,5.02,10.05,11.63,9.22
              c4.04-0.5,8.14-1.77,11.85-3.48c6.32-2.92,11.54-7.49,16.59-12.28c9.79-9.27,17.85-19.99,26.18-30.49
              c0.62-0.78,1.25-1.56,1.94-2.28c1.24-1.32,2.39-0.76,2.34,0.71c-0.06,1.99-0.24,4.36-1.33,5.87
              c-11.25,15.48-23.45,30.13-39.09,41.44c-6.16,4.45-12.88,8.02-20.59,9.16C338.33,229.42,336.75,229.5,335.17,229.65z"
            />
            <path
              d="M351.56,103.24c-0.01-8.82,10.13-15.14,18.09-11.27c3.46,1.68,5.2,6.56,3.96,11.07c-1.92,6.99-9.25,11.13-16.22,9.18
              C353.38,111.1,351.56,108.3,351.56,103.24z"
            />
            <path
              class="st0"
              d="M152.48,171.91c0.94-2.37,1.71-4.82,2.83-7.1c5.31-10.79,11.34-21.15,19.24-30.29
              c1.66-1.92,3.65-3.73,5.83-5.01c4.22-2.46,8.23-0.01,7.66,4.81c-0.38,3.22-1.21,6.69-2.89,9.39c-7.6,12.21-17.99,21.53-30.76,28.17
              c-0.42,0.22-0.91,0.32-1.37,0.47C152.85,172.21,152.66,172.06,152.48,171.91z"
            />
          </g>
        </svg>
