<?xml version="1.0" encoding="utf-8"?>
<!-- Generator: Adobe Illustrator 23.0.4, SVG Export Plug-In . SVG Version: 6.00 Build 0)  -->
<svg version="1.1" id="Слой_1" xmlns="http://www.w3.org/2000/svg" xmlns:xlink="http://www.w3.org/1999/xlink" x="0px" y="0px"
	 viewBox="0 0 103.72 106.95" style="enable-background:new 0 0 103.72 106.95;" xml:space="preserve">
<style type="text/css">
	.st0{fill:none;}
	.st1{fill:#FFFFFF;}
	.st2{fill:#F08690;}
	.st3{fill:#FF0303;}
	.st4{fill:#441F0B;}
</style>
<ellipse class="st0" cx="34.35" cy="34.73" rx="3.55" ry="4.72"/>
<path class="st0" d="M40.55,49.29c0-4.22,4.81-7.64,10.73-7.64s10.73,3.42,10.73,7.64"/>
<line class="st0" x1="37.91" y1="46.87" x2="65.29" y2="46.87"/>
<polygon class="st1" points="14.66,79.73 8.48,70.42 9.03,60.75 14.66,61.06 25.8,68.28 37.74,71.1 33.31,78.75 28.26,81.07 
	16.19,80.77 "/>
<polygon class="st1" points="79.95,14.82 79.67,5.19 84.08,3.69 90.53,4.35 97.64,7.05 98.74,11.57 101.22,16.8 99.9,23.2 
	97.2,25.95 "/>
<path class="st2" d="M103.72,26.48c0-3.32-2.19-5.33-2.53-5.63c0.34-0.49,1.68-2.58,1.31-5.44c-0.39-3-2.38-4.71-2.82-5.07
	c1.06-3.16,0.27-6.56-1.97-8.54c-2.92-2.59-7.92-2.43-11.17,0.84C85.87,2.35,83.7,1.5,81,2.17c-2.63,0.65-4.13,2.34-4.6,2.91
	c-0.56-0.33-3.15-1.73-6.38-0.94c-2.51,0.62-4,2.22-4.5,2.82c-0.56-0.45-2.69-2.04-5.82-1.97c-3.06,0.07-5.08,1.68-5.63,2.16
	c-0.74-0.54-3-2.04-6.19-1.97c-2.33,0.05-4.06,0.92-4.88,1.41C42.47,6,40.56,4.06,37.46,3.67c-2.12-0.27-3.8,0.32-4.6,0.66
	c-0.57-0.57-2.37-2.21-5.26-2.63c-2.78-0.4-4.9,0.57-5.63,0.94c-0.34-0.24-4.03-2.72-8.45-1.13c-4.49,1.62-5.72,6-5.82,6.38
	c-3.5,0.09-6.49,2.29-7.41,5.35c-1.08,3.56,1.18,6.55,1.41,6.85c-1.55,2.58-1.69,5.04-1.69,6.1s0.14,3.52,1.69,6.1
	c-0.46,0.97-1.22,2.91-1.13,5.44c0.12,3.1,1.45,5.3,2.06,6.19c-0.28,0.43-1.45,2.3-1.03,4.79c0.48,2.91,2.74,4.38,3.1,4.6
	c-0.29,0.31-2.32,2.6-1.88,5.91c0.41,3.06,2.62,4.7,3,4.97c-0.22,0.95-0.73,3.7,0.56,6.76c1.05,2.48,2.75,3.9,3.57,4.5
	c0.01,0.29,0.25,4.53,4.04,6.76c3.85,2.27,7.75,0.31,7.98,0.19c0.31,0.24,3.33,2.51,7.04,1.41c2.73-0.81,4.09-2.93,4.41-3.47h0.47
	c1.38-0.67,3.02-0.55,4.27,0.32c1.85,1.28,1.82,3.47,1.81,3.62c-0.22,0.71-0.44,1.43-0.66,2.14c-0.22,0.56-1.52,4.09,0.36,7.78
	c1.56,3.07,4.3,4.25,5.01,4.53l1.5,8.07c1.3-0.01,2.43-0.01,3.48-0.01c2.31,0,2.58,0.32,3.01,0.01c0.68-0.49-0.1-4.84,0.68-7.51
	c1.04-3.57,4.71-3.44,5.13-6.82c0.21-1.67-0.68-1.76-0.62-4.16c0.08-3,1.48-3.46,1.27-5.7c-0.22-2.37-1.83-2.35-2.35-5
	c-0.54-2.79,1.16-3.28,0.47-5.82c-0.81-3-3.86-4.76-4.74-4.88c-0.03,0-0.06-0.01-0.11-0.03c-0.71-0.28,0.17-2.39-0.6-4.06
	c-0.64-1.39-1.99-1.5-1.91-1.98c0.21-1.18,8.46-0.58,9.42-0.51c5.87,0.44,8.85,0.7,11.07,2.53c0.66,0.54,3.08,2.68,3.66,6.01
	c0.61,3.47-1.58,4.56-0.75,7.6c1.08,3.94,4.9,5.93,5.68,6.34c1.01,0.53,6.03,2.96,9.06,0.8c2.34-1.67,0.92-4.26,3.94-7.79
	c1.84-2.15,3.14-2.08,4.04-3.94c1.14-2.35,0.34-5.07-0.47-6.95c0.41-0.21,2.72-1.43,3.57-4.22c0.95-3.14-0.71-5.68-0.94-6.01
	c0.37-0.25,3.2-2.19,3.57-5.91c0.35-3.63-1.93-6.05-2.25-6.38c0.33-0.16,2.81-1.42,3.47-4.32c0.78-3.38-1.63-5.86-1.78-6.01
	C101.52,31.81,103.72,29.79,103.72,26.48z M22.6,78.54c-0.25,0.83-1.08,1.44-2.04,1.48c-0.91-0.17-4.92-1-7.74-4.79
	c-3.05-4.08-2.45-8.54-2.32-9.36c0.12-0.76,0.67-1.36,1.34-1.48c0.85-0.16,1.78,0.47,1.97,1.48c0.12,1.13,0.57,3.74,2.53,6.26
	c1.72,2.21,3.75,3.27,4.79,3.73C22.3,76.28,22.92,77.51,22.6,78.54z M20.7,50.76c0.4-0.69,1.47-2.74,1.19-5.47
	c-0.34-3.22-2.32-5.18-2.85-5.67c0.47-0.54,1.89-2.33,2.02-5.03c0.15-3.19-1.62-5.35-2.02-5.83c-0.46-2.27,0.38-4.56,2.14-5.83
	c2-1.45,4.29-0.92,4.64-0.83c0.48,0.58,2.33,2.71,5.59,3.33c3.14,0.59,5.79-0.77,6.5-1.1c4.43-2.07,7.16-1.61,9.65-1.33
	c2.93,0.33,3.16,1.21,6.32,1.42c2.74,0.18,3.65-0.45,6.2-0.67c5.38-0.48,10.71,2.07,10.58,2.94c-0.17,1.14-9.8-0.08-32.75,0.06
	c-3.31,0.02-6.05,0.07-7.93,0.1c-0.16-0.05-2.73-0.74-4.76,1.07c-2.11,1.88-1.6,4.64-1.58,4.76c-0.25,0.53-0.55,1.36-0.57,2.38
	c-0.04,2.51,1.65,4.2,2.02,4.55c-0.47,0.45-1.8,1.85-2.14,4.09c-0.45,3.02,1.25,5.22,1.54,5.59c0,1.39,0,2.79,0,4.18
	c0.07-1.39-0.69-2.59-1.78-2.95C21.77,50.21,20.91,50.65,20.7,50.76z M31.54,77.56c-0.55,0.51-1.5,1.28-2.89,1.83
	c-1.32,0.52-2.5,0.63-3.24,0.63c-0.96-0.2-1.66-0.95-1.76-1.83c-0.11-1,0.62-1.68,0.7-1.76c0.49,0.03,1.53,0.04,2.67-0.49
	c1.09-0.5,1.74-1.23,2.04-1.62c0.98-0.77,2.39-0.53,3.03,0.42C32.69,75.62,32.47,76.89,31.54,77.56z M32.28,63.71
	c-0.89,0.71-2.2,0.77-3.25,0.13c-0.77-0.43-1.56-0.86-2.37-1.29c-0.73-0.38-1.44-0.75-2.15-1.1c-0.1-0.08-1.38-1.05-1.31-2.7
	c0.07-1.48,1.16-2.31,1.31-2.41c1.23,0.31,2.88,0.85,4.66,1.87c1.88,1.07,3.24,2.29,4.14,3.24C33.31,61.62,33.31,62.9,32.28,63.71z
	 M82.98,42.48c-0.45,2.66,0.6,4.71,0.94,5.32c-0.55,0.45-2.17,1.86-2.82,4.35c-0.68,2.61,0.14,4.72,0.41,5.36
	c0,0.26-0.02,1.78-1.25,2.91c-0.98,0.91-2.11,1.02-2.45,1.04c-1.15-1.22-2.76-2.68-4.88-4.04c-1.87-1.2-3.63-2-5.08-2.54
	c-11.52-0.25-23.05-0.5-34.57-0.75c-1.07-0.02-1.72-0.89-1.6-1.51c0.1-0.52,0.77-1,1.6-0.93h39.65c3.35-0.58,5.9-3.19,6.29-6.3
	c0.47-3.67-2.18-7.37-6.2-8.17c-12.68-0.35-25.37-0.69-38.05-1.04c-1.14,0.03-1.89-0.65-1.88-1.13c0.01-0.47,0.78-1.08,1.88-1.03
	c13,0.24,25.99,0.47,38.99,0.71c0.53-0.19,3.61-1.36,5.08-4.75c1.34-3.09,0.4-5.88,0.18-6.48c-0.38-0.86-0.29-1.71,0.1-1.98
	c0.45-0.31,1.54,0,2.19,1.13c0.37,0.8,0.77,1.61,1.19,2.44c0.5,0.99,1,1.93,1.5,2.82c-0.4,0.67-1.53,2.69-1.31,5.45
	c0.21,2.69,1.56,4.47,2.07,5.08C84.45,38.99,83.34,40.37,82.98,42.48z M89.68,8.15c-0.15,1-0.86,1.84-1.83,2.18
	c-0.36-0.27-0.98-0.66-1.83-0.84c-1.47-0.33-2.67,0.16-3.1,0.35c-0.93-0.38-1.5-1.31-1.41-2.25c0.08-0.81,0.62-1.52,1.41-1.83
	c0.64-0.25,1.72-0.59,3.1-0.56c1.23,0.02,2.21,0.32,2.82,0.56C88.93,5.84,89.89,6.78,89.68,8.15z M99.12,22.86
	c-0.41,1.1-1.5,1.66-2.39,1.41c-0.95-0.27-1.25-1.35-1.27-1.41c0.22-0.87,0.77-3.47-0.42-6.41c-1.06-2.61-2.9-4.04-3.66-4.58
	c-0.41-1.11-0.12-2.34,0.7-3.1c1.04-0.95,2.41-0.66,2.53-0.63c1.03,0.73,2.92,2.28,4.15,4.93C100.87,17.61,99.46,21.89,99.12,22.86z
	"/>
<path class="st3" d="M62.02,45.48c0,6.33-4.81,11.46-10.73,11.46S40.55,51.8,40.55,45.48"/>
<ellipse class="st4" cx="68.85" cy="34.9" rx="3.55" ry="4.72"/>
<ellipse class="st4" cx="34.35" cy="34.9" rx="3.55" ry="4.72"/>
</svg>
