<?xml version="1.0" encoding="utf-8"?>
<!-- Generator: Adobe Illustrator 21.1.0, SVG Export Plug-In . SVG Version: 6.00 Build 0)  -->
<svg version="1.1" id="Layer_1" xmlns="http://www.w3.org/2000/svg" xmlns:xlink="http://www.w3.org/1999/xlink" x="0px" y="0px"
	 viewBox="0 0 178.9 81.7" style="enable-background:new 0 0 178.9 81.7;" xml:space="preserve">
<style type="text/css">
	.st0{fill:#FFFFFF;}
</style>
<g>
	<g>
		<circle class="st0" cx="89.4" cy="42.8" r="1.8"/>
	</g>
	<g>
		<circle class="st0" cx="99.1" cy="42.8" r="1.8"/>
	</g>
	<g>
		<circle class="st0" cx="79.6" cy="42.8" r="1.8"/>
	</g>
	<g>
		<circle class="st0" cx="69.9" cy="42.8" r="1.8"/>
	</g>
	<g>
		<circle class="st0" cx="60.2" cy="42.8" r="1.8"/>
	</g>
	<g>
		<circle class="st0" cx="50.4" cy="42.8" r="1.8"/>
	</g>
	<g>
		<circle class="st0" cx="40.7" cy="42.8" r="1.8"/>
	</g>
	<g>
		<circle class="st0" cx="31" cy="42.8" r="1.8"/>
	</g>
	<g>
		<circle class="st0" cx="21.3" cy="42.8" r="1.8"/>
	</g>
	<g>
		<circle class="st0" cx="11.5" cy="42.8" r="1.8"/>
	</g>
	<g>
		<g>
			<circle class="st0" cx="1.8" cy="42.8" r="1.8"/>
		</g>
	</g>
	<g>
		<g>
			<path class="st0" d="M11.6,0.5l6.2,31.8h-5.4l-1-5.4H6.3l-0.9,5.4H0.3l6-31.8C6.3,0.5,11.6,0.5,11.6,0.5z M9.4,13.5L8.8,8.7H8.7
				l-0.5,4.8L7.1,22h3.6L9.4,13.5z"/>
			<path class="st0" d="M24.3,0.5v14.2h0.1l4.2-14.2h5.2L29,15.2l5.4,17.1H29l-4.7-16.2h-0.1v16.2h-5.1V0.5H24.3z"/>
			<path class="st0" d="M47.8,0.5v5.9h-4v25.9h-5.1V6.4h-4V0.5H47.8z"/>
			<path class="st0" d="M54.6,0.5v12.9l-0.5,6.2h0.2l5.5-19.1h5.1v31.8h-5.1V18.2l0.5-5h-0.2l-5.5,19.1h-5.1V0.5H54.6z"/>
			<path class="st0" d="M67.7,32.3V0.5h5c2,0,3.7,0.1,5.3,1.7c1.7,1.7,2.6,4.5,2.6,7.2c0,2.8-0.9,5-2.8,6.6c2.1,1.3,3.2,4.6,3.2,7.4
				c0,6.3-3.8,8.9-8.4,8.9H67.7z M72.8,5.8v7.8c1.9,0,3-1.6,3-4C75.9,7.2,74.8,5.7,72.8,5.8z M72.8,18.5v8.6
				c2.1,0.1,3.3-1.7,3.3-4.4C76.1,20.2,74.8,18.4,72.8,18.5z"/>
			<path class="st0" d="M102.7,29.6v2.7h-4.8v-2.7c-3.7-0.2-7.8-3.6-7.8-13.5c0-10,4.1-13.4,7.8-13.5v-2h4.8v2
				c3.7,0.2,7.8,3.5,7.8,13.5C110.5,26,106.4,29.4,102.7,29.6z M97.9,7.9c-1.8,0.5-2.8,4.6-2.8,8.2c0,4.1,1,7.7,2.8,8.2V7.9z
				 M102.7,7.9v16.4c1.8-0.5,2.8-4.1,2.8-8.2C105.5,12.4,104.5,8.4,102.7,7.9z"/>
			<path class="st0" d="M127.2,32.3h-5.1V6.4h-3.5v13.7c0,7.7-2,12.2-7.5,12.2h-0.6v-5.9h0.1c2.5,0,3-2.1,3-5.9v-20h13.7L127.2,32.3
				L127.2,32.3z"/>
			<path class="st0" d="M147.4,16.4c0,11.9-4.5,16.4-9.1,16.4s-9.1-4.5-9.1-16.4S133.7,0,138.3,0C142.8,0,147.4,4.5,147.4,16.4z
				 M138.3,27c3.4,0,3.6-8.1,3.6-10.6c0-2.8-0.2-10.6-3.6-10.6c-3.4,0-3.6,7.8-3.6,10.6C134.7,19,134.9,27,138.3,27z"/>
			<path class="st0" d="M149.3,32.3V0.5h5.3c1.1,0,8.8-0.8,8.8,9.4c0,5.9-3.1,9.7-7.8,9.4l-1.1-0.1v13.1H149.3z M154.4,14.1
				c2.5,0.1,3.9-1,3.9-4.3c0-2.3-0.7-4.1-2.9-4.1h-1V14.1z"/>
			<path class="st0" d="M172.7,0.5l6.2,31.8h-5.4l-1-5.4h-5.2l-0.9,5.4h-5.1l6-31.8C167.3,0.5,172.7,0.5,172.7,0.5z M170.5,13.5
				l-0.6-4.8h-0.1l-0.5,4.8l-1.1,8.5h3.6L170.5,13.5z"/>
		</g>
	</g>
	<path class="st0" d="M122.1,73.7c-0.5,0.4-0.9,0.8-1.3,1.2c-1.7,1.5-3.5,2.7-5.6,3.5c-1,0.4-2.1,0.6-3.2,0.6c-2.2,0-3.6-1.2-4-3.4
		c-0.3-1.8-0.2-3.6,0.5-5.3c1.2-2.9,2.9-5.5,5.5-7.4c0.9-0.6,1.8-0.9,2.9-1.1c1.3-0.2,2.3,1.1,2,2.4c-0.2,0.6-0.4,1.3-0.8,1.8
		c-1.8,2.5-4.1,4.5-7,5.9c-0.3,0.1-0.4,0.3-0.5,0.6c-0.3,1.1-0.5,2.3-0.2,3.4c0.2,1.1,1,1.7,2,1.7c1,0.1,1.9-0.1,2.8-0.5
		c2.8-1.1,5-2.9,7-5.1c0.2-0.2,0.3-0.4,0.3-0.6c1.6-5.5,4.4-10.4,8.1-14.7c1-1.2,2.1-2.3,3.2-3.4c2-1.9,4.5-3.1,7.2-3.8
		c1.4-0.4,2.8-0.7,4.3-1c1.3-0.3,2.5-0.8,3.7-1.4c0.3-0.2,0.6-0.3,0.9-0.4c0.4-0.1,0.5,0,0.5,0.4c0,1.2-0.2,2.3-1.3,3
		s-2.2,1.2-3.4,1.6c-1.9,0.5-3.8,0.8-5.8,0.9c-3.3,0.2-5.7,1.8-7.7,4.2c-1.9,2.3-3.2,4.9-4.7,7.5c-0.8,1.5-1.5,3-2,4.6
		c0,0.1-0.1,0.3,0,0.5c0.1-0.1,0.2-0.3,0.3-0.4c1.4-2.4,3.1-4.7,5.2-6.6c0.8-0.7,1.6-1.4,2.6-1.8c0.3-0.1,0.7-0.2,1.1-0.3
		c1.4-0.2,2.3,0.4,2.4,1.8c0.2,1.9-0.1,3.7-0.7,5.6c-1.1,3.5-2.6,6.8-5.1,9.6c-1.3,1.5-2.8,2.8-4.7,3.7c-1.6,0.7-3.2,0.9-4.9,0.6
		c-0.3-0.1-0.6-0.2-0.9-0.4c-0.1-0.1-0.2-0.4-0.2-0.6c0-0.1,0.3-0.2,0.5-0.2s0.4,0.1,0.6,0.1c1.6,0.5,3,0.2,4.4-0.6
		c1.2-0.6,2.1-1.5,3-2.5c2.3-2.8,3.9-5.9,4.6-9.5c0.3-1.4,0.4-2.8,0.2-4.1c-0.2-1.2-0.7-1.7-2.1-1c-0.9,0.5-1.6,1.2-2.2,2
		c-2.4,3.1-4.5,6.4-5.7,10.2c-0.2,0.6-0.3,1.2-0.4,1.8s0.1,1.2,0.6,1.6c0.1,0,0.1,0.1,0.2,0.2c0.1,0.1,0.1,0.3,0.2,0.4
		c-0.1,0-0.3,0.1-0.4,0.1c-1.1-0.1-1.8-0.7-2.1-1.8c-0.3-1-0.2-2-0.1-3C122.1,74.2,122.1,74,122.1,73.7z M111.3,70.7
		C111.3,70.7,111.4,70.7,111.3,70.7c0.2,0,0.2,0,0.3,0c2.1-1.1,3.8-2.6,5-4.6c0.3-0.4,0.4-1,0.5-1.5c0.1-0.8-0.6-1.2-1.3-0.8
		c-0.4,0.2-0.7,0.5-1,0.8c-1.3,1.5-2.3,3.2-3.1,5C111.6,69.9,111.5,70.3,111.3,70.7z M94.9,69.4c0.1-0.2,0.2-0.4,0.4-0.6
		c1.5-2.4,3.1-4.6,5.2-6.6c0.8-0.7,1.6-1.3,2.6-1.7c0.3-0.1,0.6-0.2,0.9-0.3c1.5-0.3,2.4,0.4,2.5,2c0.2,2-0.2,4-0.8,5.9
		c-1.3,4-3.2,7.6-6.2,10.5c-1.4,1.3-2.9,2.4-4.8,2.9c-1.2,0.3-2.3,0.3-3.5,0.1c-0.3-0.1-0.6-0.2-0.9-0.4c-0.1-0.1-0.1-0.4-0.2-0.6
		c0.2-0.1,0.4-0.2,0.5-0.2c0.2,0,0.4,0.1,0.6,0.1c1.6,0.6,3.1,0.2,4.5-0.6c1.4-0.8,2.6-2,3.5-3.3c2.1-2.8,3.6-5.9,4.1-9.3
		c0.2-1.3,0.4-2.6,0-3.9c-0.2-0.9-0.7-1.2-1.6-0.8c-0.7,0.4-1.4,0.8-1.9,1.4c-2.1,2.2-3.5,4.8-4.9,7.4c-0.7,1.3-1.3,2.6-1.6,4.1
		c-0.1,0.4-0.2,0.8-0.2,1.2c-0.1,0.7,0.1,1.2,0.7,1.7c0.1,0,0.1,0.1,0.2,0.2c0.1,0.1,0.2,0.3,0.1,0.4c0,0.1-0.3,0.1-0.4,0.1
		c-1.1,0-1.8-0.6-2.1-1.8c-0.3-1.3-0.3-2.5,0-3.8c0.7-4.1,2.4-7.7,4.5-11.2c1.6-2.7,3.5-5.2,5.6-7.5c2.7-3,6.2-4.8,10.1-5.7
		c1-0.2,1.9-0.4,2.9-0.6c1.4-0.3,2.7-0.8,3.9-1.5c0.3-0.2,0.6-0.3,0.9-0.4c0.3-0.1,0.5,0.1,0.5,0.4c-0.1,1.1-0.2,2.2-1.2,2.9
		c-1.5,1.1-3.2,1.7-5,2c-1.7,0.3-3.5,0.4-5.3,0.6c-1.6,0.2-3.1,0.9-4.4,1.8c-1.4,1-2.5,2.3-3.4,3.7c-1.8,2.7-3.4,5.4-4.7,8.3
		c-0.4,0.9-0.7,1.9-1.1,2.8C94.8,69.4,94.9,69.4,94.9,69.4z M142.2,80.1c-1.7,0-2.9-0.7-3.3-2c-0.2-0.7-0.4-1.5-0.3-2.3
		c0.4-3.6,1.8-7,3.8-10c0.5-0.7,1-0.8,1.7-0.4c0.8,0.5,1,1.3,0.7,2c-0.4,0.7-0.9,1.4-1.3,2.1c-0.8,1.6-1.6,3.2-2,4.9
		c-0.2,0.9-0.3,1.8-0.1,2.7c0.2,1.1,0.8,1.6,1.9,1.5c0.7-0.1,1.3-0.3,1.9-0.6c1-0.5,1.9-1.2,2.7-2c1.6-1.5,2.9-3.3,4.3-5
		c0.1-0.1,0.2-0.3,0.3-0.4c0.2-0.2,0.4-0.1,0.4,0.1c0,0.3,0,0.7-0.2,1c-1.8,2.5-3.8,4.9-6.4,6.8c-1,0.7-2.1,1.3-3.4,1.5
		C142.7,80.1,142.5,80.1,142.2,80.1z M142.9,59.4c0-1.4,1.7-2.5,3-1.8c0.6,0.3,0.9,1.1,0.6,1.8c-0.3,1.1-1.5,1.8-2.7,1.5
		C143.2,60.7,142.9,60.3,142.9,59.4z"/>
</g>
</svg>
