<?xml version="1.0" encoding="utf-8"?>
<!-- Generator: Adobe Illustrator 21.1.0, SVG Export Plug-In . SVG Version: 6.00 Build 0)  -->
<svg version="1.1" id="Layer_1" xmlns="http://www.w3.org/2000/svg" xmlns:xlink="http://www.w3.org/1999/xlink" x="0px" y="0px"
	 viewBox="0 0 180 99" style="enable-background:new 0 0 180 99;" xml:space="preserve">
<style type="text/css">
	.st0{fill:#71B044;}
	.st1{fill:#439F47;}
	.st2{fill:#B9D432;}
	.st3{fill:#F3E900;}
	.st4{fill:#FDD204;}
	.st5{fill:#F8B018;}
	.st6{fill:#F58620;}
	.st7{fill:#EE6124;}
	.st8{fill:#EB1166;}
	.st9{fill:#953B85;}
	.st10{fill:#164884;}
	.st11{fill:#005192;}
	.st12{fill:#E92429;}
</style>
<g>
	<g>
		<circle class="st0" cx="89.8" cy="51.4" r="1.8"/>
	</g>
	<g>
		<circle class="st1" cx="99.5" cy="51.4" r="1.8"/>
	</g>
	<g>
		<circle class="st2" cx="80" cy="51.4" r="1.8"/>
	</g>
	<g>
		<circle class="st3" cx="70.3" cy="51.4" r="1.8"/>
	</g>
	<g>
		<circle class="st4" cx="60.6" cy="51.4" r="1.8"/>
	</g>
	<g>
		<circle class="st5" cx="50.8" cy="51.4" r="1.8"/>
	</g>
	<g>
		<circle class="st6" cx="41.1" cy="51.4" r="1.8"/>
	</g>
	<g>
		<circle class="st7" cx="31.4" cy="51.4" r="1.8"/>
	</g>
	<g>
		<circle class="st8" cx="21.7" cy="51.4" r="1.8"/>
	</g>
	<g>
		<circle class="st9" cx="11.9" cy="51.4" r="1.8"/>
	</g>
	<g>
		<g>
			<circle class="st10" cx="2.2" cy="51.4" r="1.8"/>
		</g>
	</g>
	<g>
		<g>
			<path class="st11" d="M12,9.1l6.2,31.8h-5.4l-1-5.4H6.7l-0.9,5.4H0.7l6-31.8H12z M9.8,22.1l-0.6-4.8H9.1l-0.5,4.8l-1.1,8.5h3.6
				L9.8,22.1z"/>
			<path class="st11" d="M24.7,9.1v14.2h0.1L29,9.1h5.2l-4.8,14.7l5.4,17.1h-5.4l-4.7-16.2h-0.1v16.2h-5.1V9.1H24.7z"/>
			<path class="st11" d="M48.2,9.1V15h-4v25.9h-5.1V15h-4V9.1H48.2z"/>
			<path class="st11" d="M55,9.1V22l-0.5,6.2h0.2l5.5-19.1h5.1v31.8h-5.1V26.8l0.5-5h-0.2L55,40.9h-5.1V9.1H55z"/>
			<path class="st11" d="M68.1,40.9V9.1h5c2,0,3.7,0.1,5.3,1.7c1.7,1.7,2.6,4.5,2.6,7.2c0,2.8-0.9,5-2.8,6.6
				c2.1,1.3,3.2,4.6,3.2,7.4c0,6.3-3.8,8.9-8.4,8.9H68.1z M73.2,14.4v7.8c1.9,0,3-1.6,3-4C76.3,15.8,75.2,14.3,73.2,14.4z
				 M73.2,27.1v8.6c2.1,0.1,3.3-1.7,3.3-4.4C76.5,28.8,75.2,27,73.2,27.1z"/>
			<path class="st11" d="M103.1,38.2v2.7h-4.8v-2.7c-3.7-0.2-7.8-3.6-7.8-13.5c0-10,4.1-13.4,7.8-13.5v-2h4.8v2
				c3.7,0.2,7.8,3.5,7.8,13.5C110.9,34.6,106.8,38,103.1,38.2z M98.3,16.5c-1.8,0.5-2.8,4.6-2.8,8.2c0,4.1,1,7.7,2.8,8.2V16.5z
				 M103.1,16.5v16.4c1.8-0.5,2.8-4.1,2.8-8.2C105.9,21,104.9,17,103.1,16.5z"/>
			<path class="st11" d="M127.6,40.9h-5.1V15H119v13.7c0,7.7-2,12.2-7.5,12.2h-0.6V35h0.1c2.5,0,3-2.1,3-5.9v-20h13.7V40.9z"/>
			<path class="st11" d="M147.8,25c0,11.9-4.5,16.4-9.1,16.4c-4.6,0-9.1-4.5-9.1-16.4c0-11.9,4.5-16.4,9.1-16.4
				C143.2,8.6,147.8,13.1,147.8,25z M138.7,35.6c3.4,0,3.6-8.1,3.6-10.6c0-2.8-0.2-10.6-3.6-10.6c-3.4,0-3.6,7.8-3.6,10.6
				C135.1,27.6,135.3,35.6,138.7,35.6z"/>
			<path class="st11" d="M149.7,40.9V9.1h5.3c1.1,0,8.8-0.8,8.8,9.4c0,5.9-3.1,9.7-7.8,9.4l-1.1-0.1v13.1H149.7z M154.8,22.7
				c2.5,0.1,3.9-1,3.9-4.3c0-2.3-0.7-4.1-2.9-4.1h-1V22.7z"/>
			<path class="st11" d="M173.1,9.1l6.2,31.8h-5.4l-1-5.4h-5.2l-0.9,5.4h-5.1l6-31.8H173.1z M170.9,22.1l-0.6-4.8h-0.1l-0.5,4.8
				l-1.1,8.5h3.6L170.9,22.1z"/>
		</g>
	</g>
	<path class="st12" d="M122.5,82.3c-0.5,0.4-0.9,0.8-1.3,1.2c-1.7,1.5-3.5,2.7-5.6,3.5c-1,0.4-2.1,0.6-3.2,0.6c-2.2,0-3.6-1.2-4-3.4
		c-0.3-1.8-0.2-3.6,0.5-5.3c1.2-2.9,2.9-5.5,5.5-7.4c0.9-0.6,1.8-0.9,2.9-1.1c1.3-0.2,2.3,1.1,2,2.4c-0.2,0.6-0.4,1.3-0.8,1.8
		c-1.8,2.5-4.1,4.5-7,5.9c-0.3,0.1-0.4,0.3-0.5,0.6c-0.3,1.1-0.5,2.3-0.2,3.4c0.2,1.1,1,1.7,2,1.7c1,0.1,1.9-0.1,2.8-0.5
		c2.8-1.1,5-2.9,7-5.1c0.2-0.2,0.3-0.4,0.3-0.6c1.6-5.5,4.4-10.4,8.1-14.7c1-1.2,2.1-2.3,3.2-3.4c2-1.9,4.5-3.1,7.2-3.8
		c1.4-0.4,2.8-0.7,4.3-1c1.3-0.3,2.5-0.8,3.7-1.4c0.3-0.2,0.6-0.3,0.9-0.4c0.4-0.1,0.5,0,0.5,0.4c0,1.2-0.2,2.3-1.3,3
		c-1.1,0.7-2.2,1.2-3.4,1.6c-1.9,0.5-3.8,0.8-5.8,0.9c-3.3,0.2-5.7,1.8-7.7,4.2c-1.9,2.3-3.2,4.9-4.7,7.5c-0.8,1.5-1.5,3-2,4.6
		c0,0.1-0.1,0.3,0,0.5c0.1-0.1,0.2-0.3,0.3-0.4c1.4-2.4,3.1-4.7,5.2-6.6c0.8-0.7,1.6-1.4,2.6-1.8c0.3-0.1,0.7-0.2,1.1-0.3
		c1.4-0.2,2.3,0.4,2.4,1.8c0.2,1.9-0.1,3.7-0.7,5.6c-1.1,3.5-2.6,6.8-5.1,9.6c-1.3,1.5-2.8,2.8-4.7,3.7c-1.6,0.7-3.2,0.9-4.9,0.6
		c-0.3-0.1-0.6-0.2-0.9-0.4c-0.1-0.1-0.2-0.4-0.2-0.6c0-0.1,0.3-0.2,0.5-0.2c0.2,0,0.4,0.1,0.6,0.1c1.6,0.5,3,0.2,4.4-0.6
		c1.2-0.6,2.1-1.5,3-2.5c2.3-2.8,3.9-5.9,4.6-9.5c0.3-1.4,0.4-2.8,0.2-4.1c-0.2-1.2-0.7-1.7-2.1-1c-0.9,0.5-1.6,1.2-2.2,2
		c-2.4,3.1-4.5,6.4-5.7,10.2c-0.2,0.6-0.3,1.2-0.4,1.8c-0.1,0.6,0.1,1.2,0.6,1.6c0.1,0,0.1,0.1,0.2,0.2c0.1,0.1,0.1,0.3,0.2,0.4
		c-0.1,0-0.3,0.1-0.4,0.1c-1.1-0.1-1.8-0.7-2.1-1.8c-0.3-1-0.2-2-0.1-3C122.5,82.8,122.5,82.6,122.5,82.3z M111.7,79.3
		C111.7,79.3,111.8,79.3,111.7,79.3c0.2,0,0.2,0,0.3,0c2.1-1.1,3.8-2.6,5-4.6c0.3-0.4,0.4-1,0.5-1.5c0.1-0.8-0.6-1.2-1.3-0.8
		c-0.4,0.2-0.7,0.5-1,0.8c-1.3,1.5-2.3,3.2-3.1,5C112,78.5,111.9,78.9,111.7,79.3z M95.3,78c0.1-0.2,0.2-0.4,0.4-0.6
		c1.5-2.4,3.1-4.6,5.2-6.6c0.8-0.7,1.6-1.3,2.6-1.7c0.3-0.1,0.6-0.2,0.9-0.3c1.5-0.3,2.4,0.4,2.5,2c0.2,2-0.2,4-0.8,5.9
		c-1.3,4-3.2,7.6-6.2,10.5c-1.4,1.3-2.9,2.4-4.8,2.9c-1.2,0.3-2.3,0.3-3.5,0.1c-0.3-0.1-0.6-0.2-0.9-0.4c-0.1-0.1-0.1-0.4-0.2-0.6
		c0.2-0.1,0.4-0.2,0.5-0.2c0.2,0,0.4,0.1,0.6,0.1c1.6,0.6,3.1,0.2,4.5-0.6c1.4-0.8,2.6-2,3.5-3.3c2.1-2.8,3.6-5.9,4.1-9.3
		c0.2-1.3,0.4-2.6,0-3.9c-0.2-0.9-0.7-1.2-1.6-0.8c-0.7,0.4-1.4,0.8-1.9,1.4c-2.1,2.2-3.5,4.8-4.9,7.4c-0.7,1.3-1.3,2.6-1.6,4.1
		c-0.1,0.4-0.2,0.8-0.2,1.2c-0.1,0.7,0.1,1.2,0.7,1.7c0.1,0,0.1,0.1,0.2,0.2c0.1,0.1,0.2,0.3,0.1,0.4c0,0.1-0.3,0.1-0.4,0.1
		c-1.1,0-1.8-0.6-2.1-1.8c-0.3-1.3-0.3-2.5,0-3.8c0.7-4.1,2.4-7.7,4.5-11.2c1.6-2.7,3.5-5.2,5.6-7.5c2.7-3,6.2-4.8,10.1-5.7
		c1-0.2,1.9-0.4,2.9-0.6c1.4-0.3,2.7-0.8,3.9-1.5c0.3-0.2,0.6-0.3,0.9-0.4c0.3-0.1,0.5,0.1,0.5,0.4c-0.1,1.1-0.2,2.2-1.2,2.9
		c-1.5,1.1-3.2,1.7-5,2c-1.7,0.3-3.5,0.4-5.3,0.6c-1.6,0.2-3.1,0.9-4.4,1.8c-1.4,1-2.5,2.3-3.4,3.7c-1.8,2.7-3.4,5.4-4.7,8.3
		c-0.4,0.9-0.7,1.9-1.1,2.8C95.2,78,95.3,78,95.3,78z M142.6,88.7c-1.7,0-2.9-0.7-3.3-2c-0.2-0.7-0.4-1.5-0.3-2.3
		c0.4-3.6,1.8-7,3.8-10c0.5-0.7,1-0.8,1.7-0.4c0.8,0.5,1,1.3,0.7,2c-0.4,0.7-0.9,1.4-1.3,2.1c-0.8,1.6-1.6,3.2-2,4.9
		c-0.2,0.9-0.3,1.8-0.1,2.7c0.2,1.1,0.8,1.6,1.9,1.5c0.7-0.1,1.3-0.3,1.9-0.6c1-0.5,1.9-1.2,2.7-2c1.6-1.5,2.9-3.3,4.3-5
		c0.1-0.1,0.2-0.3,0.3-0.4c0.2-0.2,0.4-0.1,0.4,0.1c0,0.3,0,0.7-0.2,1c-1.8,2.5-3.8,4.9-6.4,6.8c-1,0.7-2.1,1.3-3.4,1.5
		C143.1,88.7,142.9,88.7,142.6,88.7z M143.3,68c0-1.4,1.7-2.5,3-1.8c0.6,0.3,0.9,1.1,0.6,1.8c-0.3,1.1-1.5,1.8-2.7,1.5
		C143.6,69.3,143.3,68.9,143.3,68z"/>
</g>
</svg>
