<?xml version="1.0" encoding="utf-8"?>
<!-- Generator: Adobe Illustrator 21.1.0, SVG Export Plug-In . SVG Version: 6.00 Build 0)  -->
<svg version="1.1" id="Layer_1" xmlns="http://www.w3.org/2000/svg" xmlns:xlink="http://www.w3.org/1999/xlink" x="0px" y="0px"
	 viewBox="0 0 249.6 35.7" style="enable-background:new 0 0 249.6 35.7;" xml:space="preserve">
<style type="text/css">
	.st0{fill:#FFFFFF;}
	.st1{fill:#E92429;}
</style>
<g>
	<g>
		<g>
			<path class="st0" d="M11.3,3.4l6.2,31.8h-5.4l-1-5.4H6l-0.9,5.4H0L6,3.4C6,3.4,11.3,3.4,11.3,3.4z M9.1,16.4l-0.6-4.8H8.4
				l-0.5,4.8l-1.1,8.5h3.6L9.1,16.4z"/>
			<path class="st0" d="M24,3.4v14.2h0.1l4.2-14.2h5.2l-4.8,14.7l5.4,17.1h-5.4L24,19h-0.1v16.2h-5.1V3.4H24z"/>
			<path class="st0" d="M47.5,3.4v5.9h-4v25.9h-5.1V9.3h-4V3.4H47.5z"/>
			<path class="st0" d="M54.3,3.4v12.9l-0.5,6.2H54l5.5-19.1h5.1v31.8h-5.1V21.1l0.5-5h-0.2l-5.5,19.1h-5.1V3.4H54.3z"/>
			<path class="st0" d="M67.4,35.2V3.4h5c2,0,3.7,0.1,5.3,1.7c1.7,1.7,2.6,4.5,2.6,7.2c0,2.8-0.9,5-2.8,6.6c2.1,1.3,3.2,4.6,3.2,7.4
				c0,6.3-3.8,8.9-8.4,8.9H67.4z M72.5,8.7v7.8c1.9,0,3-1.6,3-4C75.6,10.1,74.5,8.6,72.5,8.7z M72.5,21.4V30
				c2.1,0.1,3.3-1.7,3.3-4.4C75.8,23.1,74.5,21.3,72.5,21.4z"/>
			<path class="st0" d="M102.4,32.5v2.7h-4.8v-2.7c-3.7-0.2-7.8-3.6-7.8-13.5c0-10,4.1-13.4,7.8-13.5v-2h4.8v2
				c3.7,0.2,7.8,3.5,7.8,13.5C110.2,28.9,106.1,32.3,102.4,32.5z M97.6,10.8c-1.8,0.5-2.8,4.6-2.8,8.2c0,4.1,1,7.7,2.8,8.2V10.8z
				 M102.4,10.8v16.4c1.8-0.5,2.8-4.1,2.8-8.2C105.2,15.3,104.2,11.3,102.4,10.8z"/>
			<path class="st0" d="M126.9,35.2h-5.1V9.3h-3.5V23c0,7.7-2,12.2-7.5,12.2h-0.6v-5.9h0.1c2.5,0,3-2.1,3-5.9v-20H127L126.9,35.2
				L126.9,35.2z"/>
			<path class="st0" d="M147.1,19.3c0,11.9-4.5,16.4-9.1,16.4s-9.1-4.5-9.1-16.4s4.5-16.4,9.1-16.4C142.5,2.9,147.1,7.4,147.1,19.3z
				 M138,29.9c3.4,0,3.6-8.1,3.6-10.6c0-2.8-0.2-10.6-3.6-10.6c-3.4,0-3.6,7.8-3.6,10.6C134.4,21.9,134.6,29.9,138,29.9z"/>
			<path class="st0" d="M149,35.2V3.4h5.3c1.1,0,8.8-0.8,8.8,9.4c0,5.9-3.1,9.7-7.8,9.4l-1.1-0.1v13.1H149z M154.1,17
				c2.5,0.1,3.9-1,3.9-4.3c0-2.3-0.7-4.1-2.9-4.1h-1V17z"/>
			<path class="st0" d="M172.4,3.4l6.2,31.8h-5.4l-1-5.4H167l-0.9,5.4H161l6-31.8C167,3.4,172.4,3.4,172.4,3.4z M170.2,16.4
				l-0.6-4.8h-0.1l-0.5,4.8l-1.1,8.5h3.6L170.2,16.4z"/>
		</g>
	</g>
	<path class="st1" d="M218.8,27.1c-0.5,0.4-0.9,0.8-1.3,1.2c-1.7,1.5-3.5,2.7-5.6,3.5c-1,0.4-2.1,0.6-3.2,0.6c-2.2,0-3.6-1.2-4-3.4
		c-0.3-1.8-0.2-3.6,0.5-5.3c1.2-2.9,2.9-5.5,5.5-7.4c0.9-0.6,1.8-0.9,2.9-1.1c1.3-0.2,2.3,1.1,2,2.4c-0.2,0.6-0.4,1.3-0.8,1.8
		c-1.8,2.5-4.1,4.5-7,5.9c-0.3,0.1-0.4,0.3-0.5,0.6c-0.3,1.1-0.5,2.3-0.2,3.4c0.2,1.1,1,1.7,2,1.7c1,0.1,1.9-0.1,2.8-0.5
		c2.8-1.1,5-2.9,7-5.1c0.2-0.2,0.3-0.4,0.3-0.6c1.6-5.5,4.4-10.4,8.1-14.7c1-1.2,2.1-2.3,3.2-3.4c2-1.9,4.5-3.1,7.2-3.8
		c1.4-0.4,2.8-0.7,4.3-1c1.3-0.3,2.5-0.8,3.7-1.4c0.3-0.2,0.6-0.3,0.9-0.4c0.4-0.1,0.5,0,0.5,0.4c0,1.2-0.2,2.3-1.3,3
		s-2.2,1.2-3.4,1.6c-1.9,0.5-3.8,0.8-5.8,0.9c-3.3,0.2-5.7,1.8-7.7,4.2c-1.9,2.3-3.2,4.9-4.7,7.5c-0.8,1.5-1.5,3-2,4.6
		c0,0.1-0.1,0.3,0,0.5c0.1-0.1,0.2-0.3,0.3-0.4c1.4-2.4,3.1-4.7,5.2-6.6c0.8-0.7,1.6-1.4,2.6-1.8c0.3-0.1,0.7-0.2,1.1-0.3
		c1.4-0.2,2.3,0.4,2.4,1.8c0.2,1.9-0.1,3.7-0.7,5.6c-1.1,3.5-2.6,6.8-5.1,9.6c-1.3,1.5-2.8,2.8-4.7,3.7c-1.6,0.7-3.2,0.9-4.9,0.6
		c-0.3-0.1-0.6-0.2-0.9-0.4c-0.1-0.1-0.2-0.4-0.2-0.6c0-0.1,0.3-0.2,0.5-0.2s0.4,0.1,0.6,0.1c1.6,0.5,3,0.2,4.4-0.6
		c1.2-0.6,2.1-1.5,3-2.5c2.3-2.8,3.9-5.9,4.6-9.5c0.3-1.4,0.4-2.8,0.2-4.1c-0.2-1.2-0.7-1.7-2.1-1c-0.9,0.5-1.6,1.2-2.2,2
		c-2.4,3.1-4.5,6.4-5.7,10.2c-0.2,0.6-0.3,1.2-0.4,1.8c-0.1,0.6,0.1,1.2,0.6,1.6c0.1,0,0.1,0.1,0.2,0.2c0.1,0.1,0.1,0.3,0.2,0.4
		c-0.1,0-0.3,0.1-0.4,0.1c-1.1-0.1-1.8-0.7-2.1-1.8c-0.3-1-0.2-2-0.1-3C218.8,27.6,218.8,27.4,218.8,27.1z M208,24.1
		C208,24.1,208.1,24.1,208,24.1c0.2,0,0.2,0,0.3,0c2.1-1.1,3.8-2.6,5-4.6c0.3-0.4,0.4-1,0.5-1.5c0.1-0.8-0.6-1.2-1.3-0.8
		c-0.4,0.2-0.7,0.5-1,0.8c-1.3,1.5-2.3,3.2-3.1,5C208.3,23.3,208.2,23.7,208,24.1z M191.6,22.8c0.1-0.2,0.2-0.4,0.4-0.6
		c1.5-2.4,3.1-4.6,5.2-6.6c0.8-0.7,1.6-1.3,2.6-1.7c0.3-0.1,0.6-0.2,0.9-0.3c1.5-0.3,2.4,0.4,2.5,2c0.2,2-0.2,4-0.8,5.9
		c-1.3,4-3.2,7.6-6.2,10.5c-1.4,1.3-2.9,2.4-4.8,2.9c-1.2,0.3-2.3,0.3-3.5,0.1c-0.3-0.1-0.6-0.2-0.9-0.4c-0.1-0.1-0.1-0.4-0.2-0.6
		c0.2-0.1,0.4-0.2,0.5-0.2c0.2,0,0.4,0.1,0.6,0.1c1.6,0.6,3.1,0.2,4.5-0.6c1.4-0.8,2.6-2,3.5-3.3c2.1-2.8,3.6-5.9,4.1-9.3
		c0.2-1.3,0.4-2.6,0-3.9c-0.2-0.9-0.7-1.2-1.6-0.8c-0.7,0.4-1.4,0.8-1.9,1.4c-2.1,2.2-3.5,4.8-4.9,7.4c-0.7,1.3-1.3,2.6-1.6,4.1
		c-0.1,0.4-0.2,0.8-0.2,1.2c-0.1,0.7,0.1,1.2,0.7,1.7c0.1,0,0.1,0.1,0.2,0.2c0.1,0.1,0.2,0.3,0.1,0.4c0,0.1-0.3,0.1-0.4,0.1
		c-1.1,0-1.8-0.6-2.1-1.8c-0.3-1.3-0.3-2.5,0-3.8c0.7-4.1,2.4-7.7,4.5-11.2c1.6-2.7,3.5-5.2,5.6-7.5c2.7-3,6.2-4.8,10.1-5.7
		c1-0.2,1.9-0.4,2.9-0.6c1.4-0.3,2.7-0.8,3.9-1.5c0.3-0.2,0.6-0.3,0.9-0.4c0.3-0.1,0.5,0.1,0.5,0.4c-0.1,1.1-0.2,2.2-1.2,2.9
		c-1.5,1.1-3.2,1.7-5,2c-1.7,0.3-3.5,0.4-5.3,0.6c-1.6,0.2-3.1,0.9-4.4,1.8c-1.4,1-2.5,2.3-3.4,3.7c-1.8,2.7-3.4,5.4-4.7,8.3
		c-0.4,0.9-0.7,1.9-1.1,2.8C191.5,22.8,191.6,22.8,191.6,22.8z M238.9,33.5c-1.7,0-2.9-0.7-3.3-2c-0.2-0.7-0.4-1.5-0.3-2.3
		c0.4-3.6,1.8-7,3.8-10c0.5-0.7,1-0.8,1.7-0.4c0.8,0.5,1,1.3,0.7,2c-0.4,0.7-0.9,1.4-1.3,2.1c-0.8,1.6-1.6,3.2-2,4.9
		c-0.2,0.9-0.3,1.8-0.1,2.7c0.2,1.1,0.8,1.6,1.9,1.5c0.7-0.1,1.3-0.3,1.9-0.6c1-0.5,1.9-1.2,2.7-2c1.6-1.5,2.9-3.3,4.3-5
		c0.1-0.1,0.2-0.3,0.3-0.4c0.2-0.2,0.4-0.1,0.4,0.1c0,0.3,0,0.7-0.2,1c-1.8,2.5-3.8,4.9-6.4,6.8c-1,0.7-2.1,1.3-3.4,1.5
		C239.4,33.5,239.2,33.5,238.9,33.5z M239.6,12.8c0-1.4,1.7-2.5,3-1.8c0.6,0.3,0.9,1.1,0.6,1.8c-0.3,1.1-1.5,1.8-2.7,1.5
		C239.9,14.1,239.6,13.7,239.6,12.8z"/>
</g>
</svg>
