<svg width="848" height="628" viewBox="0 0 848 628" fill="none" xmlns="http://www.w3.org/2000/svg">
<path fill-rule="evenodd" clip-rule="evenodd" d="M940.8 744.6C940.4 743.8 939.6 743.4 938.8 743.4L936.5 720C936.7 720 936.9 719.9 937 719.8C938.1 719.3 938.5 718 938 716.9C937.6 716 936.6 715.6 935.7 715.7L933 705.3C933.1 705.3 933.1 705.2 933.2 705.2C934.3 704.7 934.7 703.4 934.2 702.3C933.7 701.3 932.5 700.8 931.5 701.2L920.7 680.2C921.6 679.6 922 678.4 921.5 677.4C921 676.3 919.7 675.9 918.6 676.4C918.4 676.5 918.2 676.6 918 676.8L890.2 653C890.6 652.4 890.7 651.5 890.4 650.8C889.9 649.7 888.6 649.3 887.5 649.8C886.9 650.1 886.6 650.6 886.4 651.1L852 644.1C852 643.7 852 643.3 851.8 642.9C851.3 641.8 850 641.4 848.9 641.9C848 642.3 847.6 643.3 847.7 644.2L811.2 654.1C811.2 654 811.1 654 811.1 653.9C810.6 652.8 809.3 652.4 808.2 652.9C807.2 653.4 806.8 654.5 807.1 655.4L789.9 662.2C789.4 661.2 788.1 660.7 787 661.2C785.9 661.7 785.5 663 786 664.1C786.1 664.4 786.3 664.6 786.5 664.8L774.8 680.2C774.7 680.2 774.7 680.3 774.6 680.3L752.6 651.6C752.8 651.1 752.7 650.5 752.3 650.1C752 649.8 751.6 649.8 751.3 649.8L738.5 633.1C738.9 632.8 739.1 632.1 738.8 631.6C738.7 631.3 738.5 631.1 738.2 631L744.5 611.5C744.8 611.6 745 611.5 745.3 611.4C745.9 611.1 746.1 610.4 745.9 609.8C745.7 609.4 745.3 609.1 744.8 609.1L743.5 596.1C743.6 596.1 743.7 596 743.8 596C744.4 595.7 744.6 595 744.4 594.4C744.2 593.9 743.6 593.7 743.1 593.7L741.6 587.9C741.6 587.9 741.7 587.9 741.7 587.8C742.3 587.5 742.5 586.8 742.3 586.2C742 585.6 741.4 585.4 740.8 585.6L734.8 573.9C735.3 573.6 735.5 572.9 735.2 572.4C734.9 571.8 734.2 571.6 733.6 571.8C733.5 571.9 733.4 571.9 733.3 572L717.8 558.7C718 558.3 718.1 557.9 717.9 557.5C717.6 556.9 716.9 556.7 716.3 556.9C716 557.1 715.8 557.3 715.7 557.6L696.5 553.7C696.5 553.5 696.5 553.3 696.4 553C696.1 552.4 695.4 552.2 694.8 552.4C694.3 552.6 694.1 553.2 694.1 553.7L673.8 559.2V559.1C673.5 558.5 672.8 558.3 672.2 558.5C671.7 558.8 671.4 559.4 671.6 559.9L662 563.7C661.7 563.1 661 562.9 660.4 563.2C659.8 563.5 659.6 564.2 659.8 564.8L648.6 560.5C648.6 560.1 648.5 559.7 648.2 559.5C647.9 559.2 647.5 559.2 647.2 559.2L629.9 513.7C631.9 512.6 632.8 510.1 631.7 508.1C631.2 507.2 630.5 506.5 629.6 506.1L651.7 437.6C652.6 437.8 653.6 437.7 654.5 437.3C656.6 436.3 657.5 433.7 656.4 431.6C655.7 430.1 654.1 429.2 652.5 429.2L647.9 383.5C648.3 383.4 648.6 383.3 648.9 383.1C651 382.1 651.9 379.5 650.8 377.4C650 375.7 648.1 374.8 646.3 375.1L641 354.8C641.1 354.7 641.3 354.7 641.4 354.6C643.5 353.6 644.4 351 643.3 348.9C642.3 346.9 640 346 637.9 346.8L616.8 305.7C618.6 304.5 619.3 302.2 618.3 300.2C617.3 298.1 614.7 297.2 612.6 298.3C612.2 298.5 611.8 298.8 611.5 299.1L557 253C557.9 251.8 558.1 250.1 557.4 248.6C556.4 246.5 553.8 245.6 551.7 246.7C550.6 247.2 549.8 248.2 549.5 249.3L482.1 235.5C482.2 234.7 482.1 233.9 481.7 233.2C480.7 231.1 478.1 230.2 476 231.3C474.3 232.1 473.4 234 473.7 235.8L402.1 255C402.1 254.9 402 254.8 401.9 254.6C400.9 252.5 398.3 251.6 396.2 252.7C394.3 253.6 393.4 255.7 394 257.7L360.4 271C359.3 268.9 356.8 268.1 354.7 269.1C352.6 270.1 351.7 272.7 352.8 274.8C353 275.3 353.4 275.7 353.8 276.1L330.9 306.2L305.2 269C305.4 268.5 305.3 267.9 304.9 267.6C304.6 267.4 304.3 267.3 304 267.3L294.8 254.1C295.1 253.7 295.1 253.3 294.9 252.9C294.8 252.6 294.6 252.4 294.3 252.3L300.6 232.8C300.9 232.9 301.1 232.8 301.4 232.7C302 232.4 302.2 231.7 302 231.1C301.8 230.7 301.4 230.4 300.9 230.4L299.6 217.4C299.7 217.4 299.8 217.3 299.9 217.3C300.5 217 300.7 216.3 300.5 215.7C300.3 215.2 299.7 215 299.2 215L297.7 209.2C297.7 209.2 297.8 209.2 297.8 209.1C298.4 208.8 298.6 208.1 298.4 207.5C298.1 206.9 297.5 206.7 296.9 206.9L290.9 195.2C291.4 194.9 291.6 194.2 291.3 193.7C291 193.1 290.3 192.9 289.7 193.1C289.6 193.2 289.5 193.2 289.4 193.3L273.9 180C274.1 179.6 274.2 179.2 274 178.8C273.7 178.2 273 178 272.4 178.2C272.1 178.4 271.9 178.6 271.8 178.9L252.6 175C252.6 174.8 252.6 174.6 252.5 174.3C252.2 173.7 251.5 173.5 250.9 173.7C250.4 173.9 250.2 174.5 250.2 175L229.9 180.5V180.4C229.6 179.8 228.9 179.6 228.3 179.8C227.8 180.1 227.5 180.7 227.7 181.2L218.1 185C217.8 184.4 217.1 184.2 216.5 184.5C216.2 184.6 216 184.9 215.9 185.2L216 184.9L193.1 179.8C193.1 179.5 192.9 179.2 192.7 179C192.4 178.7 192 178.7 191.6 178.7L177.3 145.4C178.3 144.8 178.7 143.6 178.2 142.6C178 142.1 177.6 141.8 177.1 141.6L188.4 106.6C188.9 106.7 189.4 106.7 189.8 106.4C190.9 105.9 191.3 104.6 190.8 103.5C190.4 102.7 189.6 102.3 188.8 102.3L186.5 78.9001C186.7 78.9001 186.9 78.8001 187 78.7001C188.1 78.2001 188.5 76.9001 188 75.8001C187.6 74.9001 186.6 74.5001 185.7 74.6001L183 64.2001C183.1 64.2001 183.1 64.1001 183.2 64.1001C184.3 63.6001 184.7 62.3001 184.2 61.2001C183.7 60.2001 182.5 59.7001 181.5 60.1001L170.7 39.1001C171.6 38.5001 172 37.3001 171.5 36.3001C171 35.2001 169.7 34.8001 168.6 35.3001C168.4 35.4001 168.2 35.5001 168 35.7001L140 12.3001C140.4 11.7001 140.5 10.8001 140.2 10.1001C139.7 9.00014 138.4 8.60014 137.3 9.10014C136.7 9.40014 136.4 9.90014 136.2 10.4001L101.8 3.40014C101.8 3.00014 101.8 2.60014 101.6 2.20014C101.1 1.10014 99.7999 0.700136 98.6999 1.20014C97.7999 1.60014 97.3999 2.60014 97.4999 3.50014L60.9999 13.4001C60.9999 13.3001 60.8999 13.3001 60.8999 13.2001C60.3999 12.1001 59.0999 11.7001 57.9999 12.2001C56.9999 12.7001 56.5999 13.8001 56.8999 14.7001L39.6999 21.5001C39.1999 20.4001 37.8999 20.0001 36.7999 20.5001C35.6999 21.0001 35.2999 22.3001 35.7999 23.4001C35.8999 23.7001 36.0999 23.9001 36.2999 24.1001L24.4999 39.5001C24.3999 39.5001 24.3999 39.6001 24.2999 39.6001C23.5999 39.9001 23.1999 40.6001 23.0999 41.4001L12.4999 55.2001C11.8999 54.8001 11.0999 54.8001 10.3999 55.1001C9.29989 55.6001 8.89989 56.9001 9.39989 58.0001C9.69989 58.6001 10.1999 59.0001 10.6999 59.1001L3.39989 97.2001C2.99989 97.2001 2.59989 97.2001 2.19989 97.4001C1.09989 97.9001 0.699892 99.2001 1.19989 100.3C1.59989 101.2 2.59989 101.7 3.59989 101.5L13.9999 138C13.8999 138 13.8999 138 13.7999 138.1C12.6999 138.6 12.2999 139.9 12.7999 141C13.2999 142.1 14.5999 142.5 15.6999 142C15.7999 141.9 15.8999 141.9 16.0999 141.8L42.4999 170.2C41.8999 170.8 41.7999 171.8 42.1999 172.6C42.6999 173.7 43.9999 174.1 45.0999 173.6C45.4999 173.4 45.8999 173 46.0999 172.6L82.4999 186.6C82.3999 187.1 82.3999 187.6 82.5999 188.1C83.0999 189.2 84.3999 189.6 85.4999 189.1C86.2999 188.7 86.7999 187.8 86.6999 187L104.3 183.9C104.3 184 104.4 184.1 104.4 184.3C104.9 185.4 106.2 185.8 107.3 185.3C108.2 184.9 108.7 183.9 108.5 182.9L144.9 172C144.9 172 144.9 172.1 145 172.1C145.5 173.2 146.8 173.6 147.9 173.1C149 172.6 149.4 171.3 148.9 170.2C148.8 170.1 148.8 169.9 148.7 169.8L149.1 169.4C149.7 169.7 150.5 169.8 151.1 169.5C152.2 169 152.6 167.7 152.1 166.6L174.5 145.6C175 146.1 175.8 146.3 176.5 146.1L190.8 179.4C190.7 179.4 190.7 179.5 190.6 179.6C190.2 180.1 190.2 180.9 190.7 181.3C191 181.5 191.3 181.6 191.7 181.6L201.4 204.3C200.9 204.6 200.7 205.3 201 205.8C201.2 206.1 201.4 206.3 201.7 206.4L197.6 227.6C197.4 227.6 197.2 227.6 197 227.7C196.4 228 196.2 228.7 196.4 229.3C196.6 229.8 197.2 230.1 197.7 230L203.5 250.3H203.4C202.8 250.6 202.6 251.3 202.8 251.9C203.1 252.5 203.8 252.7 204.4 252.5C204.5 252.5 204.5 252.4 204.6 252.4L219.3 268.2C219 268.6 218.9 269.1 219.1 269.5C219.4 270.1 220.1 270.3 220.7 270.1C220.9 270 221.1 269.8 221.2 269.6L241.5 277.4C241.4 277.7 241.4 278 241.6 278.3C241.9 278.9 242.6 279.1 243.2 278.9C243.7 278.7 243.9 278.2 243.9 277.7L253.7 276C253.7 276.1 253.7 276.1 253.8 276.2C254.1 276.8 254.8 277 255.4 276.8C255.9 276.6 256.2 276 256.1 275.5L276.4 269.4C276.4 269.4 276.4 269.4 276.4 269.5C276.7 270.1 277.4 270.3 278 270.1C278.6 269.8 278.8 269.1 278.6 268.5C278.6 268.4 278.5 268.4 278.5 268.3L278.7 268.1C279 268.3 279.5 268.3 279.8 268.1C280.3 267.9 280.6 267.3 280.5 266.8L302.8 269.6C302.9 269.8 303 269.9 303.1 270C303.6 270.4 304.2 270.4 304.7 270L330.2 306.9C328.9 307.6 328 308.9 327.9 310.3L307.3 337.4C306.1 336.7 304.6 336.5 303.2 337.2C301.1 338.2 300.2 340.8 301.3 342.9C301.8 344 302.8 344.8 303.9 345.1L289.5 419.6C288.7 419.5 288 419.7 287.2 420C285.1 421 284.2 423.6 285.3 425.7C286.2 427.5 288.1 428.4 289.9 428L310.3 499.3C310.2 499.3 310.1 499.4 310 499.4C307.9 500.4 307 503 308.1 505.1C309.1 507.2 311.7 508.1 313.8 507C314 506.9 314.3 506.7 314.5 506.6L366.2 562.3C365.1 563.6 364.8 565.4 365.6 567C366.6 569.1 369.2 570 371.3 568.9C372.2 568.5 372.8 567.8 373.2 567L444.5 594.4C444.2 595.4 444.3 596.4 444.8 597.4C445.8 599.5 448.4 600.4 450.5 599.3C452.1 598.5 453 596.8 452.9 595.2L487.4 589.1C487.5 589.3 487.6 589.6 487.7 589.8C488.7 591.9 491.3 592.8 493.4 591.7C495.2 590.8 496.1 588.9 495.7 587.1L567 565.7C567 565.8 567.1 565.9 567.1 566C568.1 568.1 570.7 569 572.8 567.9C574.9 566.9 575.8 564.3 574.7 562.2C574.6 561.9 574.4 561.7 574.2 561.5L575 560.7C576.2 561.4 577.7 561.4 579 560.8C581.1 559.8 582 557.2 581 555.1L624.8 514C626 515 627.6 515.3 629.1 514.8L646.4 560.3C646.3 560.4 646.3 560.4 646.2 560.5C645.8 561 645.8 561.8 646.3 562.2C646.6 562.4 646.9 562.5 647.2 562.5L652.3 575.8L652.6 575.7L646.7 583.4C646.4 583.2 645.9 583.2 645.5 583.3C644.9 583.6 644.7 584.3 644.9 584.9C645.1 585.2 645.3 585.4 645.6 585.5L641.5 606.7C641.3 606.7 641.1 606.7 640.9 606.8C640.3 607.1 640.1 607.8 640.3 608.4C640.5 608.9 641.1 609.2 641.6 609.1L647.4 629.4H647.3C646.7 629.7 646.5 630.4 646.7 631C647 631.6 647.7 631.8 648.3 631.6C648.4 631.6 648.4 631.5 648.5 631.5L663.2 647.3C662.9 647.7 662.8 648.2 663 648.6C663.3 649.2 664 649.4 664.6 649.2C664.8 649.1 665 648.9 665.1 648.7L685.4 656.5C685.3 656.8 685.3 657.1 685.5 657.4C685.8 658 686.5 658.2 687.1 658C687.6 657.8 687.8 657.3 687.8 656.8L697.6 655.1C697.6 655.2 697.6 655.2 697.7 655.3C698 655.9 698.7 656.1 699.3 655.9C699.8 655.7 700.1 655.1 700 654.6L720.3 648.5C720.3 648.5 720.3 648.5 720.3 648.6C720.6 649.2 721.3 649.4 721.9 649.2C722.5 648.9 722.7 648.2 722.5 647.6C722.5 647.5 722.4 647.5 722.4 647.4L722.6 647.2C722.9 647.4 723.4 647.4 723.7 647.2C724.2 647 724.5 646.4 724.4 645.9L750.1 652.1C750.2 652.3 750.3 652.6 750.5 652.8C750.9 653.2 751.6 653.2 752 652.8L773.9 681.4C773.5 681.8 773.2 682.3 773.2 682.8L762.8 696C762.2 695.6 761.4 695.6 760.7 695.9C759.6 696.4 759.2 697.7 759.7 698.8C760 699.4 760.5 699.8 761 699.9L753.6 738C753.2 738 752.8 738 752.4 738.2C751.3 738.7 750.9 740 751.4 741.1C751.8 742 752.8 742.5 753.8 742.3L764.2 778.7C764.1 778.7 764.1 778.7 764 778.8C762.9 779.3 762.5 780.6 763 781.7C763.5 782.8 764.8 783.2 765.9 782.7C766 782.6 766.1 782.6 766.3 782.5L792.7 810.9C792.1 811.5 792 812.5 792.4 813.3C792.9 814.4 794.2 814.8 795.3 814.3C795.7 814.1 796.1 813.7 796.3 813.3L832.7 827.3C832.6 827.8 832.6 828.3 832.8 828.8C833.3 829.9 834.6 830.3 835.7 829.8C836.5 829.4 837 828.5 836.9 827.7L854.5 824.6C854.5 824.7 854.6 824.8 854.6 825C855.1 826.1 856.4 826.5 857.5 826C858.4 825.6 858.9 824.6 858.7 823.6L895.1 812.7C895.1 812.7 895.1 812.8 895.2 812.8C895.7 813.9 897 814.3 898.1 813.8C899.2 813.3 899.6 812 899.1 810.9C899 810.8 899 810.6 898.9 810.5L899.3 810.1C899.9 810.4 900.7 810.5 901.3 810.2C902.4 809.7 902.8 808.4 902.3 807.3L924.7 786.3C925.3 786.9 926.3 787 927.1 786.6C928.2 786.1 928.6 784.8 928.1 783.7C927.9 783.2 927.5 782.9 927 782.7L938.3 747.7C938.8 747.8 939.3 747.8 939.7 747.5C940.9 747 941.4 745.7 940.8 744.6ZM187.6 96.8001L184.8 79.0001C185.1 79.2001 185.5 79.2001 185.8 79.2001L187.6 96.8001ZM185.1 75.1001C185 75.1001 185 75.2001 184.9 75.2001C184.7 75.3001 184.5 75.4001 184.3 75.6001L182.9 66.8001L185.1 75.1001ZM181.7 64.7001C181.8 64.7001 182 64.7001 182.1 64.7001L183.9 76.0001C183.6 76.6001 183.5 77.4001 183.9 78.0001C184 78.2001 184.2 78.5001 184.4 78.6001L188.1 102.6C188 102.6 187.8 102.7 187.7 102.8C187.5 102.9 187.4 103 187.2 103.1L176.4 92.8001C176.9 92.2001 177 91.3001 176.6 90.5001C176.3 90.0001 175.9 89.6001 175.4 89.4001L181.7 64.7001ZM169.6 134.1L140.3 149.3C139.7 148.4 138.6 148.1 137.6 148.5L122.3 121.1C123.2 120.5 123.5 119.3 123 118.4C122.8 118.1 122.6 117.8 122.4 117.6L142.5 84.8001C143.1 85.1001 143.8 85.1001 144.4 84.8001C144.9 84.6001 145.3 84.1001 145.5 83.6001L172.5 91.1001C172.4 91.5001 172.5 92.0001 172.7 92.4001C173 93.0001 173.6 93.5001 174.3 93.6001C173.4 106 172.2 118.7 171.5 131.1C171.2 131.1 170.9 131.2 170.6 131.3C169.7 131.9 169.2 133.1 169.6 134.1ZM70.8999 170.5C70.8999 170.4 70.8999 170.4 70.8999 170.5L94.9999 154C95.5999 154.7 96.6999 155 97.5999 154.6L110.3 175.6C109.9 175.9 109.6 176.3 109.5 176.8L71.0999 171.5C71.1999 171.1 71.0999 170.8 70.8999 170.5ZM34.9999 146.2C34.6999 145.6 34.1999 145.2 33.5999 145.1L38.3999 115.6C38.7999 115.6 39.0999 115.6 39.4999 115.4C40.0999 115.1 40.5999 114.5 40.6999 113.8L75.6999 116.8C75.6999 117.1 75.7999 117.4 75.8999 117.7C76.3999 118.7 77.5999 119.2 78.6999 118.8L95.4999 150.9C94.5999 151.5 94.2999 152.7 94.6999 153.7V153.8L70.5999 170C69.9999 169.2 68.8999 169 67.9999 169.4C67.6999 169.5 67.4999 169.7 67.2999 170L34.9999 148.2C35.2999 147.6 35.2999 146.9 34.9999 146.2ZM54.6999 40.0001L89.0999 22.2001C89.6999 23.1001 90.8999 23.5001 91.8999 23.0001C92.0999 22.9001 92.2999 22.7001 92.4999 22.6001L119.7 44.6001C119.3 45.2001 119.2 46.0001 119.6 46.8001C119.8 47.1001 120 47.4001 120.3 47.6001L116.3 54.9001L103.1 78.8001C102.5 78.6001 101.9 78.6001 101.3 78.8001C100.7 79.1001 100.2 79.7001 100.1 80.4001L61.8999 77.6001C61.8999 77.3001 61.7999 77.0001 61.6999 76.7001C61.2999 75.9001 60.3999 75.4001 59.5999 75.5001L53.4999 42.8001C53.5999 42.8001 53.6999 42.7001 53.8999 42.7001C54.5999 42.2001 55.0999 41.0001 54.6999 40.0001ZM145.5 81.9001C145.3 81.5001 145 81.2001 144.7 81.0001L158.1 53.3001C158.5 53.5001 159 53.5001 159.4 53.4001L173.7 89.6001C173.2 89.9001 172.9 90.3001 172.7 90.7001L145.7 83.2001C145.8 82.8001 145.7 82.3001 145.5 81.9001ZM144.3 80.8001C143.8 80.6001 143.2 80.6001 142.6 80.9001L122.7 47.6001C123.1 47.3001 123.4 46.9001 123.5 46.4001L156.6 51.3001C156.6 51.7001 156.7 52.0001 156.8 52.4001C157 52.8001 157.3 53.1001 157.6 53.3001L144.3 80.8001ZM58.5999 79.7001C59.0999 79.9001 59.6999 80.0001 60.1999 79.8001L61.7999 83.3001L76.6999 114.9C76.1999 115.2 75.7999 115.8 75.6999 116.4L40.6999 113.4C40.6999 113.1 40.5999 112.8 40.4999 112.5C40.2999 112.2 40.0999 111.9 39.7999 111.7L58.5999 79.7001ZM39.4999 111.4C39.0999 111.2 38.5999 111.1 38.0999 111.3L26.4999 76.3001C26.4999 76.3001 26.4999 76.3001 26.5999 76.3001C27.1999 76.0001 27.5999 75.4001 27.7999 74.8001L57.3999 77.8001C57.3999 78.1001 57.4999 78.5001 57.5999 78.8001C57.7999 79.1001 57.9999 79.4001 58.2999 79.6001L39.4999 111.4ZM60.5999 79.6001C61.1999 79.3001 61.4999 78.7001 61.5999 78.1001L99.7999 80.9001C99.7999 81.2001 99.8999 81.5001 99.9999 81.8001C100.1 82.1001 100.3 82.3001 100.6 82.5001L78.8999 114.8C78.3999 114.5 77.6999 114.5 77.0999 114.7L60.5999 79.6001ZM80.0999 117.1L119 119.5C119 119.8 119.1 120.1 119.2 120.4C119.3 120.7 119.5 120.9 119.7 121.1L97.7999 150.9C97.1999 150.6 96.4999 150.5 95.8999 150.8L79.0999 118.7C79.5999 118.2 79.9999 117.6 80.0999 117.1ZM119 119L80.0999 116.6C80.0999 116.3 79.9999 116 79.8999 115.7C79.7999 115.4 79.5999 115.2 79.2999 115L101 82.7001C101.5 83.0001 102.2 83.0001 102.8 82.8001L120 117.5C119.5 117.8 119.1 118.4 119 119ZM103.2 82.6001C103.8 82.3001 104.1 81.7001 104.2 81.1001L141.4 82.9001C141.4 83.2001 141.5 83.5001 141.6 83.7001C141.8 84.0001 142 84.3001 142.2 84.5001L122.1 117.3C121.6 117 121 117 120.4 117.2L103.2 82.6001ZM141.4 82.5001L104.2 80.7001C104.2 80.4001 104.1 80.1001 104 79.9001C103.8 79.6001 103.6 79.3001 103.3 79.1001L120.6 47.8001C121.2 48.0001 121.8 48.0001 122.4 47.8001L142.3 81.1001C141.8 81.4001 141.5 81.9001 141.4 82.5001ZM156.7 50.7001L123.6 45.8001C123.6 45.4001 123.5 45.1001 123.4 44.7001C123.2 44.3001 122.8 43.9001 122.4 43.7001L131.2 21.4001C131.7 21.5001 132.2 21.5001 132.7 21.3001C132.8 21.3001 132.9 21.2001 133 21.1001L157.3 49.6001C157 50.0001 156.8 50.3001 156.7 50.7001ZM122 43.7001C121.5 43.6001 121 43.6001 120.5 43.8001C120.3 43.9001 120.1 44.1001 119.9 44.2001L92.6999 22.2001C92.8999 21.9001 92.9999 21.5001 93.0999 21.1001L129.6 19.7001C129.6 19.9001 129.7 20.1001 129.8 20.4001C130 20.8001 130.4 21.2001 130.8 21.4001L122 43.7001ZM58.8999 75.6001C58.7999 75.6001 58.6999 75.7001 58.4999 75.7001C57.8999 76.0001 57.4999 76.6001 57.2999 77.2001L27.6999 74.2001C27.6999 73.9001 27.5999 73.5001 27.4999 73.2001C27.3999 73.0001 27.1999 72.8001 27.0999 72.6001L51.4999 42.5001C51.8999 42.8001 52.3999 42.9001 52.8999 42.8001L58.8999 75.6001ZM26.7999 72.5001C26.4999 72.3001 26.1999 72.2001 25.7999 72.2001L25.4999 43.8001C25.6999 43.8001 25.9999 43.7001 26.1999 43.6001C26.8999 43.2001 27.3999 42.5001 27.3999 41.8001L50.4999 41.1001C50.4999 41.3001 50.5999 41.6001 50.6999 41.8001C50.7999 42.0001 50.9999 42.2001 51.0999 42.4001L26.7999 72.5001ZM37.6999 111.4C37.6999 111.4 37.5999 111.4 37.6999 111.4C36.9999 111.7 36.5999 112.3 36.4999 112.9L14.1999 110.1C14.1999 109.8 14.0999 109.4 13.9999 109.1C13.7999 108.7 13.3999 108.3 12.9999 108.1L16.3999 99.3001L24.9999 76.4001C25.2999 76.5001 25.6999 76.5001 25.9999 76.4001L37.6999 111.4ZM14.0999 110.5L36.3999 113.3C36.3999 113.6 36.4999 114 36.5999 114.3C36.8999 114.9 37.3999 115.3 37.9999 115.4L33.1999 145C32.8999 145 32.4999 145 32.1999 145.2L22.6999 128.5L13.1999 111.8C13.5999 111.5 13.8999 111 14.0999 110.5ZM97.9999 154.3C98.4999 153.9 98.7999 153.3 98.8999 152.7L136.4 150.8C136.4 151 136.5 151.2 136.6 151.4C136.7 151.6 136.8 151.7 136.9 151.8L113.1 175.5C112.5 175 111.6 174.8 110.8 175.2L97.9999 154.3ZM136.4 150.4L98.8999 152.3C98.8999 152.1 98.7999 151.9 98.6999 151.7C98.5999 151.4 98.3999 151.2 98.1999 151L99.2999 149.5L120.1 121.2C120.7 121.5 121.4 121.6 122.1 121.3L137.4 148.7C136.7 149.1 136.4 149.8 136.4 150.4ZM174.8 93.6001C175.1 93.6001 175.4 93.5001 175.7 93.4001C175.9 93.3001 176 93.2001 176.2 93.1001L187 103.4C186.5 104 186.4 104.9 186.8 105.7C187 106 187.2 106.3 187.5 106.5L172.7 131.3C172.5 131.2 172.3 131.2 172.2 131.1L174.8 93.6001ZM175.1 89.3001C174.8 89.3001 174.5 89.3001 174.2 89.4001L159.9 53.2001C160.3 53.0001 160.6 52.7001 160.8 52.4001L180.1 61.8001C179.9 62.3001 179.9 63.0001 180.2 63.5001C180.5 64.0001 180.9 64.4001 181.4 64.6001L175.1 89.3001ZM137.1 12.9001C137.7 13.3001 138.5 13.4001 139.2 13.0001C139.4 12.9001 139.6 12.8001 139.7 12.6001L167.5 36.4001C167.1 37.0001 167 37.9001 167.3 38.6001C167.8 39.6001 169 40.1001 170 39.7001L180.8 60.7001C180.5 60.9001 180.3 61.1001 180.1 61.4001L160.9 52.0001C161.1 51.5001 161.1 50.8001 160.8 50.3001C160.3 49.2001 159 48.8001 157.9 49.3001C157.8 49.3001 157.7 49.4001 157.6 49.5001L135 23.0001L133.3 21.0001C133.9 20.4001 134.1 19.4001 133.7 18.5001C133.6 18.3001 133.4 18.1001 133.2 17.9001L137.1 12.9001ZM101.6 3.80014L136 10.8001C136 11.2001 136 11.6001 136.2 12.0001C136.3 12.2001 136.5 12.4001 136.7 12.6001L132.9 17.5001C132.3 17.1001 131.5 17.0001 130.8 17.4001C130.4 17.6001 130.1 17.9001 129.9 18.2001L101.6 4.00014C101.6 3.90014 101.6 3.90014 101.6 3.80014ZM100.5 5.10014C100.9 4.90014 101.2 4.60014 101.4 4.30014L129.7 18.6001C129.6 18.8001 129.6 19.0001 129.6 19.2001L92.9999 20.7001C92.9999 20.5001 92.8999 20.3001 92.7999 20.0001C92.5999 19.6001 92.2999 19.3001 91.9999 19.1001L98.7999 5.10014C99.2999 5.40014 99.8999 5.40014 100.5 5.10014ZM60.9999 13.8001L97.4999 3.90014C97.4999 4.00014 97.5999 4.00014 97.5999 4.10014C97.7999 4.50014 98.0999 4.80014 98.3999 5.00014L96.8999 8.10014L91.5999 19.0001C91.0999 18.8001 90.3999 18.8001 89.8999 19.1001C89.2999 19.4001 88.9999 19.8001 88.7999 20.4001L60.9999 14.4001C60.9999 14.2001 60.9999 14.0001 60.9999 13.8001ZM58.5999 16.3001C58.9999 16.4001 59.3999 16.3001 59.7999 16.1001C60.3999 15.8001 60.6999 15.4001 60.8999 14.8001L88.6999 20.8001C88.6999 21.1001 88.6999 21.5001 88.7999 21.8001L54.4999 39.6001C54.1999 39.2001 53.7999 38.9001 53.3999 38.7001L58.5999 16.3001ZM58.0999 16.2001L52.8999 38.6001C52.4999 38.5001 52.0999 38.6001 51.6999 38.8001C50.9999 39.2001 50.4999 39.9001 50.4999 40.6001L27.3999 41.3001C27.3999 41.1001 27.2999 40.8001 27.1999 40.6001C27.1999 40.5001 27.0999 40.4001 27.0999 40.4001L57.3999 15.7001C57.4999 15.9001 57.7999 16.1001 58.0999 16.2001ZM36.5999 24.5001C37.1999 24.8001 37.8999 24.8001 38.5999 24.5001C39.5999 24.0001 39.9999 22.9001 39.6999 22.0001L56.8999 15.2001C56.8999 15.3001 56.9999 15.3001 56.9999 15.4001L26.7999 40.0001C26.6999 39.9001 26.6999 39.9001 26.5999 39.8001L36.5999 24.5001ZM34.1999 27.4001L26.2999 39.6001C25.9999 39.4001 25.5999 39.3001 25.1999 39.4001L34.1999 27.4001ZM23.0999 42.0001C23.0999 42.2001 23.1999 42.3001 23.2999 42.5001C23.3999 42.7001 23.4999 42.9001 23.5999 43.0001L14.7999 52.8001L23.0999 42.0001ZM3.99989 101.4C4.09989 101.4 4.09989 101.4 4.19989 101.3C4.29989 101.3 4.39989 101.2 4.39989 101.2L10.3999 108.5C9.79989 109.1 9.59989 110.1 9.99989 111C10.3999 111.8 11.0999 112.2 11.8999 112.2L14.3999 137.7L3.99989 101.4ZM10.9999 108.1C10.8999 108.1 10.7999 108.2 10.6999 108.2L4.69989 100.9C5.29989 100.3 5.49989 99.3001 5.09989 98.4001C4.79989 97.8001 4.29989 97.4001 3.79989 97.3001L11.1999 59.2001C11.5999 59.2001 11.9999 59.2001 12.3999 59.0001C13.4999 58.5001 13.8999 57.2001 13.3999 56.1001C13.2999 55.9001 13.1999 55.7001 13.0999 55.6001L24.0999 43.3001C24.3999 43.5001 24.7999 43.7001 25.1999 43.7001L25.4999 72.1001C25.2999 72.1001 24.9999 72.2001 24.7999 72.3001C23.6999 72.8001 23.2999 74.1001 23.7999 75.2001C23.9999 75.6001 24.3999 76.0001 24.7999 76.2001L12.6999 107.9C11.9999 107.8 11.4999 107.8 10.9999 108.1ZM14.7999 137.8L12.2999 112.1C12.4999 112.1 12.5999 112 12.7999 112L31.7999 145.4C31.4999 145.6 31.2999 145.9 31.0999 146.2L16.8999 140.6C16.9999 140.1 16.9999 139.6 16.7999 139C16.3999 138.2 15.5999 137.8 14.7999 137.8ZM42.8999 169.8L16.4999 141.4C16.5999 141.3 16.6999 141.1 16.7999 141L30.9999 146.6C30.8999 147.1 30.8999 147.6 31.0999 148.2C31.5999 149.2 32.6999 149.6 33.7999 149.3L43.0999 169.8C42.9999 169.7 42.8999 169.8 42.8999 169.8ZM43.4999 169.5L34.0999 149C34.2999 148.9 34.4999 148.7 34.6999 148.5L66.9999 170.3C66.8999 170.6 66.7999 170.8 66.6999 171.1L46.1999 171.2C46.1999 171 46.0999 170.7 45.9999 170.5C45.5999 169.6 44.4999 169.2 43.4999 169.5ZM82.6999 186.1L46.2999 172.1C46.2999 172 46.3999 171.9 46.3999 171.7L66.8999 171.6C66.8999 171.8 66.9999 172.1 67.0999 172.3C67.5999 173.4 68.8999 173.8 69.9999 173.3C70.1999 173.2 70.2999 173.1 70.3999 173L82.9999 185.7C82.8999 185.8 82.7999 186 82.6999 186.1ZM86.5999 186.2C86.0999 185.1 84.7999 184.7 83.6999 185.2C83.4999 185.3 83.3999 185.4 83.2999 185.5L70.6999 172.9C70.8999 172.6 71.0999 172.3 71.0999 172L109.5 177.3C109.5 177.5 109.5 177.7 109.6 177.9L104.5 179.7L86.5999 186.2ZM148.3 169.3C147.7 168.8 146.8 168.8 146.1 169.1C145.2 169.5 144.7 170.5 144.9 171.5L108.5 182.4C108.5 182.4 108.5 182.3 108.4 182.3C107.9 181.2 106.6 180.8 105.5 181.3C104.7 181.7 104.2 182.6 104.3 183.4L87.0999 186.5L109.7 178.3C110.2 179.4 111.5 179.8 112.6 179.3C113.5 178.9 113.9 177.9 113.8 177L148.2 168.1C148.2 168.2 148.3 168.2 148.3 168.3C148.4 168.5 148.5 168.7 148.7 168.8L148.3 169.3ZM148.1 167.7L113.7 176.6C113.7 176.5 113.6 176.5 113.6 176.4C113.5 176.2 113.4 176.1 113.3 176L137.1 152.3C137.7 152.8 138.6 153 139.4 152.6H139.5L148.7 165.9C148.3 166.2 148 167 148.1 167.7ZM149.3 165.5C149.3 165.5 149.2 165.5 149.3 165.5L140 152.2C140.7 151.6 141 150.6 140.6 149.7L169.9 134.5C170 134.7 170.2 134.9 170.4 135L151.3 165.4C150.6 165.2 149.9 165.1 149.3 165.5ZM174.1 144.8C174.2 144.9 174.2 145 174.3 145.1L151.7 165.7L151.6 165.6L170.7 135.2C171.2 135.4 171.8 135.5 172.3 135.3L175 141.9C174 142.5 173.6 143.8 174.1 144.8ZM175.4 141.8L172.7 135.2C173.7 134.6 174.1 133.4 173.6 132.3C173.4 132 173.2 131.7 172.9 131.5L187.7 106.7H187.8L176.5 141.7C176.1 141.6 175.8 141.7 175.4 141.8ZM294.2 252.2C294 252.2 293.8 252.2 293.6 252.2V252.1L292.1 248.5C292.7 248.2 292.9 247.5 292.6 246.9C292.5 246.7 292.4 246.6 292.2 246.5L300.4 232.7L294.2 252.2ZM290.3 247.9L274 256.4C273.7 255.9 273.1 255.7 272.5 256L264 240.7C264.5 240.4 264.7 239.7 264.4 239.2C264.3 239 264.2 238.9 264 238.8L275.2 220.5C275.5 220.7 275.9 220.7 276.3 220.5C276.6 220.4 276.8 220.1 276.9 219.9L291.9 224.1C291.9 224.3 291.9 224.6 292 224.8C292.2 225.2 292.5 225.4 292.9 225.5C292.4 232.4 291.7 239.5 291.3 246.4C291.1 246.4 291 246.4 290.8 246.5C290.4 246.7 290.1 247.4 290.3 247.9ZM215.4 254.7C215.2 254.4 215 254.2 214.6 254.1L217.3 237.7C217.5 237.7 217.7 237.7 217.9 237.6C218.3 237.4 218.5 237.1 218.6 236.7L238.1 238.4C238.1 238.6 238.1 238.8 238.2 238.9C238.5 239.5 239.2 239.7 239.7 239.5L249 257.3C248.5 257.6 248.3 258.3 248.6 258.8L235.2 267.9C234.9 267.5 234.2 267.3 233.7 267.6C233.5 267.7 233.4 267.8 233.3 267.9L215.3 255.7C215.6 255.4 215.6 255 215.4 254.7ZM210.1 197.6C210.2 197.6 210.4 197.5 210.5 197.5C210.9 197.3 211.1 196.9 211.2 196.5L224.1 196.1C224.1 196.2 224.2 196.4 224.2 196.5C224.3 196.6 224.3 196.7 224.4 196.8L210.8 213.6C210.6 213.5 210.4 213.4 210.2 213.4L210.1 197.6ZM209.9 195.2L215 188.5L210.6 195.3C210.3 195.3 210.1 195.2 209.9 195.2ZM226.4 195.5L245.6 185.6C245.9 186.1 246.6 186.3 247.1 186C247.2 185.9 247.3 185.9 247.4 185.8L262.5 198.1C262.3 198.4 262.2 198.9 262.4 199.3C262.5 199.5 262.6 199.6 262.8 199.8L260.5 203.9L253.1 217.2C252.8 217.1 252.4 217.1 252.1 217.2C251.7 217.4 251.5 217.7 251.4 218.1L230.1 216.6C230.1 216.4 230.1 216.3 230 216.1C229.8 215.6 229.3 215.4 228.8 215.4L225.4 197.2C225.5 197.2 225.5 197.2 225.6 197.1C226.3 196.8 226.6 196.1 226.4 195.5ZM276.9 218.9C276.8 218.7 276.6 218.5 276.4 218.4L283.9 203C284.1 203.1 284.4 203.1 284.6 203L292.6 223.1C292.3 223.2 292.1 223.5 292 223.7L277 219.5C277.1 219.4 277 219.1 276.9 218.9ZM276.2 218.3C275.9 218.2 275.6 218.2 275.3 218.3L264.2 199.7C264.4 199.5 264.6 199.3 264.7 199L283.1 201.7C283.1 201.9 283.1 202.1 283.2 202.3C283.3 202.5 283.5 202.7 283.7 202.8L276.2 218.3ZM228.5 217.7C228.8 217.8 229.1 217.8 229.4 217.7L230.3 219.6L238.6 237.2C238.3 237.4 238.1 237.7 238 238L218.5 236.3C218.5 236.1 218.5 236 218.4 235.8C218.3 235.6 218.2 235.5 218 235.4L228.5 217.7ZM217.9 235.3C217.7 235.2 217.4 235.2 217.1 235.2L210.6 215.7C210.9 215.5 211.2 215.2 211.3 214.9L227.8 216.6C227.8 216.8 227.8 217 227.9 217.1C228 217.3 228.1 217.4 228.3 217.5L217.9 235.3ZM229.7 217.6C230 217.4 230.2 217.1 230.3 216.8L251.6 218.3C251.6 218.5 251.6 218.6 251.7 218.8C251.8 219 251.9 219.1 252 219.2L239.9 237.2C239.6 237 239.3 237 238.9 237.1L229.7 217.6ZM240.5 238.4L262.2 239.7C262.2 239.9 262.2 240 262.3 240.2C262.4 240.3 262.5 240.5 262.6 240.6L250.4 257.2C250.1 257 249.7 257 249.3 257.1L240 239.3C240.2 239.1 240.4 238.8 240.5 238.4ZM262.2 239.5L240.5 238.2C240.5 238 240.5 237.9 240.4 237.7C240.3 237.5 240.2 237.4 240.1 237.3L252.2 219.3C252.5 219.5 252.9 219.5 253.2 219.4L262.8 238.7C262.4 238.9 262.2 239.2 262.2 239.5ZM253.4 219.3C253.7 219.1 253.9 218.8 254 218.5L274.7 219.5C274.7 219.7 274.7 219.8 274.8 220C274.9 220.2 275 220.3 275.2 220.4L264 238.7C263.7 238.6 263.4 238.5 263 238.7L253.4 219.3ZM274.6 219.2L253.9 218.2C253.9 218 253.9 217.9 253.8 217.7C253.7 217.5 253.6 217.4 253.4 217.2L263 199.8C263.3 199.9 263.7 199.9 264 199.8L275.1 218.4C274.8 218.6 274.7 218.9 274.6 219.2ZM283.2 201.5L264.8 198.8C264.8 198.6 264.8 198.4 264.7 198.2C264.6 198 264.4 197.8 264.2 197.7L269.1 185.3C269.4 185.4 269.7 185.4 270 185.2C270.1 185.2 270.1 185.1 270.2 185.1L283.7 201C283.3 201.1 283.2 201.3 283.2 201.5ZM263.8 197.6C263.5 197.5 263.2 197.5 262.9 197.7C262.8 197.8 262.7 197.8 262.6 197.9L247.5 185.6C247.6 185.4 247.7 185.2 247.7 185L268 184.2C268 184.3 268.1 184.4 268.1 184.6C268.2 184.8 268.4 185 268.6 185.1L263.8 197.6ZM228.7 215.4C228.6 215.4 228.6 215.4 228.5 215.5C228.1 215.7 227.9 216 227.8 216.3L211.3 214.6C211.3 214.4 211.3 214.2 211.2 214.1C211.1 214 211.1 213.9 211 213.8L224.6 197C224.8 197.1 225.1 197.2 225.4 197.2L228.7 215.4ZM216.9 235.3C216.5 235.5 216.3 235.8 216.2 236.1L203.8 234.5C203.8 234.3 203.8 234.1 203.7 233.9C203.6 233.7 203.4 233.5 203.2 233.4L205.1 228.5L210 215.8C210.2 215.9 210.4 215.9 210.6 215.8L216.9 235.3ZM203.8 234.8L216.2 236.4C216.2 236.6 216.2 236.8 216.3 237C216.5 237.3 216.7 237.5 217.1 237.6L214.4 254C214.2 254 214 254 213.8 254.1L208.5 244.8L203.2 235.5C203.5 235.3 203.7 235.1 203.8 234.8ZM248.8 259C249.1 259.4 249.7 259.6 250.2 259.3L257.3 271C257.1 271.2 256.9 271.4 256.9 271.7L235.5 268.7C235.5 268.5 235.5 268.3 235.4 268.1L248.8 259ZM250.5 259.2C250.8 259 251 258.6 251 258.3L271.9 257.3C271.9 257.4 272 257.5 272 257.7C272 257.8 272.1 257.9 272.1 257.9L258.9 271.1C258.5 270.8 258 270.7 257.6 270.9L250.5 259.2ZM271.8 257L250.9 258C250.9 257.9 250.8 257.8 250.8 257.6C250.7 257.5 250.6 257.3 250.5 257.2L251.1 256.4L262.7 240.6C263 240.8 263.4 240.8 263.8 240.7L272.3 256C272 256.3 271.8 256.6 271.8 257ZM293.2 225.4C293.4 225.4 293.5 225.4 293.7 225.3C293.8 225.3 293.9 225.2 294 225.1L300 230.8C299.7 231.2 299.7 231.6 299.9 232.1C300 232.3 300.1 232.4 300.3 232.5L292.1 246.3C292 246.3 291.9 246.2 291.8 246.2L293.2 225.4ZM300.4 227.2L298.9 217.3C299.1 217.4 299.3 217.4 299.5 217.4L300.4 227.2ZM298.9 215.1H298.8C298.7 215.2 298.6 215.2 298.5 215.3L297.7 210.4L298.9 215.1ZM297.1 209.3C297.2 209.3 297.3 209.3 297.3 209.3L298.3 215.6C298.1 215.9 298.1 216.4 298.3 216.7C298.4 216.8 298.5 217 298.6 217L300.7 230.3C300.6 230.3 300.5 230.3 300.5 230.4C300.4 230.4 300.3 230.5 300.2 230.6L294.2 224.9C294.5 224.5 294.5 224.1 294.3 223.6C294.2 223.3 293.9 223.1 293.6 223L297.1 209.3ZM293.4 223C293.2 223 293.1 223 292.9 223L284.9 202.9C285.1 202.8 285.3 202.6 285.4 202.5L296.2 207.7C296.1 208 296.1 208.3 296.2 208.7C296.3 209 296.6 209.2 296.9 209.3L293.4 223ZM272.2 180.5C272.5 180.7 273 180.8 273.4 180.6C273.5 180.5 273.6 180.5 273.7 180.4L289.2 193.7C289 194 288.9 194.5 289.1 194.9C289.4 195.5 290 195.7 290.6 195.5L296.6 207.2C296.4 207.3 296.3 207.4 296.2 207.6L285.4 202.4C285.5 202.1 285.5 201.8 285.4 201.4C285.1 200.8 284.4 200.6 283.8 200.8C283.7 200.8 283.7 200.9 283.6 200.9L271 186.2L270 185.1C270.3 184.7 270.4 184.2 270.2 183.7C270.1 183.6 270 183.5 269.9 183.4L272.2 180.5ZM252.5 175.4L271.7 179.3C271.7 179.5 271.7 179.7 271.8 180C271.9 180.1 272 180.2 272.1 180.3L270 183.1C269.7 182.9 269.2 182.8 268.8 183C268.6 183.1 268.4 183.3 268.3 183.4L252.5 175.4C252.5 175.5 252.5 175.4 252.5 175.4ZM251.9 176.1C252.1 176 252.3 175.8 252.4 175.7L268.2 183.7C268.2 183.8 268.1 183.9 268.1 184.1L247.8 184.9C247.8 184.8 247.7 184.7 247.7 184.5C247.6 184.3 247.4 184.1 247.2 184L251 176.2C251.2 176.3 251.6 176.3 251.9 176.1ZM229.9 181L250.2 175.5V175.6C250.3 175.8 250.5 176 250.7 176.1L249.9 177.8L247 183.9C246.7 183.8 246.4 183.8 246 184C245.7 184.2 245.5 184.4 245.4 184.7L229.9 181.4C229.9 181.2 229.9 181.1 229.9 181ZM228.5 182.4C228.7 182.4 229 182.4 229.2 182.3C229.5 182.1 229.7 181.9 229.8 181.6L245.3 184.9C245.3 185.1 245.3 185.3 245.4 185.5L226.2 195.4C226 195.2 225.8 195 225.6 194.9L228.5 182.4ZM228.3 182.3L225.4 194.8C225.2 194.8 224.9 194.8 224.7 194.9C224.3 195.1 224.1 195.5 224 195.9L211.1 196.3C211.1 196.2 211 196 211 195.9C211 195.9 211 195.8 210.9 195.8L227.7 182.1C228 182.2 228.1 182.3 228.3 182.3ZM216.3 186.9C216.6 187.1 217 187.1 217.4 186.9C217.9 186.6 218.2 186 218 185.5L227.6 181.7C227.6 181.7 227.6 181.8 227.7 181.8L210.9 195.5L210.8 195.4L216.3 186.9ZM192.4 181.2C192.5 181.1 192.6 181.1 192.6 181C192.7 180.9 192.8 180.7 192.8 180.6L215.6 185.7C215.6 185.9 215.6 186.2 215.7 186.4C215.8 186.5 215.9 186.7 216 186.8L209.5 195.4H209.4C209 195.6 208.8 196 208.7 196.4L202.8 204.1C202.6 204 202.3 203.9 202 203.9L192.4 181.2ZM209.1 197.2L204.2 202.7L208.8 196.7C208.8 196.8 208.9 196.9 208.9 197C208.9 197.1 209 197.2 209.1 197.2ZM198.1 229.7C198.2 229.7 198.2 229.7 198.1 229.7C198.2 229.6 198.3 229.6 198.3 229.6L201.6 233.7C201.2 234.1 201.1 234.6 201.4 235.1C201.6 235.5 202 235.8 202.5 235.8L203.9 250L198.1 229.7ZM202 233.4L201.9 233.5L198.6 229.4C199 229 199.1 228.5 198.8 228C198.6 227.7 198.4 227.5 198.1 227.4L202.2 206.2C202.4 206.2 202.6 206.2 202.8 206.1C203.4 205.8 203.6 205.1 203.4 204.5C203.3 204.4 203.3 204.3 203.2 204.2L209.3 197.4C209.5 197.5 209.7 197.6 209.9 197.6L210.1 213.4C210 213.4 209.8 213.5 209.7 213.5C209.1 213.8 208.9 214.5 209.1 215.1C209.2 215.3 209.4 215.5 209.6 215.6L202.9 233.2C202.6 233.3 202.3 233.3 202 233.4ZM204.2 250L202.8 235.7C202.9 235.7 203 235.7 203.1 235.6L213.7 254.2C213.5 254.3 213.4 254.5 213.3 254.6L205.4 251.5C205.5 251.2 205.5 250.9 205.3 250.6C205.1 250.2 204.6 250 204.2 250ZM219.8 267.8L205.1 252C205.2 251.9 205.2 251.8 205.3 251.8L213.2 254.9C213.1 255.2 213.1 255.5 213.3 255.8C213.6 256.4 214.2 256.6 214.8 256.4L220 267.8C219.9 267.8 219.8 267.8 219.8 267.8ZM220.1 267.6L214.9 256.2C215 256.1 215.1 256 215.2 255.9L233.2 268.1C233.1 268.2 233.1 268.4 233.1 268.6L221.7 268.7C221.7 268.6 221.6 268.4 221.6 268.3C221.3 267.7 220.7 267.4 220.1 267.6ZM242 276.9L221.7 269.1C221.7 269 221.7 269 221.7 268.9L233.1 268.8C233.1 268.9 233.2 269.1 233.2 269.2C233.5 269.8 234.2 270 234.8 269.8C234.9 269.8 235 269.7 235 269.7L242 276.7C242 276.7 242 276.8 242 276.9ZM244.1 276.9C243.8 276.3 243.1 276 242.5 276.3C242.4 276.3 242.3 276.4 242.3 276.4L235.3 269.4C235.4 269.3 235.5 269.1 235.5 268.9L256.9 271.9C256.9 272 256.9 272.1 256.9 272.2L254 273.2L244.1 276.9ZM278.5 267.5C278.1 267.2 277.7 267.2 277.3 267.4C276.8 267.6 276.5 268.2 276.6 268.7L256.3 274.8C256.3 274.8 256.3 274.8 256.3 274.7C256 274.1 255.3 273.9 254.7 274.1C254.2 274.3 254 274.8 254 275.3L244.4 277L257 272.5C257.3 273.1 258 273.3 258.6 273.1C259.1 272.9 259.3 272.3 259.3 271.8L278.4 266.9V267C278.5 267.1 278.5 267.2 278.6 267.3L278.5 267.5ZM278.4 266.7L259.3 271.6V271.5C259.3 271.4 259.2 271.3 259.2 271.3L272.4 258.1C272.8 258.4 273.3 258.5 273.7 258.2C273.7 258.2 273.7 258.2 273.8 258.2L278.9 265.6C278.4 265.8 278.3 266.2 278.4 266.7ZM280.1 265.4C279.8 265.2 279.4 265.2 279 265.4C279 265.4 279 265.4 278.9 265.4L273.8 258C274.2 257.7 274.3 257.1 274.1 256.6L290.4 248.1C290.5 248.2 290.6 248.3 290.7 248.4L280.1 265.4ZM280.4 265.6C280.3 265.5 280.3 265.5 280.4 265.6L291 248.6C291.3 248.7 291.6 248.8 291.9 248.7L293.4 252.3C292.8 252.6 292.6 253.3 292.9 253.9C292.9 254 293 254 293 254.1L280.4 265.6ZM303.2 267.7C303 267.9 302.9 268.2 302.9 268.5L280.9 265.7L293.1 254.3C293.5 254.6 294 254.7 294.4 254.5L303.4 267.6C303.4 267.5 303.3 267.6 303.2 267.7ZM650.3 418.3L644.9 383.5C645.5 383.8 646.2 384 646.9 384L650.3 418.3ZM645.3 375.8C645.2 375.8 645 375.9 644.9 376C644.5 376.2 644.1 376.5 643.8 376.8L641.1 359.6L645.3 375.8ZM638.7 355.4C639 355.4 639.3 355.5 639.6 355.4L643.1 377.6C642.5 378.8 642.4 380.2 643 381.5C643.2 382 643.5 382.4 643.9 382.7L651.2 429.6C650.9 429.7 650.7 429.8 650.4 429.9C650.1 430.1 649.8 430.3 649.5 430.5L628.4 410.3C629.4 409.1 629.6 407.3 628.9 405.8C628.4 404.8 627.5 404 626.5 403.7L638.7 355.4ZM615.1 491.4L557.8 521.2C556.7 519.5 554.5 518.8 552.5 519.6L522.6 465.9C524.3 464.7 524.9 462.4 524 460.5C523.7 459.9 523.3 459.4 522.8 459L562.2 394.7C563.3 395.3 564.7 395.3 565.9 394.7C566.9 394.2 567.6 393.4 568 392.4L620.9 407C620.8 407.9 620.9 408.8 621.3 409.6C621.9 410.9 623.1 411.7 624.4 411.9C622.5 436.2 620.2 461.1 618.9 485.4C618.3 485.4 617.8 485.6 617.2 485.8C615.1 487 614.2 489.3 615.1 491.4ZM421.8 562.5L421.7 562.4L469 530.3C470.2 531.8 472.3 532.3 474.1 531.4L499 572.6C498.2 573.2 497.6 574.1 497.4 575L422.2 564.6C422.3 563.9 422.2 563.2 421.8 562.5ZM351.5 515C350.9 513.9 349.9 513.1 348.8 512.8L358.3 455C359 455 359.8 454.9 360.4 454.6C361.7 454 362.5 452.8 362.7 451.6L431.3 457.5C431.3 458.1 431.4 458.7 431.7 459.3C432.7 461.3 435.1 462.2 437.1 461.4L470 524C468.2 525.2 467.6 527.5 468.5 529.4C468.5 529.5 468.6 529.5 468.6 529.6L421.3 561.7C420.1 560.2 418 559.7 416.2 560.6C415.6 560.9 415.2 561.3 414.8 561.7L351.5 519C352.1 517.8 352.1 516.3 351.5 515ZM390 307.1L457.4 272.3C458.6 274.1 460.9 274.8 462.8 273.8C463.2 273.6 463.6 273.3 463.9 273L517.1 316.1C516.3 317.3 516.1 318.9 516.8 320.3C517.1 321 517.6 321.5 518.2 321.9L510.3 336.2L484.4 383.1C483.3 382.6 482 382.6 480.8 383.2C479.5 383.8 478.7 385 478.5 386.3L403.7 380.9C403.7 380.3 403.5 379.7 403.3 379.1C402.5 377.5 400.8 376.6 399.1 376.7L387.2 312.7C387.4 312.6 387.7 312.5 387.9 312.4C389.9 311.5 390.8 309.1 390 307.1ZM567.8 389.1C567.4 388.3 566.9 387.8 566.2 387.4L592.5 333.2C593.3 333.5 594.2 333.6 595.1 333.3L623.1 404.1C622.1 404.6 621.4 405.4 621.1 406.3L568.2 391.7C568.3 390.8 568.2 389.9 567.8 389.1ZM565.4 387C564.4 386.6 563.2 386.6 562.1 387.1L523.1 321.8C523.9 321.2 524.5 320.4 524.7 319.4L589.6 328.9C589.6 329.6 589.7 330.3 590 331C590.4 331.7 590.9 332.3 591.6 332.7L565.4 387ZM397.7 384.8C398.7 385.3 399.8 385.3 400.9 384.9L404.1 391.7L433.3 453.6C432.2 454.2 431.5 455.3 431.3 456.5L362.7 450.6C362.7 450 362.5 449.4 362.3 448.8C362 448.2 361.5 447.6 361 447.2L397.7 384.8ZM360.3 446.9C359.5 446.5 358.5 446.4 357.6 446.6L334.8 378.1C334.8 378.1 334.9 378.1 334.9 378C336.1 377.4 336.9 376.3 337.2 375L395.2 380.9C395.2 381.5 395.3 382.2 395.6 382.8C395.9 383.4 396.4 384 396.9 384.4L360.3 446.9ZM401.7 384.6C402.8 383.9 403.5 382.9 403.7 381.7L478.5 387.1C478.5 387.7 478.7 388.3 478.9 388.9C479.2 389.5 479.6 389.9 480 390.3L437.5 453.6C436.5 453 435.2 452.9 434.1 453.3L401.7 384.6ZM439.7 458L515.9 462.6C515.9 463.2 516.1 463.8 516.3 464.3C516.5 464.8 516.9 465.2 517.3 465.6L474.4 523.9C473.3 523.2 471.9 523.1 470.6 523.6L437.7 460.9C438.9 460.2 439.5 459.1 439.7 458ZM516 461.8L439.8 457.2C439.8 456.6 439.6 456 439.4 455.5C439.1 454.9 438.7 454.5 438.3 454.1L480.8 390.8C481.9 391.4 483.1 391.5 484.3 391L518 458.8C516.8 459.5 516.2 460.6 516 461.8ZM485 390.6C486.1 389.9 486.8 388.8 486.9 387.6L559.7 391.1C559.7 391.7 559.9 392.2 560.1 392.8C560.4 393.4 560.8 393.9 561.3 394.3L522 458.6C521 458.1 519.8 458 518.6 458.4L485 390.6ZM559.8 390.3L487 386.8C487 386.2 486.8 385.7 486.6 385.1C486.3 384.4 485.8 383.9 485.2 383.5L519.1 322.3C520.2 322.8 521.4 322.8 522.6 322.2L561.6 387.5C560.5 388.2 559.9 389.2 559.8 390.3ZM589.8 328.1L524.9 318.6C524.9 317.9 524.8 317.2 524.5 316.5C524.1 315.6 523.4 315 522.6 314.6L539.7 270.9C540.7 271.2 541.8 271.1 542.7 270.6C542.9 270.5 543.1 270.4 543.2 270.3L590.7 326.1C590.3 326.7 590 327.4 589.8 328.1ZM521.8 314.3C520.8 314 519.7 314.1 518.8 314.6C518.4 314.8 518 315.1 517.7 315.4L464.5 272.3C464.9 271.7 465.1 271 465.2 270.2L536.7 267.4C536.8 267.8 536.9 268.3 537.1 268.7C537.5 269.6 538.2 270.2 539 270.6L521.8 314.3ZM398.3 376.9C398.1 377 397.8 377.1 397.6 377.2C396.4 377.8 395.6 378.9 395.3 380.2L337.3 374.3C337.3 373.7 337.2 373 336.9 372.4C336.7 372 336.4 371.6 336.1 371.3L383.8 312.3C384.6 312.8 385.5 313.1 386.5 313L398.3 376.9ZM335.4 370.7C334.8 370.3 334.1 370.1 333.4 370L332.8 314.4C333.3 314.3 333.8 314.2 334.2 314C335.6 313.3 336.5 311.9 336.6 310.5L381.8 309.2C381.9 309.7 382 310.1 382.2 310.5C382.4 310.9 382.7 311.3 383 311.6L335.4 370.7ZM356.8 446.9C356.8 446.9 356.7 446.9 356.7 447C355.5 447.6 354.7 448.7 354.4 449.9L310.7 444.4C310.7 443.7 310.6 443.1 310.3 442.4C309.9 441.5 309.2 440.9 308.4 440.5L315 423.3L332.1 378.5C332.8 378.7 333.5 378.7 334.1 378.5L356.8 446.9ZM310.5 445.1L354.2 450.6C354.2 451.3 354.3 451.9 354.6 452.6C355.2 453.7 356.2 454.5 357.3 454.8L347.8 512.6C347.1 512.6 346.5 512.7 345.8 513L327.2 480.3L308.7 447.7C309.7 447 310.3 446.1 310.5 445.1ZM474.9 531C475.9 530.2 476.5 529 476.6 527.8L550 524.2C550.1 524.6 550.2 525 550.4 525.4C550.5 525.7 550.7 526 550.9 526.2L504.3 572.7C503.1 571.7 501.3 571.4 499.8 572.2L474.9 531ZM549.9 523.3L476.5 526.9C476.4 526.5 476.3 526.1 476.1 525.7C475.9 525.2 475.5 524.8 475.1 524.4L477.2 521.5L517.9 466.1C519 466.8 520.5 466.9 521.8 466.3L551.7 520C550.6 520.8 550 522 549.9 523.3ZM625.2 412.1C625.8 412.1 626.4 411.9 627 411.7C627.3 411.5 627.6 411.3 627.9 411.1L649 431.3C648 432.5 647.8 434.3 648.5 435.8C648.8 436.4 649.3 437 649.8 437.3L620.9 485.9C620.6 485.7 620.2 485.6 619.8 485.6L625.2 412.1ZM625.7 403.6C625.1 403.5 624.5 403.5 623.9 403.7L595.9 332.9C596.6 332.5 597.2 332 597.6 331.4L635.4 349.8C635 350.9 635 352.1 635.6 353.1C636.1 354.1 637 354.9 638 355.2L625.7 403.6ZM551.3 254.1C552.5 254.9 554.1 255 555.4 254.3C555.8 254.1 556.2 253.9 556.5 253.6L610.9 300.2C610 301.4 609.9 303.1 610.6 304.5C611.6 306.5 613.9 307.4 616 306.6L637.1 347.7C636.6 348.1 636.1 348.5 635.8 349L598 330.6C598.4 329.5 598.4 328.3 597.8 327.3C596.8 325.2 594.2 324.3 592.1 325.4C591.9 325.5 591.7 325.6 591.6 325.7L547.4 273.8L544 269.8C545.2 268.5 545.6 266.6 544.7 265C544.5 264.5 544.2 264.1 543.8 263.8L551.3 254.1ZM481.9 236.3L549.3 250.1C549.2 250.9 549.3 251.7 549.7 252.4C549.9 252.9 550.2 253.3 550.6 253.6L543.1 263.3C541.9 262.5 540.3 262.4 539 263.1C538.3 263.5 537.7 264 537.3 264.6L481.8 236.6C481.9 236.5 481.9 236.4 481.9 236.3ZM479.7 238.9C480.4 238.5 481 238 481.4 237.4L536.9 265.4C536.7 265.8 536.6 266.2 536.6 266.7L465.1 269.5C465 269.1 464.9 268.6 464.7 268.2C464.3 267.4 463.8 266.9 463.1 266.5L476.3 239.2C477.4 239.4 478.6 239.4 479.7 238.9ZM402.4 255.8L473.9 236.5C473.9 236.6 474 236.7 474.1 236.9C474.5 237.6 475 238.2 475.7 238.6L472.8 244.6L462.4 266C461.3 265.6 460.1 265.6 459.1 266.2C458 266.7 457.3 267.7 456.9 268.7L402.4 257C402.4 256.6 402.4 256.2 402.4 255.8ZM397.6 260.8C398.4 260.9 399.2 260.8 400 260.4C401.1 259.9 401.8 258.9 402.2 257.9L456.7 269.6C456.6 270.3 456.7 271 457 271.6L389.6 306.4C389.1 305.6 388.3 305 387.4 304.7L397.6 260.8ZM396.8 260.6L386.6 304.5C385.8 304.4 385 304.5 384.2 304.9C382.8 305.6 381.9 307 381.8 308.4L336.6 309.7C336.5 309.2 336.4 308.8 336.2 308.4C336.1 308.2 336 308.1 335.9 307.9L395.2 259.6C395.6 260 396.2 260.4 396.8 260.6ZM354.6 276.7C355.8 277.3 357.2 277.4 358.4 276.7C360.3 275.8 361.2 273.7 360.6 271.7L394.3 258.4C394.4 258.5 394.4 258.7 394.5 258.8L335.2 307.1C335.1 307 335 306.9 334.8 306.8L354.6 276.7ZM349.8 282.5L334.3 306.4C333.6 306 332.8 305.9 332.1 305.9L349.8 282.5ZM328.2 311.1C328.3 311.4 328.4 311.8 328.5 312.1C328.7 312.5 328.9 312.8 329.2 313.1L312.1 332.3L328.2 311.1ZM290.8 427.3C290.9 427.3 291 427.2 291.1 427.2C291.3 427.1 291.4 427 291.6 426.9L303.4 441.2C302.2 442.5 301.8 444.4 302.6 446.1C303.3 447.6 304.8 448.5 306.4 448.5L311.2 498.4L290.8 427.3ZM304.5 440.4C304.3 440.5 304.2 440.6 304 440.7L292.2 426.4C293.4 425.1 293.8 423.2 293 421.5C292.5 420.4 291.5 419.6 290.4 419.3L304.8 344.8C305.6 344.9 306.3 344.7 307.1 344.4C309.2 343.4 310.1 340.8 309 338.7C308.8 338.3 308.6 338 308.3 337.7L329.8 313.6C330.4 314.1 331.2 314.3 331.9 314.4L332.5 370C332 370.1 331.5 370.2 331.1 370.4C329 371.4 328.1 374 329.2 376.1C329.6 377 330.3 377.6 331.1 378L307.4 440C306.5 439.8 305.5 439.9 304.5 440.4ZM312 498.6L307.2 448.4C307.5 448.3 307.8 448.2 308.1 448.1L345.2 513.5C344.6 513.9 344.2 514.4 343.9 515L316.1 504C316.4 503 316.3 501.9 315.8 501C315.1 499.5 313.6 498.6 312 498.6ZM366.9 561.3L315.2 505.6C315.4 505.3 315.6 505 315.8 504.7L343.6 515.7C343.3 516.7 343.4 517.8 343.9 518.7C344.9 520.6 347.1 521.5 349.1 520.9L367.4 561C367.2 561.1 367 561.2 366.9 561.3ZM368.1 560.7L349.8 520.6C350.2 520.3 350.6 520 350.9 519.6L414.2 562.3C413.9 562.8 413.8 563.4 413.7 563.9L373.6 564.2C373.5 563.7 373.4 563.2 373.2 562.8C372.3 560.9 370.1 560 368.1 560.7ZM444.9 593.2L373.6 565.8C373.7 565.6 373.7 565.3 373.7 565.1L413.8 564.8C413.9 565.3 414 565.8 414.2 566.2C415.2 568.3 417.8 569.2 419.9 568.1C420.2 568 420.5 567.8 420.7 567.6L445.4 592.3C445.2 592.7 445 592.9 444.9 593.2ZM452.5 593.3C451.4 591.2 448.9 590.3 446.8 591.3C446.5 591.4 446.2 591.6 446 591.8L421.3 567.1C421.7 566.6 422 566 422.1 565.4L497.3 575.8C497.3 576.2 497.3 576.6 497.4 577L487.4 580.6L452.5 593.3ZM573.3 560.2C572.1 559.3 570.4 559.1 568.9 559.8C567.1 560.7 566.2 562.6 566.6 564.4L495.3 585.8C495.3 585.7 495.2 585.6 495.2 585.5C494.2 583.4 491.6 582.5 489.5 583.6C487.9 584.4 487 586.1 487.1 587.7L453.4 593.7L497.7 577.7C498.7 579.8 501.3 580.7 503.4 579.6C505.1 578.8 506 576.9 505.7 575.1L573 557.8C573.1 557.9 573.1 558.1 573.2 558.2C573.4 558.6 573.6 558.9 573.9 559.2L573.3 560.2ZM572.9 557.2L505.6 574.5C505.5 574.4 505.5 574.2 505.4 574.1C505.3 573.8 505.1 573.5 504.9 573.3L551.5 526.8C552.7 527.8 554.5 528.1 556.1 527.3C556.2 527.3 556.2 527.2 556.3 527.2L574.4 553.3C573.2 554.3 572.7 555.7 572.9 557.2ZM575.2 552.7C575.1 552.7 575.1 552.8 575 552.8L556.9 526.7C558.3 525.5 558.8 523.6 558.1 521.9L615.4 492.1C615.7 492.5 616 492.8 616.3 493.1L579 552.7C577.9 552.2 576.5 552.1 575.2 552.7ZM623.8 512.3C623.9 512.5 624.1 512.8 624.2 513L580 553.4C579.9 553.3 579.8 553.3 579.8 553.2L617.2 493.6C618.2 494.1 619.3 494.2 620.3 493.9L625.6 506.7C623.6 507.8 622.8 510.3 623.8 512.3ZM626.4 506.4L621.1 493.6C623.1 492.5 623.9 490 622.9 488C622.6 487.4 622.1 486.8 621.6 486.5L650.5 437.9H650.6L628.5 506.4C627.8 506.1 627.1 506.1 626.4 506.4ZM737.9 631.1C737.7 631.1 737.5 631.1 737.3 631.1L735.8 627.5C736.4 627.2 736.6 626.5 736.3 625.9C736.2 625.7 736.1 625.6 735.9 625.5L744.1 611.7L737.9 631.1ZM734.1 626.9L717.8 635.4C717.5 634.9 716.8 634.7 716.3 635L707.8 619.7C708.3 619.4 708.5 618.7 708.2 618.2C708.1 618 708 617.9 707.8 617.8L719 599.5C719.3 599.7 719.7 599.7 720.1 599.5C720.4 599.4 720.6 599.1 720.7 598.9L735.7 603.1C735.7 603.3 735.7 603.6 735.8 603.8C736 604.2 736.3 604.4 736.7 604.5C736.2 611.4 735.5 618.5 735.1 625.4C734.9 625.4 734.8 625.4 734.6 625.5C734.1 625.7 733.8 626.3 734.1 626.9ZM659.1 633.6C658.9 633.3 658.7 633.1 658.3 633L661 616.6C661.2 616.6 661.4 616.6 661.6 616.5C662 616.3 662.2 616 662.3 615.6L681.8 617.3C681.8 617.5 681.8 617.7 681.9 617.8C682.2 618.4 682.9 618.6 683.4 618.4L692.7 636.2C692.2 636.5 692 637.2 692.3 637.7L678.9 646.8C678.6 646.4 677.9 646.2 677.4 646.5C677.2 646.6 677.1 646.7 677 646.8L659 634.6C659.3 634.4 659.3 634 659.1 633.6ZM654.2 576.5C654.6 576.3 654.8 575.9 654.9 575.5L667.8 575.1C667.8 575.2 667.9 575.4 667.9 575.5C668 575.6 668 575.7 668.1 575.8L654.5 592.6C654.3 592.5 654.1 592.4 653.9 592.4L653.7 576.6C654 576.6 654.1 576.6 654.2 576.5ZM653.6 574.2L658.7 567.5L654.3 574.3C654 574.2 653.8 574.2 653.6 574.2ZM670.1 574.5L689.2 564.6C689.5 565.1 690.2 565.3 690.7 565C690.8 564.9 690.9 564.9 691 564.8L706.1 577.1C705.9 577.4 705.8 577.9 706 578.3C706.1 578.5 706.2 578.6 706.4 578.8L704.1 582.9L696.7 596.2C696.4 596.1 696 596.1 695.7 596.2C695.3 596.4 695.1 596.7 695 597.1L673.7 595.6C673.7 595.4 673.7 595.3 673.6 595.1C673.4 594.6 672.9 594.4 672.4 594.4L669 576.2C669.1 576.2 669.1 576.2 669.2 576.1C670.1 575.8 670.3 575.1 670.1 574.5ZM720.6 597.8C720.5 597.6 720.3 597.4 720.1 597.3L727.6 581.9C727.8 582 728.1 582 728.3 581.9L736.3 602C736 602.1 735.8 602.4 735.7 602.6L720.7 598.4C720.8 598.3 720.7 598.1 720.6 597.8ZM720 597.2C719.7 597.1 719.4 597.1 719.1 597.2L708 578.6C708.2 578.4 708.4 578.2 708.5 577.9L726.9 580.6C726.9 580.8 726.9 581 727 581.2C727.1 581.4 727.3 581.6 727.5 581.7L720 597.2ZM672.3 596.6C672.6 596.7 672.9 596.8 673.2 596.6L674.1 598.5L682.4 616.1C682.1 616.3 681.9 616.6 681.8 616.9L662.3 615.2C662.3 615 662.3 614.9 662.2 614.7C662.1 614.5 662 614.4 661.8 614.3L672.3 596.6ZM661.6 614.3C661.4 614.2 661.1 614.2 660.8 614.2L654.3 594.7C654.6 594.5 654.9 594.2 655 593.9L671.5 595.6C671.5 595.8 671.5 596 671.6 596.1C671.7 596.3 671.8 596.4 672 596.5L661.6 614.3ZM673.4 596.6C673.7 596.4 673.9 596.1 674 595.8L695.3 597.3C695.3 597.5 695.3 597.6 695.4 597.8C695.5 598 695.6 598.1 695.7 598.2L683.6 616.2C683.3 616 683 616 682.6 616.1L673.4 596.6ZM684.2 617.4L705.9 618.7C705.9 618.9 705.9 619 706 619.2C706.1 619.3 706.2 619.5 706.3 619.6L694.1 636.2C693.8 636 693.4 636 693 636.1L683.7 618.3C684 618 684.2 617.7 684.2 617.4ZM705.9 618.5L684.2 617.2C684.2 617 684.2 616.9 684.1 616.7C684 616.5 683.9 616.4 683.8 616.3L695.9 598.3C696.2 598.5 696.6 598.5 696.9 598.4L706.5 617.7C706.1 617.9 705.9 618.2 705.9 618.5ZM697.1 598.3C697.4 598.1 697.6 597.8 697.7 597.5L718.4 598.5C718.4 598.7 718.4 598.8 718.5 599C718.6 599.2 718.7 599.3 718.9 599.4L707.7 617.7C707.4 617.6 707.1 617.5 706.7 617.7L697.1 598.3ZM718.3 598.2L697.6 597.2C697.6 597 697.6 596.9 697.5 596.7C697.4 596.5 697.3 596.4 697.1 596.2L706.7 578.8C707 578.9 707.4 578.9 707.7 578.8L718.8 597.4C718.6 597.6 718.4 597.9 718.3 598.2ZM726.9 580.5L708.5 577.8C708.5 577.6 708.5 577.4 708.4 577.2C708.3 577 708.1 576.8 707.9 576.7L712.8 564.3C713.1 564.4 713.4 564.4 713.7 564.2C713.8 564.2 713.8 564.1 713.9 564.1L727.4 580C727 580.1 726.9 580.3 726.9 580.5ZM707.5 576.6C707.2 576.5 706.9 576.5 706.6 576.7C706.5 576.8 706.4 576.8 706.3 576.9L691.2 564.6C691.3 564.4 691.4 564.2 691.4 564L711.7 563.2C711.7 563.3 711.8 563.4 711.8 563.6C711.9 563.8 712.1 564 712.3 564.1L707.5 576.6ZM672.4 594.4C672.3 594.4 672.3 594.4 672.2 594.5C671.9 594.7 671.6 595 671.5 595.3L655 593.6C655 593.4 655 593.2 654.9 593.1C654.8 593 654.8 592.9 654.7 592.8L668.3 576C668.5 576.1 668.8 576.2 669.1 576.2L672.4 594.4ZM660.6 614.3C660.2 614.5 660 614.8 659.9 615.1L647.5 613.5C647.5 613.3 647.5 613.1 647.4 612.9C647.3 612.7 647.1 612.5 646.9 612.4L648.8 607.5L653.7 594.8C653.9 594.9 654.1 594.9 654.3 594.8L660.6 614.3ZM647.5 613.8L659.9 615.4C659.9 615.6 659.9 615.8 660 616C660.2 616.3 660.4 616.5 660.8 616.6L658.1 633C657.9 633 657.7 633 657.5 633.1L652.2 623.8L646.9 614.5C647.2 614.3 647.4 614.1 647.5 613.8ZM692.5 638C692.8 638.4 693.4 638.6 693.9 638.3L701 650C700.8 650.2 700.6 650.4 700.6 650.7L679.2 647.7C679.2 647.5 679.2 647.3 679.1 647.1L692.5 638ZM694.2 638.2C694.5 638 694.7 637.6 694.7 637.3L715.6 636.3C715.6 636.4 715.7 636.5 715.7 636.7C715.7 636.8 715.8 636.9 715.8 636.9L702.6 650C702.2 649.7 701.7 649.6 701.3 649.8L694.2 638.2ZM715.5 636L694.6 637C694.6 636.9 694.5 636.8 694.5 636.6C694.4 636.5 694.3 636.3 694.2 636.2L694.8 635.4L706.4 619.6C706.7 619.8 707.1 619.8 707.5 619.7L716 635C715.7 635.3 715.6 635.6 715.5 636ZM736.9 604.4C737.1 604.4 737.2 604.4 737.4 604.3C737.5 604.3 737.6 604.2 737.7 604.1L743.7 609.8C743.4 610.2 743.4 610.6 743.6 611.1C743.7 611.3 743.8 611.4 744 611.5L735.8 625.3C735.7 625.3 735.6 625.2 735.5 625.2L736.9 604.4ZM744.1 606.2L742.6 596.3C742.8 596.4 743 596.4 743.2 596.4L744.1 606.2ZM742.7 594H742.6C742.5 594.1 742.4 594.1 742.3 594.2L741.5 589.3L742.7 594ZM740.8 588.3C740.9 588.3 741 588.3 741 588.3L742 594.6C741.8 594.9 741.8 595.4 742 595.7C742.1 595.8 742.2 595.9 742.3 596L744.4 609.3C744.3 609.3 744.2 609.3 744.2 609.4C744.1 609.4 744 609.5 743.9 609.6L737.9 603.9C738.2 603.5 738.2 603.1 738 602.6C737.9 602.3 737.6 602.1 737.3 602L740.8 588.3ZM737.1 602C736.9 602 736.8 602 736.6 602L728.6 581.9C728.8 581.8 729 581.6 729.1 581.5L739.9 586.7C739.8 587 739.8 587.3 740 587.7C740.1 588 740.4 588.2 740.7 588.3L737.1 602ZM715.9 559.5C716.2 559.7 716.7 559.8 717.1 559.6C717.2 559.5 717.3 559.5 717.4 559.4L732.9 572.7C732.7 573 732.6 573.5 732.8 573.9C733.1 574.5 733.7 574.7 734.3 574.5L740.3 586.2C740.1 586.3 740 586.4 739.9 586.6L729.1 581.4C729.2 581.1 729.2 580.8 729.1 580.4C728.8 579.8 728.1 579.6 727.5 579.8C727.4 579.8 727.4 579.9 727.3 579.9L714.7 565.2L713.7 564.1C714 563.7 714.1 563.2 713.9 562.7C713.8 562.6 713.7 562.5 713.6 562.4L715.9 559.5ZM696.2 554.4L715.4 558.3C715.4 558.5 715.4 558.7 715.5 559C715.6 559.1 715.7 559.2 715.8 559.3L713.7 562.1C713.4 561.9 712.9 561.8 712.5 562C712.3 562.1 712.1 562.3 712 562.4L696.2 554.4ZM695.6 555.1C695.8 555 696 554.8 696.1 554.7L711.9 562.7C711.9 562.8 711.8 562.9 711.8 563.1L691.5 563.9C691.5 563.8 691.4 563.7 691.4 563.5C691.3 563.3 691.1 563.1 690.9 563L694.7 555.2C694.9 555.3 695.3 555.3 695.6 555.1ZM673.6 560L693.9 554.5V554.6C694 554.8 694.2 555 694.4 555.1L693.6 556.8L690.7 562.9C690.4 562.8 690.1 562.8 689.7 562.9C689.4 563.1 689.2 563.3 689.1 563.6L673.6 560.3C673.6 560.2 673.6 560.1 673.6 560ZM672.2 561.3C672.4 561.3 672.7 561.3 672.9 561.2C673.2 561 673.4 560.8 673.5 560.5L689 563.8C689 564 689 564.2 689.1 564.4L669.9 574.3C669.7 574.1 669.5 573.9 669.3 573.8L672.2 561.3ZM672 561.3L669.1 573.8C668.9 573.8 668.6 573.8 668.4 573.9C668 574.1 667.8 574.5 667.7 574.9L654.8 575.3C654.8 575.2 654.7 575 654.7 574.9C654.7 574.9 654.7 574.8 654.6 574.8L671.4 561.1C671.7 561.1 671.8 561.2 672 561.3ZM659.9 566.1L660.5 566.3L660.6 566C660.8 566 661 566 661.1 565.9C661.6 565.6 661.9 565 661.7 564.5L671.3 560.7C671.3 560.7 671.3 560.8 671.4 560.8L654.6 574.5L654.5 574.4L659.9 566.1ZM647.7 561.9C647.8 561.8 647.9 561.7 648 561.6C648 561.5 648.1 561.5 648.1 561.4L659.6 565.9L653.3 574.2H653.2C653 574.3 652.8 574.5 652.7 574.7L647.7 561.9ZM652.5 575.7C652.5 575.8 652.6 575.9 652.6 576C652.7 576.1 652.7 576.2 652.8 576.3L647.9 581.8L652.5 575.7ZM641.9 608.7C642 608.6 642.1 608.6 642.1 608.6L645.4 612.7C645 613.1 644.9 613.6 645.2 614.1C645.4 614.5 645.8 614.8 646.3 614.8L647.7 629L641.9 608.7ZM645.8 612.4L645.7 612.5L642.4 608.4C642.8 608 642.9 607.5 642.6 607C642.4 606.7 642.2 606.5 641.9 606.4L646 585.2C646.2 585.2 646.4 585.2 646.6 585.1C647.2 584.8 647.4 584.1 647.2 583.5C647.1 583.4 647.1 583.3 647 583.2L653.1 576.4C653.3 576.5 653.5 576.6 653.7 576.6L653.9 592.4C653.8 592.4 653.6 592.5 653.5 592.5C652.9 592.8 652.7 593.5 652.9 594.1C653 594.3 653.2 594.5 653.4 594.6L646.7 612.2C646.3 612.3 646 612.3 645.8 612.4ZM647.9 629L646.5 614.7C646.6 614.7 646.7 614.7 646.8 614.6L657.4 633.2C657.2 633.3 657.1 633.5 657 633.6L649.1 630.5C649.2 630.2 649.2 629.9 649 629.6C648.8 629.2 648.4 629 647.9 629ZM663.5 646.8L648.8 631C648.9 630.9 648.9 630.8 649 630.8L656.9 633.9C656.8 634.2 656.8 634.5 657 634.8C657.3 635.4 657.9 635.6 658.5 635.4L663.7 646.8C663.6 646.7 663.5 646.8 663.5 646.8ZM663.8 646.6L658.6 635.2C658.7 635.1 658.8 635 658.9 634.9L676.9 647.1C676.8 647.2 676.8 647.4 676.8 647.6L665.4 647.7C665.4 647.6 665.3 647.4 665.3 647.3C665.1 646.7 664.4 646.4 663.8 646.6ZM685.7 655.9L665.4 648.1C665.4 648 665.4 648 665.4 647.9L676.8 647.8C676.8 647.9 676.9 648.1 676.9 648.2C677.2 648.8 677.9 649 678.5 648.8C678.6 648.8 678.7 648.7 678.7 648.7L685.7 655.7C685.8 655.7 685.7 655.8 685.7 655.9ZM687.8 655.9C687.5 655.3 686.8 655 686.2 655.3C686.1 655.3 686 655.4 686 655.4L679 648.4C679.1 648.3 679.2 648.1 679.2 647.9L700.6 650.9C700.6 651 700.6 651.1 700.6 651.2L697.7 652.2L687.8 655.9ZM722.2 646.5C721.8 646.2 721.4 646.2 721 646.4C720.5 646.6 720.2 647.2 720.3 647.7L700 653.8C700 653.8 700 653.8 700 653.7C699.7 653.1 699 652.9 698.4 653.1C697.9 653.3 697.7 653.8 697.7 654.3L688.1 656L700.7 651.5C701 652.1 701.7 652.3 702.3 652.1C702.8 651.9 703 651.3 703 650.8L722.1 645.9C722.1 645.9 722.1 646 722.2 646C722.3 646.1 722.3 646.2 722.4 646.3L722.2 646.5ZM722.1 645.6L703 650.5V650.4C703 650.3 702.9 650.2 702.9 650.2L716 637C716.4 637.3 716.9 637.4 717.3 637.1C717.3 637.1 717.3 637.1 717.4 637.1L722.5 644.5C722.2 644.8 722 645.2 722.1 645.6ZM723.8 644.4C723.5 644.2 723.1 644.2 722.7 644.4C722.7 644.4 722.7 644.4 722.6 644.4L717.5 637C717.9 636.7 718 636.1 717.8 635.6L734.1 627.1C734.2 627.2 734.3 627.3 734.4 627.4L723.8 644.4ZM724.1 644.5C724.1 644.5 724 644.5 724.1 644.5L734.7 627.5C735 627.6 735.3 627.7 735.6 627.6L737.1 631.2C736.5 631.5 736.3 632.2 736.6 632.8C736.6 632.9 736.7 632.9 736.7 633L724.1 644.5ZM750.5 650.3C750.4 650.5 750.3 650.6 750.2 650.8L724.6 644.7L736.8 633.2C737.2 633.5 737.7 633.6 738.1 633.4L737.9 633.6L750.6 650.2L750.5 650.3ZM935.3 715.8C935.2 715.8 935.2 715.9 935.1 715.9C934.9 716 934.7 716.1 934.5 716.3L933.1 707.5L935.3 715.8ZM936.9 746.5C937.1 746.8 937.3 747.1 937.6 747.3L922.8 772.1C922.6 772 922.4 772 922.3 771.9L925.1 734.4C925.4 734.4 925.7 734.3 926 734.2C926.2 734.1 926.3 734 926.5 733.9L937.3 744.2C936.7 744.8 936.6 745.7 936.9 746.5ZM919.9 774.9L890.6 790.1C890 789.2 888.9 788.9 887.9 789.3L872.6 761.9C873.5 761.3 873.8 760.1 873.3 759.2C873.1 758.9 872.9 758.6 872.7 758.4L892.8 725.6C893.4 725.9 894.1 725.9 894.7 725.6C895.2 725.3 895.6 724.9 895.8 724.4L922.8 731.9C922.7 732.3 922.8 732.8 923 733.2C923.3 733.8 923.9 734.3 924.6 734.4C923.7 746.8 922.5 759.5 921.8 771.9C921.5 771.9 921.2 772 920.9 772.1C919.9 772.6 919.5 773.8 919.9 774.9ZM821.2 811.2C821.2 811.2 821.1 811.2 821.2 811.2L845.3 794.7C845.9 795.4 847 795.7 847.9 795.3L860.6 816.3C860.2 816.6 859.9 817 859.8 817.5L821.4 812.2C821.4 811.9 821.3 811.6 821.2 811.2ZM785.2 787C784.9 786.4 784.4 786 783.8 785.9L788.6 756.4C789 756.4 789.3 756.4 789.7 756.2C790.3 755.9 790.8 755.3 790.9 754.6L825.9 757.6C825.9 757.9 826 758.2 826.1 758.5C826.6 759.5 827.8 760 828.9 759.6L845.7 791.7C844.8 792.3 844.5 793.5 844.9 794.5V794.6L820.7 811C820.1 810.2 819 810 818.1 810.4C817.8 810.5 817.6 810.7 817.4 811L785.2 789C785.5 788.4 785.6 787.6 785.2 787ZM804.9 680.8L839.3 663C839.9 663.9 841.1 664.3 842.1 663.8C842.3 663.7 842.5 663.5 842.7 663.4L869.9 685.4C869.5 686 869.4 686.8 869.8 687.6C870 687.9 870.2 688.2 870.5 688.4L866.5 695.7L853.3 719.6C852.7 719.4 852.1 719.4 851.5 719.6C850.9 719.9 850.4 720.5 850.3 721.2L812.1 718.4C812.1 718.1 812 717.8 811.9 717.5C811.5 716.7 810.6 716.2 809.8 716.3L803.7 683.6C803.8 683.6 803.9 683.5 804.1 683.5C804.9 683 805.3 681.8 804.9 680.8ZM895.7 722.6C895.5 722.2 895.2 721.9 894.9 721.7L908.3 694C908.7 694.2 909.2 694.2 909.6 694.1L923.9 730.3C923.4 730.6 923.1 731 922.9 731.4L895.9 723.9C896 723.5 895.9 723.1 895.7 722.6ZM894.5 721.6C894 721.4 893.4 721.4 892.8 721.7L873 688.3C873.4 688 873.7 687.6 873.8 687.1L906.9 692C906.9 692.4 907 692.7 907.1 693.1C907.3 693.5 907.6 693.8 907.9 694L894.5 721.6ZM808.9 720.5C809.4 720.7 810 720.8 810.5 720.6L812.1 724.1L827 755.7C826.5 756 826.1 756.6 826 757.2L791 754.2C791 753.9 790.9 753.6 790.8 753.3C790.6 753 790.4 752.7 790.1 752.5L808.9 720.5ZM789.7 752.2C789.3 752 788.8 751.9 788.3 752.1L776.7 717.1C776.7 717.1 776.7 717.1 776.8 717.1C777.4 716.8 777.8 716.2 778 715.6L807.6 718.6C807.6 718.9 807.7 719.3 807.8 719.6C808 719.9 808.2 720.2 808.5 720.4L789.7 752.2ZM810.9 720.4C811.5 720.1 811.8 719.5 811.9 718.9L850.1 721.7C850.1 722 850.2 722.3 850.3 722.6C850.4 722.9 850.6 723.1 850.9 723.3L829.2 755.6C828.7 755.3 828 755.3 827.4 755.5L810.9 720.4ZM830.3 757.8L869.2 760.2C869.2 760.5 869.3 760.8 869.4 761.1C869.5 761.4 869.7 761.6 869.9 761.8L848 791.6C847.4 791.3 846.7 791.2 846.1 791.5L829.3 759.4C829.9 759 830.2 758.4 830.3 757.8ZM869.3 759.8L830.4 757.4C830.4 757.1 830.3 756.8 830.2 756.5C830.1 756.2 829.9 756 829.6 755.8L851.3 723.5C851.8 723.8 852.5 723.8 853.1 723.6L870.3 758.3C869.7 758.6 869.4 759.2 869.3 759.8ZM853.4 723.4C854 723.1 854.3 722.5 854.4 721.9L891.6 723.7C891.6 724 891.7 724.3 891.8 724.5C892 724.8 892.2 725.1 892.4 725.3L872.3 758.1C871.8 757.8 871.2 757.8 870.6 758L853.4 723.4ZM891.6 723.3L854.4 721.5C854.4 721.2 854.3 720.9 854.2 720.7C854 720.4 853.8 720.1 853.5 719.9L870.8 688.6C871.4 688.8 872 688.8 872.6 688.6L892.5 721.9C892 722.2 891.7 722.7 891.6 723.3ZM907 691.5L873.9 686.6C873.9 686.2 873.8 685.9 873.7 685.5C873.5 685.1 873.1 684.7 872.7 684.5L881.5 662.2C882 662.3 882.5 662.3 883 662.1C883.1 662.1 883.2 662 883.3 661.9L907.6 690.4C907.3 690.8 907.1 691.1 907 691.5ZM872.2 684.4C871.7 684.3 871.2 684.3 870.7 684.5C870.5 684.6 870.3 684.8 870.1 684.9L843 663C843.2 662.7 843.3 662.3 843.4 661.9L879.9 660.5C879.9 660.7 880 660.9 880.1 661.2C880.3 661.6 880.7 662 881.1 662.2L872.2 684.4ZM809.2 716.4C809.1 716.4 809 716.5 808.8 716.5C808.2 716.8 807.8 717.4 807.6 718L778 715C778 714.7 777.9 714.3 777.8 714C777.7 713.8 777.5 713.6 777.4 713.4L801.8 683.3C802.2 683.6 802.7 683.7 803.2 683.6L809.2 716.4ZM777 713.2C776.7 713 776.4 712.9 776 712.9L775.7 684.5C775.9 684.5 776.2 684.4 776.4 684.3C777.1 683.9 777.6 683.2 777.6 682.5L800.7 681.8C800.7 682 800.8 682.3 800.9 682.5C801 682.7 801.2 682.9 801.3 683.1L777 713.2ZM787.9 752.1C787.9 752.2 787.9 752.2 787.9 752.1C787.2 752.4 786.8 753 786.7 753.6L764.4 750.8C764.4 750.5 764.3 750.1 764.2 749.8C764 749.4 763.6 749 763.2 748.8L766.6 740L775.3 717.1C775.6 717.2 776 717.2 776.3 717.1L787.9 752.1ZM764.3 751.3L786.6 754.1C786.6 754.4 786.7 754.8 786.8 755.1C787.1 755.7 787.6 756.1 788.2 756.2L783.4 785.7C783.1 785.7 782.7 785.7 782.4 785.9L772.9 769.2L763.4 752.5C763.9 752.2 764.2 751.8 764.3 751.3ZM848.3 795.1C848.8 794.7 849.1 794.1 849.2 793.5L886.7 791.6C886.7 791.8 886.8 792 886.9 792.2C887 792.4 887.1 792.5 887.2 792.6L863.4 816.3C862.8 815.8 861.9 815.6 861.1 816L848.3 795.1ZM886.6 791.2L849.1 793.1C849.1 792.9 849 792.7 848.9 792.5C848.8 792.2 848.6 792 848.4 791.8L849.5 790.3L870.3 762C870.9 762.3 871.6 762.4 872.3 762.1L887.6 789.5C887 789.9 886.6 790.5 886.6 791.2ZM925.3 730.1C925 730.1 924.7 730.1 924.4 730.2L910.1 694C910.5 693.8 910.8 693.5 911 693.2L930.3 702.6C930.1 703.1 930.1 703.8 930.4 704.3C930.7 704.8 931.1 705.2 931.6 705.4L925.3 730.1ZM887.3 653.7C887.9 654.1 888.7 654.2 889.4 653.8C889.6 653.7 889.8 653.6 889.9 653.4L917.7 677.2C917.3 677.8 917.2 678.7 917.5 679.4C918 680.4 919.2 680.9 920.2 680.5L931 701.5C930.7 701.7 930.5 701.9 930.3 702.2L911 692.8C911.2 692.3 911.2 691.6 910.9 691.1C910.4 690 909.1 689.6 908 690.1C907.9 690.1 907.8 690.2 907.7 690.3L885.1 663.8L883.4 661.8C884 661.2 884.2 660.2 883.8 659.3C883.7 659.1 883.5 658.9 883.3 658.7L887.3 653.7ZM851.9 644.6L886.3 651.6C886.3 652 886.3 652.4 886.5 652.8C886.6 653 886.8 653.2 887 653.4L883.2 658.3C882.6 657.9 881.8 657.8 881.1 658.2C880.7 658.4 880.4 658.7 880.2 659L851.9 644.7C851.8 644.7 851.9 644.6 851.9 644.6ZM850.8 645.9C851.2 645.7 851.5 645.4 851.7 645.1L880 659.4C879.9 659.6 879.9 659.8 879.9 660L843.4 661.4C843.4 661.2 843.3 661 843.2 660.7C843 660.3 842.7 660 842.4 659.8L849.2 645.8C849.6 646.2 850.2 646.2 850.8 645.9ZM811.2 654.6L847.7 644.7C847.7 644.8 847.8 644.8 847.8 644.9C848 645.3 848.3 645.6 848.6 645.8L847.1 648.9L841.8 659.8C841.3 659.6 840.6 659.6 840.1 659.9C839.5 660.2 839.2 660.6 839 661.2L811.2 655.2C811.3 655 811.3 654.8 811.2 654.6ZM808.8 657.1C809.2 657.2 809.6 657.1 810 656.9C810.6 656.6 810.9 656.2 811.1 655.6L838.9 661.6C838.9 661.9 838.9 662.3 839 662.6L804.6 680.4C804.3 680 803.9 679.7 803.5 679.5L808.8 657.1ZM808.4 657L803.2 679.4C802.8 679.3 802.4 679.4 802 679.6C801.3 680 800.8 680.7 800.8 681.4L777.7 682.1C777.7 681.9 777.6 681.6 777.5 681.4C777.5 681.3 777.4 681.2 777.4 681.2L807.7 656.5C807.8 656.7 808.1 656.9 808.4 657ZM786.8 665.2C787.4 665.5 788.1 665.5 788.8 665.2C789.8 664.7 790.2 663.6 789.9 662.7L807.1 655.9C807.1 656 807.2 656 807.2 656.1L777 680.8C776.9 680.7 776.9 680.7 776.8 680.6L786.8 665.2ZM784.4 668.2L776.5 680.4C776.2 680.2 775.8 680.1 775.4 680.2L784.4 668.2ZM773.3 682.8C773.3 683 773.4 683.1 773.5 683.3C773.6 683.5 773.7 683.7 773.8 683.8L765 693.6L773.3 682.8ZM754.2 742.2C754.3 742.2 754.3 742.2 754.4 742.1C754.5 742.1 754.6 742 754.6 742L760.6 749.3C760 749.9 759.8 750.9 760.2 751.8C760.6 752.6 761.3 753 762.1 753L764.6 778.5L754.2 742.2ZM761.2 748.8C761.1 748.8 761 748.9 760.9 748.9L754.9 741.6C755.5 741 755.7 740 755.3 739.1C755 738.5 754.5 738.1 754 738L761.4 699.9C761.8 699.9 762.2 699.9 762.6 699.7C763.7 699.2 764.1 697.9 763.6 696.8C763.5 696.6 763.4 696.4 763.3 696.3L774.3 684C774.6 684.2 775 684.4 775.4 684.4L775.7 712.8C775.5 712.8 775.2 712.9 775 713C773.9 713.5 773.5 714.8 774 715.9C774.2 716.3 774.6 716.7 775 716.9L762.9 748.6C762.3 748.6 761.7 748.6 761.2 748.8ZM765.1 778.6L762.6 752.9C762.8 752.9 762.9 752.8 763.1 752.8L782.1 786.2C781.8 786.4 781.6 786.7 781.4 787L767.2 781.4C767.3 780.9 767.3 780.3 767.1 779.8C766.7 779 765.9 778.6 765.1 778.6ZM793.1 810.6L766.7 782.2C766.8 782.1 766.9 781.9 767 781.8L781.2 787.4C781.1 787.9 781.1 788.5 781.3 789C781.8 790 782.9 790.4 784 790.1L793.3 810.6C793.3 810.5 793.2 810.6 793.1 810.6ZM793.7 810.3L784.4 789.8C784.6 789.7 784.8 789.5 785 789.3L817.3 811.1C817.2 811.4 817.1 811.6 817.1 811.9L796.6 812C796.6 811.8 796.5 811.5 796.4 811.3C795.9 810.4 794.7 809.9 793.7 810.3ZM832.9 826.9L796.5 812.9C796.5 812.8 796.6 812.7 796.6 812.5L817.1 812.4C817.1 812.6 817.2 812.9 817.3 813.1C817.8 814.2 819.1 814.6 820.2 814.1C820.4 814 820.5 813.9 820.6 813.8L833.2 826.4C833.1 826.6 833 826.8 832.9 826.9ZM836.9 826.9C836.4 825.8 835.1 825.4 834 825.9C833.8 826 833.7 826.1 833.6 826.2L821 813.6C821.2 813.3 821.4 813 821.4 812.7L859.8 818C859.8 818.2 859.8 818.4 859.9 818.6L854.8 820.5L836.9 826.9ZM898.6 810C898 809.5 897.1 809.5 896.4 809.8C895.5 810.2 895 811.2 895.2 812.2L858.8 823.1C858.8 823.1 858.8 823 858.7 823C858.2 821.9 856.9 821.5 855.8 822C855 822.4 854.5 823.3 854.6 824.1L837.4 827.2L860 819C860.5 820.1 861.8 820.5 862.9 820C863.8 819.6 864.2 818.6 864.1 817.7L898.5 808.8C898.5 808.9 898.6 808.9 898.6 809C898.7 809.2 898.8 809.4 899 809.5L898.6 810ZM898.3 808.5L863.9 817.4C863.9 817.3 863.8 817.3 863.8 817.2C863.7 817 863.6 816.9 863.5 816.8L887.3 793.1C887.9 793.6 888.8 793.8 889.6 793.4H889.7L898.9 806.7C898.5 807 898.2 807.8 898.3 808.5ZM899.5 806.2C899.5 806.2 899.5 806.3 899.5 806.2L890.2 792.9C890.9 792.3 891.2 791.3 890.8 790.4L920.1 775.2C920.2 775.4 920.4 775.6 920.6 775.7L901.5 806.1C900.9 805.9 900.2 805.9 899.5 806.2ZM924.3 785.6C924.4 785.7 924.4 785.8 924.5 785.9L901.9 806.5L901.8 806.4L920.9 776C921.4 776.2 922 776.3 922.5 776.1L925.2 782.7C924.2 783.3 923.8 784.5 924.3 785.6ZM926.7 782.5C926.3 782.4 926 782.4 925.6 782.5L922.9 775.9C923.9 775.3 924.3 774.1 923.8 773C923.6 772.7 923.4 772.4 923.1 772.2L937.9 747.4H938L926.7 782.5ZM937.9 743.6C937.7 743.7 937.6 743.8 937.4 743.9L926.6 733.6C927.1 733 927.2 732.1 926.8 731.3C926.5 730.8 926.1 730.4 925.6 730.2L931.8 705.5C931.9 705.5 932.1 705.5 932.2 705.5L934 716.8C933.7 717.4 933.6 718.1 934 718.8C934.1 719 934.3 719.2 934.5 719.4L938.2 743.4C938.2 743.5 938.1 743.5 937.9 743.6ZM935.1 719.8C935.4 720 935.8 720 936.1 720L937.9 737.5L935.1 719.8Z" fill="#2A0000"/>
</svg>
