<?xml version="1.0" encoding="utf-8"?>
<!-- Generator: Adobe Illustrator 15.0.2, SVG Export Plug-In . SVG Version: 6.00 Build 0)  -->
<!DOCTYPE svg PUBLIC "-//W3C//DTD SVG 1.1//EN" "http://www.w3.org/Graphics/SVG/1.1/DTD/svg11.dtd">
<svg version="1.1" id="Layer_1" xmlns="http://www.w3.org/2000/svg" xmlns:xlink="http://www.w3.org/1999/xlink" x="0px" y="0px"
	 width="69px" height="69px" viewBox="0 0 69 69" enable-background="new 0 0 69 69" xml:space="preserve">
<path fill="#234D7D" d="M56.807,58.449h-0.068v0.064c0,2.321-1.881,4.209-4.194,4.209H52.48v0.067c0,2.319-1.881,4.207-4.194,4.207
	H14.195c-2.313,0-4.194-1.888-4.194-4.207V15.759c0-2.319,1.882-4.209,4.194-4.209h0.065v-0.065c0-2.322,1.881-4.21,4.194-4.21
	h0.067V7.207C18.522,4.888,20.404,3,22.717,3h34.09C59.118,3,61,4.888,61,7.207v47.031C61,56.563,59.118,58.449,56.807,58.449
	L56.807,58.449z M52.479,60.719h0.064c1.212,0,2.199-0.986,2.199-2.205V41.346h-2.264V60.719L52.479,60.719z M11.996,62.791
	c0,1.216,0.987,2.206,2.199,2.206h34.089c1.212,0,2.194-0.99,2.194-2.206V45.622H11.996V62.791L11.996,62.791z M14.195,13.554
	c-1.212,0-2.199,0.99-2.199,2.206v27.858h38.482V15.759c0-1.215-0.982-2.206-2.194-2.206L14.195,13.554L14.195,13.554z
	 M18.455,9.279c-1.213,0-2.196,0.99-2.196,2.206v0.065h32.025c2.313,0,4.194,1.89,4.194,4.209v23.585h2.264V11.485
	c0-1.215-0.987-2.206-2.199-2.206H18.455L18.455,9.279z M59.001,7.207c0-1.215-0.983-2.202-2.194-2.202h-34.09
	c-1.212,0-2.199,0.987-2.199,2.202v0.068h32.025c2.313,0,4.193,1.888,4.193,4.21v23.582h2.265V7.207L59.001,7.207z M59.001,37.07
	h-2.265v19.375h0.068c1.213,0,2.195-0.991,2.195-2.207L59.001,37.07L59.001,37.07z M45.086,52.034H17.391
	c-0.552,0-0.999-0.447-0.999-1.003c0-0.551,0.447-1.002,0.999-1.002h27.695c0.553,0,0.999,0.451,0.999,1.002
	C46.085,51.587,45.639,52.034,45.086,52.034L45.086,52.034z M34.434,60.586H17.391c-0.552,0-0.999-0.449-0.999-1.002
	s0.447-1.002,0.999-1.002h17.043c0.552,0,1,0.449,1,1.002C35.434,60.141,34.985,60.586,34.434,60.586L34.434,60.586z M23.781,56.313
	H17.39c-0.552,0-0.999-0.451-0.999-1.002c0-0.557,0.447-1.004,0.999-1.004h6.391c0.552,0,0.999,0.447,0.999,1.004
	C24.78,55.861,24.333,56.313,23.781,56.313L23.781,56.313z M45.086,56.313H28.043c-0.552,0-0.999-0.451-0.999-1.002
	c0-0.557,0.447-1.004,0.999-1.004h17.043c0.553,0,0.999,0.447,0.999,1.004C46.085,55.861,45.639,56.313,45.086,56.313L45.086,56.313
	z"/>
<g>
	<path fill="#234D7D" d="M18.516,37.297c0,0.075-0.023,0.143-0.072,0.203c-0.049,0.06-0.13,0.108-0.242,0.146
		c-0.113,0.038-0.263,0.068-0.45,0.091s-0.428,0.033-0.72,0.033c-0.285,0-0.523-0.011-0.715-0.033s-0.344-0.053-0.455-0.091
		c-0.113-0.037-0.193-0.086-0.242-0.146c-0.049-0.061-0.074-0.128-0.074-0.203v-13.75c0-0.075,0.025-0.143,0.074-0.203
		c0.049-0.06,0.131-0.108,0.247-0.146c0.116-0.037,0.269-0.066,0.456-0.09c0.188-0.021,0.424-0.033,0.709-0.033
		c0.292,0,0.532,0.012,0.72,0.033c0.188,0.023,0.337,0.053,0.45,0.09c0.112,0.038,0.193,0.087,0.242,0.146
		c0.049,0.061,0.072,0.128,0.072,0.203V37.297z"/>
	<path fill="#234D7D" d="M33.004,36.667c0,0.173-0.029,0.326-0.09,0.461c-0.061,0.136-0.141,0.248-0.242,0.338
		c-0.101,0.09-0.221,0.156-0.359,0.197s-0.279,0.062-0.422,0.062h-1.26c-0.264,0-0.49-0.026-0.682-0.079
		c-0.191-0.052-0.367-0.147-0.529-0.286c-0.16-0.139-0.316-0.327-0.467-0.563c-0.15-0.235-0.318-0.541-0.506-0.916l-3.623-6.808
		c-0.211-0.406-0.424-0.843-0.642-1.312s-0.413-0.925-0.585-1.367h-0.022c0.03,0.54,0.052,1.079,0.067,1.614
		c0.015,0.537,0.022,1.09,0.022,1.66v7.618c0,0.075-0.021,0.143-0.062,0.202c-0.041,0.061-0.113,0.11-0.215,0.152
		c-0.101,0.041-0.238,0.073-0.41,0.096s-0.394,0.033-0.664,0.033c-0.262,0-0.48-0.011-0.652-0.033
		c-0.173-0.022-0.308-0.055-0.405-0.096c-0.098-0.042-0.165-0.092-0.202-0.152c-0.038-0.06-0.057-0.127-0.057-0.202V24.199
		c0-0.353,0.104-0.617,0.31-0.793s0.46-0.265,0.76-0.265h1.587c0.285,0,0.524,0.024,0.72,0.073c0.194,0.049,0.369,0.129,0.522,0.242
		c0.154,0.112,0.299,0.268,0.434,0.467s0.273,0.444,0.416,0.736l2.836,5.322c0.165,0.323,0.328,0.641,0.49,0.951
		c0.16,0.312,0.316,0.623,0.467,0.934c0.149,0.313,0.296,0.617,0.438,0.918c0.143,0.3,0.281,0.6,0.417,0.9h0.011
		c-0.022-0.525-0.04-1.073-0.051-1.643c-0.011-0.57-0.017-1.115-0.017-1.633v-6.83c0-0.074,0.021-0.143,0.067-0.202
		c0.045-0.06,0.12-0.112,0.226-0.157c0.104-0.045,0.243-0.077,0.416-0.096c0.172-0.02,0.394-0.028,0.664-0.028
		c0.254,0,0.469,0.009,0.641,0.028c0.173,0.019,0.306,0.051,0.399,0.096s0.159,0.098,0.197,0.157
		c0.037,0.06,0.056,0.128,0.056,0.202V36.667z"/>
	<path fill="#234D7D" d="M47.492,36.667c0,0.173-0.03,0.326-0.09,0.461c-0.061,0.136-0.141,0.248-0.242,0.338
		s-0.222,0.156-0.36,0.197s-0.279,0.062-0.422,0.062h-1.26c-0.263,0-0.489-0.026-0.681-0.079c-0.191-0.052-0.368-0.147-0.529-0.286
		s-0.316-0.327-0.467-0.563c-0.15-0.235-0.319-0.541-0.507-0.916l-3.623-6.808c-0.21-0.406-0.424-0.843-0.642-1.312
		c-0.217-0.469-0.412-0.925-0.585-1.367h-0.022c0.03,0.54,0.053,1.079,0.067,1.614c0.016,0.537,0.022,1.09,0.022,1.66v7.618
		c0,0.075-0.021,0.143-0.062,0.202c-0.041,0.061-0.112,0.11-0.214,0.152c-0.102,0.041-0.238,0.073-0.41,0.096
		c-0.173,0.022-0.395,0.033-0.664,0.033c-0.263,0-0.48-0.011-0.653-0.033c-0.172-0.022-0.308-0.055-0.404-0.096
		c-0.098-0.042-0.165-0.092-0.203-0.152c-0.037-0.06-0.056-0.127-0.056-0.202V24.199c0-0.353,0.103-0.617,0.31-0.793
		c0.206-0.176,0.459-0.265,0.759-0.265h1.587c0.285,0,0.525,0.024,0.72,0.073c0.195,0.049,0.37,0.129,0.523,0.242
		c0.153,0.112,0.298,0.268,0.434,0.467c0.135,0.199,0.273,0.444,0.416,0.736l2.836,5.322c0.165,0.323,0.328,0.641,0.489,0.951
		c0.161,0.312,0.316,0.623,0.467,0.934c0.15,0.313,0.296,0.617,0.438,0.918c0.143,0.3,0.282,0.6,0.417,0.9h0.011
		c-0.022-0.525-0.039-1.073-0.051-1.643c-0.011-0.57-0.017-1.115-0.017-1.633v-6.83c0-0.074,0.022-0.143,0.067-0.202
		s0.12-0.112,0.226-0.157c0.104-0.045,0.243-0.077,0.416-0.096c0.173-0.02,0.394-0.028,0.664-0.028c0.255,0,0.469,0.009,0.642,0.028
		c0.172,0.019,0.306,0.051,0.399,0.096s0.159,0.098,0.196,0.157c0.038,0.06,0.057,0.128,0.057,0.202V36.667z"/>
</g>
</svg>
