<svg width="239" height="120" viewBox="0 0 239 120" fill="none" xmlns="http://www.w3.org/2000/svg">
<path d="M239 0H0V120H239V0Z" fill="#C6C6C6"/>
<path d="M17.7036 44.8683V30.2651C17.7036 22.7166 21.7783 18.5543 28.5928 18.5543C35.5478 18.5543 39.482 22.7166 39.763 30.1945H33.37C33.1592 26.4556 31.6137 24.833 28.5225 24.833C25.8529 24.833 24.3074 26.5261 24.3074 30.3356V45.0093C24.3074 48.6778 25.9232 50.3709 28.5928 50.3709C31.7542 50.3709 33.2997 48.7483 33.5807 45.0799H39.9737C39.6927 52.4873 35.6181 56.579 28.663 56.579C21.8485 56.5085 17.7036 52.4168 17.7036 44.8683Z" fill="black"/>
<path d="M43.2053 44.0918V31.0406C43.2053 23.2805 47.4205 18.6244 54.6565 18.6244C61.7521 18.6244 66.0375 23.2805 66.0375 31.0406V44.0918C66.0375 51.8519 61.8223 56.508 54.6565 56.508C47.4205 56.508 43.2053 51.8519 43.2053 44.0918ZM59.4337 44.0918V31.0406C59.4337 27.09 57.8179 24.9031 54.5863 24.9031C51.3546 24.9031 49.7388 27.09 49.7388 31.0406V44.0918C49.7388 48.0424 51.4249 50.2293 54.5863 50.2293C57.8179 50.2999 59.4337 48.1129 59.4337 44.0918Z" fill="black"/>
<path d="M88.2374 49.7355V55.873H70.5337V19.2593H76.9267V49.7355H88.2374Z" fill="black"/>
<path d="M91.5393 19.2593H101.023C108.189 19.2593 112.404 23.6332 112.404 31.0406V43.8801C112.404 51.4286 108.189 55.873 101.094 55.873H91.5393V19.2593ZM101.094 49.7355C104.255 49.7355 105.941 47.6896 105.941 43.8095V31.1111C105.941 27.3722 104.255 25.3968 101.094 25.3968H97.8621V49.7355H101.094Z" fill="black"/>
<path d="M116.901 19.2593H123.294V55.873H116.901V19.2593Z" fill="black"/>
<path d="M126.947 45.5027H133.48C133.551 48.8184 135.237 50.2999 137.976 50.2999C140.857 50.2999 142.262 48.6067 142.262 46.2082C142.262 39.5768 127.649 39.0124 127.649 28.0071C127.649 22.575 131.513 18.4833 137.906 18.4833C144.369 18.4833 148.304 22.5044 148.374 29.0653H141.84C141.77 26.1023 140.365 24.6914 137.906 24.6914C135.518 24.6914 134.113 26.0318 134.113 28.1482C134.113 34.4974 148.866 34.709 148.866 46.2082C148.866 51.993 144.861 56.508 137.906 56.508C131.232 56.5785 126.947 52.5574 126.947 45.5027Z" fill="black"/>
<path d="M171.417 49.806V55.873H152.659V19.2593H170.925V25.3263H159.052V34.3563H169.941V40.2117H159.052V49.806H171.417Z" fill="black"/>
<path d="M197.129 31.4639C197.129 39.1535 192.844 43.5979 185.538 43.5979H181.884V55.873H175.491V19.2593H185.538C192.844 19.2593 197.129 23.7743 197.129 31.4639ZM190.596 31.4639C190.596 27.4427 188.91 25.3968 185.467 25.3968H181.814V37.5309H185.467C188.91 37.5309 190.596 35.485 190.596 31.4639Z" fill="black"/>
<path d="M220.523 25.3968H213.217V55.873H206.684V25.3968H199.377V19.2593H220.523V25.3968Z" fill="black"/>
<path d="M33.8617 100.459C33.3699 100.67 32.7377 100.741 31.9649 100.741C31.6136 100.741 31.1219 100.741 30.7003 100.67C28.3117 100.388 27.1877 95.5908 26.5554 94.1094C25.9934 92.769 25.0099 88.9594 22.9725 88.9594C21.0757 88.9594 20.1624 91.2875 19.9517 92.769L18.7574 99.5415C18.6169 100.176 17.8441 100.67 16.6498 100.67C15.3852 100.67 14.8935 100.035 15.034 99.4004L18.2656 81.0582C18.5466 79.6473 19.7409 79.1534 21.0055 79.1534C21.2865 79.1534 21.7782 79.1534 22.1998 79.1534C26.0637 79.5767 26.2042 90.582 29.9978 90.582C31.7541 90.582 32.6674 88.7478 32.9484 87.2663L34.1427 80.6349C34.2832 79.6473 35.2668 79.1534 36.3206 79.1534C37.7959 79.1534 38.1471 79.7884 37.9364 80.9171L34.775 98.9771C34.6345 99.9647 34.213 100.317 33.8617 100.459Z" fill="white"/>
<path d="M57.4666 100.6C57.0451 100.741 56.6235 100.741 56.202 100.741C55.2887 100.741 54.4457 100.67 54.0242 99.8236C52.6894 97.0018 52.0571 96.5079 48.3337 96.5079C40.6762 96.5079 43.3458 100.741 38.9901 100.741C38.4281 100.741 37.1635 100.882 37.304 99.9647C38.7091 97.0018 40.3249 94.1094 41.8705 91.2169C43.5565 87.9718 45.1723 84.5855 46.9989 81.4109C48.404 79.0124 49.0362 79.224 51.2843 79.224C52.4084 79.224 54.3754 79.1535 54.5862 80.4233C54.5862 80.4233 55.7805 86.6314 56.202 89.2416C56.5533 91.1464 58.2393 98.6243 58.0286 99.9647C57.8881 100.388 57.6773 100.529 57.4666 100.6ZM52.5489 90.2293C52.5489 88.6773 52.1976 85.2205 50.2305 85.2205C49.809 85.2205 49.4578 85.3616 49.1065 85.5732C47.9122 86.3492 46.2964 89.3827 46.0154 90.7231C45.5939 93.1923 47.5609 93.7566 48.8255 93.7566C50.1603 93.7566 52.1274 93.0512 52.5489 90.6526C52.5489 90.6526 52.5489 90.4409 52.5489 90.2293Z" fill="white"/>
<path d="M79.5963 100.459C79.1046 100.67 78.4723 100.741 77.6995 100.741C77.3482 100.741 76.8565 100.741 76.435 100.67C74.0464 100.388 72.9223 95.5908 72.29 94.1094C71.728 92.769 70.7445 88.9594 68.7072 88.9594C66.8103 88.9594 65.897 91.2875 65.6863 92.769L64.492 99.5415C64.3515 100.176 63.5787 100.67 62.3844 100.67C61.1199 100.67 60.6281 100.035 60.7686 99.4004L64.0002 81.0582C64.2812 79.6473 65.4755 79.1534 66.7401 79.1534C67.0211 79.1534 67.5129 79.1534 67.9344 79.1534C71.7983 79.5767 71.9388 90.582 75.7324 90.582C77.4888 90.582 78.402 88.7478 78.6831 87.2663L79.8773 80.6349C80.0179 79.6473 81.0014 79.1534 82.0552 79.1534C83.5305 79.1534 83.8818 79.7884 83.671 80.9171L80.5096 98.9771C80.3691 99.9647 79.9476 100.317 79.5963 100.459Z" fill="white"/>
<path d="M95.8246 101.446C88.9398 101.446 85.1462 96.6491 86.2702 90.0177C87.4645 83.0335 93.2955 78.5891 99.829 78.5891C106.714 78.5891 110.507 83.3863 109.383 90.0177C108.189 96.9312 102.358 101.446 95.8246 101.446ZM99.267 81.7637C94.8411 81.7637 91.4689 85.6438 90.6961 90.0177C90.1341 93.0512 90.9771 98.2716 96.3866 98.2716C101.515 98.2716 104.325 93.545 104.957 90.0177C105.519 86.9842 104.676 81.7637 99.267 81.7637Z" fill="white"/>
<path d="M119.149 92.2752H123.715C123.785 95.4498 125.471 97.0018 128.211 97.0018C131.162 97.0018 132.637 95.2381 132.637 92.769C132.637 86.5609 119.711 86.2082 119.711 76.9665C119.711 72.4516 122.942 69.1359 128.141 69.1359C133.41 69.1359 136.571 72.5221 136.712 77.8131H132.145C132.075 74.8502 130.53 73.4392 128.141 73.4392C125.612 73.4392 124.207 74.8502 124.207 77.1076C124.207 83.1747 137.133 83.1747 137.133 92.8396C137.133 97.4251 133.902 101.446 128.141 101.446C122.732 101.376 119.219 97.9895 119.149 92.2752Z" fill="black"/>
<path d="M140.787 69.7002H145.213V100.811H140.787V69.7002Z" fill="black"/>
<path d="M164.673 96.5785V100.811H149.99V69.7002H154.416V96.5079H164.673V96.5785Z" fill="black"/>
<path d="M163.057 69.7002H167.693L171.417 86.843C172.049 89.5944 172.541 92.6279 172.962 95.097H173.173C173.595 92.6279 174.157 89.5944 174.719 86.843L178.442 69.7002H183.079L175.491 100.811H170.644L163.057 69.7002Z" fill="black"/>
<path d="M201.766 96.5785V100.811H186.24V69.7002H201.344V73.933H190.666V82.963H200.501V87.1252H190.666V96.649H201.766V96.5785Z" fill="black"/>
<path d="M212.796 89.5238H210.056V100.811H205.63V69.7002H213.568C219.47 69.7002 222.842 73.2275 222.842 79.4356C222.842 84.3034 220.804 87.6191 217.292 88.8889L223.966 100.811H219.048L212.796 89.5238ZM210.056 85.291H213.498C216.589 85.291 218.275 83.2452 218.275 79.5767C218.275 75.9083 216.66 74.0035 213.568 74.0035H210.056V85.291Z" fill="black"/>
</svg>
