<svg width="239" height="120" viewBox="0 0 239 120" fill="none" xmlns="http://www.w3.org/2000/svg">
<path d="M239 0H0V119.5H239V0Z" fill="#BCBEC0"/>
<path d="M29.2955 39.8333L27.3987 43.065V53.7434H22.2V19.5303H27.3987V33.5808L29.155 29.5764L34.2132 19.5303H40.3252L32.2461 34.4239L41.66 53.7434H35.6182L29.2955 39.8333Z" fill="black"/>
<path d="M43.2053 42.784V30.56C43.2053 23.3239 46.718 18.9683 52.7597 18.9683C58.7312 18.9683 62.2438 23.3239 62.2438 30.56V42.784C62.2438 50.02 58.7312 54.3757 52.7597 54.3757C46.718 54.3054 43.2053 49.9497 43.2053 42.784ZM56.6939 42.784V30.56C56.6939 26.8366 55.3591 24.7992 52.6894 24.7992C50.0198 24.7992 48.6148 26.8366 48.6148 30.56V42.784C48.6148 46.5074 50.0198 48.5447 52.6894 48.5447C55.3591 48.5447 56.6939 46.4371 56.6939 42.784Z" fill="black"/>
<path d="M63.7192 48.8257C65.5458 48.8257 66.5294 47.7719 67.0914 43.8377C67.5831 40.3251 67.9344 33.7916 68.4964 19.5303H84.5141V53.7434H79.2451V25.2208H73.6249C73.2034 34.7049 72.7819 41.3789 72.2198 45.3833C71.2363 52.6896 68.3559 54.3054 63.7192 54.3054V48.8257Z" fill="black"/>
<path d="M111.28 48.1232V59.5041H106.082V53.7434H92.4526V59.5041H87.2539V48.1232H89.0805C91.5393 45.1725 92.3824 39.8333 92.5931 34.8454L93.0849 19.5303H108.611V48.1232H111.28ZM103.272 25.2208H98.0026L97.6513 36.5314C97.5108 41.0276 96.8083 45.032 95.2627 48.1232H103.272V25.2208Z" fill="black"/>
<path d="M114.372 19.5303H119.57V30.7005C119.57 33.5106 119.289 38.7093 118.938 42.4327L119.078 42.503C119.711 40.6062 120.484 38.2176 121.256 36.1802L127.649 19.4601H132.918V53.6732H127.72V43.065C127.72 39.8334 127.93 34.2834 128.282 30.6303L128.141 30.4898C127.368 32.8081 126.525 35.548 125.612 37.9366L119.57 53.7434H114.301V19.5303H114.372Z" fill="black"/>
<path d="M137.344 43.4865V29.7872C137.344 22.6917 140.716 18.8278 146.407 18.8278C152.168 18.8278 155.469 22.6917 155.68 29.6467H150.341C150.201 26.134 148.866 24.5885 146.266 24.5885C144.089 24.5885 142.754 26.2043 142.754 29.7169V43.4162C142.754 46.8586 144.089 48.4744 146.337 48.4744C148.936 48.4744 150.271 46.9289 150.482 43.5567H155.75C155.54 50.5118 152.097 54.3054 146.337 54.3054C140.787 54.3054 137.344 50.5118 137.344 43.4865Z" fill="black"/>
<path d="M174.789 48.0529V53.7434H159.193V19.5303H174.367V25.2208H164.532V33.6511H173.524V39.1308H164.532V48.0529H174.789Z" fill="black"/>
<path d="M196.708 53.7434H191.368V25.291H184.132V53.7434H178.793V19.5303H196.708V53.7434Z" fill="black"/>
<path d="M217.362 25.291H211.25V53.7434H205.841V25.291H199.729V19.5303H217.362V25.291Z" fill="black"/>
<path d="M38.2877 100.602C38.2174 100.672 38.2174 100.742 38.1472 100.813C37.5149 101.375 37.2339 101.375 36.5314 101.375C35.5478 101.375 34.775 101.024 34.9156 99.9697L35.6883 95.5438C36.2504 92.3824 33.651 91.9609 31.4732 91.9609C29.4358 91.9609 26.5555 92.5932 26.0637 95.5438L25.2909 100.04C25.0802 101.164 24.0264 101.445 23.1833 101.445C22.6213 101.445 21.4973 101.445 21.6378 100.532L24.8694 81.5635C25.0099 80.861 26.2745 80.6502 26.696 80.6502C27.7498 80.6502 28.4523 81.0015 28.3118 82.0553L27.6795 85.5679C27.1877 88.378 29.8574 89.1508 31.8947 89.0805C34.0023 89.0805 36.8124 88.4483 37.3041 85.4976L37.8662 81.985C38.0769 80.9312 38.92 80.58 39.9738 80.58C40.3953 80.58 41.6598 80.7907 41.5193 81.423L38.3579 100.11C38.4282 100.321 38.2877 100.461 38.2877 100.602Z" fill="white"/>
<path d="M58.5206 101.234C58.1693 101.375 57.7478 101.375 57.3965 101.375C56.5535 101.375 55.7807 101.305 55.4294 100.532C54.3054 97.8621 53.6731 97.3704 50.4415 97.3704C43.627 97.3704 46.0156 101.445 42.1517 101.445C41.6599 101.445 40.5359 101.586 40.6764 100.742C41.9409 97.8621 43.4162 95.1223 44.8213 92.3122C46.2966 89.221 47.7719 85.9192 49.458 82.828C50.7225 80.5097 51.2845 80.7204 53.2516 80.7204C54.2352 80.7204 55.9915 80.6502 56.2022 81.9147C56.2022 81.9147 57.1858 87.8862 57.537 90.4153C57.818 92.2419 59.2933 99.4779 59.0826 100.742C58.9421 101.023 58.7313 101.164 58.5206 101.234ZM54.2351 91.2584C54.2351 89.783 53.9541 86.4812 52.1978 86.4812C51.8466 86.4812 51.4953 86.6217 51.2143 86.8324C50.1605 87.535 48.6852 90.4856 48.4042 91.8204C47.9827 94.209 49.739 94.7008 50.863 94.7008C51.9871 94.7008 53.8136 93.9982 54.2351 91.7501C54.2351 91.6096 54.2351 91.4691 54.2351 91.2584Z" fill="white"/>
<path d="M77.9806 100.602C77.9103 100.672 77.9103 100.742 77.8401 100.813C77.2078 101.375 76.9268 101.375 76.2242 101.375C75.2407 101.375 74.4679 101.024 74.6084 99.9697L75.3812 95.5438C75.9432 92.3824 73.3439 91.9609 71.166 91.9609C69.1287 91.9609 66.2483 92.5932 65.7566 95.5438L64.9838 100.04C64.773 101.164 63.7192 101.445 62.8762 101.445C62.3142 101.445 61.1901 101.445 61.3306 100.532L64.5623 81.5635C64.7028 80.861 65.9673 80.6502 66.3888 80.6502C67.4426 80.6502 68.1452 81.0015 68.0047 82.0553L67.3724 85.5679C66.8806 88.378 69.5502 89.1508 71.5876 89.0805C73.6951 89.0805 76.5053 88.4483 76.997 85.4976L77.559 81.985C77.7698 80.9312 78.6128 80.58 79.6666 80.58C80.0881 80.58 81.3527 80.7907 81.2122 81.423L78.0508 100.11C78.1211 100.321 77.9806 100.461 77.9806 100.602Z" fill="white"/>
<path d="M91.5392 102.007C85.4272 102.007 82.0551 97.3703 83.1088 90.9773C84.2329 84.3033 89.4316 79.9476 95.2626 79.9476C101.375 79.9476 104.747 84.5843 103.693 90.9773C102.569 97.7216 97.2999 102.007 91.5392 102.007ZM94.7708 83.0388C90.8366 83.0388 87.8158 86.7622 87.1133 91.0476C86.6215 93.9982 87.2538 98.9861 92.1012 98.9861C96.6676 98.9861 99.1967 94.4197 99.7588 91.0476C100.251 88.097 99.548 83.0388 94.7708 83.0388Z" fill="white"/>
<path d="M107.627 92.1716V79.7369C107.627 73.6249 110.227 70.323 114.301 70.323C118.516 70.323 120.975 73.6249 121.186 79.5964H117.884C117.673 76.0837 116.479 74.4679 114.301 74.4679C112.334 74.4679 111.07 76.154 111.07 79.7369V92.1716C111.07 95.7545 112.334 97.4406 114.371 97.4406C116.62 97.4406 117.814 95.8248 118.025 92.3824H121.326C121.116 98.3539 118.587 101.585 114.371 101.585C110.297 101.515 107.627 98.2134 107.627 92.1716Z" fill="black"/>
<path d="M123.715 70.8851H127.017V84.0927C127.017 86.2705 126.876 90.1344 126.666 92.804L126.736 92.8742C127.157 91.3989 127.79 89.2914 128.422 87.535L134.042 70.8851H137.414V101.024H134.112V87.8863C134.112 85.568 134.253 81.5636 134.393 79.0345L134.323 78.9642C133.902 80.5098 133.199 82.8281 132.637 84.5142L127.087 101.024H123.715V70.8851Z" fill="black"/>
<path d="M138.89 97.5109C140.365 97.5109 141.067 96.3166 141.419 93.2255C141.77 90.0641 142.051 83.3199 142.472 70.8851H153.924V101.024H150.552V74.9598H145.634C145.283 83.7414 145.002 90.6262 144.58 94.2091C144.018 99.6888 142.051 101.445 138.819 101.445V97.5109H138.89Z" fill="black"/>
<path d="M157.718 70.8851H161.09V82.8984H163.9C168.396 82.8984 170.855 86.4812 170.855 91.961C170.855 97.9324 168.396 101.024 163.9 101.024H157.718V70.8851ZM163.759 97.0192C166.007 97.0192 167.412 95.4033 167.412 91.961C167.412 88.6591 166.007 86.973 163.759 86.973H161.09V96.9489H163.759V97.0192Z" fill="black"/>
<path d="M186.24 92.3825C186.24 97.7919 183.57 101.024 179.566 101.024H172.962V70.8851H179.215C182.938 70.8851 185.327 74.0465 185.327 79.0345C185.327 81.9851 184.413 84.3034 183.008 85.4977C185.046 86.6218 186.24 89.1509 186.24 92.3825ZM176.334 74.9598V83.6009H179.004C181.041 83.6009 182.025 82.1256 182.025 79.175C182.025 76.3648 181.041 74.9598 178.863 74.9598H176.334ZM182.868 92.3825C182.868 89.2914 181.392 87.6755 179.004 87.6755H176.334V96.9489H179.144C181.603 96.9489 182.868 95.4736 182.868 92.3825Z" fill="black"/>
<path d="M200.572 96.9489V101.024H188.91V70.8851H200.22V74.9598H192.212V83.6711H199.588V87.7458H192.212V96.9489H200.572Z" fill="black"/>
<path d="M216.519 80.58C216.519 86.9028 213.92 90.4154 209.424 90.4154H206.684V101.024H203.312V70.8851H209.424C213.92 70.8851 216.519 74.468 216.519 80.58ZM213.077 80.58C213.077 76.8566 211.882 74.9598 209.353 74.9598H206.613V86.2705H209.353C211.882 86.2705 213.077 84.5142 213.077 80.58Z" fill="black"/>
</svg>
