<svg width="239" height="120" viewBox="0 0 239 120" fill="none" xmlns="http://www.w3.org/2000/svg">
<g clip-path="url(#clip0)">
<path d="M240 0H0V120H240V0Z" fill="#C6C6C6"/>
<path d="M33.5801 40.2116L31.8164 43.3157V53.545H26.8076V20.8113H31.8164V34.2152L33.5096 30.4056L38.3067 20.8113H44.1621L36.402 35.0617L45.432 53.545H39.6471L33.5801 40.2116Z" fill="#1D1D1B"/>
<path d="M48.3245 43.0335V31.3228C48.3245 24.4092 51.7107 20.2469 57.425 20.2469C63.1393 20.2469 66.5255 24.4092 66.5255 31.3228V43.0335C66.5255 49.9471 63.1393 54.1094 57.425 54.1094C51.7107 54.1094 48.3245 49.9471 48.3245 43.0335ZM61.2345 43.0335V31.3228C61.2345 27.7955 59.9647 25.8201 57.425 25.8201C54.8853 25.8201 53.5449 27.7955 53.5449 31.3228V43.0335C53.5449 46.5609 54.8853 48.5362 57.425 48.5362C59.9647 48.5362 61.2345 46.5609 61.2345 43.0335Z" fill="#1D1D1B"/>
<path d="M69.418 48.8183C71.1816 48.8183 72.0987 47.8307 72.6631 44.0211C73.1569 40.6349 73.5097 34.4268 74.0035 20.7407H89.3121V53.4039H84.2328V26.2434H78.8712C78.448 35.2734 78.0247 41.6931 77.5308 45.5026C76.6137 52.4868 73.7919 54.0388 69.418 54.0388V48.8183Z" fill="#1D1D1B"/>
<path d="M116.331 48.1129V58.9771H111.323V53.4744H98.2715V58.9771H93.2627V48.1129H95.0264C97.3544 45.291 98.201 40.1411 98.3421 35.4145L98.8359 20.8113H113.651V48.1129H116.331ZM108.712 26.2434H103.633L103.28 37.1076C103.139 41.4109 102.434 45.2205 101.023 48.1834H108.712V26.2434V26.2434Z" fill="#1D1D1B"/>
<path d="M125.785 20.8113H120.705V53.4744H125.785V20.8113Z" fill="#1D1D1B"/>
<path d="M131.358 43.739V30.6173C131.358 23.8448 134.603 20.1764 140.035 20.1764C145.538 20.1764 148.712 23.8448 148.924 30.5468H143.845C143.704 27.1605 142.434 25.7496 139.965 25.7496C137.848 25.7496 136.578 27.3016 136.578 30.6879V43.739C136.578 46.9841 137.848 48.5362 140.035 48.5362C142.575 48.5362 143.774 47.0547 143.986 43.8095H149.065C148.854 50.4409 145.608 54.1094 140.035 54.1094C134.674 54.1094 131.358 50.4409 131.358 43.739Z" fill="#1D1D1B"/>
<path d="M168.677 48.1129V53.545H153.721V20.8113H168.254V26.2434H158.801V34.2857H167.478V39.5767H158.801V48.1129H168.677Z" fill="#1D1D1B"/>
<path d="M191.041 53.545H185.961V26.3139H178.977V53.545H173.968V20.8113H191.041V53.545Z" fill="#1D1D1B"/>
<path d="M212.204 26.3139H206.42V53.545H201.199V26.3139H195.414V20.8113H212.204V26.3139Z" fill="#1D1D1B"/>
<path d="M42.1869 98.2716C42.1163 98.3422 42.1163 98.4127 42.0458 98.4833C41.4109 99.0476 41.1287 99.0476 40.4938 99.0476C39.5061 99.0476 38.8006 98.6949 38.9417 97.7072L39.6472 93.4744C40.141 90.4409 37.6719 90.0177 35.626 90.0177C33.6507 90.0177 30.8994 90.6526 30.4761 93.4744L29.7707 97.7778C29.559 98.836 28.5714 99.1182 27.7953 99.1182C27.3015 99.1182 26.1728 99.1182 26.3139 98.2716L29.3474 80.1411C29.4885 79.5062 30.6878 79.2946 31.111 79.2946C32.0987 79.2946 32.8042 79.6473 32.6631 80.6349L32.0987 84.0212C31.6754 86.702 34.2151 87.4074 36.1199 87.4074C38.0952 87.4074 40.8465 86.7725 41.2698 84.0212L41.8341 80.7055C41.9752 79.6473 42.8923 79.3651 43.8095 79.3651C44.2327 79.3651 45.432 79.5767 45.2909 80.2117L42.328 97.9189C42.328 97.9894 42.1869 98.2011 42.1869 98.2716Z" fill="white"/>
<path d="M61.3757 98.9066C61.0229 99.0477 60.6702 99.0477 60.2469 99.0477C59.4709 99.0477 58.7654 98.9771 58.4127 98.2011C57.3545 95.6614 56.7196 95.1676 53.6155 95.1676C47.0547 95.1676 49.3827 99.0477 45.6437 99.0477C45.1499 99.0477 44.0917 99.1887 44.2328 98.3422C45.4321 95.5909 46.843 92.9806 48.1834 90.2999C49.5944 87.3369 51.0053 84.1623 52.6279 81.2699C53.8272 79.0124 54.321 79.224 56.2257 79.224C57.1429 79.224 58.836 79.1535 59.0476 80.3528C59.0476 80.3528 59.9647 86.0671 60.3175 88.4656C60.5996 90.2293 62.0106 97.1429 61.7989 98.3422C61.7284 98.7655 61.5873 98.836 61.3757 98.9066ZM57.2134 89.3828C57.2134 87.9718 57.0018 84.7972 55.3086 84.7972C54.9559 84.7972 54.6032 84.9383 54.321 85.1499C53.3333 85.8554 51.8518 88.6773 51.6402 89.8766C51.2875 92.1341 52.9101 92.6279 53.9683 92.6279C55.097 92.6279 56.7901 91.993 57.1429 89.806C57.2134 89.7355 57.2839 89.5944 57.2134 89.3828Z" fill="white"/>
<path d="M79.7176 98.2716C79.6471 98.3422 79.6471 98.4127 79.5765 98.4833C78.9416 99.0476 78.6594 99.0476 78.0245 99.0476C77.0369 99.0476 76.3314 98.6949 76.4725 97.7072L77.178 93.4744C77.6718 90.4409 75.2026 90.0177 73.1568 90.0177C71.1815 90.0177 68.4302 90.6526 68.0069 93.4744L67.3014 97.7778C67.0898 98.836 66.1021 99.1182 65.3261 99.1182C64.8323 99.1182 63.7035 99.1182 63.8446 98.2716L66.8781 80.1411C67.0192 79.5062 68.2185 79.2946 68.6418 79.2946C69.6295 79.2946 70.3349 79.6473 70.1938 80.6349L69.6295 84.0212C69.2062 86.702 71.7459 87.4074 73.6506 87.4074C75.6259 87.4074 78.3772 86.7725 78.8005 84.0212L79.3649 80.7055C79.506 79.6473 80.4231 79.3651 81.3402 79.3651C81.7635 79.3651 82.9628 79.5767 82.8217 80.2117L79.7882 98.1305C79.7882 97.9894 79.7176 98.2011 79.7176 98.2716Z" fill="white"/>
<path d="M92.4868 99.6826C86.6314 99.6826 83.4568 95.2381 84.4444 89.1711C85.5026 82.7514 90.5115 78.5891 96.0141 78.5891C101.869 78.5891 105.044 83.0336 104.056 89.1711C102.998 95.5203 97.9894 99.6826 92.4868 99.6826ZM95.5203 81.5521C91.7813 81.5521 88.8889 85.15 88.1834 89.1711C87.6896 91.993 88.3245 96.7902 92.9806 96.7902C97.3545 96.7902 99.7531 92.4163 100.317 89.1711C100.741 86.3493 100.106 81.5521 95.5203 81.5521Z" fill="white"/>
<path d="M106.808 90.9347V79.1534C106.808 73.3686 109.629 70.194 113.933 70.194C118.448 70.194 121.058 73.298 121.27 79.0123H117.742C117.531 75.6261 116.261 74.1446 113.862 74.1446C111.816 74.1446 110.406 75.7672 110.406 79.1534V90.9347C110.406 94.3209 111.816 95.9435 113.933 95.9435C116.331 95.9435 117.601 94.3915 117.883 91.1463H121.411C121.129 96.7901 118.518 99.8941 113.933 99.8941C109.629 99.8236 106.808 96.649 106.808 90.9347Z" fill="#1D1D1B"/>
<path d="M127.901 70.6879H124.303V99.3298H127.901V70.6879Z" fill="#1D1D1B"/>
<path d="M129.665 96.0142C131.217 96.0142 131.993 94.8854 132.416 91.993C132.839 89.03 133.122 82.6103 133.545 70.7584H145.749V99.4004H142.152V74.709H136.931C136.578 83.0336 136.226 89.5944 135.802 92.9806C135.167 98.2011 133.051 99.8237 129.665 99.8237V96.0142V96.0142Z" fill="#1D1D1B"/>
<path d="M150.123 70.6879H153.721V82.1164H156.755C161.552 82.1164 164.162 85.5732 164.162 90.7231C164.162 96.3669 161.552 99.3298 156.755 99.3298H150.123V70.6879ZM156.543 95.5203C158.942 95.5203 160.423 93.9683 160.423 90.7231C160.423 87.5485 158.942 85.9965 156.543 85.9965H153.651V95.4498H156.543V95.5203Z" fill="#1D1D1B"/>
<path d="M180.882 91.1464C180.882 96.2258 178.06 99.3298 173.757 99.3298H166.702V70.6879H173.404C177.425 70.6879 179.965 73.6508 179.965 78.448C179.965 81.1993 178.977 83.4568 177.496 84.5856C179.541 85.6438 180.882 88.0424 180.882 91.1464ZM170.229 74.6385V82.8219H173.051C175.238 82.8219 176.296 81.411 176.296 78.5891C176.296 75.9083 175.238 74.5679 172.981 74.5679H170.229V74.6385ZM177.213 91.1464C177.213 88.1835 175.591 86.702 173.122 86.702H170.229V95.4498H173.263C175.873 95.4498 177.213 94.0388 177.213 91.1464Z" fill="#1D1D1B"/>
<path d="M196.402 95.4498V99.3298H183.915V70.6879H196.049V74.6385H187.513V82.8925H195.344V86.702H187.513V95.4498H196.402Z" fill="#1D1D1B"/>
<path d="M213.686 79.9295C213.686 85.926 210.935 89.2417 206.067 89.2417H203.175V99.3298H199.577V70.6879H206.138C210.935 70.6879 213.686 74.1447 213.686 79.9295ZM210.088 79.9295C210.088 76.4022 208.818 74.6385 206.067 74.6385H203.175V85.3616H206.138C208.748 85.3616 210.088 83.6685 210.088 79.9295Z" fill="#1D1D1B"/>
</g>
<defs>
<clipPath id="clip0">
<rect width="239" height="120" fill="white"/>
</clipPath>
</defs>
</svg>
